<?xml version="1.0" encoding="UTF-8" standalone="no"?>
<!DOCTYPE svg PUBLIC "-//W3C//DTD SVG 1.1//EN"
 "http://www.w3.org/Graphics/SVG/1.1/DTD/svg11.dtd">
<!-- Generated by graphviz version 2.38.0 (20140413.2041)
 -->
<!-- Title: FiftyoneDegrees::Examples::Hash::ExampleBase Pages: 1 -->
<svg width="320pt" height="284pt"
 viewBox="0.00 0.00 320.00 284.00" xmlns="http://www.w3.org/2000/svg" xmlns:xlink="http://www.w3.org/1999/xlink">
<g id="graph0" class="graph" transform="scale(1 1) rotate(0) translate(4 280)">
<title>FiftyoneDegrees::Examples::Hash::ExampleBase</title>
<!-- Node0 -->
<g id="node1" class="node"><title>Node0</title>
<g id="a_node1"><a xlink:title="Base class extended by all Hash examples.">
<polygon fill="#bfbfbf" stroke="black" points="0,-122.5 0,-152.5 137,-152.5 137,-122.5 0,-122.5"/>
<text text-anchor="start" x="8" y="-140.5" font-family="Helvetica,sans-Serif" font-size="10.00">FiftyoneDegrees::Examples</text>
<text text-anchor="middle" x="68.5" y="-129.5" font-family="Helvetica,sans-Serif" font-size="10.00">::Hash::ExampleBase</text>
</a>
</g>
</g>
<!-- Node1 -->
<g id="node2" class="node"><title>Node1</title>
<g id="a_node2"><a xlink:href="class_fiftyone_degrees_1_1_examples_1_1_hash_1_1_getting_started.html" target="_top" xlink:title="Hash Getting Started Example.">
<polygon fill="none" stroke="black" points="174,-245.5 174,-275.5 311,-275.5 311,-245.5 174,-245.5"/>
<text text-anchor="start" x="182" y="-263.5" font-family="Helvetica,sans-Serif" font-size="10.00">FiftyoneDegrees::Examples</text>
<text text-anchor="middle" x="242.5" y="-252.5" font-family="Helvetica,sans-Serif" font-size="10.00">::Hash::GettingStarted</text>
</a>
</g>
</g>
<!-- Node0&#45;&gt;Node1 -->
<g id="edge1" class="edge"><title>Node0&#45;&gt;Node1</title>
<path fill="none" stroke="midnightblue" d="M88.1485,-160.291C107.365,-182.471 139.207,-215.777 173,-236.5 178.479,-239.86 184.493,-242.833 190.612,-245.441"/>
<polygon fill="midnightblue" stroke="midnightblue" points="90.8064,-158.014 81.6599,-152.666 85.4755,-162.55 90.8064,-158.014"/>
</g>
<!-- Node2 -->
<g id="node3" class="node"><title>Node2</title>
<g id="a_node3"><a xlink:href="class_fiftyone_degrees_1_1_examples_1_1_hash_1_1_match_metrics.html" target="_top" xlink:title="Match Metrics Hash Example.">
<polygon fill="none" stroke="black" points="174,-196.5 174,-226.5 311,-226.5 311,-196.5 174,-196.5"/>
<text text-anchor="start" x="182" y="-214.5" font-family="Helvetica,sans-Serif" font-size="10.00">FiftyoneDegrees::Examples</text>
<text text-anchor="middle" x="242.5" y="-203.5" font-family="Helvetica,sans-Serif" font-size="10.00">::Hash::MatchMetrics</text>
</a>
</g>
</g>
<!-- Node0&#45;&gt;Node2 -->
<g id="edge2" class="edge"><title>Node0&#45;&gt;Node2</title>
<path fill="none" stroke="midnightblue" d="M107.635,-157.199C126.979,-166.863 150.984,-178.36 173,-187.5 180.448,-190.592 188.454,-193.638 196.272,-196.468"/>
<polygon fill="midnightblue" stroke="midnightblue" points="109.048,-153.992 98.5423,-152.62 105.9,-160.244 109.048,-153.992"/>
</g>
<!-- Node3 -->
<g id="node4" class="node"><title>Node3</title>
<g id="a_node4"><a xlink:href="class_fiftyone_degrees_1_1_examples_1_1_hash_1_1_meta_data_example.html" target="_top" xlink:title="Hash Meta Data Example.">
<polygon fill="none" stroke="black" points="174,-147.5 174,-177.5 311,-177.5 311,-147.5 174,-147.5"/>
<text text-anchor="start" x="182" y="-165.5" font-family="Helvetica,sans-Serif" font-size="10.00">FiftyoneDegrees::Examples</text>
<text text-anchor="middle" x="242.5" y="-154.5" font-family="Helvetica,sans-Serif" font-size="10.00">::Hash::MetaDataExample</text>
</a>
</g>
</g>
<!-- Node0&#45;&gt;Node3 -->
<g id="edge3" class="edge"><title>Node0&#45;&gt;Node3</title>
<path fill="none" stroke="midnightblue" d="M147.634,-148.857C156.346,-150.123 165.166,-151.405 173.733,-152.65"/>
<polygon fill="midnightblue" stroke="midnightblue" points="147.878,-145.356 137.479,-147.381 146.872,-152.283 147.878,-145.356"/>
</g>
<!-- Node4 -->
<g id="node5" class="node"><title>Node4</title>
<g id="a_node5"><a xlink:href="class_fiftyone_degrees_1_1_examples_1_1_hash_1_1_reload_from_file.html" target="_top" xlink:title="Hash Reload From File Example.">
<polygon fill="none" stroke="black" points="174,-98.5 174,-128.5 311,-128.5 311,-98.5 174,-98.5"/>
<text text-anchor="start" x="182" y="-116.5" font-family="Helvetica,sans-Serif" font-size="10.00">FiftyoneDegrees::Examples</text>
<text text-anchor="middle" x="242.5" y="-105.5" font-family="Helvetica,sans-Serif" font-size="10.00">::Hash::ReloadFromFile</text>
</a>
</g>
</g>
<!-- Node0&#45;&gt;Node4 -->
<g id="edge4" class="edge"><title>Node0&#45;&gt;Node4</title>
<path fill="none" stroke="midnightblue" d="M147.634,-126.598C156.346,-125.382 165.166,-124.151 173.733,-122.956"/>
<polygon fill="midnightblue" stroke="midnightblue" points="146.899,-123.166 137.479,-128.015 147.867,-130.099 146.899,-123.166"/>
</g>
<!-- Node5 -->
<g id="node6" class="node"><title>Node5</title>
<g id="a_node6"><a xlink:href="class_fiftyone_degrees_1_1_examples_1_1_hash_1_1_reload_from_memory.html" target="_top" xlink:title="Hash Reload From Memory Example.">
<polygon fill="none" stroke="black" points="173,-49.5 173,-79.5 312,-79.5 312,-49.5 173,-49.5"/>
<text text-anchor="start" x="181" y="-67.5" font-family="Helvetica,sans-Serif" font-size="10.00">FiftyoneDegrees::Examples</text>
<text text-anchor="middle" x="242.5" y="-56.5" font-family="Helvetica,sans-Serif" font-size="10.00">::Hash::ReloadFromMemory</text>
</a>
</g>
</g>
<!-- Node0&#45;&gt;Node5 -->
<g id="edge5" class="edge"><title>Node0&#45;&gt;Node5</title>
<path fill="none" stroke="midnightblue" d="M109.708,-117.892C128.731,-108.864 151.861,-98.241 173,-89.5 181.189,-86.1137 190.022,-82.7101 198.533,-79.5518"/>
<polygon fill="midnightblue" stroke="midnightblue" points="107.963,-114.847 100.448,-122.315 110.98,-121.164 107.963,-114.847"/>
</g>
<!-- Node6 -->
<g id="node7" class="node"><title>Node6</title>
<g id="a_node7"><a xlink:href="class_fiftyone_degrees_1_1_examples_1_1_hash_1_1_strongly_typed.html" target="_top" xlink:title="Hash Strongly Typed Example.">
<polygon fill="none" stroke="black" points="174,-0.5 174,-30.5 311,-30.5 311,-0.5 174,-0.5"/>
<text text-anchor="start" x="182" y="-18.5" font-family="Helvetica,sans-Serif" font-size="10.00">FiftyoneDegrees::Examples</text>
<text text-anchor="middle" x="242.5" y="-7.5" font-family="Helvetica,sans-Serif" font-size="10.00">::Hash::StronglyTyped</text>
</a>
</g>
</g>
<!-- Node0&#45;&gt;Node6 -->
<g id="edge6" class="edge"><title>Node0&#45;&gt;Node6</title>
<path fill="none" stroke="midnightblue" d="M88.8798,-114.634C108.266,-92.9908 139.892,-60.8653 173,-40.5 179.038,-36.7856 185.713,-33.5 192.456,-30.6332"/>
<polygon fill="midnightblue" stroke="midnightblue" points="86.0512,-112.55 82.0715,-122.369 91.3058,-117.175 86.0512,-112.55"/>
</g>
</g>
</svg>
