<?xml version="1.0" encoding="UTF-8" standalone="no"?>
<!DOCTYPE svg PUBLIC "-//W3C//DTD SVG 1.1//EN"
 "http://www.w3.org/Graphics/SVG/1.1/DTD/svg11.dtd">
<!-- Generated by graphviz version 2.38.0 (20140413.2041)
 -->
<!-- Title: FiftyoneDegrees::Common::EntityMetaData&lt; K &gt; Pages: 1 -->
<svg width="643pt" height="186pt"
 viewBox="0.00 0.00 643.00 186.00" xmlns="http://www.w3.org/2000/svg" xmlns:xlink="http://www.w3.org/1999/xlink">
<g id="graph0" class="graph" transform="scale(1 1) rotate(0) translate(4 182)">
<title>FiftyoneDegrees::Common::EntityMetaData&lt; K &gt;</title>
<!-- Node0 -->
<g id="node1" class="node"><title>Node0</title>
<g id="a_node1"><a xlink:title="Base class for any entity meta data.">
<polygon fill="#bfbfbf" stroke="black" points="0,-73.5 0,-103.5 132,-103.5 132,-73.5 0,-73.5"/>
<text text-anchor="start" x="8" y="-91.5" font-family="Helvetica,sans-Serif" font-size="10.00">FiftyoneDegrees::Common</text>
<text text-anchor="middle" x="66" y="-80.5" font-family="Helvetica,sans-Serif" font-size="10.00">::EntityMetaData&lt; K &gt;</text>
</a>
</g>
</g>
<!-- Node1 -->
<g id="node2" class="node"><title>Node1</title>
<g id="a_node2"><a xlink:href="class_fiftyone_degrees_1_1_common_1_1_entity_meta_data.html" target="_top" xlink:title=" ">
<polygon fill="none" stroke="black" points="298.5,-147.5 298.5,-177.5 441.5,-177.5 441.5,-147.5 298.5,-147.5"/>
<text text-anchor="start" x="306.5" y="-165.5" font-family="Helvetica,sans-Serif" font-size="10.00">FiftyoneDegrees::Common</text>
<text text-anchor="middle" x="370" y="-154.5" font-family="Helvetica,sans-Serif" font-size="10.00">::EntityMetaData&lt; uint32_t &gt;</text>
</a>
</g>
</g>
<!-- Node0&#45;&gt;Node1 -->
<g id="edge1" class="edge"><title>Node0&#45;&gt;Node1</title>
<path fill="none" stroke="orange" stroke-dasharray="5,2" d="M114.489,-107.034C126.005,-111.147 138.356,-115.245 150,-118.5 198.927,-132.176 255.127,-143.377 298.344,-151.055"/>
<polygon fill="orange" stroke="orange" points="115.639,-103.728 105.045,-103.594 113.243,-110.306 115.639,-103.728"/>
<text text-anchor="middle" x="203" y="-144.5" font-family="Helvetica,sans-Serif" font-size="10.00"> &lt; uint32_t &gt;</text>
</g>
<!-- Node3 -->
<g id="node4" class="node"><title>Node3</title>
<g id="a_node4"><a xlink:href="class_fiftyone_degrees_1_1_common_1_1_entity_meta_data.html" target="_top" xlink:title=" ">
<polygon fill="none" stroke="black" points="274,-98.5 274,-128.5 466,-128.5 466,-98.5 274,-98.5"/>
<text text-anchor="start" x="282" y="-116.5" font-family="Helvetica,sans-Serif" font-size="10.00">FiftyoneDegrees::Common</text>
<text text-anchor="middle" x="370" y="-105.5" font-family="Helvetica,sans-Serif" font-size="10.00">::EntityMetaData&lt; ValueMetaDataKey &gt;</text>
</a>
</g>
</g>
<!-- Node0&#45;&gt;Node3 -->
<g id="edge3" class="edge"><title>Node0&#45;&gt;Node3</title>
<path fill="none" stroke="orange" stroke-dasharray="5,2" d="M142.329,-94.7359C182.145,-98.0318 231.426,-102.111 273.857,-105.624"/>
<polygon fill="orange" stroke="orange" points="142.412,-91.2309 132.158,-93.8938 141.835,-98.207 142.412,-91.2309"/>
<text text-anchor="middle" x="203" y="-106.5" font-family="Helvetica,sans-Serif" font-size="10.00"> &lt; ValueMetaDataKey &gt;</text>
</g>
<!-- Node5 -->
<g id="node6" class="node"><title>Node5</title>
<g id="a_node6"><a xlink:href="class_fiftyone_degrees_1_1_common_1_1_entity_meta_data.html" target="_top" xlink:title=" ">
<polygon fill="none" stroke="black" points="304,-49.5 304,-79.5 436,-79.5 436,-49.5 304,-49.5"/>
<text text-anchor="start" x="312" y="-67.5" font-family="Helvetica,sans-Serif" font-size="10.00">FiftyoneDegrees::Common</text>
<text text-anchor="middle" x="370" y="-56.5" font-family="Helvetica,sans-Serif" font-size="10.00">::EntityMetaData&lt; string &gt;</text>
</a>
</g>
</g>
<!-- Node0&#45;&gt;Node5 -->
<g id="edge5" class="edge"><title>Node0&#45;&gt;Node5</title>
<path fill="none" stroke="orange" stroke-dasharray="5,2" d="M142.288,-77.3174C144.888,-77.0261 147.465,-76.7522 150,-76.5 201.532,-71.3732 260.118,-68.3069 303.721,-66.5588"/>
<polygon fill="orange" stroke="orange" points="141.694,-73.8632 132.177,-78.5187 142.52,-80.8143 141.694,-73.8632"/>
<text text-anchor="middle" x="203" y="-79.5" font-family="Helvetica,sans-Serif" font-size="10.00"> &lt; string &gt;</text>
</g>
<!-- Node7 -->
<g id="node8" class="node"><title>Node7</title>
<g id="a_node8"><a xlink:href="class_fiftyone_degrees_1_1_common_1_1_entity_meta_data.html" target="_top" xlink:title=" ">
<polygon fill="none" stroke="black" points="304,-0.5 304,-30.5 436,-30.5 436,-0.5 304,-0.5"/>
<text text-anchor="start" x="312" y="-18.5" font-family="Helvetica,sans-Serif" font-size="10.00">FiftyoneDegrees::Common</text>
<text text-anchor="middle" x="370" y="-7.5" font-family="Helvetica,sans-Serif" font-size="10.00">::EntityMetaData&lt; byte &gt;</text>
</a>
</g>
</g>
<!-- Node0&#45;&gt;Node7 -->
<g id="edge7" class="edge"><title>Node0&#45;&gt;Node7</title>
<path fill="none" stroke="orange" stroke-dasharray="5,2" d="M107.298,-69.3375C120.654,-63.5757 135.752,-57.6811 150,-53.5 200.728,-38.6141 259.881,-28.7779 303.914,-22.8498"/>
<polygon fill="orange" stroke="orange" points="105.649,-66.2396 97.9172,-73.4831 108.479,-72.6422 105.649,-66.2396"/>
<text text-anchor="middle" x="203" y="-56.5" font-family="Helvetica,sans-Serif" font-size="10.00"> &lt; byte &gt;</text>
</g>
<!-- Node2 -->
<g id="node3" class="node"><title>Node2</title>
<g id="a_node3"><a xlink:href="class_fiftyone_degrees_1_1_common_1_1_profile_meta_data.html" target="_top" xlink:title="Meta data relating to a profile populated by an engine implementation.">
<polygon fill="none" stroke="black" points="503,-147.5 503,-177.5 635,-177.5 635,-147.5 503,-147.5"/>
<text text-anchor="start" x="511" y="-165.5" font-family="Helvetica,sans-Serif" font-size="10.00">FiftyoneDegrees::Common</text>
<text text-anchor="middle" x="569" y="-154.5" font-family="Helvetica,sans-Serif" font-size="10.00">::ProfileMetaData</text>
</a>
</g>
</g>
<!-- Node1&#45;&gt;Node2 -->
<g id="edge2" class="edge"><title>Node1&#45;&gt;Node2</title>
<path fill="none" stroke="midnightblue" d="M451.998,-162.5C468.933,-162.5 486.581,-162.5 502.852,-162.5"/>
<polygon fill="midnightblue" stroke="midnightblue" points="451.565,-159 441.565,-162.5 451.565,-166 451.565,-159"/>
</g>
<!-- Node4 -->
<g id="node5" class="node"><title>Node4</title>
<g id="a_node5"><a xlink:href="class_fiftyone_degrees_1_1_common_1_1_value_meta_data.html" target="_top" xlink:title="Meta data relating to a value populated by an engine implementation.">
<polygon fill="none" stroke="black" points="503,-98.5 503,-128.5 635,-128.5 635,-98.5 503,-98.5"/>
<text text-anchor="start" x="511" y="-116.5" font-family="Helvetica,sans-Serif" font-size="10.00">FiftyoneDegrees::Common</text>
<text text-anchor="middle" x="569" y="-105.5" font-family="Helvetica,sans-Serif" font-size="10.00">::ValueMetaData</text>
</a>
</g>
</g>
<!-- Node3&#45;&gt;Node4 -->
<g id="edge4" class="edge"><title>Node3&#45;&gt;Node4</title>
<path fill="none" stroke="midnightblue" d="M476.288,-113.5C485.353,-113.5 494.341,-113.5 502.942,-113.5"/>
<polygon fill="midnightblue" stroke="midnightblue" points="476.038,-110 466.038,-113.5 476.038,-117 476.038,-110"/>
</g>
<!-- Node6 -->
<g id="node7" class="node"><title>Node6</title>
<g id="a_node7"><a xlink:href="class_fiftyone_degrees_1_1_common_1_1_property_meta_data.html" target="_top" xlink:title="Meta data relating to a property populated by an engine implementation.">
<polygon fill="none" stroke="black" points="503,-49.5 503,-79.5 635,-79.5 635,-49.5 503,-49.5"/>
<text text-anchor="start" x="511" y="-67.5" font-family="Helvetica,sans-Serif" font-size="10.00">FiftyoneDegrees::Common</text>
<text text-anchor="middle" x="569" y="-56.5" font-family="Helvetica,sans-Serif" font-size="10.00">::PropertyMetaData</text>
</a>
</g>
</g>
<!-- Node5&#45;&gt;Node6 -->
<g id="edge6" class="edge"><title>Node5&#45;&gt;Node6</title>
<path fill="none" stroke="midnightblue" d="M446.242,-64.5C464.836,-64.5 484.603,-64.5 502.681,-64.5"/>
<polygon fill="midnightblue" stroke="midnightblue" points="446.051,-61.0001 436.051,-64.5 446.051,-68.0001 446.051,-61.0001"/>
</g>
<!-- Node8 -->
<g id="node9" class="node"><title>Node8</title>
<g id="a_node9"><a xlink:href="class_fiftyone_degrees_1_1_common_1_1_component_meta_data.html" target="_top" xlink:title="EntityMetaData relating to a component populated by an engine implementation.">
<polygon fill="none" stroke="black" points="503,-0.5 503,-30.5 635,-30.5 635,-0.5 503,-0.5"/>
<text text-anchor="start" x="511" y="-18.5" font-family="Helvetica,sans-Serif" font-size="10.00">FiftyoneDegrees::Common</text>
<text text-anchor="middle" x="569" y="-7.5" font-family="Helvetica,sans-Serif" font-size="10.00">::ComponentMetaData</text>
</a>
</g>
</g>
<!-- Node7&#45;&gt;Node8 -->
<g id="edge8" class="edge"><title>Node7&#45;&gt;Node8</title>
<path fill="none" stroke="midnightblue" d="M446.242,-15.5C464.836,-15.5 484.603,-15.5 502.681,-15.5"/>
<polygon fill="midnightblue" stroke="midnightblue" points="446.051,-12.0001 436.051,-15.5 446.051,-19.0001 446.051,-12.0001"/>
</g>
</g>
</svg>
