<?xml version="1.0" encoding="UTF-8" standalone="no"?>
<!DOCTYPE svg PUBLIC "-//W3C//DTD SVG 1.1//EN"
 "http://www.w3.org/Graphics/SVG/1.1/DTD/svg11.dtd">
<!-- Generated by graphviz version 2.38.0 (20140413.2041)
 -->
<!-- Title: FiftyoneDegrees::Examples::Hash::StronglyTyped Pages: 1 -->
<svg width="1362pt" height="161pt"
 viewBox="0.00 0.00 1362.00 160.50" xmlns="http://www.w3.org/2000/svg" xmlns:xlink="http://www.w3.org/1999/xlink">
<g id="graph0" class="graph" transform="scale(1 1) rotate(0) translate(4 156.5)">
<title>FiftyoneDegrees::Examples::Hash::StronglyTyped</title>
<!-- Node2 -->
<g id="node1" class="node"><title>Node2</title>
<g id="a_node1"><a xlink:title="Hash Strongly Typed Example.">
<polygon fill="#bfbfbf" stroke="black" points="1217,-66.5 1217,-96.5 1354,-96.5 1354,-66.5 1217,-66.5"/>
<text text-anchor="start" x="1225" y="-84.5" font-family="Helvetica,sans-Serif" font-size="10.00">FiftyoneDegrees::Examples</text>
<text text-anchor="middle" x="1285.5" y="-73.5" font-family="Helvetica,sans-Serif" font-size="10.00">::Hash::StronglyTyped</text>
</a>
</g>
</g>
<!-- Node3 -->
<g id="node2" class="node"><title>Node3</title>
<g id="a_node2"><a xlink:href="class_fiftyone_degrees_1_1_examples_1_1_hash_1_1_example_base.html" target="_top" xlink:title="Base class extended by all Hash examples.">
<polygon fill="none" stroke="black" points="1043,-66.5 1043,-96.5 1180,-96.5 1180,-66.5 1043,-66.5"/>
<text text-anchor="start" x="1051" y="-84.5" font-family="Helvetica,sans-Serif" font-size="10.00">FiftyoneDegrees::Examples</text>
<text text-anchor="middle" x="1111.5" y="-73.5" font-family="Helvetica,sans-Serif" font-size="10.00">::Hash::ExampleBase</text>
</a>
</g>
</g>
<!-- Node3&#45;&gt;Node2 -->
<g id="edge1" class="edge"><title>Node3&#45;&gt;Node2</title>
<path fill="none" stroke="midnightblue" d="M1190.63,-81.5C1199.35,-81.5 1208.17,-81.5 1216.73,-81.5"/>
<polygon fill="midnightblue" stroke="midnightblue" points="1190.48,-78.0001 1180.48,-81.5 1190.48,-85.0001 1190.48,-78.0001"/>
</g>
<!-- Node4 -->
<g id="node3" class="node"><title>Node4</title>
<g id="a_node3"><a xlink:href="class_fiftyone_degrees_1_1_device_detection_1_1_hash_1_1_engine_hash.html" target="_top" xlink:title="Encapsulates the Hash engine class which implements EngineDeviceDetection.">
<polygon fill="none" stroke="black" points="812,-66.5 812,-96.5 975,-96.5 975,-66.5 812,-66.5"/>
<text text-anchor="start" x="820" y="-84.5" font-family="Helvetica,sans-Serif" font-size="10.00">FiftyoneDegrees::DeviceDetection</text>
<text text-anchor="middle" x="893.5" y="-73.5" font-family="Helvetica,sans-Serif" font-size="10.00">::Hash::EngineHash</text>
</a>
</g>
</g>
<!-- Node4&#45;&gt;Node3 -->
<g id="edge2" class="edge"><title>Node4&#45;&gt;Node3</title>
<path fill="none" stroke="#9a32cd" stroke-dasharray="5,2" d="M985.259,-81.5C1004.58,-81.5 1024.66,-81.5 1042.93,-81.5"/>
<polygon fill="#9a32cd" stroke="#9a32cd" points="985.238,-78.0001 975.238,-81.5 985.238,-85.0001 985.238,-78.0001"/>
<text text-anchor="middle" x="1009" y="-84.5" font-family="Helvetica,sans-Serif" font-size="10.00"> engine</text>
</g>
<!-- Node5 -->
<g id="node4" class="node"><title>Node5</title>
<g id="a_node4"><a xlink:href="class_fiftyone_degrees_1_1_device_detection_1_1_engine_device_detection.html" target="_top" xlink:title="Encapsulates the device detection engine class to be extended by device detection engine implementati...">
<polygon fill="none" stroke="black" points="450,-66.5 450,-96.5 613,-96.5 613,-66.5 450,-66.5"/>
<text text-anchor="start" x="458" y="-84.5" font-family="Helvetica,sans-Serif" font-size="10.00">FiftyoneDegrees::DeviceDetection</text>
<text text-anchor="middle" x="531.5" y="-73.5" font-family="Helvetica,sans-Serif" font-size="10.00">::EngineDeviceDetection</text>
</a>
</g>
</g>
<!-- Node5&#45;&gt;Node4 -->
<g id="edge3" class="edge"><title>Node5&#45;&gt;Node4</title>
<path fill="none" stroke="midnightblue" d="M623.559,-81.5C681.595,-81.5 756.108,-81.5 811.979,-81.5"/>
<polygon fill="midnightblue" stroke="midnightblue" points="623.291,-78.0001 613.291,-81.5 623.291,-85.0001 623.291,-78.0001"/>
</g>
<!-- Node6 -->
<g id="node5" class="node"><title>Node6</title>
<g id="a_node5"><a xlink:href="class_fiftyone_degrees_1_1_common_1_1_engine_base.html" target="_top" xlink:title="Encapsulates the engine class to be extended by engine implementations.">
<polygon fill="none" stroke="black" points="265.5,-66.5 265.5,-96.5 397.5,-96.5 397.5,-66.5 265.5,-66.5"/>
<text text-anchor="start" x="273.5" y="-84.5" font-family="Helvetica,sans-Serif" font-size="10.00">FiftyoneDegrees::Common</text>
<text text-anchor="middle" x="331.5" y="-73.5" font-family="Helvetica,sans-Serif" font-size="10.00">::EngineBase</text>
</a>
</g>
</g>
<!-- Node6&#45;&gt;Node5 -->
<g id="edge4" class="edge"><title>Node6&#45;&gt;Node5</title>
<path fill="none" stroke="midnightblue" d="M407.934,-81.5C421.626,-81.5 435.957,-81.5 449.794,-81.5"/>
<polygon fill="midnightblue" stroke="midnightblue" points="407.607,-78.0001 397.607,-81.5 407.607,-85.0001 407.607,-78.0001"/>
</g>
<!-- Node7 -->
<g id="node6" class="node"><title>Node7</title>
<g id="a_node6"><a xlink:href="class_fiftyone_degrees_1_1_common_1_1_required_properties_config.html" target="_top" xlink:title="C++ class wrapper for the fiftyoneDegreesPropertiesRequired structure.">
<polygon fill="none" stroke="black" points="0,-120.5 0,-150.5 132,-150.5 132,-120.5 0,-120.5"/>
<text text-anchor="start" x="8" y="-138.5" font-family="Helvetica,sans-Serif" font-size="10.00">FiftyoneDegrees::Common</text>
<text text-anchor="middle" x="66" y="-127.5" font-family="Helvetica,sans-Serif" font-size="10.00">::RequiredPropertiesConfig</text>
</a>
</g>
</g>
<!-- Node7&#45;&gt;Node3 -->
<g id="edge11" class="edge"><title>Node7&#45;&gt;Node3</title>
<path fill="none" stroke="#9a32cd" stroke-dasharray="5,2" d="M142.504,-138.131C195.181,-139.743 267.117,-141.5 330.5,-141.5 330.5,-141.5 330.5,-141.5 894.5,-141.5 961.442,-141.5 1035.94,-114.415 1077.62,-96.6405"/>
<polygon fill="#9a32cd" stroke="#9a32cd" points="142.338,-134.624 132.233,-137.811 142.12,-141.621 142.338,-134.624"/>
<text text-anchor="middle" x="531.5" y="-144.5" font-family="Helvetica,sans-Serif" font-size="10.00"> properties</text>
</g>
<!-- Node7&#45;&gt;Node6 -->
<g id="edge5" class="edge"><title>Node7&#45;&gt;Node6</title>
<path fill="none" stroke="#9a32cd" stroke-dasharray="5,2" d="M141.533,-118.313C144.39,-117.694 147.22,-117.087 150,-116.5 188.101,-108.447 230.881,-100.121 265.227,-93.6106"/>
<polygon fill="#9a32cd" stroke="#9a32cd" points="140.766,-114.898 131.748,-120.458 142.265,-121.735 140.766,-114.898"/>
<text text-anchor="middle" x="191" y="-119.5" font-family="Helvetica,sans-Serif" font-size="10.00"> requiredProperties</text>
</g>
<!-- Node8 -->
<g id="node7" class="node"><title>Node8</title>
<g id="a_node7"><a xlink:href="class_fiftyone_degrees_1_1_common_1_1_meta_data.html" target="_top" xlink:title="Contains meta data for the properties, values, profiles and components that exist within the engine i...">
<polygon fill="none" stroke="black" points="0,-66.5 0,-96.5 132,-96.5 132,-66.5 0,-66.5"/>
<text text-anchor="start" x="8" y="-84.5" font-family="Helvetica,sans-Serif" font-size="10.00">FiftyoneDegrees::Common</text>
<text text-anchor="middle" x="66" y="-73.5" font-family="Helvetica,sans-Serif" font-size="10.00">::MetaData</text>
</a>
</g>
</g>
<!-- Node8&#45;&gt;Node6 -->
<g id="edge6" class="edge"><title>Node8&#45;&gt;Node6</title>
<path fill="none" stroke="#9a32cd" stroke-dasharray="5,2" d="M142.329,-81.5C181.121,-81.5 227.96,-81.5 265.201,-81.5"/>
<polygon fill="#9a32cd" stroke="#9a32cd" points="142.135,-78.0001 132.135,-81.5 142.135,-85.0001 142.135,-78.0001"/>
<text text-anchor="middle" x="191" y="-84.5" font-family="Helvetica,sans-Serif" font-size="10.00"> metaData</text>
</g>
<!-- Node9 -->
<g id="node8" class="node"><title>Node9</title>
<g id="a_node8"><a xlink:href="class_fiftyone_degrees_1_1_common_1_1_config_base.html" target="_top" xlink:title="C++ class wrapper for the fiftyoneDegreesConfigBase configuration structure.">
<polygon fill="none" stroke="black" points="0,-8.5 0,-38.5 132,-38.5 132,-8.5 0,-8.5"/>
<text text-anchor="start" x="8" y="-26.5" font-family="Helvetica,sans-Serif" font-size="10.00">FiftyoneDegrees::Common</text>
<text text-anchor="middle" x="66" y="-15.5" font-family="Helvetica,sans-Serif" font-size="10.00">::ConfigBase</text>
</a>
</g>
</g>
<!-- Node9&#45;&gt;Node6 -->
<g id="edge7" class="edge"><title>Node9&#45;&gt;Node6</title>
<path fill="none" stroke="#9a32cd" stroke-dasharray="5,2" d="M142.329,-40.081C181.121,-48.6197 227.96,-58.9294 265.201,-67.1268"/>
<polygon fill="#9a32cd" stroke="#9a32cd" points="142.653,-36.5687 132.135,-37.8371 141.149,-43.405 142.653,-36.5687"/>
<text text-anchor="middle" x="191" y="-62.5" font-family="Helvetica,sans-Serif" font-size="10.00"> config</text>
</g>
<!-- Node11 -->
<g id="node10" class="node"><title>Node11</title>
<g id="a_node10"><a xlink:href="class_fiftyone_degrees_1_1_device_detection_1_1_config_device_detection.html" target="_top" xlink:title="C++ class wrapper for the fiftyoneDegreesConfigDeviceDetection configuration structure.">
<polygon fill="none" stroke="black" points="250,-0.5 250,-30.5 413,-30.5 413,-0.5 250,-0.5"/>
<text text-anchor="start" x="258" y="-18.5" font-family="Helvetica,sans-Serif" font-size="10.00">FiftyoneDegrees::DeviceDetection</text>
<text text-anchor="middle" x="331.5" y="-7.5" font-family="Helvetica,sans-Serif" font-size="10.00">::ConfigDeviceDetection</text>
</a>
</g>
</g>
<!-- Node9&#45;&gt;Node11 -->
<g id="edge10" class="edge"><title>Node9&#45;&gt;Node11</title>
<path fill="none" stroke="midnightblue" d="M142.34,-21.2126C175.888,-20.1941 215.45,-18.993 249.62,-17.9556"/>
<polygon fill="midnightblue" stroke="midnightblue" points="142.024,-17.7205 132.135,-21.5225 142.236,-24.7173 142.024,-17.7205"/>
</g>
<!-- Node10 -->
<g id="node9" class="node"><title>Node10</title>
<g id="a_node9"><a xlink:href="class_fiftyone_degrees_1_1_device_detection_1_1_hash_1_1_config_hash.html" target="_top" xlink:title="C++ class wrapper for the fiftyoneDegreesConfigHash configuration structure.">
<polygon fill="none" stroke="black" points="631,-8.5 631,-38.5 794,-38.5 794,-8.5 631,-8.5"/>
<text text-anchor="start" x="639" y="-26.5" font-family="Helvetica,sans-Serif" font-size="10.00">FiftyoneDegrees::DeviceDetection</text>
<text text-anchor="middle" x="712.5" y="-15.5" font-family="Helvetica,sans-Serif" font-size="10.00">::Hash::ConfigHash</text>
</a>
</g>
</g>
<!-- Node10&#45;&gt;Node3 -->
<g id="edge8" class="edge"><title>Node10&#45;&gt;Node3</title>
<path fill="none" stroke="#9a32cd" stroke-dasharray="5,2" d="M804.327,-27.2115C854.857,-30.2585 918.726,-35.7354 975,-45.5 1004.38,-50.5976 1036.67,-59.0598 1062.35,-66.4994"/>
<polygon fill="#9a32cd" stroke="#9a32cd" points="804.267,-23.7022 794.08,-26.6158 803.86,-30.6904 804.267,-23.7022"/>
<text text-anchor="middle" x="893.5" y="-48.5" font-family="Helvetica,sans-Serif" font-size="10.00"> config</text>
</g>
<!-- Node11&#45;&gt;Node10 -->
<g id="edge9" class="edge"><title>Node11&#45;&gt;Node10</title>
<path fill="none" stroke="midnightblue" d="M423.688,-17.4248C486.812,-18.7572 570.064,-20.5145 630.784,-21.7962"/>
<polygon fill="midnightblue" stroke="midnightblue" points="423.412,-13.9183 413.34,-17.2064 423.264,-20.9167 423.412,-13.9183"/>
</g>
</g>
</svg>
