<?xml version="1.0" encoding="UTF-8" standalone="no"?>
<!DOCTYPE svg PUBLIC "-//W3C//DTD SVG 1.1//EN"
 "http://www.w3.org/Graphics/SVG/1.1/DTD/svg11.dtd">
<!-- Generated by graphviz version 2.38.0 (20140413.2041)
 -->
<!-- Title: FiftyoneDegrees::Common::ValueMetaData Pages: 1 -->
<svg width="210pt" height="185pt"
 viewBox="0.00 0.00 210.00 185.00" xmlns="http://www.w3.org/2000/svg" xmlns:xlink="http://www.w3.org/1999/xlink">
<g id="graph0" class="graph" transform="scale(1 1) rotate(0) translate(4 181)">
<title>FiftyoneDegrees::Common::ValueMetaData</title>
<!-- Node0 -->
<g id="node1" class="node"><title>Node0</title>
<g id="a_node1"><a xlink:title="Meta data relating to a value populated by an engine implementation.">
<polygon fill="#bfbfbf" stroke="black" points="30,-0.5 30,-30.5 162,-30.5 162,-0.5 30,-0.5"/>
<text text-anchor="start" x="38" y="-18.5" font-family="Helvetica,sans-Serif" font-size="10.00">FiftyoneDegrees::Common</text>
<text text-anchor="middle" x="96" y="-7.5" font-family="Helvetica,sans-Serif" font-size="10.00">::ValueMetaData</text>
</a>
</g>
</g>
<!-- Node1 -->
<g id="node2" class="node"><title>Node1</title>
<g id="a_node2"><a xlink:href="class_fiftyone_degrees_1_1_common_1_1_entity_meta_data.html" target="_top" xlink:title=" ">
<polygon fill="none" stroke="black" points="0,-68.5 0,-98.5 192,-98.5 192,-68.5 0,-68.5"/>
<text text-anchor="start" x="8" y="-86.5" font-family="Helvetica,sans-Serif" font-size="10.00">FiftyoneDegrees::Common</text>
<text text-anchor="middle" x="96" y="-75.5" font-family="Helvetica,sans-Serif" font-size="10.00">::EntityMetaData&lt; ValueMetaDataKey &gt;</text>
</a>
</g>
</g>
<!-- Node1&#45;&gt;Node0 -->
<g id="edge1" class="edge"><title>Node1&#45;&gt;Node0</title>
<path fill="none" stroke="midnightblue" d="M96,-58.0322C96,-48.8606 96,-38.7449 96,-30.7931"/>
<polygon fill="midnightblue" stroke="midnightblue" points="92.5001,-58.1789 96,-68.179 99.5001,-58.179 92.5001,-58.1789"/>
</g>
<!-- Node2 -->
<g id="node3" class="node"><title>Node2</title>
<g id="a_node3"><a xlink:href="class_fiftyone_degrees_1_1_common_1_1_entity_meta_data.html" target="_top" xlink:title="Base class for any entity meta data.">
<polygon fill="none" stroke="black" points="30,-146.5 30,-176.5 162,-176.5 162,-146.5 30,-146.5"/>
<text text-anchor="start" x="38" y="-164.5" font-family="Helvetica,sans-Serif" font-size="10.00">FiftyoneDegrees::Common</text>
<text text-anchor="middle" x="96" y="-153.5" font-family="Helvetica,sans-Serif" font-size="10.00">::EntityMetaData&lt; K &gt;</text>
</a>
</g>
</g>
<!-- Node2&#45;&gt;Node1 -->
<g id="edge2" class="edge"><title>Node2&#45;&gt;Node1</title>
<path fill="none" stroke="orange" stroke-dasharray="5,2" d="M96,-136.09C96,-123.757 96,-109.224 96,-98.7309"/>
<polygon fill="orange" stroke="orange" points="92.5001,-136.205 96,-146.205 99.5001,-136.205 92.5001,-136.205"/>
<text text-anchor="middle" x="149" y="-120" font-family="Helvetica,sans-Serif" font-size="10.00"> &lt; ValueMetaDataKey &gt;</text>
</g>
</g>
</svg>
