<?xml version="1.0" encoding="UTF-8" standalone="no"?>
<!DOCTYPE svg PUBLIC "-//W3C//DTD SVG 1.1//EN"
 "http://www.w3.org/Graphics/SVG/1.1/DTD/svg11.dtd">
<!-- Generated by graphviz version 2.38.0 (20140413.2041)
 -->
<!-- Title: FiftyoneDegrees::Examples::Pattern::ExampleBase Pages: 1 -->
<svg width="329pt" height="284pt"
 viewBox="0.00 0.00 329.00 284.00" xmlns="http://www.w3.org/2000/svg" xmlns:xlink="http://www.w3.org/1999/xlink">
<g id="graph0" class="graph" transform="scale(1 1) rotate(0) translate(4 280)">
<title>FiftyoneDegrees::Examples::Pattern::ExampleBase</title>
<!-- Node0 -->
<g id="node1" class="node"><title>Node0</title>
<g id="a_node1"><a xlink:title="Base class extended by all Pattern examples.">
<polygon fill="#bfbfbf" stroke="black" points="0,-122.5 0,-152.5 137,-152.5 137,-122.5 0,-122.5"/>
<text text-anchor="start" x="8" y="-140.5" font-family="Helvetica,sans-Serif" font-size="10.00">FiftyoneDegrees::Examples</text>
<text text-anchor="middle" x="68.5" y="-129.5" font-family="Helvetica,sans-Serif" font-size="10.00">::Pattern::ExampleBase</text>
</a>
</g>
</g>
<!-- Node1 -->
<g id="node2" class="node"><title>Node1</title>
<g id="a_node2"><a xlink:href="class_fiftyone_degrees_1_1_examples_1_1_pattern_1_1_getting_started.html" target="_top" xlink:title="Pattern Getting Started Example.">
<polygon fill="none" stroke="black" points="178.5,-245.5 178.5,-275.5 315.5,-275.5 315.5,-245.5 178.5,-245.5"/>
<text text-anchor="start" x="186.5" y="-263.5" font-family="Helvetica,sans-Serif" font-size="10.00">FiftyoneDegrees::Examples</text>
<text text-anchor="middle" x="247" y="-252.5" font-family="Helvetica,sans-Serif" font-size="10.00">::Pattern::GettingStarted</text>
</a>
</g>
</g>
<!-- Node0&#45;&gt;Node1 -->
<g id="edge1" class="edge"><title>Node0&#45;&gt;Node1</title>
<path fill="none" stroke="midnightblue" d="M88.0635,-160.431C107.214,-182.719 139.008,-216.105 173,-236.5 178.606,-239.863 184.74,-242.818 190.995,-245.398"/>
<polygon fill="midnightblue" stroke="midnightblue" points="90.7219,-158.154 81.5993,-152.766 85.3709,-162.667 90.7219,-158.154"/>
</g>
<!-- Node2 -->
<g id="node3" class="node"><title>Node2</title>
<g id="a_node3"><a xlink:href="class_fiftyone_degrees_1_1_examples_1_1_pattern_1_1_match_metrics.html" target="_top" xlink:title="Match Metrics Pattern Example.">
<polygon fill="none" stroke="black" points="178.5,-196.5 178.5,-226.5 315.5,-226.5 315.5,-196.5 178.5,-196.5"/>
<text text-anchor="start" x="186.5" y="-214.5" font-family="Helvetica,sans-Serif" font-size="10.00">FiftyoneDegrees::Examples</text>
<text text-anchor="middle" x="247" y="-203.5" font-family="Helvetica,sans-Serif" font-size="10.00">::Pattern::MatchMetrics</text>
</a>
</g>
</g>
<!-- Node0&#45;&gt;Node2 -->
<g id="edge2" class="edge"><title>Node0&#45;&gt;Node2</title>
<path fill="none" stroke="midnightblue" d="M107.144,-157.172C126.541,-166.926 150.738,-178.509 173,-187.5 180.67,-190.597 188.906,-193.602 196.985,-196.378"/>
<polygon fill="midnightblue" stroke="midnightblue" points="108.539,-153.955 98.0373,-152.55 105.371,-160.197 108.539,-153.955"/>
</g>
<!-- Node3 -->
<g id="node4" class="node"><title>Node3</title>
<g id="a_node4"><a xlink:href="class_fiftyone_degrees_1_1_examples_1_1_pattern_1_1_meta_data_example.html" target="_top" xlink:title="Pattern Meta Data Example.">
<polygon fill="none" stroke="black" points="177,-147.5 177,-177.5 317,-177.5 317,-147.5 177,-147.5"/>
<text text-anchor="start" x="185" y="-165.5" font-family="Helvetica,sans-Serif" font-size="10.00">FiftyoneDegrees::Examples</text>
<text text-anchor="middle" x="247" y="-154.5" font-family="Helvetica,sans-Serif" font-size="10.00">::Pattern::MetaDataExample</text>
</a>
</g>
</g>
<!-- Node0&#45;&gt;Node3 -->
<g id="edge3" class="edge"><title>Node0&#45;&gt;Node3</title>
<path fill="none" stroke="midnightblue" d="M147.415,-148.536C157.265,-149.931 167.288,-151.351 176.986,-152.725"/>
<polygon fill="midnightblue" stroke="midnightblue" points="147.627,-145.031 137.235,-147.094 146.645,-151.962 147.627,-145.031"/>
</g>
<!-- Node4 -->
<g id="node5" class="node"><title>Node4</title>
<g id="a_node5"><a xlink:href="class_fiftyone_degrees_1_1_examples_1_1_pattern_1_1_reload_from_file.html" target="_top" xlink:title="Pattern Reload From File Example.">
<polygon fill="none" stroke="black" points="178.5,-98.5 178.5,-128.5 315.5,-128.5 315.5,-98.5 178.5,-98.5"/>
<text text-anchor="start" x="186.5" y="-116.5" font-family="Helvetica,sans-Serif" font-size="10.00">FiftyoneDegrees::Examples</text>
<text text-anchor="middle" x="247" y="-105.5" font-family="Helvetica,sans-Serif" font-size="10.00">::Pattern::ReloadFromFile</text>
</a>
</g>
</g>
<!-- Node0&#45;&gt;Node4 -->
<g id="edge4" class="edge"><title>Node0&#45;&gt;Node4</title>
<path fill="none" stroke="midnightblue" d="M147.153,-126.941C157.582,-125.523 168.211,-124.078 178.447,-122.686"/>
<polygon fill="midnightblue" stroke="midnightblue" points="146.672,-123.474 137.235,-128.29 147.615,-130.41 146.672,-123.474"/>
</g>
<!-- Node5 -->
<g id="node6" class="node"><title>Node5</title>
<g id="a_node6"><a xlink:href="class_fiftyone_degrees_1_1_examples_1_1_pattern_1_1_reload_from_memory.html" target="_top" xlink:title="Pattern Reload From Memory Example.">
<polygon fill="none" stroke="black" points="173,-49.5 173,-79.5 321,-79.5 321,-49.5 173,-49.5"/>
<text text-anchor="start" x="181" y="-67.5" font-family="Helvetica,sans-Serif" font-size="10.00">FiftyoneDegrees::Examples</text>
<text text-anchor="middle" x="247" y="-56.5" font-family="Helvetica,sans-Serif" font-size="10.00">::Pattern::ReloadFromMemory</text>
</a>
</g>
</g>
<!-- Node0&#45;&gt;Node5 -->
<g id="edge5" class="edge"><title>Node0&#45;&gt;Node5</title>
<path fill="none" stroke="midnightblue" d="M108.948,-118.027C128.08,-108.887 151.52,-98.1317 173,-89.5 181.577,-86.0535 190.833,-82.6486 199.78,-79.5134"/>
<polygon fill="midnightblue" stroke="midnightblue" points="107.421,-114.877 99.9285,-122.368 110.457,-121.185 107.421,-114.877"/>
</g>
<!-- Node6 -->
<g id="node7" class="node"><title>Node6</title>
<g id="a_node7"><a xlink:href="class_fiftyone_degrees_1_1_examples_1_1_pattern_1_1_strongly_typed.html" target="_top" xlink:title="Pattern Strongly Typed Example.">
<polygon fill="none" stroke="black" points="178.5,-0.5 178.5,-30.5 315.5,-30.5 315.5,-0.5 178.5,-0.5"/>
<text text-anchor="start" x="186.5" y="-18.5" font-family="Helvetica,sans-Serif" font-size="10.00">FiftyoneDegrees::Examples</text>
<text text-anchor="middle" x="247" y="-7.5" font-family="Helvetica,sans-Serif" font-size="10.00">::Pattern::StronglyTyped</text>
</a>
</g>
</g>
<!-- Node0&#45;&gt;Node6 -->
<g id="edge6" class="edge"><title>Node0&#45;&gt;Node6</title>
<path fill="none" stroke="midnightblue" d="M88.7907,-114.487C108.111,-92.7362 139.691,-60.5332 173,-40.5 179.314,-36.7026 186.284,-33.383 193.338,-30.5111"/>
<polygon fill="midnightblue" stroke="midnightblue" points="85.9429,-112.428 82.0081,-122.265 91.2186,-117.028 85.9429,-112.428"/>
</g>
</g>
</svg>
