<?xml version="1.0" encoding="UTF-8" standalone="no"?>
<!DOCTYPE svg PUBLIC "-//W3C//DTD SVG 1.1//EN"
 "http://www.w3.org/Graphics/SVG/1.1/DTD/svg11.dtd">
<!-- Generated by graphviz version 2.38.0 (20140413.2041)
 -->
<!-- Title: FiftyoneDegrees::Common::ResultsBase Pages: 1 -->
<svg width="387pt" height="331pt"
 viewBox="0.00 0.00 387.00 331.00" xmlns="http://www.w3.org/2000/svg" xmlns:xlink="http://www.w3.org/1999/xlink">
<g id="graph0" class="graph" transform="scale(1 1) rotate(0) translate(4 327)">
<title>FiftyoneDegrees::Common::ResultsBase</title>
<!-- Node4 -->
<g id="node1" class="node"><title>Node4</title>
<g id="a_node1"><a xlink:title="Encapsulates the results of an engine&#39;s processing.">
<polygon fill="#bfbfbf" stroke="black" points="13,-0.5 13,-30.5 145,-30.5 145,-0.5 13,-0.5"/>
<text text-anchor="start" x="21" y="-18.5" font-family="Helvetica,sans-Serif" font-size="10.00">FiftyoneDegrees::Common</text>
<text text-anchor="middle" x="79" y="-7.5" font-family="Helvetica,sans-Serif" font-size="10.00">::ResultsBase</text>
</a>
</g>
</g>
<!-- Node5 -->
<g id="node2" class="node"><title>Node5</title>
<g id="a_node2"><a xlink:href="structfiftyone_degrees_property_available_array.html" target="_top" xlink:title="Array of items of type fiftyoneDegreesPropertyAvailable used to easily access and track the size of t...">
<polygon fill="none" stroke="black" points="0,-78.5 0,-108.5 158,-108.5 158,-78.5 0,-78.5"/>
<text text-anchor="start" x="8" y="-96.5" font-family="Helvetica,sans-Serif" font-size="10.00">fiftyoneDegreesPropertyAvailable</text>
<text text-anchor="middle" x="79" y="-85.5" font-family="Helvetica,sans-Serif" font-size="10.00">Array</text>
</a>
</g>
</g>
<!-- Node5&#45;&gt;Node4 -->
<g id="edge1" class="edge"><title>Node5&#45;&gt;Node4</title>
<path fill="none" stroke="#9a32cd" stroke-dasharray="5,2" d="M79,-68.0898C79,-55.7565 79,-41.2237 79,-30.7309"/>
<polygon fill="#9a32cd" stroke="#9a32cd" points="75.5001,-68.2049 79,-78.205 82.5001,-68.205 75.5001,-68.2049"/>
<text text-anchor="middle" x="99" y="-52" font-family="Helvetica,sans-Serif" font-size="10.00"> available</text>
</g>
<!-- Node6 -->
<g id="node3" class="node"><title>Node6</title>
<g id="a_node3"><a xlink:href="structfiftyone_degrees_property_available.html" target="_top" xlink:title="Used to access the property item quickly without the need to search.">
<polygon fill="none" stroke="black" points="0,-163 0,-182 158,-182 158,-163 0,-163"/>
<text text-anchor="middle" x="79" y="-170" font-family="Helvetica,sans-Serif" font-size="10.00">fiftyoneDegreesPropertyAvailable</text>
</a>
</g>
</g>
<!-- Node6&#45;&gt;Node5 -->
<g id="edge2" class="edge"><title>Node6&#45;&gt;Node5</title>
<path fill="none" stroke="#9a32cd" stroke-dasharray="5,2" d="M79,-152.805C79,-139.162 79,-120.959 79,-108.545"/>
<polygon fill="#9a32cd" stroke="#9a32cd" points="75.5001,-152.965 79,-162.965 82.5001,-152.965 75.5001,-152.965"/>
<text text-anchor="middle" x="93" y="-130" font-family="Helvetica,sans-Serif" font-size="10.00"> items</text>
</g>
<!-- Node7 -->
<g id="node4" class="node"><title>Node7</title>
<g id="a_node4"><a xlink:href="structfiftyone_degrees_collection_item.html" target="_top" xlink:title="Used to store a handle to the underlying item that could be used to release the item when it&#39;s finish...">
<polygon fill="none" stroke="black" points="108.5,-236.5 108.5,-255.5 253.5,-255.5 253.5,-236.5 108.5,-236.5"/>
<text text-anchor="middle" x="181" y="-243.5" font-family="Helvetica,sans-Serif" font-size="10.00">fiftyoneDegreesCollectionItem</text>
</a>
</g>
</g>
<!-- Node7&#45;&gt;Node6 -->
<g id="edge3" class="edge"><title>Node7&#45;&gt;Node6</title>
<path fill="none" stroke="#9a32cd" stroke-dasharray="5,2" d="M160.048,-230.313C139.327,-215.788 108.319,-194.052 91.2909,-182.116"/>
<polygon fill="#9a32cd" stroke="#9a32cd" points="158.295,-233.359 168.493,-236.233 162.313,-227.627 158.295,-233.359"/>
<text text-anchor="middle" x="157" y="-210" font-family="Helvetica,sans-Serif" font-size="10.00"> name</text>
</g>
<!-- Node8 -->
<g id="node5" class="node"><title>Node8</title>
<g id="a_node5"><a xlink:href="structfiftyone_degrees_collection.html" target="_top" xlink:title="All the shared methods and fields required by file, memory and cached collections.">
<polygon fill="none" stroke="black" points="176,-163 176,-182 302,-182 302,-163 176,-163"/>
<text text-anchor="middle" x="239" y="-170" font-family="Helvetica,sans-Serif" font-size="10.00">fiftyoneDegreesCollection</text>
</a>
</g>
</g>
<!-- Node7&#45;&gt;Node8 -->
<g id="edge5" class="edge"><title>Node7&#45;&gt;Node8</title>
<path fill="none" stroke="#9a32cd" stroke-dasharray="5,2" d="M175.26,-226.198C174.351,-219.731 174.632,-212.692 178,-207 185.014,-195.146 197.878,-187.206 209.99,-182.045"/>
<polygon fill="#9a32cd" stroke="#9a32cd" points="171.911,-227.25 177.578,-236.202 178.73,-225.67 171.911,-227.25"/>
<text text-anchor="middle" x="195.5" y="-210" font-family="Helvetica,sans-Serif" font-size="10.00"> release</text>
</g>
<!-- Node8&#45;&gt;Node7 -->
<g id="edge4" class="edge"><title>Node8&#45;&gt;Node7</title>
<path fill="none" stroke="#9a32cd" stroke-dasharray="5,2" d="M232.38,-191.529C228.682,-200.109 223.499,-210.177 217,-218 211.009,-225.211 202.725,-231.594 195.613,-236.342"/>
<polygon fill="#9a32cd" stroke="#9a32cd" points="235.706,-192.638 236.144,-182.053 229.2,-190.054 235.706,-192.638"/>
<text text-anchor="middle" x="246.5" y="-210" font-family="Helvetica,sans-Serif" font-size="10.00"> collection</text>
</g>
<!-- Node8&#45;&gt;Node8 -->
<g id="edge6" class="edge"><title>Node8&#45;&gt;Node8</title>
<path fill="none" stroke="#9a32cd" stroke-dasharray="5,2" d="M312.09,-177.897C317.012,-176.651 320,-174.852 320,-172.5 320,-168.828 312.719,-166.505 302.168,-165.529"/>
<polygon fill="#9a32cd" stroke="#9a32cd" points="311.496,-174.447 302.168,-179.471 312.593,-181.361 311.496,-174.447"/>
<text text-anchor="middle" x="349.5" y="-181" font-family="Helvetica,sans-Serif" font-size="10.00"> next</text>
<text text-anchor="middle" x="349.5" y="-170" font-family="Helvetica,sans-Serif" font-size="10.00">freeCollection</text>
<text text-anchor="middle" x="349.5" y="-159" font-family="Helvetica,sans-Serif" font-size="10.00">get</text>
</g>
<!-- Node9 -->
<g id="node6" class="node"><title>Node9</title>
<g id="a_node6"><a xlink:href="structfiftyone_degrees_data.html" target="_top" xlink:title="Data structure used for reusing memory which may have been allocated in a previous operation.">
<polygon fill="none" stroke="black" points="129,-303.5 129,-322.5 233,-322.5 233,-303.5 129,-303.5"/>
<text text-anchor="middle" x="181" y="-310.5" font-family="Helvetica,sans-Serif" font-size="10.00">fiftyoneDegreesData</text>
</a>
</g>
</g>
<!-- Node9&#45;&gt;Node7 -->
<g id="edge7" class="edge"><title>Node9&#45;&gt;Node7</title>
<path fill="none" stroke="#9a32cd" stroke-dasharray="5,2" d="M181,-293.037C181,-280.67 181,-265.12 181,-255.627"/>
<polygon fill="#9a32cd" stroke="#9a32cd" points="177.5,-293.234 181,-303.234 184.5,-293.234 177.5,-293.234"/>
<text text-anchor="middle" x="192" y="-277" font-family="Helvetica,sans-Serif" font-size="10.00"> data</text>
</g>
</g>
</svg>
