<?xml version="1.0" encoding="UTF-8" standalone="no"?>
<!DOCTYPE svg PUBLIC "-//W3C//DTD SVG 1.1//EN"
 "http://www.w3.org/Graphics/SVG/1.1/DTD/svg11.dtd">
<!-- Generated by graphviz version 2.38.0 (20140413.2041)
 -->
<!-- Title: FiftyoneDegrees::DeviceDetection::Hash::ResultsHash Pages: 1 -->
<svg width="390pt" height="467pt"
 viewBox="0.00 0.00 389.50 467.00" xmlns="http://www.w3.org/2000/svg" xmlns:xlink="http://www.w3.org/1999/xlink">
<g id="graph0" class="graph" transform="scale(1 1) rotate(0) translate(4 463)">
<title>FiftyoneDegrees::DeviceDetection::Hash::ResultsHash</title>
<!-- Node3 -->
<g id="node1" class="node"><title>Node3</title>
<g id="a_node1"><a xlink:title="Encapsulates the results of a Hash device detection engine&#39;s processing.">
<polygon fill="#bfbfbf" stroke="black" points="0,-0.5 0,-30.5 163,-30.5 163,-0.5 0,-0.5"/>
<text text-anchor="start" x="8" y="-18.5" font-family="Helvetica,sans-Serif" font-size="10.00">FiftyoneDegrees::DeviceDetection</text>
<text text-anchor="middle" x="81.5" y="-7.5" font-family="Helvetica,sans-Serif" font-size="10.00">::Hash::ResultsHash</text>
</a>
</g>
</g>
<!-- Node4 -->
<g id="node2" class="node"><title>Node4</title>
<g id="a_node2"><a xlink:href="class_fiftyone_degrees_1_1_device_detection_1_1_results_device_detection.html" target="_top" xlink:title="Encapsulates the results of a device detection engine&#39;s processing.">
<polygon fill="none" stroke="black" points="0,-68.5 0,-98.5 163,-98.5 163,-68.5 0,-68.5"/>
<text text-anchor="start" x="8" y="-86.5" font-family="Helvetica,sans-Serif" font-size="10.00">FiftyoneDegrees::DeviceDetection</text>
<text text-anchor="middle" x="81.5" y="-75.5" font-family="Helvetica,sans-Serif" font-size="10.00">::ResultsDeviceDetection</text>
</a>
</g>
</g>
<!-- Node4&#45;&gt;Node3 -->
<g id="edge1" class="edge"><title>Node4&#45;&gt;Node3</title>
<path fill="none" stroke="midnightblue" d="M81.5,-58.0322C81.5,-48.8606 81.5,-38.7449 81.5,-30.7931"/>
<polygon fill="midnightblue" stroke="midnightblue" points="78.0001,-58.1789 81.5,-68.179 85.0001,-58.179 78.0001,-58.1789"/>
</g>
<!-- Node5 -->
<g id="node3" class="node"><title>Node5</title>
<g id="a_node3"><a xlink:href="class_fiftyone_degrees_1_1_common_1_1_results_base.html" target="_top" xlink:title="Encapsulates the results of an engine&#39;s processing.">
<polygon fill="none" stroke="black" points="15.5,-136.5 15.5,-166.5 147.5,-166.5 147.5,-136.5 15.5,-136.5"/>
<text text-anchor="start" x="23.5" y="-154.5" font-family="Helvetica,sans-Serif" font-size="10.00">FiftyoneDegrees::Common</text>
<text text-anchor="middle" x="81.5" y="-143.5" font-family="Helvetica,sans-Serif" font-size="10.00">::ResultsBase</text>
</a>
</g>
</g>
<!-- Node5&#45;&gt;Node4 -->
<g id="edge2" class="edge"><title>Node5&#45;&gt;Node4</title>
<path fill="none" stroke="midnightblue" d="M81.5,-126.032C81.5,-116.861 81.5,-106.745 81.5,-98.7931"/>
<polygon fill="midnightblue" stroke="midnightblue" points="78.0001,-126.179 81.5,-136.179 85.0001,-126.179 78.0001,-126.179"/>
</g>
<!-- Node6 -->
<g id="node4" class="node"><title>Node6</title>
<g id="a_node4"><a xlink:href="structfiftyone_degrees_property_available_array.html" target="_top" xlink:title="Array of items of type fiftyoneDegreesPropertyAvailable used to easily access and track the size of t...">
<polygon fill="none" stroke="black" points="2.5,-214.5 2.5,-244.5 160.5,-244.5 160.5,-214.5 2.5,-214.5"/>
<text text-anchor="start" x="10.5" y="-232.5" font-family="Helvetica,sans-Serif" font-size="10.00">fiftyoneDegreesPropertyAvailable</text>
<text text-anchor="middle" x="81.5" y="-221.5" font-family="Helvetica,sans-Serif" font-size="10.00">Array</text>
</a>
</g>
</g>
<!-- Node6&#45;&gt;Node5 -->
<g id="edge3" class="edge"><title>Node6&#45;&gt;Node5</title>
<path fill="none" stroke="#9a32cd" stroke-dasharray="5,2" d="M81.5,-204.09C81.5,-191.757 81.5,-177.224 81.5,-166.731"/>
<polygon fill="#9a32cd" stroke="#9a32cd" points="78.0001,-204.205 81.5,-214.205 85.0001,-204.205 78.0001,-204.205"/>
<text text-anchor="middle" x="101.5" y="-188" font-family="Helvetica,sans-Serif" font-size="10.00"> available</text>
</g>
<!-- Node7 -->
<g id="node5" class="node"><title>Node7</title>
<g id="a_node5"><a xlink:href="structfiftyone_degrees_property_available.html" target="_top" xlink:title="Used to access the property item quickly without the need to search.">
<polygon fill="none" stroke="black" points="2.5,-299 2.5,-318 160.5,-318 160.5,-299 2.5,-299"/>
<text text-anchor="middle" x="81.5" y="-306" font-family="Helvetica,sans-Serif" font-size="10.00">fiftyoneDegreesPropertyAvailable</text>
</a>
</g>
</g>
<!-- Node7&#45;&gt;Node6 -->
<g id="edge4" class="edge"><title>Node7&#45;&gt;Node6</title>
<path fill="none" stroke="#9a32cd" stroke-dasharray="5,2" d="M81.5,-288.805C81.5,-275.162 81.5,-256.959 81.5,-244.545"/>
<polygon fill="#9a32cd" stroke="#9a32cd" points="78.0001,-288.965 81.5,-298.965 85.0001,-288.965 78.0001,-288.965"/>
<text text-anchor="middle" x="95.5" y="-266" font-family="Helvetica,sans-Serif" font-size="10.00"> items</text>
</g>
<!-- Node8 -->
<g id="node6" class="node"><title>Node8</title>
<g id="a_node6"><a xlink:href="structfiftyone_degrees_collection_item.html" target="_top" xlink:title="Used to store a handle to the underlying item that could be used to release the item when it&#39;s finish...">
<polygon fill="none" stroke="black" points="111,-372.5 111,-391.5 256,-391.5 256,-372.5 111,-372.5"/>
<text text-anchor="middle" x="183.5" y="-379.5" font-family="Helvetica,sans-Serif" font-size="10.00">fiftyoneDegreesCollectionItem</text>
</a>
</g>
</g>
<!-- Node8&#45;&gt;Node7 -->
<g id="edge5" class="edge"><title>Node8&#45;&gt;Node7</title>
<path fill="none" stroke="#9a32cd" stroke-dasharray="5,2" d="M162.548,-366.313C141.827,-351.788 110.819,-330.052 93.7909,-318.116"/>
<polygon fill="#9a32cd" stroke="#9a32cd" points="160.795,-369.359 170.993,-372.233 164.813,-363.627 160.795,-369.359"/>
<text text-anchor="middle" x="159.5" y="-346" font-family="Helvetica,sans-Serif" font-size="10.00"> name</text>
</g>
<!-- Node9 -->
<g id="node7" class="node"><title>Node9</title>
<g id="a_node7"><a xlink:href="structfiftyone_degrees_collection.html" target="_top" xlink:title="All the shared methods and fields required by file, memory and cached collections.">
<polygon fill="none" stroke="black" points="178.5,-299 178.5,-318 304.5,-318 304.5,-299 178.5,-299"/>
<text text-anchor="middle" x="241.5" y="-306" font-family="Helvetica,sans-Serif" font-size="10.00">fiftyoneDegreesCollection</text>
</a>
</g>
</g>
<!-- Node8&#45;&gt;Node9 -->
<g id="edge7" class="edge"><title>Node8&#45;&gt;Node9</title>
<path fill="none" stroke="#9a32cd" stroke-dasharray="5,2" d="M177.76,-362.198C176.851,-355.731 177.132,-348.692 180.5,-343 187.514,-331.146 200.378,-323.206 212.49,-318.045"/>
<polygon fill="#9a32cd" stroke="#9a32cd" points="174.411,-363.25 180.078,-372.202 181.23,-361.67 174.411,-363.25"/>
<text text-anchor="middle" x="198" y="-346" font-family="Helvetica,sans-Serif" font-size="10.00"> release</text>
</g>
<!-- Node9&#45;&gt;Node8 -->
<g id="edge6" class="edge"><title>Node9&#45;&gt;Node8</title>
<path fill="none" stroke="#9a32cd" stroke-dasharray="5,2" d="M234.88,-327.529C231.182,-336.109 225.999,-346.177 219.5,-354 213.509,-361.211 205.225,-367.594 198.113,-372.342"/>
<polygon fill="#9a32cd" stroke="#9a32cd" points="238.206,-328.638 238.644,-318.053 231.7,-326.054 238.206,-328.638"/>
<text text-anchor="middle" x="249" y="-346" font-family="Helvetica,sans-Serif" font-size="10.00"> collection</text>
</g>
<!-- Node9&#45;&gt;Node9 -->
<g id="edge8" class="edge"><title>Node9&#45;&gt;Node9</title>
<path fill="none" stroke="#9a32cd" stroke-dasharray="5,2" d="M314.59,-313.897C319.512,-312.651 322.5,-310.852 322.5,-308.5 322.5,-304.828 315.219,-302.505 304.668,-301.529"/>
<polygon fill="#9a32cd" stroke="#9a32cd" points="313.996,-310.447 304.668,-315.471 315.093,-317.361 313.996,-310.447"/>
<text text-anchor="middle" x="352" y="-317" font-family="Helvetica,sans-Serif" font-size="10.00"> next</text>
<text text-anchor="middle" x="352" y="-306" font-family="Helvetica,sans-Serif" font-size="10.00">freeCollection</text>
<text text-anchor="middle" x="352" y="-295" font-family="Helvetica,sans-Serif" font-size="10.00">get</text>
</g>
<!-- Node10 -->
<g id="node8" class="node"><title>Node10</title>
<g id="a_node8"><a xlink:href="structfiftyone_degrees_data.html" target="_top" xlink:title="Data structure used for reusing memory which may have been allocated in a previous operation.">
<polygon fill="none" stroke="black" points="131.5,-439.5 131.5,-458.5 235.5,-458.5 235.5,-439.5 131.5,-439.5"/>
<text text-anchor="middle" x="183.5" y="-446.5" font-family="Helvetica,sans-Serif" font-size="10.00">fiftyoneDegreesData</text>
</a>
</g>
</g>
<!-- Node10&#45;&gt;Node8 -->
<g id="edge9" class="edge"><title>Node10&#45;&gt;Node8</title>
<path fill="none" stroke="#9a32cd" stroke-dasharray="5,2" d="M183.5,-429.037C183.5,-416.67 183.5,-401.12 183.5,-391.627"/>
<polygon fill="#9a32cd" stroke="#9a32cd" points="180,-429.234 183.5,-439.234 187,-429.234 180,-429.234"/>
<text text-anchor="middle" x="194.5" y="-413" font-family="Helvetica,sans-Serif" font-size="10.00"> data</text>
</g>
</g>
</svg>
