<?xml version="1.0" encoding="UTF-8" standalone="no"?>
<!DOCTYPE svg PUBLIC "-//W3C//DTD SVG 1.1//EN"
 "http://www.w3.org/Graphics/SVG/1.1/DTD/svg11.dtd">
<!-- Generated by graphviz version 2.38.0 (20140413.2041)
 -->
<!-- Title: FiftyoneDegrees::DeviceDetection::ResultsDeviceDetection Pages: 1 -->
<svg width="538pt" height="88pt"
 viewBox="0.00 0.00 538.00 88.00" xmlns="http://www.w3.org/2000/svg" xmlns:xlink="http://www.w3.org/1999/xlink">
<g id="graph0" class="graph" transform="scale(1 1) rotate(0) translate(4 84)">
<title>FiftyoneDegrees::DeviceDetection::ResultsDeviceDetection</title>
<!-- Node0 -->
<g id="node1" class="node"><title>Node0</title>
<g id="a_node1"><a xlink:title="Encapsulates the results of a device detection engine&#39;s processing.">
<polygon fill="#bfbfbf" stroke="black" points="168,-24.5 168,-54.5 331,-54.5 331,-24.5 168,-24.5"/>
<text text-anchor="start" x="176" y="-42.5" font-family="Helvetica,sans-Serif" font-size="10.00">FiftyoneDegrees::DeviceDetection</text>
<text text-anchor="middle" x="249.5" y="-31.5" font-family="Helvetica,sans-Serif" font-size="10.00">::ResultsDeviceDetection</text>
</a>
</g>
</g>
<!-- Node2 -->
<g id="node3" class="node"><title>Node2</title>
<g id="a_node3"><a xlink:href="class_fiftyone_degrees_1_1_device_detection_1_1_hash_1_1_results_hash.html" target="_top" xlink:title="Encapsulates the results of a Hash device detection engine&#39;s processing.">
<polygon fill="none" stroke="black" points="367,-49.5 367,-79.5 530,-79.5 530,-49.5 367,-49.5"/>
<text text-anchor="start" x="375" y="-67.5" font-family="Helvetica,sans-Serif" font-size="10.00">FiftyoneDegrees::DeviceDetection</text>
<text text-anchor="middle" x="448.5" y="-56.5" font-family="Helvetica,sans-Serif" font-size="10.00">::Hash::ResultsHash</text>
</a>
</g>
</g>
<!-- Node0&#45;&gt;Node2 -->
<g id="edge2" class="edge"><title>Node0&#45;&gt;Node2</title>
<path fill="none" stroke="midnightblue" d="M341.215,-51.0121C349.795,-52.1009 358.454,-53.1998 366.93,-54.2753"/>
<polygon fill="midnightblue" stroke="midnightblue" points="341.557,-47.5275 331.196,-49.7406 340.676,-54.4718 341.557,-47.5275"/>
</g>
<!-- Node3 -->
<g id="node4" class="node"><title>Node3</title>
<g id="a_node4"><a xlink:href="class_fiftyone_degrees_1_1_device_detection_1_1_pattern_1_1_results_pattern.html" target="_top" xlink:title="Encapsulates the results of a Pattern device detection engine&#39;s processing.">
<polygon fill="none" stroke="black" points="367,-0.5 367,-30.5 530,-30.5 530,-0.5 367,-0.5"/>
<text text-anchor="start" x="375" y="-18.5" font-family="Helvetica,sans-Serif" font-size="10.00">FiftyoneDegrees::DeviceDetection</text>
<text text-anchor="middle" x="448.5" y="-7.5" font-family="Helvetica,sans-Serif" font-size="10.00">::Pattern::ResultsPattern</text>
</a>
</g>
</g>
<!-- Node0&#45;&gt;Node3 -->
<g id="edge3" class="edge"><title>Node0&#45;&gt;Node3</title>
<path fill="none" stroke="midnightblue" d="M341.215,-28.4484C349.795,-27.4031 358.454,-26.3482 366.93,-25.3157"/>
<polygon fill="midnightblue" stroke="midnightblue" points="340.699,-24.9853 331.196,-29.669 341.546,-31.9339 340.699,-24.9853"/>
</g>
<!-- Node1 -->
<g id="node2" class="node"><title>Node1</title>
<g id="a_node2"><a xlink:href="class_fiftyone_degrees_1_1_common_1_1_results_base.html" target="_top" xlink:title="Encapsulates the results of an engine&#39;s processing.">
<polygon fill="none" stroke="black" points="0,-24.5 0,-54.5 132,-54.5 132,-24.5 0,-24.5"/>
<text text-anchor="start" x="8" y="-42.5" font-family="Helvetica,sans-Serif" font-size="10.00">FiftyoneDegrees::Common</text>
<text text-anchor="middle" x="66" y="-31.5" font-family="Helvetica,sans-Serif" font-size="10.00">::ResultsBase</text>
</a>
</g>
</g>
<!-- Node1&#45;&gt;Node0 -->
<g id="edge1" class="edge"><title>Node1&#45;&gt;Node0</title>
<path fill="none" stroke="midnightblue" d="M142.202,-39.5C150.646,-39.5 159.276,-39.5 167.787,-39.5"/>
<polygon fill="midnightblue" stroke="midnightblue" points="142.013,-36.0001 132.013,-39.5 142.013,-43.0001 142.013,-36.0001"/>
</g>
</g>
</svg>
