<?xml version="1.0" encoding="UTF-8" standalone="no"?>
<!DOCTYPE svg PUBLIC "-//W3C//DTD SVG 1.1//EN"
 "http://www.w3.org/Graphics/SVG/1.1/DTD/svg11.dtd">
<!-- Generated by graphviz version 2.38.0 (20140413.2041)
 -->
<!-- Title: FiftyoneDegrees::DeviceDetection::ResultsDeviceDetection Pages: 1 -->
<svg width="390pt" height="399pt"
 viewBox="0.00 0.00 389.50 399.00" xmlns="http://www.w3.org/2000/svg" xmlns:xlink="http://www.w3.org/1999/xlink">
<g id="graph0" class="graph" transform="scale(1 1) rotate(0) translate(4 395)">
<title>FiftyoneDegrees::DeviceDetection::ResultsDeviceDetection</title>
<!-- Node4 -->
<g id="node1" class="node"><title>Node4</title>
<g id="a_node1"><a xlink:title="Encapsulates the results of a device detection engine&#39;s processing.">
<polygon fill="#bfbfbf" stroke="black" points="0,-0.5 0,-30.5 163,-30.5 163,-0.5 0,-0.5"/>
<text text-anchor="start" x="8" y="-18.5" font-family="Helvetica,sans-Serif" font-size="10.00">FiftyoneDegrees::DeviceDetection</text>
<text text-anchor="middle" x="81.5" y="-7.5" font-family="Helvetica,sans-Serif" font-size="10.00">::ResultsDeviceDetection</text>
</a>
</g>
</g>
<!-- Node5 -->
<g id="node2" class="node"><title>Node5</title>
<g id="a_node2"><a xlink:href="class_fiftyone_degrees_1_1_common_1_1_results_base.html" target="_top" xlink:title="Encapsulates the results of an engine&#39;s processing.">
<polygon fill="none" stroke="black" points="15.5,-68.5 15.5,-98.5 147.5,-98.5 147.5,-68.5 15.5,-68.5"/>
<text text-anchor="start" x="23.5" y="-86.5" font-family="Helvetica,sans-Serif" font-size="10.00">FiftyoneDegrees::Common</text>
<text text-anchor="middle" x="81.5" y="-75.5" font-family="Helvetica,sans-Serif" font-size="10.00">::ResultsBase</text>
</a>
</g>
</g>
<!-- Node5&#45;&gt;Node4 -->
<g id="edge1" class="edge"><title>Node5&#45;&gt;Node4</title>
<path fill="none" stroke="midnightblue" d="M81.5,-58.0322C81.5,-48.8606 81.5,-38.7449 81.5,-30.7931"/>
<polygon fill="midnightblue" stroke="midnightblue" points="78.0001,-58.1789 81.5,-68.179 85.0001,-58.179 78.0001,-58.1789"/>
</g>
<!-- Node6 -->
<g id="node3" class="node"><title>Node6</title>
<g id="a_node3"><a xlink:href="structfiftyone_degrees_property_available_array.html" target="_top" xlink:title="Array of items of type fiftyoneDegreesPropertyAvailable used to easily access and track the size of t...">
<polygon fill="none" stroke="black" points="2.5,-146.5 2.5,-176.5 160.5,-176.5 160.5,-146.5 2.5,-146.5"/>
<text text-anchor="start" x="10.5" y="-164.5" font-family="Helvetica,sans-Serif" font-size="10.00">fiftyoneDegreesPropertyAvailable</text>
<text text-anchor="middle" x="81.5" y="-153.5" font-family="Helvetica,sans-Serif" font-size="10.00">Array</text>
</a>
</g>
</g>
<!-- Node6&#45;&gt;Node5 -->
<g id="edge2" class="edge"><title>Node6&#45;&gt;Node5</title>
<path fill="none" stroke="#9a32cd" stroke-dasharray="5,2" d="M81.5,-136.09C81.5,-123.757 81.5,-109.224 81.5,-98.7309"/>
<polygon fill="#9a32cd" stroke="#9a32cd" points="78.0001,-136.205 81.5,-146.205 85.0001,-136.205 78.0001,-136.205"/>
<text text-anchor="middle" x="101.5" y="-120" font-family="Helvetica,sans-Serif" font-size="10.00"> available</text>
</g>
<!-- Node7 -->
<g id="node4" class="node"><title>Node7</title>
<g id="a_node4"><a xlink:href="structfiftyone_degrees_property_available.html" target="_top" xlink:title="Used to access the property item quickly without the need to search.">
<polygon fill="none" stroke="black" points="2.5,-231 2.5,-250 160.5,-250 160.5,-231 2.5,-231"/>
<text text-anchor="middle" x="81.5" y="-238" font-family="Helvetica,sans-Serif" font-size="10.00">fiftyoneDegreesPropertyAvailable</text>
</a>
</g>
</g>
<!-- Node7&#45;&gt;Node6 -->
<g id="edge3" class="edge"><title>Node7&#45;&gt;Node6</title>
<path fill="none" stroke="#9a32cd" stroke-dasharray="5,2" d="M81.5,-220.805C81.5,-207.162 81.5,-188.959 81.5,-176.545"/>
<polygon fill="#9a32cd" stroke="#9a32cd" points="78.0001,-220.965 81.5,-230.965 85.0001,-220.965 78.0001,-220.965"/>
<text text-anchor="middle" x="95.5" y="-198" font-family="Helvetica,sans-Serif" font-size="10.00"> items</text>
</g>
<!-- Node8 -->
<g id="node5" class="node"><title>Node8</title>
<g id="a_node5"><a xlink:href="structfiftyone_degrees_collection_item.html" target="_top" xlink:title="Used to store a handle to the underlying item that could be used to release the item when it&#39;s finish...">
<polygon fill="none" stroke="black" points="111,-304.5 111,-323.5 256,-323.5 256,-304.5 111,-304.5"/>
<text text-anchor="middle" x="183.5" y="-311.5" font-family="Helvetica,sans-Serif" font-size="10.00">fiftyoneDegreesCollectionItem</text>
</a>
</g>
</g>
<!-- Node8&#45;&gt;Node7 -->
<g id="edge4" class="edge"><title>Node8&#45;&gt;Node7</title>
<path fill="none" stroke="#9a32cd" stroke-dasharray="5,2" d="M162.548,-298.313C141.827,-283.788 110.819,-262.052 93.7909,-250.116"/>
<polygon fill="#9a32cd" stroke="#9a32cd" points="160.795,-301.359 170.993,-304.233 164.813,-295.627 160.795,-301.359"/>
<text text-anchor="middle" x="159.5" y="-278" font-family="Helvetica,sans-Serif" font-size="10.00"> name</text>
</g>
<!-- Node9 -->
<g id="node6" class="node"><title>Node9</title>
<g id="a_node6"><a xlink:href="structfiftyone_degrees_collection.html" target="_top" xlink:title="All the shared methods and fields required by file, memory and cached collections.">
<polygon fill="none" stroke="black" points="178.5,-231 178.5,-250 304.5,-250 304.5,-231 178.5,-231"/>
<text text-anchor="middle" x="241.5" y="-238" font-family="Helvetica,sans-Serif" font-size="10.00">fiftyoneDegreesCollection</text>
</a>
</g>
</g>
<!-- Node8&#45;&gt;Node9 -->
<g id="edge6" class="edge"><title>Node8&#45;&gt;Node9</title>
<path fill="none" stroke="#9a32cd" stroke-dasharray="5,2" d="M177.76,-294.198C176.851,-287.731 177.132,-280.692 180.5,-275 187.514,-263.146 200.378,-255.206 212.49,-250.045"/>
<polygon fill="#9a32cd" stroke="#9a32cd" points="174.411,-295.25 180.078,-304.202 181.23,-293.67 174.411,-295.25"/>
<text text-anchor="middle" x="198" y="-278" font-family="Helvetica,sans-Serif" font-size="10.00"> release</text>
</g>
<!-- Node9&#45;&gt;Node8 -->
<g id="edge5" class="edge"><title>Node9&#45;&gt;Node8</title>
<path fill="none" stroke="#9a32cd" stroke-dasharray="5,2" d="M234.88,-259.529C231.182,-268.109 225.999,-278.177 219.5,-286 213.509,-293.211 205.225,-299.594 198.113,-304.342"/>
<polygon fill="#9a32cd" stroke="#9a32cd" points="238.206,-260.638 238.644,-250.053 231.7,-258.054 238.206,-260.638"/>
<text text-anchor="middle" x="249" y="-278" font-family="Helvetica,sans-Serif" font-size="10.00"> collection</text>
</g>
<!-- Node9&#45;&gt;Node9 -->
<g id="edge7" class="edge"><title>Node9&#45;&gt;Node9</title>
<path fill="none" stroke="#9a32cd" stroke-dasharray="5,2" d="M314.59,-245.897C319.512,-244.651 322.5,-242.852 322.5,-240.5 322.5,-236.828 315.219,-234.505 304.668,-233.529"/>
<polygon fill="#9a32cd" stroke="#9a32cd" points="313.996,-242.447 304.668,-247.471 315.093,-249.361 313.996,-242.447"/>
<text text-anchor="middle" x="352" y="-249" font-family="Helvetica,sans-Serif" font-size="10.00"> next</text>
<text text-anchor="middle" x="352" y="-238" font-family="Helvetica,sans-Serif" font-size="10.00">freeCollection</text>
<text text-anchor="middle" x="352" y="-227" font-family="Helvetica,sans-Serif" font-size="10.00">get</text>
</g>
<!-- Node10 -->
<g id="node7" class="node"><title>Node10</title>
<g id="a_node7"><a xlink:href="structfiftyone_degrees_data.html" target="_top" xlink:title="Data structure used for reusing memory which may have been allocated in a previous operation.">
<polygon fill="none" stroke="black" points="131.5,-371.5 131.5,-390.5 235.5,-390.5 235.5,-371.5 131.5,-371.5"/>
<text text-anchor="middle" x="183.5" y="-378.5" font-family="Helvetica,sans-Serif" font-size="10.00">fiftyoneDegreesData</text>
</a>
</g>
</g>
<!-- Node10&#45;&gt;Node8 -->
<g id="edge8" class="edge"><title>Node10&#45;&gt;Node8</title>
<path fill="none" stroke="#9a32cd" stroke-dasharray="5,2" d="M183.5,-361.037C183.5,-348.67 183.5,-333.12 183.5,-323.627"/>
<polygon fill="#9a32cd" stroke="#9a32cd" points="180,-361.234 183.5,-371.234 187,-361.234 180,-361.234"/>
<text text-anchor="middle" x="194.5" y="-345" font-family="Helvetica,sans-Serif" font-size="10.00"> data</text>
</g>
</g>
</svg>
