<?xml version="1.0" encoding="UTF-8" standalone="no"?>
<!DOCTYPE svg PUBLIC "-//W3C//DTD SVG 1.1//EN"
 "http://www.w3.org/Graphics/SVG/1.1/DTD/svg11.dtd">
<!-- Generated by graphviz version 2.38.0 (20140413.2041)
 -->
<!-- Title: FiftyoneDegrees::DeviceDetection::Hash::PropertyMetaDataCollectionHash Pages: 1 -->
<svg width="236pt" height="196pt"
 viewBox="0.00 0.00 235.50 196.00" xmlns="http://www.w3.org/2000/svg" xmlns:xlink="http://www.w3.org/1999/xlink">
<g id="graph0" class="graph" transform="scale(1 1) rotate(0) translate(4 192)">
<title>FiftyoneDegrees::DeviceDetection::Hash::PropertyMetaDataCollectionHash</title>
<!-- Node3 -->
<g id="node1" class="node"><title>Node3</title>
<g id="a_node1"><a xlink:title="A collection of all property meta data contained in a Hash engine.">
<polygon fill="#bfbfbf" stroke="black" points="0,-0.5 0,-30.5 195,-30.5 195,-0.5 0,-0.5"/>
<text text-anchor="start" x="8" y="-18.5" font-family="Helvetica,sans-Serif" font-size="10.00">FiftyoneDegrees::DeviceDetection</text>
<text text-anchor="middle" x="97.5" y="-7.5" font-family="Helvetica,sans-Serif" font-size="10.00">::Hash::PropertyMetaDataCollectionHash</text>
</a>
</g>
</g>
<!-- Node4 -->
<g id="node2" class="node"><title>Node4</title>
<g id="a_node2"><a xlink:href="class_fiftyone_degrees_1_1_common_1_1_collection.html" target="_top" xlink:title=" ">
<polygon fill="none" stroke="black" points="31.5,-68.5 31.5,-109.5 163.5,-109.5 163.5,-68.5 31.5,-68.5"/>
<text text-anchor="start" x="39.5" y="-97.5" font-family="Helvetica,sans-Serif" font-size="10.00">FiftyoneDegrees::Common</text>
<text text-anchor="start" x="39.5" y="-86.5" font-family="Helvetica,sans-Serif" font-size="10.00">::Collection&lt; string,</text>
<text text-anchor="middle" x="97.5" y="-75.5" font-family="Helvetica,sans-Serif" font-size="10.00"> PropertyMetaData &gt;</text>
</a>
</g>
</g>
<!-- Node4&#45;&gt;Node3 -->
<g id="edge1" class="edge"><title>Node4&#45;&gt;Node3</title>
<path fill="none" stroke="midnightblue" d="M97.5,-58.1581C97.5,-48.6872 97.5,-38.6473 97.5,-30.7972"/>
<polygon fill="midnightblue" stroke="midnightblue" points="94.0001,-58.4623 97.5,-68.4623 101,-58.4623 94.0001,-58.4623"/>
</g>
<!-- Node5 -->
<g id="node3" class="node"><title>Node5</title>
<g id="a_node3"><a xlink:href="class_fiftyone_degrees_1_1_common_1_1_collection.html" target="_top" xlink:title="A group of items accessible by index or key.">
<polygon fill="none" stroke="black" points="31.5,-157.5 31.5,-187.5 163.5,-187.5 163.5,-157.5 31.5,-157.5"/>
<text text-anchor="start" x="39.5" y="-175.5" font-family="Helvetica,sans-Serif" font-size="10.00">FiftyoneDegrees::Common</text>
<text text-anchor="middle" x="97.5" y="-164.5" font-family="Helvetica,sans-Serif" font-size="10.00">::Collection&lt; K, V &gt;</text>
</a>
</g>
</g>
<!-- Node5&#45;&gt;Node4 -->
<g id="edge2" class="edge"><title>Node5&#45;&gt;Node4</title>
<path fill="none" stroke="orange" stroke-dasharray="5,2" d="M97.5,-147.066C97.5,-135.061 97.5,-120.794 97.5,-109.528"/>
<polygon fill="orange" stroke="orange" points="94.0001,-147.304 97.5,-157.304 101,-147.304 94.0001,-147.304"/>
<text text-anchor="middle" x="162.5" y="-131" font-family="Helvetica,sans-Serif" font-size="10.00"> &lt; string, PropertyMetaData &gt;</text>
</g>
</g>
</svg>
