<?xml version="1.0" encoding="UTF-8" standalone="no"?>
<!DOCTYPE svg PUBLIC "-//W3C//DTD SVG 1.1//EN"
 "http://www.w3.org/Graphics/SVG/1.1/DTD/svg11.dtd">
<!-- Generated by graphviz version 2.38.0 (20140413.2041)
 -->
<!-- Title: FiftyoneDegrees::Common::Collection&lt; K, V &gt; Pages: 1 -->
<svg width="958pt" height="450pt"
 viewBox="0.00 0.00 958.00 450.00" xmlns="http://www.w3.org/2000/svg" xmlns:xlink="http://www.w3.org/1999/xlink">
<g id="graph0" class="graph" transform="scale(1 1) rotate(0) translate(4 446)">
<title>FiftyoneDegrees::Common::Collection&lt; K, V &gt;</title>
<!-- Node0 -->
<g id="node1" class="node"><title>Node0</title>
<g id="a_node1"><a xlink:title="A group of items accessible by index or key.">
<polygon fill="#bfbfbf" stroke="black" points="0,-96 0,-126 132,-126 132,-96 0,-96"/>
<text text-anchor="start" x="8" y="-114" font-family="Helvetica,sans-Serif" font-size="10.00">FiftyoneDegrees::Common</text>
<text text-anchor="middle" x="66" y="-103" font-family="Helvetica,sans-Serif" font-size="10.00">::Collection&lt; K, V &gt;</text>
</a>
</g>
</g>
<!-- Node1 -->
<g id="node2" class="node"><title>Node1</title>
<g id="a_node2"><a xlink:href="class_fiftyone_degrees_1_1_common_1_1_collection.html" target="_top" xlink:title=" ">
<polygon fill="none" stroke="black" points="320.5,-290.5 320.5,-331.5 452.5,-331.5 452.5,-290.5 320.5,-290.5"/>
<text text-anchor="start" x="328.5" y="-319.5" font-family="Helvetica,sans-Serif" font-size="10.00">FiftyoneDegrees::Common</text>
<text text-anchor="start" x="328.5" y="-308.5" font-family="Helvetica,sans-Serif" font-size="10.00">::Collection&lt; string,</text>
<text text-anchor="middle" x="386.5" y="-297.5" font-family="Helvetica,sans-Serif" font-size="10.00"> PropertyMetaData &gt;</text>
</a>
</g>
</g>
<!-- Node0&#45;&gt;Node1 -->
<g id="edge1" class="edge"><title>Node0&#45;&gt;Node1</title>
<path fill="none" stroke="orange" stroke-dasharray="5,2" d="M99.7687,-131.577C160.783,-169.891 291.156,-251.757 352.412,-290.223"/>
<polygon fill="orange" stroke="orange" points="101.269,-128.386 90.9393,-126.033 97.5468,-134.315 101.269,-128.386"/>
<text text-anchor="middle" x="219" y="-249" font-family="Helvetica,sans-Serif" font-size="10.00"> &lt; string, PropertyMetaData &gt;</text>
</g>
<!-- Node6 -->
<g id="node7" class="node"><title>Node6</title>
<g id="a_node7"><a xlink:href="class_fiftyone_degrees_1_1_common_1_1_collection.html" target="_top" xlink:title=" ">
<polygon fill="none" stroke="black" points="312,-120.5 312,-161.5 461,-161.5 461,-120.5 312,-120.5"/>
<text text-anchor="start" x="320" y="-149.5" font-family="Helvetica,sans-Serif" font-size="10.00">FiftyoneDegrees::Common</text>
<text text-anchor="start" x="320" y="-138.5" font-family="Helvetica,sans-Serif" font-size="10.00">::Collection&lt; byte, Component</text>
<text text-anchor="middle" x="386.5" y="-127.5" font-family="Helvetica,sans-Serif" font-size="10.00">MetaData &gt;</text>
</a>
</g>
</g>
<!-- Node0&#45;&gt;Node6 -->
<g id="edge6" class="edge"><title>Node0&#45;&gt;Node6</title>
<path fill="none" stroke="orange" stroke-dasharray="5,2" d="M142.234,-118.086C193.427,-122.908 260.849,-129.259 311.729,-134.051"/>
<polygon fill="orange" stroke="orange" points="142.506,-114.597 132.222,-117.143 141.849,-121.566 142.506,-114.597"/>
<text text-anchor="middle" x="219" y="-135" font-family="Helvetica,sans-Serif" font-size="10.00"> &lt; byte, ComponentMetaData &gt;</text>
</g>
<!-- Node9 -->
<g id="node10" class="node"><title>Node9</title>
<g id="a_node10"><a xlink:href="class_fiftyone_degrees_1_1_common_1_1_collection.html" target="_top" xlink:title=" ">
<polygon fill="none" stroke="black" points="306,-60.5 306,-101.5 467,-101.5 467,-60.5 306,-60.5"/>
<text text-anchor="start" x="314" y="-89.5" font-family="Helvetica,sans-Serif" font-size="10.00">FiftyoneDegrees::Common</text>
<text text-anchor="start" x="314" y="-78.5" font-family="Helvetica,sans-Serif" font-size="10.00">::Collection&lt; ValueMetaDataKey,</text>
<text text-anchor="middle" x="386.5" y="-67.5" font-family="Helvetica,sans-Serif" font-size="10.00"> ValueMetaData &gt;</text>
</a>
</g>
</g>
<!-- Node0&#45;&gt;Node9 -->
<g id="edge9" class="edge"><title>Node0&#45;&gt;Node9</title>
<path fill="none" stroke="orange" stroke-dasharray="5,2" d="M142.242,-95.0869C144.856,-94.6945 147.447,-94.3301 150,-94 201.676,-87.3184 260.166,-84.0672 305.927,-82.487"/>
<polygon fill="orange" stroke="orange" points="141.406,-91.6766 132.092,-96.7267 142.522,-98.587 141.406,-91.6766"/>
<text text-anchor="start" x="169" y="-108" font-family="Helvetica,sans-Serif" font-size="10.00"> &lt; ValueMetaDataKey,</text>
<text text-anchor="middle" x="219" y="-97" font-family="Helvetica,sans-Serif" font-size="10.00"> ValueMetaData &gt;</text>
</g>
<!-- Node14 -->
<g id="node15" class="node"><title>Node14</title>
<g id="a_node15"><a xlink:href="class_fiftyone_degrees_1_1_common_1_1_collection.html" target="_top" xlink:title=" ">
<polygon fill="none" stroke="black" points="320.5,-0.5 320.5,-41.5 452.5,-41.5 452.5,-0.5 320.5,-0.5"/>
<text text-anchor="start" x="328.5" y="-29.5" font-family="Helvetica,sans-Serif" font-size="10.00">FiftyoneDegrees::Common</text>
<text text-anchor="start" x="328.5" y="-18.5" font-family="Helvetica,sans-Serif" font-size="10.00">::Collection&lt; uint32_t,</text>
<text text-anchor="middle" x="386.5" y="-7.5" font-family="Helvetica,sans-Serif" font-size="10.00"> ProfileMetaData &gt;</text>
</a>
</g>
</g>
<!-- Node0&#45;&gt;Node14 -->
<g id="edge14" class="edge"><title>Node0&#45;&gt;Node14</title>
<path fill="none" stroke="orange" stroke-dasharray="5,2" d="M101.516,-90.9245C116.09,-83.1444 133.484,-74.7452 150,-69 205.962,-49.5335 272.299,-36.8941 320.284,-29.4974"/>
<polygon fill="orange" stroke="orange" points="99.4816,-88.0478 92.3838,-95.9137 102.838,-94.1908 99.4816,-88.0478"/>
<text text-anchor="middle" x="219" y="-72" font-family="Helvetica,sans-Serif" font-size="10.00"> &lt; uint32_t, ProfileMetaData &gt;</text>
</g>
<!-- Node2 -->
<g id="node3" class="node"><title>Node2</title>
<g id="a_node3"><a xlink:href="class_fiftyone_degrees_1_1_device_detection_1_1_hash_1_1_property_meta_data_collection_for_component_hash.html" target="_top" xlink:title="A collection of property meta data relating to a component contained in a Hash engine.">
<polygon fill="none" stroke="black" points="514.5,-400.5 514.5,-441.5 701.5,-441.5 701.5,-400.5 514.5,-400.5"/>
<text text-anchor="start" x="522.5" y="-429.5" font-family="Helvetica,sans-Serif" font-size="10.00">FiftyoneDegrees::DeviceDetection</text>
<text text-anchor="start" x="522.5" y="-418.5" font-family="Helvetica,sans-Serif" font-size="10.00">::Hash::PropertyMetaDataCollectionFor</text>
<text text-anchor="middle" x="608" y="-407.5" font-family="Helvetica,sans-Serif" font-size="10.00">ComponentHash</text>
</a>
</g>
</g>
<!-- Node1&#45;&gt;Node2 -->
<g id="edge2" class="edge"><title>Node1&#45;&gt;Node2</title>
<path fill="none" stroke="midnightblue" d="M420.584,-337.961C443.004,-355.13 473.921,-376.744 504,-391 511.321,-394.47 519.128,-397.627 527.045,-400.477"/>
<polygon fill="midnightblue" stroke="midnightblue" points="422.472,-334.995 412.428,-331.623 418.176,-340.522 422.472,-334.995"/>
</g>
<!-- Node3 -->
<g id="node4" class="node"><title>Node3</title>
<g id="a_node4"><a xlink:href="class_fiftyone_degrees_1_1_device_detection_1_1_hash_1_1_property_meta_data_collection_hash.html" target="_top" xlink:title="A collection of all property meta data contained in a Hash engine.">
<polygon fill="none" stroke="black" points="510.5,-351 510.5,-381 705.5,-381 705.5,-351 510.5,-351"/>
<text text-anchor="start" x="518.5" y="-369" font-family="Helvetica,sans-Serif" font-size="10.00">FiftyoneDegrees::DeviceDetection</text>
<text text-anchor="middle" x="608" y="-358" font-family="Helvetica,sans-Serif" font-size="10.00">::Hash::PropertyMetaDataCollectionHash</text>
</a>
</g>
</g>
<!-- Node1&#45;&gt;Node3 -->
<g id="edge3" class="edge"><title>Node1&#45;&gt;Node3</title>
<path fill="none" stroke="midnightblue" d="M462.674,-330.522C476.413,-334.043 490.631,-337.656 504,-341 517.031,-344.259 531.006,-347.692 544.327,-350.936"/>
<polygon fill="midnightblue" stroke="midnightblue" points="463.329,-327.076 452.772,-327.979 461.587,-333.856 463.329,-327.076"/>
</g>
<!-- Node4 -->
<g id="node5" class="node"><title>Node4</title>
<g id="a_node5"><a xlink:href="class_fiftyone_degrees_1_1_device_detection_1_1_pattern_1_1_property_meta_data_collection_for_component_pattern.html" target="_top" xlink:title="A collection of property meta data relating to a component contained in a Pattern engine.">
<polygon fill="none" stroke="black" points="517,-290.5 517,-331.5 699,-331.5 699,-290.5 517,-290.5"/>
<text text-anchor="start" x="525" y="-319.5" font-family="Helvetica,sans-Serif" font-size="10.00">FiftyoneDegrees::DeviceDetection</text>
<text text-anchor="start" x="525" y="-308.5" font-family="Helvetica,sans-Serif" font-size="10.00">::Pattern::PropertyMetaDataCollection</text>
<text text-anchor="middle" x="608" y="-297.5" font-family="Helvetica,sans-Serif" font-size="10.00">ForComponentPattern</text>
</a>
</g>
</g>
<!-- Node1&#45;&gt;Node4 -->
<g id="edge4" class="edge"><title>Node1&#45;&gt;Node4</title>
<path fill="none" stroke="midnightblue" d="M462.831,-311C480.207,-311 498.864,-311 516.802,-311"/>
<polygon fill="midnightblue" stroke="midnightblue" points="462.763,-307.5 452.763,-311 462.763,-314.5 462.763,-307.5"/>
</g>
<!-- Node5 -->
<g id="node6" class="node"><title>Node5</title>
<g id="a_node6"><a xlink:href="class_fiftyone_degrees_1_1_device_detection_1_1_pattern_1_1_property_meta_data_collection_pattern.html" target="_top" xlink:title="A collection of all property meta data contained in a Pattern engine.">
<polygon fill="none" stroke="black" points="517,-230.5 517,-271.5 699,-271.5 699,-230.5 517,-230.5"/>
<text text-anchor="start" x="525" y="-259.5" font-family="Helvetica,sans-Serif" font-size="10.00">FiftyoneDegrees::DeviceDetection</text>
<text text-anchor="start" x="525" y="-248.5" font-family="Helvetica,sans-Serif" font-size="10.00">::Pattern::PropertyMetaDataCollection</text>
<text text-anchor="middle" x="608" y="-237.5" font-family="Helvetica,sans-Serif" font-size="10.00">Pattern</text>
</a>
</g>
</g>
<!-- Node1&#45;&gt;Node5 -->
<g id="edge5" class="edge"><title>Node1&#45;&gt;Node5</title>
<path fill="none" stroke="midnightblue" d="M462.56,-290.483C484.977,-284.355 509.547,-277.639 531.963,-271.511"/>
<polygon fill="midnightblue" stroke="midnightblue" points="461.486,-287.148 452.763,-293.16 463.332,-293.9 461.486,-287.148"/>
</g>
<!-- Node7 -->
<g id="node8" class="node"><title>Node7</title>
<g id="a_node8"><a xlink:href="class_fiftyone_degrees_1_1_device_detection_1_1_hash_1_1_component_meta_data_collection_hash.html" target="_top" xlink:title="A collection of component meta data contained in a Hash engine.">
<polygon fill="none" stroke="black" points="504,-181 504,-211 712,-211 712,-181 504,-181"/>
<text text-anchor="start" x="512" y="-199" font-family="Helvetica,sans-Serif" font-size="10.00">FiftyoneDegrees::DeviceDetection</text>
<text text-anchor="middle" x="608" y="-188" font-family="Helvetica,sans-Serif" font-size="10.00">::Hash::ComponentMetaDataCollectionHash</text>
</a>
</g>
</g>
<!-- Node6&#45;&gt;Node7 -->
<g id="edge7" class="edge"><title>Node6&#45;&gt;Node7</title>
<path fill="none" stroke="midnightblue" d="M470.842,-162.612C481.984,-165.457 493.265,-168.315 504,-171 517.031,-174.259 531.006,-177.692 544.327,-180.936"/>
<polygon fill="midnightblue" stroke="midnightblue" points="471.66,-159.208 461.104,-160.119 469.924,-165.99 471.66,-159.208"/>
</g>
<!-- Node8 -->
<g id="node9" class="node"><title>Node8</title>
<g id="a_node9"><a xlink:href="class_fiftyone_degrees_1_1_device_detection_1_1_pattern_1_1_component_meta_data_collection_pattern.html" target="_top" xlink:title="A collection of component meta data contained in a Pattern engine.">
<polygon fill="none" stroke="black" points="511,-120.5 511,-161.5 705,-161.5 705,-120.5 511,-120.5"/>
<text text-anchor="start" x="519" y="-149.5" font-family="Helvetica,sans-Serif" font-size="10.00">FiftyoneDegrees::DeviceDetection</text>
<text text-anchor="start" x="519" y="-138.5" font-family="Helvetica,sans-Serif" font-size="10.00">::Pattern::ComponentMetaDataCollection</text>
<text text-anchor="middle" x="608" y="-127.5" font-family="Helvetica,sans-Serif" font-size="10.00">Pattern</text>
</a>
</g>
</g>
<!-- Node6&#45;&gt;Node8 -->
<g id="edge8" class="edge"><title>Node6&#45;&gt;Node8</title>
<path fill="none" stroke="midnightblue" d="M471.427,-141C484.331,-141 497.74,-141 510.884,-141"/>
<polygon fill="midnightblue" stroke="midnightblue" points="471.201,-137.5 461.201,-141 471.201,-144.5 471.201,-137.5"/>
</g>
<!-- Node10 -->
<g id="node11" class="node"><title>Node10</title>
<g id="a_node11"><a xlink:href="class_fiftyone_degrees_1_1_device_detection_1_1_pattern_1_1_value_meta_data_collection_base_pattern.html" target="_top" xlink:title="A collection of all value meta data contained in a Pattern engine.">
<polygon fill="none" stroke="black" points="512,-60.5 512,-101.5 704,-101.5 704,-60.5 512,-60.5"/>
<text text-anchor="start" x="520" y="-89.5" font-family="Helvetica,sans-Serif" font-size="10.00">FiftyoneDegrees::DeviceDetection</text>
<text text-anchor="start" x="520" y="-78.5" font-family="Helvetica,sans-Serif" font-size="10.00">::Pattern::ValueMetaDataCollectionBase</text>
<text text-anchor="middle" x="608" y="-67.5" font-family="Helvetica,sans-Serif" font-size="10.00">Pattern</text>
</a>
</g>
</g>
<!-- Node9&#45;&gt;Node10 -->
<g id="edge10" class="edge"><title>Node9&#45;&gt;Node10</title>
<path fill="none" stroke="midnightblue" d="M477.345,-81C488.655,-81 500.257,-81 511.648,-81"/>
<polygon fill="midnightblue" stroke="midnightblue" points="477.055,-77.5001 467.055,-81 477.055,-84.5001 477.055,-77.5001"/>
</g>
<!-- Node11 -->
<g id="node12" class="node"><title>Node11</title>
<g id="a_node12"><a xlink:href="class_fiftyone_degrees_1_1_device_detection_1_1_pattern_1_1_value_meta_data_collection_for_profile_pattern.html" target="_top" xlink:title="A collection of value meta data relating to a profile contained in a Pattern engine.">
<polygon fill="none" stroke="black" points="757.5,-120.5 757.5,-161.5 941.5,-161.5 941.5,-120.5 757.5,-120.5"/>
<text text-anchor="start" x="765.5" y="-149.5" font-family="Helvetica,sans-Serif" font-size="10.00">FiftyoneDegrees::DeviceDetection</text>
<text text-anchor="start" x="765.5" y="-138.5" font-family="Helvetica,sans-Serif" font-size="10.00">::Pattern::ValueMetaDataCollectionFor</text>
<text text-anchor="middle" x="849.5" y="-127.5" font-family="Helvetica,sans-Serif" font-size="10.00">ProfilePattern</text>
</a>
</g>
</g>
<!-- Node10&#45;&gt;Node11 -->
<g id="edge11" class="edge"><title>Node10&#45;&gt;Node11</title>
<path fill="none" stroke="midnightblue" d="M700.911,-104.026C722.51,-109.437 745.389,-115.168 766.52,-120.462"/>
<polygon fill="midnightblue" stroke="midnightblue" points="701.638,-100.6 691.087,-101.565 699.937,-107.39 701.638,-100.6"/>
</g>
<!-- Node12 -->
<g id="node13" class="node"><title>Node12</title>
<g id="a_node13"><a xlink:href="class_fiftyone_degrees_1_1_device_detection_1_1_pattern_1_1_value_meta_data_collection_for_property_pattern.html" target="_top" xlink:title="A collection of value meta data relating to a property contained in a Pattern engine.">
<polygon fill="none" stroke="black" points="757.5,-60.5 757.5,-101.5 941.5,-101.5 941.5,-60.5 757.5,-60.5"/>
<text text-anchor="start" x="765.5" y="-89.5" font-family="Helvetica,sans-Serif" font-size="10.00">FiftyoneDegrees::DeviceDetection</text>
<text text-anchor="start" x="765.5" y="-78.5" font-family="Helvetica,sans-Serif" font-size="10.00">::Pattern::ValueMetaDataCollectionFor</text>
<text text-anchor="middle" x="849.5" y="-67.5" font-family="Helvetica,sans-Serif" font-size="10.00">PropertyPattern</text>
</a>
</g>
</g>
<!-- Node10&#45;&gt;Node12 -->
<g id="edge12" class="edge"><title>Node10&#45;&gt;Node12</title>
<path fill="none" stroke="midnightblue" d="M714.327,-81C728.593,-81 743.135,-81 757.129,-81"/>
<polygon fill="midnightblue" stroke="midnightblue" points="714.001,-77.5001 704.001,-81 714.001,-84.5001 714.001,-77.5001"/>
</g>
<!-- Node13 -->
<g id="node14" class="node"><title>Node13</title>
<g id="a_node14"><a xlink:href="class_fiftyone_degrees_1_1_device_detection_1_1_pattern_1_1_value_meta_data_collection_pattern.html" target="_top" xlink:title="A collection of all value meta data contained in a Pattern engine.">
<polygon fill="none" stroke="black" points="749,-11 749,-41 950,-41 950,-11 749,-11"/>
<text text-anchor="start" x="757" y="-29" font-family="Helvetica,sans-Serif" font-size="10.00">FiftyoneDegrees::DeviceDetection</text>
<text text-anchor="middle" x="849.5" y="-18" font-family="Helvetica,sans-Serif" font-size="10.00">::Pattern::ValueMetaDataCollectionPattern</text>
</a>
</g>
</g>
<!-- Node10&#45;&gt;Node13 -->
<g id="edge13" class="edge"><title>Node10&#45;&gt;Node13</title>
<path fill="none" stroke="midnightblue" d="M708.464,-58.1586C733.621,-52.3814 760.008,-46.3216 783.009,-41.0396"/>
<polygon fill="midnightblue" stroke="midnightblue" points="707.484,-54.7923 698.522,-60.4418 709.051,-61.6148 707.484,-54.7923"/>
</g>
<!-- Node15 -->
<g id="node16" class="node"><title>Node15</title>
<g id="a_node16"><a xlink:href="class_fiftyone_degrees_1_1_device_detection_1_1_pattern_1_1_profile_meta_data_collection_pattern.html" target="_top" xlink:title="A collection of all profile meta data contained in a Pattern engine.">
<polygon fill="none" stroke="black" points="522,-0.5 522,-41.5 694,-41.5 694,-0.5 522,-0.5"/>
<text text-anchor="start" x="530" y="-29.5" font-family="Helvetica,sans-Serif" font-size="10.00">FiftyoneDegrees::DeviceDetection</text>
<text text-anchor="start" x="530" y="-18.5" font-family="Helvetica,sans-Serif" font-size="10.00">::Pattern::ProfileMetaDataCollection</text>
<text text-anchor="middle" x="608" y="-7.5" font-family="Helvetica,sans-Serif" font-size="10.00">Pattern</text>
</a>
</g>
</g>
<!-- Node14&#45;&gt;Node15 -->
<g id="edge15" class="edge"><title>Node14&#45;&gt;Node15</title>
<path fill="none" stroke="midnightblue" d="M462.817,-21C481.766,-21 502.239,-21 521.641,-21"/>
<polygon fill="midnightblue" stroke="midnightblue" points="462.763,-17.5001 452.763,-21 462.763,-24.5001 462.763,-17.5001"/>
</g>
</g>
</svg>
