<?xml version="1.0" encoding="UTF-8" standalone="no"?>
<!DOCTYPE svg PUBLIC "-//W3C//DTD SVG 1.1//EN"
 "http://www.w3.org/Graphics/SVG/1.1/DTD/svg11.dtd">
<!-- Generated by graphviz version 2.38.0 (20140413.2041)
 -->
<!-- Title: FiftyoneDegrees::DeviceDetection::Pattern::ComponentMetaDataCollectionPattern Pages: 1 -->
<svg width="243pt" height="207pt"
 viewBox="0.00 0.00 243.00 207.00" xmlns="http://www.w3.org/2000/svg" xmlns:xlink="http://www.w3.org/1999/xlink">
<g id="graph0" class="graph" transform="scale(1 1) rotate(0) translate(4 203)">
<title>FiftyoneDegrees::DeviceDetection::Pattern::ComponentMetaDataCollectionPattern</title>
<!-- Node3 -->
<g id="node1" class="node"><title>Node3</title>
<g id="a_node1"><a xlink:title="A collection of component meta data contained in a Pattern engine.">
<polygon fill="#bfbfbf" stroke="black" points="0,-0.5 0,-41.5 194,-41.5 194,-0.5 0,-0.5"/>
<text text-anchor="start" x="8" y="-29.5" font-family="Helvetica,sans-Serif" font-size="10.00">FiftyoneDegrees::DeviceDetection</text>
<text text-anchor="start" x="8" y="-18.5" font-family="Helvetica,sans-Serif" font-size="10.00">::Pattern::ComponentMetaDataCollection</text>
<text text-anchor="middle" x="97" y="-7.5" font-family="Helvetica,sans-Serif" font-size="10.00">Pattern</text>
</a>
</g>
</g>
<!-- Node4 -->
<g id="node2" class="node"><title>Node4</title>
<g id="a_node2"><a xlink:href="class_fiftyone_degrees_1_1_common_1_1_collection.html" target="_top" xlink:title=" ">
<polygon fill="none" stroke="black" points="22.5,-79.5 22.5,-120.5 171.5,-120.5 171.5,-79.5 22.5,-79.5"/>
<text text-anchor="start" x="30.5" y="-108.5" font-family="Helvetica,sans-Serif" font-size="10.00">FiftyoneDegrees::Common</text>
<text text-anchor="start" x="30.5" y="-97.5" font-family="Helvetica,sans-Serif" font-size="10.00">::Collection&lt; byte, Component</text>
<text text-anchor="middle" x="97" y="-86.5" font-family="Helvetica,sans-Serif" font-size="10.00">MetaData &gt;</text>
</a>
</g>
</g>
<!-- Node4&#45;&gt;Node3 -->
<g id="edge1" class="edge"><title>Node4&#45;&gt;Node3</title>
<path fill="none" stroke="midnightblue" d="M97,-68.9057C97,-59.7917 97,-50.017 97,-41.7622"/>
<polygon fill="midnightblue" stroke="midnightblue" points="93.5001,-69.1706 97,-79.1706 100.5,-69.1706 93.5001,-69.1706"/>
</g>
<!-- Node5 -->
<g id="node3" class="node"><title>Node5</title>
<g id="a_node3"><a xlink:href="class_fiftyone_degrees_1_1_common_1_1_collection.html" target="_top" xlink:title="A group of items accessible by index or key.">
<polygon fill="none" stroke="black" points="31,-168.5 31,-198.5 163,-198.5 163,-168.5 31,-168.5"/>
<text text-anchor="start" x="39" y="-186.5" font-family="Helvetica,sans-Serif" font-size="10.00">FiftyoneDegrees::Common</text>
<text text-anchor="middle" x="97" y="-175.5" font-family="Helvetica,sans-Serif" font-size="10.00">::Collection&lt; K, V &gt;</text>
</a>
</g>
</g>
<!-- Node5&#45;&gt;Node4 -->
<g id="edge2" class="edge"><title>Node5&#45;&gt;Node4</title>
<path fill="none" stroke="orange" stroke-dasharray="5,2" d="M97,-158.066C97,-146.061 97,-131.794 97,-120.528"/>
<polygon fill="orange" stroke="orange" points="93.5001,-158.304 97,-168.304 100.5,-158.304 93.5001,-158.304"/>
<text text-anchor="middle" x="166" y="-142" font-family="Helvetica,sans-Serif" font-size="10.00"> &lt; byte, ComponentMetaData &gt;</text>
</g>
</g>
</svg>
