<?xml version="1.0" encoding="UTF-8" standalone="no"?>
<!DOCTYPE svg PUBLIC "-//W3C//DTD SVG 1.1//EN"
 "http://www.w3.org/Graphics/SVG/1.1/DTD/svg11.dtd">
<!-- Generated by graphviz version 2.38.0 (20140413.2041)
 -->
<!-- Title: FiftyoneDegrees::Common::EntityMetaDataBuilder Pages: 1 -->
<svg width="376pt" height="198pt"
 viewBox="0.00 0.00 376.00 197.50" xmlns="http://www.w3.org/2000/svg" xmlns:xlink="http://www.w3.org/1999/xlink">
<g id="graph0" class="graph" transform="scale(1 1) rotate(0) translate(4 193.5)">
<title>FiftyoneDegrees::Common::EntityMetaDataBuilder</title>
<!-- Node0 -->
<g id="node1" class="node"><title>Node0</title>
<g id="a_node1"><a xlink:title="Meta data builder class contains static helper methods used when building meta data instances.">
<polygon fill="#bfbfbf" stroke="black" points="0,-73.5 0,-103.5 132,-103.5 132,-73.5 0,-73.5"/>
<text text-anchor="start" x="8" y="-91.5" font-family="Helvetica,sans-Serif" font-size="10.00">FiftyoneDegrees::Common</text>
<text text-anchor="middle" x="66" y="-80.5" font-family="Helvetica,sans-Serif" font-size="10.00">::EntityMetaDataBuilder</text>
</a>
</g>
</g>
<!-- Node1 -->
<g id="node2" class="node"><title>Node1</title>
<g id="a_node2"><a xlink:href="class_fiftyone_degrees_1_1_device_detection_1_1_pattern_1_1_component_meta_data_builder_pattern.html" target="_top" xlink:title="Meta data builder class contains static helper methods used when building component meta data instanc...">
<polygon fill="none" stroke="black" points="177,-148 177,-189 359,-189 359,-148 177,-148"/>
<text text-anchor="start" x="185" y="-177" font-family="Helvetica,sans-Serif" font-size="10.00">FiftyoneDegrees::DeviceDetection</text>
<text text-anchor="start" x="185" y="-166" font-family="Helvetica,sans-Serif" font-size="10.00">::Pattern::ComponentMetaDataBuilder</text>
<text text-anchor="middle" x="268" y="-155" font-family="Helvetica,sans-Serif" font-size="10.00">Pattern</text>
</a>
</g>
</g>
<!-- Node0&#45;&gt;Node1 -->
<g id="edge1" class="edge"><title>Node0&#45;&gt;Node1</title>
<path fill="none" stroke="#8b1a1a" d="M103.193,-108.237C122.153,-118.106 145.956,-129.773 168,-138.5 176.433,-141.838 185.391,-145.027 194.339,-147.995"/>
<polygon fill="#8b1a1a" stroke="#8b1a1a" points="104.783,-105.118 94.3043,-103.557 101.523,-111.312 104.783,-105.118"/>
</g>
<!-- Node2 -->
<g id="node3" class="node"><title>Node2</title>
<g id="a_node3"><a xlink:href="class_fiftyone_degrees_1_1_device_detection_1_1_pattern_1_1_profile_meta_data_builder_pattern.html" target="_top" xlink:title="Meta data builder class contains static helper methods used when building profile meta data instances...">
<polygon fill="none" stroke="black" points="172.5,-98.5 172.5,-128.5 363.5,-128.5 363.5,-98.5 172.5,-98.5"/>
<text text-anchor="start" x="180.5" y="-116.5" font-family="Helvetica,sans-Serif" font-size="10.00">FiftyoneDegrees::DeviceDetection</text>
<text text-anchor="middle" x="268" y="-105.5" font-family="Helvetica,sans-Serif" font-size="10.00">::Pattern::ProfileMetaDataBuilderPattern</text>
</a>
</g>
</g>
<!-- Node0&#45;&gt;Node2 -->
<g id="edge2" class="edge"><title>Node0&#45;&gt;Node2</title>
<path fill="none" stroke="#8b1a1a" d="M142.331,-97.9164C152.178,-99.1473 162.365,-100.421 172.478,-101.685"/>
<polygon fill="#8b1a1a" stroke="#8b1a1a" points="142.568,-94.4188 132.211,-96.6513 141.699,-101.365 142.568,-94.4188"/>
</g>
<!-- Node3 -->
<g id="node4" class="node"><title>Node3</title>
<g id="a_node4"><a xlink:href="class_fiftyone_degrees_1_1_device_detection_1_1_pattern_1_1_property_meta_data_builder_pattern.html" target="_top" xlink:title="Meta data builder class contains static helper methods used when building property meta data instance...">
<polygon fill="none" stroke="black" points="168,-49.5 168,-79.5 368,-79.5 368,-49.5 168,-49.5"/>
<text text-anchor="start" x="176" y="-67.5" font-family="Helvetica,sans-Serif" font-size="10.00">FiftyoneDegrees::DeviceDetection</text>
<text text-anchor="middle" x="268" y="-56.5" font-family="Helvetica,sans-Serif" font-size="10.00">::Pattern::PropertyMetaDataBuilderPattern</text>
</a>
</g>
</g>
<!-- Node0&#45;&gt;Node3 -->
<g id="edge3" class="edge"><title>Node0&#45;&gt;Node3</title>
<path fill="none" stroke="#8b1a1a" d="M142.252,-79.4698C150.597,-78.4683 159.188,-77.4374 167.771,-76.4074"/>
<polygon fill="#8b1a1a" stroke="#8b1a1a" points="141.722,-76.0081 132.211,-80.6747 142.557,-82.9582 141.722,-76.0081"/>
</g>
<!-- Node4 -->
<g id="node5" class="node"><title>Node4</title>
<g id="a_node5"><a xlink:href="class_fiftyone_degrees_1_1_device_detection_1_1_pattern_1_1_value_meta_data_builder_pattern.html" target="_top" xlink:title="Meta data builder class contains static helper methods used when building value meta data instances f...">
<polygon fill="none" stroke="black" points="174,-0.5 174,-30.5 362,-30.5 362,-0.5 174,-0.5"/>
<text text-anchor="start" x="182" y="-18.5" font-family="Helvetica,sans-Serif" font-size="10.00">FiftyoneDegrees::DeviceDetection</text>
<text text-anchor="middle" x="268" y="-7.5" font-family="Helvetica,sans-Serif" font-size="10.00">::Pattern::ValueMetaDataBuilderPattern</text>
</a>
</g>
</g>
<!-- Node0&#45;&gt;Node4 -->
<g id="edge4" class="edge"><title>Node0&#45;&gt;Node4</title>
<path fill="none" stroke="#8b1a1a" d="M104.183,-68.6739C122.945,-59.2297 146.279,-48.3183 168,-40.5 178.174,-36.8378 189.121,-33.5014 199.894,-30.5435"/>
<polygon fill="#8b1a1a" stroke="#8b1a1a" points="102.411,-65.6491 95.0954,-73.3131 105.593,-71.8838 102.411,-65.6491"/>
</g>
</g>
</svg>
