<?xml version="1.0" encoding="UTF-8" standalone="no"?>
<!DOCTYPE svg PUBLIC "-//W3C//DTD SVG 1.1//EN"
 "http://www.w3.org/Graphics/SVG/1.1/DTD/svg11.dtd">
<!-- Generated by graphviz version 2.38.0 (20140413.2041)
 -->
<!-- Title: FiftyoneDegrees::DeviceDetection::Pattern::ValueMetaDataCollectionForProfilePattern Pages: 1 -->
<svg width="204pt" height="297pt"
 viewBox="0.00 0.00 204.00 297.00" xmlns="http://www.w3.org/2000/svg" xmlns:xlink="http://www.w3.org/1999/xlink">
<g id="graph0" class="graph" transform="scale(1 1) rotate(0) translate(4 293)">
<title>FiftyoneDegrees::DeviceDetection::Pattern::ValueMetaDataCollectionForProfilePattern</title>
<!-- Node0 -->
<g id="node1" class="node"><title>Node0</title>
<g id="a_node1"><a xlink:title="A collection of value meta data relating to a profile contained in a Pattern engine.">
<polygon fill="#bfbfbf" stroke="black" points="4,-0.5 4,-41.5 188,-41.5 188,-0.5 4,-0.5"/>
<text text-anchor="start" x="12" y="-29.5" font-family="Helvetica,sans-Serif" font-size="10.00">FiftyoneDegrees::DeviceDetection</text>
<text text-anchor="start" x="12" y="-18.5" font-family="Helvetica,sans-Serif" font-size="10.00">::Pattern::ValueMetaDataCollectionFor</text>
<text text-anchor="middle" x="96" y="-7.5" font-family="Helvetica,sans-Serif" font-size="10.00">ProfilePattern</text>
</a>
</g>
</g>
<!-- Node1 -->
<g id="node2" class="node"><title>Node1</title>
<g id="a_node2"><a xlink:href="class_fiftyone_degrees_1_1_device_detection_1_1_pattern_1_1_value_meta_data_collection_base_pattern.html" target="_top" xlink:title="A collection of all value meta data contained in a Pattern engine.">
<polygon fill="none" stroke="black" points="0,-79.5 0,-120.5 192,-120.5 192,-79.5 0,-79.5"/>
<text text-anchor="start" x="8" y="-108.5" font-family="Helvetica,sans-Serif" font-size="10.00">FiftyoneDegrees::DeviceDetection</text>
<text text-anchor="start" x="8" y="-97.5" font-family="Helvetica,sans-Serif" font-size="10.00">::Pattern::ValueMetaDataCollectionBase</text>
<text text-anchor="middle" x="96" y="-86.5" font-family="Helvetica,sans-Serif" font-size="10.00">Pattern</text>
</a>
</g>
</g>
<!-- Node1&#45;&gt;Node0 -->
<g id="edge1" class="edge"><title>Node1&#45;&gt;Node0</title>
<path fill="none" stroke="midnightblue" d="M96,-68.9057C96,-59.7917 96,-50.017 96,-41.7622"/>
<polygon fill="midnightblue" stroke="midnightblue" points="92.5001,-69.1706 96,-79.1706 99.5001,-69.1706 92.5001,-69.1706"/>
</g>
<!-- Node2 -->
<g id="node3" class="node"><title>Node2</title>
<g id="a_node3"><a xlink:href="class_fiftyone_degrees_1_1_common_1_1_collection.html" target="_top" xlink:title=" ">
<polygon fill="none" stroke="black" points="15.5,-158.5 15.5,-199.5 176.5,-199.5 176.5,-158.5 15.5,-158.5"/>
<text text-anchor="start" x="23.5" y="-187.5" font-family="Helvetica,sans-Serif" font-size="10.00">FiftyoneDegrees::Common</text>
<text text-anchor="start" x="23.5" y="-176.5" font-family="Helvetica,sans-Serif" font-size="10.00">::Collection&lt; ValueMetaDataKey,</text>
<text text-anchor="middle" x="96" y="-165.5" font-family="Helvetica,sans-Serif" font-size="10.00"> ValueMetaData &gt;</text>
</a>
</g>
</g>
<!-- Node2&#45;&gt;Node1 -->
<g id="edge2" class="edge"><title>Node2&#45;&gt;Node1</title>
<path fill="none" stroke="midnightblue" d="M96,-147.906C96,-138.792 96,-129.017 96,-120.762"/>
<polygon fill="midnightblue" stroke="midnightblue" points="92.5001,-148.171 96,-158.171 99.5001,-148.171 92.5001,-148.171"/>
</g>
<!-- Node3 -->
<g id="node4" class="node"><title>Node3</title>
<g id="a_node4"><a xlink:href="class_fiftyone_degrees_1_1_common_1_1_collection.html" target="_top" xlink:title="A group of items accessible by index or key.">
<polygon fill="none" stroke="black" points="30,-258.5 30,-288.5 162,-288.5 162,-258.5 30,-258.5"/>
<text text-anchor="start" x="38" y="-276.5" font-family="Helvetica,sans-Serif" font-size="10.00">FiftyoneDegrees::Common</text>
<text text-anchor="middle" x="96" y="-265.5" font-family="Helvetica,sans-Serif" font-size="10.00">::Collection&lt; K, V &gt;</text>
</a>
</g>
</g>
<!-- Node3&#45;&gt;Node2 -->
<g id="edge3" class="edge"><title>Node3&#45;&gt;Node2</title>
<path fill="none" stroke="orange" stroke-dasharray="5,2" d="M96,-248.282C96,-233.138 96,-213.882 96,-199.682"/>
<polygon fill="orange" stroke="orange" points="92.5001,-248.451 96,-258.451 99.5001,-248.451 92.5001,-248.451"/>
<text text-anchor="start" x="96" y="-232" font-family="Helvetica,sans-Serif" font-size="10.00"> &lt; ValueMetaDataKey,</text>
<text text-anchor="middle" x="146" y="-221" font-family="Helvetica,sans-Serif" font-size="10.00"> ValueMetaData &gt;</text>
</g>
</g>
</svg>
