<?xml version="1.0" encoding="UTF-8" standalone="no"?>
<!DOCTYPE svg PUBLIC "-//W3C//DTD SVG 1.1//EN"
 "http://www.w3.org/Graphics/SVG/1.1/DTD/svg11.dtd">
<!-- Generated by graphviz version 2.38.0 (20140413.2041)
 -->
<!-- Title: FiftyoneDegrees::Common::ComponentMetaData Pages: 1 -->
<svg width="140pt" height="185pt"
 viewBox="0.00 0.00 140.00 185.00" xmlns="http://www.w3.org/2000/svg" xmlns:xlink="http://www.w3.org/1999/xlink">
<g id="graph0" class="graph" transform="scale(1 1) rotate(0) translate(4 181)">
<title>FiftyoneDegrees::Common::ComponentMetaData</title>
<!-- Node3 -->
<g id="node1" class="node"><title>Node3</title>
<g id="a_node1"><a xlink:title="EntityMetaData relating to a component populated by an engine implementation.">
<polygon fill="#bfbfbf" stroke="black" points="0,-0.5 0,-30.5 132,-30.5 132,-0.5 0,-0.5"/>
<text text-anchor="start" x="8" y="-18.5" font-family="Helvetica,sans-Serif" font-size="10.00">FiftyoneDegrees::Common</text>
<text text-anchor="middle" x="66" y="-7.5" font-family="Helvetica,sans-Serif" font-size="10.00">::ComponentMetaData</text>
</a>
</g>
</g>
<!-- Node4 -->
<g id="node2" class="node"><title>Node4</title>
<g id="a_node2"><a xlink:href="class_fiftyone_degrees_1_1_common_1_1_entity_meta_data.html" target="_top" xlink:title=" ">
<polygon fill="none" stroke="black" points="0,-68.5 0,-98.5 132,-98.5 132,-68.5 0,-68.5"/>
<text text-anchor="start" x="8" y="-86.5" font-family="Helvetica,sans-Serif" font-size="10.00">FiftyoneDegrees::Common</text>
<text text-anchor="middle" x="66" y="-75.5" font-family="Helvetica,sans-Serif" font-size="10.00">::EntityMetaData&lt; byte &gt;</text>
</a>
</g>
</g>
<!-- Node4&#45;&gt;Node3 -->
<g id="edge1" class="edge"><title>Node4&#45;&gt;Node3</title>
<path fill="none" stroke="midnightblue" d="M66,-58.0322C66,-48.8606 66,-38.7449 66,-30.7931"/>
<polygon fill="midnightblue" stroke="midnightblue" points="62.5001,-58.1789 66,-68.179 69.5001,-58.179 62.5001,-58.1789"/>
</g>
<!-- Node5 -->
<g id="node3" class="node"><title>Node5</title>
<g id="a_node3"><a xlink:href="class_fiftyone_degrees_1_1_common_1_1_entity_meta_data.html" target="_top" xlink:title="Base class for any entity meta data.">
<polygon fill="none" stroke="black" points="0,-146.5 0,-176.5 132,-176.5 132,-146.5 0,-146.5"/>
<text text-anchor="start" x="8" y="-164.5" font-family="Helvetica,sans-Serif" font-size="10.00">FiftyoneDegrees::Common</text>
<text text-anchor="middle" x="66" y="-153.5" font-family="Helvetica,sans-Serif" font-size="10.00">::EntityMetaData&lt; K &gt;</text>
</a>
</g>
</g>
<!-- Node5&#45;&gt;Node4 -->
<g id="edge2" class="edge"><title>Node5&#45;&gt;Node4</title>
<path fill="none" stroke="orange" stroke-dasharray="5,2" d="M66,-136.09C66,-123.757 66,-109.224 66,-98.7309"/>
<polygon fill="orange" stroke="orange" points="62.5001,-136.205 66,-146.205 69.5001,-136.205 62.5001,-136.205"/>
<text text-anchor="middle" x="86" y="-120" font-family="Helvetica,sans-Serif" font-size="10.00"> &lt; byte &gt;</text>
</g>
</g>
</svg>
