<?xml version="1.0" encoding="UTF-8" standalone="no"?>
<!DOCTYPE svg PUBLIC "-//W3C//DTD SVG 1.1//EN"
 "http://www.w3.org/Graphics/SVG/1.1/DTD/svg11.dtd">
<!-- Generated by graphviz version 2.38.0 (20140413.2041)
 -->
<!-- Title: FiftyoneDegrees::DeviceDetection::Pattern::ValueMetaDataCollectionPattern Pages: 1 -->
<svg width="209pt" height="286pt"
 viewBox="0.00 0.00 209.00 286.00" xmlns="http://www.w3.org/2000/svg" xmlns:xlink="http://www.w3.org/1999/xlink">
<g id="graph0" class="graph" transform="scale(1 1) rotate(0) translate(4 282)">
<title>FiftyoneDegrees::DeviceDetection::Pattern::ValueMetaDataCollectionPattern</title>
<!-- Node0 -->
<g id="node1" class="node"><title>Node0</title>
<g id="a_node1"><a xlink:title="A collection of all value meta data contained in a Pattern engine.">
<polygon fill="#bfbfbf" stroke="black" points="0,-0.5 0,-30.5 201,-30.5 201,-0.5 0,-0.5"/>
<text text-anchor="start" x="8" y="-18.5" font-family="Helvetica,sans-Serif" font-size="10.00">FiftyoneDegrees::DeviceDetection</text>
<text text-anchor="middle" x="100.5" y="-7.5" font-family="Helvetica,sans-Serif" font-size="10.00">::Pattern::ValueMetaDataCollectionPattern</text>
</a>
</g>
</g>
<!-- Node1 -->
<g id="node2" class="node"><title>Node1</title>
<g id="a_node2"><a xlink:href="class_fiftyone_degrees_1_1_device_detection_1_1_pattern_1_1_value_meta_data_collection_base_pattern.html" target="_top" xlink:title="A collection of all value meta data contained in a Pattern engine.">
<polygon fill="none" stroke="black" points="4.5,-68.5 4.5,-109.5 196.5,-109.5 196.5,-68.5 4.5,-68.5"/>
<text text-anchor="start" x="12.5" y="-97.5" font-family="Helvetica,sans-Serif" font-size="10.00">FiftyoneDegrees::DeviceDetection</text>
<text text-anchor="start" x="12.5" y="-86.5" font-family="Helvetica,sans-Serif" font-size="10.00">::Pattern::ValueMetaDataCollectionBase</text>
<text text-anchor="middle" x="100.5" y="-75.5" font-family="Helvetica,sans-Serif" font-size="10.00">Pattern</text>
</a>
</g>
</g>
<!-- Node1&#45;&gt;Node0 -->
<g id="edge1" class="edge"><title>Node1&#45;&gt;Node0</title>
<path fill="none" stroke="midnightblue" d="M100.5,-58.1581C100.5,-48.6872 100.5,-38.6473 100.5,-30.7972"/>
<polygon fill="midnightblue" stroke="midnightblue" points="97.0001,-58.4623 100.5,-68.4623 104,-58.4623 97.0001,-58.4623"/>
</g>
<!-- Node2 -->
<g id="node3" class="node"><title>Node2</title>
<g id="a_node3"><a xlink:href="class_fiftyone_degrees_1_1_common_1_1_collection.html" target="_top" xlink:title=" ">
<polygon fill="none" stroke="black" points="20,-147.5 20,-188.5 181,-188.5 181,-147.5 20,-147.5"/>
<text text-anchor="start" x="28" y="-176.5" font-family="Helvetica,sans-Serif" font-size="10.00">FiftyoneDegrees::Common</text>
<text text-anchor="start" x="28" y="-165.5" font-family="Helvetica,sans-Serif" font-size="10.00">::Collection&lt; ValueMetaDataKey,</text>
<text text-anchor="middle" x="100.5" y="-154.5" font-family="Helvetica,sans-Serif" font-size="10.00"> ValueMetaData &gt;</text>
</a>
</g>
</g>
<!-- Node2&#45;&gt;Node1 -->
<g id="edge2" class="edge"><title>Node2&#45;&gt;Node1</title>
<path fill="none" stroke="midnightblue" d="M100.5,-136.906C100.5,-127.792 100.5,-118.017 100.5,-109.762"/>
<polygon fill="midnightblue" stroke="midnightblue" points="97.0001,-137.171 100.5,-147.171 104,-137.171 97.0001,-137.171"/>
</g>
<!-- Node3 -->
<g id="node4" class="node"><title>Node3</title>
<g id="a_node4"><a xlink:href="class_fiftyone_degrees_1_1_common_1_1_collection.html" target="_top" xlink:title="A group of items accessible by index or key.">
<polygon fill="none" stroke="black" points="34.5,-247.5 34.5,-277.5 166.5,-277.5 166.5,-247.5 34.5,-247.5"/>
<text text-anchor="start" x="42.5" y="-265.5" font-family="Helvetica,sans-Serif" font-size="10.00">FiftyoneDegrees::Common</text>
<text text-anchor="middle" x="100.5" y="-254.5" font-family="Helvetica,sans-Serif" font-size="10.00">::Collection&lt; K, V &gt;</text>
</a>
</g>
</g>
<!-- Node3&#45;&gt;Node2 -->
<g id="edge3" class="edge"><title>Node3&#45;&gt;Node2</title>
<path fill="none" stroke="orange" stroke-dasharray="5,2" d="M100.5,-237.282C100.5,-222.138 100.5,-202.882 100.5,-188.682"/>
<polygon fill="orange" stroke="orange" points="97.0001,-237.451 100.5,-247.451 104,-237.451 97.0001,-237.451"/>
<text text-anchor="start" x="100.5" y="-221" font-family="Helvetica,sans-Serif" font-size="10.00"> &lt; ValueMetaDataKey,</text>
<text text-anchor="middle" x="150.5" y="-210" font-family="Helvetica,sans-Serif" font-size="10.00"> ValueMetaData &gt;</text>
</g>
</g>
</svg>
