<?xml version="1.0" encoding="UTF-8" standalone="no"?>
<!DOCTYPE svg PUBLIC "-//W3C//DTD SVG 1.1//EN"
 "http://www.w3.org/Graphics/SVG/1.1/DTD/svg11.dtd">
<!-- Generated by graphviz version 2.38.0 (20140413.2041)
 -->
<!-- Title: FiftyoneDegrees::DeviceDetection::Pattern::ValueMetaDataCollectionBasePattern Pages: 1 -->
<svg width="904pt" height="160pt"
 viewBox="0.00 0.00 904.00 159.50" xmlns="http://www.w3.org/2000/svg" xmlns:xlink="http://www.w3.org/1999/xlink">
<g id="graph0" class="graph" transform="scale(1 1) rotate(0) translate(4 155.5)">
<title>FiftyoneDegrees::DeviceDetection::Pattern::ValueMetaDataCollectionBasePattern</title>
<!-- Node0 -->
<g id="node1" class="node"><title>Node0</title>
<g id="a_node1"><a xlink:title="A collection of all value meta data contained in a Pattern engine.">
<polygon fill="#bfbfbf" stroke="black" points="466,-50 466,-91 658,-91 658,-50 466,-50"/>
<text text-anchor="start" x="474" y="-79" font-family="Helvetica,sans-Serif" font-size="10.00">FiftyoneDegrees::DeviceDetection</text>
<text text-anchor="start" x="474" y="-68" font-family="Helvetica,sans-Serif" font-size="10.00">::Pattern::ValueMetaDataCollectionBase</text>
<text text-anchor="middle" x="562" y="-57" font-family="Helvetica,sans-Serif" font-size="10.00">Pattern</text>
</a>
</g>
</g>
<!-- Node3 -->
<g id="node4" class="node"><title>Node3</title>
<g id="a_node4"><a xlink:href="class_fiftyone_degrees_1_1_device_detection_1_1_pattern_1_1_value_meta_data_collection_for_profile_pattern.html" target="_top" xlink:title="A collection of value meta data relating to a profile contained in a Pattern engine.">
<polygon fill="none" stroke="black" points="703.5,-110 703.5,-151 887.5,-151 887.5,-110 703.5,-110"/>
<text text-anchor="start" x="711.5" y="-139" font-family="Helvetica,sans-Serif" font-size="10.00">FiftyoneDegrees::DeviceDetection</text>
<text text-anchor="start" x="711.5" y="-128" font-family="Helvetica,sans-Serif" font-size="10.00">::Pattern::ValueMetaDataCollectionFor</text>
<text text-anchor="middle" x="795.5" y="-117" font-family="Helvetica,sans-Serif" font-size="10.00">ProfilePattern</text>
</a>
</g>
</g>
<!-- Node0&#45;&gt;Node3 -->
<g id="edge3" class="edge"><title>Node0&#45;&gt;Node3</title>
<path fill="none" stroke="midnightblue" d="M652.123,-93.5987C672.918,-98.9884 694.925,-104.692 715.258,-109.962"/>
<polygon fill="midnightblue" stroke="midnightblue" points="652.904,-90.1856 642.345,-91.0647 651.147,-96.9617 652.904,-90.1856"/>
</g>
<!-- Node4 -->
<g id="node5" class="node"><title>Node4</title>
<g id="a_node5"><a xlink:href="class_fiftyone_degrees_1_1_device_detection_1_1_pattern_1_1_value_meta_data_collection_for_property_pattern.html" target="_top" xlink:title="A collection of value meta data relating to a property contained in a Pattern engine.">
<polygon fill="none" stroke="black" points="703.5,-50 703.5,-91 887.5,-91 887.5,-50 703.5,-50"/>
<text text-anchor="start" x="711.5" y="-79" font-family="Helvetica,sans-Serif" font-size="10.00">FiftyoneDegrees::DeviceDetection</text>
<text text-anchor="start" x="711.5" y="-68" font-family="Helvetica,sans-Serif" font-size="10.00">::Pattern::ValueMetaDataCollectionFor</text>
<text text-anchor="middle" x="795.5" y="-57" font-family="Helvetica,sans-Serif" font-size="10.00">PropertyPattern</text>
</a>
</g>
</g>
<!-- Node0&#45;&gt;Node4 -->
<g id="edge4" class="edge"><title>Node0&#45;&gt;Node4</title>
<path fill="none" stroke="midnightblue" d="M668.395,-70.5C680.094,-70.5 691.935,-70.5 703.436,-70.5"/>
<polygon fill="midnightblue" stroke="midnightblue" points="668.162,-67.0001 658.162,-70.5 668.162,-74.0001 668.162,-67.0001"/>
</g>
<!-- Node5 -->
<g id="node6" class="node"><title>Node5</title>
<g id="a_node6"><a xlink:href="class_fiftyone_degrees_1_1_device_detection_1_1_pattern_1_1_value_meta_data_collection_pattern.html" target="_top" xlink:title="A collection of all value meta data contained in a Pattern engine.">
<polygon fill="none" stroke="black" points="695,-0.5 695,-30.5 896,-30.5 896,-0.5 695,-0.5"/>
<text text-anchor="start" x="703" y="-18.5" font-family="Helvetica,sans-Serif" font-size="10.00">FiftyoneDegrees::DeviceDetection</text>
<text text-anchor="middle" x="795.5" y="-7.5" font-family="Helvetica,sans-Serif" font-size="10.00">::Pattern::ValueMetaDataCollectionPattern</text>
</a>
</g>
</g>
<!-- Node0&#45;&gt;Node5 -->
<g id="edge5" class="edge"><title>Node0&#45;&gt;Node5</title>
<path fill="none" stroke="midnightblue" d="M659.464,-47.5819C683.684,-41.8278 709.063,-35.7983 731.197,-30.5396"/>
<polygon fill="midnightblue" stroke="midnightblue" points="658.451,-44.2251 649.531,-49.9418 660.069,-51.0355 658.451,-44.2251"/>
</g>
<!-- Node1 -->
<g id="node2" class="node"><title>Node1</title>
<g id="a_node2"><a xlink:href="class_fiftyone_degrees_1_1_common_1_1_collection.html" target="_top" xlink:title=" ">
<polygon fill="none" stroke="black" points="268,-50 268,-91 429,-91 429,-50 268,-50"/>
<text text-anchor="start" x="276" y="-79" font-family="Helvetica,sans-Serif" font-size="10.00">FiftyoneDegrees::Common</text>
<text text-anchor="start" x="276" y="-68" font-family="Helvetica,sans-Serif" font-size="10.00">::Collection&lt; ValueMetaDataKey,</text>
<text text-anchor="middle" x="348.5" y="-57" font-family="Helvetica,sans-Serif" font-size="10.00"> ValueMetaData &gt;</text>
</a>
</g>
</g>
<!-- Node1&#45;&gt;Node0 -->
<g id="edge1" class="edge"><title>Node1&#45;&gt;Node0</title>
<path fill="none" stroke="midnightblue" d="M439.333,-70.5C448.072,-70.5 456.958,-70.5 465.748,-70.5"/>
<polygon fill="midnightblue" stroke="midnightblue" points="439.158,-67.0001 429.158,-70.5 439.158,-74.0001 439.158,-67.0001"/>
</g>
<!-- Node2 -->
<g id="node3" class="node"><title>Node2</title>
<g id="a_node3"><a xlink:href="class_fiftyone_degrees_1_1_common_1_1_collection.html" target="_top" xlink:title="A group of items accessible by index or key.">
<polygon fill="none" stroke="black" points="0,-55.5 0,-85.5 132,-85.5 132,-55.5 0,-55.5"/>
<text text-anchor="start" x="8" y="-73.5" font-family="Helvetica,sans-Serif" font-size="10.00">FiftyoneDegrees::Common</text>
<text text-anchor="middle" x="66" y="-62.5" font-family="Helvetica,sans-Serif" font-size="10.00">::Collection&lt; K, V &gt;</text>
</a>
</g>
</g>
<!-- Node2&#45;&gt;Node1 -->
<g id="edge2" class="edge"><title>Node2&#45;&gt;Node1</title>
<path fill="none" stroke="orange" stroke-dasharray="5,2" d="M142.242,-70.5C181.037,-70.5 228.354,-70.5 267.777,-70.5"/>
<polygon fill="orange" stroke="orange" points="142.057,-67.0001 132.057,-70.5 142.057,-74.0001 142.057,-67.0001"/>
<text text-anchor="start" x="150" y="-84.5" font-family="Helvetica,sans-Serif" font-size="10.00"> &lt; ValueMetaDataKey,</text>
<text text-anchor="middle" x="200" y="-73.5" font-family="Helvetica,sans-Serif" font-size="10.00"> ValueMetaData &gt;</text>
</g>
</g>
</svg>
