<?xml version="1.0" encoding="UTF-8" standalone="no"?>
<!DOCTYPE svg PUBLIC "-//W3C//DTD SVG 1.1//EN"
 "http://www.w3.org/Graphics/SVG/1.1/DTD/svg11.dtd">
<!-- Generated by graphviz version 2.38.0 (20140413.2041)
 -->
<!-- Title: FiftyoneDegrees::Examples::Pattern::GettingStarted Pages: 1 -->
<svg width="1362pt" height="156pt"
 viewBox="0.00 0.00 1362.00 156.00" xmlns="http://www.w3.org/2000/svg" xmlns:xlink="http://www.w3.org/1999/xlink">
<g id="graph0" class="graph" transform="scale(1 1) rotate(0) translate(4 152)">
<title>FiftyoneDegrees::Examples::Pattern::GettingStarted</title>
<!-- Node2 -->
<g id="node1" class="node"><title>Node2</title>
<g id="a_node1"><a xlink:title="Pattern Getting Started Example.">
<polygon fill="#bfbfbf" stroke="black" points="1217,-58.5 1217,-88.5 1354,-88.5 1354,-58.5 1217,-58.5"/>
<text text-anchor="start" x="1225" y="-76.5" font-family="Helvetica,sans-Serif" font-size="10.00">FiftyoneDegrees::Examples</text>
<text text-anchor="middle" x="1285.5" y="-65.5" font-family="Helvetica,sans-Serif" font-size="10.00">::Pattern::GettingStarted</text>
</a>
</g>
</g>
<!-- Node3 -->
<g id="node2" class="node"><title>Node3</title>
<g id="a_node2"><a xlink:href="class_fiftyone_degrees_1_1_examples_1_1_pattern_1_1_example_base.html" target="_top" xlink:title="Base class extended by all Pattern examples.">
<polygon fill="none" stroke="black" points="1043,-58.5 1043,-88.5 1180,-88.5 1180,-58.5 1043,-58.5"/>
<text text-anchor="start" x="1051" y="-76.5" font-family="Helvetica,sans-Serif" font-size="10.00">FiftyoneDegrees::Examples</text>
<text text-anchor="middle" x="1111.5" y="-65.5" font-family="Helvetica,sans-Serif" font-size="10.00">::Pattern::ExampleBase</text>
</a>
</g>
</g>
<!-- Node3&#45;&gt;Node2 -->
<g id="edge1" class="edge"><title>Node3&#45;&gt;Node2</title>
<path fill="none" stroke="midnightblue" d="M1190.63,-73.5C1199.35,-73.5 1208.17,-73.5 1216.73,-73.5"/>
<polygon fill="midnightblue" stroke="midnightblue" points="1190.48,-70.0001 1180.48,-73.5 1190.48,-77.0001 1190.48,-70.0001"/>
</g>
<!-- Node4 -->
<g id="node3" class="node"><title>Node4</title>
<g id="a_node3"><a xlink:href="class_fiftyone_degrees_1_1_common_1_1_required_properties_config.html" target="_top" xlink:title="C++ class wrapper for the fiftyoneDegreesPropertiesRequired structure.">
<polygon fill="none" stroke="black" points="0,-0.5 0,-30.5 132,-30.5 132,-0.5 0,-0.5"/>
<text text-anchor="start" x="8" y="-18.5" font-family="Helvetica,sans-Serif" font-size="10.00">FiftyoneDegrees::Common</text>
<text text-anchor="middle" x="66" y="-7.5" font-family="Helvetica,sans-Serif" font-size="10.00">::RequiredPropertiesConfig</text>
</a>
</g>
</g>
<!-- Node4&#45;&gt;Node3 -->
<g id="edge2" class="edge"><title>Node4&#45;&gt;Node3</title>
<path fill="none" stroke="#9a32cd" stroke-dasharray="5,2" d="M142.491,-11.5533C195.162,-9.13488 267.097,-6.5 330.5,-6.5 330.5,-6.5 330.5,-6.5 894.5,-6.5 964.191,-6.5 1041.08,-38.7101 1081.68,-58.4639"/>
<polygon fill="#9a32cd" stroke="#9a32cd" points="142.047,-8.0701 132.222,-12.0332 142.374,-15.0625 142.047,-8.0701"/>
<text text-anchor="middle" x="531.5" y="-9.5" font-family="Helvetica,sans-Serif" font-size="10.00"> properties</text>
</g>
<!-- Node10 -->
<g id="node9" class="node"><title>Node10</title>
<g id="a_node9"><a xlink:href="class_fiftyone_degrees_1_1_common_1_1_engine_base.html" target="_top" xlink:title="Encapsulates the engine class to be extended by engine implementations.">
<polygon fill="none" stroke="black" points="265.5,-58.5 265.5,-88.5 397.5,-88.5 397.5,-58.5 265.5,-58.5"/>
<text text-anchor="start" x="273.5" y="-76.5" font-family="Helvetica,sans-Serif" font-size="10.00">FiftyoneDegrees::Common</text>
<text text-anchor="middle" x="331.5" y="-65.5" font-family="Helvetica,sans-Serif" font-size="10.00">::EngineBase</text>
</a>
</g>
</g>
<!-- Node4&#45;&gt;Node10 -->
<g id="edge9" class="edge"><title>Node4&#45;&gt;Node10</title>
<path fill="none" stroke="#9a32cd" stroke-dasharray="5,2" d="M142.329,-32.081C181.121,-40.6197 227.96,-50.9294 265.201,-59.1268"/>
<polygon fill="#9a32cd" stroke="#9a32cd" points="142.653,-28.5687 132.135,-29.8371 141.149,-35.405 142.653,-28.5687"/>
<text text-anchor="middle" x="191" y="-54.5" font-family="Helvetica,sans-Serif" font-size="10.00"> requiredProperties</text>
</g>
<!-- Node5 -->
<g id="node4" class="node"><title>Node5</title>
<g id="a_node4"><a xlink:href="class_fiftyone_degrees_1_1_device_detection_1_1_pattern_1_1_config_pattern.html" target="_top" xlink:title="C++ class wrapper for the fiftyoneDegreesConfigPattern configuration structure.">
<polygon fill="none" stroke="black" points="631,-111.5 631,-141.5 794,-141.5 794,-111.5 631,-111.5"/>
<text text-anchor="start" x="639" y="-129.5" font-family="Helvetica,sans-Serif" font-size="10.00">FiftyoneDegrees::DeviceDetection</text>
<text text-anchor="middle" x="712.5" y="-118.5" font-family="Helvetica,sans-Serif" font-size="10.00">::Pattern::ConfigPattern</text>
</a>
</g>
</g>
<!-- Node5&#45;&gt;Node3 -->
<g id="edge3" class="edge"><title>Node5&#45;&gt;Node3</title>
<path fill="none" stroke="#9a32cd" stroke-dasharray="5,2" d="M804.293,-117.893C854.682,-112.749 918.426,-105.638 975,-97.5 997.11,-94.3194 1021.14,-90.2606 1042.75,-86.3894"/>
<polygon fill="#9a32cd" stroke="#9a32cd" points="803.672,-114.438 794.075,-118.928 804.377,-121.402 803.672,-114.438"/>
<text text-anchor="middle" x="893.5" y="-120.5" font-family="Helvetica,sans-Serif" font-size="10.00"> config</text>
</g>
<!-- Node6 -->
<g id="node5" class="node"><title>Node6</title>
<g id="a_node5"><a xlink:href="class_fiftyone_degrees_1_1_device_detection_1_1_config_device_detection.html" target="_top" xlink:title="C++ class wrapper for the fiftyoneDegreesConfigDeviceDetection configuration structure.">
<polygon fill="none" stroke="black" points="250,-117.5 250,-147.5 413,-147.5 413,-117.5 250,-117.5"/>
<text text-anchor="start" x="258" y="-135.5" font-family="Helvetica,sans-Serif" font-size="10.00">FiftyoneDegrees::DeviceDetection</text>
<text text-anchor="middle" x="331.5" y="-124.5" font-family="Helvetica,sans-Serif" font-size="10.00">::ConfigDeviceDetection</text>
</a>
</g>
</g>
<!-- Node6&#45;&gt;Node5 -->
<g id="edge4" class="edge"><title>Node6&#45;&gt;Node5</title>
<path fill="none" stroke="midnightblue" d="M423.688,-131.056C486.812,-130.057 570.064,-128.739 630.784,-127.778"/>
<polygon fill="midnightblue" stroke="midnightblue" points="423.283,-127.562 413.34,-131.22 423.394,-134.561 423.283,-127.562"/>
</g>
<!-- Node7 -->
<g id="node6" class="node"><title>Node7</title>
<g id="a_node6"><a xlink:href="class_fiftyone_degrees_1_1_common_1_1_config_base.html" target="_top" xlink:title="C++ class wrapper for the fiftyoneDegreesConfigBase configuration structure.">
<polygon fill="none" stroke="black" points="0,-112.5 0,-142.5 132,-142.5 132,-112.5 0,-112.5"/>
<text text-anchor="start" x="8" y="-130.5" font-family="Helvetica,sans-Serif" font-size="10.00">FiftyoneDegrees::Common</text>
<text text-anchor="middle" x="66" y="-119.5" font-family="Helvetica,sans-Serif" font-size="10.00">::ConfigBase</text>
</a>
</g>
</g>
<!-- Node7&#45;&gt;Node6 -->
<g id="edge5" class="edge"><title>Node7&#45;&gt;Node6</title>
<path fill="none" stroke="midnightblue" d="M142.34,-128.93C175.888,-129.566 215.45,-130.317 249.62,-130.965"/>
<polygon fill="midnightblue" stroke="midnightblue" points="142.199,-125.426 132.135,-128.736 142.067,-132.425 142.199,-125.426"/>
</g>
<!-- Node7&#45;&gt;Node10 -->
<g id="edge11" class="edge"><title>Node7&#45;&gt;Node10</title>
<path fill="none" stroke="#9a32cd" stroke-dasharray="5,2" d="M142.329,-112.063C181.121,-104.113 227.96,-94.514 265.201,-86.8819"/>
<polygon fill="#9a32cd" stroke="#9a32cd" points="141.229,-108.715 132.135,-114.152 142.634,-115.573 141.229,-108.715"/>
<text text-anchor="middle" x="191" y="-113.5" font-family="Helvetica,sans-Serif" font-size="10.00"> config</text>
</g>
<!-- Node8 -->
<g id="node7" class="node"><title>Node8</title>
<g id="a_node7"><a xlink:href="class_fiftyone_degrees_1_1_device_detection_1_1_pattern_1_1_engine_pattern.html" target="_top" xlink:title="Encapsulates the Pattern engine class which implements EngineDeviceDetection.">
<polygon fill="none" stroke="black" points="812,-58.5 812,-88.5 975,-88.5 975,-58.5 812,-58.5"/>
<text text-anchor="start" x="820" y="-76.5" font-family="Helvetica,sans-Serif" font-size="10.00">FiftyoneDegrees::DeviceDetection</text>
<text text-anchor="middle" x="893.5" y="-65.5" font-family="Helvetica,sans-Serif" font-size="10.00">::Pattern::EnginePattern</text>
</a>
</g>
</g>
<!-- Node8&#45;&gt;Node3 -->
<g id="edge6" class="edge"><title>Node8&#45;&gt;Node3</title>
<path fill="none" stroke="#9a32cd" stroke-dasharray="5,2" d="M985.259,-73.5C1004.58,-73.5 1024.66,-73.5 1042.93,-73.5"/>
<polygon fill="#9a32cd" stroke="#9a32cd" points="985.238,-70.0001 975.238,-73.5 985.238,-77.0001 985.238,-70.0001"/>
<text text-anchor="middle" x="1009" y="-76.5" font-family="Helvetica,sans-Serif" font-size="10.00"> engine</text>
</g>
<!-- Node9 -->
<g id="node8" class="node"><title>Node9</title>
<g id="a_node8"><a xlink:href="class_fiftyone_degrees_1_1_device_detection_1_1_engine_device_detection.html" target="_top" xlink:title="Encapsulates the device detection engine class to be extended by device detection engine implementati...">
<polygon fill="none" stroke="black" points="450,-58.5 450,-88.5 613,-88.5 613,-58.5 450,-58.5"/>
<text text-anchor="start" x="458" y="-76.5" font-family="Helvetica,sans-Serif" font-size="10.00">FiftyoneDegrees::DeviceDetection</text>
<text text-anchor="middle" x="531.5" y="-65.5" font-family="Helvetica,sans-Serif" font-size="10.00">::EngineDeviceDetection</text>
</a>
</g>
</g>
<!-- Node9&#45;&gt;Node8 -->
<g id="edge7" class="edge"><title>Node9&#45;&gt;Node8</title>
<path fill="none" stroke="midnightblue" d="M623.559,-73.5C681.595,-73.5 756.108,-73.5 811.979,-73.5"/>
<polygon fill="midnightblue" stroke="midnightblue" points="623.291,-70.0001 613.291,-73.5 623.291,-77.0001 623.291,-70.0001"/>
</g>
<!-- Node10&#45;&gt;Node9 -->
<g id="edge8" class="edge"><title>Node10&#45;&gt;Node9</title>
<path fill="none" stroke="midnightblue" d="M407.934,-73.5C421.626,-73.5 435.957,-73.5 449.794,-73.5"/>
<polygon fill="midnightblue" stroke="midnightblue" points="407.607,-70.0001 397.607,-73.5 407.607,-77.0001 407.607,-70.0001"/>
</g>
<!-- Node11 -->
<g id="node10" class="node"><title>Node11</title>
<g id="a_node10"><a xlink:href="class_fiftyone_degrees_1_1_common_1_1_meta_data.html" target="_top" xlink:title="Contains meta data for the properties, values, profiles and components that exist within the engine i...">
<polygon fill="none" stroke="black" points="0,-58.5 0,-88.5 132,-88.5 132,-58.5 0,-58.5"/>
<text text-anchor="start" x="8" y="-76.5" font-family="Helvetica,sans-Serif" font-size="10.00">FiftyoneDegrees::Common</text>
<text text-anchor="middle" x="66" y="-65.5" font-family="Helvetica,sans-Serif" font-size="10.00">::MetaData</text>
</a>
</g>
</g>
<!-- Node11&#45;&gt;Node10 -->
<g id="edge10" class="edge"><title>Node11&#45;&gt;Node10</title>
<path fill="none" stroke="#9a32cd" stroke-dasharray="5,2" d="M142.329,-73.5C181.121,-73.5 227.96,-73.5 265.201,-73.5"/>
<polygon fill="#9a32cd" stroke="#9a32cd" points="142.135,-70.0001 132.135,-73.5 142.135,-77.0001 142.135,-70.0001"/>
<text text-anchor="middle" x="191" y="-76.5" font-family="Helvetica,sans-Serif" font-size="10.00"> metaData</text>
</g>
</g>
</svg>
