<?xml version="1.0" encoding="UTF-8" standalone="no"?>
<!DOCTYPE svg PUBLIC "-//W3C//DTD SVG 1.1//EN"
 "http://www.w3.org/Graphics/SVG/1.1/DTD/svg11.dtd">
<!-- Generated by graphviz version 2.38.0 (20140413.2041)
 -->
<!-- Title: Common Pages: 1 -->
<svg width="198pt" height="1063pt"
 viewBox="0.00 0.00 198.00 1063.00" xmlns="http://www.w3.org/2000/svg" xmlns:xlink="http://www.w3.org/1999/xlink">
<g id="graph0" class="graph" transform="scale(1 1) rotate(0) translate(4 1059)">
<title>Common</title>
<!-- Node0 -->
<g id="node1" class="node"><title>Node0</title>
<g id="a_node1"><a xlink:title="Common 51Degrees methods, types and macros.">
<polygon fill="#bfbfbf" stroke="black" points="56,-537 3.55271e-015,-537 3.55271e-015,-518 56,-518 56,-537"/>
<text text-anchor="middle" x="28" y="-525" font-family="Helvetica,sans-Serif" font-size="10.00">Common</text>
</a>
</g>
</g>
<!-- Node3 -->
<g id="node2" class="node"><title>Node3</title>
<g id="a_node2"><a xlink:href="group___fifty_one_degrees_collection.html" target="_top" xlink:title="Group of related items such as strings.">
<polygon fill="none" stroke="black" points="170.5,-1055 111.5,-1055 111.5,-1036 170.5,-1036 170.5,-1055"/>
<text text-anchor="middle" x="141" y="-1043" font-family="Helvetica,sans-Serif" font-size="10.00">Collection</text>
</a>
</g>
</g>
<!-- Node0&#45;&gt;Node3 -->
<g id="edge3" class="edge"><title>Node0&#45;&gt;Node3</title>
<path fill="none" stroke="black" d="M28.8528,-547.521C28.6289,-631.092 31.7776,-951.28 92,-1027.5 96.8555,-1033.65 104.045,-1037.69 111.389,-1040.36"/>
<polygon fill="black" stroke="black" points="32.3534,-547.366 28.9011,-537.349 25.3535,-547.332 32.3534,-547.366"/>
</g>
<!-- Node15 -->
<g id="node3" class="node"><title>Node15</title>
<g id="a_node3"><a xlink:href="group___fifty_one_degrees_list.html" target="_top" xlink:title="A more manageable way to store arrays.">
<polygon fill="none" stroke="black" points="157,-1018 125,-1018 125,-999 157,-999 157,-1018"/>
<text text-anchor="middle" x="141" y="-1006" font-family="Helvetica,sans-Serif" font-size="10.00">List</text>
</a>
</g>
</g>
<!-- Node0&#45;&gt;Node15 -->
<g id="edge15" class="edge"><title>Node0&#45;&gt;Node15</title>
<path fill="none" stroke="black" d="M29.0738,-547.034C29.7511,-625.957 36.048,-920.401 92,-990.5 99.884,-1000.38 113.79,-1004.84 124.612,-1006.85"/>
<polygon fill="black" stroke="black" points="32.5737,-546.983 29.0095,-537.006 25.5738,-547.028 32.5737,-546.983"/>
</g>
<!-- Node23 -->
<g id="node4" class="node"><title>Node23</title>
<g id="a_node4"><a xlink:href="group___fifty_one_degrees_results.html" target="_top" xlink:title="Structure returned by an engine&#39;s process method(s), containing values.">
<polygon fill="none" stroke="black" points="166,-981 116,-981 116,-962 166,-962 166,-981"/>
<text text-anchor="middle" x="141" y="-969" font-family="Helvetica,sans-Serif" font-size="10.00">Results</text>
</a>
</g>
</g>
<!-- Node0&#45;&gt;Node23 -->
<g id="edge23" class="edge"><title>Node0&#45;&gt;Node23</title>
<path fill="none" stroke="black" d="M29.3384,-547.38C31.0044,-622.736 40.5028,-889.743 92,-953.5 97.9278,-960.839 107.176,-965.186 115.979,-967.762"/>
<polygon fill="black" stroke="black" points="32.8371,-547.272 29.1392,-537.343 25.8385,-547.411 32.8371,-547.272"/>
</g>
<!-- Node26 -->
<g id="node5" class="node"><title>Node26</title>
<g id="a_node5"><a xlink:href="group___fifty_one_degrees_text_file.html" target="_top" xlink:title="Contains helper methods for accessing and using text files.">
<polygon fill="none" stroke="black" points="166.5,-944 115.5,-944 115.5,-925 166.5,-925 166.5,-944"/>
<text text-anchor="middle" x="141" y="-932" font-family="Helvetica,sans-Serif" font-size="10.00">TextFile</text>
</a>
</g>
</g>
<!-- Node0&#45;&gt;Node26 -->
<g id="edge26" class="edge"><title>Node0&#45;&gt;Node26</title>
<path fill="none" stroke="black" d="M29.651,-547.443C32.3555,-618.621 44.8763,-858.971 92,-916.5 97.7525,-923.523 106.541,-927.807 115.033,-930.42"/>
<polygon fill="black" stroke="black" points="33.1396,-547.059 29.2863,-537.19 26.144,-547.308 33.1396,-547.059"/>
</g>
<!-- Node20 -->
<g id="node6" class="node"><title>Node20</title>
<g id="a_node6"><a xlink:href="group___fifty_one_degrees_properties.html" target="_top" xlink:title="Structures for properties which are available, or required.">
<polygon fill="none" stroke="black" points="171.5,-907 110.5,-907 110.5,-888 171.5,-888 171.5,-907"/>
<text text-anchor="middle" x="141" y="-895" font-family="Helvetica,sans-Serif" font-size="10.00">Properties</text>
</a>
</g>
</g>
<!-- Node0&#45;&gt;Node20 -->
<g id="edge20" class="edge"><title>Node0&#45;&gt;Node20</title>
<path fill="none" stroke="black" d="M30.015,-547.254C33.8053,-613.741 49.1785,-828.096 92,-879.5 96.6711,-885.107 103.275,-888.969 110.093,-891.629"/>
<polygon fill="black" stroke="black" points="33.5094,-547.055 29.4704,-537.26 26.5198,-547.436 33.5094,-547.055"/>
</g>
<!-- Node27 -->
<g id="node7" class="node"><title>Node27</title>
<g id="a_node7"><a xlink:href="group___fifty_one_degrees_threading.html" target="_top" xlink:title="Defines multi threading macros if the FIFTYONE_DEGREES_NO_THREADING compiler directive is not explici...">
<polygon fill="none" stroke="black" points="170.5,-870 111.5,-870 111.5,-851 170.5,-851 170.5,-870"/>
<text text-anchor="middle" x="141" y="-858" font-family="Helvetica,sans-Serif" font-size="10.00">Threading</text>
</a>
</g>
</g>
<!-- Node0&#45;&gt;Node27 -->
<g id="edge27" class="edge"><title>Node0&#45;&gt;Node27</title>
<path fill="none" stroke="black" d="M30.4625,-547.148C35.4219,-608.829 53.4814,-797.204 92,-842.5 96.9584,-848.331 104.002,-852.275 111.171,-854.943"/>
<polygon fill="black" stroke="black" points="33.9513,-546.867 29.687,-537.168 26.9724,-547.409 33.9513,-546.867"/>
</g>
<!-- Node4 -->
<g id="node8" class="node"><title>Node4</title>
<g id="a_node8"><a xlink:href="group___fifty_one_degrees_component.html" target="_top" xlink:title="Component of a data set.">
<polygon fill="none" stroke="black" points="174,-833 108,-833 108,-814 174,-814 174,-833"/>
<text text-anchor="middle" x="141" y="-821" font-family="Helvetica,sans-Serif" font-size="10.00">Component</text>
</a>
</g>
</g>
<!-- Node0&#45;&gt;Node4 -->
<g id="edge4" class="edge"><title>Node0&#45;&gt;Node4</title>
<path fill="none" stroke="black" d="M31.0595,-547.385C37.3233,-604.313 57.8322,-766.341 92,-805.5 96.213,-810.328 101.853,-813.865 107.784,-816.454"/>
<polygon fill="black" stroke="black" points="34.5128,-546.761 29.9679,-537.19 27.5526,-547.506 34.5128,-546.761"/>
</g>
<!-- Node10 -->
<g id="node9" class="node"><title>Node10</title>
<g id="a_node9"><a xlink:href="group___fifty_one_degrees_exceptions.html" target="_top" xlink:title="Allow the bubbling up or errors in C.">
<polygon fill="none" stroke="black" points="173.5,-796 108.5,-796 108.5,-777 173.5,-777 173.5,-796"/>
<text text-anchor="middle" x="141" y="-784" font-family="Helvetica,sans-Serif" font-size="10.00">Exceptions</text>
</a>
</g>
</g>
<!-- Node0&#45;&gt;Node10 -->
<g id="edge10" class="edge"><title>Node0&#45;&gt;Node10</title>
<path fill="none" stroke="black" d="M28.4111,-547.462C28.1731,-592.702 33.9153,-704.097 92,-768.5 96.4109,-773.391 102.282,-776.958 108.402,-779.558"/>
<polygon fill="black" stroke="black" points="31.9144,-547.282 28.5786,-537.226 24.9153,-547.168 31.9144,-547.282"/>
</g>
<!-- Node29 -->
<g id="node10" class="node"><title>Node29</title>
<g id="a_node10"><a xlink:href="group___fifty_one_degrees_value.html" target="_top" xlink:title="Value of a data set relating to a property.">
<polygon fill="none" stroke="black" points="164.5,-759 117.5,-759 117.5,-740 164.5,-740 164.5,-759"/>
<text text-anchor="middle" x="141" y="-747" font-family="Helvetica,sans-Serif" font-size="10.00">Values</text>
</a>
</g>
</g>
<!-- Node0&#45;&gt;Node29 -->
<g id="edge29" class="edge"><title>Node0&#45;&gt;Node29</title>
<path fill="none" stroke="black" d="M29.545,-547.089C31.7024,-587.039 42.1452,-678.601 92,-731.5 98.5924,-738.495 108.165,-742.792 117.031,-745.422"/>
<polygon fill="black" stroke="black" points="33.0404,-546.903 29.1243,-537.059 26.0465,-547.197 33.0404,-546.903"/>
</g>
<!-- Node11 -->
<g id="node11" class="node"><title>Node11</title>
<g id="a_node11"><a xlink:href="group___fifty_one_degrees_synonyms.html" target="_top" xlink:title="Quick shortenings of common methods and types.">
<polygon fill="none" stroke="black" points="172.5,-722 109.5,-722 109.5,-703 172.5,-703 172.5,-722"/>
<text text-anchor="middle" x="141" y="-710" font-family="Helvetica,sans-Serif" font-size="10.00">Synonyms</text>
</a>
</g>
</g>
<!-- Node0&#45;&gt;Node11 -->
<g id="edge11" class="edge"><title>Node0&#45;&gt;Node11</title>
<path fill="none" stroke="black" d="M31.1939,-547.508C36.0137,-582.067 50.6186,-653.2 92,-694.5 96.7876,-699.278 102.963,-702.806 109.28,-705.404"/>
<polygon fill="black" stroke="black" points="34.629,-546.771 29.9099,-537.286 27.6836,-547.644 34.629,-546.771"/>
</g>
<!-- Node18 -->
<g id="node12" class="node"><title>Node18</title>
<g id="a_node12"><a xlink:href="group___fifty_one_degrees_pool.html" target="_top" xlink:title="Pool of handles to allow safe access to multiple threads.">
<polygon fill="none" stroke="black" points="159,-685 123,-685 123,-666 159,-666 159,-685"/>
<text text-anchor="middle" x="141" y="-673" font-family="Helvetica,sans-Serif" font-size="10.00">Pool</text>
</a>
</g>
</g>
<!-- Node0&#45;&gt;Node18 -->
<g id="edge18" class="edge"><title>Node0&#45;&gt;Node18</title>
<path fill="none" stroke="black" d="M33.5276,-546.985C41.026,-575.119 58.6193,-627.072 92,-657.5 100.551,-665.294 112.795,-669.814 122.777,-672.375"/>
<polygon fill="black" stroke="black" points="36.8879,-545.995 31.0618,-537.146 30.0979,-547.697 36.8879,-545.995"/>
</g>
<!-- Node17 -->
<g id="node13" class="node"><title>Node17</title>
<g id="a_node13"><a xlink:href="group___fifty_one_degrees_overrides.html" target="_top" xlink:title="Used to override properties values or an entire profile.">
<polygon fill="none" stroke="black" points="169.5,-648 112.5,-648 112.5,-629 169.5,-629 169.5,-648"/>
<text text-anchor="middle" x="141" y="-636" font-family="Helvetica,sans-Serif" font-size="10.00">Overrides</text>
</a>
</g>
</g>
<!-- Node0&#45;&gt;Node17 -->
<g id="edge17" class="edge"><title>Node0&#45;&gt;Node17</title>
<path fill="none" stroke="black" d="M37.3228,-546.205C47.4637,-567.026 66.4567,-600.384 92,-620.5 97.9433,-625.18 105.232,-628.737 112.317,-631.4"/>
<polygon fill="black" stroke="black" points="40.473,-544.679 33.0657,-537.104 34.1323,-547.645 40.473,-544.679"/>
</g>
<!-- Node14 -->
<g id="node14" class="node"><title>Node14</title>
<g id="a_node14"><a xlink:href="group__fiftyone_degrees_ip.html" target="_top" xlink:title="Types and methods to parse IP address strings.">
<polygon fill="none" stroke="black" points="155.5,-611 126.5,-611 126.5,-592 155.5,-592 155.5,-611"/>
<text text-anchor="middle" x="141" y="-599" font-family="Helvetica,sans-Serif" font-size="10.00">IP</text>
</a>
</g>
</g>
<!-- Node0&#45;&gt;Node14 -->
<g id="edge14" class="edge"><title>Node0&#45;&gt;Node14</title>
<path fill="none" stroke="black" d="M44.5809,-544.351C56.5879,-556.546 74.1137,-572.712 92,-583.5 102.822,-590.027 116.407,-594.851 126.36,-597.854"/>
<polygon fill="black" stroke="black" points="46.9868,-541.804 37.5392,-537.008 41.9344,-546.648 46.9868,-541.804"/>
</g>
<!-- Node24 -->
<g id="node15" class="node"><title>Node24</title>
<g id="a_node15"><a xlink:href="group___fifty_one_degrees_status.html" target="_top" xlink:title="Status codes and messages indicating the result of an operation.">
<polygon fill="none" stroke="black" points="163.5,-574 118.5,-574 118.5,-555 163.5,-555 163.5,-574"/>
<text text-anchor="middle" x="141" y="-562" font-family="Helvetica,sans-Serif" font-size="10.00">Status</text>
</a>
</g>
</g>
<!-- Node0&#45;&gt;Node24 -->
<g id="edge24" class="edge"><title>Node0&#45;&gt;Node24</title>
<path fill="none" stroke="black" d="M66.003,-539.834C83.3689,-545.623 103.463,-552.321 118.325,-557.275"/>
<polygon fill="black" stroke="black" points="66.7473,-536.393 56.1537,-536.551 64.5337,-543.034 66.7473,-536.393"/>
</g>
<!-- Node1 -->
<g id="node16" class="node"><title>Node1</title>
<g id="a_node16"><a xlink:href="group___fifty_one_degrees_array.html" target="_top" xlink:title="Macros used to quickly define array structures.">
<polygon fill="none" stroke="black" points="163.5,-537 118.5,-537 118.5,-518 163.5,-518 163.5,-537"/>
<text text-anchor="middle" x="141" y="-525" font-family="Helvetica,sans-Serif" font-size="10.00">Arrays</text>
</a>
</g>
</g>
<!-- Node0&#45;&gt;Node1 -->
<g id="edge1" class="edge"><title>Node0&#45;&gt;Node1</title>
<path fill="none" stroke="black" d="M66.4906,-527.5C83.744,-527.5 103.602,-527.5 118.325,-527.5"/>
<polygon fill="black" stroke="black" points="66.1537,-524 56.1537,-527.5 66.1536,-531 66.1537,-524"/>
</g>
<!-- Node6 -->
<g id="node17" class="node"><title>Node6</title>
<g id="a_node17"><a xlink:href="group___fifty_one_degrees_data.html" target="_top" xlink:title="Structure containing memory allocated to store a variable.">
<polygon fill="none" stroke="black" points="159.5,-500 122.5,-500 122.5,-481 159.5,-481 159.5,-500"/>
<text text-anchor="middle" x="141" y="-488" font-family="Helvetica,sans-Serif" font-size="10.00">Data</text>
</a>
</g>
</g>
<!-- Node0&#45;&gt;Node6 -->
<g id="edge6" class="edge"><title>Node0&#45;&gt;Node6</title>
<path fill="none" stroke="black" d="M65.7744,-515.242C84.8631,-508.879 107.299,-501.4 122.468,-496.344"/>
<polygon fill="black" stroke="black" points="64.5337,-511.966 56.1537,-518.449 66.7473,-518.607 64.5337,-511.966"/>
</g>
<!-- Node8 -->
<g id="node18" class="node"><title>Node8</title>
<g id="a_node18"><a xlink:href="group___fifty_one_degrees_date.html" target="_top" xlink:title="Represents a date in a data set.">
<polygon fill="none" stroke="black" points="159.5,-463 122.5,-463 122.5,-444 159.5,-444 159.5,-463"/>
<text text-anchor="middle" x="141" y="-451" font-family="Helvetica,sans-Serif" font-size="10.00">Date</text>
</a>
</g>
</g>
<!-- Node0&#45;&gt;Node8 -->
<g id="edge8" class="edge"><title>Node0&#45;&gt;Node8</title>
<path fill="none" stroke="black" d="M45.1104,-510.648C57.1591,-498.777 74.5068,-483.16 92,-472.5 101.49,-466.717 113.048,-462.078 122.445,-458.832"/>
<polygon fill="black" stroke="black" points="42.5591,-508.25 38.0096,-517.819 47.533,-513.176 42.5591,-508.25"/>
</g>
<!-- Node16 -->
<g id="node19" class="node"><title>Node16</title>
<g id="a_node19"><a xlink:href="group___fifty_one_degrees_memory.html" target="_top" xlink:title="Utility methods used to handle common memory operations such as allocating memory and freeing it,...">
<polygon fill="none" stroke="black" points="167,-426 115,-426 115,-407 167,-407 167,-426"/>
<text text-anchor="middle" x="141" y="-414" font-family="Helvetica,sans-Serif" font-size="10.00">Memory</text>
</a>
</g>
</g>
<!-- Node0&#45;&gt;Node16 -->
<g id="edge16" class="edge"><title>Node0&#45;&gt;Node16</title>
<path fill="none" stroke="black" d="M37.7393,-508.483C48.0565,-487.926 67.0202,-455.439 92,-435.5 98.5844,-430.244 106.805,-426.287 114.573,-423.382"/>
<polygon fill="black" stroke="black" points="34.4555,-507.234 33.2631,-517.762 40.7603,-510.276 34.4555,-507.234"/>
</g>
<!-- Node22 -->
<g id="node20" class="node"><title>Node22</title>
<g id="a_node20"><a xlink:href="group___fifty_one_degrees_resource.html" target="_top" xlink:title="Resources to be managed by a resource manager.">
<polygon fill="none" stroke="black" points="190,-389 92,-389 92,-370 190,-370 190,-389"/>
<text text-anchor="middle" x="141" y="-377" font-family="Helvetica,sans-Serif" font-size="10.00">Resource Manager</text>
</a>
</g>
</g>
<!-- Node0&#45;&gt;Node22 -->
<g id="edge22" class="edge"><title>Node0&#45;&gt;Node22</title>
<path fill="none" stroke="black" d="M33.6428,-508.243C41.2851,-480.422 59.0564,-428.988 92,-398.5 96.0783,-394.726 100.997,-391.665 106.109,-389.194"/>
<polygon fill="black" stroke="black" points="30.2428,-507.411 31.1231,-517.969 37.0191,-509.167 30.2428,-507.411"/>
</g>
<!-- Node21 -->
<g id="node21" class="node"><title>Node21</title>
<g id="a_node21"><a xlink:href="group___fifty_one_degrees_property.html" target="_top" xlink:title="Property in a data set relating to a single component.">
<polygon fill="none" stroke="black" points="167.5,-352 114.5,-352 114.5,-333 167.5,-333 167.5,-352"/>
<text text-anchor="middle" x="141" y="-340" font-family="Helvetica,sans-Serif" font-size="10.00">Property</text>
</a>
</g>
</g>
<!-- Node0&#45;&gt;Node21 -->
<g id="edge21" class="edge"><title>Node0&#45;&gt;Node21</title>
<path fill="none" stroke="black" d="M31.308,-507.687C36.303,-473.45 51.1685,-402.915 92,-361.5 98.0406,-355.373 106.301,-351.17 114.266,-348.308"/>
<polygon fill="black" stroke="black" points="27.8104,-507.439 29.9692,-517.812 34.75,-508.357 27.8104,-507.439"/>
</g>
<!-- Node2 -->
<g id="node22" class="node"><title>Node2</title>
<g id="a_node22"><a xlink:href="group___fifty_one_degrees_cache.html" target="_top" xlink:title="Fixed size, thread safe, loading, tree based cache.">
<polygon fill="none" stroke="black" points="163,-315 119,-315 119,-296 163,-296 163,-315"/>
<text text-anchor="middle" x="141" y="-303" font-family="Helvetica,sans-Serif" font-size="10.00">Cache</text>
</a>
</g>
</g>
<!-- Node0&#45;&gt;Node2 -->
<g id="edge2" class="edge"><title>Node0&#45;&gt;Node2</title>
<path fill="none" stroke="black" d="M29.6878,-507.522C32.1153,-467.613 43.0399,-377.329 92,-324.5 99.0668,-316.875 109.585,-312.259 118.975,-309.49"/>
<polygon fill="black" stroke="black" points="26.1888,-507.419 29.1963,-517.578 33.1804,-507.761 26.1888,-507.419"/>
</g>
<!-- Node5 -->
<g id="node23" class="node"><title>Node5</title>
<g id="a_node23"><a xlink:href="group___fifty_one_degrees_config.html" target="_top" xlink:title="Configuration for building data sets.">
<polygon fill="none" stroke="black" points="163,-278 119,-278 119,-259 163,-259 163,-278"/>
<text text-anchor="middle" x="141" y="-266" font-family="Helvetica,sans-Serif" font-size="10.00">Config</text>
</a>
</g>
</g>
<!-- Node0&#45;&gt;Node5 -->
<g id="edge5" class="edge"><title>Node0&#45;&gt;Node5</title>
<path fill="none" stroke="black" d="M28.5205,-507.693C28.5097,-462.789 34.6921,-352.146 92,-287.5 98.8966,-279.72 109.399,-275.09 118.823,-272.352"/>
<polygon fill="black" stroke="black" points="25.0224,-507.891 28.6344,-517.851 32.0219,-507.812 25.0224,-507.891"/>
</g>
<!-- Node9 -->
<g id="node24" class="node"><title>Node9</title>
<g id="a_node24"><a xlink:href="group___fifty_one_degrees_evidence.html" target="_top" xlink:title="Contains key value pairs as evidence to be processed.">
<polygon fill="none" stroke="black" points="169,-241 113,-241 113,-222 169,-222 169,-241"/>
<text text-anchor="middle" x="141" y="-229" font-family="Helvetica,sans-Serif" font-size="10.00">Evidence</text>
</a>
</g>
</g>
<!-- Node0&#45;&gt;Node9 -->
<g id="edge9" class="edge"><title>Node0&#45;&gt;Node9</title>
<path fill="none" stroke="black" d="M31.1037,-507.716C37.4874,-451.071 58.2891,-289.819 92,-250.5 97.4252,-244.172 105.243,-239.935 113,-237.103"/>
<polygon fill="black" stroke="black" points="27.6024,-507.537 29.9901,-517.859 34.5606,-508.301 27.6024,-507.537"/>
</g>
<!-- Node7 -->
<g id="node25" class="node"><title>Node7</title>
<g id="a_node25"><a xlink:href="group___fifty_one_degrees_data_set.html" target="_top" xlink:title="A data file initialised in a structure.">
<polygon fill="none" stroke="black" points="168.5,-204 113.5,-204 113.5,-185 168.5,-185 168.5,-204"/>
<text text-anchor="middle" x="141" y="-192" font-family="Helvetica,sans-Serif" font-size="10.00">Data Set</text>
</a>
</g>
</g>
<!-- Node0&#45;&gt;Node7 -->
<g id="edge7" class="edge"><title>Node0&#45;&gt;Node7</title>
<path fill="none" stroke="black" d="M30.5375,-507.559C35.6704,-445.765 54.0751,-258.898 92,-213.5 97.4586,-206.966 105.476,-202.665 113.401,-199.839"/>
<polygon fill="black" stroke="black" points="27.0207,-507.629 29.7087,-517.877 33.9982,-508.19 27.0207,-507.629"/>
</g>
<!-- Node12 -->
<g id="node26" class="node"><title>Node12</title>
<g id="a_node26"><a xlink:href="group___fifty_one_degrees_file.html" target="_top" xlink:title="File handle pool and simple file operations e.g.">
<polygon fill="none" stroke="black" points="157,-167 125,-167 125,-148 157,-148 157,-167"/>
<text text-anchor="middle" x="141" y="-155" font-family="Helvetica,sans-Serif" font-size="10.00">File</text>
</a>
</g>
</g>
<!-- Node0&#45;&gt;Node12 -->
<g id="edge12" class="edge"><title>Node0&#45;&gt;Node12</title>
<path fill="none" stroke="black" d="M30.0824,-507.418C34.0514,-440.743 49.8376,-228.031 92,-176.5 100.059,-166.65 113.946,-161.882 124.716,-159.588"/>
<polygon fill="black" stroke="black" points="26.5665,-507.599 29.4921,-517.782 33.5552,-507.997 26.5665,-507.599"/>
</g>
<!-- Node25 -->
<g id="node27" class="node"><title>Node25</title>
<g id="a_node27"><a xlink:href="group___fifty_one_degrees_string.html" target="_top" xlink:title="String structures containing the string and length.">
<polygon fill="none" stroke="black" points="162,-130 120,-130 120,-111 162,-111 162,-130"/>
<text text-anchor="middle" x="141" y="-118" font-family="Helvetica,sans-Serif" font-size="10.00">String</text>
</a>
</g>
</g>
<!-- Node0&#45;&gt;Node25 -->
<g id="edge25" class="edge"><title>Node0&#45;&gt;Node25</title>
<path fill="none" stroke="black" d="M29.6939,-507.636C32.5451,-436.74 45.505,-197.3 92,-139.5 98.8534,-130.98 110.076,-126.266 119.947,-123.665"/>
<polygon fill="black" stroke="black" points="26.1881,-507.724 29.3076,-517.849 33.1831,-507.989 26.1881,-507.724"/>
</g>
<!-- Node19 -->
<g id="node28" class="node"><title>Node19</title>
<g id="a_node28"><a xlink:href="group___fifty_one_degrees_profile.html" target="_top" xlink:title="Profile containing a unique set of values for the properties of a single component.">
<polygon fill="none" stroke="black" points="163,-93 119,-93 119,-74 163,-74 163,-93"/>
<text text-anchor="middle" x="141" y="-81" font-family="Helvetica,sans-Serif" font-size="10.00">Profile</text>
</a>
</g>
</g>
<!-- Node0&#45;&gt;Node19 -->
<g id="edge19" class="edge"><title>Node0&#45;&gt;Node19</title>
<path fill="none" stroke="black" d="M29.3809,-507.695C31.2015,-432.619 41.1892,-166.565 92,-102.5 98.5717,-94.214 109.283,-89.5299 118.922,-86.8876"/>
<polygon fill="black" stroke="black" points="25.8818,-507.62 29.1607,-517.694 32.8801,-507.774 25.8818,-507.62"/>
</g>
<!-- Node28 -->
<g id="node29" class="node"><title>Node28</title>
<g id="a_node29"><a xlink:href="group___fifty_one_degrees_tree.html" target="_top" xlink:title="Implementation of the classic red black binary tree.">
<polygon fill="none" stroke="black" points="158.5,-56 123.5,-56 123.5,-37 158.5,-37 158.5,-56"/>
<text text-anchor="middle" x="141" y="-44" font-family="Helvetica,sans-Serif" font-size="10.00">Tree</text>
</a>
</g>
</g>
<!-- Node0&#45;&gt;Node28 -->
<g id="edge28" class="edge"><title>Node0&#45;&gt;Node28</title>
<path fill="none" stroke="black" d="M29.1208,-507.524C29.9838,-428.127 36.9122,-135.794 92,-65.5 99.5185,-55.9061 112.595,-51.1434 123.203,-48.7865"/>
<polygon fill="black" stroke="black" points="25.62,-507.612 29.0325,-517.642 32.6198,-507.673 25.62,-507.612"/>
</g>
<!-- Node13 -->
<g id="node30" class="node"><title>Node13</title>
<g id="a_node30"><a xlink:href="group___fifty_one_degrees_headers.html" target="_top" xlink:title="Common form of evidence in 51Degrees engines.">
<polygon fill="none" stroke="black" points="167.5,-19 114.5,-19 114.5,-0 167.5,-0 167.5,-19"/>
<text text-anchor="middle" x="141" y="-7" font-family="Helvetica,sans-Serif" font-size="10.00">Headers</text>
</a>
</g>
</g>
<!-- Node0&#45;&gt;Node13 -->
<g id="edge13" class="edge"><title>Node0&#45;&gt;Node13</title>
<path fill="none" stroke="black" d="M28.895,-507.548C28.8415,-424.258 32.579,-105.105 92,-28.5 97.4932,-21.4183 106.019,-16.97 114.37,-14.1784"/>
<polygon fill="black" stroke="black" points="25.3953,-507.694 28.9224,-517.685 32.3953,-507.675 25.3953,-507.694"/>
</g>
</g>
</svg>
