<?xml version="1.0" encoding="UTF-8" standalone="no"?>
<!DOCTYPE svg PUBLIC "-//W3C//DTD SVG 1.1//EN"
 "http://www.w3.org/Graphics/SVG/1.1/DTD/svg11.dtd">
<!-- Generated by graphviz version 2.38.0 (20140413.2041)
 -->
<!-- Title: Pattern API Pages: 1 -->
<svg width="299pt" height="138pt"
 viewBox="0.00 0.00 299.00 138.00" xmlns="http://www.w3.org/2000/svg" xmlns:xlink="http://www.w3.org/1999/xlink">
<g id="graph0" class="graph" transform="scale(1 1) rotate(0) translate(4 134)">
<title>Pattern API</title>
<!-- Node2 -->
<g id="node1" class="node"><title>Node2</title>
<g id="a_node1"><a xlink:href="group___fifty_one_degrees_pattern_synonyms.html" target="_top" xlink:title="Quick shortenings of Pattern specific methods and types.">
<polygon fill="none" stroke="black" points="291,-130 228,-130 228,-111 291,-111 291,-130"/>
<text text-anchor="middle" x="259.5" y="-118" font-family="Helvetica,sans-Serif" font-size="10.00">Synonyms</text>
</a>
</g>
</g>
<!-- Node1 -->
<g id="node2" class="node"><title>Node1</title>
<g id="a_node2"><a xlink:href="group___fifty_one_degrees_device_detection.html" target="_top" xlink:title="Device detection specific methods, types and macros.">
<polygon fill="none" stroke="black" points="89,-74 0,-74 0,-55 89,-55 89,-74"/>
<text text-anchor="middle" x="44.5" y="-62" font-family="Helvetica,sans-Serif" font-size="10.00">Device Detection</text>
</a>
</g>
</g>
<!-- Node0 -->
<g id="node3" class="node"><title>Node0</title>
<g id="a_node3"><a xlink:title="Pattern specific methods, types and macros.">
<polygon fill="#bfbfbf" stroke="black" points="192,-74 125,-74 125,-55 192,-55 192,-74"/>
<text text-anchor="middle" x="158.5" y="-62" font-family="Helvetica,sans-Serif" font-size="10.00">Pattern API</text>
</a>
</g>
</g>
<!-- Node1&#45;&gt;Node0 -->
<g id="edge1" class="edge"><title>Node1&#45;&gt;Node0</title>
<path fill="none" stroke="black" d="M99.3122,-64.5C108.064,-64.5 116.886,-64.5 124.924,-64.5"/>
<polygon fill="black" stroke="black" points="99.1229,-61.0001 89.1228,-64.5 99.1228,-68.0001 99.1229,-61.0001"/>
</g>
<!-- Node0&#45;&gt;Node2 -->
<g id="edge2" class="edge"><title>Node0&#45;&gt;Node2</title>
<path fill="none" stroke="black" d="M185.936,-79.4535C203.551,-89.4176 226.185,-102.221 241.453,-110.857"/>
<polygon fill="black" stroke="black" points="187.172,-76.1316 176.744,-74.2545 183.725,-82.2244 187.172,-76.1316"/>
</g>
<!-- Node4 -->
<g id="node4" class="node"><title>Node4</title>
<g id="a_node4"><a xlink:href="group___fifty_one_degrees_pattern_api.html" target="_top" xlink:title="All the functions specific to the Pattern device detection API.">
<polygon fill="none" stroke="black" points="283.5,-93 235.5,-93 235.5,-74 283.5,-74 283.5,-93"/>
<text text-anchor="middle" x="259.5" y="-81" font-family="Helvetica,sans-Serif" font-size="10.00">Pattern</text>
</a>
</g>
</g>
<!-- Node0&#45;&gt;Node4 -->
<g id="edge4" class="edge"><title>Node0&#45;&gt;Node4</title>
<path fill="none" stroke="black" d="M202.016,-72.6595C213.414,-74.8472 225.317,-77.1316 235.241,-79.0362"/>
<polygon fill="black" stroke="black" points="202.671,-69.2216 192.191,-70.774 201.352,-76.0961 202.671,-69.2216"/>
</g>
<!-- Node5 -->
<g id="node5" class="node"><title>Node5</title>
<g id="a_node5"><a xlink:href="group___fifty_one_degrees_pattern_signature.html" target="_top" xlink:title="Signature used to define a device within the Pattern algorithm&#39;s data structures.">
<polygon fill="none" stroke="black" points="288.5,-56 230.5,-56 230.5,-37 288.5,-37 288.5,-56"/>
<text text-anchor="middle" x="259.5" y="-44" font-family="Helvetica,sans-Serif" font-size="10.00">Signature</text>
</a>
</g>
</g>
<!-- Node0&#45;&gt;Node5 -->
<g id="edge5" class="edge"><title>Node0&#45;&gt;Node5</title>
<path fill="none" stroke="black" d="M202.333,-56.7121C211.865,-54.979 221.733,-53.1849 230.488,-51.593"/>
<polygon fill="black" stroke="black" points="201.403,-53.3238 192.191,-58.5562 202.656,-60.2109 201.403,-53.3238"/>
</g>
<!-- Node3 -->
<g id="node6" class="node"><title>Node3</title>
<g id="a_node6"><a xlink:href="group___fifty_one_degrees_pattern_node.html" target="_top" xlink:title="Node used in the trees within the Pattern algorithm&#39;s data structures.">
<polygon fill="none" stroke="black" points="279,-19 240,-19 240,-0 279,-0 279,-19"/>
<text text-anchor="middle" x="259.5" y="-7" font-family="Helvetica,sans-Serif" font-size="10.00">Node</text>
</a>
</g>
</g>
<!-- Node0&#45;&gt;Node3 -->
<g id="edge3" class="edge"><title>Node0&#45;&gt;Node3</title>
<path fill="none" stroke="black" d="M185.876,-49.8467C203.372,-40.1264 225.84,-27.6442 241.121,-19.155"/>
<polygon fill="black" stroke="black" points="183.786,-47.0037 176.744,-54.9197 187.186,-53.1228 183.786,-47.0037"/>
</g>
</g>
</svg>
