<?xml version="1.0" encoding="UTF-8" standalone="no"?>
<!DOCTYPE svg PUBLIC "-//W3C//DTD SVG 1.1//EN"
 "http://www.w3.org/Graphics/SVG/1.1/DTD/svg11.dtd">
<!-- Generated by graphviz version 2.38.0 (20140413.2041)
 -->
<!-- Title: Hash API Pages: 1 -->
<svg width="290pt" height="64pt"
 viewBox="0.00 0.00 290.00 64.00" xmlns="http://www.w3.org/2000/svg" xmlns:xlink="http://www.w3.org/1999/xlink">
<g id="graph0" class="graph" transform="scale(1 1) rotate(0) translate(4 60)">
<title>Hash API</title>
<!-- Node3 -->
<g id="node1" class="node"><title>Node3</title>
<g id="a_node1"><a xlink:href="group___fifty_one_degrees_hash_api.html" target="_top" xlink:title="All the functions specific to the Hash device detection API.">
<polygon fill="none" stroke="black" points="270,-56 231,-56 231,-37 270,-37 270,-56"/>
<text text-anchor="middle" x="250.5" y="-44" font-family="Helvetica,sans-Serif" font-size="10.00">Hash</text>
</a>
</g>
</g>
<!-- Node1 -->
<g id="node2" class="node"><title>Node1</title>
<g id="a_node2"><a xlink:href="group___fifty_one_degrees_device_detection.html" target="_top" xlink:title="Device detection specific methods, types and macros.">
<polygon fill="none" stroke="black" points="89,-37 0,-37 0,-18 89,-18 89,-37"/>
<text text-anchor="middle" x="44.5" y="-25" font-family="Helvetica,sans-Serif" font-size="10.00">Device Detection</text>
</a>
</g>
</g>
<!-- Node0 -->
<g id="node4" class="node"><title>Node0</title>
<g id="a_node4"><a xlink:title="To ensure compatibility with larger projects where naming conflicts could occur this aliases file ena...">
<polygon fill="#bfbfbf" stroke="black" points="183,-37 125,-37 125,-18 183,-18 183,-37"/>
<text text-anchor="middle" x="154" y="-25" font-family="Helvetica,sans-Serif" font-size="10.00">Hash API</text>
</a>
</g>
</g>
<!-- Node1&#45;&gt;Node0 -->
<g id="edge1" class="edge"><title>Node1&#45;&gt;Node0</title>
<path fill="none" stroke="black" d="M99.4358,-27.5C108.179,-27.5 116.916,-27.5 124.721,-27.5"/>
<polygon fill="black" stroke="black" points="99.2244,-24.0001 89.2244,-27.5 99.2243,-31.0001 99.2244,-24.0001"/>
</g>
<!-- Node2 -->
<g id="node3" class="node"><title>Node2</title>
<g id="a_node3"><a xlink:href="group___fifty_one_degrees_hash_synonyms.html" target="_top" xlink:title="Quick shortenings of Hash specific methods and types.">
<polygon fill="none" stroke="black" points="282,-19 219,-19 219,-0 282,-0 282,-19"/>
<text text-anchor="middle" x="250.5" y="-7" font-family="Helvetica,sans-Serif" font-size="10.00">Synonyms</text>
</a>
</g>
</g>
<!-- Node0&#45;&gt;Node3 -->
<g id="edge3" class="edge"><title>Node0&#45;&gt;Node3</title>
<path fill="none" stroke="black" d="M193.235,-35.1875C206.227,-37.7997 220.164,-40.6017 230.916,-42.7636"/>
<polygon fill="black" stroke="black" points="193.591,-31.6891 183.097,-33.1492 192.211,-38.5517 193.591,-31.6891"/>
</g>
<!-- Node0&#45;&gt;Node2 -->
<g id="edge2" class="edge"><title>Node0&#45;&gt;Node2</title>
<path fill="none" stroke="black" d="M193.173,-20.229C201.662,-18.6121 210.557,-16.9178 218.705,-15.3657"/>
<polygon fill="black" stroke="black" points="192.266,-16.8388 183.097,-22.1481 193.576,-23.7151 192.266,-16.8388"/>
</g>
</g>
</svg>
