<?xml version="1.0" encoding="UTF-8" standalone="no"?>
<!DOCTYPE svg PUBLIC "-//W3C//DTD SVG 1.1//EN"
 "http://www.w3.org/Graphics/SVG/1.1/DTD/svg11.dtd">
<!-- Generated by graphviz version 2.38.0 (20140413.2041)
 -->
<!-- Title: Device Detection Pages: 1 -->
<svg width="200pt" height="212pt"
 viewBox="0.00 0.00 200.00 212.00" xmlns="http://www.w3.org/2000/svg" xmlns:xlink="http://www.w3.org/1999/xlink">
<g id="graph0" class="graph" transform="scale(1 1) rotate(0) translate(4 208)">
<title>Device Detection</title>
<!-- Node6 -->
<g id="node1" class="node"><title>Node6</title>
<g id="a_node1"><a xlink:href="group___fifty_one_degrees_device_detection_results.html" target="_top" xlink:title="Structure returned by a device detection engine&#39;s process method(s), containing values.">
<polygon fill="none" stroke="black" points="183.5,-204 133.5,-204 133.5,-185 183.5,-185 183.5,-204"/>
<text text-anchor="middle" x="158.5" y="-192" font-family="Helvetica,sans-Serif" font-size="10.00">Results</text>
</a>
</g>
</g>
<!-- Node0 -->
<g id="node2" class="node"><title>Node0</title>
<g id="a_node2"><a xlink:title="Device detection specific methods, types and macros.">
<polygon fill="#bfbfbf" stroke="black" points="89,-111 0,-111 0,-92 89,-92 89,-111"/>
<text text-anchor="middle" x="44.5" y="-99" font-family="Helvetica,sans-Serif" font-size="10.00">Device Detection</text>
</a>
</g>
</g>
<!-- Node0&#45;&gt;Node6 -->
<g id="edge6" class="edge"><title>Node0&#45;&gt;Node6</title>
<path fill="none" stroke="black" d="M61.2723,-118.685C76.5926,-134.794 100.995,-158.959 125,-176.5 129.166,-179.544 133.902,-182.444 138.445,-184.991"/>
<polygon fill="black" stroke="black" points="63.5307,-115.976 54.1388,-111.073 58.423,-120.763 63.5307,-115.976"/>
</g>
<!-- Node1 -->
<g id="node3" class="node"><title>Node1</title>
<g id="a_node3"><a xlink:href="group___fifty_one_degrees_pattern.html" target="_top" xlink:title="Pattern specific methods, types and macros.">
<polygon fill="none" stroke="black" points="192,-167 125,-167 125,-148 192,-148 192,-167"/>
<text text-anchor="middle" x="158.5" y="-155" font-family="Helvetica,sans-Serif" font-size="10.00">Pattern API</text>
</a>
</g>
</g>
<!-- Node0&#45;&gt;Node1 -->
<g id="edge1" class="edge"><title>Node0&#45;&gt;Node1</title>
<path fill="none" stroke="black" d="M73.8263,-115.663C94.0721,-125.786 120.764,-139.132 138.498,-147.999"/>
<polygon fill="black" stroke="black" points="75.263,-112.468 64.7535,-111.127 72.1325,-118.729 75.263,-112.468"/>
</g>
<!-- Node5 -->
<g id="node4" class="node"><title>Node5</title>
<g id="a_node4"><a xlink:href="group___fifty_one_degrees_device_detection_synonyms.html" target="_top" xlink:title="Quick shortenings of device detection specific methods and types.">
<polygon fill="none" stroke="black" points="190,-130 127,-130 127,-111 190,-111 190,-130"/>
<text text-anchor="middle" x="158.5" y="-118" font-family="Helvetica,sans-Serif" font-size="10.00">Synonyms</text>
</a>
</g>
</g>
<!-- Node0&#45;&gt;Node5 -->
<g id="edge5" class="edge"><title>Node0&#45;&gt;Node5</title>
<path fill="none" stroke="black" d="M99.0386,-110.582C108.633,-112.21 118.323,-113.854 126.981,-115.323"/>
<polygon fill="black" stroke="black" points="99.5674,-107.122 89.1228,-108.9 98.3966,-114.024 99.5674,-107.122"/>
</g>
<!-- Node4 -->
<g id="node5" class="node"><title>Node4</title>
<g id="a_node5"><a xlink:href="group___fifty_one_degrees_data_set_device_detection.html" target="_top" xlink:title="A device detection specific data file initialised in a structure.">
<polygon fill="none" stroke="black" points="186,-93 131,-93 131,-74 186,-74 186,-93"/>
<text text-anchor="middle" x="158.5" y="-81" font-family="Helvetica,sans-Serif" font-size="10.00">Data Set</text>
</a>
</g>
</g>
<!-- Node0&#45;&gt;Node4 -->
<g id="edge4" class="edge"><title>Node0&#45;&gt;Node4</title>
<path fill="none" stroke="black" d="M99.1886,-92.8715C110.24,-91.0954 121.411,-89.3 130.978,-87.7625"/>
<polygon fill="black" stroke="black" points="98.4407,-89.4467 89.1228,-94.4892 99.5515,-96.358 98.4407,-89.4467"/>
</g>
<!-- Node3 -->
<g id="node6" class="node"><title>Node3</title>
<g id="a_node6"><a xlink:href="group___fifty_one_degrees_config_device_detection.html" target="_top" xlink:title="Configuration for building device detection data sets.">
<polygon fill="none" stroke="black" points="180.5,-56 136.5,-56 136.5,-37 180.5,-37 180.5,-56"/>
<text text-anchor="middle" x="158.5" y="-44" font-family="Helvetica,sans-Serif" font-size="10.00">Config</text>
</a>
</g>
</g>
<!-- Node0&#45;&gt;Node3 -->
<g id="edge3" class="edge"><title>Node0&#45;&gt;Node3</title>
<path fill="none" stroke="black" d="M74.2458,-87.3838C94.1893,-77.5901 120.232,-64.8014 137.839,-56.155"/>
<polygon fill="black" stroke="black" points="72.4422,-84.3701 65.0089,-91.9197 75.5278,-90.6534 72.4422,-84.3701"/>
</g>
<!-- Node2 -->
<g id="node7" class="node"><title>Node2</title>
<g id="a_node7"><a xlink:href="group___fifty_one_degrees_hash.html" target="_top" xlink:title="To ensure compatibility with larger projects where naming conflicts could occur this aliases file ena...">
<polygon fill="none" stroke="black" points="187.5,-19 129.5,-19 129.5,-0 187.5,-0 187.5,-19"/>
<text text-anchor="middle" x="158.5" y="-7" font-family="Helvetica,sans-Serif" font-size="10.00">Hash API</text>
</a>
</g>
</g>
<!-- Node0&#45;&gt;Node2 -->
<g id="edge2" class="edge"><title>Node0&#45;&gt;Node2</title>
<path fill="none" stroke="black" d="M61.9526,-84.4278C77.4229,-68.8677 101.636,-45.748 125,-28.5 129.522,-25.1617 134.674,-21.9221 139.521,-19.0916"/>
<polygon fill="black" stroke="black" points="59.2185,-82.2167 54.7103,-91.8046 64.2136,-87.1208 59.2185,-82.2167"/>
</g>
</g>
</svg>
