<?xml version="1.0" encoding="UTF-8" standalone="no"?>
<!DOCTYPE svg PUBLIC "-//W3C//DTD SVG 1.1//EN"
 "http://www.w3.org/Graphics/SVG/1.1/DTD/svg11.dtd">
<!-- Generated by graphviz version 2.38.0 (20140413.2041)
 -->
<!-- Title: fiftyoneDegreesPropertyAvailable Pages: 1 -->
<svg width="387pt" height="175pt"
 viewBox="0.00 0.00 387.00 175.00" xmlns="http://www.w3.org/2000/svg" xmlns:xlink="http://www.w3.org/1999/xlink">
<g id="graph0" class="graph" transform="scale(1 1) rotate(0) translate(4 171)">
<title>fiftyoneDegreesPropertyAvailable</title>
<!-- Node1 -->
<g id="node1" class="node"><title>Node1</title>
<g id="a_node1"><a xlink:title="Used to access the property item quickly without the need to search.">
<polygon fill="#bfbfbf" stroke="black" points="0,-7 0,-26 158,-26 158,-7 0,-7"/>
<text text-anchor="middle" x="79" y="-14" font-family="Helvetica,sans-Serif" font-size="10.00">fiftyoneDegreesPropertyAvailable</text>
</a>
</g>
</g>
<!-- Node2 -->
<g id="node2" class="node"><title>Node2</title>
<g id="a_node2"><a xlink:href="structfiftyone_degrees_collection_item.html" target="_top" xlink:title="Used to store a handle to the underlying item that could be used to release the item when it&#39;s finish...">
<polygon fill="none" stroke="black" points="108.5,-80.5 108.5,-99.5 253.5,-99.5 253.5,-80.5 108.5,-80.5"/>
<text text-anchor="middle" x="181" y="-87.5" font-family="Helvetica,sans-Serif" font-size="10.00">fiftyoneDegreesCollectionItem</text>
</a>
</g>
</g>
<!-- Node2&#45;&gt;Node1 -->
<g id="edge1" class="edge"><title>Node2&#45;&gt;Node1</title>
<path fill="none" stroke="#9a32cd" stroke-dasharray="5,2" d="M160.048,-74.3131C139.327,-59.7878 108.319,-38.0521 91.2909,-26.1157"/>
<polygon fill="#9a32cd" stroke="#9a32cd" points="158.295,-77.3586 168.493,-80.2327 162.313,-71.6266 158.295,-77.3586"/>
<text text-anchor="middle" x="157" y="-54" font-family="Helvetica,sans-Serif" font-size="10.00"> name</text>
</g>
<!-- Node3 -->
<g id="node3" class="node"><title>Node3</title>
<g id="a_node3"><a xlink:href="structfiftyone_degrees_collection.html" target="_top" xlink:title="All the shared methods and fields required by file, memory and cached collections.">
<polygon fill="none" stroke="black" points="176,-7 176,-26 302,-26 302,-7 176,-7"/>
<text text-anchor="middle" x="239" y="-14" font-family="Helvetica,sans-Serif" font-size="10.00">fiftyoneDegreesCollection</text>
</a>
</g>
</g>
<!-- Node2&#45;&gt;Node3 -->
<g id="edge3" class="edge"><title>Node2&#45;&gt;Node3</title>
<path fill="none" stroke="#9a32cd" stroke-dasharray="5,2" d="M175.26,-70.1977C174.351,-63.7308 174.632,-56.6919 178,-51 185.014,-39.1459 197.878,-31.2062 209.99,-26.0454"/>
<polygon fill="#9a32cd" stroke="#9a32cd" points="171.911,-71.2502 177.578,-80.2021 178.73,-69.6701 171.911,-71.2502"/>
<text text-anchor="middle" x="195.5" y="-54" font-family="Helvetica,sans-Serif" font-size="10.00"> release</text>
</g>
<!-- Node3&#45;&gt;Node2 -->
<g id="edge2" class="edge"><title>Node3&#45;&gt;Node2</title>
<path fill="none" stroke="#9a32cd" stroke-dasharray="5,2" d="M232.38,-35.5295C228.682,-44.1092 223.499,-54.1766 217,-62 211.009,-69.2112 202.725,-75.5945 195.613,-80.3416"/>
<polygon fill="#9a32cd" stroke="#9a32cd" points="235.706,-36.6384 236.144,-26.0526 229.2,-34.0544 235.706,-36.6384"/>
<text text-anchor="middle" x="246.5" y="-54" font-family="Helvetica,sans-Serif" font-size="10.00"> collection</text>
</g>
<!-- Node3&#45;&gt;Node3 -->
<g id="edge4" class="edge"><title>Node3&#45;&gt;Node3</title>
<path fill="none" stroke="#9a32cd" stroke-dasharray="5,2" d="M312.09,-21.8969C317.012,-20.6513 320,-18.8523 320,-16.5 320,-12.8281 312.719,-10.5045 302.168,-9.52917"/>
<polygon fill="#9a32cd" stroke="#9a32cd" points="311.496,-18.4473 302.168,-23.4708 312.593,-25.3608 311.496,-18.4473"/>
<text text-anchor="middle" x="349.5" y="-25" font-family="Helvetica,sans-Serif" font-size="10.00"> next</text>
<text text-anchor="middle" x="349.5" y="-14" font-family="Helvetica,sans-Serif" font-size="10.00">freeCollection</text>
<text text-anchor="middle" x="349.5" y="-3" font-family="Helvetica,sans-Serif" font-size="10.00">get</text>
</g>
<!-- Node4 -->
<g id="node4" class="node"><title>Node4</title>
<g id="a_node4"><a xlink:href="structfiftyone_degrees_data.html" target="_top" xlink:title="Data structure used for reusing memory which may have been allocated in a previous operation.">
<polygon fill="none" stroke="black" points="129,-147.5 129,-166.5 233,-166.5 233,-147.5 129,-147.5"/>
<text text-anchor="middle" x="181" y="-154.5" font-family="Helvetica,sans-Serif" font-size="10.00">fiftyoneDegreesData</text>
</a>
</g>
</g>
<!-- Node4&#45;&gt;Node2 -->
<g id="edge5" class="edge"><title>Node4&#45;&gt;Node2</title>
<path fill="none" stroke="#9a32cd" stroke-dasharray="5,2" d="M181,-137.037C181,-124.67 181,-109.12 181,-99.6273"/>
<polygon fill="#9a32cd" stroke="#9a32cd" points="177.5,-137.234 181,-147.234 184.5,-137.234 177.5,-137.234"/>
<text text-anchor="middle" x="192" y="-121" font-family="Helvetica,sans-Serif" font-size="10.00"> data</text>
</g>
</g>
</svg>
