<?xml version="1.0" encoding="UTF-8" standalone="no"?>
<!DOCTYPE svg PUBLIC "-//W3C//DTD SVG 1.1//EN"
 "http://www.w3.org/Graphics/SVG/1.1/DTD/svg11.dtd">
<!-- Generated by graphviz version 2.38.0 (20140413.2041)
 -->
<!-- Title: fiftyoneDegreesOverridePropertyArray Pages: 1 -->
<svg width="387pt" height="320pt"
 viewBox="0.00 0.00 387.00 320.00" xmlns="http://www.w3.org/2000/svg" xmlns:xlink="http://www.w3.org/1999/xlink">
<g id="graph0" class="graph" transform="scale(1 1) rotate(0) translate(4 316)">
<title>fiftyoneDegreesOverridePropertyArray</title>
<!-- Node1 -->
<g id="node1" class="node"><title>Node1</title>
<g id="a_node1"><a xlink:title="Array of items of type fiftyoneDegreesOverrideProperty used to easily access and track the size of th...">
<polygon fill="#bfbfbf" stroke="black" points="1.5,-0.5 1.5,-30.5 156.5,-30.5 156.5,-0.5 1.5,-0.5"/>
<text text-anchor="start" x="9.5" y="-18.5" font-family="Helvetica,sans-Serif" font-size="10.00">fiftyoneDegreesOverrideProperty</text>
<text text-anchor="middle" x="79" y="-7.5" font-family="Helvetica,sans-Serif" font-size="10.00">Array</text>
</a>
</g>
</g>
<!-- Node2 -->
<g id="node2" class="node"><title>Node2</title>
<g id="a_node2"><a xlink:href="structfiftyone_degrees_override_property.html" target="_top" xlink:title="Index and pointer to a property which can be overridden.">
<polygon fill="none" stroke="black" points="1.5,-78.5 1.5,-97.5 156.5,-97.5 156.5,-78.5 1.5,-78.5"/>
<text text-anchor="middle" x="79" y="-85.5" font-family="Helvetica,sans-Serif" font-size="10.00">fiftyoneDegreesOverrideProperty</text>
</a>
</g>
</g>
<!-- Node2&#45;&gt;Node1 -->
<g id="edge1" class="edge"><title>Node2&#45;&gt;Node1</title>
<path fill="none" stroke="#9a32cd" stroke-dasharray="5,2" d="M79,-68.2362C79,-56.4079 79,-41.3829 79,-30.5762"/>
<polygon fill="#9a32cd" stroke="#9a32cd" points="75.5001,-68.3553 79,-78.3553 82.5001,-68.3554 75.5001,-68.3553"/>
<text text-anchor="middle" x="93" y="-52" font-family="Helvetica,sans-Serif" font-size="10.00"> items</text>
</g>
<!-- Node3 -->
<g id="node3" class="node"><title>Node3</title>
<g id="a_node3"><a xlink:href="structfiftyone_degrees_property_available.html" target="_top" xlink:title="Used to access the property item quickly without the need to search.">
<polygon fill="none" stroke="black" points="0,-152 0,-171 158,-171 158,-152 0,-152"/>
<text text-anchor="middle" x="79" y="-159" font-family="Helvetica,sans-Serif" font-size="10.00">fiftyoneDegreesPropertyAvailable</text>
</a>
</g>
</g>
<!-- Node3&#45;&gt;Node2 -->
<g id="edge2" class="edge"><title>Node3&#45;&gt;Node2</title>
<path fill="none" stroke="#9a32cd" stroke-dasharray="5,2" d="M79,-141.594C79,-127.433 79,-108.702 79,-97.839"/>
<polygon fill="#9a32cd" stroke="#9a32cd" points="75.5001,-141.733 79,-151.733 82.5001,-141.733 75.5001,-141.733"/>
<text text-anchor="middle" x="99" y="-119" font-family="Helvetica,sans-Serif" font-size="10.00"> available</text>
</g>
<!-- Node4 -->
<g id="node4" class="node"><title>Node4</title>
<g id="a_node4"><a xlink:href="structfiftyone_degrees_collection_item.html" target="_top" xlink:title="Used to store a handle to the underlying item that could be used to release the item when it&#39;s finish...">
<polygon fill="none" stroke="black" points="108.5,-225.5 108.5,-244.5 253.5,-244.5 253.5,-225.5 108.5,-225.5"/>
<text text-anchor="middle" x="181" y="-232.5" font-family="Helvetica,sans-Serif" font-size="10.00">fiftyoneDegreesCollectionItem</text>
</a>
</g>
</g>
<!-- Node4&#45;&gt;Node3 -->
<g id="edge3" class="edge"><title>Node4&#45;&gt;Node3</title>
<path fill="none" stroke="#9a32cd" stroke-dasharray="5,2" d="M160.048,-219.313C139.327,-204.788 108.319,-183.052 91.2909,-171.116"/>
<polygon fill="#9a32cd" stroke="#9a32cd" points="158.295,-222.359 168.493,-225.233 162.313,-216.627 158.295,-222.359"/>
<text text-anchor="middle" x="157" y="-199" font-family="Helvetica,sans-Serif" font-size="10.00"> name</text>
</g>
<!-- Node5 -->
<g id="node5" class="node"><title>Node5</title>
<g id="a_node5"><a xlink:href="structfiftyone_degrees_collection.html" target="_top" xlink:title="All the shared methods and fields required by file, memory and cached collections.">
<polygon fill="none" stroke="black" points="176,-152 176,-171 302,-171 302,-152 176,-152"/>
<text text-anchor="middle" x="239" y="-159" font-family="Helvetica,sans-Serif" font-size="10.00">fiftyoneDegreesCollection</text>
</a>
</g>
</g>
<!-- Node4&#45;&gt;Node5 -->
<g id="edge5" class="edge"><title>Node4&#45;&gt;Node5</title>
<path fill="none" stroke="#9a32cd" stroke-dasharray="5,2" d="M175.26,-215.198C174.351,-208.731 174.632,-201.692 178,-196 185.014,-184.146 197.878,-176.206 209.99,-171.045"/>
<polygon fill="#9a32cd" stroke="#9a32cd" points="171.911,-216.25 177.578,-225.202 178.73,-214.67 171.911,-216.25"/>
<text text-anchor="middle" x="195.5" y="-199" font-family="Helvetica,sans-Serif" font-size="10.00"> release</text>
</g>
<!-- Node5&#45;&gt;Node4 -->
<g id="edge4" class="edge"><title>Node5&#45;&gt;Node4</title>
<path fill="none" stroke="#9a32cd" stroke-dasharray="5,2" d="M232.38,-180.529C228.682,-189.109 223.499,-199.177 217,-207 211.009,-214.211 202.725,-220.594 195.613,-225.342"/>
<polygon fill="#9a32cd" stroke="#9a32cd" points="235.706,-181.638 236.144,-171.053 229.2,-179.054 235.706,-181.638"/>
<text text-anchor="middle" x="246.5" y="-199" font-family="Helvetica,sans-Serif" font-size="10.00"> collection</text>
</g>
<!-- Node5&#45;&gt;Node5 -->
<g id="edge6" class="edge"><title>Node5&#45;&gt;Node5</title>
<path fill="none" stroke="#9a32cd" stroke-dasharray="5,2" d="M312.09,-166.897C317.012,-165.651 320,-163.852 320,-161.5 320,-157.828 312.719,-155.505 302.168,-154.529"/>
<polygon fill="#9a32cd" stroke="#9a32cd" points="311.496,-163.447 302.168,-168.471 312.593,-170.361 311.496,-163.447"/>
<text text-anchor="middle" x="349.5" y="-170" font-family="Helvetica,sans-Serif" font-size="10.00"> next</text>
<text text-anchor="middle" x="349.5" y="-159" font-family="Helvetica,sans-Serif" font-size="10.00">freeCollection</text>
<text text-anchor="middle" x="349.5" y="-148" font-family="Helvetica,sans-Serif" font-size="10.00">get</text>
</g>
<!-- Node6 -->
<g id="node6" class="node"><title>Node6</title>
<g id="a_node6"><a xlink:href="structfiftyone_degrees_data.html" target="_top" xlink:title="Data structure used for reusing memory which may have been allocated in a previous operation.">
<polygon fill="none" stroke="black" points="129,-292.5 129,-311.5 233,-311.5 233,-292.5 129,-292.5"/>
<text text-anchor="middle" x="181" y="-299.5" font-family="Helvetica,sans-Serif" font-size="10.00">fiftyoneDegreesData</text>
</a>
</g>
</g>
<!-- Node6&#45;&gt;Node4 -->
<g id="edge7" class="edge"><title>Node6&#45;&gt;Node4</title>
<path fill="none" stroke="#9a32cd" stroke-dasharray="5,2" d="M181,-282.037C181,-269.67 181,-254.12 181,-244.627"/>
<polygon fill="#9a32cd" stroke="#9a32cd" points="177.5,-282.234 181,-292.234 184.5,-282.234 177.5,-282.234"/>
<text text-anchor="middle" x="192" y="-266" font-family="Helvetica,sans-Serif" font-size="10.00"> data</text>
</g>
</g>
</svg>
