<?xml version="1.0" encoding="UTF-8" standalone="no"?>
<!DOCTYPE svg PUBLIC "-//W3C//DTD SVG 1.1//EN"
 "http://www.w3.org/Graphics/SVG/1.1/DTD/svg11.dtd">
<!-- Generated by graphviz version 2.38.0 (20140413.2041)
 -->
<!-- Title: fiftyoneDegreesHeader Pages: 1 -->
<svg width="343pt" height="175pt"
 viewBox="0.00 0.00 343.00 175.00" xmlns="http://www.w3.org/2000/svg" xmlns:xlink="http://www.w3.org/1999/xlink">
<g id="graph0" class="graph" transform="scale(1 1) rotate(0) translate(4 171)">
<title>fiftyoneDegreesHeader</title>
<!-- Node1 -->
<g id="node1" class="node"><title>Node1</title>
<g id="a_node1"><a xlink:title="Header structure containing the name and unique id.">
<polygon fill="#bfbfbf" stroke="black" points="0,-7 0,-26 114,-26 114,-7 0,-7"/>
<text text-anchor="middle" x="57" y="-14" font-family="Helvetica,sans-Serif" font-size="10.00">fiftyoneDegreesHeader</text>
</a>
</g>
</g>
<!-- Node2 -->
<g id="node2" class="node"><title>Node2</title>
<g id="a_node2"><a xlink:href="structfiftyone_degrees_collection_item.html" target="_top" xlink:title="Used to store a handle to the underlying item that could be used to release the item when it&#39;s finish...">
<polygon fill="none" stroke="black" points="64.5,-80.5 64.5,-99.5 209.5,-99.5 209.5,-80.5 64.5,-80.5"/>
<text text-anchor="middle" x="137" y="-87.5" font-family="Helvetica,sans-Serif" font-size="10.00">fiftyoneDegreesCollectionItem</text>
</a>
</g>
</g>
<!-- Node2&#45;&gt;Node1 -->
<g id="edge1" class="edge"><title>Node2&#45;&gt;Node1</title>
<path fill="none" stroke="#9a32cd" stroke-dasharray="5,2" d="M115.274,-74.6705C109.8,-70.7643 104.048,-66.3925 99,-62 85.8563,-50.5642 72.3161,-35.5177 64.2817,-26.18"/>
<polygon fill="#9a32cd" stroke="#9a32cd" points="113.29,-77.5539 123.506,-80.3617 117.271,-71.796 113.29,-77.5539"/>
<text text-anchor="middle" x="113" y="-54" font-family="Helvetica,sans-Serif" font-size="10.00"> name</text>
</g>
<!-- Node3 -->
<g id="node3" class="node"><title>Node3</title>
<g id="a_node3"><a xlink:href="structfiftyone_degrees_collection.html" target="_top" xlink:title="All the shared methods and fields required by file, memory and cached collections.">
<polygon fill="none" stroke="black" points="132,-7 132,-26 258,-26 258,-7 132,-7"/>
<text text-anchor="middle" x="195" y="-14" font-family="Helvetica,sans-Serif" font-size="10.00">fiftyoneDegreesCollection</text>
</a>
</g>
</g>
<!-- Node2&#45;&gt;Node3 -->
<g id="edge3" class="edge"><title>Node2&#45;&gt;Node3</title>
<path fill="none" stroke="#9a32cd" stroke-dasharray="5,2" d="M131.26,-70.1977C130.351,-63.7308 130.632,-56.6919 134,-51 141.014,-39.1459 153.878,-31.2062 165.99,-26.0454"/>
<polygon fill="#9a32cd" stroke="#9a32cd" points="127.911,-71.2502 133.578,-80.2021 134.73,-69.6701 127.911,-71.2502"/>
<text text-anchor="middle" x="151.5" y="-54" font-family="Helvetica,sans-Serif" font-size="10.00"> release</text>
</g>
<!-- Node3&#45;&gt;Node2 -->
<g id="edge2" class="edge"><title>Node3&#45;&gt;Node2</title>
<path fill="none" stroke="#9a32cd" stroke-dasharray="5,2" d="M188.38,-35.5295C184.682,-44.1092 179.499,-54.1766 173,-62 167.009,-69.2112 158.725,-75.5945 151.613,-80.3416"/>
<polygon fill="#9a32cd" stroke="#9a32cd" points="191.706,-36.6384 192.144,-26.0526 185.2,-34.0544 191.706,-36.6384"/>
<text text-anchor="middle" x="202.5" y="-54" font-family="Helvetica,sans-Serif" font-size="10.00"> collection</text>
</g>
<!-- Node3&#45;&gt;Node3 -->
<g id="edge4" class="edge"><title>Node3&#45;&gt;Node3</title>
<path fill="none" stroke="#9a32cd" stroke-dasharray="5,2" d="M268.09,-21.8969C273.012,-20.6513 276,-18.8523 276,-16.5 276,-12.8281 268.719,-10.5045 258.168,-9.52917"/>
<polygon fill="#9a32cd" stroke="#9a32cd" points="267.496,-18.4473 258.168,-23.4708 268.593,-25.3608 267.496,-18.4473"/>
<text text-anchor="middle" x="305.5" y="-25" font-family="Helvetica,sans-Serif" font-size="10.00"> next</text>
<text text-anchor="middle" x="305.5" y="-14" font-family="Helvetica,sans-Serif" font-size="10.00">freeCollection</text>
<text text-anchor="middle" x="305.5" y="-3" font-family="Helvetica,sans-Serif" font-size="10.00">get</text>
</g>
<!-- Node4 -->
<g id="node4" class="node"><title>Node4</title>
<g id="a_node4"><a xlink:href="structfiftyone_degrees_data.html" target="_top" xlink:title="Data structure used for reusing memory which may have been allocated in a previous operation.">
<polygon fill="none" stroke="black" points="85,-147.5 85,-166.5 189,-166.5 189,-147.5 85,-147.5"/>
<text text-anchor="middle" x="137" y="-154.5" font-family="Helvetica,sans-Serif" font-size="10.00">fiftyoneDegreesData</text>
</a>
</g>
</g>
<!-- Node4&#45;&gt;Node2 -->
<g id="edge5" class="edge"><title>Node4&#45;&gt;Node2</title>
<path fill="none" stroke="#9a32cd" stroke-dasharray="5,2" d="M137,-137.037C137,-124.67 137,-109.12 137,-99.6273"/>
<polygon fill="#9a32cd" stroke="#9a32cd" points="133.5,-137.234 137,-147.234 140.5,-137.234 133.5,-137.234"/>
<text text-anchor="middle" x="148" y="-121" font-family="Helvetica,sans-Serif" font-size="10.00"> data</text>
</g>
</g>
</svg>
