<?xml version="1.0" encoding="UTF-8" standalone="no"?>
<!DOCTYPE svg PUBLIC "-//W3C//DTD SVG 1.1//EN"
 "http://www.w3.org/Graphics/SVG/1.1/DTD/svg11.dtd">
<!-- Generated by graphviz version 2.38.0 (20140413.2041)
 -->
<!-- Title: fiftyoneDegreesConfigHash Pages: 1 -->
<svg width="292pt" height="239pt"
 viewBox="0.00 0.00 291.50 239.00" xmlns="http://www.w3.org/2000/svg" xmlns:xlink="http://www.w3.org/1999/xlink">
<g id="graph0" class="graph" transform="scale(1 1) rotate(0) translate(4 235)">
<title>fiftyoneDegreesConfigHash</title>
<!-- Node1 -->
<g id="node1" class="node"><title>Node1</title>
<g id="a_node1"><a xlink:title="Hash specific configuration structure.">
<polygon fill="#bfbfbf" stroke="black" points="53.5,-0.5 53.5,-19.5 186.5,-19.5 186.5,-0.5 53.5,-0.5"/>
<text text-anchor="middle" x="120" y="-7.5" font-family="Helvetica,sans-Serif" font-size="10.00">fiftyoneDegreesConfigHash</text>
</a>
</g>
</g>
<!-- Node2 -->
<g id="node2" class="node"><title>Node2</title>
<g id="a_node2"><a xlink:href="structfiftyone_degrees_collection_config.html" target="_top" xlink:title="Collection configuration structure which defines how the collection should be created by the create m...">
<polygon fill="none" stroke="black" points="0,-133.5 0,-163.5 126,-163.5 126,-133.5 0,-133.5"/>
<text text-anchor="start" x="8" y="-151.5" font-family="Helvetica,sans-Serif" font-size="10.00">fiftyoneDegreesCollection</text>
<text text-anchor="middle" x="63" y="-140.5" font-family="Helvetica,sans-Serif" font-size="10.00">Config</text>
</a>
</g>
</g>
<!-- Node2&#45;&gt;Node1 -->
<g id="edge1" class="edge"><title>Node2&#45;&gt;Node1</title>
<path fill="none" stroke="#9a32cd" stroke-dasharray="5,2" d="M68.7587,-123.615C74.7792,-100.83 85.3936,-65.9401 100,-38 103.459,-31.3829 108.459,-24.6329 112.594,-19.5371"/>
<polygon fill="#9a32cd" stroke="#9a32cd" points="65.3293,-122.899 66.2462,-133.454 72.1117,-124.631 65.3293,-122.899"/>
<text text-anchor="middle" x="128" y="-107" font-family="Helvetica,sans-Serif" font-size="10.00"> httpHeaders</text>
<text text-anchor="middle" x="128" y="-96" font-family="Helvetica,sans-Serif" font-size="10.00">strings</text>
<text text-anchor="middle" x="128" y="-85" font-family="Helvetica,sans-Serif" font-size="10.00">components</text>
<text text-anchor="middle" x="128" y="-74" font-family="Helvetica,sans-Serif" font-size="10.00">nodes</text>
<text text-anchor="middle" x="128" y="-63" font-family="Helvetica,sans-Serif" font-size="10.00">properties</text>
<text text-anchor="middle" x="128" y="-52" font-family="Helvetica,sans-Serif" font-size="10.00">devices</text>
<text text-anchor="middle" x="128" y="-41" font-family="Helvetica,sans-Serif" font-size="10.00">profiles</text>
</g>
<!-- Node3 -->
<g id="node3" class="node"><title>Node3</title>
<g id="a_node3"><a xlink:href="structfiftyone_degrees_config_device_detection.html" target="_top" xlink:title="Device detection configuration structure containing device detection specific configuration options,...">
<polygon fill="none" stroke="black" points="144.5,-133.5 144.5,-163.5 283.5,-163.5 283.5,-133.5 144.5,-133.5"/>
<text text-anchor="start" x="152.5" y="-151.5" font-family="Helvetica,sans-Serif" font-size="10.00">fiftyoneDegreesConfigDevice</text>
<text text-anchor="middle" x="214" y="-140.5" font-family="Helvetica,sans-Serif" font-size="10.00">Detection</text>
</a>
</g>
</g>
<!-- Node3&#45;&gt;Node1 -->
<g id="edge2" class="edge"><title>Node3&#45;&gt;Node1</title>
<path fill="none" stroke="#9a32cd" stroke-dasharray="5,2" d="M204.976,-123.632C195.303,-100.131 178.281,-64.0691 156,-38 149.909,-30.8733 141.618,-24.4953 134.528,-19.7299"/>
<polygon fill="#9a32cd" stroke="#9a32cd" points="201.824,-125.176 208.781,-133.167 208.325,-122.582 201.824,-125.176"/>
<text text-anchor="middle" x="204.5" y="-74" font-family="Helvetica,sans-Serif" font-size="10.00"> b</text>
</g>
<!-- Node4 -->
<g id="node4" class="node"><title>Node4</title>
<g id="a_node4"><a xlink:href="structfiftyone_degrees_config_base.html" target="_top" xlink:title="Base configuration structure containing common configuration options, and options that apply to struc...">
<polygon fill="none" stroke="black" points="147.5,-211.5 147.5,-230.5 280.5,-230.5 280.5,-211.5 147.5,-211.5"/>
<text text-anchor="middle" x="214" y="-218.5" font-family="Helvetica,sans-Serif" font-size="10.00">fiftyoneDegreesConfigBase</text>
</a>
</g>
</g>
<!-- Node4&#45;&gt;Node3 -->
<g id="edge3" class="edge"><title>Node4&#45;&gt;Node3</title>
<path fill="none" stroke="#9a32cd" stroke-dasharray="5,2" d="M214,-201.236C214,-189.408 214,-174.383 214,-163.576"/>
<polygon fill="#9a32cd" stroke="#9a32cd" points="210.5,-201.355 214,-211.355 217.5,-201.355 210.5,-201.355"/>
<text text-anchor="middle" x="218.5" y="-185" font-family="Helvetica,sans-Serif" font-size="10.00"> b</text>
</g>
</g>
</svg>
