<?xml version="1.0" encoding="UTF-8" standalone="no"?>
<!DOCTYPE svg PUBLIC "-//W3C//DTD SVG 1.1//EN"
 "http://www.w3.org/Graphics/SVG/1.1/DTD/svg11.dtd">
<!-- Generated by graphviz version 2.38.0 (20140413.2041)
 -->
<!-- Title: fiftyoneDegreesPropertyAvailableArray Pages: 1 -->
<svg width="387pt" height="253pt"
 viewBox="0.00 0.00 387.00 253.00" xmlns="http://www.w3.org/2000/svg" xmlns:xlink="http://www.w3.org/1999/xlink">
<g id="graph0" class="graph" transform="scale(1 1) rotate(0) translate(4 249)">
<title>fiftyoneDegreesPropertyAvailableArray</title>
<!-- Node1 -->
<g id="node1" class="node"><title>Node1</title>
<g id="a_node1"><a xlink:title="Array of items of type fiftyoneDegreesPropertyAvailable used to easily access and track the size of t...">
<polygon fill="#bfbfbf" stroke="black" points="0,-0.5 0,-30.5 158,-30.5 158,-0.5 0,-0.5"/>
<text text-anchor="start" x="8" y="-18.5" font-family="Helvetica,sans-Serif" font-size="10.00">fiftyoneDegreesPropertyAvailable</text>
<text text-anchor="middle" x="79" y="-7.5" font-family="Helvetica,sans-Serif" font-size="10.00">Array</text>
</a>
</g>
</g>
<!-- Node2 -->
<g id="node2" class="node"><title>Node2</title>
<g id="a_node2"><a xlink:href="structfiftyone_degrees_property_available.html" target="_top" xlink:title="Used to access the property item quickly without the need to search.">
<polygon fill="none" stroke="black" points="0,-85 0,-104 158,-104 158,-85 0,-85"/>
<text text-anchor="middle" x="79" y="-92" font-family="Helvetica,sans-Serif" font-size="10.00">fiftyoneDegreesPropertyAvailable</text>
</a>
</g>
</g>
<!-- Node2&#45;&gt;Node1 -->
<g id="edge1" class="edge"><title>Node2&#45;&gt;Node1</title>
<path fill="none" stroke="#9a32cd" stroke-dasharray="5,2" d="M79,-74.8048C79,-61.1616 79,-42.9588 79,-30.5446"/>
<polygon fill="#9a32cd" stroke="#9a32cd" points="75.5001,-74.9654 79,-84.9655 82.5001,-74.9655 75.5001,-74.9654"/>
<text text-anchor="middle" x="93" y="-52" font-family="Helvetica,sans-Serif" font-size="10.00"> items</text>
</g>
<!-- Node3 -->
<g id="node3" class="node"><title>Node3</title>
<g id="a_node3"><a xlink:href="structfiftyone_degrees_collection_item.html" target="_top" xlink:title="Used to store a handle to the underlying item that could be used to release the item when it&#39;s finish...">
<polygon fill="none" stroke="black" points="108.5,-158.5 108.5,-177.5 253.5,-177.5 253.5,-158.5 108.5,-158.5"/>
<text text-anchor="middle" x="181" y="-165.5" font-family="Helvetica,sans-Serif" font-size="10.00">fiftyoneDegreesCollectionItem</text>
</a>
</g>
</g>
<!-- Node3&#45;&gt;Node2 -->
<g id="edge2" class="edge"><title>Node3&#45;&gt;Node2</title>
<path fill="none" stroke="#9a32cd" stroke-dasharray="5,2" d="M160.048,-152.313C139.327,-137.788 108.319,-116.052 91.2909,-104.116"/>
<polygon fill="#9a32cd" stroke="#9a32cd" points="158.295,-155.359 168.493,-158.233 162.313,-149.627 158.295,-155.359"/>
<text text-anchor="middle" x="157" y="-132" font-family="Helvetica,sans-Serif" font-size="10.00"> name</text>
</g>
<!-- Node4 -->
<g id="node4" class="node"><title>Node4</title>
<g id="a_node4"><a xlink:href="structfiftyone_degrees_collection.html" target="_top" xlink:title="All the shared methods and fields required by file, memory and cached collections.">
<polygon fill="none" stroke="black" points="176,-85 176,-104 302,-104 302,-85 176,-85"/>
<text text-anchor="middle" x="239" y="-92" font-family="Helvetica,sans-Serif" font-size="10.00">fiftyoneDegreesCollection</text>
</a>
</g>
</g>
<!-- Node3&#45;&gt;Node4 -->
<g id="edge4" class="edge"><title>Node3&#45;&gt;Node4</title>
<path fill="none" stroke="#9a32cd" stroke-dasharray="5,2" d="M175.26,-148.198C174.351,-141.731 174.632,-134.692 178,-129 185.014,-117.146 197.878,-109.206 209.99,-104.045"/>
<polygon fill="#9a32cd" stroke="#9a32cd" points="171.911,-149.25 177.578,-158.202 178.73,-147.67 171.911,-149.25"/>
<text text-anchor="middle" x="195.5" y="-132" font-family="Helvetica,sans-Serif" font-size="10.00"> release</text>
</g>
<!-- Node4&#45;&gt;Node3 -->
<g id="edge3" class="edge"><title>Node4&#45;&gt;Node3</title>
<path fill="none" stroke="#9a32cd" stroke-dasharray="5,2" d="M232.38,-113.529C228.682,-122.109 223.499,-132.177 217,-140 211.009,-147.211 202.725,-153.594 195.613,-158.342"/>
<polygon fill="#9a32cd" stroke="#9a32cd" points="235.706,-114.638 236.144,-104.053 229.2,-112.054 235.706,-114.638"/>
<text text-anchor="middle" x="246.5" y="-132" font-family="Helvetica,sans-Serif" font-size="10.00"> collection</text>
</g>
<!-- Node4&#45;&gt;Node4 -->
<g id="edge5" class="edge"><title>Node4&#45;&gt;Node4</title>
<path fill="none" stroke="#9a32cd" stroke-dasharray="5,2" d="M312.09,-99.8969C317.012,-98.6513 320,-96.8523 320,-94.5 320,-90.8281 312.719,-88.5045 302.168,-87.5292"/>
<polygon fill="#9a32cd" stroke="#9a32cd" points="311.496,-96.4473 302.168,-101.471 312.593,-103.361 311.496,-96.4473"/>
<text text-anchor="middle" x="349.5" y="-103" font-family="Helvetica,sans-Serif" font-size="10.00"> next</text>
<text text-anchor="middle" x="349.5" y="-92" font-family="Helvetica,sans-Serif" font-size="10.00">freeCollection</text>
<text text-anchor="middle" x="349.5" y="-81" font-family="Helvetica,sans-Serif" font-size="10.00">get</text>
</g>
<!-- Node5 -->
<g id="node5" class="node"><title>Node5</title>
<g id="a_node5"><a xlink:href="structfiftyone_degrees_data.html" target="_top" xlink:title="Data structure used for reusing memory which may have been allocated in a previous operation.">
<polygon fill="none" stroke="black" points="129,-225.5 129,-244.5 233,-244.5 233,-225.5 129,-225.5"/>
<text text-anchor="middle" x="181" y="-232.5" font-family="Helvetica,sans-Serif" font-size="10.00">fiftyoneDegreesData</text>
</a>
</g>
</g>
<!-- Node5&#45;&gt;Node3 -->
<g id="edge6" class="edge"><title>Node5&#45;&gt;Node3</title>
<path fill="none" stroke="#9a32cd" stroke-dasharray="5,2" d="M181,-215.037C181,-202.67 181,-187.12 181,-177.627"/>
<polygon fill="#9a32cd" stroke="#9a32cd" points="177.5,-215.234 181,-225.234 184.5,-215.234 177.5,-215.234"/>
<text text-anchor="middle" x="192" y="-199" font-family="Helvetica,sans-Serif" font-size="10.00"> data</text>
</g>
</g>
</svg>
