<?xml version="1.0" encoding="UTF-8" standalone="no"?>
<!DOCTYPE svg PUBLIC "-//W3C//DTD SVG 1.1//EN"
 "http://www.w3.org/Graphics/SVG/1.1/DTD/svg11.dtd">
<!-- Generated by graphviz version 2.38.0 (20140413.2041)
 -->
<!-- Title: fiftyoneDegreesCollectionCache Pages: 1 -->
<svg width="763pt" height="300pt"
 viewBox="0.00 0.00 763.00 300.20" xmlns="http://www.w3.org/2000/svg" xmlns:xlink="http://www.w3.org/1999/xlink">
<g id="graph0" class="graph" transform="scale(1 1) rotate(0) translate(4 296.203)">
<title>fiftyoneDegreesCollectionCache</title>
<!-- Node1 -->
<g id="node1" class="node"><title>Node1</title>
<g id="a_node1"><a xlink:title="Type of collection where items are cached as they are used.">
<polygon fill="#bfbfbf" stroke="black" points="625,-180.203 625,-210.203 751,-210.203 751,-180.203 625,-180.203"/>
<text text-anchor="start" x="633" y="-198.203" font-family="Helvetica,sans-Serif" font-size="10.00">fiftyoneDegreesCollection</text>
<text text-anchor="middle" x="688" y="-187.203" font-family="Helvetica,sans-Serif" font-size="10.00">Cache</text>
</a>
</g>
</g>
<!-- Node2 -->
<g id="node2" class="node"><title>Node2</title>
<g id="a_node2"><a xlink:href="structfiftyone_degrees_cache.html" target="_top" xlink:title="Cache structure to store the root of the red black tree and a list of allocated cache nodes.">
<polygon fill="none" stroke="black" points="206,-114.703 206,-133.703 317,-133.703 317,-114.703 206,-114.703"/>
<text text-anchor="middle" x="261.5" y="-121.703" font-family="Helvetica,sans-Serif" font-size="10.00">fiftyoneDegreesCache</text>
</a>
</g>
</g>
<!-- Node2&#45;&gt;Node1 -->
<g id="edge1" class="edge"><title>Node2&#45;&gt;Node1</title>
<path fill="none" stroke="#9a32cd" stroke-dasharray="5,2" d="M327.167,-135.019C407.897,-148.521 545.032,-171.458 624.66,-184.776"/>
<polygon fill="#9a32cd" stroke="#9a32cd" points="327.567,-131.537 317.127,-133.339 326.413,-138.441 327.567,-131.537"/>
<text text-anchor="middle" x="483.5" y="-176.203" font-family="Helvetica,sans-Serif" font-size="10.00"> cache</text>
</g>
<!-- Node6 -->
<g id="node6" class="node"><title>Node6</title>
<g id="a_node6"><a xlink:href="structfiftyone_degrees_cache_shard.html" target="_top" xlink:title="Cache shard structure used to enable concurrent access to the cache.">
<polygon fill="none" stroke="black" points="415,-80.7028 415,-99.7028 552,-99.7028 552,-80.7028 415,-80.7028"/>
<text text-anchor="middle" x="483.5" y="-87.7028" font-family="Helvetica,sans-Serif" font-size="10.00">fiftyoneDegreesCacheShard</text>
</a>
</g>
</g>
<!-- Node2&#45;&gt;Node6 -->
<g id="edge11" class="edge"><title>Node2&#45;&gt;Node6</title>
<path fill="none" stroke="#9a32cd" stroke-dasharray="5,2" d="M327.364,-114.178C356.869,-109.619 391.614,-104.249 420.736,-99.7482"/>
<polygon fill="#9a32cd" stroke="#9a32cd" points="326.513,-110.768 317.165,-115.755 327.582,-117.686 326.513,-110.768"/>
<text text-anchor="middle" x="374.5" y="-114.203" font-family="Helvetica,sans-Serif" font-size="10.00"> cache</text>
</g>
<!-- Node3 -->
<g id="node3" class="node"><title>Node3</title>
<g id="a_node3"><a xlink:href="structfiftyone_degrees_cache_node.html" target="_top" xlink:title="Cache node structure used for storing data in the cache along with its key.">
<polygon fill="none" stroke="black" points="621,-69.7028 621,-88.7028 755,-88.7028 755,-69.7028 621,-69.7028"/>
<text text-anchor="middle" x="688" y="-76.7028" font-family="Helvetica,sans-Serif" font-size="10.00">fiftyoneDegreesCacheNode</text>
</a>
</g>
</g>
<!-- Node3&#45;&gt;Node2 -->
<g id="edge2" class="edge"><title>Node3&#45;&gt;Node2</title>
<path fill="none" stroke="#9a32cd" stroke-dasharray="5,2" d="M631.541,-67.9112C576.334,-58.4084 489.34,-48.1391 415,-60.2028 362.001,-68.8034 305.058,-98.9885 278.213,-114.635"/>
<polygon fill="#9a32cd" stroke="#9a32cd" points="631.012,-71.3719 641.47,-69.6711 632.234,-64.4794 631.012,-71.3719"/>
<text text-anchor="middle" x="483.5" y="-63.2028" font-family="Helvetica,sans-Serif" font-size="10.00"> nodes</text>
</g>
<!-- Node3&#45;&gt;Node3 -->
<g id="edge3" class="edge"><title>Node3&#45;&gt;Node3</title>
<path fill="none" stroke="#9a32cd" stroke-dasharray="5,2" d="M669.482,-98.6028C670.719,-103.517 676.892,-107.203 688,-107.203 705.773,-107.203 710.911,-97.7681 703.413,-88.9599"/>
<polygon fill="#9a32cd" stroke="#9a32cd" points="672.854,-99.5513 672.587,-88.9599 666.191,-97.406 672.854,-99.5513"/>
<text text-anchor="middle" x="688" y="-121.203" font-family="Helvetica,sans-Serif" font-size="10.00"> listPrevious</text>
<text text-anchor="middle" x="688" y="-110.203" font-family="Helvetica,sans-Serif" font-size="10.00">listNext</text>
</g>
<!-- Node3&#45;&gt;Node6 -->
<g id="edge9" class="edge"><title>Node3&#45;&gt;Node6</title>
<path fill="none" stroke="#9a32cd" stroke-dasharray="5,2" d="M617.709,-89.8881C612.74,-90.4125 607.799,-90.8618 603,-91.2028 586.582,-92.3696 568.854,-92.7094 552.236,-92.6253"/>
<polygon fill="#9a32cd" stroke="#9a32cd" points="618.377,-93.3345 627.912,-88.7169 617.579,-86.3802 618.377,-93.3345"/>
<text text-anchor="middle" x="586.5" y="-118.203" font-family="Helvetica,sans-Serif" font-size="10.00"> last</text>
<text text-anchor="middle" x="586.5" y="-107.203" font-family="Helvetica,sans-Serif" font-size="10.00">first</text>
<text text-anchor="middle" x="586.5" y="-96.2028" font-family="Helvetica,sans-Serif" font-size="10.00">nodes</text>
</g>
<!-- Node4 -->
<g id="node4" class="node"><title>Node4</title>
<g id="a_node4"><a xlink:href="structfiftyone_degrees_tree_node.html" target="_top" xlink:title="Node structure defining a single node in the tree.">
<polygon fill="none" stroke="black" points="0,-7.70281 0,-26.7028 125,-26.7028 125,-7.70281 0,-7.70281"/>
<text text-anchor="middle" x="62.5" y="-14.7028" font-family="Helvetica,sans-Serif" font-size="10.00">fiftyoneDegreesTreeNode</text>
</a>
</g>
</g>
<!-- Node4&#45;&gt;Node3 -->
<g id="edge4" class="edge"><title>Node4&#45;&gt;Node3</title>
<path fill="none" stroke="#9a32cd" stroke-dasharray="5,2" d="M135.448,-7.7884C152.941,-5.88353 171.617,-4.1694 189,-3.20281 374.216,7.09599 422.421,-13.7507 603,-56.2028 620.074,-60.2167 638.922,-65.3154 654.43,-69.6917"/>
<polygon fill="#9a32cd" stroke="#9a32cd" points="134.851,-4.3334 125.304,-8.92778 135.632,-11.2897 134.851,-4.3334"/>
<text text-anchor="middle" x="374.5" y="-13.2028" font-family="Helvetica,sans-Serif" font-size="10.00"> tree</text>
</g>
<!-- Node4&#45;&gt;Node4 -->
<g id="edge5" class="edge"><title>Node4&#45;&gt;Node4</title>
<path fill="none" stroke="#9a32cd" stroke-dasharray="5,2" d="M45.0934,-36.6028C46.2559,-41.5174 52.0581,-45.2028 62.5,-45.2028 79.207,-45.2028 84.0364,-35.7681 76.9881,-26.9599"/>
<polygon fill="#9a32cd" stroke="#9a32cd" points="48.465,-37.545 48.0119,-26.9599 41.7651,-35.5173 48.465,-37.545"/>
<text text-anchor="middle" x="62.5" y="-70.2028" font-family="Helvetica,sans-Serif" font-size="10.00"> right</text>
<text text-anchor="middle" x="62.5" y="-59.2028" font-family="Helvetica,sans-Serif" font-size="10.00">left</text>
<text text-anchor="middle" x="62.5" y="-48.2028" font-family="Helvetica,sans-Serif" font-size="10.00">parent</text>
</g>
<!-- Node5 -->
<g id="node5" class="node"><title>Node5</title>
<g id="a_node5"><a xlink:href="structfiftyone_degrees_tree_root.html" target="_top" xlink:title="Tree root structure defining the beginning of the tree.">
<polygon fill="none" stroke="black" points="200.5,-12.7028 200.5,-31.7028 322.5,-31.7028 322.5,-12.7028 200.5,-12.7028"/>
<text text-anchor="middle" x="261.5" y="-19.7028" font-family="Helvetica,sans-Serif" font-size="10.00">fiftyoneDegreesTreeRoot</text>
</a>
</g>
</g>
<!-- Node4&#45;&gt;Node5 -->
<g id="edge7" class="edge"><title>Node4&#45;&gt;Node5</title>
<path fill="none" stroke="#9a32cd" stroke-dasharray="5,2" d="M135.271,-14.3707C137.88,-14.3071 140.463,-14.2507 143,-14.2028 155.442,-13.9681 158.568,-13.6483 171,-14.2028 180.507,-14.6268 190.564,-15.303 200.371,-16.0871"/>
<polygon fill="#9a32cd" stroke="#9a32cd" points="135.024,-10.876 125.124,-14.6479 135.216,-17.8734 135.024,-10.876"/>
<text text-anchor="middle" x="157" y="-28.2028" font-family="Helvetica,sans-Serif" font-size="10.00"> root</text>
<text text-anchor="middle" x="157" y="-17.2028" font-family="Helvetica,sans-Serif" font-size="10.00">empty</text>
</g>
<!-- Node5&#45;&gt;Node4 -->
<g id="edge6" class="edge"><title>Node5&#45;&gt;Node4</title>
<path fill="none" stroke="#9a32cd" stroke-dasharray="5,2" d="M220.151,-34.2696C197.494,-39.5663 168.693,-43.8447 143,-40.2028 124.791,-37.6217 104.916,-31.8717 89.5932,-26.767"/>
<polygon fill="#9a32cd" stroke="#9a32cd" points="221.24,-37.6053 230.096,-31.7891 219.546,-30.8134 221.24,-37.6053"/>
<text text-anchor="middle" x="157" y="-45.2028" font-family="Helvetica,sans-Serif" font-size="10.00"> root</text>
</g>
<!-- Node5&#45;&gt;Node6 -->
<g id="edge10" class="edge"><title>Node5&#45;&gt;Node6</title>
<path fill="none" stroke="#9a32cd" stroke-dasharray="5,2" d="M303.126,-34.7601C346.049,-48.0269 412.78,-68.6531 451.604,-80.6531"/>
<polygon fill="#9a32cd" stroke="#9a32cd" points="304.142,-31.4105 293.554,-31.8013 302.074,-38.0984 304.142,-31.4105"/>
<text text-anchor="middle" x="374.5" y="-66.2028" font-family="Helvetica,sans-Serif" font-size="10.00"> root</text>
</g>
<!-- Node6&#45;&gt;Node2 -->
<g id="edge13" class="edge"><title>Node6&#45;&gt;Node2</title>
<path fill="none" stroke="#9a32cd" stroke-dasharray="5,2" d="M404.821,-84.6819C387.331,-84.8015 368.937,-86.0089 352,-89.2028 326.424,-94.0259 298.784,-105.968 281.093,-114.561"/>
<polygon fill="#9a32cd" stroke="#9a32cd" points="404.98,-88.1826 414.996,-84.7305 405.013,-81.1827 404.98,-88.1826"/>
<text text-anchor="middle" x="374.5" y="-92.2028" font-family="Helvetica,sans-Serif" font-size="10.00"> shards</text>
</g>
<!-- Node6&#45;&gt;Node3 -->
<g id="edge8" class="edge"><title>Node6&#45;&gt;Node3</title>
<path fill="none" stroke="#9a32cd" stroke-dasharray="5,2" d="M562.26,-80.7463C564.869,-80.5445 567.455,-80.3621 570,-80.2028 586.422,-79.1753 604.165,-78.6979 620.749,-78.5254"/>
<polygon fill="#9a32cd" stroke="#9a32cd" points="561.778,-77.2746 552.112,-81.6129 562.374,-84.2492 561.778,-77.2746"/>
<text text-anchor="middle" x="586.5" y="-83.2028" font-family="Helvetica,sans-Serif" font-size="10.00"> shard</text>
</g>
<!-- Node7 -->
<g id="node7" class="node"><title>Node7</title>
<g id="a_node7"><a xlink:href="structfiftyone_degrees_data.html" target="_top" xlink:title="Data structure used for reusing memory which may have been allocated in a previous operation.">
<polygon fill="none" stroke="black" points="10.5,-183.703 10.5,-202.703 114.5,-202.703 114.5,-183.703 10.5,-183.703"/>
<text text-anchor="middle" x="62.5" y="-190.703" font-family="Helvetica,sans-Serif" font-size="10.00">fiftyoneDegreesData</text>
</a>
</g>
</g>
<!-- Node7&#45;&gt;Node2 -->
<g id="edge14" class="edge"><title>Node7&#45;&gt;Node2</title>
<path fill="none" stroke="#9a32cd" stroke-dasharray="5,2" d="M100.72,-180.166C139.37,-166.629 198.903,-145.777 233.341,-133.715"/>
<polygon fill="#9a32cd" stroke="#9a32cd" points="99.1729,-177 90.892,-183.609 101.487,-183.606 99.1729,-177"/>
<text text-anchor="middle" x="157" y="-168.203" font-family="Helvetica,sans-Serif" font-size="10.00"> load</text>
</g>
<!-- Node7&#45;&gt;Node3 -->
<g id="edge12" class="edge"><title>Node7&#45;&gt;Node3</title>
<path fill="none" stroke="#9a32cd" stroke-dasharray="5,2" d="M124.957,-195.992C238.121,-200.38 474.927,-205.869 552,-179.203 607.128,-160.129 658.516,-109.823 678.36,-88.7266"/>
<polygon fill="#9a32cd" stroke="#9a32cd" points="124.859,-192.485 114.728,-195.585 124.581,-199.48 124.859,-192.485"/>
<text text-anchor="middle" x="374.5" y="-202.203" font-family="Helvetica,sans-Serif" font-size="10.00"> data</text>
</g>
<!-- Node9 -->
<g id="node9" class="node"><title>Node9</title>
<g id="a_node9"><a xlink:href="structfiftyone_degrees_collection_item.html" target="_top" xlink:title="Used to store a handle to the underlying item that could be used to release the item when it&#39;s finish...">
<polygon fill="none" stroke="black" points="189,-221.703 189,-240.703 334,-240.703 334,-221.703 189,-221.703"/>
<text text-anchor="middle" x="261.5" y="-228.703" font-family="Helvetica,sans-Serif" font-size="10.00">fiftyoneDegreesCollectionItem</text>
</a>
</g>
</g>
<!-- Node7&#45;&gt;Node9 -->
<g id="edge18" class="edge"><title>Node7&#45;&gt;Node9</title>
<path fill="none" stroke="#9a32cd" stroke-dasharray="5,2" d="M123.064,-204.692C151.172,-210.114 184.322,-216.509 211.023,-221.659"/>
<polygon fill="#9a32cd" stroke="#9a32cd" points="123.439,-201.2 112.957,-202.743 122.113,-208.074 123.439,-201.2"/>
<text text-anchor="middle" x="157" y="-216.203" font-family="Helvetica,sans-Serif" font-size="10.00"> data</text>
</g>
<!-- Node8 -->
<g id="node8" class="node"><title>Node8</title>
<g id="a_node8"><a xlink:href="structfiftyone_degrees_collection.html" target="_top" xlink:title="All the shared methods and fields required by file, memory and cached collections.">
<polygon fill="none" stroke="black" points="420.5,-221.703 420.5,-240.703 546.5,-240.703 546.5,-221.703 420.5,-221.703"/>
<text text-anchor="middle" x="483.5" y="-228.703" font-family="Helvetica,sans-Serif" font-size="10.00">fiftyoneDegreesCollection</text>
</a>
</g>
</g>
<!-- Node8&#45;&gt;Node1 -->
<g id="edge15" class="edge"><title>Node8&#45;&gt;Node1</title>
<path fill="none" stroke="#9a32cd" stroke-dasharray="5,2" d="M547.91,-219.93C572.482,-215.561 600.528,-210.576 624.968,-206.231"/>
<polygon fill="#9a32cd" stroke="#9a32cd" points="547.202,-216.501 537.969,-221.697 548.428,-223.393 547.202,-216.501"/>
<text text-anchor="middle" x="586.5" y="-218.203" font-family="Helvetica,sans-Serif" font-size="10.00"> source</text>
</g>
<!-- Node8&#45;&gt;Node8 -->
<g id="edge19" class="edge"><title>Node8&#45;&gt;Node8</title>
<path fill="none" stroke="#9a32cd" stroke-dasharray="5,2" d="M464.612,-250.603C465.873,-255.517 472.169,-259.203 483.5,-259.203 501.629,-259.203 506.869,-249.768 499.221,-240.96"/>
<polygon fill="#9a32cd" stroke="#9a32cd" points="467.984,-251.553 467.779,-240.96 461.333,-249.369 467.984,-251.553"/>
<text text-anchor="middle" x="483.5" y="-284.203" font-family="Helvetica,sans-Serif" font-size="10.00"> next</text>
<text text-anchor="middle" x="483.5" y="-273.203" font-family="Helvetica,sans-Serif" font-size="10.00">freeCollection</text>
<text text-anchor="middle" x="483.5" y="-262.203" font-family="Helvetica,sans-Serif" font-size="10.00">get</text>
</g>
<!-- Node8&#45;&gt;Node9 -->
<g id="edge17" class="edge"><title>Node8&#45;&gt;Node9</title>
<path fill="none" stroke="#9a32cd" stroke-dasharray="5,2" d="M410.473,-240.233C405.919,-240.616 401.399,-240.946 397,-241.203 377.034,-242.366 371.969,-242.315 352,-241.203 346.224,-240.881 340.248,-240.444 334.251,-239.93"/>
<polygon fill="#9a32cd" stroke="#9a32cd" points="410.827,-243.716 420.466,-239.317 410.188,-236.745 410.827,-243.716"/>
<text text-anchor="middle" x="374.5" y="-244.203" font-family="Helvetica,sans-Serif" font-size="10.00"> collection</text>
</g>
<!-- Node9&#45;&gt;Node8 -->
<g id="edge16" class="edge"><title>Node9&#45;&gt;Node8</title>
<path fill="none" stroke="#9a32cd" stroke-dasharray="5,2" d="M344.35,-230.251C346.93,-230.233 349.485,-230.217 352,-230.203 372,-230.091 377,-230.086 397,-230.203 404.571,-230.247 412.518,-230.313 420.392,-230.391"/>
<polygon fill="#9a32cd" stroke="#9a32cd" points="344.281,-226.752 334.309,-230.33 344.336,-233.751 344.281,-226.752"/>
<text text-anchor="middle" x="374.5" y="-233.203" font-family="Helvetica,sans-Serif" font-size="10.00"> release</text>
</g>
</g>
</svg>
