<?xml version="1.0" encoding="UTF-8" standalone="no"?>
<!DOCTYPE svg PUBLIC "-//W3C//DTD SVG 1.1//EN"
 "http://www.w3.org/Graphics/SVG/1.1/DTD/svg11.dtd">
<!-- Generated by graphviz version 2.38.0 (20140413.2041)
 -->
<!-- Title: fiftyoneDegreesFilePool Pages: 1 -->
<svg width="292pt" height="162pt"
 viewBox="0.00 0.00 292.00 162.00" xmlns="http://www.w3.org/2000/svg" xmlns:xlink="http://www.w3.org/1999/xlink">
<g id="graph0" class="graph" transform="scale(1 1) rotate(0) translate(4 158)">
<title>fiftyoneDegreesFilePool</title>
<!-- Node1 -->
<g id="node1" class="node"><title>Node1</title>
<g id="a_node1"><a xlink:title="Stack of handles used to read data from a single source file.">
<polygon fill="#bfbfbf" stroke="black" points="0,-0.5 0,-19.5 119,-19.5 119,-0.5 0,-0.5"/>
<text text-anchor="middle" x="59.5" y="-7.5" font-family="Helvetica,sans-Serif" font-size="10.00">fiftyoneDegreesFilePool</text>
</a>
</g>
</g>
<!-- Node2 -->
<g id="node2" class="node"><title>Node2</title>
<g id="a_node2"><a xlink:href="structfiftyone_degrees_pool.html" target="_top" xlink:title="Pool of resources stored as items in a stack.">
<polygon fill="none" stroke="black" points="102,-67.5 102,-86.5 205,-86.5 205,-67.5 102,-67.5"/>
<text text-anchor="middle" x="153.5" y="-74.5" font-family="Helvetica,sans-Serif" font-size="10.00">fiftyoneDegreesPool</text>
</a>
</g>
</g>
<!-- Node2&#45;&gt;Node1 -->
<g id="edge1" class="edge"><title>Node2&#45;&gt;Node1</title>
<path fill="none" stroke="#9a32cd" stroke-dasharray="5,2" d="M132.415,-61.4196C113.831,-48.5695 87.3849,-30.2821 71.9764,-19.6273"/>
<polygon fill="#9a32cd" stroke="#9a32cd" points="130.607,-64.425 140.823,-67.2338 134.588,-58.6674 130.607,-64.425"/>
<text text-anchor="middle" x="123.5" y="-41" font-family="Helvetica,sans-Serif" font-size="10.00"> pool</text>
</g>
<!-- Node2&#45;&gt;Node2 -->
<g id="edge2" class="edge"><title>Node2&#45;&gt;Node2</title>
<path fill="none" stroke="#9a32cd" stroke-dasharray="5,2" d="M214.956,-81.5916C219.922,-80.5925 223,-79.062 223,-77 223,-73.7813 215.5,-71.8575 205.025,-71.2289"/>
<polygon fill="#9a32cd" stroke="#9a32cd" points="214.543,-78.1159 205.025,-82.7711 215.368,-85.0671 214.543,-78.1159"/>
<text text-anchor="middle" x="253.5" y="-74.5" font-family="Helvetica,sans-Serif" font-size="10.00"> resourceFree</text>
</g>
<!-- Node4 -->
<g id="node4" class="node"><title>Node4</title>
<g id="a_node4"><a xlink:href="structfiftyone_degrees_pool_item.html" target="_top" xlink:title="Pool item node in the stack of items.">
<polygon fill="none" stroke="black" points="137.5,-0.5 137.5,-19.5 259.5,-19.5 259.5,-0.5 137.5,-0.5"/>
<text text-anchor="middle" x="198.5" y="-7.5" font-family="Helvetica,sans-Serif" font-size="10.00">fiftyoneDegreesPoolItem</text>
</a>
</g>
</g>
<!-- Node2&#45;&gt;Node4 -->
<g id="edge5" class="edge"><title>Node2&#45;&gt;Node4</title>
<path fill="none" stroke="#9a32cd" stroke-dasharray="5,2" d="M147.792,-57.2167C146.886,-50.7516 147.161,-43.7089 150.5,-38 155.375,-29.6641 163.875,-23.7031 172.381,-19.5405"/>
<polygon fill="#9a32cd" stroke="#9a32cd" points="144.44,-58.257 150.099,-67.2143 151.261,-56.6834 144.44,-58.257"/>
<text text-anchor="middle" x="161.5" y="-41" font-family="Helvetica,sans-Serif" font-size="10.00"> pool</text>
</g>
<!-- Node3 -->
<g id="node3" class="node"><title>Node3</title>
<g id="a_node3"><a xlink:href="unionfiftyone_degrees_pool_head.html" target="_top" xlink:title="The head of the stack used for pop and push operations.">
<polygon fill="none" stroke="black" points="91,-134.5 91,-153.5 216,-153.5 216,-134.5 91,-134.5"/>
<text text-anchor="middle" x="153.5" y="-141.5" font-family="Helvetica,sans-Serif" font-size="10.00">fiftyoneDegreesPoolHead</text>
</a>
</g>
</g>
<!-- Node3&#45;&gt;Node2 -->
<g id="edge3" class="edge"><title>Node3&#45;&gt;Node2</title>
<path fill="none" stroke="#9a32cd" stroke-dasharray="5,2" d="M153.5,-124.037C153.5,-111.67 153.5,-96.1198 153.5,-86.6273"/>
<polygon fill="#9a32cd" stroke="#9a32cd" points="150,-124.234 153.5,-134.234 157,-124.234 150,-124.234"/>
<text text-anchor="middle" x="166" y="-108" font-family="Helvetica,sans-Serif" font-size="10.00"> head</text>
</g>
<!-- Node4&#45;&gt;Node2 -->
<g id="edge4" class="edge"><title>Node4&#45;&gt;Node2</title>
<path fill="none" stroke="#9a32cd" stroke-dasharray="5,2" d="M189.224,-28.5348C185.518,-35.1164 181.052,-42.5585 176.5,-49 171.951,-55.4369 166.201,-62.1869 161.588,-67.3276"/>
<polygon fill="#9a32cd" stroke="#9a32cd" points="192.314,-30.1792 194.032,-19.7245 186.17,-26.8261 192.314,-30.1792"/>
<text text-anchor="middle" x="197.5" y="-41" font-family="Helvetica,sans-Serif" font-size="10.00"> stack</text>
</g>
</g>
</svg>
