<?xml version="1.0" encoding="UTF-8" standalone="no"?>
<!DOCTYPE svg PUBLIC "-//W3C//DTD SVG 1.1//EN"
 "http://www.w3.org/Graphics/SVG/1.1/DTD/svg11.dtd">
<!-- Generated by graphviz version 2.38.0 (20140413.2041)
 -->
<!-- Title: fiftyoneDegreesTreeRoot Pages: 1 -->
<svg width="179pt" height="119pt"
 viewBox="0.00 0.00 179.00 119.00" xmlns="http://www.w3.org/2000/svg" xmlns:xlink="http://www.w3.org/1999/xlink">
<g id="graph0" class="graph" transform="scale(1 1) rotate(0) translate(4 115)">
<title>fiftyoneDegreesTreeRoot</title>
<!-- Node1 -->
<g id="node1" class="node"><title>Node1</title>
<g id="a_node1"><a xlink:title="Tree root structure defining the beginning of the tree.">
<polygon fill="#bfbfbf" stroke="black" points="1.5,-91.5 1.5,-110.5 123.5,-110.5 123.5,-91.5 1.5,-91.5"/>
<text text-anchor="middle" x="62.5" y="-98.5" font-family="Helvetica,sans-Serif" font-size="10.00">fiftyoneDegreesTreeRoot</text>
</a>
</g>
</g>
<!-- Node2 -->
<g id="node2" class="node"><title>Node2</title>
<g id="a_node2"><a xlink:href="structfiftyone_degrees_tree_node.html" target="_top" xlink:title="Node structure defining a single node in the tree.">
<polygon fill="none" stroke="black" points="0,-7 0,-26 125,-26 125,-7 0,-7"/>
<text text-anchor="middle" x="62.5" y="-14" font-family="Helvetica,sans-Serif" font-size="10.00">fiftyoneDegreesTreeNode</text>
</a>
</g>
</g>
<!-- Node1&#45;&gt;Node2 -->
<g id="edge3" class="edge"><title>Node1&#45;&gt;Node2</title>
<path fill="none" stroke="#9a32cd" stroke-dasharray="5,2" d="M44.9796,-83.9604C42.3291,-80.6177 39.987,-76.9112 38.5,-73 35.0252,-63.8605 35.5095,-60.3092 38.5,-51 41.5635,-41.4637 48.454,-32.3388 54.0696,-26.0274"/>
<polygon fill="#9a32cd" stroke="#9a32cd" points="42.5311,-86.4677 51.8919,-91.4301 47.6688,-81.7133 42.5311,-86.4677"/>
<text text-anchor="middle" x="48.5" y="-59.5" font-family="Helvetica,sans-Serif" font-size="10.00"> root</text>
</g>
<!-- Node2&#45;&gt;Node1 -->
<g id="edge1" class="edge"><title>Node2&#45;&gt;Node1</title>
<path fill="none" stroke="#9a32cd" stroke-dasharray="5,2" d="M62.5,-36.1698C62.5,-53.4992 62.5,-78.5135 62.5,-91.4818"/>
<polygon fill="#9a32cd" stroke="#9a32cd" points="66.0001,-36.0954 62.5,-26.0955 59.0001,-36.0955 66.0001,-36.0954"/>
<text text-anchor="middle" x="76.5" y="-65" font-family="Helvetica,sans-Serif" font-size="10.00"> root</text>
<text text-anchor="middle" x="76.5" y="-54" font-family="Helvetica,sans-Serif" font-size="10.00">empty</text>
</g>
<!-- Node2&#45;&gt;Node2 -->
<g id="edge2" class="edge"><title>Node2&#45;&gt;Node2</title>
<path fill="none" stroke="#9a32cd" stroke-dasharray="5,2" d="M135.139,-22.4366C140.03,-21.0664 143,-19.0875 143,-16.5 143,-12.4609 135.764,-9.90497 125.278,-8.83209"/>
<polygon fill="#9a32cd" stroke="#9a32cd" points="134.522,-18.9913 125.278,-24.1679 135.733,-25.8858 134.522,-18.9913"/>
<text text-anchor="middle" x="157" y="-25" font-family="Helvetica,sans-Serif" font-size="10.00"> right</text>
<text text-anchor="middle" x="157" y="-14" font-family="Helvetica,sans-Serif" font-size="10.00">left</text>
<text text-anchor="middle" x="157" y="-3" font-family="Helvetica,sans-Serif" font-size="10.00">parent</text>
</g>
</g>
</svg>
