<?xml version="1.0" encoding="UTF-8" standalone="no"?>
<!DOCTYPE svg PUBLIC "-//W3C//DTD SVG 1.1//EN"
 "http://www.w3.org/Graphics/SVG/1.1/DTD/svg11.dtd">
<!-- Generated by graphviz version 2.38.0 (20140413.2041)
 -->
<!-- Title: fiftyoneDegreesResourceManager Pages: 1 -->
<svg width="170pt" height="95pt"
 viewBox="0.00 0.00 170.00 95.00" xmlns="http://www.w3.org/2000/svg" xmlns:xlink="http://www.w3.org/1999/xlink">
<g id="graph0" class="graph" transform="scale(1 1) rotate(0) translate(4 91)">
<title>fiftyoneDegreesResourceManager</title>
<!-- Node1 -->
<g id="node1" class="node"><title>Node1</title>
<g id="a_node1"><a xlink:title="Manager structure used to provide access to a shared and changing resource.">
<polygon fill="#bfbfbf" stroke="black" points="0,-67.5 0,-86.5 162,-86.5 162,-67.5 0,-67.5"/>
<text text-anchor="middle" x="81" y="-74.5" font-family="Helvetica,sans-Serif" font-size="10.00">fiftyoneDegreesResourceManager</text>
</a>
</g>
</g>
<!-- Node2 -->
<g id="node2" class="node"><title>Node2</title>
<g id="a_node2"><a xlink:href="structfiftyone_degrees_resource_handle.html" target="_top" xlink:title="Tracks the number of active uses of the resource within the manager.">
<polygon fill="none" stroke="black" points="3.5,-0.5 3.5,-19.5 158.5,-19.5 158.5,-0.5 3.5,-0.5"/>
<text text-anchor="middle" x="81" y="-7.5" font-family="Helvetica,sans-Serif" font-size="10.00">fiftyoneDegreesResourceHandle</text>
</a>
</g>
</g>
<!-- Node1&#45;&gt;Node2 -->
<g id="edge2" class="edge"><title>Node1&#45;&gt;Node2</title>
<path fill="none" stroke="#9a32cd" stroke-dasharray="5,2" d="M55.559,-61.048C51.6947,-57.6025 48.2513,-53.58 46,-49 40.2234,-37.248 52.4197,-26.5409 63.9674,-19.5093"/>
<polygon fill="#9a32cd" stroke="#9a32cd" points="53.7471,-64.0658 63.8349,-67.3039 57.9682,-58.4817 53.7471,-64.0658"/>
<text text-anchor="middle" x="66.5" y="-41" font-family="Helvetica,sans-Serif" font-size="10.00"> manager</text>
</g>
<!-- Node2&#45;&gt;Node1 -->
<g id="edge1" class="edge"><title>Node2&#45;&gt;Node1</title>
<path fill="none" stroke="#9a32cd" stroke-dasharray="5,2" d="M89.1101,-29.1575C91.0055,-35.3991 92.1719,-42.4614 91,-49 89.8712,-55.2979 87.3712,-62.0479 85.1534,-67.2235"/>
<polygon fill="#9a32cd" stroke="#9a32cd" points="92.3303,-27.7781 85.516,-19.6654 85.7839,-30.2569 92.3303,-27.7781"/>
<text text-anchor="middle" x="105" y="-41" font-family="Helvetica,sans-Serif" font-size="10.00"> active</text>
</g>
</g>
</svg>
