<?xml version="1.0" encoding="UTF-8" standalone="no"?>
<!DOCTYPE svg PUBLIC "-//W3C//DTD SVG 1.1//EN"
 "http://www.w3.org/Graphics/SVG/1.1/DTD/svg11.dtd">
<!-- Generated by graphviz version 2.38.0 (20140413.2041)
 -->
<!-- Title: fiftyoneDegreesCache Pages: 1 -->
<svg width="372pt" height="277pt"
 viewBox="0.00 0.00 371.50 277.00" xmlns="http://www.w3.org/2000/svg" xmlns:xlink="http://www.w3.org/1999/xlink">
<g id="graph0" class="graph" transform="scale(1 1) rotate(0) translate(4 273)">
<title>fiftyoneDegreesCache</title>
<!-- Node1 -->
<g id="node1" class="node"><title>Node1</title>
<g id="a_node1"><a xlink:title="Cache structure to store the root of the red black tree and a list of allocated cache nodes.">
<polygon fill="#bfbfbf" stroke="black" points="193,-158.5 193,-177.5 304,-177.5 304,-158.5 193,-158.5"/>
<text text-anchor="middle" x="248.5" y="-165.5" font-family="Helvetica,sans-Serif" font-size="10.00">fiftyoneDegreesCache</text>
</a>
</g>
</g>
<!-- Node5 -->
<g id="node5" class="node"><title>Node5</title>
<g id="a_node5"><a xlink:href="structfiftyone_degrees_cache_shard.html" target="_top" xlink:title="Cache shard structure used to enable concurrent access to the cache.">
<polygon fill="none" stroke="black" points="98,-91.5 98,-110.5 235,-110.5 235,-91.5 98,-91.5"/>
<text text-anchor="middle" x="166.5" y="-98.5" font-family="Helvetica,sans-Serif" font-size="10.00">fiftyoneDegreesCacheShard</text>
</a>
</g>
</g>
<!-- Node1&#45;&gt;Node5 -->
<g id="edge10" class="edge"><title>Node1&#45;&gt;Node5</title>
<path fill="none" stroke="#9a32cd" stroke-dasharray="5,2" d="M187.771,-154.057C181.162,-150.458 175.157,-145.863 170.5,-140 163.899,-131.689 163.987,-118.923 164.981,-110.517"/>
<polygon fill="#9a32cd" stroke="#9a32cd" points="186.543,-157.346 197.088,-158.375 189.486,-150.995 186.543,-157.346"/>
<text text-anchor="middle" x="185.5" y="-132" font-family="Helvetica,sans-Serif" font-size="10.00"> cache</text>
</g>
<!-- Node2 -->
<g id="node2" class="node"><title>Node2</title>
<g id="a_node2"><a xlink:href="structfiftyone_degrees_cache_node.html" target="_top" xlink:title="Cache node structure used for storing data in the cache along with its key.">
<polygon fill="none" stroke="black" points="150.5,-1.5 150.5,-20.5 284.5,-20.5 284.5,-1.5 150.5,-1.5"/>
<text text-anchor="middle" x="217.5" y="-8.5" font-family="Helvetica,sans-Serif" font-size="10.00">fiftyoneDegreesCacheNode</text>
</a>
</g>
</g>
<!-- Node2&#45;&gt;Node1 -->
<g id="edge1" class="edge"><title>Node2&#45;&gt;Node1</title>
<path fill="none" stroke="#9a32cd" stroke-dasharray="5,2" d="M234.37,-28.363C237.193,-31.9342 239.765,-35.8853 241.5,-40 258.921,-81.3031 253.115,-136.96 249.964,-158.235"/>
<polygon fill="#9a32cd" stroke="#9a32cd" points="236.886,-25.9259 227.601,-20.8215 231.676,-30.6015 236.886,-25.9259"/>
<text text-anchor="middle" x="268.5" y="-98.5" font-family="Helvetica,sans-Serif" font-size="10.00"> nodes</text>
</g>
<!-- Node2&#45;&gt;Node2 -->
<g id="edge2" class="edge"><title>Node2&#45;&gt;Node2</title>
<path fill="none" stroke="#9a32cd" stroke-dasharray="5,2" d="M294.688,-16.8035C299.561,-15.4395 302.5,-13.5049 302.5,-11 302.5,-7.08984 295.34,-4.56963 284.837,-3.43935"/>
<polygon fill="#9a32cd" stroke="#9a32cd" points="294.067,-13.359 284.837,-18.5607 295.296,-20.2502 294.067,-13.359"/>
<text text-anchor="middle" x="329" y="-14" font-family="Helvetica,sans-Serif" font-size="10.00"> listPrevious</text>
<text text-anchor="middle" x="329" y="-3" font-family="Helvetica,sans-Serif" font-size="10.00">listNext</text>
</g>
<!-- Node2&#45;&gt;Node5 -->
<g id="edge8" class="edge"><title>Node2&#45;&gt;Node5</title>
<path fill="none" stroke="#9a32cd" stroke-dasharray="5,2" d="M213.218,-30.76C209.758,-43.402 204.041,-60.0664 195.5,-73 190.875,-80.0033 184.072,-86.4636 178.218,-91.3079"/>
<polygon fill="#9a32cd" stroke="#9a32cd" points="216.658,-31.4314 215.693,-20.8807 209.868,-29.7307 216.658,-31.4314"/>
<text text-anchor="middle" x="224" y="-65" font-family="Helvetica,sans-Serif" font-size="10.00"> last</text>
<text text-anchor="middle" x="224" y="-54" font-family="Helvetica,sans-Serif" font-size="10.00">first</text>
<text text-anchor="middle" x="224" y="-43" font-family="Helvetica,sans-Serif" font-size="10.00">nodes</text>
</g>
<!-- Node3 -->
<g id="node3" class="node"><title>Node3</title>
<g id="a_node3"><a xlink:href="structfiftyone_degrees_tree_node.html" target="_top" xlink:title="Node structure defining a single node in the tree.">
<polygon fill="none" stroke="black" points="0,-243 0,-262 125,-262 125,-243 0,-243"/>
<text text-anchor="middle" x="62.5" y="-250" font-family="Helvetica,sans-Serif" font-size="10.00">fiftyoneDegreesTreeNode</text>
</a>
</g>
</g>
<!-- Node3&#45;&gt;Node2 -->
<g id="edge3" class="edge"><title>Node3&#45;&gt;Node2</title>
<path fill="none" stroke="#9a32cd" stroke-dasharray="5,2" d="M53.6605,-233.618C45.4669,-214.612 35.639,-183.803 43.5,-158 65.8522,-84.6305 154.68,-38.4707 196.069,-20.5266"/>
<polygon fill="#9a32cd" stroke="#9a32cd" points="50.5547,-235.241 57.9216,-242.856 56.9111,-232.309 50.5547,-235.241"/>
<text text-anchor="middle" x="66.5" y="-132" font-family="Helvetica,sans-Serif" font-size="10.00"> tree</text>
</g>
<!-- Node3&#45;&gt;Node3 -->
<g id="edge4" class="edge"><title>Node3&#45;&gt;Node3</title>
<path fill="none" stroke="#9a32cd" stroke-dasharray="5,2" d="M135.139,-258.437C140.03,-257.066 143,-255.088 143,-252.5 143,-248.461 135.764,-245.905 125.278,-244.832"/>
<polygon fill="#9a32cd" stroke="#9a32cd" points="134.522,-254.991 125.278,-260.168 135.733,-261.886 134.522,-254.991"/>
<text text-anchor="middle" x="157" y="-261" font-family="Helvetica,sans-Serif" font-size="10.00"> right</text>
<text text-anchor="middle" x="157" y="-250" font-family="Helvetica,sans-Serif" font-size="10.00">left</text>
<text text-anchor="middle" x="157" y="-239" font-family="Helvetica,sans-Serif" font-size="10.00">parent</text>
</g>
<!-- Node4 -->
<g id="node4" class="node"><title>Node4</title>
<g id="a_node4"><a xlink:href="structfiftyone_degrees_tree_root.html" target="_top" xlink:title="Tree root structure defining the beginning of the tree.">
<polygon fill="none" stroke="black" points="52.5,-158.5 52.5,-177.5 174.5,-177.5 174.5,-158.5 52.5,-158.5"/>
<text text-anchor="middle" x="113.5" y="-165.5" font-family="Helvetica,sans-Serif" font-size="10.00">fiftyoneDegreesTreeRoot</text>
</a>
</g>
</g>
<!-- Node3&#45;&gt;Node4 -->
<g id="edge6" class="edge"><title>Node3&#45;&gt;Node4</title>
<path fill="none" stroke="#9a32cd" stroke-dasharray="5,2" d="M56.437,-233.033C53.8323,-221.553 52.7338,-206.948 59.5,-196 64.735,-187.53 73.521,-181.628 82.5016,-177.554"/>
<polygon fill="#9a32cd" stroke="#9a32cd" points="53.1219,-234.174 59.1884,-242.86 59.8627,-232.287 53.1219,-234.174"/>
<text text-anchor="middle" x="73.5" y="-210" font-family="Helvetica,sans-Serif" font-size="10.00"> root</text>
<text text-anchor="middle" x="73.5" y="-199" font-family="Helvetica,sans-Serif" font-size="10.00">empty</text>
</g>
<!-- Node4&#45;&gt;Node3 -->
<g id="edge5" class="edge"><title>Node4&#45;&gt;Node3</title>
<path fill="none" stroke="#9a32cd" stroke-dasharray="5,2" d="M106.762,-187.323C102.906,-196.818 97.6208,-208.403 91.5,-218 85.626,-227.209 77.3458,-236.509 71.1361,-242.966"/>
<polygon fill="#9a32cd" stroke="#9a32cd" points="110.137,-188.297 110.475,-177.707 103.607,-185.775 110.137,-188.297"/>
<text text-anchor="middle" x="113.5" y="-204.5" font-family="Helvetica,sans-Serif" font-size="10.00"> root</text>
</g>
<!-- Node4&#45;&gt;Node5 -->
<g id="edge9" class="edge"><title>Node4&#45;&gt;Node5</title>
<path fill="none" stroke="#9a32cd" stroke-dasharray="5,2" d="M116.725,-148.251C118.519,-141.696 121.278,-134.587 125.5,-129 131.358,-121.249 140.129,-115.047 148.057,-110.551"/>
<polygon fill="#9a32cd" stroke="#9a32cd" points="113.225,-147.877 114.532,-158.391 120.067,-149.357 113.225,-147.877"/>
<text text-anchor="middle" x="135.5" y="-132" font-family="Helvetica,sans-Serif" font-size="10.00"> root</text>
</g>
<!-- Node5&#45;&gt;Node1 -->
<g id="edge12" class="edge"><title>Node5&#45;&gt;Node1</title>
<path fill="none" stroke="#9a32cd" stroke-dasharray="5,2" d="M185.571,-117.117C201.671,-129.879 224.162,-147.708 237.441,-158.234"/>
<polygon fill="#9a32cd" stroke="#9a32cd" points="187.394,-114.096 177.384,-110.627 183.046,-119.582 187.394,-114.096"/>
<text text-anchor="middle" x="229" y="-132" font-family="Helvetica,sans-Serif" font-size="10.00"> shards</text>
</g>
<!-- Node5&#45;&gt;Node2 -->
<g id="edge7" class="edge"><title>Node5&#45;&gt;Node2</title>
<path fill="none" stroke="#9a32cd" stroke-dasharray="5,2" d="M162.229,-81.2858C160.411,-68.7352 160.144,-52.3131 167.5,-40 172.755,-31.2027 181.876,-24.9518 190.9,-20.6224"/>
<polygon fill="#9a32cd" stroke="#9a32cd" points="158.79,-81.9346 164.073,-91.1178 165.67,-80.6439 158.79,-81.9346"/>
<text text-anchor="middle" x="181.5" y="-54" font-family="Helvetica,sans-Serif" font-size="10.00"> shard</text>
</g>
<!-- Node6 -->
<g id="node6" class="node"><title>Node6</title>
<g id="a_node6"><a xlink:href="structfiftyone_degrees_data.html" target="_top" xlink:title="Data structure used for reusing memory which may have been allocated in a previous operation.">
<polygon fill="none" stroke="black" points="259.5,-243 259.5,-262 363.5,-262 363.5,-243 259.5,-243"/>
<text text-anchor="middle" x="311.5" y="-250" font-family="Helvetica,sans-Serif" font-size="10.00">fiftyoneDegreesData</text>
</a>
</g>
</g>
<!-- Node6&#45;&gt;Node1 -->
<g id="edge13" class="edge"><title>Node6&#45;&gt;Node1</title>
<path fill="none" stroke="#9a32cd" stroke-dasharray="5,2" d="M298.805,-234.875C285.581,-217.558 265.382,-191.107 255.064,-177.595"/>
<polygon fill="#9a32cd" stroke="#9a32cd" points="296.144,-237.158 304.995,-242.982 301.708,-232.91 296.144,-237.158"/>
<text text-anchor="middle" x="297.5" y="-204.5" font-family="Helvetica,sans-Serif" font-size="10.00"> load</text>
</g>
<!-- Node6&#45;&gt;Node2 -->
<g id="edge11" class="edge"><title>Node6&#45;&gt;Node2</title>
<path fill="none" stroke="#9a32cd" stroke-dasharray="5,2" d="M314.126,-232.895C316.29,-213.894 318.298,-183.627 313.5,-158 302.92,-101.49 299.277,-82.446 260.5,-40 253.29,-32.1075 243.391,-25.4618 234.908,-20.6283"/>
<polygon fill="#9a32cd" stroke="#9a32cd" points="310.644,-232.533 312.852,-242.895 317.588,-233.418 310.644,-232.533"/>
<text text-anchor="middle" x="320.5" y="-132" font-family="Helvetica,sans-Serif" font-size="10.00"> data</text>
</g>
</g>
</svg>
