<?xml version="1.0" encoding="UTF-8" standalone="no"?>
<!DOCTYPE svg PUBLIC "-//W3C//DTD SVG 1.1//EN"
 "http://www.w3.org/Graphics/SVG/1.1/DTD/svg11.dtd">
<!-- Generated by graphviz version 2.38.0 (20140413.2041)
 -->
<!-- Title: fiftyoneDegreesCacheShard Pages: 1 -->
<svg width="396pt" height="344pt"
 viewBox="0.00 0.00 396.00 344.00" xmlns="http://www.w3.org/2000/svg" xmlns:xlink="http://www.w3.org/1999/xlink">
<g id="graph0" class="graph" transform="scale(1 1) rotate(0) translate(4 340)">
<title>fiftyoneDegreesCacheShard</title>
<!-- Node1 -->
<g id="node1" class="node"><title>Node1</title>
<g id="a_node1"><a xlink:title="Cache shard structure used to enable concurrent access to the cache.">
<polygon fill="#bfbfbf" stroke="black" points="174.5,-158.5 174.5,-177.5 311.5,-177.5 311.5,-158.5 174.5,-158.5"/>
<text text-anchor="middle" x="243" y="-165.5" font-family="Helvetica,sans-Serif" font-size="10.00">fiftyoneDegreesCacheShard</text>
</a>
</g>
</g>
<!-- Node2 -->
<g id="node2" class="node"><title>Node2</title>
<g id="a_node2"><a xlink:href="structfiftyone_degrees_cache_node.html" target="_top" xlink:title="Cache node structure used for storing data in the cache along with its key.">
<polygon fill="none" stroke="black" points="79,-68.5 79,-87.5 213,-87.5 213,-68.5 79,-68.5"/>
<text text-anchor="middle" x="146" y="-75.5" font-family="Helvetica,sans-Serif" font-size="10.00">fiftyoneDegreesCacheNode</text>
</a>
</g>
</g>
<!-- Node1&#45;&gt;Node2 -->
<g id="edge7" class="edge"><title>Node1&#45;&gt;Node2</title>
<path fill="none" stroke="#9a32cd" stroke-dasharray="5,2" d="M205.653,-154.392C197.622,-150.58 189.58,-145.82 183,-140 174.186,-132.204 158.074,-102.379 150.352,-87.5184"/>
<polygon fill="#9a32cd" stroke="#9a32cd" points="204.42,-157.672 214.987,-158.437 207.204,-151.249 204.42,-157.672"/>
<text text-anchor="middle" x="197" y="-121" font-family="Helvetica,sans-Serif" font-size="10.00"> shard</text>
</g>
<!-- Node6 -->
<g id="node6" class="node"><title>Node6</title>
<g id="a_node6"><a xlink:href="structfiftyone_degrees_cache.html" target="_top" xlink:title="Cache structure to store the root of the red black tree and a list of allocated cache nodes.">
<polygon fill="none" stroke="black" points="209.5,-0.5 209.5,-19.5 320.5,-19.5 320.5,-0.5 209.5,-0.5"/>
<text text-anchor="middle" x="265" y="-7.5" font-family="Helvetica,sans-Serif" font-size="10.00">fiftyoneDegreesCache</text>
</a>
</g>
</g>
<!-- Node1&#45;&gt;Node6 -->
<g id="edge12" class="edge"><title>Node1&#45;&gt;Node6</title>
<path fill="none" stroke="#9a32cd" stroke-dasharray="5,2" d="M258.099,-150.63C270.554,-135.82 287.101,-112.75 293,-89 299.381,-63.3072 282.125,-34.2529 271.913,-19.9422"/>
<polygon fill="#9a32cd" stroke="#9a32cd" points="255.304,-148.508 251.349,-158.337 260.57,-153.12 255.304,-148.508"/>
<text text-anchor="middle" x="311.5" y="-75.5" font-family="Helvetica,sans-Serif" font-size="10.00"> shards</text>
</g>
<!-- Node2&#45;&gt;Node1 -->
<g id="edge1" class="edge"><title>Node2&#45;&gt;Node1</title>
<path fill="none" stroke="#9a32cd" stroke-dasharray="5,2" d="M190.723,-91.4324C199.505,-95.3689 208.117,-100.461 215,-107 230.167,-121.41 237.92,-145.657 241.136,-158.47"/>
<polygon fill="#9a32cd" stroke="#9a32cd" points="191.783,-88.0863 181.199,-87.6005 189.17,-94.5804 191.783,-88.0863"/>
<text text-anchor="middle" x="248.5" y="-132" font-family="Helvetica,sans-Serif" font-size="10.00"> last</text>
<text text-anchor="middle" x="248.5" y="-121" font-family="Helvetica,sans-Serif" font-size="10.00">first</text>
<text text-anchor="middle" x="248.5" y="-110" font-family="Helvetica,sans-Serif" font-size="10.00">nodes</text>
</g>
<!-- Node2&#45;&gt;Node2 -->
<g id="edge2" class="edge"><title>Node2&#45;&gt;Node2</title>
<path fill="none" stroke="#9a32cd" stroke-dasharray="5,2" d="M223.541,-82.4066C228.203,-81.3573 231,-79.8884 231,-78 231,-74.9785 223.84,-73.0311 213.337,-72.1577"/>
<polygon fill="#9a32cd" stroke="#9a32cd" points="222.752,-78.9831 213.337,-83.8423 223.727,-85.9149 222.752,-78.9831"/>
<text text-anchor="middle" x="257.5" y="-81" font-family="Helvetica,sans-Serif" font-size="10.00"> listPrevious</text>
<text text-anchor="middle" x="257.5" y="-70" font-family="Helvetica,sans-Serif" font-size="10.00">listNext</text>
</g>
<!-- Node2&#45;&gt;Node6 -->
<g id="edge11" class="edge"><title>Node2&#45;&gt;Node6</title>
<path fill="none" stroke="#9a32cd" stroke-dasharray="5,2" d="M170.314,-63.5149C194.003,-50.3767 229.303,-30.7981 249.439,-19.6305"/>
<polygon fill="#9a32cd" stroke="#9a32cd" points="168.605,-60.4606 161.557,-68.3717 172,-66.5822 168.605,-60.4606"/>
<text text-anchor="middle" x="232" y="-41" font-family="Helvetica,sans-Serif" font-size="10.00"> nodes</text>
</g>
<!-- Node3 -->
<g id="node3" class="node"><title>Node3</title>
<g id="a_node3"><a xlink:href="structfiftyone_degrees_tree_node.html" target="_top" xlink:title="Node structure defining a single node in the tree.">
<polygon fill="none" stroke="black" points="125.5,-310 125.5,-329 250.5,-329 250.5,-310 125.5,-310"/>
<text text-anchor="middle" x="188" y="-317" font-family="Helvetica,sans-Serif" font-size="10.00">fiftyoneDegreesTreeNode</text>
</a>
</g>
</g>
<!-- Node3&#45;&gt;Node2 -->
<g id="edge3" class="edge"><title>Node3&#45;&gt;Node2</title>
<path fill="none" stroke="#9a32cd" stroke-dasharray="5,2" d="M180.778,-300.116C179.044,-295.253 177.315,-289.972 176,-285 156.221,-210.23 148.546,-116.515 146.56,-87.7774"/>
<polygon fill="#9a32cd" stroke="#9a32cd" points="177.629,-301.685 184.426,-309.813 184.181,-299.221 177.629,-301.685"/>
<text text-anchor="middle" x="170" y="-199" font-family="Helvetica,sans-Serif" font-size="10.00"> tree</text>
</g>
<!-- Node3&#45;&gt;Node3 -->
<g id="edge4" class="edge"><title>Node3&#45;&gt;Node3</title>
<path fill="none" stroke="#9a32cd" stroke-dasharray="5,2" d="M260.639,-325.437C265.53,-324.066 268.5,-322.088 268.5,-319.5 268.5,-315.461 261.264,-312.905 250.778,-311.832"/>
<polygon fill="#9a32cd" stroke="#9a32cd" points="260.022,-321.991 250.778,-327.168 261.233,-328.886 260.022,-321.991"/>
<text text-anchor="middle" x="282.5" y="-328" font-family="Helvetica,sans-Serif" font-size="10.00"> right</text>
<text text-anchor="middle" x="282.5" y="-317" font-family="Helvetica,sans-Serif" font-size="10.00">left</text>
<text text-anchor="middle" x="282.5" y="-306" font-family="Helvetica,sans-Serif" font-size="10.00">parent</text>
</g>
<!-- Node4 -->
<g id="node4" class="node"><title>Node4</title>
<g id="a_node4"><a xlink:href="structfiftyone_degrees_tree_root.html" target="_top" xlink:title="Tree root structure defining the beginning of the tree.">
<polygon fill="none" stroke="black" points="178,-225.5 178,-244.5 300,-244.5 300,-225.5 178,-225.5"/>
<text text-anchor="middle" x="239" y="-232.5" font-family="Helvetica,sans-Serif" font-size="10.00">fiftyoneDegreesTreeRoot</text>
</a>
</g>
</g>
<!-- Node3&#45;&gt;Node4 -->
<g id="edge6" class="edge"><title>Node3&#45;&gt;Node4</title>
<path fill="none" stroke="#9a32cd" stroke-dasharray="5,2" d="M181.937,-300.033C179.332,-288.553 178.234,-273.948 185,-263 190.235,-254.53 199.021,-248.628 208.002,-244.554"/>
<polygon fill="#9a32cd" stroke="#9a32cd" points="178.622,-301.174 184.688,-309.86 185.363,-299.287 178.622,-301.174"/>
<text text-anchor="middle" x="199" y="-277" font-family="Helvetica,sans-Serif" font-size="10.00"> root</text>
<text text-anchor="middle" x="199" y="-266" font-family="Helvetica,sans-Serif" font-size="10.00">empty</text>
</g>
<!-- Node4&#45;&gt;Node1 -->
<g id="edge9" class="edge"><title>Node4&#45;&gt;Node1</title>
<path fill="none" stroke="#9a32cd" stroke-dasharray="5,2" d="M240.167,-215.037C240.928,-202.67 241.885,-187.12 242.469,-177.627"/>
<polygon fill="#9a32cd" stroke="#9a32cd" points="236.66,-215.038 239.539,-225.234 243.647,-215.468 236.66,-215.038"/>
<text text-anchor="middle" x="252" y="-199" font-family="Helvetica,sans-Serif" font-size="10.00"> root</text>
</g>
<!-- Node4&#45;&gt;Node3 -->
<g id="edge5" class="edge"><title>Node4&#45;&gt;Node3</title>
<path fill="none" stroke="#9a32cd" stroke-dasharray="5,2" d="M232.262,-254.323C228.406,-263.818 223.121,-275.403 217,-285 211.126,-294.209 202.846,-303.509 196.636,-309.966"/>
<polygon fill="#9a32cd" stroke="#9a32cd" points="235.637,-255.297 235.975,-244.707 229.107,-252.775 235.637,-255.297"/>
<text text-anchor="middle" x="239" y="-271.5" font-family="Helvetica,sans-Serif" font-size="10.00"> root</text>
</g>
<!-- Node5 -->
<g id="node5" class="node"><title>Node5</title>
<g id="a_node5"><a xlink:href="structfiftyone_degrees_data.html" target="_top" xlink:title="Data structure used for reusing memory which may have been allocated in a previous operation.">
<polygon fill="none" stroke="black" points="0,-158.5 0,-177.5 104,-177.5 104,-158.5 0,-158.5"/>
<text text-anchor="middle" x="52" y="-165.5" font-family="Helvetica,sans-Serif" font-size="10.00">fiftyoneDegreesData</text>
</a>
</g>
</g>
<!-- Node5&#45;&gt;Node2 -->
<g id="edge8" class="edge"><title>Node5&#45;&gt;Node2</title>
<path fill="none" stroke="#9a32cd" stroke-dasharray="5,2" d="M66.5294,-150.761C77.9236,-138.331 94.4099,-120.999 110,-107 117.659,-100.123 126.822,-93.0098 133.988,-87.6739"/>
<polygon fill="#9a32cd" stroke="#9a32cd" points="63.6524,-148.724 59.5282,-158.483 68.8382,-153.425 63.6524,-148.724"/>
<text text-anchor="middle" x="121" y="-121" font-family="Helvetica,sans-Serif" font-size="10.00"> data</text>
</g>
<!-- Node5&#45;&gt;Node6 -->
<g id="edge13" class="edge"><title>Node5&#45;&gt;Node6</title>
<path fill="none" stroke="#9a32cd" stroke-dasharray="5,2" d="M44.855,-148.723C37.6317,-126.889 29.8852,-90.383 48,-67 67.6284,-41.6632 151.866,-25.7445 209.425,-17.6154"/>
<polygon fill="#9a32cd" stroke="#9a32cd" points="41.6596,-150.18 48.3441,-158.4 48.2446,-147.806 41.6596,-150.18"/>
<text text-anchor="middle" x="59" y="-75.5" font-family="Helvetica,sans-Serif" font-size="10.00"> load</text>
</g>
<!-- Node6&#45;&gt;Node1 -->
<g id="edge10" class="edge"><title>Node6&#45;&gt;Node1</title>
<path fill="none" stroke="#9a32cd" stroke-dasharray="5,2" d="M306.443,-23.1359C316.007,-27.0129 325.777,-31.9204 334,-38 353.994,-52.782 362.228,-64.6907 357,-89 351.772,-113.309 352.73,-123.646 334,-140 324.193,-148.563 311.773,-154.412 299.287,-158.407"/>
<polygon fill="#9a32cd" stroke="#9a32cd" points="307.606,-19.834 297.014,-19.5971 305.147,-26.3877 307.606,-19.834"/>
<text text-anchor="middle" x="373" y="-75.5" font-family="Helvetica,sans-Serif" font-size="10.00"> cache</text>
</g>
</g>
</svg>
