<?xml version="1.0" encoding="UTF-8" standalone="no"?>
<!DOCTYPE svg PUBLIC "-//W3C//DTD SVG 1.1//EN"
 "http://www.w3.org/Graphics/SVG/1.1/DTD/svg11.dtd">
<!-- Generated by graphviz version 2.38.0 (20140413.2041)
 -->
<!-- Title: fiftyoneDegreesDataSetBase Pages: 1 -->
<svg width="1455pt" height="283pt"
 viewBox="0.00 0.00 1455.00 283.00" xmlns="http://www.w3.org/2000/svg" xmlns:xlink="http://www.w3.org/1999/xlink">
<g id="graph0" class="graph" transform="scale(1 1) rotate(0) translate(4 279)">
<title>fiftyoneDegreesDataSetBase</title>
<!-- Node1 -->
<g id="node1" class="node"><title>Node1</title>
<g id="a_node1"><a xlink:title="Base data set structure which contains the &#39;must have&#39;s for all data sets.">
<polygon fill="#bfbfbf" stroke="black" points="1295.5,-130.5 1295.5,-149.5 1436.5,-149.5 1436.5,-130.5 1295.5,-130.5"/>
<text text-anchor="middle" x="1366" y="-137.5" font-family="Helvetica,sans-Serif" font-size="10.00">fiftyoneDegreesDataSetBase</text>
</a>
</g>
</g>
<!-- Node2 -->
<g id="node2" class="node"><title>Node2</title>
<g id="a_node2"><a xlink:href="structfiftyone_degrees_header_array.html" target="_top" xlink:title="Array of items of type fiftyoneDegreesHeader used to easily access and track the size of the array.">
<polygon fill="none" stroke="black" points="879.5,-233.5 879.5,-252.5 1016.5,-252.5 1016.5,-233.5 879.5,-233.5"/>
<text text-anchor="middle" x="948" y="-240.5" font-family="Helvetica,sans-Serif" font-size="10.00">fiftyoneDegreesHeaderArray</text>
</a>
</g>
</g>
<!-- Node2&#45;&gt;Node1 -->
<g id="edge1" class="edge"><title>Node2&#45;&gt;Node1</title>
<path fill="none" stroke="#9a32cd" stroke-dasharray="5,2" d="M1026.85,-237.473C1076.92,-232.694 1143.03,-224.086 1200,-209 1231.04,-200.782 1237.35,-194.324 1267,-182 1293.15,-171.128 1323.05,-158.25 1342.87,-149.646"/>
<polygon fill="#9a32cd" stroke="#9a32cd" points="1026.38,-234.002 1016.74,-238.407 1027.02,-240.973 1026.38,-234.002"/>
<text text-anchor="middle" x="1122.5" y="-239" font-family="Helvetica,sans-Serif" font-size="10.00"> uniqueHeaders</text>
</g>
<!-- Node3 -->
<g id="node3" class="node"><title>Node3</title>
<g id="a_node3"><a xlink:href="structfiftyone_degrees_header.html" target="_top" xlink:title="Header structure containing the name and unique id.">
<polygon fill="none" stroke="black" points="564,-255.5 564,-274.5 678,-274.5 678,-255.5 564,-255.5"/>
<text text-anchor="middle" x="621" y="-262.5" font-family="Helvetica,sans-Serif" font-size="10.00">fiftyoneDegreesHeader</text>
</a>
</g>
</g>
<!-- Node3&#45;&gt;Node2 -->
<g id="edge2" class="edge"><title>Node3&#45;&gt;Node2</title>
<path fill="none" stroke="#9a32cd" stroke-dasharray="5,2" d="M688.356,-260.508C744.059,-256.738 823.299,-251.374 879.36,-247.579"/>
<polygon fill="#9a32cd" stroke="#9a32cd" points="687.98,-257.026 678.24,-261.193 688.453,-264.01 687.98,-257.026"/>
<text text-anchor="middle" x="773.5" y="-263" font-family="Helvetica,sans-Serif" font-size="10.00"> items</text>
</g>
<!-- Node4 -->
<g id="node4" class="node"><title>Node4</title>
<g id="a_node4"><a xlink:href="structfiftyone_degrees_collection_item.html" target="_top" xlink:title="Used to store a handle to the underlying item that could be used to release the item when it&#39;s finish...">
<polygon fill="none" stroke="black" points="162,-183.5 162,-202.5 307,-202.5 307,-183.5 162,-183.5"/>
<text text-anchor="middle" x="234.5" y="-190.5" font-family="Helvetica,sans-Serif" font-size="10.00">fiftyoneDegreesCollectionItem</text>
</a>
</g>
</g>
<!-- Node4&#45;&gt;Node3 -->
<g id="edge3" class="edge"><title>Node4&#45;&gt;Node3</title>
<path fill="none" stroke="#9a32cd" stroke-dasharray="5,2" d="M265.726,-206.688C295.988,-219.72 344.223,-238.686 388,-248 447.055,-260.565 516.256,-264.252 563.613,-265.145"/>
<polygon fill="#9a32cd" stroke="#9a32cd" points="266.749,-203.316 256.184,-202.519 263.946,-209.73 266.749,-203.316"/>
<text text-anchor="middle" x="347.5" y="-247" font-family="Helvetica,sans-Serif" font-size="10.00"> name</text>
</g>
<!-- Node5 -->
<g id="node5" class="node"><title>Node5</title>
<g id="a_node5"><a xlink:href="structfiftyone_degrees_collection.html" target="_top" xlink:title="All the shared methods and fields required by file, memory and cached collections.">
<polygon fill="none" stroke="black" points="404,-168.5 404,-187.5 530,-187.5 530,-168.5 404,-168.5"/>
<text text-anchor="middle" x="467" y="-175.5" font-family="Helvetica,sans-Serif" font-size="10.00">fiftyoneDegreesCollection</text>
</a>
</g>
</g>
<!-- Node4&#45;&gt;Node5 -->
<g id="edge5" class="edge"><title>Node4&#45;&gt;Node5</title>
<path fill="none" stroke="#9a32cd" stroke-dasharray="5,2" d="M317.239,-190.833C334.664,-190.127 352.951,-189.204 370,-188 380.948,-187.227 392.579,-186.195 403.826,-185.087"/>
<polygon fill="#9a32cd" stroke="#9a32cd" points="316.953,-187.342 307.095,-191.224 317.222,-194.337 316.953,-187.342"/>
<text text-anchor="middle" x="347.5" y="-194" font-family="Helvetica,sans-Serif" font-size="10.00"> release</text>
</g>
<!-- Node15 -->
<g id="node15" class="node"><title>Node15</title>
<g id="a_node15"><a xlink:href="structfiftyone_degrees_property_available.html" target="_top" xlink:title="Used to access the property item quickly without the need to search.">
<polygon fill="none" stroke="black" points="388,-130.5 388,-149.5 546,-149.5 546,-130.5 388,-130.5"/>
<text text-anchor="middle" x="467" y="-137.5" font-family="Helvetica,sans-Serif" font-size="10.00">fiftyoneDegreesPropertyAvailable</text>
</a>
</g>
</g>
<!-- Node4&#45;&gt;Node15 -->
<g id="edge20" class="edge"><title>Node4&#45;&gt;Node15</title>
<path fill="none" stroke="#9a32cd" stroke-dasharray="5,2" d="M266.926,-179.548C283.857,-172.78 305.268,-164.977 325,-160 345.138,-154.921 367.241,-151.021 387.852,-148.074"/>
<polygon fill="#9a32cd" stroke="#9a32cd" points="265.458,-176.367 257.521,-183.385 268.103,-182.848 265.458,-176.367"/>
<text text-anchor="middle" x="347.5" y="-163" font-family="Helvetica,sans-Serif" font-size="10.00"> name</text>
</g>
<!-- Node5&#45;&gt;Node4 -->
<g id="edge4" class="edge"><title>Node5&#45;&gt;Node4</title>
<path fill="none" stroke="#9a32cd" stroke-dasharray="5,2" d="M393.492,-174.837C371.461,-174.589 347.208,-175.031 325,-177 310.221,-178.311 294.228,-180.816 279.905,-183.462"/>
<polygon fill="#9a32cd" stroke="#9a32cd" points="393.72,-178.342 403.776,-175.004 393.834,-171.342 393.72,-178.342"/>
<text text-anchor="middle" x="347.5" y="-180" font-family="Helvetica,sans-Serif" font-size="10.00"> collection</text>
</g>
<!-- Node5&#45;&gt;Node5 -->
<g id="edge6" class="edge"><title>Node5&#45;&gt;Node5</title>
<path fill="none" stroke="#9a32cd" stroke-dasharray="5,2" d="M445.051,-197.029C446.248,-202.128 453.564,-206 467,-206 487.973,-206 494.035,-196.565 485.187,-187.757"/>
<polygon fill="#9a32cd" stroke="#9a32cd" points="448.296,-198.339 448.813,-187.757 441.81,-195.707 448.296,-198.339"/>
<text text-anchor="middle" x="467" y="-231" font-family="Helvetica,sans-Serif" font-size="10.00"> next</text>
<text text-anchor="middle" x="467" y="-220" font-family="Helvetica,sans-Serif" font-size="10.00">freeCollection</text>
<text text-anchor="middle" x="467" y="-209" font-family="Helvetica,sans-Serif" font-size="10.00">get</text>
</g>
<!-- Node6 -->
<g id="node6" class="node"><title>Node6</title>
<g id="a_node6"><a xlink:href="structfiftyone_degrees_data.html" target="_top" xlink:title="Data structure used for reusing memory which may have been allocated in a previous operation.">
<polygon fill="none" stroke="black" points="0,-183.5 0,-202.5 104,-202.5 104,-183.5 0,-183.5"/>
<text text-anchor="middle" x="52" y="-190.5" font-family="Helvetica,sans-Serif" font-size="10.00">fiftyoneDegreesData</text>
</a>
</g>
</g>
<!-- Node6&#45;&gt;Node4 -->
<g id="edge7" class="edge"><title>Node6&#45;&gt;Node4</title>
<path fill="none" stroke="#9a32cd" stroke-dasharray="5,2" d="M114.569,-193C129.802,-193 146.253,-193 161.919,-193"/>
<polygon fill="#9a32cd" stroke="#9a32cd" points="114.241,-189.5 104.241,-193 114.241,-196.5 114.241,-189.5"/>
<text text-anchor="middle" x="133" y="-196" font-family="Helvetica,sans-Serif" font-size="10.00"> data</text>
</g>
<!-- Node7 -->
<g id="node7" class="node"><title>Node7</title>
<g id="a_node7"><a xlink:href="structfiftyone_degrees_resource_handle.html" target="_top" xlink:title="Tracks the number of active uses of the resource within the manager.">
<polygon fill="none" stroke="black" points="1045,-38.5 1045,-57.5 1200,-57.5 1200,-38.5 1045,-38.5"/>
<text text-anchor="middle" x="1122.5" y="-45.5" font-family="Helvetica,sans-Serif" font-size="10.00">fiftyoneDegreesResourceHandle</text>
</a>
</g>
</g>
<!-- Node7&#45;&gt;Node1 -->
<g id="edge8" class="edge"><title>Node7&#45;&gt;Node1</title>
<path fill="none" stroke="#9a32cd" stroke-dasharray="5,2" d="M1171.87,-60.2546C1200.04,-67.9408 1235.99,-78.7088 1267,-91 1296.35,-102.636 1328.85,-119.785 1348.06,-130.404"/>
<polygon fill="#9a32cd" stroke="#9a32cd" points="1172.44,-56.7826 1161.88,-57.5652 1170.62,-63.5424 1172.44,-56.7826"/>
<text text-anchor="middle" x="1242.5" y="-94" font-family="Helvetica,sans-Serif" font-size="10.00"> handle</text>
</g>
<!-- Node8 -->
<g id="node8" class="node"><title>Node8</title>
<g id="a_node8"><a xlink:href="structfiftyone_degrees_resource_manager.html" target="_top" xlink:title="Manager structure used to provide access to a shared and changing resource.">
<polygon fill="none" stroke="black" points="1285,-19.5 1285,-38.5 1447,-38.5 1447,-19.5 1285,-19.5"/>
<text text-anchor="middle" x="1366" y="-26.5" font-family="Helvetica,sans-Serif" font-size="10.00">fiftyoneDegreesResourceManager</text>
</a>
</g>
</g>
<!-- Node7&#45;&gt;Node8 -->
<g id="edge10" class="edge"><title>Node7&#45;&gt;Node8</title>
<path fill="none" stroke="#9a32cd" stroke-dasharray="5,2" d="M1176.01,-35.9002C1184.09,-33.767 1192.3,-31.4416 1200,-29 1208.18,-26.4047 1209.56,-23.5827 1218,-22 1244.74,-16.9828 1274.68,-17.3516 1300.52,-19.4933"/>
<polygon fill="#9a32cd" stroke="#9a32cd" points="1175.07,-32.5264 1166.26,-38.4017 1176.81,-39.3068 1175.07,-32.5264"/>
<text text-anchor="middle" x="1242.5" y="-25" font-family="Helvetica,sans-Serif" font-size="10.00"> active</text>
</g>
<!-- Node8&#45;&gt;Node7 -->
<g id="edge9" class="edge"><title>Node8&#45;&gt;Node7</title>
<path fill="none" stroke="#9a32cd" stroke-dasharray="5,2" d="M1274.7,-36.1047C1250.2,-38.0319 1223.91,-40.0999 1200.24,-41.9622"/>
<polygon fill="#9a32cd" stroke="#9a32cd" points="1275.01,-39.5906 1284.71,-35.317 1274.46,-32.6122 1275.01,-39.5906"/>
<text text-anchor="middle" x="1242.5" y="-44" font-family="Helvetica,sans-Serif" font-size="10.00"> manager</text>
</g>
<!-- Node9 -->
<g id="node9" class="node"><title>Node9</title>
<g id="a_node9"><a xlink:href="structfiftyone_degrees_file_pool.html" target="_top" xlink:title="Stack of handles used to read data from a single source file.">
<polygon fill="none" stroke="black" points="1063,-80.5 1063,-99.5 1182,-99.5 1182,-80.5 1063,-80.5"/>
<text text-anchor="middle" x="1122.5" y="-87.5" font-family="Helvetica,sans-Serif" font-size="10.00">fiftyoneDegreesFilePool</text>
</a>
</g>
</g>
<!-- Node9&#45;&gt;Node1 -->
<g id="edge11" class="edge"><title>Node9&#45;&gt;Node1</title>
<path fill="none" stroke="#9a32cd" stroke-dasharray="5,2" d="M1192.32,-100.879C1216.06,-104.926 1242.77,-109.806 1267,-115 1288.12,-119.526 1311.57,-125.474 1330.23,-130.433"/>
<polygon fill="#9a32cd" stroke="#9a32cd" points="1192.79,-97.4085 1182.35,-99.1974 1191.62,-104.311 1192.79,-97.4085"/>
<text text-anchor="middle" x="1242.5" y="-118" font-family="Helvetica,sans-Serif" font-size="10.00"> filePool</text>
</g>
<!-- Node10 -->
<g id="node10" class="node"><title>Node10</title>
<g id="a_node10"><a xlink:href="structfiftyone_degrees_pool.html" target="_top" xlink:title="Pool of resources stored as items in a stack.">
<polygon fill="none" stroke="black" points="722,-34.5 722,-53.5 825,-53.5 825,-34.5 722,-34.5"/>
<text text-anchor="middle" x="773.5" y="-41.5" font-family="Helvetica,sans-Serif" font-size="10.00">fiftyoneDegreesPool</text>
</a>
</g>
</g>
<!-- Node10&#45;&gt;Node9 -->
<g id="edge12" class="edge"><title>Node10&#45;&gt;Node9</title>
<path fill="none" stroke="#9a32cd" stroke-dasharray="5,2" d="M835.298,-52.0596C899.42,-60.56 999.747,-73.8599 1062.99,-82.2439"/>
<polygon fill="#9a32cd" stroke="#9a32cd" points="835.702,-48.5827 825.328,-50.7381 834.782,-55.5219 835.702,-48.5827"/>
<text text-anchor="middle" x="948" y="-80" font-family="Helvetica,sans-Serif" font-size="10.00"> pool</text>
</g>
<!-- Node10&#45;&gt;Node10 -->
<g id="edge13" class="edge"><title>Node10&#45;&gt;Node10</title>
<path fill="none" stroke="#9a32cd" stroke-dasharray="5,2" d="M745.128,-62.6539C746.314,-67.9368 755.771,-72 773.5,-72 800.516,-72 808.325,-62.5653 796.928,-53.7571"/>
<polygon fill="#9a32cd" stroke="#9a32cd" points="748.274,-64.1981 750.072,-53.7571 742.155,-60.7974 748.274,-64.1981"/>
<text text-anchor="middle" x="773.5" y="-75" font-family="Helvetica,sans-Serif" font-size="10.00"> resourceFree</text>
</g>
<!-- Node12 -->
<g id="node12" class="node"><title>Node12</title>
<g id="a_node12"><a xlink:href="structfiftyone_degrees_pool_item.html" target="_top" xlink:title="Pool item node in the stack of items.">
<polygon fill="none" stroke="black" points="1061.5,-0.5 1061.5,-19.5 1183.5,-19.5 1183.5,-0.5 1061.5,-0.5"/>
<text text-anchor="middle" x="1122.5" y="-7.5" font-family="Helvetica,sans-Serif" font-size="10.00">fiftyoneDegreesPoolItem</text>
</a>
</g>
</g>
<!-- Node10&#45;&gt;Node12 -->
<g id="edge16" class="edge"><title>Node10&#45;&gt;Node12</title>
<path fill="none" stroke="#9a32cd" stroke-dasharray="5,2" d="M835.566,-39.357C886.746,-35.3032 961.712,-28.9868 1027,-22 1038.1,-20.8122 1049.92,-19.4165 1061.3,-18.0051"/>
<polygon fill="#9a32cd" stroke="#9a32cd" points="835.033,-35.8881 825.338,-40.1621 835.582,-42.8665 835.033,-35.8881"/>
<text text-anchor="middle" x="948" y="-40" font-family="Helvetica,sans-Serif" font-size="10.00"> pool</text>
</g>
<!-- Node11 -->
<g id="node11" class="node"><title>Node11</title>
<g id="a_node11"><a xlink:href="unionfiftyone_degrees_pool_head.html" target="_top" xlink:title="The head of the stack used for pop and push operations.">
<polygon fill="none" stroke="black" points="404.5,-34.5 404.5,-53.5 529.5,-53.5 529.5,-34.5 404.5,-34.5"/>
<text text-anchor="middle" x="467" y="-41.5" font-family="Helvetica,sans-Serif" font-size="10.00">fiftyoneDegreesPoolHead</text>
</a>
</g>
</g>
<!-- Node11&#45;&gt;Node10 -->
<g id="edge14" class="edge"><title>Node11&#45;&gt;Node10</title>
<path fill="none" stroke="#9a32cd" stroke-dasharray="5,2" d="M539.806,-44C595.681,-44 671.835,-44 721.571,-44"/>
<polygon fill="#9a32cd" stroke="#9a32cd" points="539.62,-40.5001 529.62,-44 539.62,-47.5001 539.62,-40.5001"/>
<text text-anchor="middle" x="621" y="-47" font-family="Helvetica,sans-Serif" font-size="10.00"> head</text>
</g>
<!-- Node12&#45;&gt;Node10 -->
<g id="edge15" class="edge"><title>Node12&#45;&gt;Node10</title>
<path fill="none" stroke="#9a32cd" stroke-dasharray="5,2" d="M1051.08,-4.08282C1000.13,-1.30132 929.833,-0.559813 869,-11 842.795,-15.4973 814.158,-26.4063 795.357,-34.4566"/>
<polygon fill="#9a32cd" stroke="#9a32cd" points="1051.14,-7.59211 1061.33,-4.68376 1051.55,-0.604125 1051.14,-7.59211"/>
<text text-anchor="middle" x="948" y="-14" font-family="Helvetica,sans-Serif" font-size="10.00"> stack</text>
</g>
<!-- Node13 -->
<g id="node13" class="node"><title>Node13</title>
<g id="a_node13"><a xlink:href="structfiftyone_degrees_override_property_array.html" target="_top" xlink:title="Array of items of type fiftyoneDegreesOverrideProperty used to easily access and track the size of th...">
<polygon fill="none" stroke="black" points="1045,-170 1045,-200 1200,-200 1200,-170 1045,-170"/>
<text text-anchor="start" x="1053" y="-188" font-family="Helvetica,sans-Serif" font-size="10.00">fiftyoneDegreesOverrideProperty</text>
<text text-anchor="middle" x="1122.5" y="-177" font-family="Helvetica,sans-Serif" font-size="10.00">Array</text>
</a>
</g>
</g>
<!-- Node13&#45;&gt;Node1 -->
<g id="edge17" class="edge"><title>Node13&#45;&gt;Node1</title>
<path fill="none" stroke="#9a32cd" stroke-dasharray="5,2" d="M1210.4,-168.807C1245.14,-162.333 1283.95,-155.102 1314,-149.503"/>
<polygon fill="#9a32cd" stroke="#9a32cd" points="1209.43,-165.427 1200.24,-170.7 1210.72,-172.309 1209.43,-165.427"/>
<text text-anchor="middle" x="1242.5" y="-170" font-family="Helvetica,sans-Serif" font-size="10.00"> overridable</text>
</g>
<!-- Node14 -->
<g id="node14" class="node"><title>Node14</title>
<g id="a_node14"><a xlink:href="structfiftyone_degrees_override_property.html" target="_top" xlink:title="Index and pointer to a property which can be overridden.">
<polygon fill="none" stroke="black" points="696,-171.5 696,-190.5 851,-190.5 851,-171.5 696,-171.5"/>
<text text-anchor="middle" x="773.5" y="-178.5" font-family="Helvetica,sans-Serif" font-size="10.00">fiftyoneDegreesOverrideProperty</text>
</a>
</g>
</g>
<!-- Node14&#45;&gt;Node13 -->
<g id="edge18" class="edge"><title>Node14&#45;&gt;Node13</title>
<path fill="none" stroke="#9a32cd" stroke-dasharray="5,2" d="M861.409,-182.002C917.794,-182.652 990.586,-183.491 1044.82,-184.116"/>
<polygon fill="#9a32cd" stroke="#9a32cd" points="861.12,-178.498 851.08,-181.883 861.039,-185.498 861.12,-178.498"/>
<text text-anchor="middle" x="948" y="-187" font-family="Helvetica,sans-Serif" font-size="10.00"> items</text>
</g>
<!-- Node15&#45;&gt;Node14 -->
<g id="edge19" class="edge"><title>Node15&#45;&gt;Node14</title>
<path fill="none" stroke="#9a32cd" stroke-dasharray="5,2" d="M542.258,-150.95C549.602,-151.997 556.945,-153.029 564,-154 607.933,-160.048 657.13,-166.437 696.697,-171.481"/>
<polygon fill="#9a32cd" stroke="#9a32cd" points="542.666,-147.473 532.27,-149.518 541.672,-154.402 542.666,-147.473"/>
<text text-anchor="middle" x="621" y="-173" font-family="Helvetica,sans-Serif" font-size="10.00"> available</text>
</g>
<!-- Node16 -->
<g id="node16" class="node"><title>Node16</title>
<g id="a_node16"><a xlink:href="structfiftyone_degrees_property_available_array.html" target="_top" xlink:title="Array of items of type fiftyoneDegreesPropertyAvailable used to easily access and track the size of t...">
<polygon fill="none" stroke="black" points="869,-125 869,-155 1027,-155 1027,-125 869,-125"/>
<text text-anchor="start" x="877" y="-143" font-family="Helvetica,sans-Serif" font-size="10.00">fiftyoneDegreesPropertyAvailable</text>
<text text-anchor="middle" x="948" y="-132" font-family="Helvetica,sans-Serif" font-size="10.00">Array</text>
</a>
</g>
</g>
<!-- Node15&#45;&gt;Node16 -->
<g id="edge22" class="edge"><title>Node15&#45;&gt;Node16</title>
<path fill="none" stroke="#9a32cd" stroke-dasharray="5,2" d="M556.243,-139.046C558.857,-139.029 561.448,-139.013 564,-139 669.557,-138.45 791.479,-138.967 868.879,-139.439"/>
<polygon fill="#9a32cd" stroke="#9a32cd" points="556.039,-135.547 546.065,-139.119 556.09,-142.547 556.039,-135.547"/>
<text text-anchor="middle" x="621" y="-142" font-family="Helvetica,sans-Serif" font-size="10.00"> items</text>
</g>
<!-- Node16&#45;&gt;Node1 -->
<g id="edge21" class="edge"><title>Node16&#45;&gt;Node1</title>
<path fill="none" stroke="#9a32cd" stroke-dasharray="5,2" d="M1037.41,-140C1114.41,-140 1224.53,-140 1295.4,-140"/>
<polygon fill="#9a32cd" stroke="#9a32cd" points="1037.25,-136.5 1027.25,-140 1037.25,-143.5 1037.25,-136.5"/>
<text text-anchor="middle" x="1122.5" y="-143" font-family="Helvetica,sans-Serif" font-size="10.00"> available</text>
</g>
</g>
</svg>
