<?xml version="1.0" encoding="UTF-8" standalone="no"?>
<!DOCTYPE svg PUBLIC "-//W3C//DTD SVG 1.1//EN"
 "http://www.w3.org/Graphics/SVG/1.1/DTD/svg11.dtd">
<!-- Generated by graphviz version 2.38.0 (20140413.2041)
 -->
<!-- Title: fiftyoneDegreesHeaderArray Pages: 1 -->
<svg width="355pt" height="242pt"
 viewBox="0.00 0.00 354.50 242.00" xmlns="http://www.w3.org/2000/svg" xmlns:xlink="http://www.w3.org/1999/xlink">
<g id="graph0" class="graph" transform="scale(1 1) rotate(0) translate(4 238)">
<title>fiftyoneDegreesHeaderArray</title>
<!-- Node1 -->
<g id="node1" class="node"><title>Node1</title>
<g id="a_node1"><a xlink:title="Array of items of type fiftyoneDegreesHeader used to easily access and track the size of the array.">
<polygon fill="#bfbfbf" stroke="black" points="0,-0.5 0,-19.5 137,-19.5 137,-0.5 0,-0.5"/>
<text text-anchor="middle" x="68.5" y="-7.5" font-family="Helvetica,sans-Serif" font-size="10.00">fiftyoneDegreesHeaderArray</text>
</a>
</g>
</g>
<!-- Node2 -->
<g id="node2" class="node"><title>Node2</title>
<g id="a_node2"><a xlink:href="structfiftyone_degrees_header.html" target="_top" xlink:title="Header structure containing the name and unique id.">
<polygon fill="none" stroke="black" points="11.5,-74 11.5,-93 125.5,-93 125.5,-74 11.5,-74"/>
<text text-anchor="middle" x="68.5" y="-81" font-family="Helvetica,sans-Serif" font-size="10.00">fiftyoneDegreesHeader</text>
</a>
</g>
</g>
<!-- Node2&#45;&gt;Node1 -->
<g id="edge1" class="edge"><title>Node2&#45;&gt;Node1</title>
<path fill="none" stroke="#9a32cd" stroke-dasharray="5,2" d="M68.5,-63.5936C68.5,-49.433 68.5,-30.7019 68.5,-19.839"/>
<polygon fill="#9a32cd" stroke="#9a32cd" points="65.0001,-63.7327 68.5,-73.7327 72.0001,-63.7327 65.0001,-63.7327"/>
<text text-anchor="middle" x="82.5" y="-41" font-family="Helvetica,sans-Serif" font-size="10.00"> items</text>
</g>
<!-- Node3 -->
<g id="node3" class="node"><title>Node3</title>
<g id="a_node3"><a xlink:href="structfiftyone_degrees_collection_item.html" target="_top" xlink:title="Used to store a handle to the underlying item that could be used to release the item when it&#39;s finish...">
<polygon fill="none" stroke="black" points="76,-147.5 76,-166.5 221,-166.5 221,-147.5 76,-147.5"/>
<text text-anchor="middle" x="148.5" y="-154.5" font-family="Helvetica,sans-Serif" font-size="10.00">fiftyoneDegreesCollectionItem</text>
</a>
</g>
</g>
<!-- Node3&#45;&gt;Node2 -->
<g id="edge2" class="edge"><title>Node3&#45;&gt;Node2</title>
<path fill="none" stroke="#9a32cd" stroke-dasharray="5,2" d="M126.774,-141.671C121.3,-137.764 115.548,-133.392 110.5,-129 97.3563,-117.564 83.8161,-102.518 75.7817,-93.18"/>
<polygon fill="#9a32cd" stroke="#9a32cd" points="124.79,-144.554 135.006,-147.362 128.771,-138.796 124.79,-144.554"/>
<text text-anchor="middle" x="124.5" y="-121" font-family="Helvetica,sans-Serif" font-size="10.00"> name</text>
</g>
<!-- Node4 -->
<g id="node4" class="node"><title>Node4</title>
<g id="a_node4"><a xlink:href="structfiftyone_degrees_collection.html" target="_top" xlink:title="All the shared methods and fields required by file, memory and cached collections.">
<polygon fill="none" stroke="black" points="143.5,-74 143.5,-93 269.5,-93 269.5,-74 143.5,-74"/>
<text text-anchor="middle" x="206.5" y="-81" font-family="Helvetica,sans-Serif" font-size="10.00">fiftyoneDegreesCollection</text>
</a>
</g>
</g>
<!-- Node3&#45;&gt;Node4 -->
<g id="edge4" class="edge"><title>Node3&#45;&gt;Node4</title>
<path fill="none" stroke="#9a32cd" stroke-dasharray="5,2" d="M142.76,-137.198C141.851,-130.731 142.132,-123.692 145.5,-118 152.514,-106.146 165.378,-98.2062 177.49,-93.0454"/>
<polygon fill="#9a32cd" stroke="#9a32cd" points="139.411,-138.25 145.078,-147.202 146.23,-136.67 139.411,-138.25"/>
<text text-anchor="middle" x="163" y="-121" font-family="Helvetica,sans-Serif" font-size="10.00"> release</text>
</g>
<!-- Node4&#45;&gt;Node3 -->
<g id="edge3" class="edge"><title>Node4&#45;&gt;Node3</title>
<path fill="none" stroke="#9a32cd" stroke-dasharray="5,2" d="M199.88,-102.529C196.182,-111.109 190.999,-121.177 184.5,-129 178.509,-136.211 170.225,-142.594 163.113,-147.342"/>
<polygon fill="#9a32cd" stroke="#9a32cd" points="203.206,-103.638 203.644,-93.0526 196.7,-101.054 203.206,-103.638"/>
<text text-anchor="middle" x="214" y="-121" font-family="Helvetica,sans-Serif" font-size="10.00"> collection</text>
</g>
<!-- Node4&#45;&gt;Node4 -->
<g id="edge5" class="edge"><title>Node4&#45;&gt;Node4</title>
<path fill="none" stroke="#9a32cd" stroke-dasharray="5,2" d="M279.59,-88.8969C284.512,-87.6513 287.5,-85.8523 287.5,-83.5 287.5,-79.8281 280.219,-77.5045 269.668,-76.5292"/>
<polygon fill="#9a32cd" stroke="#9a32cd" points="278.996,-85.4473 269.668,-90.4708 280.093,-92.3608 278.996,-85.4473"/>
<text text-anchor="middle" x="317" y="-92" font-family="Helvetica,sans-Serif" font-size="10.00"> next</text>
<text text-anchor="middle" x="317" y="-81" font-family="Helvetica,sans-Serif" font-size="10.00">freeCollection</text>
<text text-anchor="middle" x="317" y="-70" font-family="Helvetica,sans-Serif" font-size="10.00">get</text>
</g>
<!-- Node5 -->
<g id="node5" class="node"><title>Node5</title>
<g id="a_node5"><a xlink:href="structfiftyone_degrees_data.html" target="_top" xlink:title="Data structure used for reusing memory which may have been allocated in a previous operation.">
<polygon fill="none" stroke="black" points="96.5,-214.5 96.5,-233.5 200.5,-233.5 200.5,-214.5 96.5,-214.5"/>
<text text-anchor="middle" x="148.5" y="-221.5" font-family="Helvetica,sans-Serif" font-size="10.00">fiftyoneDegreesData</text>
</a>
</g>
</g>
<!-- Node5&#45;&gt;Node3 -->
<g id="edge6" class="edge"><title>Node5&#45;&gt;Node3</title>
<path fill="none" stroke="#9a32cd" stroke-dasharray="5,2" d="M148.5,-204.037C148.5,-191.67 148.5,-176.12 148.5,-166.627"/>
<polygon fill="#9a32cd" stroke="#9a32cd" points="145,-204.234 148.5,-214.234 152,-204.234 145,-204.234"/>
<text text-anchor="middle" x="159.5" y="-188" font-family="Helvetica,sans-Serif" font-size="10.00"> data</text>
</g>
</g>
</svg>
