<?xml version="1.0" encoding="UTF-8" standalone="no"?>
<!DOCTYPE svg PUBLIC "-//W3C//DTD SVG 1.1//EN"
 "http://www.w3.org/Graphics/SVG/1.1/DTD/svg11.dtd">
<!-- Generated by graphviz version 2.38.0 (20140413.2041)
 -->
<!-- Title: fiftyoneDegreesDataSetPattern Pages: 1 -->
<svg width="2015pt" height="928pt"
 viewBox="0.00 0.00 2015.00 927.50" xmlns="http://www.w3.org/2000/svg" xmlns:xlink="http://www.w3.org/1999/xlink">
<g id="graph0" class="graph" transform="scale(1 1) rotate(0) translate(4 923.5)">
<title>fiftyoneDegreesDataSetPattern</title>
<!-- Node1 -->
<g id="node1" class="node"><title>Node1</title>
<g id="a_node1"><a xlink:title="Data set structure containing all the components used for detections.">
<polygon fill="#bfbfbf" stroke="black" points="1857,-444 1857,-463 2007,-463 2007,-444 1857,-444"/>
<text text-anchor="middle" x="1932" y="-451" font-family="Helvetica,sans-Serif" font-size="10.00">fiftyoneDegreesDataSetPattern</text>
</a>
</g>
</g>
<!-- Node2 -->
<g id="node2" class="node"><title>Node2</title>
<g id="a_node2"><a xlink:href="structfiftyone_degrees_list.html" target="_top" xlink:title="List structure which contains a list of collection items.">
<polygon fill="none" stroke="black" points="591,-629 591,-648 690,-648 690,-629 591,-629"/>
<text text-anchor="middle" x="640.5" y="-636" font-family="Helvetica,sans-Serif" font-size="10.00">fiftyoneDegreesList</text>
</a>
</g>
</g>
<!-- Node2&#45;&gt;Node1 -->
<g id="edge1" class="edge"><title>Node2&#45;&gt;Node1</title>
<path fill="none" stroke="#9a32cd" stroke-dasharray="5,2" d="M700.438,-638.5C764.184,-638.5 868.799,-638.5 959,-638.5 959,-638.5 959,-638.5 1714,-638.5 1823.16,-638.5 1905.26,-501.251 1925.94,-463.186"/>
<polygon fill="#9a32cd" stroke="#9a32cd" points="700.181,-635 690.181,-638.5 700.181,-642 700.181,-635"/>
<text text-anchor="middle" x="1278" y="-652.5" font-family="Helvetica,sans-Serif" font-size="10.00"> rootNodesList</text>
<text text-anchor="middle" x="1278" y="-641.5" font-family="Helvetica,sans-Serif" font-size="10.00">componentsList</text>
</g>
<!-- Node3 -->
<g id="node3" class="node"><title>Node3</title>
<g id="a_node3"><a xlink:href="structfiftyone_degrees_collection_item.html" target="_top" xlink:title="Used to store a handle to the underlying item that could be used to release the item when it&#39;s finish...">
<polygon fill="none" stroke="black" points="189,-611 189,-630 334,-630 334,-611 189,-611"/>
<text text-anchor="middle" x="261.5" y="-618" font-family="Helvetica,sans-Serif" font-size="10.00">fiftyoneDegreesCollectionItem</text>
</a>
</g>
</g>
<!-- Node3&#45;&gt;Node2 -->
<g id="edge2" class="edge"><title>Node3&#45;&gt;Node2</title>
<path fill="none" stroke="#9a32cd" stroke-dasharray="5,2" d="M344.672,-624.423C419.823,-628.011 528.483,-633.199 590.745,-636.172"/>
<polygon fill="#9a32cd" stroke="#9a32cd" points="344.454,-620.909 334.298,-623.928 344.12,-627.901 344.454,-620.909"/>
<text text-anchor="middle" x="374.5" y="-629.5" font-family="Helvetica,sans-Serif" font-size="10.00"> items</text>
</g>
<!-- Node4 -->
<g id="node4" class="node"><title>Node4</title>
<g id="a_node4"><a xlink:href="structfiftyone_degrees_collection.html" target="_top" xlink:title="All the shared methods and fields required by file, memory and cached collections.">
<polygon fill="none" stroke="black" points="431,-540 431,-559 557,-559 557,-540 431,-540"/>
<text text-anchor="middle" x="494" y="-547" font-family="Helvetica,sans-Serif" font-size="10.00">fiftyoneDegreesCollection</text>
</a>
</g>
</g>
<!-- Node3&#45;&gt;Node4 -->
<g id="edge4" class="edge"><title>Node3&#45;&gt;Node4</title>
<path fill="none" stroke="#9a32cd" stroke-dasharray="5,2" d="M282.568,-604.574C299.899,-591.738 326.159,-574.409 352,-565.5 377.038,-556.868 405.911,-552.664 430.983,-550.691"/>
<polygon fill="#9a32cd" stroke="#9a32cd" points="280.21,-601.97 274.368,-610.809 284.447,-607.542 280.21,-601.97"/>
<text text-anchor="middle" x="374.5" y="-568.5" font-family="Helvetica,sans-Serif" font-size="10.00"> release</text>
</g>
<!-- Node16 -->
<g id="node16" class="node"><title>Node16</title>
<g id="a_node16"><a xlink:href="structfiftyone_degrees_header.html" target="_top" xlink:title="Header structure containing the name and unique id.">
<polygon fill="none" stroke="black" points="437,-734 437,-753 551,-753 551,-734 437,-734"/>
<text text-anchor="middle" x="494" y="-741" font-family="Helvetica,sans-Serif" font-size="10.00">fiftyoneDegreesHeader</text>
</a>
</g>
</g>
<!-- Node3&#45;&gt;Node16 -->
<g id="edge18" class="edge"><title>Node3&#45;&gt;Node16</title>
<path fill="none" stroke="#9a32cd" stroke-dasharray="5,2" d="M284.218,-636.207C301.982,-648.71 327.998,-666.248 352,-679.5 391.773,-701.459 440.482,-722.317 468.995,-733.958"/>
<polygon fill="#9a32cd" stroke="#9a32cd" points="285.914,-633.118 275.735,-630.177 281.858,-638.823 285.914,-633.118"/>
<text text-anchor="middle" x="374.5" y="-703.5" font-family="Helvetica,sans-Serif" font-size="10.00"> name</text>
</g>
<!-- Node25 -->
<g id="node25" class="node"><title>Node25</title>
<g id="a_node25"><a xlink:href="structfiftyone_degrees_property_available.html" target="_top" xlink:title="Used to access the property item quickly without the need to search.">
<polygon fill="none" stroke="black" points="415,-675 415,-694 573,-694 573,-675 415,-675"/>
<text text-anchor="middle" x="494" y="-682" font-family="Helvetica,sans-Serif" font-size="10.00">fiftyoneDegreesPropertyAvailable</text>
</a>
</g>
</g>
<!-- Node3&#45;&gt;Node25 -->
<g id="edge31" class="edge"><title>Node3&#45;&gt;Node25</title>
<path fill="none" stroke="#9a32cd" stroke-dasharray="5,2" d="M295.135,-633.756C311.94,-640.268 332.868,-647.898 352,-653.5 381.346,-662.092 414.744,-669.535 441.668,-674.973"/>
<polygon fill="#9a32cd" stroke="#9a32cd" points="296.348,-630.472 285.761,-630.074 293.789,-636.988 296.348,-630.472"/>
<text text-anchor="middle" x="374.5" y="-667.5" font-family="Helvetica,sans-Serif" font-size="10.00"> name</text>
</g>
<!-- Node4&#45;&gt;Node1 -->
<g id="edge48" class="edge"><title>Node4&#45;&gt;Node1</title>
<path fill="none" stroke="#9a32cd" stroke-dasharray="5,2" d="M567.265,-540.221C698.84,-523.73 986.412,-489.546 1230,-473.5 1458.24,-458.465 1729.03,-454.726 1856.98,-453.801"/>
<polygon fill="#9a32cd" stroke="#9a32cd" points="566.788,-536.753 557.303,-541.473 567.662,-543.699 566.788,-536.753"/>
<text text-anchor="middle" x="1278" y="-608.5" font-family="Helvetica,sans-Serif" font-size="10.00"> profileOffsets</text>
<text text-anchor="middle" x="1278" y="-597.5" font-family="Helvetica,sans-Serif" font-size="10.00">values</text>
<text text-anchor="middle" x="1278" y="-586.5" font-family="Helvetica,sans-Serif" font-size="10.00">strings</text>
<text text-anchor="middle" x="1278" y="-575.5" font-family="Helvetica,sans-Serif" font-size="10.00">maps</text>
<text text-anchor="middle" x="1278" y="-564.5" font-family="Helvetica,sans-Serif" font-size="10.00">components</text>
<text text-anchor="start" x="1230" y="-553.5" font-family="Helvetica,sans-Serif" font-size="10.00">rankedSignature</text>
<text text-anchor="middle" x="1278" y="-542.5" font-family="Helvetica,sans-Serif" font-size="10.00">Indexes</text>
<text text-anchor="middle" x="1278" y="-531.5" font-family="Helvetica,sans-Serif" font-size="10.00">nodes</text>
<text text-anchor="start" x="1230" y="-520.5" font-family="Helvetica,sans-Serif" font-size="10.00">nodeRankedSignature</text>
<text text-anchor="middle" x="1278" y="-509.5" font-family="Helvetica,sans-Serif" font-size="10.00">Indexes</text>
<text text-anchor="middle" x="1278" y="-498.5" font-family="Helvetica,sans-Serif" font-size="10.00">signatures</text>
<text text-anchor="middle" x="1278" y="-487.5" font-family="Helvetica,sans-Serif" font-size="10.00">properties</text>
<text text-anchor="middle" x="1278" y="-476.5" font-family="Helvetica,sans-Serif" font-size="10.00">...</text>
</g>
<!-- Node4&#45;&gt;Node3 -->
<g id="edge3" class="edge"><title>Node4&#45;&gt;Node3</title>
<path fill="none" stroke="#9a32cd" stroke-dasharray="5,2" d="M452.236,-562.057C406.88,-576.027 334.6,-598.291 293.586,-610.925"/>
<polygon fill="#9a32cd" stroke="#9a32cd" points="453.512,-565.326 462.039,-559.037 451.452,-558.636 453.512,-565.326"/>
<text text-anchor="middle" x="374.5" y="-593.5" font-family="Helvetica,sans-Serif" font-size="10.00"> collection</text>
</g>
<!-- Node4&#45;&gt;Node4 -->
<g id="edge5" class="edge"><title>Node4&#45;&gt;Node4</title>
<path fill="none" stroke="#9a32cd" stroke-dasharray="5,2" d="M472.051,-568.529C473.248,-573.628 480.564,-577.5 494,-577.5 514.973,-577.5 521.035,-568.065 512.187,-559.257"/>
<polygon fill="#9a32cd" stroke="#9a32cd" points="475.296,-569.839 475.813,-559.257 468.81,-567.207 475.296,-569.839"/>
<text text-anchor="middle" x="494" y="-602.5" font-family="Helvetica,sans-Serif" font-size="10.00"> next</text>
<text text-anchor="middle" x="494" y="-591.5" font-family="Helvetica,sans-Serif" font-size="10.00">freeCollection</text>
<text text-anchor="middle" x="494" y="-580.5" font-family="Helvetica,sans-Serif" font-size="10.00">get</text>
</g>
<!-- Node5 -->
<g id="node5" class="node"><title>Node5</title>
<g id="a_node5"><a xlink:href="structfiftyone_degrees_data.html" target="_top" xlink:title="Data structure used for reusing memory which may have been allocated in a previous operation.">
<polygon fill="none" stroke="black" points="10.5,-450 10.5,-469 114.5,-469 114.5,-450 10.5,-450"/>
<text text-anchor="middle" x="62.5" y="-457" font-family="Helvetica,sans-Serif" font-size="10.00">fiftyoneDegreesData</text>
</a>
</g>
</g>
<!-- Node5&#45;&gt;Node3 -->
<g id="edge6" class="edge"><title>Node5&#45;&gt;Node3</title>
<path fill="none" stroke="#9a32cd" stroke-dasharray="5,2" d="M83.0804,-475.502C123.728,-508.722 216.192,-584.289 248.828,-610.961"/>
<polygon fill="#9a32cd" stroke="#9a32cd" points="85.1912,-472.707 75.2333,-469.089 80.7615,-478.127 85.1912,-472.707"/>
<text text-anchor="middle" x="157" y="-547.5" font-family="Helvetica,sans-Serif" font-size="10.00"> data</text>
</g>
<!-- Node27 -->
<g id="node27" class="node"><title>Node27</title>
<g id="a_node27"><a xlink:href="structfiftyone_degrees_cache.html" target="_top" xlink:title="Cache structure to store the root of the red black tree and a list of allocated cache nodes.">
<polygon fill="none" stroke="black" points="206,-385 206,-404 317,-404 317,-385 206,-385"/>
<text text-anchor="middle" x="261.5" y="-392" font-family="Helvetica,sans-Serif" font-size="10.00">fiftyoneDegreesCache</text>
</a>
</g>
</g>
<!-- Node5&#45;&gt;Node27 -->
<g id="edge47" class="edge"><title>Node5&#45;&gt;Node27</title>
<path fill="none" stroke="#9a32cd" stroke-dasharray="5,2" d="M102.278,-446.705C140.313,-434.156 197.434,-415.308 231.634,-404.024"/>
<polygon fill="#9a32cd" stroke="#9a32cd" points="100.968,-443.452 92.568,-449.909 103.161,-450.099 100.968,-443.452"/>
<text text-anchor="middle" x="157" y="-435.5" font-family="Helvetica,sans-Serif" font-size="10.00"> load</text>
</g>
<!-- Node28 -->
<g id="node28" class="node"><title>Node28</title>
<g id="a_node28"><a xlink:href="structfiftyone_degrees_cache_node.html" target="_top" xlink:title="Cache node structure used for storing data in the cache along with its key.">
<polygon fill="none" stroke="black" points="718.5,-343 718.5,-362 852.5,-362 852.5,-343 718.5,-343"/>
<text text-anchor="middle" x="785.5" y="-350" font-family="Helvetica,sans-Serif" font-size="10.00">fiftyoneDegreesCacheNode</text>
</a>
</g>
</g>
<!-- Node5&#45;&gt;Node28 -->
<g id="edge45" class="edge"><title>Node5&#45;&gt;Node28</title>
<path fill="none" stroke="#9a32cd" stroke-dasharray="5,2" d="M125.108,-462.228C239.305,-465.478 490.386,-464.118 690,-402.5 720.505,-393.084 752.678,-373.75 770.507,-362.076"/>
<polygon fill="#9a32cd" stroke="#9a32cd" points="124.922,-458.72 114.819,-461.911 124.707,-465.717 124.922,-458.72"/>
<text text-anchor="middle" x="374.5" y="-460.5" font-family="Helvetica,sans-Serif" font-size="10.00"> data</text>
</g>
<!-- Node6 -->
<g id="node6" class="node"><title>Node6</title>
<g id="a_node6"><a xlink:href="structfiftyone_degrees_data_set_pattern_header.html" target="_top" xlink:title="Dataset header containing information about the dataset.">
<polygon fill="none" stroke="black" points="1638,-375.5 1638,-405.5 1788,-405.5 1788,-375.5 1638,-375.5"/>
<text text-anchor="start" x="1646" y="-393.5" font-family="Helvetica,sans-Serif" font-size="10.00">fiftyoneDegreesDataSetPattern</text>
<text text-anchor="middle" x="1713" y="-382.5" font-family="Helvetica,sans-Serif" font-size="10.00">Header</text>
</a>
</g>
</g>
<!-- Node6&#45;&gt;Node1 -->
<g id="edge7" class="edge"><title>Node6&#45;&gt;Node1</title>
<path fill="none" stroke="#9a32cd" stroke-dasharray="5,2" d="M1798.17,-399.806C1811.97,-402.324 1826,-405.5 1839,-409.5 1866.75,-418.038 1896.7,-433.695 1914.65,-443.845"/>
<polygon fill="#9a32cd" stroke="#9a32cd" points="1798.63,-396.334 1788.18,-398.087 1797.44,-403.233 1798.63,-396.334"/>
<text text-anchor="middle" x="1822.5" y="-412.5" font-family="Helvetica,sans-Serif" font-size="10.00"> header</text>
</g>
<!-- Node7 -->
<g id="node7" class="node"><title>Node7</title>
<g id="a_node7"><a xlink:href="structfiftyone_degrees_date.html" target="_top" xlink:title="Used to store the date when the dataset was produced and next date 51Degrees expect to provide a new ...">
<polygon fill="none" stroke="black" points="1373,-387 1373,-406 1477,-406 1477,-387 1373,-387"/>
<text text-anchor="middle" x="1425" y="-394" font-family="Helvetica,sans-Serif" font-size="10.00">fiftyoneDegreesDate</text>
</a>
</g>
</g>
<!-- Node7&#45;&gt;Node6 -->
<g id="edge8" class="edge"><title>Node7&#45;&gt;Node6</title>
<path fill="none" stroke="#9a32cd" stroke-dasharray="5,2" d="M1487.14,-395.217C1531.27,-394.291 1591.09,-393.037 1637.93,-392.054"/>
<polygon fill="#9a32cd" stroke="#9a32cd" points="1487.06,-391.718 1477.13,-395.427 1487.2,-398.717 1487.06,-391.718"/>
<text text-anchor="middle" x="1572" y="-407.5" font-family="Helvetica,sans-Serif" font-size="10.00"> nextUpdate</text>
<text text-anchor="middle" x="1572" y="-396.5" font-family="Helvetica,sans-Serif" font-size="10.00">published</text>
</g>
<!-- Node8 -->
<g id="node8" class="node"><title>Node8</title>
<g id="a_node8"><a xlink:href="structfiftyone_degrees_collection_header.html" target="_top" xlink:title="Collection header structure which defines the size and location of the collection data.">
<polygon fill="none" stroke="black" points="1362,-215.5 1362,-245.5 1488,-245.5 1488,-215.5 1362,-215.5"/>
<text text-anchor="start" x="1370" y="-233.5" font-family="Helvetica,sans-Serif" font-size="10.00">fiftyoneDegreesCollection</text>
<text text-anchor="middle" x="1425" y="-222.5" font-family="Helvetica,sans-Serif" font-size="10.00">Header</text>
</a>
</g>
</g>
<!-- Node8&#45;&gt;Node6 -->
<g id="edge9" class="edge"><title>Node8&#45;&gt;Node6</title>
<path fill="none" stroke="#9a32cd" stroke-dasharray="5,2" d="M1498.55,-220.665C1537.16,-218.98 1583.98,-222.895 1620,-244.5 1670.36,-274.705 1697.53,-344.241 1707.51,-375.177"/>
<polygon fill="#9a32cd" stroke="#9a32cd" points="1498.19,-217.179 1488.4,-221.242 1498.59,-224.168 1498.19,-217.179"/>
<text text-anchor="middle" x="1572" y="-379.5" font-family="Helvetica,sans-Serif" font-size="10.00"> profileOffsets</text>
<text text-anchor="middle" x="1572" y="-368.5" font-family="Helvetica,sans-Serif" font-size="10.00">values</text>
<text text-anchor="middle" x="1572" y="-357.5" font-family="Helvetica,sans-Serif" font-size="10.00">strings</text>
<text text-anchor="middle" x="1572" y="-346.5" font-family="Helvetica,sans-Serif" font-size="10.00">maps</text>
<text text-anchor="middle" x="1572" y="-335.5" font-family="Helvetica,sans-Serif" font-size="10.00">components</text>
<text text-anchor="start" x="1524" y="-324.5" font-family="Helvetica,sans-Serif" font-size="10.00">rankedSignature</text>
<text text-anchor="middle" x="1572" y="-313.5" font-family="Helvetica,sans-Serif" font-size="10.00">Indexes</text>
<text text-anchor="middle" x="1572" y="-302.5" font-family="Helvetica,sans-Serif" font-size="10.00">nodes</text>
<text text-anchor="start" x="1524" y="-291.5" font-family="Helvetica,sans-Serif" font-size="10.00">nodeRankedSignature</text>
<text text-anchor="middle" x="1572" y="-280.5" font-family="Helvetica,sans-Serif" font-size="10.00">Indexes</text>
<text text-anchor="middle" x="1572" y="-269.5" font-family="Helvetica,sans-Serif" font-size="10.00">signatures</text>
<text text-anchor="middle" x="1572" y="-258.5" font-family="Helvetica,sans-Serif" font-size="10.00">properties</text>
<text text-anchor="middle" x="1572" y="-247.5" font-family="Helvetica,sans-Serif" font-size="10.00">...</text>
</g>
<!-- Node9 -->
<g id="node9" class="node"><title>Node9</title>
<g id="a_node9"><a xlink:href="structfiftyone_degrees_config_pattern.html" target="_top" xlink:title="Pattern specific configuration structure.">
<polygon fill="none" stroke="black" points="1642,-55 1642,-74 1784,-74 1784,-55 1642,-55"/>
<text text-anchor="middle" x="1713" y="-62" font-family="Helvetica,sans-Serif" font-size="10.00">fiftyoneDegreesConfigPattern</text>
</a>
</g>
</g>
<!-- Node9&#45;&gt;Node1 -->
<g id="edge10" class="edge"><title>Node9&#45;&gt;Node1</title>
<path fill="none" stroke="#9a32cd" stroke-dasharray="5,2" d="M1724.32,-82.9998C1762.78,-151.952 1897.06,-392.658 1925.63,-443.872"/>
<polygon fill="#9a32cd" stroke="#9a32cd" points="1727.29,-81.1438 1719.36,-74.1158 1721.18,-84.554 1727.29,-81.1438"/>
<text text-anchor="middle" x="1822.5" y="-285.5" font-family="Helvetica,sans-Serif" font-size="10.00"> config</text>
</g>
<!-- Node10 -->
<g id="node10" class="node"><title>Node10</title>
<g id="a_node10"><a xlink:href="structfiftyone_degrees_collection_config.html" target="_top" xlink:title="Collection configuration structure which defines how the collection should be created by the create m...">
<polygon fill="none" stroke="black" points="1362,-49.5 1362,-79.5 1488,-79.5 1488,-49.5 1362,-49.5"/>
<text text-anchor="start" x="1370" y="-67.5" font-family="Helvetica,sans-Serif" font-size="10.00">fiftyoneDegreesCollection</text>
<text text-anchor="middle" x="1425" y="-56.5" font-family="Helvetica,sans-Serif" font-size="10.00">Config</text>
</a>
</g>
</g>
<!-- Node10&#45;&gt;Node9 -->
<g id="edge11" class="edge"><title>Node10&#45;&gt;Node9</title>
<path fill="none" stroke="#9a32cd" stroke-dasharray="5,2" d="M1498.11,-64.5C1542.12,-64.5 1598.11,-64.5 1641.77,-64.5"/>
<polygon fill="#9a32cd" stroke="#9a32cd" points="1498.06,-61.0001 1488.06,-64.5 1498.06,-68.0001 1498.06,-61.0001"/>
<text text-anchor="middle" x="1572" y="-199.5" font-family="Helvetica,sans-Serif" font-size="10.00"> profileOffsets</text>
<text text-anchor="middle" x="1572" y="-188.5" font-family="Helvetica,sans-Serif" font-size="10.00">values</text>
<text text-anchor="middle" x="1572" y="-177.5" font-family="Helvetica,sans-Serif" font-size="10.00">strings</text>
<text text-anchor="middle" x="1572" y="-166.5" font-family="Helvetica,sans-Serif" font-size="10.00">maps</text>
<text text-anchor="middle" x="1572" y="-155.5" font-family="Helvetica,sans-Serif" font-size="10.00">components</text>
<text text-anchor="start" x="1524" y="-144.5" font-family="Helvetica,sans-Serif" font-size="10.00">rankedSignature</text>
<text text-anchor="middle" x="1572" y="-133.5" font-family="Helvetica,sans-Serif" font-size="10.00">Indexes</text>
<text text-anchor="middle" x="1572" y="-122.5" font-family="Helvetica,sans-Serif" font-size="10.00">nodes</text>
<text text-anchor="start" x="1524" y="-111.5" font-family="Helvetica,sans-Serif" font-size="10.00">nodeRankedSignature</text>
<text text-anchor="middle" x="1572" y="-100.5" font-family="Helvetica,sans-Serif" font-size="10.00">Indexes</text>
<text text-anchor="middle" x="1572" y="-89.5" font-family="Helvetica,sans-Serif" font-size="10.00">signatures</text>
<text text-anchor="middle" x="1572" y="-78.5" font-family="Helvetica,sans-Serif" font-size="10.00">properties</text>
<text text-anchor="middle" x="1572" y="-67.5" font-family="Helvetica,sans-Serif" font-size="10.00">...</text>
</g>
<!-- Node11 -->
<g id="node11" class="node"><title>Node11</title>
<g id="a_node11"><a xlink:href="structfiftyone_degrees_config_device_detection.html" target="_top" xlink:title="Device detection configuration structure containing device detection specific configuration options,...">
<polygon fill="none" stroke="black" points="1355.5,-0.5 1355.5,-30.5 1494.5,-30.5 1494.5,-0.5 1355.5,-0.5"/>
<text text-anchor="start" x="1363.5" y="-18.5" font-family="Helvetica,sans-Serif" font-size="10.00">fiftyoneDegreesConfigDevice</text>
<text text-anchor="middle" x="1425" y="-7.5" font-family="Helvetica,sans-Serif" font-size="10.00">Detection</text>
</a>
</g>
</g>
<!-- Node11&#45;&gt;Node9 -->
<g id="edge12" class="edge"><title>Node11&#45;&gt;Node9</title>
<path fill="none" stroke="#9a32cd" stroke-dasharray="5,2" d="M1504.59,-28.9646C1552.78,-37.2208 1613.3,-47.5906 1656.51,-54.9933"/>
<polygon fill="#9a32cd" stroke="#9a32cd" points="1504.95,-25.4757 1494.5,-27.2367 1503.77,-32.3752 1504.95,-25.4757"/>
<text text-anchor="middle" x="1572" y="-52.5" font-family="Helvetica,sans-Serif" font-size="10.00"> b</text>
</g>
<!-- Node12 -->
<g id="node12" class="node"><title>Node12</title>
<g id="a_node12"><a xlink:href="structfiftyone_degrees_config_base.html" target="_top" xlink:title="Base configuration structure containing common configuration options, and options that apply to struc...">
<polygon fill="none" stroke="black" points="1068,-6 1068,-25 1201,-25 1201,-6 1068,-6"/>
<text text-anchor="middle" x="1134.5" y="-13" font-family="Helvetica,sans-Serif" font-size="10.00">fiftyoneDegreesConfigBase</text>
</a>
</g>
</g>
<!-- Node12&#45;&gt;Node11 -->
<g id="edge13" class="edge"><title>Node12&#45;&gt;Node11</title>
<path fill="none" stroke="#9a32cd" stroke-dasharray="5,2" d="M1211.54,-15.5C1256.19,-15.5 1312.16,-15.5 1355.45,-15.5"/>
<polygon fill="#9a32cd" stroke="#9a32cd" points="1211.33,-12.0001 1201.33,-15.5 1211.33,-19.0001 1211.33,-12.0001"/>
<text text-anchor="middle" x="1278" y="-18.5" font-family="Helvetica,sans-Serif" font-size="10.00"> b</text>
</g>
<!-- Node13 -->
<g id="node13" class="node"><title>Node13</title>
<g id="a_node13"><a xlink:href="structfiftyone_degrees_data_set_device_detection.html" target="_top" xlink:title="Device detection data set structure which contains the &#39;must have&#39;s for all device detection data set...">
<polygon fill="none" stroke="black" points="1639.5,-706.5 1639.5,-736.5 1786.5,-736.5 1786.5,-706.5 1639.5,-706.5"/>
<text text-anchor="start" x="1647.5" y="-724.5" font-family="Helvetica,sans-Serif" font-size="10.00">fiftyoneDegreesDataSetDevice</text>
<text text-anchor="middle" x="1713" y="-713.5" font-family="Helvetica,sans-Serif" font-size="10.00">Detection</text>
</a>
</g>
</g>
<!-- Node13&#45;&gt;Node1 -->
<g id="edge14" class="edge"><title>Node13&#45;&gt;Node1</title>
<path fill="none" stroke="#9a32cd" stroke-dasharray="5,2" d="M1764.82,-702.371C1789.71,-690.955 1818.63,-674.378 1839,-652.5 1894.25,-593.166 1921.25,-494.804 1928.76,-463.435"/>
<polygon fill="#9a32cd" stroke="#9a32cd" points="1763.23,-699.246 1755.51,-706.494 1766.07,-705.648 1763.23,-699.246"/>
<text text-anchor="middle" x="1822.5" y="-682.5" font-family="Helvetica,sans-Serif" font-size="10.00"> b</text>
</g>
<!-- Node14 -->
<g id="node14" class="node"><title>Node14</title>
<g id="a_node14"><a xlink:href="structfiftyone_degrees_data_set_base.html" target="_top" xlink:title="Base data set structure which contains the &#39;must have&#39;s for all data sets.">
<polygon fill="none" stroke="black" points="1354.5,-752 1354.5,-771 1495.5,-771 1495.5,-752 1354.5,-752"/>
<text text-anchor="middle" x="1425" y="-759" font-family="Helvetica,sans-Serif" font-size="10.00">fiftyoneDegreesDataSetBase</text>
</a>
</g>
</g>
<!-- Node14&#45;&gt;Node13 -->
<g id="edge15" class="edge"><title>Node14&#45;&gt;Node13</title>
<path fill="none" stroke="#9a32cd" stroke-dasharray="5,2" d="M1504.09,-750.578C1546.29,-744.676 1598.06,-737.436 1639.38,-731.656"/>
<polygon fill="#9a32cd" stroke="#9a32cd" points="1503.56,-747.118 1494.14,-751.97 1504.53,-754.051 1503.56,-747.118"/>
<text text-anchor="middle" x="1572" y="-749.5" font-family="Helvetica,sans-Serif" font-size="10.00"> b</text>
</g>
<!-- Node15 -->
<g id="node15" class="node"><title>Node15</title>
<g id="a_node15"><a xlink:href="structfiftyone_degrees_header_array.html" target="_top" xlink:title="Array of items of type fiftyoneDegreesHeader used to easily access and track the size of the array.">
<polygon fill="none" stroke="black" points="891.5,-762 891.5,-781 1028.5,-781 1028.5,-762 891.5,-762"/>
<text text-anchor="middle" x="960" y="-769" font-family="Helvetica,sans-Serif" font-size="10.00">fiftyoneDegreesHeaderArray</text>
</a>
</g>
</g>
<!-- Node15&#45;&gt;Node14 -->
<g id="edge16" class="edge"><title>Node15&#45;&gt;Node14</title>
<path fill="none" stroke="#9a32cd" stroke-dasharray="5,2" d="M1038.77,-770.266C1112.67,-769.032 1226.91,-766.967 1326,-764.5 1335.19,-764.271 1344.86,-764.006 1354.41,-763.729"/>
<polygon fill="#9a32cd" stroke="#9a32cd" points="1038.55,-766.769 1028.61,-770.434 1038.67,-773.768 1038.55,-766.769"/>
<text text-anchor="middle" x="1134.5" y="-772.5" font-family="Helvetica,sans-Serif" font-size="10.00"> uniqueHeaders</text>
</g>
<!-- Node16&#45;&gt;Node15 -->
<g id="edge17" class="edge"><title>Node16&#45;&gt;Node15</title>
<path fill="none" stroke="#9a32cd" stroke-dasharray="5,2" d="M561.54,-747.515C649.321,-752.812 802.99,-762.086 891.331,-767.417"/>
<polygon fill="#9a32cd" stroke="#9a32cd" points="561.624,-744.014 551.432,-746.905 561.203,-751.001 561.624,-744.014"/>
<text text-anchor="middle" x="640.5" y="-757.5" font-family="Helvetica,sans-Serif" font-size="10.00"> items</text>
</g>
<!-- Node17 -->
<g id="node17" class="node"><title>Node17</title>
<g id="a_node17"><a xlink:href="structfiftyone_degrees_resource_handle.html" target="_top" xlink:title="Tracks the number of active uses of the resource within the manager.">
<polygon fill="none" stroke="black" points="1057,-887 1057,-906 1212,-906 1212,-887 1057,-887"/>
<text text-anchor="middle" x="1134.5" y="-894" font-family="Helvetica,sans-Serif" font-size="10.00">fiftyoneDegreesResourceHandle</text>
</a>
</g>
</g>
<!-- Node17&#45;&gt;Node14 -->
<g id="edge19" class="edge"><title>Node17&#45;&gt;Node14</title>
<path fill="none" stroke="#9a32cd" stroke-dasharray="5,2" d="M1189.51,-884.362C1197.12,-882.282 1204.8,-879.981 1212,-877.5 1264.47,-859.406 1277.37,-853.264 1326,-826.5 1357.84,-808.977 1392.78,-784.397 1411.12,-771.045"/>
<polygon fill="#9a32cd" stroke="#9a32cd" points="1188.37,-881.043 1179.58,-886.967 1190.14,-887.814 1188.37,-881.043"/>
<text text-anchor="middle" x="1278" y="-873.5" font-family="Helvetica,sans-Serif" font-size="10.00"> handle</text>
</g>
<!-- Node18 -->
<g id="node18" class="node"><title>Node18</title>
<g id="a_node18"><a xlink:href="structfiftyone_degrees_resource_manager.html" target="_top" xlink:title="Manager structure used to provide access to a shared and changing resource.">
<polygon fill="none" stroke="black" points="1344,-900 1344,-919 1506,-919 1506,-900 1344,-900"/>
<text text-anchor="middle" x="1425" y="-907" font-family="Helvetica,sans-Serif" font-size="10.00">fiftyoneDegreesResourceManager</text>
</a>
</g>
</g>
<!-- Node17&#45;&gt;Node18 -->
<g id="edge21" class="edge"><title>Node17&#45;&gt;Node18</title>
<path fill="none" stroke="#9a32cd" stroke-dasharray="5,2" d="M1222.24,-904.042C1224.86,-904.206 1227.45,-904.359 1230,-904.5 1267.34,-906.56 1308.77,-907.774 1343.73,-908.488"/>
<polygon fill="#9a32cd" stroke="#9a32cd" points="1222.27,-900.537 1212.06,-903.365 1221.81,-907.521 1222.27,-900.537"/>
<text text-anchor="middle" x="1278" y="-910.5" font-family="Helvetica,sans-Serif" font-size="10.00"> active</text>
</g>
<!-- Node18&#45;&gt;Node17 -->
<g id="edge20" class="edge"><title>Node18&#45;&gt;Node17</title>
<path fill="none" stroke="#9a32cd" stroke-dasharray="5,2" d="M1365.2,-898.315C1352.33,-896.311 1338.74,-894.534 1326,-893.5 1283.47,-890.051 1272.66,-892.823 1230,-893.5 1224.17,-893.592 1218.15,-893.717 1212.08,-893.863"/>
<polygon fill="#9a32cd" stroke="#9a32cd" points="1364.91,-901.813 1375.34,-899.961 1366.03,-894.904 1364.91,-901.813"/>
<text text-anchor="middle" x="1278" y="-896.5" font-family="Helvetica,sans-Serif" font-size="10.00"> manager</text>
</g>
<!-- Node19 -->
<g id="node19" class="node"><title>Node19</title>
<g id="a_node19"><a xlink:href="structfiftyone_degrees_file_pool.html" target="_top" xlink:title="Stack of handles used to read data from a single source file.">
<polygon fill="none" stroke="black" points="1075,-811 1075,-830 1194,-830 1194,-811 1075,-811"/>
<text text-anchor="middle" x="1134.5" y="-818" font-family="Helvetica,sans-Serif" font-size="10.00">fiftyoneDegreesFilePool</text>
</a>
</g>
</g>
<!-- Node19&#45;&gt;Node14 -->
<g id="edge22" class="edge"><title>Node19&#45;&gt;Node14</title>
<path fill="none" stroke="#9a32cd" stroke-dasharray="5,2" d="M1204.46,-814.865C1240.92,-811.031 1286.24,-804.903 1326,-795.5 1352.11,-789.325 1381.03,-778.82 1400.64,-771.118"/>
<polygon fill="#9a32cd" stroke="#9a32cd" points="1204.02,-811.392 1194.42,-815.887 1204.72,-818.356 1204.02,-811.392"/>
<text text-anchor="middle" x="1278" y="-814.5" font-family="Helvetica,sans-Serif" font-size="10.00"> filePool</text>
</g>
<!-- Node20 -->
<g id="node20" class="node"><title>Node20</title>
<g id="a_node20"><a xlink:href="structfiftyone_degrees_pool.html" target="_top" xlink:title="Pool of resources stored as items in a stack.">
<polygon fill="none" stroke="black" points="734,-845 734,-864 837,-864 837,-845 734,-845"/>
<text text-anchor="middle" x="785.5" y="-852" font-family="Helvetica,sans-Serif" font-size="10.00">fiftyoneDegreesPool</text>
</a>
</g>
</g>
<!-- Node20&#45;&gt;Node19 -->
<g id="edge23" class="edge"><title>Node20&#45;&gt;Node19</title>
<path fill="none" stroke="#9a32cd" stroke-dasharray="5,2" d="M847.455,-843.292C858.588,-841.498 870.122,-839.806 881,-838.5 947.216,-830.553 1023.65,-825.703 1074.93,-823.07"/>
<polygon fill="#9a32cd" stroke="#9a32cd" points="846.669,-839.874 837.375,-844.96 847.812,-846.78 846.669,-839.874"/>
<text text-anchor="middle" x="960" y="-841.5" font-family="Helvetica,sans-Serif" font-size="10.00"> pool</text>
</g>
<!-- Node20&#45;&gt;Node20 -->
<g id="edge24" class="edge"><title>Node20&#45;&gt;Node20</title>
<path fill="none" stroke="#9a32cd" stroke-dasharray="5,2" d="M758.621,-873.154C759.744,-878.437 768.704,-882.5 785.5,-882.5 811.094,-882.5 818.492,-873.065 807.695,-864.257"/>
<polygon fill="#9a32cd" stroke="#9a32cd" points="761.743,-874.736 763.305,-864.257 755.549,-871.475 761.743,-874.736"/>
<text text-anchor="middle" x="785.5" y="-885.5" font-family="Helvetica,sans-Serif" font-size="10.00"> resourceFree</text>
</g>
<!-- Node22 -->
<g id="node22" class="node"><title>Node22</title>
<g id="a_node22"><a xlink:href="structfiftyone_degrees_pool_item.html" target="_top" xlink:title="Pool item node in the stack of items.">
<polygon fill="none" stroke="black" points="1073.5,-849 1073.5,-868 1195.5,-868 1195.5,-849 1073.5,-849"/>
<text text-anchor="middle" x="1134.5" y="-856" font-family="Helvetica,sans-Serif" font-size="10.00">fiftyoneDegreesPoolItem</text>
</a>
</g>
</g>
<!-- Node20&#45;&gt;Node22 -->
<g id="edge27" class="edge"><title>Node20&#45;&gt;Node22</title>
<path fill="none" stroke="#9a32cd" stroke-dasharray="5,2" d="M847.473,-863.389C858.604,-864.685 870.132,-865.813 881,-866.5 951.082,-870.932 968.84,-869.464 1039,-866.5 1050.1,-866.031 1061.92,-865.253 1073.31,-864.362"/>
<polygon fill="#9a32cd" stroke="#9a32cd" points="847.743,-859.896 837.393,-862.16 846.896,-866.845 847.743,-859.896"/>
<text text-anchor="middle" x="960" y="-871.5" font-family="Helvetica,sans-Serif" font-size="10.00"> pool</text>
</g>
<!-- Node21 -->
<g id="node21" class="node"><title>Node21</title>
<g id="a_node21"><a xlink:href="unionfiftyone_degrees_pool_head.html" target="_top" xlink:title="The head of the stack used for pop and push operations.">
<polygon fill="none" stroke="black" points="431.5,-845 431.5,-864 556.5,-864 556.5,-845 431.5,-845"/>
<text text-anchor="middle" x="494" y="-852" font-family="Helvetica,sans-Serif" font-size="10.00">fiftyoneDegreesPoolHead</text>
</a>
</g>
</g>
<!-- Node21&#45;&gt;Node20 -->
<g id="edge25" class="edge"><title>Node21&#45;&gt;Node20</title>
<path fill="none" stroke="#9a32cd" stroke-dasharray="5,2" d="M566.9,-854.5C618.84,-854.5 687.706,-854.5 733.929,-854.5"/>
<polygon fill="#9a32cd" stroke="#9a32cd" points="566.75,-851 556.75,-854.5 566.75,-858 566.75,-851"/>
<text text-anchor="middle" x="640.5" y="-857.5" font-family="Helvetica,sans-Serif" font-size="10.00"> head</text>
</g>
<!-- Node22&#45;&gt;Node20 -->
<g id="edge26" class="edge"><title>Node22&#45;&gt;Node20</title>
<path fill="none" stroke="#9a32cd" stroke-dasharray="5,2" d="M1063.05,-856.048C1054.94,-855.83 1046.79,-855.639 1039,-855.5 969.091,-854.252 888.278,-854.171 837.286,-854.287"/>
<polygon fill="#9a32cd" stroke="#9a32cd" points="1063.17,-859.553 1073.26,-856.337 1063.37,-852.555 1063.17,-859.553"/>
<text text-anchor="middle" x="960" y="-858.5" font-family="Helvetica,sans-Serif" font-size="10.00"> stack</text>
</g>
<!-- Node23 -->
<g id="node23" class="node"><title>Node23</title>
<g id="a_node23"><a xlink:href="structfiftyone_degrees_override_property_array.html" target="_top" xlink:title="Array of items of type fiftyoneDegreesOverrideProperty used to easily access and track the size of th...">
<polygon fill="none" stroke="black" points="1057,-714.5 1057,-744.5 1212,-744.5 1212,-714.5 1057,-714.5"/>
<text text-anchor="start" x="1065" y="-732.5" font-family="Helvetica,sans-Serif" font-size="10.00">fiftyoneDegreesOverrideProperty</text>
<text text-anchor="middle" x="1134.5" y="-721.5" font-family="Helvetica,sans-Serif" font-size="10.00">Array</text>
</a>
</g>
</g>
<!-- Node23&#45;&gt;Node14 -->
<g id="edge28" class="edge"><title>Node23&#45;&gt;Node14</title>
<path fill="none" stroke="#9a32cd" stroke-dasharray="5,2" d="M1222.08,-739.103C1264.42,-743.8 1314.7,-749.377 1354.5,-753.791"/>
<polygon fill="#9a32cd" stroke="#9a32cd" points="1222.38,-735.615 1212.06,-737.991 1221.61,-742.573 1222.38,-735.615"/>
<text text-anchor="middle" x="1278" y="-752.5" font-family="Helvetica,sans-Serif" font-size="10.00"> overridable</text>
</g>
<!-- Node24 -->
<g id="node24" class="node"><title>Node24</title>
<g id="a_node24"><a xlink:href="structfiftyone_degrees_override_property.html" target="_top" xlink:title="Index and pointer to a property which can be overridden.">
<polygon fill="none" stroke="black" points="708,-715 708,-734 863,-734 863,-715 708,-715"/>
<text text-anchor="middle" x="785.5" y="-722" font-family="Helvetica,sans-Serif" font-size="10.00">fiftyoneDegreesOverrideProperty</text>
</a>
</g>
</g>
<!-- Node24&#45;&gt;Node23 -->
<g id="edge29" class="edge"><title>Node24&#45;&gt;Node23</title>
<path fill="none" stroke="#9a32cd" stroke-dasharray="5,2" d="M873.409,-725.752C929.794,-726.565 1002.59,-727.614 1056.82,-728.395"/>
<polygon fill="#9a32cd" stroke="#9a32cd" points="873.13,-722.248 863.08,-725.603 873.029,-729.247 873.13,-722.248"/>
<text text-anchor="middle" x="960" y="-730.5" font-family="Helvetica,sans-Serif" font-size="10.00"> items</text>
</g>
<!-- Node25&#45;&gt;Node24 -->
<g id="edge30" class="edge"><title>Node25&#45;&gt;Node24</title>
<path fill="none" stroke="#9a32cd" stroke-dasharray="5,2" d="M564.399,-695.567C573.344,-696.928 582.385,-698.271 591,-699.5 629.396,-704.979 672.154,-710.558 707.692,-715.052"/>
<polygon fill="#9a32cd" stroke="#9a32cd" points="564.782,-692.085 554.367,-694.028 563.721,-699.004 564.782,-692.085"/>
<text text-anchor="middle" x="640.5" y="-714.5" font-family="Helvetica,sans-Serif" font-size="10.00"> available</text>
</g>
<!-- Node26 -->
<g id="node26" class="node"><title>Node26</title>
<g id="a_node26"><a xlink:href="structfiftyone_degrees_property_available_array.html" target="_top" xlink:title="Array of items of type fiftyoneDegreesPropertyAvailable used to easily access and track the size of t...">
<polygon fill="none" stroke="black" points="881,-669.5 881,-699.5 1039,-699.5 1039,-669.5 881,-669.5"/>
<text text-anchor="start" x="889" y="-687.5" font-family="Helvetica,sans-Serif" font-size="10.00">fiftyoneDegreesPropertyAvailable</text>
<text text-anchor="middle" x="960" y="-676.5" font-family="Helvetica,sans-Serif" font-size="10.00">Array</text>
</a>
</g>
</g>
<!-- Node25&#45;&gt;Node26 -->
<g id="edge33" class="edge"><title>Node25&#45;&gt;Node26</title>
<path fill="none" stroke="#9a32cd" stroke-dasharray="5,2" d="M583.447,-684.5C669.39,-684.5 798.632,-684.5 880.88,-684.5"/>
<polygon fill="#9a32cd" stroke="#9a32cd" points="583.187,-681 573.187,-684.5 583.187,-688 583.187,-681"/>
<text text-anchor="middle" x="640.5" y="-687.5" font-family="Helvetica,sans-Serif" font-size="10.00"> items</text>
</g>
<!-- Node26&#45;&gt;Node14 -->
<g id="edge32" class="edge"><title>Node26&#45;&gt;Node14</title>
<path fill="none" stroke="#9a32cd" stroke-dasharray="5,2" d="M1049.15,-682.308C1097.56,-682.529 1158.46,-685.146 1212,-694.5 1282.72,-706.856 1362.59,-736.626 1400.98,-751.983"/>
<polygon fill="#9a32cd" stroke="#9a32cd" points="1049.02,-678.807 1039.02,-682.295 1049.01,-685.807 1049.02,-678.807"/>
<text text-anchor="middle" x="1134.5" y="-697.5" font-family="Helvetica,sans-Serif" font-size="10.00"> available</text>
</g>
<!-- Node27&#45;&gt;Node1 -->
<g id="edge34" class="edge"><title>Node27&#45;&gt;Node1</title>
<path fill="none" stroke="#9a32cd" stroke-dasharray="5,2" d="M327.36,-402.677C425.938,-414.377 619.466,-434.5 784.5,-434.5 784.5,-434.5 784.5,-434.5 1714,-434.5 1762.22,-434.5 1816.23,-439.213 1858.31,-443.944"/>
<polygon fill="#9a32cd" stroke="#9a32cd" points="327.602,-399.181 317.256,-401.467 326.77,-406.131 327.602,-399.181"/>
<text text-anchor="middle" x="1134.5" y="-437.5" font-family="Helvetica,sans-Serif" font-size="10.00"> userAgentCache</text>
</g>
<!-- Node31 -->
<g id="node31" class="node"><title>Node31</title>
<g id="a_node31"><a xlink:href="structfiftyone_degrees_cache_shard.html" target="_top" xlink:title="Cache shard structure used to enable concurrent access to the cache.">
<polygon fill="none" stroke="black" points="425.5,-351 425.5,-370 562.5,-370 562.5,-351 425.5,-351"/>
<text text-anchor="middle" x="494" y="-358" font-family="Helvetica,sans-Serif" font-size="10.00">fiftyoneDegreesCacheShard</text>
</a>
</g>
</g>
<!-- Node27&#45;&gt;Node31 -->
<g id="edge44" class="edge"><title>Node27&#45;&gt;Node31</title>
<path fill="none" stroke="#9a32cd" stroke-dasharray="5,2" d="M327.171,-384.961C358.849,-380.288 396.887,-374.677 428.537,-370.009"/>
<polygon fill="#9a32cd" stroke="#9a32cd" points="326.507,-381.521 317.125,-386.442 327.529,-388.446 326.507,-381.521"/>
<text text-anchor="middle" x="374.5" y="-383.5" font-family="Helvetica,sans-Serif" font-size="10.00"> cache</text>
</g>
<!-- Node28&#45;&gt;Node27 -->
<g id="edge35" class="edge"><title>Node28&#45;&gt;Node27</title>
<path fill="none" stroke="#9a32cd" stroke-dasharray="5,2" d="M726.695,-341.263C653.628,-328.841 524.202,-312.779 415,-330.5 362.001,-339.101 305.058,-369.286 278.213,-384.933"/>
<polygon fill="#9a32cd" stroke="#9a32cd" points="726.171,-344.724 736.623,-342.988 727.37,-337.827 726.171,-344.724"/>
<text text-anchor="middle" x="494" y="-333.5" font-family="Helvetica,sans-Serif" font-size="10.00"> nodes</text>
</g>
<!-- Node28&#45;&gt;Node28 -->
<g id="edge36" class="edge"><title>Node28&#45;&gt;Node28</title>
<path fill="none" stroke="#9a32cd" stroke-dasharray="5,2" d="M758.621,-371.154C759.744,-376.437 768.704,-380.5 785.5,-380.5 811.094,-380.5 818.492,-371.065 807.695,-362.257"/>
<polygon fill="#9a32cd" stroke="#9a32cd" points="761.743,-372.736 763.305,-362.257 755.549,-369.475 761.743,-372.736"/>
<text text-anchor="middle" x="785.5" y="-394.5" font-family="Helvetica,sans-Serif" font-size="10.00"> listPrevious</text>
<text text-anchor="middle" x="785.5" y="-383.5" font-family="Helvetica,sans-Serif" font-size="10.00">listNext</text>
</g>
<!-- Node28&#45;&gt;Node31 -->
<g id="edge42" class="edge"><title>Node28&#45;&gt;Node31</title>
<path fill="none" stroke="#9a32cd" stroke-dasharray="5,2" d="M708.017,-363.044C701.929,-363.629 695.868,-364.129 690,-364.5 647.758,-367.171 600.276,-366.28 562.743,-364.669"/>
<polygon fill="#9a32cd" stroke="#9a32cd" points="708.669,-366.496 718.256,-361.987 707.949,-359.533 708.669,-366.496"/>
<text text-anchor="middle" x="640.5" y="-390.5" font-family="Helvetica,sans-Serif" font-size="10.00"> last</text>
<text text-anchor="middle" x="640.5" y="-379.5" font-family="Helvetica,sans-Serif" font-size="10.00">first</text>
<text text-anchor="middle" x="640.5" y="-368.5" font-family="Helvetica,sans-Serif" font-size="10.00">nodes</text>
</g>
<!-- Node29 -->
<g id="node29" class="node"><title>Node29</title>
<g id="a_node29"><a xlink:href="structfiftyone_degrees_tree_node.html" target="_top" xlink:title="Node structure defining a single node in the tree.">
<polygon fill="none" stroke="black" points="0,-281 0,-300 125,-300 125,-281 0,-281"/>
<text text-anchor="middle" x="62.5" y="-288" font-family="Helvetica,sans-Serif" font-size="10.00">fiftyoneDegreesTreeNode</text>
</a>
</g>
</g>
<!-- Node29&#45;&gt;Node28 -->
<g id="edge37" class="edge"><title>Node29&#45;&gt;Node28</title>
<path fill="none" stroke="#9a32cd" stroke-dasharray="5,2" d="M135.448,-281.086C152.941,-279.181 171.617,-277.467 189,-276.5 412.218,-264.088 471.892,-272.415 690,-321.5 714.089,-326.921 740.752,-335.959 759.598,-342.881"/>
<polygon fill="#9a32cd" stroke="#9a32cd" points="134.851,-277.631 125.304,-282.225 135.632,-284.587 134.851,-277.631"/>
<text text-anchor="middle" x="374.5" y="-276.5" font-family="Helvetica,sans-Serif" font-size="10.00"> tree</text>
</g>
<!-- Node29&#45;&gt;Node29 -->
<g id="edge38" class="edge"><title>Node29&#45;&gt;Node29</title>
<path fill="none" stroke="#9a32cd" stroke-dasharray="5,2" d="M45.0934,-309.9C46.2559,-314.815 52.0581,-318.5 62.5,-318.5 79.207,-318.5 84.0364,-309.065 76.9881,-300.257"/>
<polygon fill="#9a32cd" stroke="#9a32cd" points="48.465,-310.842 48.0119,-300.257 41.7651,-308.814 48.465,-310.842"/>
<text text-anchor="middle" x="62.5" y="-343.5" font-family="Helvetica,sans-Serif" font-size="10.00"> right</text>
<text text-anchor="middle" x="62.5" y="-332.5" font-family="Helvetica,sans-Serif" font-size="10.00">left</text>
<text text-anchor="middle" x="62.5" y="-321.5" font-family="Helvetica,sans-Serif" font-size="10.00">parent</text>
</g>
<!-- Node30 -->
<g id="node30" class="node"><title>Node30</title>
<g id="a_node30"><a xlink:href="structfiftyone_degrees_tree_root.html" target="_top" xlink:title="Tree root structure defining the beginning of the tree.">
<polygon fill="none" stroke="black" points="200.5,-286 200.5,-305 322.5,-305 322.5,-286 200.5,-286"/>
<text text-anchor="middle" x="261.5" y="-293" font-family="Helvetica,sans-Serif" font-size="10.00">fiftyoneDegreesTreeRoot</text>
</a>
</g>
</g>
<!-- Node29&#45;&gt;Node30 -->
<g id="edge40" class="edge"><title>Node29&#45;&gt;Node30</title>
<path fill="none" stroke="#9a32cd" stroke-dasharray="5,2" d="M135.271,-287.668C137.88,-287.604 140.463,-287.548 143,-287.5 155.442,-287.265 158.568,-286.945 171,-287.5 180.507,-287.924 190.564,-288.6 200.371,-289.384"/>
<polygon fill="#9a32cd" stroke="#9a32cd" points="135.024,-284.173 125.124,-287.945 135.216,-291.171 135.024,-284.173"/>
<text text-anchor="middle" x="157" y="-301.5" font-family="Helvetica,sans-Serif" font-size="10.00"> root</text>
<text text-anchor="middle" x="157" y="-290.5" font-family="Helvetica,sans-Serif" font-size="10.00">empty</text>
</g>
<!-- Node30&#45;&gt;Node29 -->
<g id="edge39" class="edge"><title>Node30&#45;&gt;Node29</title>
<path fill="none" stroke="#9a32cd" stroke-dasharray="5,2" d="M220.151,-307.567C197.494,-312.864 168.693,-317.142 143,-313.5 124.791,-310.919 104.916,-305.169 89.5932,-300.064"/>
<polygon fill="#9a32cd" stroke="#9a32cd" points="221.24,-310.902 230.096,-305.086 219.546,-304.111 221.24,-310.902"/>
<text text-anchor="middle" x="157" y="-318.5" font-family="Helvetica,sans-Serif" font-size="10.00"> root</text>
</g>
<!-- Node30&#45;&gt;Node31 -->
<g id="edge43" class="edge"><title>Node30&#45;&gt;Node31</title>
<path fill="none" stroke="#9a32cd" stroke-dasharray="5,2" d="M306.178,-307.817C350.664,-320.362 418.699,-339.548 459.225,-350.976"/>
<polygon fill="#9a32cd" stroke="#9a32cd" points="307.086,-304.437 296.511,-305.091 305.186,-311.174 307.086,-304.437"/>
<text text-anchor="middle" x="374.5" y="-335.5" font-family="Helvetica,sans-Serif" font-size="10.00"> root</text>
</g>
<!-- Node31&#45;&gt;Node27 -->
<g id="edge46" class="edge"><title>Node31&#45;&gt;Node27</title>
<path fill="none" stroke="#9a32cd" stroke-dasharray="5,2" d="M415.422,-354.595C394.676,-354.469 372.363,-355.66 352,-359.5 326.424,-364.323 298.784,-376.265 281.093,-384.858"/>
<polygon fill="#9a32cd" stroke="#9a32cd" points="415.411,-358.095 425.466,-354.756 415.524,-351.096 415.411,-358.095"/>
<text text-anchor="middle" x="374.5" y="-362.5" font-family="Helvetica,sans-Serif" font-size="10.00"> shards</text>
</g>
<!-- Node31&#45;&gt;Node28 -->
<g id="edge41" class="edge"><title>Node31&#45;&gt;Node28</title>
<path fill="none" stroke="#9a32cd" stroke-dasharray="5,2" d="M572.919,-354.373C579.034,-354.028 585.116,-353.729 591,-353.5 633.297,-351.851 680.833,-351.583 718.204,-351.736"/>
<polygon fill="#9a32cd" stroke="#9a32cd" points="572.397,-350.898 562.626,-354.993 572.818,-357.886 572.397,-350.898"/>
<text text-anchor="middle" x="640.5" y="-356.5" font-family="Helvetica,sans-Serif" font-size="10.00"> shard</text>
</g>
</g>
</svg>
