<?xml version="1.0" encoding="UTF-8" standalone="no"?>
<!DOCTYPE svg PUBLIC "-//W3C//DTD SVG 1.1//EN"
 "http://www.w3.org/Graphics/SVG/1.1/DTD/svg11.dtd">
<!-- Generated by graphviz version 2.38.0 (20140413.2041)
 -->
<!-- Title: fiftyoneDegreesCollectionItem Pages: 1 -->
<svg width="221pt" height="175pt"
 viewBox="0.00 0.00 220.50 175.00" xmlns="http://www.w3.org/2000/svg" xmlns:xlink="http://www.w3.org/1999/xlink">
<g id="graph0" class="graph" transform="scale(1 1) rotate(0) translate(4 171)">
<title>fiftyoneDegreesCollectionItem</title>
<!-- Node1 -->
<g id="node1" class="node"><title>Node1</title>
<g id="a_node1"><a xlink:title="Used to store a handle to the underlying item that could be used to release the item when it&#39;s finish...">
<polygon fill="#bfbfbf" stroke="black" points="0,-80.5 0,-99.5 145,-99.5 145,-80.5 0,-80.5"/>
<text text-anchor="middle" x="72.5" y="-87.5" font-family="Helvetica,sans-Serif" font-size="10.00">fiftyoneDegreesCollectionItem</text>
</a>
</g>
</g>
<!-- Node2 -->
<g id="node2" class="node"><title>Node2</title>
<g id="a_node2"><a xlink:href="structfiftyone_degrees_collection.html" target="_top" xlink:title="All the shared methods and fields required by file, memory and cached collections.">
<polygon fill="none" stroke="black" points="9.5,-7 9.5,-26 135.5,-26 135.5,-7 9.5,-7"/>
<text text-anchor="middle" x="72.5" y="-14" font-family="Helvetica,sans-Serif" font-size="10.00">fiftyoneDegreesCollection</text>
</a>
</g>
</g>
<!-- Node1&#45;&gt;Node2 -->
<g id="edge2" class="edge"><title>Node1&#45;&gt;Node2</title>
<path fill="none" stroke="#9a32cd" stroke-dasharray="5,2" d="M49.1512,-74.1112C42.1138,-67.6427 37.0592,-59.5835 40.5,-51 44.5102,-40.9962 53.0898,-32.2866 60.3564,-26.2572"/>
<polygon fill="#9a32cd" stroke="#9a32cd" points="47.2254,-77.0485 57.2576,-80.4554 51.5396,-71.536 47.2254,-77.0485"/>
<text text-anchor="middle" x="58" y="-54" font-family="Helvetica,sans-Serif" font-size="10.00"> release</text>
</g>
<!-- Node2&#45;&gt;Node1 -->
<g id="edge1" class="edge"><title>Node2&#45;&gt;Node1</title>
<path fill="none" stroke="#9a32cd" stroke-dasharray="5,2" d="M77.733,-35.7876C79.42,-43.8147 80.6018,-53.3597 79.5,-62 78.7159,-68.1486 76.9659,-74.8986 75.4119,-80.1114"/>
<polygon fill="#9a32cd" stroke="#9a32cd" points="81.1092,-34.8612 75.2865,-26.0099 74.3186,-36.5604 81.1092,-34.8612"/>
<text text-anchor="middle" x="102" y="-54" font-family="Helvetica,sans-Serif" font-size="10.00"> collection</text>
</g>
<!-- Node2&#45;&gt;Node2 -->
<g id="edge3" class="edge"><title>Node2&#45;&gt;Node2</title>
<path fill="none" stroke="#9a32cd" stroke-dasharray="5,2" d="M145.59,-21.8969C150.512,-20.6513 153.5,-18.8523 153.5,-16.5 153.5,-12.8281 146.219,-10.5045 135.668,-9.52917"/>
<polygon fill="#9a32cd" stroke="#9a32cd" points="144.996,-18.4473 135.668,-23.4708 146.093,-25.3608 144.996,-18.4473"/>
<text text-anchor="middle" x="183" y="-25" font-family="Helvetica,sans-Serif" font-size="10.00"> next</text>
<text text-anchor="middle" x="183" y="-14" font-family="Helvetica,sans-Serif" font-size="10.00">freeCollection</text>
<text text-anchor="middle" x="183" y="-3" font-family="Helvetica,sans-Serif" font-size="10.00">get</text>
</g>
<!-- Node3 -->
<g id="node3" class="node"><title>Node3</title>
<g id="a_node3"><a xlink:href="structfiftyone_degrees_data.html" target="_top" xlink:title="Data structure used for reusing memory which may have been allocated in a previous operation.">
<polygon fill="none" stroke="black" points="20.5,-147.5 20.5,-166.5 124.5,-166.5 124.5,-147.5 20.5,-147.5"/>
<text text-anchor="middle" x="72.5" y="-154.5" font-family="Helvetica,sans-Serif" font-size="10.00">fiftyoneDegreesData</text>
</a>
</g>
</g>
<!-- Node3&#45;&gt;Node1 -->
<g id="edge4" class="edge"><title>Node3&#45;&gt;Node1</title>
<path fill="none" stroke="#9a32cd" stroke-dasharray="5,2" d="M72.5,-137.037C72.5,-124.67 72.5,-109.12 72.5,-99.6273"/>
<polygon fill="#9a32cd" stroke="#9a32cd" points="69.0001,-137.234 72.5,-147.234 76.0001,-137.234 69.0001,-137.234"/>
<text text-anchor="middle" x="83.5" y="-121" font-family="Helvetica,sans-Serif" font-size="10.00"> data</text>
</g>
</g>
</svg>
