<?xml version="1.0" encoding="UTF-8" standalone="no"?>
<!DOCTYPE svg PUBLIC "-//W3C//DTD SVG 1.1//EN"
 "http://www.w3.org/Graphics/SVG/1.1/DTD/svg11.dtd">
<!-- Generated by graphviz version 2.38.0 (20140413.2041)
 -->
<!-- Title: fiftyoneDegreesConfigPattern Pages: 1 -->
<svg width="292pt" height="305pt"
 viewBox="0.00 0.00 291.50 305.00" xmlns="http://www.w3.org/2000/svg" xmlns:xlink="http://www.w3.org/1999/xlink">
<g id="graph0" class="graph" transform="scale(1 1) rotate(0) translate(4 301)">
<title>fiftyoneDegreesConfigPattern</title>
<!-- Node1 -->
<g id="node1" class="node"><title>Node1</title>
<g id="a_node1"><a xlink:title="Pattern specific configuration structure.">
<polygon fill="#bfbfbf" stroke="black" points="59,-0.5 59,-19.5 201,-19.5 201,-0.5 59,-0.5"/>
<text text-anchor="middle" x="130" y="-7.5" font-family="Helvetica,sans-Serif" font-size="10.00">fiftyoneDegreesConfigPattern</text>
</a>
</g>
</g>
<!-- Node2 -->
<g id="node2" class="node"><title>Node2</title>
<g id="a_node2"><a xlink:href="structfiftyone_degrees_collection_config.html" target="_top" xlink:title="Collection configuration structure which defines how the collection should be created by the create m...">
<polygon fill="none" stroke="black" points="0,-199.5 0,-229.5 126,-229.5 126,-199.5 0,-199.5"/>
<text text-anchor="start" x="8" y="-217.5" font-family="Helvetica,sans-Serif" font-size="10.00">fiftyoneDegreesCollection</text>
<text text-anchor="middle" x="63" y="-206.5" font-family="Helvetica,sans-Serif" font-size="10.00">Config</text>
</a>
</g>
</g>
<!-- Node2&#45;&gt;Node1 -->
<g id="edge1" class="edge"><title>Node2&#45;&gt;Node1</title>
<path fill="none" stroke="#9a32cd" stroke-dasharray="5,2" d="M58.6522,-189.172C53.5563,-152.967 49.3108,-84.2228 80,-38 85.5114,-29.699 94.4567,-23.7454 103.268,-19.5789"/>
<polygon fill="#9a32cd" stroke="#9a32cd" points="55.2319,-189.957 60.2232,-199.302 62.1493,-188.884 55.2319,-189.957"/>
<text text-anchor="middle" x="128" y="-173" font-family="Helvetica,sans-Serif" font-size="10.00"> profileOffsets</text>
<text text-anchor="middle" x="128" y="-162" font-family="Helvetica,sans-Serif" font-size="10.00">values</text>
<text text-anchor="middle" x="128" y="-151" font-family="Helvetica,sans-Serif" font-size="10.00">strings</text>
<text text-anchor="middle" x="128" y="-140" font-family="Helvetica,sans-Serif" font-size="10.00">maps</text>
<text text-anchor="middle" x="128" y="-129" font-family="Helvetica,sans-Serif" font-size="10.00">components</text>
<text text-anchor="start" x="80" y="-118" font-family="Helvetica,sans-Serif" font-size="10.00">rankedSignature</text>
<text text-anchor="middle" x="128" y="-107" font-family="Helvetica,sans-Serif" font-size="10.00">Indexes</text>
<text text-anchor="middle" x="128" y="-96" font-family="Helvetica,sans-Serif" font-size="10.00">nodes</text>
<text text-anchor="start" x="80" y="-85" font-family="Helvetica,sans-Serif" font-size="10.00">nodeRankedSignature</text>
<text text-anchor="middle" x="128" y="-74" font-family="Helvetica,sans-Serif" font-size="10.00">Indexes</text>
<text text-anchor="middle" x="128" y="-63" font-family="Helvetica,sans-Serif" font-size="10.00">signatures</text>
<text text-anchor="middle" x="128" y="-52" font-family="Helvetica,sans-Serif" font-size="10.00">properties</text>
<text text-anchor="middle" x="128" y="-41" font-family="Helvetica,sans-Serif" font-size="10.00">...</text>
</g>
<!-- Node3 -->
<g id="node3" class="node"><title>Node3</title>
<g id="a_node3"><a xlink:href="structfiftyone_degrees_config_device_detection.html" target="_top" xlink:title="Device detection configuration structure containing device detection specific configuration options,...">
<polygon fill="none" stroke="black" points="144.5,-199.5 144.5,-229.5 283.5,-229.5 283.5,-199.5 144.5,-199.5"/>
<text text-anchor="start" x="152.5" y="-217.5" font-family="Helvetica,sans-Serif" font-size="10.00">fiftyoneDegreesConfigDevice</text>
<text text-anchor="middle" x="214" y="-206.5" font-family="Helvetica,sans-Serif" font-size="10.00">Detection</text>
</a>
</g>
</g>
<!-- Node3&#45;&gt;Node1 -->
<g id="edge2" class="edge"><title>Node3&#45;&gt;Node1</title>
<path fill="none" stroke="#9a32cd" stroke-dasharray="5,2" d="M214.648,-189.056C214.399,-152.702 209.135,-83.769 176,-38 170.135,-29.8991 161.032,-23.8279 152.466,-19.5157"/>
<polygon fill="#9a32cd" stroke="#9a32cd" points="211.147,-189.21 214.589,-199.23 218.147,-189.251 211.147,-189.21"/>
<text text-anchor="middle" x="218.5" y="-107" font-family="Helvetica,sans-Serif" font-size="10.00"> b</text>
</g>
<!-- Node4 -->
<g id="node4" class="node"><title>Node4</title>
<g id="a_node4"><a xlink:href="structfiftyone_degrees_config_base.html" target="_top" xlink:title="Base configuration structure containing common configuration options, and options that apply to struc...">
<polygon fill="none" stroke="black" points="147.5,-277.5 147.5,-296.5 280.5,-296.5 280.5,-277.5 147.5,-277.5"/>
<text text-anchor="middle" x="214" y="-284.5" font-family="Helvetica,sans-Serif" font-size="10.00">fiftyoneDegreesConfigBase</text>
</a>
</g>
</g>
<!-- Node4&#45;&gt;Node3 -->
<g id="edge3" class="edge"><title>Node4&#45;&gt;Node3</title>
<path fill="none" stroke="#9a32cd" stroke-dasharray="5,2" d="M214,-267.236C214,-255.408 214,-240.383 214,-229.576"/>
<polygon fill="#9a32cd" stroke="#9a32cd" points="210.5,-267.355 214,-277.355 217.5,-267.355 210.5,-267.355"/>
<text text-anchor="middle" x="218.5" y="-251" font-family="Helvetica,sans-Serif" font-size="10.00"> b</text>
</g>
</g>
</svg>
