<?xml version="1.0" encoding="UTF-8" standalone="no"?>
<!DOCTYPE svg PUBLIC "-//W3C//DTD SVG 1.1//EN"
 "http://www.w3.org/Graphics/SVG/1.1/DTD/svg11.dtd">
<!-- Generated by graphviz version 2.38.0 (20140413.2041)
 -->
<!-- Title: fiftyoneDegreesCacheNode Pages: 1 -->
<svg width="344pt" height="344pt"
 viewBox="0.00 0.00 344.00 344.00" xmlns="http://www.w3.org/2000/svg" xmlns:xlink="http://www.w3.org/1999/xlink">
<g id="graph0" class="graph" transform="scale(1 1) rotate(0) translate(4 340)">
<title>fiftyoneDegreesCacheNode</title>
<!-- Node1 -->
<g id="node1" class="node"><title>Node1</title>
<g id="a_node1"><a xlink:title="Cache node structure used for storing data in the cache along with its key.">
<polygon fill="#bfbfbf" stroke="black" points="89,-157.5 89,-176.5 223,-176.5 223,-157.5 89,-157.5"/>
<text text-anchor="middle" x="156" y="-164.5" font-family="Helvetica,sans-Serif" font-size="10.00">fiftyoneDegreesCacheNode</text>
</a>
</g>
</g>
<!-- Node1&#45;&gt;Node1 -->
<g id="edge1" class="edge"><title>Node1&#45;&gt;Node1</title>
<path fill="none" stroke="#9a32cd" stroke-dasharray="5,2" d="M233.541,-171.407C238.203,-170.357 241,-168.888 241,-167 241,-163.979 233.84,-162.031 223.337,-161.158"/>
<polygon fill="#9a32cd" stroke="#9a32cd" points="232.752,-167.983 223.337,-172.842 233.727,-174.915 232.752,-167.983"/>
<text text-anchor="middle" x="267.5" y="-170" font-family="Helvetica,sans-Serif" font-size="10.00"> listPrevious</text>
<text text-anchor="middle" x="267.5" y="-159" font-family="Helvetica,sans-Serif" font-size="10.00">listNext</text>
</g>
<!-- Node4 -->
<g id="node4" class="node"><title>Node4</title>
<g id="a_node4"><a xlink:href="structfiftyone_degrees_cache_shard.html" target="_top" xlink:title="Cache shard structure used to enable concurrent access to the cache.">
<polygon fill="none" stroke="black" points="146.5,-67.5 146.5,-86.5 283.5,-86.5 283.5,-67.5 146.5,-67.5"/>
<text text-anchor="middle" x="215" y="-74.5" font-family="Helvetica,sans-Serif" font-size="10.00">fiftyoneDegreesCacheShard</text>
</a>
</g>
</g>
<!-- Node1&#45;&gt;Node4 -->
<g id="edge7" class="edge"><title>Node1&#45;&gt;Node4</title>
<path fill="none" stroke="#9a32cd" stroke-dasharray="5,2" d="M151.817,-147.2C150.026,-134.294 149.908,-117.334 158,-105 163.586,-96.4853 172.636,-90.5938 181.896,-86.5433"/>
<polygon fill="#9a32cd" stroke="#9a32cd" points="148.419,-148.071 153.658,-157.28 155.305,-146.814 148.419,-148.071"/>
<text text-anchor="middle" x="171.5" y="-130" font-family="Helvetica,sans-Serif" font-size="10.00"> last</text>
<text text-anchor="middle" x="171.5" y="-119" font-family="Helvetica,sans-Serif" font-size="10.00">first</text>
<text text-anchor="middle" x="171.5" y="-108" font-family="Helvetica,sans-Serif" font-size="10.00">nodes</text>
</g>
<!-- Node5 -->
<g id="node5" class="node"><title>Node5</title>
<g id="a_node5"><a xlink:href="structfiftyone_degrees_cache.html" target="_top" xlink:title="Cache structure to store the root of the red black tree and a list of allocated cache nodes.">
<polygon fill="none" stroke="black" points="65.5,-0.5 65.5,-19.5 176.5,-19.5 176.5,-0.5 65.5,-0.5"/>
<text text-anchor="middle" x="121" y="-7.5" font-family="Helvetica,sans-Serif" font-size="10.00">fiftyoneDegreesCache</text>
</a>
</g>
</g>
<!-- Node1&#45;&gt;Node5 -->
<g id="edge10" class="edge"><title>Node1&#45;&gt;Node5</title>
<path fill="none" stroke="#9a32cd" stroke-dasharray="5,2" d="M141.671,-149.202C129.766,-134.063 113.729,-110.614 107,-87 100.161,-63.0007 110.651,-33.7555 116.898,-19.5564"/>
<polygon fill="#9a32cd" stroke="#9a32cd" points="139.072,-151.553 148.102,-157.094 144.499,-147.131 139.072,-151.553"/>
<text text-anchor="middle" x="122" y="-74.5" font-family="Helvetica,sans-Serif" font-size="10.00"> nodes</text>
</g>
<!-- Node2 -->
<g id="node2" class="node"><title>Node2</title>
<g id="a_node2"><a xlink:href="structfiftyone_degrees_tree_node.html" target="_top" xlink:title="Node structure defining a single node in the tree.">
<polygon fill="none" stroke="black" points="122.5,-232 122.5,-251 247.5,-251 247.5,-232 122.5,-232"/>
<text text-anchor="middle" x="185" y="-239" font-family="Helvetica,sans-Serif" font-size="10.00">fiftyoneDegreesTreeNode</text>
</a>
</g>
</g>
<!-- Node2&#45;&gt;Node1 -->
<g id="edge2" class="edge"><title>Node2&#45;&gt;Node1</title>
<path fill="none" stroke="#9a32cd" stroke-dasharray="5,2" d="M177.753,-222.384C171.901,-207.752 163.925,-187.812 159.436,-176.59"/>
<polygon fill="#9a32cd" stroke="#9a32cd" points="174.596,-223.914 181.559,-231.899 181.095,-221.314 174.596,-223.914"/>
<text text-anchor="middle" x="182" y="-199" font-family="Helvetica,sans-Serif" font-size="10.00"> tree</text>
</g>
<!-- Node2&#45;&gt;Node2 -->
<g id="edge3" class="edge"><title>Node2&#45;&gt;Node2</title>
<path fill="none" stroke="#9a32cd" stroke-dasharray="5,2" d="M257.994,-246.805C262.674,-245.563 265.5,-243.795 265.5,-241.5 265.5,-237.828 258.264,-235.505 247.778,-234.529"/>
<polygon fill="#9a32cd" stroke="#9a32cd" points="257.084,-243.407 247.778,-248.471 258.211,-250.315 257.084,-243.407"/>
<text text-anchor="middle" x="279.5" y="-250" font-family="Helvetica,sans-Serif" font-size="10.00"> right</text>
<text text-anchor="middle" x="279.5" y="-239" font-family="Helvetica,sans-Serif" font-size="10.00">left</text>
<text text-anchor="middle" x="279.5" y="-228" font-family="Helvetica,sans-Serif" font-size="10.00">parent</text>
</g>
<!-- Node3 -->
<g id="node3" class="node"><title>Node3</title>
<g id="a_node3"><a xlink:href="structfiftyone_degrees_tree_root.html" target="_top" xlink:title="Tree root structure defining the beginning of the tree.">
<polygon fill="none" stroke="black" points="167,-316.5 167,-335.5 289,-335.5 289,-316.5 167,-316.5"/>
<text text-anchor="middle" x="228" y="-323.5" font-family="Helvetica,sans-Serif" font-size="10.00">fiftyoneDegreesTreeRoot</text>
</a>
</g>
</g>
<!-- Node2&#45;&gt;Node3 -->
<g id="edge5" class="edge"><title>Node2&#45;&gt;Node3</title>
<path fill="none" stroke="#9a32cd" stroke-dasharray="5,2" d="M196.364,-259.618C199.627,-264.794 203.087,-270.552 206,-276 213.298,-289.651 220.382,-306.201 224.461,-316.151"/>
<polygon fill="#9a32cd" stroke="#9a32cd" points="199.237,-257.614 190.865,-251.12 193.36,-261.417 199.237,-257.614"/>
<text text-anchor="middle" x="231" y="-290" font-family="Helvetica,sans-Serif" font-size="10.00"> root</text>
<text text-anchor="middle" x="231" y="-279" font-family="Helvetica,sans-Serif" font-size="10.00">empty</text>
</g>
<!-- Node3&#45;&gt;Node2 -->
<g id="edge4" class="edge"><title>Node3&#45;&gt;Node2</title>
<path fill="none" stroke="#9a32cd" stroke-dasharray="5,2" d="M197.593,-310.755C192.959,-307.243 188.797,-303.016 186,-298 177.739,-283.187 180.364,-262.509 182.812,-251.033"/>
<polygon fill="#9a32cd" stroke="#9a32cd" points="195.944,-313.856 206.249,-316.319 199.729,-307.968 195.944,-313.856"/>
<text text-anchor="middle" x="196" y="-284.5" font-family="Helvetica,sans-Serif" font-size="10.00"> root</text>
</g>
<!-- Node3&#45;&gt;Node4 -->
<g id="edge8" class="edge"><title>Node3&#45;&gt;Node4</title>
<path fill="none" stroke="#9a32cd" stroke-dasharray="5,2" d="M252.639,-310.905C270.309,-299.257 292.735,-280.935 303,-258 321.52,-216.622 321.6,-197.342 303,-156 288.341,-123.419 252.601,-98.9328 231.452,-86.6995"/>
<polygon fill="#9a32cd" stroke="#9a32cd" points="250.531,-308.096 243.922,-316.377 254.252,-314.025 250.531,-308.096"/>
<text text-anchor="middle" x="326" y="-199" font-family="Helvetica,sans-Serif" font-size="10.00"> root</text>
</g>
<!-- Node4&#45;&gt;Node1 -->
<g id="edge6" class="edge"><title>Node4&#45;&gt;Node1</title>
<path fill="none" stroke="#9a32cd" stroke-dasharray="5,2" d="M209.437,-96.5595C205.125,-109.042 198.309,-125.446 189,-138 183.451,-145.484 175.535,-152.287 168.847,-157.313"/>
<polygon fill="#9a32cd" stroke="#9a32cd" points="212.848,-97.3868 212.582,-86.7953 206.185,-95.2409 212.848,-97.3868"/>
<text text-anchor="middle" x="221" y="-119" font-family="Helvetica,sans-Serif" font-size="10.00"> shard</text>
</g>
<!-- Node4&#45;&gt;Node5 -->
<g id="edge11" class="edge"><title>Node4&#45;&gt;Node5</title>
<path fill="none" stroke="#9a32cd" stroke-dasharray="5,2" d="M170.809,-63.8892C161.672,-60.0821 152.544,-55.1986 145,-49 135.354,-41.0743 128.39,-28.2119 124.524,-19.6798"/>
<polygon fill="#9a32cd" stroke="#9a32cd" points="169.678,-67.2032 180.269,-67.477 172.16,-60.6582 169.678,-67.2032"/>
<text text-anchor="middle" x="161.5" y="-41" font-family="Helvetica,sans-Serif" font-size="10.00"> shards</text>
</g>
<!-- Node5&#45;&gt;Node4 -->
<g id="edge9" class="edge"><title>Node5&#45;&gt;Node4</title>
<path fill="none" stroke="#9a32cd" stroke-dasharray="5,2" d="M156.333,-23.5035C165.141,-27.4446 174.27,-32.2899 182,-38 193.245,-46.3063 203.324,-59.0735 209.303,-67.4808"/>
<polygon fill="#9a32cd" stroke="#9a32cd" points="157.559,-20.2221 146.983,-19.5837 154.852,-26.6778 157.559,-20.2221"/>
<text text-anchor="middle" x="209" y="-41" font-family="Helvetica,sans-Serif" font-size="10.00"> cache</text>
</g>
<!-- Node6 -->
<g id="node6" class="node"><title>Node6</title>
<g id="a_node6"><a xlink:href="structfiftyone_degrees_data.html" target="_top" xlink:title="Data structure used for reusing memory which may have been allocated in a previous operation.">
<polygon fill="none" stroke="black" points="0,-232 0,-251 104,-251 104,-232 0,-232"/>
<text text-anchor="middle" x="52" y="-239" font-family="Helvetica,sans-Serif" font-size="10.00">fiftyoneDegreesData</text>
</a>
</g>
</g>
<!-- Node6&#45;&gt;Node1 -->
<g id="edge13" class="edge"><title>Node6&#45;&gt;Node1</title>
<path fill="none" stroke="#9a32cd" stroke-dasharray="5,2" d="M72.6738,-226.088C93.882,-211.303 126.173,-188.793 143.677,-176.59"/>
<polygon fill="#9a32cd" stroke="#9a32cd" points="70.5404,-223.309 64.3386,-231.899 74.5436,-229.051 70.5404,-223.309"/>
<text text-anchor="middle" x="125" y="-199" font-family="Helvetica,sans-Serif" font-size="10.00"> data</text>
</g>
<!-- Node6&#45;&gt;Node5 -->
<g id="edge12" class="edge"><title>Node6&#45;&gt;Node5</title>
<path fill="none" stroke="#9a32cd" stroke-dasharray="5,2" d="M54.8542,-221.492C60.7908,-184.85 76.2777,-102.374 104,-38 106.804,-31.4879 111.054,-24.7379 114.603,-19.6159"/>
<polygon fill="#9a32cd" stroke="#9a32cd" points="51.3454,-221.277 53.2589,-231.697 58.2614,-222.358 51.3454,-221.277"/>
<text text-anchor="middle" x="92" y="-119" font-family="Helvetica,sans-Serif" font-size="10.00"> load</text>
</g>
</g>
</svg>
