<?xml version="1.0" encoding="UTF-8" standalone="no"?>
<!DOCTYPE svg PUBLIC "-//W3C//DTD SVG 1.1//EN"
 "http://www.w3.org/Graphics/SVG/1.1/DTD/svg11.dtd">
<!-- Generated by graphviz version 2.38.0 (20140413.2041)
 -->
<!-- Title: fiftyoneDegreesDataSetHash Pages: 1 -->
<svg width="1911pt" height="501pt"
 viewBox="0.00 0.00 1911.00 500.50" xmlns="http://www.w3.org/2000/svg" xmlns:xlink="http://www.w3.org/1999/xlink">
<g id="graph0" class="graph" transform="scale(1 1) rotate(0) translate(4 496.5)">
<title>fiftyoneDegreesDataSetHash</title>
<!-- Node1 -->
<g id="node1" class="node"><title>Node1</title>
<g id="a_node1"><a xlink:title="Data set structure containing all the components used for detections.">
<polygon fill="#bfbfbf" stroke="black" points="1762,-203 1762,-222 1903,-222 1903,-203 1762,-203"/>
<text text-anchor="middle" x="1832.5" y="-210" font-family="Helvetica,sans-Serif" font-size="10.00">fiftyoneDegreesDataSetHash</text>
</a>
</g>
</g>
<!-- Node2 -->
<g id="node2" class="node"><title>Node2</title>
<g id="a_node2"><a xlink:href="structfiftyone_degrees_data_set_device_detection.html" target="_top" xlink:title="Device detection data set structure which contains the &#39;must have&#39;s for all device detection data set...">
<polygon fill="none" stroke="black" points="1546,-246.5 1546,-276.5 1693,-276.5 1693,-246.5 1546,-246.5"/>
<text text-anchor="start" x="1554" y="-264.5" font-family="Helvetica,sans-Serif" font-size="10.00">fiftyoneDegreesDataSetDevice</text>
<text text-anchor="middle" x="1619.5" y="-253.5" font-family="Helvetica,sans-Serif" font-size="10.00">Detection</text>
</a>
</g>
</g>
<!-- Node2&#45;&gt;Node1 -->
<g id="edge1" class="edge"><title>Node2&#45;&gt;Node1</title>
<path fill="none" stroke="#9a32cd" stroke-dasharray="5,2" d="M1695.05,-244.188C1727.13,-236.739 1763.39,-228.316 1790.47,-222.028"/>
<polygon fill="#9a32cd" stroke="#9a32cd" points="1694.19,-240.794 1685.24,-246.465 1695.77,-247.613 1694.19,-240.794"/>
<text text-anchor="middle" x="1727.5" y="-243.5" font-family="Helvetica,sans-Serif" font-size="10.00"> b</text>
</g>
<!-- Node3 -->
<g id="node3" class="node"><title>Node3</title>
<g id="a_node3"><a xlink:href="structfiftyone_degrees_data_set_base.html" target="_top" xlink:title="Base data set structure which contains the &#39;must have&#39;s for all data sets.">
<polygon fill="none" stroke="black" points="1302.5,-266 1302.5,-285 1443.5,-285 1443.5,-266 1302.5,-266"/>
<text text-anchor="middle" x="1373" y="-273" font-family="Helvetica,sans-Serif" font-size="10.00">fiftyoneDegreesDataSetBase</text>
</a>
</g>
</g>
<!-- Node3&#45;&gt;Node2 -->
<g id="edge2" class="edge"><title>Node3&#45;&gt;Node2</title>
<path fill="none" stroke="#9a32cd" stroke-dasharray="5,2" d="M1454.01,-270.918C1483.55,-269.227 1516.83,-267.322 1545.69,-265.669"/>
<polygon fill="#9a32cd" stroke="#9a32cd" points="1453.52,-267.441 1443.74,-271.507 1453.92,-274.429 1453.52,-267.441"/>
<text text-anchor="middle" x="1500" y="-273.5" font-family="Helvetica,sans-Serif" font-size="10.00"> b</text>
</g>
<!-- Node4 -->
<g id="node4" class="node"><title>Node4</title>
<g id="a_node4"><a xlink:href="structfiftyone_degrees_header_array.html" target="_top" xlink:title="Array of items of type fiftyoneDegreesHeader used to easily access and track the size of the array.">
<polygon fill="none" stroke="black" points="879.5,-273 879.5,-292 1016.5,-292 1016.5,-273 879.5,-273"/>
<text text-anchor="middle" x="948" y="-280" font-family="Helvetica,sans-Serif" font-size="10.00">fiftyoneDegreesHeaderArray</text>
</a>
</g>
</g>
<!-- Node4&#45;&gt;Node3 -->
<g id="edge3" class="edge"><title>Node4&#45;&gt;Node3</title>
<path fill="none" stroke="#9a32cd" stroke-dasharray="5,2" d="M1027.33,-281.204C1106.23,-279.898 1226.83,-277.902 1302.45,-276.651"/>
<polygon fill="#9a32cd" stroke="#9a32cd" points="1026.9,-277.71 1016.96,-281.375 1027.02,-284.709 1026.9,-277.71"/>
<text text-anchor="middle" x="1122.5" y="-284.5" font-family="Helvetica,sans-Serif" font-size="10.00"> uniqueHeaders</text>
</g>
<!-- Node5 -->
<g id="node5" class="node"><title>Node5</title>
<g id="a_node5"><a xlink:href="structfiftyone_degrees_header.html" target="_top" xlink:title="Header structure containing the name and unique id.">
<polygon fill="none" stroke="black" points="564,-284 564,-303 678,-303 678,-284 564,-284"/>
<text text-anchor="middle" x="621" y="-291" font-family="Helvetica,sans-Serif" font-size="10.00">fiftyoneDegreesHeader</text>
</a>
</g>
</g>
<!-- Node5&#45;&gt;Node4 -->
<g id="edge4" class="edge"><title>Node5&#45;&gt;Node4</title>
<path fill="none" stroke="#9a32cd" stroke-dasharray="5,2" d="M688.356,-291.254C744.059,-289.369 823.299,-286.687 879.36,-284.789"/>
<polygon fill="#9a32cd" stroke="#9a32cd" points="688.115,-287.76 678.24,-291.597 688.352,-294.756 688.115,-287.76"/>
<text text-anchor="middle" x="773.5" y="-294.5" font-family="Helvetica,sans-Serif" font-size="10.00"> items</text>
</g>
<!-- Node6 -->
<g id="node6" class="node"><title>Node6</title>
<g id="a_node6"><a xlink:href="structfiftyone_degrees_collection_item.html" target="_top" xlink:title="Used to store a handle to the underlying item that could be used to release the item when it&#39;s finish...">
<polygon fill="none" stroke="black" points="162,-350 162,-369 307,-369 307,-350 162,-350"/>
<text text-anchor="middle" x="234.5" y="-357" font-family="Helvetica,sans-Serif" font-size="10.00">fiftyoneDegreesCollectionItem</text>
</a>
</g>
</g>
<!-- Node6&#45;&gt;Node5 -->
<g id="edge5" class="edge"><title>Node6&#45;&gt;Node5</title>
<path fill="none" stroke="#9a32cd" stroke-dasharray="5,2" d="M266.524,-345.951C283.492,-339.082 305.062,-331.217 325,-326.5 406.745,-307.159 503.989,-299.069 563.855,-295.744"/>
<polygon fill="#9a32cd" stroke="#9a32cd" points="265.012,-342.789 257.112,-349.849 267.69,-349.256 265.012,-342.789"/>
<text text-anchor="middle" x="347.5" y="-329.5" font-family="Helvetica,sans-Serif" font-size="10.00"> name</text>
</g>
<!-- Node7 -->
<g id="node7" class="node"><title>Node7</title>
<g id="a_node7"><a xlink:href="structfiftyone_degrees_collection.html" target="_top" xlink:title="All the shared methods and fields required by file, memory and cached collections.">
<polygon fill="none" stroke="black" points="404,-401 404,-420 530,-420 530,-401 404,-401"/>
<text text-anchor="middle" x="467" y="-408" font-family="Helvetica,sans-Serif" font-size="10.00">fiftyoneDegreesCollection</text>
</a>
</g>
</g>
<!-- Node6&#45;&gt;Node7 -->
<g id="edge7" class="edge"><title>Node6&#45;&gt;Node7</title>
<path fill="none" stroke="#9a32cd" stroke-dasharray="5,2" d="M271.079,-372.463C287.348,-378.018 306.974,-384.202 325,-388.5 350.546,-394.591 379.111,-399.41 403.815,-402.966"/>
<polygon fill="#9a32cd" stroke="#9a32cd" points="272.023,-369.086 261.428,-369.109 269.725,-375.698 272.023,-369.086"/>
<text text-anchor="middle" x="347.5" y="-399.5" font-family="Helvetica,sans-Serif" font-size="10.00"> release</text>
</g>
<!-- Node17 -->
<g id="node17" class="node"><title>Node17</title>
<g id="a_node17"><a xlink:href="structfiftyone_degrees_property_available.html" target="_top" xlink:title="Used to access the property item quickly without the need to search.">
<polygon fill="none" stroke="black" points="388,-333 388,-352 546,-352 546,-333 388,-333"/>
<text text-anchor="middle" x="467" y="-340" font-family="Helvetica,sans-Serif" font-size="10.00">fiftyoneDegreesPropertyAvailable</text>
</a>
</g>
</g>
<!-- Node6&#45;&gt;Node17 -->
<g id="edge22" class="edge"><title>Node6&#45;&gt;Node17</title>
<path fill="none" stroke="#9a32cd" stroke-dasharray="5,2" d="M290.238,-348.197C301.676,-346.263 313.694,-344.543 325,-343.5 345.354,-341.622 367.431,-340.863 387.942,-340.692"/>
<polygon fill="#9a32cd" stroke="#9a32cd" points="289.607,-344.755 280.369,-349.941 290.825,-351.648 289.607,-344.755"/>
<text text-anchor="middle" x="347.5" y="-346.5" font-family="Helvetica,sans-Serif" font-size="10.00"> name</text>
</g>
<!-- Node7&#45;&gt;Node1 -->
<g id="edge25" class="edge"><title>Node7&#45;&gt;Node1</title>
<path fill="none" stroke="#9a32cd" stroke-dasharray="5,2" d="M540.127,-412.351C601.823,-413.775 692.992,-415.5 772.5,-415.5 772.5,-415.5 772.5,-415.5 1620.5,-415.5 1733.6,-415.5 1809.49,-262.153 1827.42,-222.019"/>
<polygon fill="#9a32cd" stroke="#9a32cd" points="540.183,-408.852 530.104,-412.116 540.02,-415.85 540.183,-408.852"/>
<text text-anchor="middle" x="1246" y="-484.5" font-family="Helvetica,sans-Serif" font-size="10.00"> httpHeaders</text>
<text text-anchor="middle" x="1246" y="-473.5" font-family="Helvetica,sans-Serif" font-size="10.00">strings</text>
<text text-anchor="middle" x="1246" y="-462.5" font-family="Helvetica,sans-Serif" font-size="10.00">components</text>
<text text-anchor="middle" x="1246" y="-451.5" font-family="Helvetica,sans-Serif" font-size="10.00">nodes</text>
<text text-anchor="middle" x="1246" y="-440.5" font-family="Helvetica,sans-Serif" font-size="10.00">properties</text>
<text text-anchor="middle" x="1246" y="-429.5" font-family="Helvetica,sans-Serif" font-size="10.00">devices</text>
<text text-anchor="middle" x="1246" y="-418.5" font-family="Helvetica,sans-Serif" font-size="10.00">profiles</text>
</g>
<!-- Node7&#45;&gt;Node6 -->
<g id="edge6" class="edge"><title>Node7&#45;&gt;Node6</title>
<path fill="none" stroke="#9a32cd" stroke-dasharray="5,2" d="M432.728,-397.241C414.468,-390.43 391.273,-382.527 370,-377.5 349.824,-372.732 327.626,-369.115 307.18,-366.421"/>
<polygon fill="#9a32cd" stroke="#9a32cd" points="431.73,-400.606 442.321,-400.887 434.217,-394.063 431.73,-400.606"/>
<text text-anchor="middle" x="347.5" y="-380.5" font-family="Helvetica,sans-Serif" font-size="10.00"> collection</text>
</g>
<!-- Node7&#45;&gt;Node7 -->
<g id="edge8" class="edge"><title>Node7&#45;&gt;Node7</title>
<path fill="none" stroke="#9a32cd" stroke-dasharray="5,2" d="M445.051,-429.529C446.248,-434.628 453.564,-438.5 467,-438.5 487.973,-438.5 494.035,-429.065 485.187,-420.257"/>
<polygon fill="#9a32cd" stroke="#9a32cd" points="448.296,-430.839 448.813,-420.257 441.81,-428.207 448.296,-430.839"/>
<text text-anchor="middle" x="467" y="-463.5" font-family="Helvetica,sans-Serif" font-size="10.00"> next</text>
<text text-anchor="middle" x="467" y="-452.5" font-family="Helvetica,sans-Serif" font-size="10.00">freeCollection</text>
<text text-anchor="middle" x="467" y="-441.5" font-family="Helvetica,sans-Serif" font-size="10.00">get</text>
</g>
<!-- Node8 -->
<g id="node8" class="node"><title>Node8</title>
<g id="a_node8"><a xlink:href="structfiftyone_degrees_data.html" target="_top" xlink:title="Data structure used for reusing memory which may have been allocated in a previous operation.">
<polygon fill="none" stroke="black" points="0,-350 0,-369 104,-369 104,-350 0,-350"/>
<text text-anchor="middle" x="52" y="-357" font-family="Helvetica,sans-Serif" font-size="10.00">fiftyoneDegreesData</text>
</a>
</g>
</g>
<!-- Node8&#45;&gt;Node6 -->
<g id="edge9" class="edge"><title>Node8&#45;&gt;Node6</title>
<path fill="none" stroke="#9a32cd" stroke-dasharray="5,2" d="M114.569,-359.5C129.802,-359.5 146.253,-359.5 161.919,-359.5"/>
<polygon fill="#9a32cd" stroke="#9a32cd" points="114.241,-356 104.241,-359.5 114.241,-363 114.241,-356"/>
<text text-anchor="middle" x="133" y="-362.5" font-family="Helvetica,sans-Serif" font-size="10.00"> data</text>
</g>
<!-- Node9 -->
<g id="node9" class="node"><title>Node9</title>
<g id="a_node9"><a xlink:href="structfiftyone_degrees_resource_handle.html" target="_top" xlink:title="Tracks the number of active uses of the resource within the manager.">
<polygon fill="none" stroke="black" points="1045,-185 1045,-204 1200,-204 1200,-185 1045,-185"/>
<text text-anchor="middle" x="1122.5" y="-192" font-family="Helvetica,sans-Serif" font-size="10.00">fiftyoneDegreesResourceHandle</text>
</a>
</g>
</g>
<!-- Node9&#45;&gt;Node3 -->
<g id="edge10" class="edge"><title>Node9&#45;&gt;Node3</title>
<path fill="none" stroke="#9a32cd" stroke-dasharray="5,2" d="M1182.02,-206.297C1210.17,-212.627 1244.2,-221.243 1274,-231.5 1302.39,-241.274 1333.83,-256.157 1353.26,-265.857"/>
<polygon fill="#9a32cd" stroke="#9a32cd" points="1182.45,-202.808 1171.93,-204.07 1180.94,-209.643 1182.45,-202.808"/>
<text text-anchor="middle" x="1246" y="-234.5" font-family="Helvetica,sans-Serif" font-size="10.00"> handle</text>
</g>
<!-- Node10 -->
<g id="node10" class="node"><title>Node10</title>
<g id="a_node10"><a xlink:href="structfiftyone_degrees_resource_manager.html" target="_top" xlink:title="Manager structure used to provide access to a shared and changing resource.">
<polygon fill="none" stroke="black" points="1292,-183 1292,-202 1454,-202 1454,-183 1292,-183"/>
<text text-anchor="middle" x="1373" y="-190" font-family="Helvetica,sans-Serif" font-size="10.00">fiftyoneDegreesResourceManager</text>
</a>
</g>
</g>
<!-- Node9&#45;&gt;Node10 -->
<g id="edge12" class="edge"><title>Node9&#45;&gt;Node10</title>
<path fill="none" stroke="#9a32cd" stroke-dasharray="5,2" d="M1210.24,-186.871C1212.85,-186.732 1215.45,-186.608 1218,-186.5 1241.93,-185.489 1267.94,-185.918 1291.67,-186.904"/>
<polygon fill="#9a32cd" stroke="#9a32cd" points="1209.83,-183.388 1200.05,-187.468 1210.24,-190.376 1209.83,-183.388"/>
<text text-anchor="middle" x="1246" y="-189.5" font-family="Helvetica,sans-Serif" font-size="10.00"> active</text>
</g>
<!-- Node10&#45;&gt;Node9 -->
<g id="edge11" class="edge"><title>Node10&#45;&gt;Node9</title>
<path fill="none" stroke="#9a32cd" stroke-dasharray="5,2" d="M1303.28,-179.305C1299.36,-177.6 1295.56,-175.674 1292,-173.5 1281.51,-167.099 1285.17,-157.637 1274,-152.5 1251.39,-142.1 1240.37,-141.599 1218,-152.5 1206.33,-158.185 1210.89,-168.44 1200,-175.5 1194.03,-179.371 1187.33,-182.453 1180.44,-184.907"/>
<polygon fill="#9a32cd" stroke="#9a32cd" points="1302.04,-182.578 1312.63,-182.897 1304.55,-176.043 1302.04,-182.578"/>
<text text-anchor="middle" x="1246" y="-155.5" font-family="Helvetica,sans-Serif" font-size="10.00"> manager</text>
</g>
<!-- Node11 -->
<g id="node11" class="node"><title>Node11</title>
<g id="a_node11"><a xlink:href="structfiftyone_degrees_file_pool.html" target="_top" xlink:title="Stack of handles used to read data from a single source file.">
<polygon fill="none" stroke="black" points="1063,-224 1063,-243 1182,-243 1182,-224 1063,-224"/>
<text text-anchor="middle" x="1122.5" y="-231" font-family="Helvetica,sans-Serif" font-size="10.00">fiftyoneDegreesFilePool</text>
</a>
</g>
</g>
<!-- Node11&#45;&gt;Node3 -->
<g id="edge13" class="edge"><title>Node11&#45;&gt;Node3</title>
<path fill="none" stroke="#9a32cd" stroke-dasharray="5,2" d="M1192.29,-242.031C1217.99,-245.5 1247.4,-249.8 1274,-254.5 1292.68,-257.8 1313.22,-262.097 1330.64,-265.943"/>
<polygon fill="#9a32cd" stroke="#9a32cd" points="1192.64,-238.547 1182.26,-240.695 1191.71,-245.486 1192.64,-238.547"/>
<text text-anchor="middle" x="1246" y="-257.5" font-family="Helvetica,sans-Serif" font-size="10.00"> filePool</text>
</g>
<!-- Node12 -->
<g id="node12" class="node"><title>Node12</title>
<g id="a_node12"><a xlink:href="structfiftyone_degrees_pool.html" target="_top" xlink:title="Pool of resources stored as items in a stack.">
<polygon fill="none" stroke="black" points="722,-181 722,-200 825,-200 825,-181 722,-181"/>
<text text-anchor="middle" x="773.5" y="-188" font-family="Helvetica,sans-Serif" font-size="10.00">fiftyoneDegreesPool</text>
</a>
</g>
</g>
<!-- Node12&#45;&gt;Node11 -->
<g id="edge14" class="edge"><title>Node12&#45;&gt;Node11</title>
<path fill="none" stroke="#9a32cd" stroke-dasharray="5,2" d="M835.298,-198.034C899.42,-205.98 999.747,-218.413 1062.99,-226.25"/>
<polygon fill="#9a32cd" stroke="#9a32cd" points="835.683,-194.555 825.328,-196.799 834.822,-201.502 835.683,-194.555"/>
<text text-anchor="middle" x="948" y="-224.5" font-family="Helvetica,sans-Serif" font-size="10.00"> pool</text>
</g>
<!-- Node12&#45;&gt;Node12 -->
<g id="edge15" class="edge"><title>Node12&#45;&gt;Node12</title>
<path fill="none" stroke="#9a32cd" stroke-dasharray="5,2" d="M745.128,-209.154C746.314,-214.437 755.771,-218.5 773.5,-218.5 800.516,-218.5 808.325,-209.065 796.928,-200.257"/>
<polygon fill="#9a32cd" stroke="#9a32cd" points="748.274,-210.698 750.072,-200.257 742.155,-207.297 748.274,-210.698"/>
<text text-anchor="middle" x="773.5" y="-221.5" font-family="Helvetica,sans-Serif" font-size="10.00"> resourceFree</text>
</g>
<!-- Node14 -->
<g id="node14" class="node"><title>Node14</title>
<g id="a_node14"><a xlink:href="structfiftyone_degrees_pool_item.html" target="_top" xlink:title="Pool item node in the stack of items.">
<polygon fill="none" stroke="black" points="1061.5,-147 1061.5,-166 1183.5,-166 1183.5,-147 1061.5,-147"/>
<text text-anchor="middle" x="1122.5" y="-154" font-family="Helvetica,sans-Serif" font-size="10.00">fiftyoneDegreesPoolItem</text>
</a>
</g>
</g>
<!-- Node12&#45;&gt;Node14 -->
<g id="edge18" class="edge"><title>Node12&#45;&gt;Node14</title>
<path fill="none" stroke="#9a32cd" stroke-dasharray="5,2" d="M835.566,-185.857C886.746,-181.803 961.712,-175.487 1027,-168.5 1038.1,-167.312 1049.92,-165.916 1061.3,-164.505"/>
<polygon fill="#9a32cd" stroke="#9a32cd" points="835.033,-182.388 825.338,-186.662 835.582,-189.367 835.033,-182.388"/>
<text text-anchor="middle" x="948" y="-186.5" font-family="Helvetica,sans-Serif" font-size="10.00"> pool</text>
</g>
<!-- Node13 -->
<g id="node13" class="node"><title>Node13</title>
<g id="a_node13"><a xlink:href="unionfiftyone_degrees_pool_head.html" target="_top" xlink:title="The head of the stack used for pop and push operations.">
<polygon fill="none" stroke="black" points="404.5,-181 404.5,-200 529.5,-200 529.5,-181 404.5,-181"/>
<text text-anchor="middle" x="467" y="-188" font-family="Helvetica,sans-Serif" font-size="10.00">fiftyoneDegreesPoolHead</text>
</a>
</g>
</g>
<!-- Node13&#45;&gt;Node12 -->
<g id="edge16" class="edge"><title>Node13&#45;&gt;Node12</title>
<path fill="none" stroke="#9a32cd" stroke-dasharray="5,2" d="M539.806,-190.5C595.681,-190.5 671.835,-190.5 721.571,-190.5"/>
<polygon fill="#9a32cd" stroke="#9a32cd" points="539.62,-187 529.62,-190.5 539.62,-194 539.62,-187"/>
<text text-anchor="middle" x="621" y="-193.5" font-family="Helvetica,sans-Serif" font-size="10.00"> head</text>
</g>
<!-- Node14&#45;&gt;Node12 -->
<g id="edge17" class="edge"><title>Node14&#45;&gt;Node12</title>
<path fill="none" stroke="#9a32cd" stroke-dasharray="5,2" d="M1051.08,-150.583C1000.13,-147.801 929.833,-147.06 869,-157.5 842.795,-161.997 814.158,-172.906 795.357,-180.957"/>
<polygon fill="#9a32cd" stroke="#9a32cd" points="1051.14,-154.092 1061.33,-151.184 1051.55,-147.104 1051.14,-154.092"/>
<text text-anchor="middle" x="948" y="-160.5" font-family="Helvetica,sans-Serif" font-size="10.00"> stack</text>
</g>
<!-- Node15 -->
<g id="node15" class="node"><title>Node15</title>
<g id="a_node15"><a xlink:href="structfiftyone_degrees_override_property_array.html" target="_top" xlink:title="Array of items of type fiftyoneDegreesOverrideProperty used to easily access and track the size of th...">
<polygon fill="none" stroke="black" points="1045,-309.5 1045,-339.5 1200,-339.5 1200,-309.5 1045,-309.5"/>
<text text-anchor="start" x="1053" y="-327.5" font-family="Helvetica,sans-Serif" font-size="10.00">fiftyoneDegreesOverrideProperty</text>
<text text-anchor="middle" x="1122.5" y="-316.5" font-family="Helvetica,sans-Serif" font-size="10.00">Array</text>
</a>
</g>
</g>
<!-- Node15&#45;&gt;Node3 -->
<g id="edge19" class="edge"><title>Node15&#45;&gt;Node3</title>
<path fill="none" stroke="#9a32cd" stroke-dasharray="5,2" d="M1209.83,-307.477C1247.97,-299.957 1291.38,-291.397 1323.68,-285.028"/>
<polygon fill="#9a32cd" stroke="#9a32cd" points="1208.88,-304.097 1199.75,-309.465 1210.24,-310.965 1208.88,-304.097"/>
<text text-anchor="middle" x="1246" y="-309.5" font-family="Helvetica,sans-Serif" font-size="10.00"> overridable</text>
</g>
<!-- Node16 -->
<g id="node16" class="node"><title>Node16</title>
<g id="a_node16"><a xlink:href="structfiftyone_degrees_override_property.html" target="_top" xlink:title="Index and pointer to a property which can be overridden.">
<polygon fill="none" stroke="black" points="696,-318 696,-337 851,-337 851,-318 696,-318"/>
<text text-anchor="middle" x="773.5" y="-325" font-family="Helvetica,sans-Serif" font-size="10.00">fiftyoneDegreesOverrideProperty</text>
</a>
</g>
</g>
<!-- Node16&#45;&gt;Node15 -->
<g id="edge20" class="edge"><title>Node16&#45;&gt;Node15</title>
<path fill="none" stroke="#9a32cd" stroke-dasharray="5,2" d="M861.409,-326.749C917.794,-326.261 990.586,-325.632 1044.82,-325.163"/>
<polygon fill="#9a32cd" stroke="#9a32cd" points="861.05,-323.252 851.08,-326.838 861.11,-330.251 861.05,-323.252"/>
<text text-anchor="middle" x="948" y="-330.5" font-family="Helvetica,sans-Serif" font-size="10.00"> items</text>
</g>
<!-- Node17&#45;&gt;Node16 -->
<g id="edge21" class="edge"><title>Node17&#45;&gt;Node16</title>
<path fill="none" stroke="#9a32cd" stroke-dasharray="5,2" d="M556.226,-334.008C558.846,-333.827 561.442,-333.657 564,-333.5 607.555,-330.834 656.303,-329.349 695.704,-328.523"/>
<polygon fill="#9a32cd" stroke="#9a32cd" points="555.749,-330.534 546.033,-334.759 556.263,-337.515 555.749,-330.534"/>
<text text-anchor="middle" x="621" y="-336.5" font-family="Helvetica,sans-Serif" font-size="10.00"> available</text>
</g>
<!-- Node18 -->
<g id="node18" class="node"><title>Node18</title>
<g id="a_node18"><a xlink:href="structfiftyone_degrees_property_available_array.html" target="_top" xlink:title="Array of items of type fiftyoneDegreesPropertyAvailable used to easily access and track the size of t...">
<polygon fill="none" stroke="black" points="869,-358.5 869,-388.5 1027,-388.5 1027,-358.5 869,-358.5"/>
<text text-anchor="start" x="877" y="-376.5" font-family="Helvetica,sans-Serif" font-size="10.00">fiftyoneDegreesPropertyAvailable</text>
<text text-anchor="middle" x="948" y="-365.5" font-family="Helvetica,sans-Serif" font-size="10.00">Array</text>
</a>
</g>
</g>
<!-- Node17&#45;&gt;Node18 -->
<g id="edge24" class="edge"><title>Node17&#45;&gt;Node18</title>
<path fill="none" stroke="#9a32cd" stroke-dasharray="5,2" d="M556.151,-348.205C645.618,-353.995 782.824,-362.875 868.61,-368.427"/>
<polygon fill="#9a32cd" stroke="#9a32cd" points="556.231,-344.703 546.026,-347.55 555.779,-351.688 556.231,-344.703"/>
<text text-anchor="middle" x="621" y="-359.5" font-family="Helvetica,sans-Serif" font-size="10.00"> items</text>
</g>
<!-- Node18&#45;&gt;Node3 -->
<g id="edge23" class="edge"><title>Node18&#45;&gt;Node3</title>
<path fill="none" stroke="#9a32cd" stroke-dasharray="5,2" d="M1037.41,-370.108C1085.9,-366.899 1146.79,-360.654 1200,-348.5 1234.13,-340.704 1241.68,-334.951 1274,-321.5 1301.76,-309.946 1333.1,-294.866 1352.71,-285.18"/>
<polygon fill="#9a32cd" stroke="#9a32cd" points="1037.02,-366.626 1027.26,-370.748 1037.47,-373.612 1037.02,-366.626"/>
<text text-anchor="middle" x="1122.5" y="-371.5" font-family="Helvetica,sans-Serif" font-size="10.00"> available</text>
</g>
<!-- Node19 -->
<g id="node19" class="node"><title>Node19</title>
<g id="a_node19"><a xlink:href="structfiftyone_degrees_hash_data_set_header.html" target="_top" xlink:title="Data set header containing information about the dataset.">
<polygon fill="none" stroke="black" points="1549,-162.5 1549,-192.5 1690,-192.5 1690,-162.5 1549,-162.5"/>
<text text-anchor="start" x="1557" y="-180.5" font-family="Helvetica,sans-Serif" font-size="10.00">fiftyoneDegreesHashDataSet</text>
<text text-anchor="middle" x="1619.5" y="-169.5" font-family="Helvetica,sans-Serif" font-size="10.00">Header</text>
</a>
</g>
</g>
<!-- Node19&#45;&gt;Node1 -->
<g id="edge26" class="edge"><title>Node19&#45;&gt;Node1</title>
<path fill="none" stroke="#9a32cd" stroke-dasharray="5,2" d="M1700.22,-190.723C1724.83,-194.805 1751.43,-199.218 1774.21,-202.997"/>
<polygon fill="#9a32cd" stroke="#9a32cd" points="1700.61,-187.241 1690.17,-189.057 1699.47,-194.147 1700.61,-187.241"/>
<text text-anchor="middle" x="1727.5" y="-200.5" font-family="Helvetica,sans-Serif" font-size="10.00"> header</text>
</g>
<!-- Node20 -->
<g id="node20" class="node"><title>Node20</title>
<g id="a_node20"><a xlink:href="structfiftyone_degrees_date.html" target="_top" xlink:title="Used to store the date when the dataset was produced and next date 51Degrees expect to provide a new ...">
<polygon fill="none" stroke="black" points="1321,-145 1321,-164 1425,-164 1425,-145 1321,-145"/>
<text text-anchor="middle" x="1373" y="-152" font-family="Helvetica,sans-Serif" font-size="10.00">fiftyoneDegreesDate</text>
</a>
</g>
</g>
<!-- Node20&#45;&gt;Node19 -->
<g id="edge27" class="edge"><title>Node20&#45;&gt;Node19</title>
<path fill="none" stroke="#9a32cd" stroke-dasharray="5,2" d="M1435.65,-160.299C1470.08,-163.538 1513.1,-167.585 1548.76,-170.94"/>
<polygon fill="#9a32cd" stroke="#9a32cd" points="1435.54,-156.774 1425.26,-159.322 1434.88,-163.743 1435.54,-156.774"/>
<text text-anchor="middle" x="1500" y="-183.5" font-family="Helvetica,sans-Serif" font-size="10.00"> nextUpdate</text>
<text text-anchor="middle" x="1500" y="-172.5" font-family="Helvetica,sans-Serif" font-size="10.00">published</text>
</g>
<!-- Node21 -->
<g id="node21" class="node"><title>Node21</title>
<g id="a_node21"><a xlink:href="structfiftyone_degrees_config_hash.html" target="_top" xlink:title="Hash specific configuration structure.">
<polygon fill="none" stroke="black" points="1553,-106 1553,-125 1686,-125 1686,-106 1553,-106"/>
<text text-anchor="middle" x="1619.5" y="-113" font-family="Helvetica,sans-Serif" font-size="10.00">fiftyoneDegreesConfigHash</text>
</a>
</g>
</g>
<!-- Node21&#45;&gt;Node1 -->
<g id="edge28" class="edge"><title>Node21&#45;&gt;Node1</title>
<path fill="none" stroke="#9a32cd" stroke-dasharray="5,2" d="M1650.71,-129.388C1694.12,-149.345 1773.04,-185.627 1810.58,-202.884"/>
<polygon fill="#9a32cd" stroke="#9a32cd" points="1652.05,-126.152 1641.5,-125.155 1649.13,-132.512 1652.05,-126.152"/>
<text text-anchor="middle" x="1727.5" y="-173.5" font-family="Helvetica,sans-Serif" font-size="10.00"> config</text>
</g>
<!-- Node22 -->
<g id="node22" class="node"><title>Node22</title>
<g id="a_node22"><a xlink:href="structfiftyone_degrees_collection_config.html" target="_top" xlink:title="Collection configuration structure which defines how the collection should be created by the create m...">
<polygon fill="none" stroke="black" points="1310,-0.5 1310,-30.5 1436,-30.5 1436,-0.5 1310,-0.5"/>
<text text-anchor="start" x="1318" y="-18.5" font-family="Helvetica,sans-Serif" font-size="10.00">fiftyoneDegreesCollection</text>
<text text-anchor="middle" x="1373" y="-7.5" font-family="Helvetica,sans-Serif" font-size="10.00">Config</text>
</a>
</g>
</g>
<!-- Node22&#45;&gt;Node21 -->
<g id="edge29" class="edge"><title>Node22&#45;&gt;Node21</title>
<path fill="none" stroke="#9a32cd" stroke-dasharray="5,2" d="M1446.35,-14.1961C1473,-16.0747 1502.81,-21.0651 1528,-32.5 1565.47,-49.5054 1597.88,-88.0449 1611.56,-105.984"/>
<polygon fill="#9a32cd" stroke="#9a32cd" points="1446.49,-10.6985 1436.3,-13.6215 1446.09,-17.6871 1446.49,-10.6985"/>
<text text-anchor="middle" x="1500" y="-101.5" font-family="Helvetica,sans-Serif" font-size="10.00"> httpHeaders</text>
<text text-anchor="middle" x="1500" y="-90.5" font-family="Helvetica,sans-Serif" font-size="10.00">strings</text>
<text text-anchor="middle" x="1500" y="-79.5" font-family="Helvetica,sans-Serif" font-size="10.00">components</text>
<text text-anchor="middle" x="1500" y="-68.5" font-family="Helvetica,sans-Serif" font-size="10.00">nodes</text>
<text text-anchor="middle" x="1500" y="-57.5" font-family="Helvetica,sans-Serif" font-size="10.00">properties</text>
<text text-anchor="middle" x="1500" y="-46.5" font-family="Helvetica,sans-Serif" font-size="10.00">devices</text>
<text text-anchor="middle" x="1500" y="-35.5" font-family="Helvetica,sans-Serif" font-size="10.00">profiles</text>
</g>
<!-- Node23 -->
<g id="node23" class="node"><title>Node23</title>
<g id="a_node23"><a xlink:href="structfiftyone_degrees_config_device_detection.html" target="_top" xlink:title="Device detection configuration structure containing device detection specific configuration options,...">
<polygon fill="none" stroke="black" points="1303.5,-95.5 1303.5,-125.5 1442.5,-125.5 1442.5,-95.5 1303.5,-95.5"/>
<text text-anchor="start" x="1311.5" y="-113.5" font-family="Helvetica,sans-Serif" font-size="10.00">fiftyoneDegreesConfigDevice</text>
<text text-anchor="middle" x="1373" y="-102.5" font-family="Helvetica,sans-Serif" font-size="10.00">Detection</text>
</a>
</g>
</g>
<!-- Node23&#45;&gt;Node21 -->
<g id="edge30" class="edge"><title>Node23&#45;&gt;Node21</title>
<path fill="none" stroke="#9a32cd" stroke-dasharray="5,2" d="M1453.04,-112.116C1485.26,-112.775 1522.07,-113.528 1552.78,-114.156"/>
<polygon fill="#9a32cd" stroke="#9a32cd" points="1452.83,-108.611 1442.76,-111.906 1452.68,-115.61 1452.83,-108.611"/>
<text text-anchor="middle" x="1500" y="-117.5" font-family="Helvetica,sans-Serif" font-size="10.00"> b</text>
</g>
<!-- Node24 -->
<g id="node24" class="node"><title>Node24</title>
<g id="a_node24"><a xlink:href="structfiftyone_degrees_config_base.html" target="_top" xlink:title="Base configuration structure containing common configuration options, and options that apply to struc...">
<polygon fill="none" stroke="black" points="1056,-101 1056,-120 1189,-120 1189,-101 1056,-101"/>
<text text-anchor="middle" x="1122.5" y="-108" font-family="Helvetica,sans-Serif" font-size="10.00">fiftyoneDegreesConfigBase</text>
</a>
</g>
</g>
<!-- Node24&#45;&gt;Node23 -->
<g id="edge31" class="edge"><title>Node24&#45;&gt;Node23</title>
<path fill="none" stroke="#9a32cd" stroke-dasharray="5,2" d="M1199.23,-110.5C1232.41,-110.5 1271.08,-110.5 1303.41,-110.5"/>
<polygon fill="#9a32cd" stroke="#9a32cd" points="1199.12,-107 1189.12,-110.5 1199.12,-114 1199.12,-107"/>
<text text-anchor="middle" x="1246" y="-113.5" font-family="Helvetica,sans-Serif" font-size="10.00"> b</text>
</g>
</g>
</svg>
