<?xml version="1.0" encoding="UTF-8" standalone="no"?>
<!DOCTYPE svg PUBLIC "-//W3C//DTD SVG 1.1//EN"
 "http://www.w3.org/Graphics/SVG/1.1/DTD/svg11.dtd">
<!-- Generated by graphviz version 2.38.0 (20140413.2041)
 -->
<!-- Title: fiftyoneDegreesCollectionFile Pages: 1 -->
<svg width="611pt" height="242pt"
 viewBox="0.00 0.00 610.50 242.00" xmlns="http://www.w3.org/2000/svg" xmlns:xlink="http://www.w3.org/1999/xlink">
<g id="graph0" class="graph" transform="scale(1 1) rotate(0) translate(4 238)">
<title>fiftyoneDegreesCollectionFile</title>
<!-- Node1 -->
<g id="node1" class="node"><title>Node1</title>
<g id="a_node1"><a xlink:title="Type of collection where the collection is streamed from file.">
<polygon fill="#bfbfbf" stroke="black" points="72.5,-0.5 72.5,-19.5 214.5,-19.5 214.5,-0.5 72.5,-0.5"/>
<text text-anchor="middle" x="143.5" y="-7.5" font-family="Helvetica,sans-Serif" font-size="10.00">fiftyoneDegreesCollectionFile</text>
</a>
</g>
</g>
<!-- Node1&#45;&gt;Node1 -->
<g id="edge1" class="edge"><title>Node1&#45;&gt;Node1</title>
<path fill="none" stroke="#9a32cd" stroke-dasharray="5,2" d="M224.654,-14.1547C229.557,-13.1667 232.5,-11.7817 232.5,-10 232.5,-7.21875 225.329,-5.40442 214.726,-4.55701"/>
<polygon fill="#9a32cd" stroke="#9a32cd" points="224.192,-10.6852 214.726,-15.443 225.093,-17.627 224.192,-10.6852"/>
<text text-anchor="middle" x="243.5" y="-7.5" font-family="Helvetica,sans-Serif" font-size="10.00"> read</text>
</g>
<!-- Node2 -->
<g id="node2" class="node"><title>Node2</title>
<g id="a_node2"><a xlink:href="structfiftyone_degrees_file_pool.html" target="_top" xlink:title="Stack of handles used to read data from a single source file.">
<polygon fill="none" stroke="black" points="0,-74 0,-93 119,-93 119,-74 0,-74"/>
<text text-anchor="middle" x="59.5" y="-81" font-family="Helvetica,sans-Serif" font-size="10.00">fiftyoneDegreesFilePool</text>
</a>
</g>
</g>
<!-- Node2&#45;&gt;Node1 -->
<g id="edge2" class="edge"><title>Node2&#45;&gt;Node1</title>
<path fill="none" stroke="#9a32cd" stroke-dasharray="5,2" d="M77.4478,-67.223C94.5042,-52.7047 119.544,-31.3915 133.378,-19.6157"/>
<polygon fill="#9a32cd" stroke="#9a32cd" points="75.1464,-64.5857 69.8,-73.7327 79.6836,-69.9161 75.1464,-64.5857"/>
<text text-anchor="middle" x="127" y="-41" font-family="Helvetica,sans-Serif" font-size="10.00"> reader</text>
</g>
<!-- Node3 -->
<g id="node3" class="node"><title>Node3</title>
<g id="a_node3"><a xlink:href="structfiftyone_degrees_pool.html" target="_top" xlink:title="Pool of resources stored as items in a stack.">
<polygon fill="none" stroke="black" points="102,-147.5 102,-166.5 205,-166.5 205,-147.5 102,-147.5"/>
<text text-anchor="middle" x="153.5" y="-154.5" font-family="Helvetica,sans-Serif" font-size="10.00">fiftyoneDegreesPool</text>
</a>
</g>
</g>
<!-- Node3&#45;&gt;Node2 -->
<g id="edge3" class="edge"><title>Node3&#45;&gt;Node2</title>
<path fill="none" stroke="#9a32cd" stroke-dasharray="5,2" d="M133.934,-141.117C114.839,-126.593 86.4491,-104.999 70.8269,-93.1157"/>
<polygon fill="#9a32cd" stroke="#9a32cd" points="131.896,-143.964 141.974,-147.233 136.133,-138.393 131.896,-143.964"/>
<text text-anchor="middle" x="129.5" y="-121" font-family="Helvetica,sans-Serif" font-size="10.00"> pool</text>
</g>
<!-- Node3&#45;&gt;Node3 -->
<g id="edge4" class="edge"><title>Node3&#45;&gt;Node3</title>
<path fill="none" stroke="#9a32cd" stroke-dasharray="5,2" d="M214.956,-161.592C219.922,-160.593 223,-159.062 223,-157 223,-153.781 215.5,-151.858 205.025,-151.229"/>
<polygon fill="#9a32cd" stroke="#9a32cd" points="214.543,-158.116 205.025,-162.771 215.368,-165.067 214.543,-158.116"/>
<text text-anchor="middle" x="253.5" y="-154.5" font-family="Helvetica,sans-Serif" font-size="10.00"> resourceFree</text>
</g>
<!-- Node5 -->
<g id="node5" class="node"><title>Node5</title>
<g id="a_node5"><a xlink:href="structfiftyone_degrees_pool_item.html" target="_top" xlink:title="Pool item node in the stack of items.">
<polygon fill="none" stroke="black" points="137.5,-74 137.5,-93 259.5,-93 259.5,-74 137.5,-74"/>
<text text-anchor="middle" x="198.5" y="-81" font-family="Helvetica,sans-Serif" font-size="10.00">fiftyoneDegreesPoolItem</text>
</a>
</g>
</g>
<!-- Node3&#45;&gt;Node5 -->
<g id="edge7" class="edge"><title>Node3&#45;&gt;Node5</title>
<path fill="none" stroke="#9a32cd" stroke-dasharray="5,2" d="M148.105,-137.39C147.228,-130.941 147.442,-123.864 150.5,-118 156.327,-106.827 167.771,-98.6183 178.023,-93.1234"/>
<polygon fill="#9a32cd" stroke="#9a32cd" points="144.725,-138.315 150.299,-147.325 151.56,-136.806 144.725,-138.315"/>
<text text-anchor="middle" x="161.5" y="-121" font-family="Helvetica,sans-Serif" font-size="10.00"> pool</text>
</g>
<!-- Node4 -->
<g id="node4" class="node"><title>Node4</title>
<g id="a_node4"><a xlink:href="unionfiftyone_degrees_pool_head.html" target="_top" xlink:title="The head of the stack used for pop and push operations.">
<polygon fill="none" stroke="black" points="91,-214.5 91,-233.5 216,-233.5 216,-214.5 91,-214.5"/>
<text text-anchor="middle" x="153.5" y="-221.5" font-family="Helvetica,sans-Serif" font-size="10.00">fiftyoneDegreesPoolHead</text>
</a>
</g>
</g>
<!-- Node4&#45;&gt;Node3 -->
<g id="edge5" class="edge"><title>Node4&#45;&gt;Node3</title>
<path fill="none" stroke="#9a32cd" stroke-dasharray="5,2" d="M153.5,-204.037C153.5,-191.67 153.5,-176.12 153.5,-166.627"/>
<polygon fill="#9a32cd" stroke="#9a32cd" points="150,-204.234 153.5,-214.234 157,-204.234 150,-204.234"/>
<text text-anchor="middle" x="166" y="-188" font-family="Helvetica,sans-Serif" font-size="10.00"> head</text>
</g>
<!-- Node5&#45;&gt;Node3 -->
<g id="edge6" class="edge"><title>Node5&#45;&gt;Node3</title>
<path fill="none" stroke="#9a32cd" stroke-dasharray="5,2" d="M190.95,-102.25C187.082,-110.629 182.027,-120.608 176.5,-129 172.165,-135.583 166.415,-142.333 161.749,-147.437"/>
<polygon fill="#9a32cd" stroke="#9a32cd" points="194.181,-103.598 195.03,-93.0372 187.781,-100.764 194.181,-103.598"/>
<text text-anchor="middle" x="197.5" y="-121" font-family="Helvetica,sans-Serif" font-size="10.00"> stack</text>
</g>
<!-- Node6 -->
<g id="node6" class="node"><title>Node6</title>
<g id="a_node6"><a xlink:href="structfiftyone_degrees_collection.html" target="_top" xlink:title="All the shared methods and fields required by file, memory and cached collections.">
<polygon fill="none" stroke="black" points="277.5,-74 277.5,-93 403.5,-93 403.5,-74 277.5,-74"/>
<text text-anchor="middle" x="340.5" y="-81" font-family="Helvetica,sans-Serif" font-size="10.00">fiftyoneDegreesCollection</text>
</a>
</g>
</g>
<!-- Node6&#45;&gt;Node1 -->
<g id="edge8" class="edge"><title>Node6&#45;&gt;Node1</title>
<path fill="none" stroke="#9a32cd" stroke-dasharray="5,2" d="M307.215,-70.4194C267.443,-55.9845 201.911,-32.1999 167.04,-19.5439"/>
<polygon fill="#9a32cd" stroke="#9a32cd" points="306.143,-73.7537 316.737,-73.8754 308.531,-67.1737 306.143,-73.7537"/>
<text text-anchor="middle" x="271" y="-41" font-family="Helvetica,sans-Serif" font-size="10.00"> collection</text>
</g>
<!-- Node6&#45;&gt;Node6 -->
<g id="edge12" class="edge"><title>Node6&#45;&gt;Node6</title>
<path fill="none" stroke="#9a32cd" stroke-dasharray="5,2" d="M413.59,-88.8969C418.512,-87.6513 421.5,-85.8523 421.5,-83.5 421.5,-79.8281 414.219,-77.5045 403.668,-76.5292"/>
<polygon fill="#9a32cd" stroke="#9a32cd" points="412.996,-85.4473 403.668,-90.4708 414.093,-92.3608 412.996,-85.4473"/>
<text text-anchor="middle" x="451" y="-92" font-family="Helvetica,sans-Serif" font-size="10.00"> next</text>
<text text-anchor="middle" x="451" y="-81" font-family="Helvetica,sans-Serif" font-size="10.00">freeCollection</text>
<text text-anchor="middle" x="451" y="-70" font-family="Helvetica,sans-Serif" font-size="10.00">get</text>
</g>
<!-- Node7 -->
<g id="node7" class="node"><title>Node7</title>
<g id="a_node7"><a xlink:href="structfiftyone_degrees_collection_item.html" target="_top" xlink:title="Used to store a handle to the underlying item that could be used to release the item when it&#39;s finish...">
<polygon fill="none" stroke="black" points="336,-0.5 336,-19.5 481,-19.5 481,-0.5 336,-0.5"/>
<text text-anchor="middle" x="408.5" y="-7.5" font-family="Helvetica,sans-Serif" font-size="10.00">fiftyoneDegreesCollectionItem</text>
</a>
</g>
</g>
<!-- Node6&#45;&gt;Node7 -->
<g id="edge10" class="edge"><title>Node6&#45;&gt;Node7</title>
<path fill="none" stroke="#9a32cd" stroke-dasharray="5,2" d="M334.246,-63.9233C332.541,-55.3464 332.369,-45.4403 337.5,-38 343.414,-29.4233 352.44,-23.5689 362.093,-19.5732"/>
<polygon fill="#9a32cd" stroke="#9a32cd" points="330.93,-65.0672 336.943,-73.7907 337.683,-63.2217 330.93,-65.0672"/>
<text text-anchor="middle" x="360" y="-41" font-family="Helvetica,sans-Serif" font-size="10.00"> collection</text>
</g>
<!-- Node7&#45;&gt;Node6 -->
<g id="edge9" class="edge"><title>Node7&#45;&gt;Node6</title>
<path fill="none" stroke="#9a32cd" stroke-dasharray="5,2" d="M400.277,-28.6355C396.622,-35.4259 391.915,-42.9864 386.5,-49 377.509,-58.9846 365.089,-67.8152 355.42,-73.8999"/>
<polygon fill="#9a32cd" stroke="#9a32cd" points="403.499,-30.0174 404.84,-19.5077 397.238,-26.8877 403.499,-30.0174"/>
<text text-anchor="middle" x="412" y="-41" font-family="Helvetica,sans-Serif" font-size="10.00"> release</text>
</g>
<!-- Node8 -->
<g id="node8" class="node"><title>Node8</title>
<g id="a_node8"><a xlink:href="structfiftyone_degrees_data.html" target="_top" xlink:title="Data structure used for reusing memory which may have been allocated in a previous operation.">
<polygon fill="none" stroke="black" points="498.5,-74 498.5,-93 602.5,-93 602.5,-74 498.5,-74"/>
<text text-anchor="middle" x="550.5" y="-81" font-family="Helvetica,sans-Serif" font-size="10.00">fiftyoneDegreesData</text>
</a>
</g>
</g>
<!-- Node8&#45;&gt;Node7 -->
<g id="edge11" class="edge"><title>Node8&#45;&gt;Node7</title>
<path fill="none" stroke="#9a32cd" stroke-dasharray="5,2" d="M524.312,-69.3139C495.566,-54.8398 450.245,-32.0193 425.689,-19.6552"/>
<polygon fill="#9a32cd" stroke="#9a32cd" points="522.866,-72.5042 533.371,-73.8754 526.014,-66.252 522.866,-72.5042"/>
<text text-anchor="middle" x="495.5" y="-41" font-family="Helvetica,sans-Serif" font-size="10.00"> data</text>
</g>
</g>
</svg>
