<?xml version="1.0" encoding="UTF-8" standalone="no"?>
<!DOCTYPE svg PUBLIC "-//W3C//DTD SVG 1.1//EN"
 "http://www.w3.org/Graphics/SVG/1.1/DTD/svg11.dtd">
<!-- Generated by graphviz version 2.38.0 (20140413.2041)
 -->
<!-- Title: fiftyoneDegreesResultHashArray Pages: 1 -->
<svg width="968pt" height="235pt"
 viewBox="0.00 0.00 968.00 234.50" xmlns="http://www.w3.org/2000/svg" xmlns:xlink="http://www.w3.org/1999/xlink">
<g id="graph0" class="graph" transform="scale(1 1) rotate(0) translate(4 230.5)">
<title>fiftyoneDegreesResultHashArray</title>
<!-- Node1 -->
<g id="node1" class="node"><title>Node1</title>
<g id="a_node1"><a xlink:title="Array of items of type fiftyoneDegreesResultHash used to easily access and track the size of the arra...">
<polygon fill="#bfbfbf" stroke="black" points="826,-74.5 826,-104.5 960,-104.5 960,-74.5 826,-74.5"/>
<text text-anchor="start" x="834" y="-92.5" font-family="Helvetica,sans-Serif" font-size="10.00">fiftyoneDegreesResultHash</text>
<text text-anchor="middle" x="893" y="-81.5" font-family="Helvetica,sans-Serif" font-size="10.00">Array</text>
</a>
</g>
</g>
<!-- Node2 -->
<g id="node2" class="node"><title>Node2</title>
<g id="a_node2"><a xlink:href="structfiftyone_degrees_results_device_detection.html" target="_top" xlink:title="Device detection specific results structure which any device detection processing results should exte...">
<polygon fill="none" stroke="black" points="617,-74.5 617,-104.5 762,-104.5 762,-74.5 617,-74.5"/>
<text text-anchor="start" x="625" y="-92.5" font-family="Helvetica,sans-Serif" font-size="10.00">fiftyoneDegreesResultsDevice</text>
<text text-anchor="middle" x="689.5" y="-81.5" font-family="Helvetica,sans-Serif" font-size="10.00">Detection</text>
</a>
</g>
</g>
<!-- Node2&#45;&gt;Node1 -->
<g id="edge1" class="edge"><title>Node2&#45;&gt;Node1</title>
<path fill="none" stroke="#9a32cd" stroke-dasharray="5,2" d="M772.425,-89.5C790.134,-89.5 808.647,-89.5 825.67,-89.5"/>
<polygon fill="#9a32cd" stroke="#9a32cd" points="772.109,-86.0001 762.109,-89.5 772.109,-93.0001 772.109,-86.0001"/>
<text text-anchor="middle" x="794" y="-92.5" font-family="Helvetica,sans-Serif" font-size="10.00"> b</text>
</g>
<!-- Node3 -->
<g id="node3" class="node"><title>Node3</title>
<g id="a_node3"><a xlink:href="structfiftyone_degrees_override_value_array.html" target="_top" xlink:title="An array of properties and values to use when getting override values.">
<polygon fill="none" stroke="black" points="394,-49.5 394,-79.5 537,-79.5 537,-49.5 394,-49.5"/>
<text text-anchor="start" x="402" y="-67.5" font-family="Helvetica,sans-Serif" font-size="10.00">fiftyoneDegreesOverrideValue</text>
<text text-anchor="middle" x="465.5" y="-56.5" font-family="Helvetica,sans-Serif" font-size="10.00">Array</text>
</a>
</g>
</g>
<!-- Node3&#45;&gt;Node2 -->
<g id="edge2" class="edge"><title>Node3&#45;&gt;Node2</title>
<path fill="none" stroke="#9a32cd" stroke-dasharray="5,2" d="M547.067,-73.5728C569.944,-76.1491 594.691,-78.9359 616.992,-81.4473"/>
<polygon fill="#9a32cd" stroke="#9a32cd" points="547.376,-70.0856 537.047,-72.4445 546.593,-77.0417 547.376,-70.0856"/>
<text text-anchor="middle" x="577" y="-82.5" font-family="Helvetica,sans-Serif" font-size="10.00"> overrides</text>
</g>
<!-- Node4 -->
<g id="node4" class="node"><title>Node4</title>
<g id="a_node4"><a xlink:href="structfiftyone_degrees_override_value.html" target="_top" xlink:title="String value which should override the value for the property indicated by the required property inde...">
<polygon fill="none" stroke="black" points="169,-100 169,-119 312,-119 312,-100 169,-100"/>
<text text-anchor="middle" x="240.5" y="-107" font-family="Helvetica,sans-Serif" font-size="10.00">fiftyoneDegreesOverrideValue</text>
</a>
</g>
</g>
<!-- Node4&#45;&gt;Node3 -->
<g id="edge3" class="edge"><title>Node4&#45;&gt;Node3</title>
<path fill="none" stroke="#9a32cd" stroke-dasharray="5,2" d="M298.768,-97.9437C327.786,-92.088 363.283,-84.925 393.97,-78.7325"/>
<polygon fill="#9a32cd" stroke="#9a32cd" points="297.903,-94.5477 288.793,-99.9567 299.287,-101.409 297.903,-94.5477"/>
<text text-anchor="middle" x="353.5" y="-94.5" font-family="Helvetica,sans-Serif" font-size="10.00"> items</text>
</g>
<!-- Node5 -->
<g id="node5" class="node"><title>Node5</title>
<g id="a_node5"><a xlink:href="structfiftyone_degrees_data.html" target="_top" xlink:title="Data structure used for reusing memory which may have been allocated in a previous operation.">
<polygon fill="none" stroke="black" points="0,-124 0,-143 104,-143 104,-124 0,-124"/>
<text text-anchor="middle" x="52" y="-131" font-family="Helvetica,sans-Serif" font-size="10.00">fiftyoneDegreesData</text>
</a>
</g>
</g>
<!-- Node5&#45;&gt;Node4 -->
<g id="edge4" class="edge"><title>Node5&#45;&gt;Node4</title>
<path fill="none" stroke="#9a32cd" stroke-dasharray="5,2" d="M114.455,-125.592C131.803,-123.359 150.818,-120.912 168.668,-118.615"/>
<polygon fill="#9a32cd" stroke="#9a32cd" points="113.927,-122.131 104.456,-126.878 114.821,-129.073 113.927,-122.131"/>
<text text-anchor="middle" x="136" y="-127.5" font-family="Helvetica,sans-Serif" font-size="10.00"> string</text>
</g>
<!-- Node9 -->
<g id="node9" class="node"><title>Node9</title>
<g id="a_node9"><a xlink:href="structfiftyone_degrees_collection_item.html" target="_top" xlink:title="Used to store a handle to the underlying item that could be used to release the item when it&#39;s finish...">
<polygon fill="none" stroke="black" points="168,-146 168,-165 313,-165 313,-146 168,-146"/>
<text text-anchor="middle" x="240.5" y="-153" font-family="Helvetica,sans-Serif" font-size="10.00">fiftyoneDegreesCollectionItem</text>
</a>
</g>
</g>
<!-- Node5&#45;&gt;Node9 -->
<g id="edge12" class="edge"><title>Node5&#45;&gt;Node9</title>
<path fill="none" stroke="#9a32cd" stroke-dasharray="5,2" d="M114.826,-140.793C131.847,-142.801 150.451,-144.996 167.971,-147.062"/>
<polygon fill="#9a32cd" stroke="#9a32cd" points="114.797,-137.266 104.456,-139.57 113.977,-144.217 114.797,-137.266"/>
<text text-anchor="middle" x="136" y="-147.5" font-family="Helvetica,sans-Serif" font-size="10.00"> data</text>
</g>
<!-- Node6 -->
<g id="node6" class="node"><title>Node6</title>
<g id="a_node6"><a xlink:href="structfiftyone_degrees_results_base.html" target="_top" xlink:title="Base results structure which any processing results should extend.">
<polygon fill="none" stroke="black" points="396,-99 396,-118 535,-118 535,-99 396,-99"/>
<text text-anchor="middle" x="465.5" y="-106" font-family="Helvetica,sans-Serif" font-size="10.00">fiftyoneDegreesResultsBase</text>
</a>
</g>
</g>
<!-- Node6&#45;&gt;Node2 -->
<g id="edge5" class="edge"><title>Node6&#45;&gt;Node2</title>
<path fill="none" stroke="#9a32cd" stroke-dasharray="5,2" d="M545.383,-101.749C568.609,-99.7609 593.888,-97.5975 616.648,-95.6495"/>
<polygon fill="#9a32cd" stroke="#9a32cd" points="544.887,-98.2783 535.222,-102.618 545.484,-105.253 544.887,-98.2783"/>
<text text-anchor="middle" x="577" y="-104.5" font-family="Helvetica,sans-Serif" font-size="10.00"> b</text>
</g>
<!-- Node7 -->
<g id="node7" class="node"><title>Node7</title>
<g id="a_node7"><a xlink:href="structfiftyone_degrees_result_hash.html" target="_top" xlink:title="Singular User&#45;Agent result returned by a Hash process method.">
<polygon fill="none" stroke="black" points="622.5,-21 622.5,-40 756.5,-40 756.5,-21 622.5,-21"/>
<text text-anchor="middle" x="689.5" y="-28" font-family="Helvetica,sans-Serif" font-size="10.00">fiftyoneDegreesResultHash</text>
</a>
</g>
</g>
<!-- Node7&#45;&gt;Node1 -->
<g id="edge6" class="edge"><title>Node7&#45;&gt;Node1</title>
<path fill="none" stroke="#9a32cd" stroke-dasharray="5,2" d="M733.091,-42.9707C764.498,-52.167 807.374,-64.721 840.673,-74.4714"/>
<polygon fill="#9a32cd" stroke="#9a32cd" points="733.904,-39.5618 723.323,-40.1107 731.936,-46.2798 733.904,-39.5618"/>
<text text-anchor="middle" x="794" y="-67.5" font-family="Helvetica,sans-Serif" font-size="10.00"> items</text>
</g>
<!-- Node8 -->
<g id="node8" class="node"><title>Node8</title>
<g id="a_node8"><a xlink:href="structfiftyone_degrees_result_user_agent.html" target="_top" xlink:title="Singular User&#45;Agent result returned by a device detection process method.">
<polygon fill="none" stroke="black" points="400,-0.5 400,-30.5 531,-30.5 531,-0.5 400,-0.5"/>
<text text-anchor="start" x="408" y="-18.5" font-family="Helvetica,sans-Serif" font-size="10.00">fiftyoneDegreesResultUser</text>
<text text-anchor="middle" x="465.5" y="-7.5" font-family="Helvetica,sans-Serif" font-size="10.00">Agent</text>
</a>
</g>
</g>
<!-- Node8&#45;&gt;Node7 -->
<g id="edge7" class="edge"><title>Node8&#45;&gt;Node7</title>
<path fill="none" stroke="#9a32cd" stroke-dasharray="5,2" d="M541.284,-20.5529C567.525,-22.326 596.799,-24.304 622.287,-26.0262"/>
<polygon fill="#9a32cd" stroke="#9a32cd" points="541.223,-17.041 531.01,-19.8588 540.751,-24.025 541.223,-17.041"/>
<text text-anchor="middle" x="577" y="-27.5" font-family="Helvetica,sans-Serif" font-size="10.00"> b</text>
</g>
<!-- Node9&#45;&gt;Node1 -->
<g id="edge8" class="edge"><title>Node9&#45;&gt;Node1</title>
<path fill="none" stroke="#9a32cd" stroke-dasharray="5,2" d="M268.026,-169.736C297.724,-184.798 347.763,-207.596 394,-216.5 576.678,-251.681 792.131,-145.312 865.795,-104.628"/>
<polygon fill="#9a32cd" stroke="#9a32cd" points="269.621,-166.62 259.129,-165.144 266.411,-172.841 269.621,-166.62"/>
<text text-anchor="middle" x="577" y="-218.5" font-family="Helvetica,sans-Serif" font-size="10.00"> valueItem</text>
</g>
<!-- Node10 -->
<g id="node10" class="node"><title>Node10</title>
<g id="a_node10"><a xlink:href="structfiftyone_degrees_collection.html" target="_top" xlink:title="All the shared methods and fields required by file, memory and cached collections.">
<polygon fill="none" stroke="black" points="402.5,-137 402.5,-156 528.5,-156 528.5,-137 402.5,-137"/>
<text text-anchor="middle" x="465.5" y="-144" font-family="Helvetica,sans-Serif" font-size="10.00">fiftyoneDegreesCollection</text>
</a>
</g>
</g>
<!-- Node9&#45;&gt;Node10 -->
<g id="edge10" class="edge"><title>Node9&#45;&gt;Node10</title>
<path fill="none" stroke="#9a32cd" stroke-dasharray="5,2" d="M323.509,-152.19C349.522,-151.14 377.843,-149.997 402.232,-149.013"/>
<polygon fill="#9a32cd" stroke="#9a32cd" points="323.137,-148.702 313.286,-152.603 323.419,-155.697 323.137,-148.702"/>
<text text-anchor="middle" x="353.5" y="-155.5" font-family="Helvetica,sans-Serif" font-size="10.00"> release</text>
</g>
<!-- Node10&#45;&gt;Node9 -->
<g id="edge9" class="edge"><title>Node10&#45;&gt;Node9</title>
<path fill="none" stroke="#9a32cd" stroke-dasharray="5,2" d="M417.517,-134.995C391.913,-130.203 359.685,-126.569 331,-130.5 309.582,-133.435 286.064,-140.147 268.513,-145.878"/>
<polygon fill="#9a32cd" stroke="#9a32cd" points="416.849,-138.43 427.339,-136.949 418.215,-131.565 416.849,-138.43"/>
<text text-anchor="middle" x="353.5" y="-133.5" font-family="Helvetica,sans-Serif" font-size="10.00"> collection</text>
</g>
<!-- Node10&#45;&gt;Node10 -->
<g id="edge11" class="edge"><title>Node10&#45;&gt;Node10</title>
<path fill="none" stroke="#9a32cd" stroke-dasharray="5,2" d="M445.131,-165.9C446.491,-170.815 453.281,-174.5 465.5,-174.5 485.051,-174.5 490.702,-165.065 482.454,-156.257"/>
<polygon fill="#9a32cd" stroke="#9a32cd" points="448.507,-166.852 448.546,-156.257 441.908,-164.515 448.507,-166.852"/>
<text text-anchor="middle" x="465.5" y="-199.5" font-family="Helvetica,sans-Serif" font-size="10.00"> next</text>
<text text-anchor="middle" x="465.5" y="-188.5" font-family="Helvetica,sans-Serif" font-size="10.00">freeCollection</text>
<text text-anchor="middle" x="465.5" y="-177.5" font-family="Helvetica,sans-Serif" font-size="10.00">get</text>
</g>
</g>
</svg>
