<?xml version="1.0" encoding="UTF-8" standalone="no"?>
<!DOCTYPE svg PUBLIC "-//W3C//DTD SVG 1.1//EN"
 "http://www.w3.org/Graphics/SVG/1.1/DTD/svg11.dtd">
<!-- Generated by graphviz version 2.38.0 (20140413.2041)
 -->
<!-- Title: fiftyoneDegreesCollection Pages: 1 -->
<svg width="333pt" height="108pt"
 viewBox="0.00 0.00 333.00 108.00" xmlns="http://www.w3.org/2000/svg" xmlns:xlink="http://www.w3.org/1999/xlink">
<g id="graph0" class="graph" transform="scale(1 1) rotate(0) translate(4 104)">
<title>fiftyoneDegreesCollection</title>
<!-- Node1 -->
<g id="node1" class="node"><title>Node1</title>
<g id="a_node1"><a xlink:title="All the shared methods and fields required by file, memory and cached collections.">
<polygon fill="#bfbfbf" stroke="black" points="0,-74 0,-93 126,-93 126,-74 0,-74"/>
<text text-anchor="middle" x="63" y="-81" font-family="Helvetica,sans-Serif" font-size="10.00">fiftyoneDegreesCollection</text>
</a>
</g>
</g>
<!-- Node1&#45;&gt;Node1 -->
<g id="edge4" class="edge"><title>Node1&#45;&gt;Node1</title>
<path fill="none" stroke="#9a32cd" stroke-dasharray="5,2" d="M136.09,-88.8969C141.012,-87.6513 144,-85.8523 144,-83.5 144,-79.8281 136.719,-77.5045 126.168,-76.5292"/>
<polygon fill="#9a32cd" stroke="#9a32cd" points="135.496,-85.4473 126.168,-90.4708 136.593,-92.3608 135.496,-85.4473"/>
<text text-anchor="middle" x="173.5" y="-92" font-family="Helvetica,sans-Serif" font-size="10.00"> next</text>
<text text-anchor="middle" x="173.5" y="-81" font-family="Helvetica,sans-Serif" font-size="10.00">freeCollection</text>
<text text-anchor="middle" x="173.5" y="-70" font-family="Helvetica,sans-Serif" font-size="10.00">get</text>
</g>
<!-- Node2 -->
<g id="node2" class="node"><title>Node2</title>
<g id="a_node2"><a xlink:href="structfiftyone_degrees_collection_item.html" target="_top" xlink:title="Used to store a handle to the underlying item that could be used to release the item when it&#39;s finish...">
<polygon fill="none" stroke="black" points="58.5,-0.5 58.5,-19.5 203.5,-19.5 203.5,-0.5 58.5,-0.5"/>
<text text-anchor="middle" x="131" y="-7.5" font-family="Helvetica,sans-Serif" font-size="10.00">fiftyoneDegreesCollectionItem</text>
</a>
</g>
</g>
<!-- Node1&#45;&gt;Node2 -->
<g id="edge2" class="edge"><title>Node1&#45;&gt;Node2</title>
<path fill="none" stroke="#9a32cd" stroke-dasharray="5,2" d="M56.746,-63.9233C55.0407,-55.3464 54.8693,-45.4403 60,-38 65.9143,-29.4233 74.9398,-23.5689 84.5929,-19.5732"/>
<polygon fill="#9a32cd" stroke="#9a32cd" points="53.4302,-65.0672 59.4427,-73.7907 60.1826,-63.2217 53.4302,-65.0672"/>
<text text-anchor="middle" x="82.5" y="-41" font-family="Helvetica,sans-Serif" font-size="10.00"> collection</text>
</g>
<!-- Node2&#45;&gt;Node1 -->
<g id="edge1" class="edge"><title>Node2&#45;&gt;Node1</title>
<path fill="none" stroke="#9a32cd" stroke-dasharray="5,2" d="M122.777,-28.6355C119.122,-35.4259 114.415,-42.9864 109,-49 100.009,-58.9846 87.5887,-67.8152 77.92,-73.8999"/>
<polygon fill="#9a32cd" stroke="#9a32cd" points="125.999,-30.0174 127.34,-19.5077 119.738,-26.8877 125.999,-30.0174"/>
<text text-anchor="middle" x="134.5" y="-41" font-family="Helvetica,sans-Serif" font-size="10.00"> release</text>
</g>
<!-- Node3 -->
<g id="node3" class="node"><title>Node3</title>
<g id="a_node3"><a xlink:href="structfiftyone_degrees_data.html" target="_top" xlink:title="Data structure used for reusing memory which may have been allocated in a previous operation.">
<polygon fill="none" stroke="black" points="221,-74 221,-93 325,-93 325,-74 221,-74"/>
<text text-anchor="middle" x="273" y="-81" font-family="Helvetica,sans-Serif" font-size="10.00">fiftyoneDegreesData</text>
</a>
</g>
</g>
<!-- Node3&#45;&gt;Node2 -->
<g id="edge3" class="edge"><title>Node3&#45;&gt;Node2</title>
<path fill="none" stroke="#9a32cd" stroke-dasharray="5,2" d="M246.812,-69.3139C218.066,-54.8398 172.745,-32.0193 148.189,-19.6552"/>
<polygon fill="#9a32cd" stroke="#9a32cd" points="245.366,-72.5042 255.871,-73.8754 248.514,-66.252 245.366,-72.5042"/>
<text text-anchor="middle" x="217" y="-41" font-family="Helvetica,sans-Serif" font-size="10.00"> data</text>
</g>
</g>
</svg>
