<?xml version="1.0" encoding="UTF-8" standalone="no"?>
<!DOCTYPE svg PUBLIC "-//W3C//DTD SVG 1.1//EN"
 "http://www.w3.org/Graphics/SVG/1.1/DTD/svg11.dtd">
<!-- Generated by graphviz version 2.38.0 (20140413.2041)
 -->
<!-- Title: threadState Pages: 1 -->
<svg width="248pt" height="95pt"
 viewBox="0.00 0.00 248.00 95.00" xmlns="http://www.w3.org/2000/svg" xmlns:xlink="http://www.w3.org/1999/xlink">
<g id="graph0" class="graph" transform="scale(1 1) rotate(0) translate(4 91)">
<title>threadState</title>
<!-- Node1 -->
<g id="node1" class="node"><title>Node1</title>
<g id="a_node1"><a xlink:title="State for a single thread carrying out processing.">
<polygon fill="#bfbfbf" stroke="black" points="0,-0.5 0,-19.5 67,-19.5 67,-0.5 0,-0.5"/>
<text text-anchor="middle" x="33.5" y="-7.5" font-family="Helvetica,sans-Serif" font-size="10.00">threadState</text>
</a>
</g>
</g>
<!-- Node2 -->
<g id="node2" class="node"><title>Node2</title>
<g id="a_node2"><a xlink:href="structfiftyone_degrees_resource_manager.html" target="_top" xlink:title="Manager structure used to provide access to a shared and changing resource.">
<polygon fill="none" stroke="black" points="17.5,-67.5 17.5,-86.5 179.5,-86.5 179.5,-67.5 17.5,-67.5"/>
<text text-anchor="middle" x="98.5" y="-74.5" font-family="Helvetica,sans-Serif" font-size="10.00">fiftyoneDegreesResourceManager</text>
</a>
</g>
</g>
<!-- Node2&#45;&gt;Node1 -->
<g id="edge1" class="edge"><title>Node2&#45;&gt;Node1</title>
<path fill="none" stroke="#9a32cd" stroke-dasharray="5,2" d="M64.1666,-62.9425C57.6329,-59.2256 51.3363,-54.6181 46.5,-49 39.3126,-40.6508 36.0452,-28.1326 34.5969,-19.772"/>
<polygon fill="#9a32cd" stroke="#9a32cd" points="62.6057,-66.0752 73.1083,-67.4705 65.7681,-59.8303 62.6057,-66.0752"/>
<text text-anchor="middle" x="67" y="-41" font-family="Helvetica,sans-Serif" font-size="10.00"> manager</text>
</g>
<!-- Node3 -->
<g id="node3" class="node"><title>Node3</title>
<g id="a_node3"><a xlink:href="structfiftyone_degrees_resource_handle.html" target="_top" xlink:title="Tracks the number of active uses of the resource within the manager.">
<polygon fill="none" stroke="black" points="85,-0.5 85,-19.5 240,-19.5 240,-0.5 85,-0.5"/>
<text text-anchor="middle" x="162.5" y="-7.5" font-family="Helvetica,sans-Serif" font-size="10.00">fiftyoneDegreesResourceHandle</text>
</a>
</g>
</g>
<!-- Node2&#45;&gt;Node3 -->
<g id="edge3" class="edge"><title>Node2&#45;&gt;Node3</title>
<path fill="none" stroke="#9a32cd" stroke-dasharray="5,2" d="M92.4256,-57.2122C91.4366,-50.6536 91.7518,-43.5516 95.5,-38 101.324,-29.3732 110.415,-23.5021 120.042,-19.5067"/>
<polygon fill="#9a32cd" stroke="#9a32cd" points="89.14,-58.5045 94.9455,-67.3672 95.934,-56.8186 89.14,-58.5045"/>
<text text-anchor="middle" x="116" y="-41" font-family="Helvetica,sans-Serif" font-size="10.00"> manager</text>
</g>
<!-- Node3&#45;&gt;Node2 -->
<g id="edge2" class="edge"><title>Node3&#45;&gt;Node2</title>
<path fill="none" stroke="#9a32cd" stroke-dasharray="5,2" d="M154.454,-28.7998C150.824,-35.613 146.087,-43.1462 140.5,-49 133.437,-56.3991 123.962,-62.7137 115.799,-67.3715"/>
<polygon fill="#9a32cd" stroke="#9a32cd" points="157.699,-30.1327 158.953,-19.6122 151.412,-27.0547 157.699,-30.1327"/>
<text text-anchor="middle" x="162.5" y="-41" font-family="Helvetica,sans-Serif" font-size="10.00"> active</text>
</g>
</g>
</svg>
