<?xml version="1.0" encoding="UTF-8" standalone="no"?>
<!DOCTYPE svg PUBLIC "-//W3C//DTD SVG 1.1//EN"
 "http://www.w3.org/Graphics/SVG/1.1/DTD/svg11.dtd">
<!-- Generated by graphviz version 2.38.0 (20140413.2041)
 -->
<!-- Title: fiftyoneDegreesPool Pages: 1 -->
<svg width="201pt" height="162pt"
 viewBox="0.00 0.00 201.00 162.00" xmlns="http://www.w3.org/2000/svg" xmlns:xlink="http://www.w3.org/1999/xlink">
<g id="graph0" class="graph" transform="scale(1 1) rotate(0) translate(4 158)">
<title>fiftyoneDegreesPool</title>
<!-- Node1 -->
<g id="node1" class="node"><title>Node1</title>
<g id="a_node1"><a xlink:title="Pool of resources stored as items in a stack.">
<polygon fill="#bfbfbf" stroke="black" points="11,-67.5 11,-86.5 114,-86.5 114,-67.5 11,-67.5"/>
<text text-anchor="middle" x="62.5" y="-74.5" font-family="Helvetica,sans-Serif" font-size="10.00">fiftyoneDegreesPool</text>
</a>
</g>
</g>
<!-- Node1&#45;&gt;Node1 -->
<g id="edge1" class="edge"><title>Node1&#45;&gt;Node1</title>
<path fill="none" stroke="#9a32cd" stroke-dasharray="5,2" d="M123.956,-81.5916C128.922,-80.5925 132,-79.062 132,-77 132,-73.7813 124.5,-71.8575 114.025,-71.2289"/>
<polygon fill="#9a32cd" stroke="#9a32cd" points="123.543,-78.1159 114.025,-82.7711 124.368,-85.0671 123.543,-78.1159"/>
<text text-anchor="middle" x="162.5" y="-74.5" font-family="Helvetica,sans-Serif" font-size="10.00"> resourceFree</text>
</g>
<!-- Node3 -->
<g id="node3" class="node"><title>Node3</title>
<g id="a_node3"><a xlink:href="structfiftyone_degrees_pool_item.html" target="_top" xlink:title="Pool item node in the stack of items.">
<polygon fill="none" stroke="black" points="1.5,-0.5 1.5,-19.5 123.5,-19.5 123.5,-0.5 1.5,-0.5"/>
<text text-anchor="middle" x="62.5" y="-7.5" font-family="Helvetica,sans-Serif" font-size="10.00">fiftyoneDegreesPoolItem</text>
</a>
</g>
</g>
<!-- Node1&#45;&gt;Node3 -->
<g id="edge4" class="edge"><title>Node1&#45;&gt;Node3</title>
<path fill="none" stroke="#9a32cd" stroke-dasharray="5,2" d="M44.124,-59.889C41.4178,-56.5797 39.0296,-52.9033 37.5,-49 33.2358,-38.1182 42.2578,-27.1178 50.629,-19.773"/>
<polygon fill="#9a32cd" stroke="#9a32cd" points="41.7546,-62.4754 51.1978,-67.2792 46.8114,-57.635 41.7546,-62.4754"/>
<text text-anchor="middle" x="48.5" y="-41" font-family="Helvetica,sans-Serif" font-size="10.00"> pool</text>
</g>
<!-- Node2 -->
<g id="node2" class="node"><title>Node2</title>
<g id="a_node2"><a xlink:href="unionfiftyone_degrees_pool_head.html" target="_top" xlink:title="The head of the stack used for pop and push operations.">
<polygon fill="none" stroke="black" points="0,-134.5 0,-153.5 125,-153.5 125,-134.5 0,-134.5"/>
<text text-anchor="middle" x="62.5" y="-141.5" font-family="Helvetica,sans-Serif" font-size="10.00">fiftyoneDegreesPoolHead</text>
</a>
</g>
</g>
<!-- Node2&#45;&gt;Node1 -->
<g id="edge2" class="edge"><title>Node2&#45;&gt;Node1</title>
<path fill="none" stroke="#9a32cd" stroke-dasharray="5,2" d="M62.5,-124.037C62.5,-111.67 62.5,-96.1198 62.5,-86.6273"/>
<polygon fill="#9a32cd" stroke="#9a32cd" points="59.0001,-124.234 62.5,-134.234 66.0001,-124.234 59.0001,-124.234"/>
<text text-anchor="middle" x="75" y="-108" font-family="Helvetica,sans-Serif" font-size="10.00"> head</text>
</g>
<!-- Node3&#45;&gt;Node1 -->
<g id="edge3" class="edge"><title>Node3&#45;&gt;Node1</title>
<path fill="none" stroke="#9a32cd" stroke-dasharray="5,2" d="M63.3268,-29.7469C63.5082,-35.8825 63.616,-42.7315 63.5,-49 63.3854,-55.1907 63.1231,-62.1757 62.8959,-67.49"/>
<polygon fill="#9a32cd" stroke="#9a32cd" points="66.8244,-29.6152 62.953,-19.7531 59.8293,-29.8769 66.8244,-29.6152"/>
<text text-anchor="middle" x="77.5" y="-41" font-family="Helvetica,sans-Serif" font-size="10.00"> stack</text>
</g>
</g>
</svg>
