<?xml version="1.0" encoding="UTF-8" standalone="no"?>
<!DOCTYPE svg PUBLIC "-//W3C//DTD SVG 1.1//EN"
 "http://www.w3.org/Graphics/SVG/1.1/DTD/svg11.dtd">
<!-- Generated by graphviz version 2.38.0 (20140413.2041)
 -->
<!-- Title: offlineProcessState Pages: 1 -->
<svg width="1134pt" height="351pt"
 viewBox="0.00 0.00 1134.00 351.00" xmlns="http://www.w3.org/2000/svg" xmlns:xlink="http://www.w3.org/1999/xlink">
<g id="graph0" class="graph" transform="scale(1 1) rotate(0) translate(4 347)">
<title>offlineProcessState</title>
<!-- Node1 -->
<g id="node1" class="node"><title>Node1</title>
<g id="a_node1"><a xlink:title="State used for the offline processing operation.">
<polygon fill="#bfbfbf" stroke="black" points="1025,-135.5 1025,-154.5 1126,-154.5 1126,-135.5 1025,-135.5"/>
<text text-anchor="middle" x="1075.5" y="-142.5" font-family="Helvetica,sans-Serif" font-size="10.00">offlineProcessState</text>
</a>
</g>
</g>
<!-- Node2 -->
<g id="node2" class="node"><title>Node2</title>
<g id="a_node2"><a xlink:href="structfiftyone_degrees_result_pattern_array.html" target="_top" xlink:title="Array of items of type fiftyoneDegreesResultPattern used to easily access and track the size of the a...">
<polygon fill="none" stroke="black" points="813,-164 813,-194 956,-194 956,-164 813,-164"/>
<text text-anchor="start" x="821" y="-182" font-family="Helvetica,sans-Serif" font-size="10.00">fiftyoneDegreesResultPattern</text>
<text text-anchor="middle" x="884.5" y="-171" font-family="Helvetica,sans-Serif" font-size="10.00">Array</text>
</a>
</g>
</g>
<!-- Node2&#45;&gt;Node1 -->
<g id="edge1" class="edge"><title>Node2&#45;&gt;Node1</title>
<path fill="none" stroke="#9a32cd" stroke-dasharray="5,2" d="M966.163,-164.489C986.105,-160.902 1006.89,-157.163 1024.85,-153.931"/>
<polygon fill="#9a32cd" stroke="#9a32cd" points="965.368,-161.076 956.145,-166.291 966.607,-167.965 965.368,-161.076"/>
<text text-anchor="middle" x="990.5" y="-167" font-family="Helvetica,sans-Serif" font-size="10.00"> results</text>
</g>
<!-- Node3 -->
<g id="node3" class="node"><title>Node3</title>
<g id="a_node3"><a xlink:href="structfiftyone_degrees_list.html" target="_top" xlink:title="List structure which contains a list of collection items.">
<polygon fill="none" stroke="black" points="624,-323.5 624,-342.5 723,-342.5 723,-323.5 624,-323.5"/>
<text text-anchor="middle" x="673.5" y="-330.5" font-family="Helvetica,sans-Serif" font-size="10.00">fiftyoneDegreesList</text>
</a>
</g>
</g>
<!-- Node3&#45;&gt;Node2 -->
<g id="edge2" class="edge"><title>Node3&#45;&gt;Node2</title>
<path fill="none" stroke="#9a32cd" stroke-dasharray="5,2" d="M732.736,-320.302C737.345,-318.468 741.826,-316.379 746,-314 801.806,-282.197 851.247,-222.161 872.479,-194.131"/>
<polygon fill="#9a32cd" stroke="#9a32cd" points="731.398,-317.063 723.153,-323.717 733.748,-323.657 731.398,-317.063"/>
<text text-anchor="middle" x="779.5" y="-303" font-family="Helvetica,sans-Serif" font-size="10.00"> values</text>
</g>
<!-- Node4 -->
<g id="node4" class="node"><title>Node4</title>
<g id="a_node4"><a xlink:href="structfiftyone_degrees_collection_item.html" target="_top" xlink:title="Used to store a handle to the underlying item that could be used to release the item when it&#39;s finish...">
<polygon fill="none" stroke="black" points="375,-211.5 375,-230.5 520,-230.5 520,-211.5 375,-211.5"/>
<text text-anchor="middle" x="447.5" y="-218.5" font-family="Helvetica,sans-Serif" font-size="10.00">fiftyoneDegreesCollectionItem</text>
</a>
</g>
</g>
<!-- Node4&#45;&gt;Node2 -->
<g id="edge13" class="edge"><title>Node4&#45;&gt;Node2</title>
<path fill="none" stroke="#9a32cd" stroke-dasharray="5,2" d="M530.538,-213.079C611.937,-205.22 735.392,-193.3 812.645,-185.841"/>
<polygon fill="#9a32cd" stroke="#9a32cd" points="529.949,-209.62 520.331,-214.065 530.622,-216.587 529.949,-209.62"/>
<text text-anchor="middle" x="673.5" y="-210" font-family="Helvetica,sans-Serif" font-size="10.00"> propertyItem</text>
</g>
<!-- Node4&#45;&gt;Node3 -->
<g id="edge3" class="edge"><title>Node4&#45;&gt;Node3</title>
<path fill="none" stroke="#9a32cd" stroke-dasharray="5,2" d="M469.625,-236.618C498.122,-257.029 551.078,-292.677 601,-314 609.622,-317.683 619.141,-320.81 628.344,-323.4"/>
<polygon fill="#9a32cd" stroke="#9a32cd" points="471.419,-233.596 461.267,-230.564 467.312,-239.265 471.419,-233.596"/>
<text text-anchor="middle" x="560.5" y="-307" font-family="Helvetica,sans-Serif" font-size="10.00"> items</text>
</g>
<!-- Node5 -->
<g id="node5" class="node"><title>Node5</title>
<g id="a_node5"><a xlink:href="structfiftyone_degrees_collection.html" target="_top" xlink:title="All the shared methods and fields required by file, memory and cached collections.">
<polygon fill="none" stroke="black" points="610.5,-234.5 610.5,-253.5 736.5,-253.5 736.5,-234.5 610.5,-234.5"/>
<text text-anchor="middle" x="673.5" y="-241.5" font-family="Helvetica,sans-Serif" font-size="10.00">fiftyoneDegreesCollection</text>
</a>
</g>
</g>
<!-- Node4&#45;&gt;Node5 -->
<g id="edge5" class="edge"><title>Node4&#45;&gt;Node5</title>
<path fill="none" stroke="#9a32cd" stroke-dasharray="5,2" d="M530.273,-229.396C556.64,-232.104 585.423,-235.059 610.156,-237.599"/>
<polygon fill="#9a32cd" stroke="#9a32cd" points="530.605,-225.912 520.299,-228.372 529.889,-232.875 530.605,-225.912"/>
<text text-anchor="middle" x="560.5" y="-238" font-family="Helvetica,sans-Serif" font-size="10.00"> release</text>
</g>
<!-- Node13 -->
<g id="node13" class="node"><title>Node13</title>
<g id="a_node13"><a xlink:href="structfiftyone_degrees_result_hash_array.html" target="_top" xlink:title="Array of items of type fiftyoneDegreesResultHash used to easily access and track the size of the arra...">
<polygon fill="none" stroke="black" points="817.5,-69 817.5,-99 951.5,-99 951.5,-69 817.5,-69"/>
<text text-anchor="start" x="825.5" y="-87" font-family="Helvetica,sans-Serif" font-size="10.00">fiftyoneDegreesResultHash</text>
<text text-anchor="middle" x="884.5" y="-76" font-family="Helvetica,sans-Serif" font-size="10.00">Array</text>
</a>
</g>
</g>
<!-- Node4&#45;&gt;Node13 -->
<g id="edge20" class="edge"><title>Node4&#45;&gt;Node13</title>
<path fill="none" stroke="#9a32cd" stroke-dasharray="5,2" d="M490.702,-208.586C521.245,-199.727 563.561,-187.712 601,-178 686.774,-155.749 712.221,-163.621 795,-132 818.023,-123.205 842.532,-109.537 859.906,-99.0321"/>
<polygon fill="#9a32cd" stroke="#9a32cd" points="489.444,-205.307 480.819,-211.461 491.399,-212.028 489.444,-205.307"/>
<text text-anchor="middle" x="673.5" y="-181" font-family="Helvetica,sans-Serif" font-size="10.00"> valueItem</text>
</g>
<!-- Node5&#45;&gt;Node4 -->
<g id="edge4" class="edge"><title>Node5&#45;&gt;Node4</title>
<path fill="none" stroke="#9a32cd" stroke-dasharray="5,2" d="M600.186,-252.546C579.968,-253.495 558.047,-253.167 538,-250 514.606,-246.305 489,-237.492 471.193,-230.544"/>
<polygon fill="#9a32cd" stroke="#9a32cd" points="600.489,-256.035 610.27,-251.963 600.085,-249.046 600.489,-256.035"/>
<text text-anchor="middle" x="560.5" y="-257" font-family="Helvetica,sans-Serif" font-size="10.00"> collection</text>
</g>
<!-- Node5&#45;&gt;Node5 -->
<g id="edge6" class="edge"><title>Node5&#45;&gt;Node5</title>
<path fill="none" stroke="#9a32cd" stroke-dasharray="5,2" d="M653.871,-263.4C655.182,-268.315 661.725,-272 673.5,-272 692.34,-272 697.786,-262.565 689.838,-253.757"/>
<polygon fill="#9a32cd" stroke="#9a32cd" points="657.245,-264.352 657.162,-253.757 650.62,-262.091 657.245,-264.352"/>
<text text-anchor="middle" x="673.5" y="-297" font-family="Helvetica,sans-Serif" font-size="10.00"> next</text>
<text text-anchor="middle" x="673.5" y="-286" font-family="Helvetica,sans-Serif" font-size="10.00">freeCollection</text>
<text text-anchor="middle" x="673.5" y="-275" font-family="Helvetica,sans-Serif" font-size="10.00">get</text>
</g>
<!-- Node6 -->
<g id="node6" class="node"><title>Node6</title>
<g id="a_node6"><a xlink:href="structfiftyone_degrees_data.html" target="_top" xlink:title="Data structure used for reusing memory which may have been allocated in a previous operation.">
<polygon fill="none" stroke="black" points="0,-174.5 0,-193.5 104,-193.5 104,-174.5 0,-174.5"/>
<text text-anchor="middle" x="52" y="-181.5" font-family="Helvetica,sans-Serif" font-size="10.00">fiftyoneDegreesData</text>
</a>
</g>
</g>
<!-- Node6&#45;&gt;Node4 -->
<g id="edge7" class="edge"><title>Node6&#45;&gt;Node4</title>
<path fill="none" stroke="#9a32cd" stroke-dasharray="5,2" d="M114.097,-189.745C184.559,-196.37 300.249,-207.248 374.88,-214.266"/>
<polygon fill="#9a32cd" stroke="#9a32cd" points="114.324,-186.251 104.04,-188.799 113.668,-193.22 114.324,-186.251"/>
<text text-anchor="middle" x="239.5" y="-211" font-family="Helvetica,sans-Serif" font-size="10.00"> data</text>
</g>
<!-- Node9 -->
<g id="node9" class="node"><title>Node9</title>
<g id="a_node9"><a xlink:href="structfiftyone_degrees_override_value.html" target="_top" xlink:title="String value which should override the value for the property indicated by the required property inde...">
<polygon fill="none" stroke="black" points="168,-135.5 168,-154.5 311,-154.5 311,-135.5 168,-135.5"/>
<text text-anchor="middle" x="239.5" y="-142.5" font-family="Helvetica,sans-Serif" font-size="10.00">fiftyoneDegreesOverrideValue</text>
</a>
</g>
</g>
<!-- Node6&#45;&gt;Node9 -->
<g id="edge11" class="edge"><title>Node6&#45;&gt;Node9</title>
<path fill="none" stroke="#9a32cd" stroke-dasharray="5,2" d="M108.481,-172.335C135.555,-166.643 167.71,-159.883 193.269,-154.509"/>
<polygon fill="#9a32cd" stroke="#9a32cd" points="107.444,-168.977 98.3784,-174.46 108.885,-175.827 107.444,-168.977"/>
<text text-anchor="middle" x="136" y="-173" font-family="Helvetica,sans-Serif" font-size="10.00"> string</text>
</g>
<!-- Node7 -->
<g id="node7" class="node"><title>Node7</title>
<g id="a_node7"><a xlink:href="structfiftyone_degrees_results_device_detection.html" target="_top" xlink:title="Device detection specific results structure which any device detection processing results should exte...">
<polygon fill="none" stroke="black" points="601,-15 601,-45 746,-45 746,-15 601,-15"/>
<text text-anchor="start" x="609" y="-33" font-family="Helvetica,sans-Serif" font-size="10.00">fiftyoneDegreesResultsDevice</text>
<text text-anchor="middle" x="673.5" y="-22" font-family="Helvetica,sans-Serif" font-size="10.00">Detection</text>
</a>
</g>
</g>
<!-- Node7&#45;&gt;Node2 -->
<g id="edge8" class="edge"><title>Node7&#45;&gt;Node2</title>
<path fill="none" stroke="#9a32cd" stroke-dasharray="5,2" d="M740.445,-50.5953C742.385,-51.9711 744.244,-53.4374 746,-55 759.661,-67.1568 752.259,-77.9796 764,-92 789.867,-122.889 828.952,-148.613 855.314,-163.889"/>
<polygon fill="#9a32cd" stroke="#9a32cd" points="741.854,-47.3547 731.497,-45.1248 738.203,-53.327 741.854,-47.3547"/>
<text text-anchor="middle" x="779.5" y="-124" font-family="Helvetica,sans-Serif" font-size="10.00"> b</text>
</g>
<!-- Node7&#45;&gt;Node13 -->
<g id="edge17" class="edge"><title>Node7&#45;&gt;Node13</title>
<path fill="none" stroke="#9a32cd" stroke-dasharray="5,2" d="M742.739,-47.6311C769.388,-54.5165 799.629,-62.3299 825.232,-68.9451"/>
<polygon fill="#9a32cd" stroke="#9a32cd" points="743.276,-44.1549 732.718,-45.042 741.525,-50.9324 743.276,-44.1549"/>
<text text-anchor="middle" x="779.5" y="-64" font-family="Helvetica,sans-Serif" font-size="10.00"> b</text>
</g>
<!-- Node8 -->
<g id="node8" class="node"><title>Node8</title>
<g id="a_node8"><a xlink:href="structfiftyone_degrees_override_value_array.html" target="_top" xlink:title="An array of properties and values to use when getting override values.">
<polygon fill="none" stroke="black" points="376,-42 376,-72 519,-72 519,-42 376,-42"/>
<text text-anchor="start" x="384" y="-60" font-family="Helvetica,sans-Serif" font-size="10.00">fiftyoneDegreesOverrideValue</text>
<text text-anchor="middle" x="447.5" y="-49" font-family="Helvetica,sans-Serif" font-size="10.00">Array</text>
</a>
</g>
</g>
<!-- Node8&#45;&gt;Node7 -->
<g id="edge9" class="edge"><title>Node8&#45;&gt;Node7</title>
<path fill="none" stroke="#9a32cd" stroke-dasharray="5,2" d="M529.337,-46.0784C532.261,-45.7099 535.155,-45.3493 538,-45 558.405,-42.4945 580.575,-39.9494 600.918,-37.6844"/>
<polygon fill="#9a32cd" stroke="#9a32cd" points="528.797,-42.6189 519.32,-47.3568 529.683,-49.5626 528.797,-42.6189"/>
<text text-anchor="middle" x="560.5" y="-48" font-family="Helvetica,sans-Serif" font-size="10.00"> overrides</text>
</g>
<!-- Node9&#45;&gt;Node8 -->
<g id="edge10" class="edge"><title>Node9&#45;&gt;Node8</title>
<path fill="none" stroke="#9a32cd" stroke-dasharray="5,2" d="M269.129,-130.961C296.151,-117.912 337.94,-98.2491 375,-83 384.039,-79.2808 393.827,-75.5392 403.175,-72.099"/>
<polygon fill="#9a32cd" stroke="#9a32cd" points="267.347,-127.935 259.877,-135.449 270.402,-134.233 267.347,-127.935"/>
<text text-anchor="middle" x="343" y="-106" font-family="Helvetica,sans-Serif" font-size="10.00"> items</text>
</g>
<!-- Node10 -->
<g id="node10" class="node"><title>Node10</title>
<g id="a_node10"><a xlink:href="structfiftyone_degrees_results_base.html" target="_top" xlink:title="Base results structure which any processing results should extend.">
<polygon fill="none" stroke="black" points="378,-0.5 378,-19.5 517,-19.5 517,-0.5 378,-0.5"/>
<text text-anchor="middle" x="447.5" y="-7.5" font-family="Helvetica,sans-Serif" font-size="10.00">fiftyoneDegreesResultsBase</text>
</a>
</g>
</g>
<!-- Node10&#45;&gt;Node7 -->
<g id="edge12" class="edge"><title>Node10&#45;&gt;Node7</title>
<path fill="none" stroke="#9a32cd" stroke-dasharray="5,2" d="M527.154,-7.92601C545.521,-8.17747 564.98,-9.04056 583,-11 591.527,-11.9272 600.439,-13.3087 609.195,-14.9115"/>
<polygon fill="#9a32cd" stroke="#9a32cd" points="527.105,-4.42561 517.078,-7.84616 527.05,-11.4254 527.105,-4.42561"/>
<text text-anchor="middle" x="560.5" y="-14" font-family="Helvetica,sans-Serif" font-size="10.00"> b</text>
</g>
<!-- Node11 -->
<g id="node11" class="node"><title>Node11</title>
<g id="a_node11"><a xlink:href="structfiftyone_degrees_result_pattern.html" target="_top" xlink:title="Singular User&#45;Agent result returned by a Pattern process method.">
<polygon fill="none" stroke="black" points="602,-102.5 602,-121.5 745,-121.5 745,-102.5 602,-102.5"/>
<text text-anchor="middle" x="673.5" y="-109.5" font-family="Helvetica,sans-Serif" font-size="10.00">fiftyoneDegreesResultPattern</text>
</a>
</g>
</g>
<!-- Node11&#45;&gt;Node2 -->
<g id="edge14" class="edge"><title>Node11&#45;&gt;Node2</title>
<path fill="none" stroke="#9a32cd" stroke-dasharray="5,2" d="M714.274,-124.751C749.128,-135.924 799.829,-152.177 836.641,-163.978"/>
<polygon fill="#9a32cd" stroke="#9a32cd" points="715.036,-121.319 704.445,-121.599 712.899,-127.985 715.036,-121.319"/>
<text text-anchor="middle" x="779.5" y="-153" font-family="Helvetica,sans-Serif" font-size="10.00"> items</text>
</g>
<!-- Node12 -->
<g id="node12" class="node"><title>Node12</title>
<g id="a_node12"><a xlink:href="structfiftyone_degrees_result_user_agent.html" target="_top" xlink:title="Singular User&#45;Agent result returned by a device detection process method.">
<polygon fill="none" stroke="black" points="382,-93 382,-123 513,-123 513,-93 382,-93"/>
<text text-anchor="start" x="390" y="-111" font-family="Helvetica,sans-Serif" font-size="10.00">fiftyoneDegreesResultUser</text>
<text text-anchor="middle" x="447.5" y="-100" font-family="Helvetica,sans-Serif" font-size="10.00">Agent</text>
</a>
</g>
</g>
<!-- Node12&#45;&gt;Node11 -->
<g id="edge15" class="edge"><title>Node12&#45;&gt;Node11</title>
<path fill="none" stroke="#9a32cd" stroke-dasharray="5,2" d="M523.575,-109.341C548.886,-109.793 577.031,-110.295 601.978,-110.741"/>
<polygon fill="#9a32cd" stroke="#9a32cd" points="523.351,-105.836 513.29,-109.157 523.226,-112.835 523.351,-105.836"/>
<text text-anchor="middle" x="560.5" y="-114" font-family="Helvetica,sans-Serif" font-size="10.00"> b</text>
</g>
<!-- Node14 -->
<g id="node14" class="node"><title>Node14</title>
<g id="a_node14"><a xlink:href="structfiftyone_degrees_result_hash.html" target="_top" xlink:title="Singular User&#45;Agent result returned by a Hash process method.">
<polygon fill="none" stroke="black" points="606.5,-64.5 606.5,-83.5 740.5,-83.5 740.5,-64.5 606.5,-64.5"/>
<text text-anchor="middle" x="673.5" y="-71.5" font-family="Helvetica,sans-Serif" font-size="10.00">fiftyoneDegreesResultHash</text>
</a>
</g>
</g>
<!-- Node12&#45;&gt;Node14 -->
<g id="edge19" class="edge"><title>Node12&#45;&gt;Node14</title>
<path fill="none" stroke="#9a32cd" stroke-dasharray="5,2" d="M523.442,-96.6249C551.465,-92.3713 582.978,-87.5882 609.785,-83.5193"/>
<polygon fill="#9a32cd" stroke="#9a32cd" points="522.652,-93.2047 513.29,-98.1658 523.702,-100.125 522.652,-93.2047"/>
<text text-anchor="middle" x="560.5" y="-98" font-family="Helvetica,sans-Serif" font-size="10.00"> b</text>
</g>
<!-- Node13&#45;&gt;Node1 -->
<g id="edge16" class="edge"><title>Node13&#45;&gt;Node1</title>
<path fill="none" stroke="#9a32cd" stroke-dasharray="5,2" d="M941.976,-102.228C975.762,-113.132 1017.33,-126.548 1044.8,-135.415"/>
<polygon fill="#9a32cd" stroke="#9a32cd" points="942.811,-98.8194 932.219,-99.0787 940.661,-105.481 942.811,-98.8194"/>
<text text-anchor="middle" x="990.5" y="-125" font-family="Helvetica,sans-Serif" font-size="10.00"> results</text>
</g>
<!-- Node14&#45;&gt;Node13 -->
<g id="edge18" class="edge"><title>Node14&#45;&gt;Node13</title>
<path fill="none" stroke="#9a32cd" stroke-dasharray="5,2" d="M750.851,-77.6532C772.682,-78.6977 796.284,-79.827 817.443,-80.8394"/>
<polygon fill="#9a32cd" stroke="#9a32cd" points="750.785,-74.1461 740.629,-77.1641 750.45,-81.1381 750.785,-74.1461"/>
<text text-anchor="middle" x="779.5" y="-83" font-family="Helvetica,sans-Serif" font-size="10.00"> items</text>
</g>
</g>
</svg>
