<?xml version="1.0" encoding="UTF-8" standalone="no"?>
<!DOCTYPE svg PUBLIC "-//W3C//DTD SVG 1.1//EN"
 "http://www.w3.org/Graphics/SVG/1.1/DTD/svg11.dtd">
<!-- Generated by graphviz version 2.38.0 (20140413.2041)
 -->
<!-- Title: fiftyoneDegreesCollectionMemory Pages: 1 -->
<svg width="369pt" height="119pt"
 viewBox="0.00 0.00 369.00 119.00" xmlns="http://www.w3.org/2000/svg" xmlns:xlink="http://www.w3.org/1999/xlink">
<g id="graph0" class="graph" transform="scale(1 1) rotate(0) translate(4 115)">
<title>fiftyoneDegreesCollectionMemory</title>
<!-- Node1 -->
<g id="node1" class="node"><title>Node1</title>
<g id="a_node1"><a xlink:title="Type of collection where the collection is held in continuous memory.">
<polygon fill="#bfbfbf" stroke="black" points="0,-0.5 0,-30.5 126,-30.5 126,-0.5 0,-0.5"/>
<text text-anchor="start" x="8" y="-18.5" font-family="Helvetica,sans-Serif" font-size="10.00">fiftyoneDegreesCollection</text>
<text text-anchor="middle" x="63" y="-7.5" font-family="Helvetica,sans-Serif" font-size="10.00">Memory</text>
</a>
</g>
</g>
<!-- Node2 -->
<g id="node2" class="node"><title>Node2</title>
<g id="a_node2"><a xlink:href="structfiftyone_degrees_collection.html" target="_top" xlink:title="All the shared methods and fields required by file, memory and cached collections.">
<polygon fill="none" stroke="black" points="36,-85 36,-104 162,-104 162,-85 36,-85"/>
<text text-anchor="middle" x="99" y="-92" font-family="Helvetica,sans-Serif" font-size="10.00">fiftyoneDegreesCollection</text>
</a>
</g>
</g>
<!-- Node2&#45;&gt;Node1 -->
<g id="edge1" class="edge"><title>Node2&#45;&gt;Node1</title>
<path fill="none" stroke="#9a32cd" stroke-dasharray="5,2" d="M80.4335,-77.5564C75.6132,-72.4442 70.9517,-66.4268 68,-60 63.8119,-50.8814 62.6135,-39.601 62.4351,-30.8126"/>
<polygon fill="#9a32cd" stroke="#9a32cd" points="78.2888,-80.3505 87.9161,-84.7738 83.1484,-75.3123 78.2888,-80.3505"/>
<text text-anchor="middle" x="90.5" y="-52" font-family="Helvetica,sans-Serif" font-size="10.00"> collection</text>
</g>
<!-- Node2&#45;&gt;Node2 -->
<g id="edge5" class="edge"><title>Node2&#45;&gt;Node2</title>
<path fill="none" stroke="#9a32cd" stroke-dasharray="5,2" d="M172.09,-99.8969C177.012,-98.6513 180,-96.8523 180,-94.5 180,-90.8281 172.719,-88.5045 162.168,-87.5292"/>
<polygon fill="#9a32cd" stroke="#9a32cd" points="171.496,-96.4473 162.168,-101.471 172.593,-103.361 171.496,-96.4473"/>
<text text-anchor="middle" x="209.5" y="-103" font-family="Helvetica,sans-Serif" font-size="10.00"> next</text>
<text text-anchor="middle" x="209.5" y="-92" font-family="Helvetica,sans-Serif" font-size="10.00">freeCollection</text>
<text text-anchor="middle" x="209.5" y="-81" font-family="Helvetica,sans-Serif" font-size="10.00">get</text>
</g>
<!-- Node3 -->
<g id="node3" class="node"><title>Node3</title>
<g id="a_node3"><a xlink:href="structfiftyone_degrees_collection_item.html" target="_top" xlink:title="Used to store a handle to the underlying item that could be used to release the item when it&#39;s finish...">
<polygon fill="none" stroke="black" points="144.5,-6 144.5,-25 289.5,-25 289.5,-6 144.5,-6"/>
<text text-anchor="middle" x="217" y="-13" font-family="Helvetica,sans-Serif" font-size="10.00">fiftyoneDegreesCollectionItem</text>
</a>
</g>
</g>
<!-- Node2&#45;&gt;Node3 -->
<g id="edge3" class="edge"><title>Node2&#45;&gt;Node3</title>
<path fill="none" stroke="#9a32cd" stroke-dasharray="5,2" d="M109.618,-76.4663C116.034,-67.3127 124.912,-56.4168 135,-49 149.805,-38.1148 168.748,-30.2934 184.697,-25.0552"/>
<polygon fill="#9a32cd" stroke="#9a32cd" points="106.672,-74.5756 104.069,-84.8458 112.508,-78.4403 106.672,-74.5756"/>
<text text-anchor="middle" x="157.5" y="-52" font-family="Helvetica,sans-Serif" font-size="10.00"> collection</text>
</g>
<!-- Node3&#45;&gt;Node2 -->
<g id="edge2" class="edge"><title>Node3&#45;&gt;Node2</title>
<path fill="none" stroke="#9a32cd" stroke-dasharray="5,2" d="M206.903,-34.0561C201.131,-42.8228 193.209,-53.0193 184,-60 168.831,-71.4981 149.207,-79.5776 132.636,-84.9169"/>
<polygon fill="#9a32cd" stroke="#9a32cd" points="210.017,-35.6744 212.282,-25.3244 204.057,-32.003 210.017,-35.6744"/>
<text text-anchor="middle" x="212.5" y="-52" font-family="Helvetica,sans-Serif" font-size="10.00"> release</text>
</g>
<!-- Node4 -->
<g id="node4" class="node"><title>Node4</title>
<g id="a_node4"><a xlink:href="structfiftyone_degrees_data.html" target="_top" xlink:title="Data structure used for reusing memory which may have been allocated in a previous operation.">
<polygon fill="none" stroke="black" points="257,-85 257,-104 361,-104 361,-85 257,-85"/>
<text text-anchor="middle" x="309" y="-92" font-family="Helvetica,sans-Serif" font-size="10.00">fiftyoneDegreesData</text>
</a>
</g>
</g>
<!-- Node4&#45;&gt;Node3 -->
<g id="edge4" class="edge"><title>Node4&#45;&gt;Node3</title>
<path fill="none" stroke="#9a32cd" stroke-dasharray="5,2" d="M291.122,-78.537C272.103,-62.6185 242.675,-37.989 227.243,-25.0728"/>
<polygon fill="#9a32cd" stroke="#9a32cd" points="288.888,-81.2312 298.803,-84.9655 293.381,-75.8632 288.888,-81.2312"/>
<text text-anchor="middle" x="280" y="-52" font-family="Helvetica,sans-Serif" font-size="10.00"> data</text>
</g>
</g>
</svg>
