<?xml version="1.0" encoding="UTF-8" standalone="no"?>
<!DOCTYPE svg PUBLIC "-//W3C//DTD SVG 1.1//EN"
 "http://www.w3.org/Graphics/SVG/1.1/DTD/svg11.dtd">
<!-- Generated by graphviz version 2.38.0 (20140413.2041)
 -->
<!-- Title: fiftyoneDegreesOverrideProperty Pages: 1 -->
<svg width="387pt" height="242pt"
 viewBox="0.00 0.00 387.00 242.00" xmlns="http://www.w3.org/2000/svg" xmlns:xlink="http://www.w3.org/1999/xlink">
<g id="graph0" class="graph" transform="scale(1 1) rotate(0) translate(4 238)">
<title>fiftyoneDegreesOverrideProperty</title>
<!-- Node1 -->
<g id="node1" class="node"><title>Node1</title>
<g id="a_node1"><a xlink:title="Index and pointer to a property which can be overridden.">
<polygon fill="#bfbfbf" stroke="black" points="1.5,-0.5 1.5,-19.5 156.5,-19.5 156.5,-0.5 1.5,-0.5"/>
<text text-anchor="middle" x="79" y="-7.5" font-family="Helvetica,sans-Serif" font-size="10.00">fiftyoneDegreesOverrideProperty</text>
</a>
</g>
</g>
<!-- Node2 -->
<g id="node2" class="node"><title>Node2</title>
<g id="a_node2"><a xlink:href="structfiftyone_degrees_property_available.html" target="_top" xlink:title="Used to access the property item quickly without the need to search.">
<polygon fill="none" stroke="black" points="0,-74 0,-93 158,-93 158,-74 0,-74"/>
<text text-anchor="middle" x="79" y="-81" font-family="Helvetica,sans-Serif" font-size="10.00">fiftyoneDegreesPropertyAvailable</text>
</a>
</g>
</g>
<!-- Node2&#45;&gt;Node1 -->
<g id="edge1" class="edge"><title>Node2&#45;&gt;Node1</title>
<path fill="none" stroke="#9a32cd" stroke-dasharray="5,2" d="M79,-63.5936C79,-49.433 79,-30.7019 79,-19.839"/>
<polygon fill="#9a32cd" stroke="#9a32cd" points="75.5001,-63.7327 79,-73.7327 82.5001,-63.7327 75.5001,-63.7327"/>
<text text-anchor="middle" x="99" y="-41" font-family="Helvetica,sans-Serif" font-size="10.00"> available</text>
</g>
<!-- Node3 -->
<g id="node3" class="node"><title>Node3</title>
<g id="a_node3"><a xlink:href="structfiftyone_degrees_collection_item.html" target="_top" xlink:title="Used to store a handle to the underlying item that could be used to release the item when it&#39;s finish...">
<polygon fill="none" stroke="black" points="108.5,-147.5 108.5,-166.5 253.5,-166.5 253.5,-147.5 108.5,-147.5"/>
<text text-anchor="middle" x="181" y="-154.5" font-family="Helvetica,sans-Serif" font-size="10.00">fiftyoneDegreesCollectionItem</text>
</a>
</g>
</g>
<!-- Node3&#45;&gt;Node2 -->
<g id="edge2" class="edge"><title>Node3&#45;&gt;Node2</title>
<path fill="none" stroke="#9a32cd" stroke-dasharray="5,2" d="M160.048,-141.313C139.327,-126.788 108.319,-105.052 91.2909,-93.1157"/>
<polygon fill="#9a32cd" stroke="#9a32cd" points="158.295,-144.359 168.493,-147.233 162.313,-138.627 158.295,-144.359"/>
<text text-anchor="middle" x="157" y="-121" font-family="Helvetica,sans-Serif" font-size="10.00"> name</text>
</g>
<!-- Node4 -->
<g id="node4" class="node"><title>Node4</title>
<g id="a_node4"><a xlink:href="structfiftyone_degrees_collection.html" target="_top" xlink:title="All the shared methods and fields required by file, memory and cached collections.">
<polygon fill="none" stroke="black" points="176,-74 176,-93 302,-93 302,-74 176,-74"/>
<text text-anchor="middle" x="239" y="-81" font-family="Helvetica,sans-Serif" font-size="10.00">fiftyoneDegreesCollection</text>
</a>
</g>
</g>
<!-- Node3&#45;&gt;Node4 -->
<g id="edge4" class="edge"><title>Node3&#45;&gt;Node4</title>
<path fill="none" stroke="#9a32cd" stroke-dasharray="5,2" d="M175.26,-137.198C174.351,-130.731 174.632,-123.692 178,-118 185.014,-106.146 197.878,-98.2062 209.99,-93.0454"/>
<polygon fill="#9a32cd" stroke="#9a32cd" points="171.911,-138.25 177.578,-147.202 178.73,-136.67 171.911,-138.25"/>
<text text-anchor="middle" x="195.5" y="-121" font-family="Helvetica,sans-Serif" font-size="10.00"> release</text>
</g>
<!-- Node4&#45;&gt;Node3 -->
<g id="edge3" class="edge"><title>Node4&#45;&gt;Node3</title>
<path fill="none" stroke="#9a32cd" stroke-dasharray="5,2" d="M232.38,-102.529C228.682,-111.109 223.499,-121.177 217,-129 211.009,-136.211 202.725,-142.594 195.613,-147.342"/>
<polygon fill="#9a32cd" stroke="#9a32cd" points="235.706,-103.638 236.144,-93.0526 229.2,-101.054 235.706,-103.638"/>
<text text-anchor="middle" x="246.5" y="-121" font-family="Helvetica,sans-Serif" font-size="10.00"> collection</text>
</g>
<!-- Node4&#45;&gt;Node4 -->
<g id="edge5" class="edge"><title>Node4&#45;&gt;Node4</title>
<path fill="none" stroke="#9a32cd" stroke-dasharray="5,2" d="M312.09,-88.8969C317.012,-87.6513 320,-85.8523 320,-83.5 320,-79.8281 312.719,-77.5045 302.168,-76.5292"/>
<polygon fill="#9a32cd" stroke="#9a32cd" points="311.496,-85.4473 302.168,-90.4708 312.593,-92.3608 311.496,-85.4473"/>
<text text-anchor="middle" x="349.5" y="-92" font-family="Helvetica,sans-Serif" font-size="10.00"> next</text>
<text text-anchor="middle" x="349.5" y="-81" font-family="Helvetica,sans-Serif" font-size="10.00">freeCollection</text>
<text text-anchor="middle" x="349.5" y="-70" font-family="Helvetica,sans-Serif" font-size="10.00">get</text>
</g>
<!-- Node5 -->
<g id="node5" class="node"><title>Node5</title>
<g id="a_node5"><a xlink:href="structfiftyone_degrees_data.html" target="_top" xlink:title="Data structure used for reusing memory which may have been allocated in a previous operation.">
<polygon fill="none" stroke="black" points="129,-214.5 129,-233.5 233,-233.5 233,-214.5 129,-214.5"/>
<text text-anchor="middle" x="181" y="-221.5" font-family="Helvetica,sans-Serif" font-size="10.00">fiftyoneDegreesData</text>
</a>
</g>
</g>
<!-- Node5&#45;&gt;Node3 -->
<g id="edge6" class="edge"><title>Node5&#45;&gt;Node3</title>
<path fill="none" stroke="#9a32cd" stroke-dasharray="5,2" d="M181,-204.037C181,-191.67 181,-176.12 181,-166.627"/>
<polygon fill="#9a32cd" stroke="#9a32cd" points="177.5,-204.234 181,-214.234 184.5,-204.234 177.5,-204.234"/>
<text text-anchor="middle" x="192" y="-188" font-family="Helvetica,sans-Serif" font-size="10.00"> data</text>
</g>
</g>
</svg>
