<?xml version="1.0" encoding="UTF-8" standalone="no"?>
<!DOCTYPE svg PUBLIC "-//W3C//DTD SVG 1.1//EN"
 "http://www.w3.org/Graphics/SVG/1.1/DTD/svg11.dtd">
<!-- Generated by graphviz version 2.38.0 (20140413.2041)
 -->
<!-- Title: fiftyoneDegreesTreeNode Pages: 1 -->
<svg width="179pt" height="119pt"
 viewBox="0.00 0.00 179.00 119.00" xmlns="http://www.w3.org/2000/svg" xmlns:xlink="http://www.w3.org/1999/xlink">
<g id="graph0" class="graph" transform="scale(1 1) rotate(0) translate(4 115)">
<title>fiftyoneDegreesTreeNode</title>
<!-- Node1 -->
<g id="node1" class="node"><title>Node1</title>
<g id="a_node1"><a xlink:title="Node structure defining a single node in the tree.">
<polygon fill="#bfbfbf" stroke="black" points="0,-85 0,-104 125,-104 125,-85 0,-85"/>
<text text-anchor="middle" x="62.5" y="-92" font-family="Helvetica,sans-Serif" font-size="10.00">fiftyoneDegreesTreeNode</text>
</a>
</g>
</g>
<!-- Node1&#45;&gt;Node1 -->
<g id="edge1" class="edge"><title>Node1&#45;&gt;Node1</title>
<path fill="none" stroke="#9a32cd" stroke-dasharray="5,2" d="M135.139,-100.437C140.03,-99.0664 143,-97.0875 143,-94.5 143,-90.4609 135.764,-87.905 125.278,-86.8321"/>
<polygon fill="#9a32cd" stroke="#9a32cd" points="134.522,-96.9913 125.278,-102.168 135.733,-103.886 134.522,-96.9913"/>
<text text-anchor="middle" x="157" y="-103" font-family="Helvetica,sans-Serif" font-size="10.00"> right</text>
<text text-anchor="middle" x="157" y="-92" font-family="Helvetica,sans-Serif" font-size="10.00">left</text>
<text text-anchor="middle" x="157" y="-81" font-family="Helvetica,sans-Serif" font-size="10.00">parent</text>
</g>
<!-- Node2 -->
<g id="node2" class="node"><title>Node2</title>
<g id="a_node2"><a xlink:href="structfiftyone_degrees_tree_root.html" target="_top" xlink:title="Tree root structure defining the beginning of the tree.">
<polygon fill="none" stroke="black" points="1.5,-0.5 1.5,-19.5 123.5,-19.5 123.5,-0.5 1.5,-0.5"/>
<text text-anchor="middle" x="62.5" y="-7.5" font-family="Helvetica,sans-Serif" font-size="10.00">fiftyoneDegreesTreeRoot</text>
</a>
</g>
</g>
<!-- Node1&#45;&gt;Node2 -->
<g id="edge3" class="edge"><title>Node1&#45;&gt;Node2</title>
<path fill="none" stroke="#9a32cd" stroke-dasharray="5,2" d="M45.4668,-77.6957C41.0306,-72.5326 36.8416,-66.4529 34.5,-60 31.1647,-50.8087 30.6762,-46.9991 34.5,-38 37.6162,-30.666 43.8087,-24.3566 49.5793,-19.6853"/>
<polygon fill="#9a32cd" stroke="#9a32cd" points="42.9768,-80.1561 52.4116,-84.9763 48.042,-75.3245 42.9768,-80.1561"/>
<text text-anchor="middle" x="48.5" y="-52" font-family="Helvetica,sans-Serif" font-size="10.00"> root</text>
<text text-anchor="middle" x="48.5" y="-41" font-family="Helvetica,sans-Serif" font-size="10.00">empty</text>
</g>
<!-- Node2&#45;&gt;Node1 -->
<g id="edge2" class="edge"><title>Node2&#45;&gt;Node1</title>
<path fill="none" stroke="#9a32cd" stroke-dasharray="5,2" d="M65.69,-30.1361C66.0253,-32.7713 66.312,-35.448 66.5,-38 67.2184,-47.7514 67.0807,-50.2395 66.5,-60 65.9922,-68.5365 64.7625,-78.2322 63.7996,-84.9883"/>
<polygon fill="#9a32cd" stroke="#9a32cd" points="69.109,-29.3341 64.1658,-19.9632 62.1863,-30.3714 69.109,-29.3341"/>
<text text-anchor="middle" x="76.5" y="-46.5" font-family="Helvetica,sans-Serif" font-size="10.00"> root</text>
</g>
</g>
</svg>
