<?xml version="1.0" encoding="UTF-8" standalone="no"?>
<!DOCTYPE svg PUBLIC "-//W3C//DTD SVG 1.1//EN"
 "http://www.w3.org/Graphics/SVG/1.1/DTD/svg11.dtd">
<!-- Generated by graphviz version 2.38.0 (20140413.2041)
 -->
<!-- Title: fiftyoneDegreesPoolItem Pages: 1 -->
<svg width="274pt" height="95pt"
 viewBox="0.00 0.00 273.50 95.00" xmlns="http://www.w3.org/2000/svg" xmlns:xlink="http://www.w3.org/1999/xlink">
<g id="graph0" class="graph" transform="scale(1 1) rotate(0) translate(4 91)">
<title>fiftyoneDegreesPoolItem</title>
<!-- Node1 -->
<g id="node1" class="node"><title>Node1</title>
<g id="a_node1"><a xlink:title="Pool item node in the stack of items.">
<polygon fill="#bfbfbf" stroke="black" points="0,-67.5 0,-86.5 122,-86.5 122,-67.5 0,-67.5"/>
<text text-anchor="middle" x="61" y="-74.5" font-family="Helvetica,sans-Serif" font-size="10.00">fiftyoneDegreesPoolItem</text>
</a>
</g>
</g>
<!-- Node2 -->
<g id="node2" class="node"><title>Node2</title>
<g id="a_node2"><a xlink:href="structfiftyone_degrees_pool.html" target="_top" xlink:title="Pool of resources stored as items in a stack.">
<polygon fill="none" stroke="black" points="60.5,-0.5 60.5,-19.5 163.5,-19.5 163.5,-0.5 60.5,-0.5"/>
<text text-anchor="middle" x="112" y="-7.5" font-family="Helvetica,sans-Serif" font-size="10.00">fiftyoneDegreesPool</text>
</a>
</g>
</g>
<!-- Node1&#45;&gt;Node2 -->
<g id="edge4" class="edge"><title>Node1&#45;&gt;Node2</title>
<path fill="none" stroke="#9a32cd" stroke-dasharray="5,2" d="M55.1741,-57.3729C54.2106,-50.8307 54.4784,-43.698 58,-38 63.235,-29.5297 72.021,-23.6277 81.0016,-19.5544"/>
<polygon fill="#9a32cd" stroke="#9a32cd" points="51.8604,-58.5629 57.601,-67.4677 58.6665,-56.9266 51.8604,-58.5629"/>
<text text-anchor="middle" x="72" y="-41" font-family="Helvetica,sans-Serif" font-size="10.00"> stack</text>
</g>
<!-- Node2&#45;&gt;Node1 -->
<g id="edge1" class="edge"><title>Node2&#45;&gt;Node1</title>
<path fill="none" stroke="#9a32cd" stroke-dasharray="5,2" d="M103.255,-28.5688C99.57,-35.2502 94.9801,-42.752 90,-49 84.5976,-55.7779 77.4879,-62.4246 71.6604,-67.4272"/>
<polygon fill="#9a32cd" stroke="#9a32cd" points="106.408,-30.091 107.945,-19.6081 100.206,-26.8447 106.408,-30.091"/>
<text text-anchor="middle" x="109" y="-41" font-family="Helvetica,sans-Serif" font-size="10.00"> pool</text>
</g>
<!-- Node2&#45;&gt;Node2 -->
<g id="edge2" class="edge"><title>Node2&#45;&gt;Node2</title>
<path fill="none" stroke="#9a32cd" stroke-dasharray="5,2" d="M173.456,-14.5916C178.422,-13.5925 181.5,-12.062 181.5,-10 181.5,-6.78125 174,-4.85754 163.525,-4.22888"/>
<polygon fill="#9a32cd" stroke="#9a32cd" points="173.043,-11.1159 163.525,-15.7711 173.868,-18.0671 173.043,-11.1159"/>
<text text-anchor="middle" x="212" y="-7.5" font-family="Helvetica,sans-Serif" font-size="10.00"> resourceFree</text>
</g>
<!-- Node3 -->
<g id="node3" class="node"><title>Node3</title>
<g id="a_node3"><a xlink:href="unionfiftyone_degrees_pool_head.html" target="_top" xlink:title="The head of the stack used for pop and push operations.">
<polygon fill="none" stroke="black" points="140.5,-67.5 140.5,-86.5 265.5,-86.5 265.5,-67.5 140.5,-67.5"/>
<text text-anchor="middle" x="203" y="-74.5" font-family="Helvetica,sans-Serif" font-size="10.00">fiftyoneDegreesPoolHead</text>
</a>
</g>
</g>
<!-- Node3&#45;&gt;Node2 -->
<g id="edge3" class="edge"><title>Node3&#45;&gt;Node2</title>
<path fill="none" stroke="#9a32cd" stroke-dasharray="5,2" d="M182.587,-61.4196C164.597,-48.5695 138.995,-30.2821 124.078,-19.6273"/>
<polygon fill="#9a32cd" stroke="#9a32cd" points="180.556,-64.2695 190.727,-67.2338 184.624,-58.5733 180.556,-64.2695"/>
<text text-anchor="middle" x="175.5" y="-41" font-family="Helvetica,sans-Serif" font-size="10.00"> head</text>
</g>
</g>
</svg>
