<?xml version="1.0" encoding="UTF-8" standalone="no"?>
<!DOCTYPE svg PUBLIC "-//W3C//DTD SVG 1.1//EN"
 "http://www.w3.org/Graphics/SVG/1.1/DTD/svg11.dtd">
<!-- Generated by graphviz version 2.38.0 (20140413.2041)
 -->
<!-- Title: fiftyoneDegreesList Pages: 1 -->
<svg width="329pt" height="175pt"
 viewBox="0.00 0.00 328.50 175.00" xmlns="http://www.w3.org/2000/svg" xmlns:xlink="http://www.w3.org/1999/xlink">
<g id="graph0" class="graph" transform="scale(1 1) rotate(0) translate(4 171)">
<title>fiftyoneDegreesList</title>
<!-- Node1 -->
<g id="node1" class="node"><title>Node1</title>
<g id="a_node1"><a xlink:title="List structure which contains a list of collection items.">
<polygon fill="#bfbfbf" stroke="black" points="0,-7 0,-26 99,-26 99,-7 0,-7"/>
<text text-anchor="middle" x="49.5" y="-14" font-family="Helvetica,sans-Serif" font-size="10.00">fiftyoneDegreesList</text>
</a>
</g>
</g>
<!-- Node2 -->
<g id="node2" class="node"><title>Node2</title>
<g id="a_node2"><a xlink:href="structfiftyone_degrees_collection_item.html" target="_top" xlink:title="Used to store a handle to the underlying item that could be used to release the item when it&#39;s finish...">
<polygon fill="none" stroke="black" points="50,-80.5 50,-99.5 195,-99.5 195,-80.5 50,-80.5"/>
<text text-anchor="middle" x="122.5" y="-87.5" font-family="Helvetica,sans-Serif" font-size="10.00">fiftyoneDegreesCollectionItem</text>
</a>
</g>
</g>
<!-- Node2&#45;&gt;Node1 -->
<g id="edge1" class="edge"><title>Node2&#45;&gt;Node1</title>
<path fill="none" stroke="#9a32cd" stroke-dasharray="5,2" d="M99.8493,-74.5132C94.5803,-70.7158 89.1552,-66.4338 84.5,-62 72.8276,-50.8827 61.7464,-35.7466 55.2894,-26.3034"/>
<polygon fill="#9a32cd" stroke="#9a32cd" points="98.1806,-77.613 108.406,-80.3877 102.143,-71.8422 98.1806,-77.613"/>
<text text-anchor="middle" x="98.5" y="-54" font-family="Helvetica,sans-Serif" font-size="10.00"> items</text>
</g>
<!-- Node3 -->
<g id="node3" class="node"><title>Node3</title>
<g id="a_node3"><a xlink:href="structfiftyone_degrees_collection.html" target="_top" xlink:title="All the shared methods and fields required by file, memory and cached collections.">
<polygon fill="none" stroke="black" points="117.5,-7 117.5,-26 243.5,-26 243.5,-7 117.5,-7"/>
<text text-anchor="middle" x="180.5" y="-14" font-family="Helvetica,sans-Serif" font-size="10.00">fiftyoneDegreesCollection</text>
</a>
</g>
</g>
<!-- Node2&#45;&gt;Node3 -->
<g id="edge3" class="edge"><title>Node2&#45;&gt;Node3</title>
<path fill="none" stroke="#9a32cd" stroke-dasharray="5,2" d="M116.76,-70.1977C115.851,-63.7308 116.132,-56.6919 119.5,-51 126.514,-39.1459 139.378,-31.2062 151.49,-26.0454"/>
<polygon fill="#9a32cd" stroke="#9a32cd" points="113.411,-71.2502 119.078,-80.2021 120.23,-69.6701 113.411,-71.2502"/>
<text text-anchor="middle" x="137" y="-54" font-family="Helvetica,sans-Serif" font-size="10.00"> release</text>
</g>
<!-- Node3&#45;&gt;Node2 -->
<g id="edge2" class="edge"><title>Node3&#45;&gt;Node2</title>
<path fill="none" stroke="#9a32cd" stroke-dasharray="5,2" d="M173.88,-35.5295C170.182,-44.1092 164.999,-54.1766 158.5,-62 152.509,-69.2112 144.225,-75.5945 137.113,-80.3416"/>
<polygon fill="#9a32cd" stroke="#9a32cd" points="177.206,-36.6384 177.644,-26.0526 170.7,-34.0544 177.206,-36.6384"/>
<text text-anchor="middle" x="189" y="-54" font-family="Helvetica,sans-Serif" font-size="10.00"> collection</text>
</g>
<!-- Node3&#45;&gt;Node3 -->
<g id="edge4" class="edge"><title>Node3&#45;&gt;Node3</title>
<path fill="none" stroke="#9a32cd" stroke-dasharray="5,2" d="M253.59,-21.8969C258.512,-20.6513 261.5,-18.8523 261.5,-16.5 261.5,-12.8281 254.219,-10.5045 243.668,-9.52917"/>
<polygon fill="#9a32cd" stroke="#9a32cd" points="252.996,-18.4473 243.668,-23.4708 254.093,-25.3608 252.996,-18.4473"/>
<text text-anchor="middle" x="291" y="-25" font-family="Helvetica,sans-Serif" font-size="10.00"> next</text>
<text text-anchor="middle" x="291" y="-14" font-family="Helvetica,sans-Serif" font-size="10.00">freeCollection</text>
<text text-anchor="middle" x="291" y="-3" font-family="Helvetica,sans-Serif" font-size="10.00">get</text>
</g>
<!-- Node4 -->
<g id="node4" class="node"><title>Node4</title>
<g id="a_node4"><a xlink:href="structfiftyone_degrees_data.html" target="_top" xlink:title="Data structure used for reusing memory which may have been allocated in a previous operation.">
<polygon fill="none" stroke="black" points="70.5,-147.5 70.5,-166.5 174.5,-166.5 174.5,-147.5 70.5,-147.5"/>
<text text-anchor="middle" x="122.5" y="-154.5" font-family="Helvetica,sans-Serif" font-size="10.00">fiftyoneDegreesData</text>
</a>
</g>
</g>
<!-- Node4&#45;&gt;Node2 -->
<g id="edge5" class="edge"><title>Node4&#45;&gt;Node2</title>
<path fill="none" stroke="#9a32cd" stroke-dasharray="5,2" d="M122.5,-137.037C122.5,-124.67 122.5,-109.12 122.5,-99.6273"/>
<polygon fill="#9a32cd" stroke="#9a32cd" points="119,-137.234 122.5,-147.234 126,-137.234 119,-137.234"/>
<text text-anchor="middle" x="133.5" y="-121" font-family="Helvetica,sans-Serif" font-size="10.00"> data</text>
</g>
</g>
</svg>
