<?xml version="1.0" encoding="UTF-8" standalone="no"?>
<!DOCTYPE svg PUBLIC "-//W3C//DTD SVG 1.1//EN"
 "http://www.w3.org/Graphics/SVG/1.1/DTD/svg11.dtd">
<!-- Generated by graphviz version 2.38.0 (20140413.2041)
 -->
<!-- Title: fiftyoneDegreesResultPatternArray Pages: 1 -->
<svg width="964pt" height="242pt"
 viewBox="0.00 0.00 964.00 241.50" xmlns="http://www.w3.org/2000/svg" xmlns:xlink="http://www.w3.org/1999/xlink">
<g id="graph0" class="graph" transform="scale(1 1) rotate(0) translate(4 237.5)">
<title>fiftyoneDegreesResultPatternArray</title>
<!-- Node1 -->
<g id="node1" class="node"><title>Node1</title>
<g id="a_node1"><a xlink:title="Array of items of type fiftyoneDegreesResultPattern used to easily access and track the size of the a...">
<polygon fill="#bfbfbf" stroke="black" points="813,-101.5 813,-131.5 956,-131.5 956,-101.5 813,-101.5"/>
<text text-anchor="start" x="821" y="-119.5" font-family="Helvetica,sans-Serif" font-size="10.00">fiftyoneDegreesResultPattern</text>
<text text-anchor="middle" x="884.5" y="-108.5" font-family="Helvetica,sans-Serif" font-size="10.00">Array</text>
</a>
</g>
</g>
<!-- Node2 -->
<g id="node2" class="node"><title>Node2</title>
<g id="a_node2"><a xlink:href="structfiftyone_degrees_list.html" target="_top" xlink:title="List structure which contains a list of collection items.">
<polygon fill="none" stroke="black" points="624,-186 624,-205 723,-205 723,-186 624,-186"/>
<text text-anchor="middle" x="673.5" y="-193" font-family="Helvetica,sans-Serif" font-size="10.00">fiftyoneDegreesList</text>
</a>
</g>
</g>
<!-- Node2&#45;&gt;Node1 -->
<g id="edge1" class="edge"><title>Node2&#45;&gt;Node1</title>
<path fill="none" stroke="#9a32cd" stroke-dasharray="5,2" d="M724.653,-183.208C731.87,-181.14 739.163,-178.885 746,-176.5 783.503,-163.419 825.119,-144.631 852.638,-131.578"/>
<polygon fill="#9a32cd" stroke="#9a32cd" points="723.613,-179.865 714.909,-185.906 725.481,-186.611 723.613,-179.865"/>
<text text-anchor="middle" x="779.5" y="-172.5" font-family="Helvetica,sans-Serif" font-size="10.00"> values</text>
</g>
<!-- Node3 -->
<g id="node3" class="node"><title>Node3</title>
<g id="a_node3"><a xlink:href="structfiftyone_degrees_collection_item.html" target="_top" xlink:title="Used to store a handle to the underlying item that could be used to release the item when it&#39;s finish...">
<polygon fill="none" stroke="black" points="375,-152 375,-171 520,-171 520,-152 375,-152"/>
<text text-anchor="middle" x="447.5" y="-159" font-family="Helvetica,sans-Serif" font-size="10.00">fiftyoneDegreesCollectionItem</text>
</a>
</g>
</g>
<!-- Node3&#45;&gt;Node1 -->
<g id="edge12" class="edge"><title>Node3&#45;&gt;Node1</title>
<path fill="none" stroke="#9a32cd" stroke-dasharray="5,2" d="M477.556,-175.233C531.288,-198.752 649.5,-241.695 746,-214.5 798.198,-199.79 846.761,-155.162 869.682,-131.539"/>
<polygon fill="#9a32cd" stroke="#9a32cd" points="478.851,-171.978 468.294,-171.089 475.992,-178.368 478.851,-171.978"/>
<text text-anchor="middle" x="673.5" y="-225.5" font-family="Helvetica,sans-Serif" font-size="10.00"> propertyItem</text>
</g>
<!-- Node3&#45;&gt;Node2 -->
<g id="edge2" class="edge"><title>Node3&#45;&gt;Node2</title>
<path fill="none" stroke="#9a32cd" stroke-dasharray="5,2" d="M521.408,-172.566C554.921,-177.653 593.774,-183.551 623.689,-188.091"/>
<polygon fill="#9a32cd" stroke="#9a32cd" points="521.606,-169.056 511.194,-171.016 520.556,-175.977 521.606,-169.056"/>
<text text-anchor="middle" x="560.5" y="-185.5" font-family="Helvetica,sans-Serif" font-size="10.00"> items</text>
</g>
<!-- Node4 -->
<g id="node4" class="node"><title>Node4</title>
<g id="a_node4"><a xlink:href="structfiftyone_degrees_collection.html" target="_top" xlink:title="All the shared methods and fields required by file, memory and cached collections.">
<polygon fill="none" stroke="black" points="610.5,-97 610.5,-116 736.5,-116 736.5,-97 610.5,-97"/>
<text text-anchor="middle" x="673.5" y="-104" font-family="Helvetica,sans-Serif" font-size="10.00">fiftyoneDegreesCollection</text>
</a>
</g>
</g>
<!-- Node3&#45;&gt;Node4 -->
<g id="edge4" class="edge"><title>Node3&#45;&gt;Node4</title>
<path fill="none" stroke="#9a32cd" stroke-dasharray="5,2" d="M530.421,-150.664C547.905,-147.639 566.169,-143.936 583,-139.5 606.38,-133.338 632.203,-123.471 650.077,-116.129"/>
<polygon fill="#9a32cd" stroke="#9a32cd" points="529.52,-147.266 520.234,-152.367 530.674,-154.17 529.52,-147.266"/>
<text text-anchor="middle" x="560.5" y="-152.5" font-family="Helvetica,sans-Serif" font-size="10.00"> release</text>
</g>
<!-- Node4&#45;&gt;Node3 -->
<g id="edge3" class="edge"><title>Node4&#45;&gt;Node3</title>
<path fill="none" stroke="#9a32cd" stroke-dasharray="5,2" d="M600.248,-115.716C579.945,-119.008 557.964,-123.238 538,-128.5 514.62,-134.662 488.797,-144.529 470.923,-151.871"/>
<polygon fill="#9a32cd" stroke="#9a32cd" points="601.04,-119.135 610.377,-114.128 599.956,-112.22 601.04,-119.135"/>
<text text-anchor="middle" x="560.5" y="-131.5" font-family="Helvetica,sans-Serif" font-size="10.00"> collection</text>
</g>
<!-- Node4&#45;&gt;Node4 -->
<g id="edge5" class="edge"><title>Node4&#45;&gt;Node4</title>
<path fill="none" stroke="#9a32cd" stroke-dasharray="5,2" d="M653.871,-125.9C655.182,-130.815 661.725,-134.5 673.5,-134.5 692.34,-134.5 697.786,-125.065 689.838,-116.257"/>
<polygon fill="#9a32cd" stroke="#9a32cd" points="657.245,-126.852 657.162,-116.257 650.62,-124.591 657.245,-126.852"/>
<text text-anchor="middle" x="673.5" y="-159.5" font-family="Helvetica,sans-Serif" font-size="10.00"> next</text>
<text text-anchor="middle" x="673.5" y="-148.5" font-family="Helvetica,sans-Serif" font-size="10.00">freeCollection</text>
<text text-anchor="middle" x="673.5" y="-137.5" font-family="Helvetica,sans-Serif" font-size="10.00">get</text>
</g>
<!-- Node5 -->
<g id="node5" class="node"><title>Node5</title>
<g id="a_node5"><a xlink:href="structfiftyone_degrees_data.html" target="_top" xlink:title="Data structure used for reusing memory which may have been allocated in a previous operation.">
<polygon fill="none" stroke="black" points="0,-131 0,-150 104,-150 104,-131 0,-131"/>
<text text-anchor="middle" x="52" y="-138" font-family="Helvetica,sans-Serif" font-size="10.00">fiftyoneDegreesData</text>
</a>
</g>
</g>
<!-- Node5&#45;&gt;Node3 -->
<g id="edge6" class="edge"><title>Node5&#45;&gt;Node3</title>
<path fill="none" stroke="#9a32cd" stroke-dasharray="5,2" d="M114.323,-144.073C116.916,-144.218 119.484,-144.361 122,-144.5 209.027,-149.302 309.203,-154.5 374.958,-157.867"/>
<polygon fill="#9a32cd" stroke="#9a32cd" points="114.425,-140.573 104.243,-143.502 114.029,-147.562 114.425,-140.573"/>
<text text-anchor="middle" x="239.5" y="-157.5" font-family="Helvetica,sans-Serif" font-size="10.00"> data</text>
</g>
<!-- Node8 -->
<g id="node8" class="node"><title>Node8</title>
<g id="a_node8"><a xlink:href="structfiftyone_degrees_override_value.html" target="_top" xlink:title="String value which should override the value for the property indicated by the required property inde...">
<polygon fill="none" stroke="black" points="168,-102 168,-121 311,-121 311,-102 168,-102"/>
<text text-anchor="middle" x="239.5" y="-109" font-family="Helvetica,sans-Serif" font-size="10.00">fiftyoneDegreesOverrideValue</text>
</a>
</g>
</g>
<!-- Node5&#45;&gt;Node8 -->
<g id="edge10" class="edge"><title>Node5&#45;&gt;Node8</title>
<path fill="none" stroke="#9a32cd" stroke-dasharray="5,2" d="M114.278,-130.92C134.635,-127.738 157.285,-124.197 177.612,-121.019"/>
<polygon fill="#9a32cd" stroke="#9a32cd" points="113.519,-127.496 104.18,-132.499 114.6,-134.412 113.519,-127.496"/>
<text text-anchor="middle" x="136" y="-132.5" font-family="Helvetica,sans-Serif" font-size="10.00"> string</text>
</g>
<!-- Node6 -->
<g id="node6" class="node"><title>Node6</title>
<g id="a_node6"><a xlink:href="structfiftyone_degrees_results_device_detection.html" target="_top" xlink:title="Device detection specific results structure which any device detection processing results should exte...">
<polygon fill="none" stroke="black" points="601,-47.5 601,-77.5 746,-77.5 746,-47.5 601,-47.5"/>
<text text-anchor="start" x="609" y="-65.5" font-family="Helvetica,sans-Serif" font-size="10.00">fiftyoneDegreesResultsDevice</text>
<text text-anchor="middle" x="673.5" y="-54.5" font-family="Helvetica,sans-Serif" font-size="10.00">Detection</text>
</a>
</g>
</g>
<!-- Node6&#45;&gt;Node1 -->
<g id="edge7" class="edge"><title>Node6&#45;&gt;Node1</title>
<path fill="none" stroke="#9a32cd" stroke-dasharray="5,2" d="M742.739,-80.1311C769.388,-87.0165 799.629,-94.8299 825.232,-101.445"/>
<polygon fill="#9a32cd" stroke="#9a32cd" points="743.276,-76.6549 732.718,-77.542 741.525,-83.4324 743.276,-76.6549"/>
<text text-anchor="middle" x="779.5" y="-96.5" font-family="Helvetica,sans-Serif" font-size="10.00"> b</text>
</g>
<!-- Node7 -->
<g id="node7" class="node"><title>Node7</title>
<g id="a_node7"><a xlink:href="structfiftyone_degrees_override_value_array.html" target="_top" xlink:title="An array of properties and values to use when getting override values.">
<polygon fill="none" stroke="black" points="376,-89.5 376,-119.5 519,-119.5 519,-89.5 376,-89.5"/>
<text text-anchor="start" x="384" y="-107.5" font-family="Helvetica,sans-Serif" font-size="10.00">fiftyoneDegreesOverrideValue</text>
<text text-anchor="middle" x="447.5" y="-96.5" font-family="Helvetica,sans-Serif" font-size="10.00">Array</text>
</a>
</g>
</g>
<!-- Node7&#45;&gt;Node6 -->
<g id="edge8" class="edge"><title>Node7&#45;&gt;Node6</title>
<path fill="none" stroke="#9a32cd" stroke-dasharray="5,2" d="M528.979,-89.4101C552.425,-85.0141 577.876,-80.2419 600.746,-75.9539"/>
<polygon fill="#9a32cd" stroke="#9a32cd" points="528.251,-85.9856 519.068,-91.2686 529.541,-92.8657 528.251,-85.9856"/>
<text text-anchor="middle" x="560.5" y="-90.5" font-family="Helvetica,sans-Serif" font-size="10.00"> overrides</text>
</g>
<!-- Node8&#45;&gt;Node7 -->
<g id="edge9" class="edge"><title>Node8&#45;&gt;Node7</title>
<path fill="none" stroke="#9a32cd" stroke-dasharray="5,2" d="M321.315,-108.754C339.372,-108.14 358.385,-107.494 375.987,-106.896"/>
<polygon fill="#9a32cd" stroke="#9a32cd" points="320.981,-105.263 311.105,-109.101 321.218,-112.259 320.981,-105.263"/>
<text text-anchor="middle" x="343" y="-111.5" font-family="Helvetica,sans-Serif" font-size="10.00"> items</text>
</g>
<!-- Node9 -->
<g id="node9" class="node"><title>Node9</title>
<g id="a_node9"><a xlink:href="structfiftyone_degrees_results_base.html" target="_top" xlink:title="Base results structure which any processing results should extend.">
<polygon fill="none" stroke="black" points="378,-50 378,-69 517,-69 517,-50 378,-50"/>
<text text-anchor="middle" x="447.5" y="-57" font-family="Helvetica,sans-Serif" font-size="10.00">fiftyoneDegreesResultsBase</text>
</a>
</g>
</g>
<!-- Node9&#45;&gt;Node6 -->
<g id="edge11" class="edge"><title>Node9&#45;&gt;Node6</title>
<path fill="none" stroke="#9a32cd" stroke-dasharray="5,2" d="M527.302,-59.8892C545.588,-60.0341 564.974,-60.2316 583,-60.5 588.75,-60.5856 594.707,-60.6883 600.692,-60.8012"/>
<polygon fill="#9a32cd" stroke="#9a32cd" points="527.297,-56.3892 517.271,-59.814 527.245,-63.389 527.297,-56.3892"/>
<text text-anchor="middle" x="560.5" y="-63.5" font-family="Helvetica,sans-Serif" font-size="10.00"> b</text>
</g>
<!-- Node10 -->
<g id="node10" class="node"><title>Node10</title>
<g id="a_node10"><a xlink:href="structfiftyone_degrees_result_pattern.html" target="_top" xlink:title="Singular User&#45;Agent result returned by a Pattern process method.">
<polygon fill="none" stroke="black" points="602,-8 602,-27 745,-27 745,-8 602,-8"/>
<text text-anchor="middle" x="673.5" y="-15" font-family="Helvetica,sans-Serif" font-size="10.00">fiftyoneDegreesResultPattern</text>
</a>
</g>
</g>
<!-- Node10&#45;&gt;Node1 -->
<g id="edge13" class="edge"><title>Node10&#45;&gt;Node1</title>
<path fill="none" stroke="#9a32cd" stroke-dasharray="5,2" d="M725.164,-29.9734C732.258,-32.2091 739.381,-34.7238 746,-37.5 788.653,-55.3887 834.54,-83.821 861.048,-101.254"/>
<polygon fill="#9a32cd" stroke="#9a32cd" points="726.141,-26.6127 715.558,-27.0993 724.135,-33.3189 726.141,-26.6127"/>
<text text-anchor="middle" x="779.5" y="-63.5" font-family="Helvetica,sans-Serif" font-size="10.00"> items</text>
</g>
<!-- Node11 -->
<g id="node11" class="node"><title>Node11</title>
<g id="a_node11"><a xlink:href="structfiftyone_degrees_result_user_agent.html" target="_top" xlink:title="Singular User&#45;Agent result returned by a device detection process method.">
<polygon fill="none" stroke="black" points="382,-0.5 382,-30.5 513,-30.5 513,-0.5 382,-0.5"/>
<text text-anchor="start" x="390" y="-18.5" font-family="Helvetica,sans-Serif" font-size="10.00">fiftyoneDegreesResultUser</text>
<text text-anchor="middle" x="447.5" y="-7.5" font-family="Helvetica,sans-Serif" font-size="10.00">Agent</text>
</a>
</g>
</g>
<!-- Node11&#45;&gt;Node10 -->
<g id="edge14" class="edge"><title>Node11&#45;&gt;Node10</title>
<path fill="none" stroke="#9a32cd" stroke-dasharray="5,2" d="M523.575,-16.1703C548.886,-16.3963 577.031,-16.6476 601.978,-16.8703"/>
<polygon fill="#9a32cd" stroke="#9a32cd" points="523.321,-12.668 513.29,-16.0785 523.258,-19.6677 523.321,-12.668"/>
<text text-anchor="middle" x="560.5" y="-20.5" font-family="Helvetica,sans-Serif" font-size="10.00"> b</text>
</g>
</g>
</svg>
