<?xml version="1.0" encoding="UTF-8" standalone="no"?>
<!DOCTYPE svg PUBLIC "-//W3C//DTD SVG 1.1//EN"
 "http://www.w3.org/Graphics/SVG/1.1/DTD/svg11.dtd">
<!-- Generated by graphviz version 2.38.0 (20140413.2041)
 -->
<!-- Title: sharedState Pages: 1 -->
<svg width="250pt" height="95pt"
 viewBox="0.00 0.00 250.00 95.00" xmlns="http://www.w3.org/2000/svg" xmlns:xlink="http://www.w3.org/1999/xlink">
<g id="graph0" class="graph" transform="scale(1 1) rotate(0) translate(4 91)">
<title>sharedState</title>
<!-- Node1 -->
<g id="node1" class="node"><title>Node1</title>
<g id="a_node1"><a xlink:title="State containing the states for all threads running in the example.">
<polygon fill="#bfbfbf" stroke="black" points="0,-0.5 0,-19.5 69,-19.5 69,-0.5 0,-0.5"/>
<text text-anchor="middle" x="34.5" y="-7.5" font-family="Helvetica,sans-Serif" font-size="10.00">sharedState</text>
</a>
</g>
</g>
<!-- Node2 -->
<g id="node2" class="node"><title>Node2</title>
<g id="a_node2"><a xlink:href="structfiftyone_degrees_resource_manager.html" target="_top" xlink:title="Manager structure used to provide access to a shared and changing resource.">
<polygon fill="none" stroke="black" points="19.5,-67.5 19.5,-86.5 181.5,-86.5 181.5,-67.5 19.5,-67.5"/>
<text text-anchor="middle" x="100.5" y="-74.5" font-family="Helvetica,sans-Serif" font-size="10.00">fiftyoneDegreesResourceManager</text>
</a>
</g>
</g>
<!-- Node2&#45;&gt;Node1 -->
<g id="edge1" class="edge"><title>Node2&#45;&gt;Node1</title>
<path fill="none" stroke="#9a32cd" stroke-dasharray="5,2" d="M66.2669,-62.8552C59.7264,-59.1442 53.4016,-54.5612 48.5,-49 41.1549,-40.6664 37.5435,-28.1446 35.8549,-19.7789"/>
<polygon fill="#9a32cd" stroke="#9a32cd" points="64.7039,-65.9869 75.2061,-67.3852 67.8682,-59.7429 64.7039,-65.9869"/>
<text text-anchor="middle" x="69" y="-41" font-family="Helvetica,sans-Serif" font-size="10.00"> manager</text>
</g>
<!-- Node3 -->
<g id="node3" class="node"><title>Node3</title>
<g id="a_node3"><a xlink:href="structfiftyone_degrees_resource_handle.html" target="_top" xlink:title="Tracks the number of active uses of the resource within the manager.">
<polygon fill="none" stroke="black" points="87,-0.5 87,-19.5 242,-19.5 242,-0.5 87,-0.5"/>
<text text-anchor="middle" x="164.5" y="-7.5" font-family="Helvetica,sans-Serif" font-size="10.00">fiftyoneDegreesResourceHandle</text>
</a>
</g>
</g>
<!-- Node2&#45;&gt;Node3 -->
<g id="edge3" class="edge"><title>Node2&#45;&gt;Node3</title>
<path fill="none" stroke="#9a32cd" stroke-dasharray="5,2" d="M94.4256,-57.2122C93.4366,-50.6536 93.7518,-43.5516 97.5,-38 103.324,-29.3732 112.415,-23.5021 122.042,-19.5067"/>
<polygon fill="#9a32cd" stroke="#9a32cd" points="91.14,-58.5045 96.9455,-67.3672 97.934,-56.8186 91.14,-58.5045"/>
<text text-anchor="middle" x="118" y="-41" font-family="Helvetica,sans-Serif" font-size="10.00"> manager</text>
</g>
<!-- Node3&#45;&gt;Node2 -->
<g id="edge2" class="edge"><title>Node3&#45;&gt;Node2</title>
<path fill="none" stroke="#9a32cd" stroke-dasharray="5,2" d="M156.454,-28.7998C152.824,-35.613 148.087,-43.1462 142.5,-49 135.437,-56.3991 125.962,-62.7137 117.799,-67.3715"/>
<polygon fill="#9a32cd" stroke="#9a32cd" points="159.699,-30.1327 160.953,-19.6122 153.412,-27.0547 159.699,-30.1327"/>
<text text-anchor="middle" x="164.5" y="-41" font-family="Helvetica,sans-Serif" font-size="10.00"> active</text>
</g>
</g>
</svg>
