<?xml version="1.0" encoding="UTF-8" standalone="no"?>
<!DOCTYPE svg PUBLIC "-//W3C//DTD SVG 1.1//EN"
 "http://www.w3.org/Graphics/SVG/1.1/DTD/svg11.dtd">
<!-- Generated by graphviz version 2.38.0 (20140413.2041)
 -->
<!-- Title: fiftyoneDegreesFileHandle Pages: 1 -->
<svg width="337pt" height="95pt"
 viewBox="0.00 0.00 337.00 95.00" xmlns="http://www.w3.org/2000/svg" xmlns:xlink="http://www.w3.org/1999/xlink">
<g id="graph0" class="graph" transform="scale(1 1) rotate(0) translate(4 91)">
<title>fiftyoneDegreesFileHandle</title>
<!-- Node1 -->
<g id="node1" class="node"><title>Node1</title>
<g id="a_node1"><a xlink:title="File handle node in the stack of handles.">
<polygon fill="#bfbfbf" stroke="black" points="0,-0.5 0,-19.5 129,-19.5 129,-0.5 0,-0.5"/>
<text text-anchor="middle" x="64.5" y="-7.5" font-family="Helvetica,sans-Serif" font-size="10.00">fiftyoneDegreesFileHandle</text>
</a>
</g>
</g>
<!-- Node2 -->
<g id="node2" class="node"><title>Node2</title>
<g id="a_node2"><a xlink:href="structfiftyone_degrees_pool_item.html" target="_top" xlink:title="Pool item node in the stack of items.">
<polygon fill="none" stroke="black" points="25.5,-67.5 25.5,-86.5 147.5,-86.5 147.5,-67.5 25.5,-67.5"/>
<text text-anchor="middle" x="86.5" y="-74.5" font-family="Helvetica,sans-Serif" font-size="10.00">fiftyoneDegreesPoolItem</text>
</a>
</g>
</g>
<!-- Node2&#45;&gt;Node1 -->
<g id="edge1" class="edge"><title>Node2&#45;&gt;Node1</title>
<path fill="none" stroke="#9a32cd" stroke-dasharray="5,2" d="M71.1371,-59.5379C68.8484,-56.2586 66.8181,-52.6832 65.5,-49 62.0755,-39.4311 62.4092,-27.6234 63.2188,-19.7333"/>
<polygon fill="#9a32cd" stroke="#9a32cd" points="68.4799,-61.8184 77.487,-67.3972 73.9248,-57.4192 68.4799,-61.8184"/>
<text text-anchor="middle" x="76.5" y="-41" font-family="Helvetica,sans-Serif" font-size="10.00"> item</text>
</g>
<!-- Node3 -->
<g id="node3" class="node"><title>Node3</title>
<g id="a_node3"><a xlink:href="structfiftyone_degrees_pool.html" target="_top" xlink:title="Pool of resources stored as items in a stack.">
<polygon fill="none" stroke="black" points="147,-0.5 147,-19.5 250,-19.5 250,-0.5 147,-0.5"/>
<text text-anchor="middle" x="198.5" y="-7.5" font-family="Helvetica,sans-Serif" font-size="10.00">fiftyoneDegreesPool</text>
</a>
</g>
</g>
<!-- Node2&#45;&gt;Node3 -->
<g id="edge5" class="edge"><title>Node2&#45;&gt;Node3</title>
<path fill="none" stroke="#9a32cd" stroke-dasharray="5,2" d="M92.5034,-57.8612C95.6654,-50.7778 100.221,-43.1394 106.5,-38 117.965,-28.6169 132.577,-22.4946 146.763,-18.4999"/>
<polygon fill="#9a32cd" stroke="#9a32cd" points="89.1257,-56.8956 88.829,-67.4863 95.6654,-59.3922 89.1257,-56.8956"/>
<text text-anchor="middle" x="120.5" y="-41" font-family="Helvetica,sans-Serif" font-size="10.00"> stack</text>
</g>
<!-- Node3&#45;&gt;Node2 -->
<g id="edge2" class="edge"><title>Node3&#45;&gt;Node2</title>
<path fill="none" stroke="#9a32cd" stroke-dasharray="5,2" d="M176.976,-25.2602C165.666,-32.5925 151.49,-41.5326 138.5,-49 127.212,-55.4892 114.212,-62.2392 104.034,-67.3669"/>
<polygon fill="#9a32cd" stroke="#9a32cd" points="178.9,-28.1846 185.355,-19.7835 175.07,-22.3253 178.9,-28.1846"/>
<text text-anchor="middle" x="166.5" y="-41" font-family="Helvetica,sans-Serif" font-size="10.00"> pool</text>
</g>
<!-- Node3&#45;&gt;Node3 -->
<g id="edge3" class="edge"><title>Node3&#45;&gt;Node3</title>
<path fill="none" stroke="#9a32cd" stroke-dasharray="5,2" d="M259.956,-14.5916C264.922,-13.5925 268,-12.062 268,-10 268,-6.78125 260.5,-4.85754 250.025,-4.22888"/>
<polygon fill="#9a32cd" stroke="#9a32cd" points="259.543,-11.1159 250.025,-15.7711 260.368,-18.0671 259.543,-11.1159"/>
<text text-anchor="middle" x="298.5" y="-7.5" font-family="Helvetica,sans-Serif" font-size="10.00"> resourceFree</text>
</g>
<!-- Node4 -->
<g id="node4" class="node"><title>Node4</title>
<g id="a_node4"><a xlink:href="unionfiftyone_degrees_pool_head.html" target="_top" xlink:title="The head of the stack used for pop and push operations.">
<polygon fill="none" stroke="black" points="166,-67.5 166,-86.5 291,-86.5 291,-67.5 166,-67.5"/>
<text text-anchor="middle" x="228.5" y="-74.5" font-family="Helvetica,sans-Serif" font-size="10.00">fiftyoneDegreesPoolHead</text>
</a>
</g>
</g>
<!-- Node4&#45;&gt;Node3 -->
<g id="edge4" class="edge"><title>Node4&#45;&gt;Node3</title>
<path fill="none" stroke="#9a32cd" stroke-dasharray="5,2" d="M220.095,-57.79C214.334,-45.3076 206.952,-29.3135 202.482,-19.6273"/>
<polygon fill="#9a32cd" stroke="#9a32cd" points="217.086,-59.6209 224.454,-67.2338 223.441,-56.6875 217.086,-59.6209"/>
<text text-anchor="middle" x="228" y="-41" font-family="Helvetica,sans-Serif" font-size="10.00"> head</text>
</g>
</g>
</svg>
