<?xml version="1.0" encoding="UTF-8" standalone="no"?>
<!DOCTYPE svg PUBLIC "-//W3C//DTD SVG 1.1//EN"
 "http://www.w3.org/Graphics/SVG/1.1/DTD/svg11.dtd">
<!-- Generated by graphviz version 2.43.0 (0)
 -->
<!-- Title: FiftyoneDegrees::DeviceDetection::EvidenceDeviceDetection Pages: 1 -->
<svg width="191pt" height="162pt"
 viewBox="0.00 0.00 191.00 162.00" xmlns="http://www.w3.org/2000/svg" xmlns:xlink="http://www.w3.org/1999/xlink">
<g id="graph0" class="graph" transform="scale(1 1) rotate(0) translate(4 158)">
<title>FiftyoneDegrees::DeviceDetection::EvidenceDeviceDetection</title>
<!-- Node0 -->
<g id="node1" class="node">
<title>Node0</title>
<g id="a_node1"><a xlink:title="Device detection specific evidence class containing evidence to be processed by a device detection en...">
<polygon fill="#bfbfbf" stroke="black" points="0,-0.5 0,-30.5 183,-30.5 183,-0.5 0,-0.5"/>
<text text-anchor="start" x="8" y="-18.5" font-family="Helvetica,sans-Serif" font-size="10.00">FiftyoneDegrees::DeviceDetection</text>
<text text-anchor="middle" x="91.5" y="-7.5" font-family="Helvetica,sans-Serif" font-size="10.00">::EvidenceDeviceDetection</text>
</a>
</g>
</g>
<!-- Node1 -->
<g id="node2" class="node">
<title>Node1</title>
<g id="a_node2"><a xlink:href="class_fiftyone_degrees_1_1_common_1_1_evidence_base.html" target="_top" xlink:title="Base evidence class containing evidence to be processed by an engine.">
<polygon fill="none" stroke="black" points="18.5,-67.5 18.5,-97.5 164.5,-97.5 164.5,-67.5 18.5,-67.5"/>
<text text-anchor="start" x="26.5" y="-85.5" font-family="Helvetica,sans-Serif" font-size="10.00">FiftyoneDegrees::Common</text>
<text text-anchor="middle" x="91.5" y="-74.5" font-family="Helvetica,sans-Serif" font-size="10.00">::EvidenceBase</text>
</a>
</g>
</g>
<!-- Node1&#45;&gt;Node0 -->
<g id="edge1" class="edge">
<title>Node1&#45;&gt;Node0</title>
<path fill="none" stroke="midnightblue" d="M91.5,-57.11C91.5,-48.15 91.5,-38.32 91.5,-30.58"/>
<polygon fill="midnightblue" stroke="midnightblue" points="88,-57.4 91.5,-67.4 95,-57.4 88,-57.4"/>
</g>
<!-- Node2 -->
<g id="node3" class="node">
<title>Node2</title>
<g id="a_node3"><a xlink:title=" ">
<polygon fill="none" stroke="#bfbfbf" points="20,-134.5 20,-153.5 163,-153.5 163,-134.5 20,-134.5"/>
<text text-anchor="middle" x="91.5" y="-141.5" font-family="Helvetica,sans-Serif" font-size="10.00">std::map&lt; string, string &gt;</text>
</a>
</g>
</g>
<!-- Node2&#45;&gt;Node1 -->
<g id="edge2" class="edge">
<title>Node2&#45;&gt;Node1</title>
<path fill="none" stroke="midnightblue" d="M91.5,-124.23C91.5,-115.59 91.5,-105.5 91.5,-97.52"/>
<polygon fill="midnightblue" stroke="midnightblue" points="88,-124.48 91.5,-134.48 95,-124.48 88,-124.48"/>
</g>
</g>
</svg>
