<?xml version="1.0" encoding="UTF-8" standalone="no"?>
<!DOCTYPE svg PUBLIC "-//W3C//DTD SVG 1.1//EN"
 "http://www.w3.org/Graphics/SVG/1.1/DTD/svg11.dtd">
<!-- Generated by graphviz version 2.43.0 (0)
 -->
<!-- Title: FiftyoneDegrees::Examples::Hash::ExampleBase::SharedState Pages: 1 -->
<svg width="1619pt" height="376pt"
 viewBox="0.00 0.00 1619.00 375.50" xmlns="http://www.w3.org/2000/svg" xmlns:xlink="http://www.w3.org/1999/xlink">
<g id="graph0" class="graph" transform="scale(1 1) rotate(0) translate(4 371.5)">
<title>FiftyoneDegrees::Examples::Hash::ExampleBase::SharedState</title>
<!-- Node1 -->
<g id="node1" class="node">
<title>Node1</title>
<g id="a_node1"><a xlink:title="State containing the states for all threads running in a multi&#45;threaded example .">
<polygon fill="#bfbfbf" stroke="black" points="1426,-33 1426,-63 1611,-63 1611,-33 1426,-33"/>
<text text-anchor="start" x="1434" y="-51" font-family="Helvetica,sans-Serif" font-size="10.00">FiftyoneDegrees::Examples</text>
<text text-anchor="middle" x="1518.5" y="-40" font-family="Helvetica,sans-Serif" font-size="10.00">::Hash::ExampleBase::SharedState</text>
</a>
</g>
</g>
<!-- Node2 -->
<g id="node2" class="node">
<title>Node2</title>
<g id="a_node2"><a xlink:href="class_fiftyone_degrees_1_1_device_detection_1_1_hash_1_1_engine_hash.html" target="_top" xlink:title="Encapsulates the Hash engine class which implements EngineDeviceDetection.">
<polygon fill="none" stroke="black" points="1167,-78 1167,-108 1350,-108 1350,-78 1167,-78"/>
<text text-anchor="start" x="1175" y="-96" font-family="Helvetica,sans-Serif" font-size="10.00">FiftyoneDegrees::DeviceDetection</text>
<text text-anchor="middle" x="1258.5" y="-85" font-family="Helvetica,sans-Serif" font-size="10.00">::Hash::EngineHash</text>
</a>
</g>
</g>
<!-- Node2&#45;&gt;Node1 -->
<g id="edge1" class="edge">
<title>Node2&#45;&gt;Node1</title>
<path fill="none" stroke="#9a32cd" stroke-dasharray="5,2" d="M1355.89,-76.19C1380.65,-71.87 1407.11,-67.25 1431.31,-63.03"/>
<polygon fill="#9a32cd" stroke="#9a32cd" points="1355.02,-72.79 1345.77,-77.95 1356.22,-79.68 1355.02,-72.79"/>
<text text-anchor="middle" x="1388" y="-77" font-family="Helvetica,sans-Serif" font-size="10.00"> engine</text>
</g>
<!-- Node3 -->
<g id="node3" class="node">
<title>Node3</title>
<g id="a_node3"><a xlink:href="class_fiftyone_degrees_1_1_device_detection_1_1_engine_device_detection.html" target="_top" xlink:title="Encapsulates the device detection engine class to be extended by device detection engine implementati...">
<polygon fill="none" stroke="black" points="947,-79 947,-109 1130,-109 1130,-79 947,-79"/>
<text text-anchor="start" x="955" y="-97" font-family="Helvetica,sans-Serif" font-size="10.00">FiftyoneDegrees::DeviceDetection</text>
<text text-anchor="middle" x="1038.5" y="-86" font-family="Helvetica,sans-Serif" font-size="10.00">::EngineDeviceDetection</text>
</a>
</g>
</g>
<!-- Node3&#45;&gt;Node2 -->
<g id="edge2" class="edge">
<title>Node3&#45;&gt;Node2</title>
<path fill="none" stroke="midnightblue" d="M1140.1,-93.54C1149.03,-93.5 1158.03,-93.46 1166.87,-93.42"/>
<polygon fill="midnightblue" stroke="midnightblue" points="1140.04,-90.04 1130.06,-93.58 1140.07,-97.04 1140.04,-90.04"/>
</g>
<!-- Node4 -->
<g id="node4" class="node">
<title>Node4</title>
<g id="a_node4"><a xlink:href="class_fiftyone_degrees_1_1_common_1_1_engine_base.html" target="_top" xlink:title="Encapsulates the engine class to be extended by engine implementations.">
<polygon fill="none" stroke="black" points="764,-194 764,-224 910,-224 910,-194 764,-194"/>
<text text-anchor="start" x="772" y="-212" font-family="Helvetica,sans-Serif" font-size="10.00">FiftyoneDegrees::Common</text>
<text text-anchor="middle" x="837" y="-201" font-family="Helvetica,sans-Serif" font-size="10.00">::EngineBase</text>
</a>
</g>
</g>
<!-- Node4&#45;&gt;Node3 -->
<g id="edge3" class="edge">
<title>Node4&#45;&gt;Node3</title>
<path fill="none" stroke="midnightblue" d="M873.11,-188.76C912.65,-165.97 976.01,-129.44 1011.41,-109.04"/>
<polygon fill="midnightblue" stroke="midnightblue" points="871,-185.94 864.08,-193.97 874.49,-192 871,-185.94"/>
</g>
<!-- Node5 -->
<g id="node5" class="node">
<title>Node5</title>
<g id="a_node5"><a xlink:href="class_fiftyone_degrees_1_1_common_1_1_required_properties_config.html" target="_top" xlink:title="C++ class wrapper for the fiftyoneDegreesPropertiesRequired structure.">
<polygon fill="none" stroke="black" points="488,-288 488,-318 634,-318 634,-288 488,-288"/>
<text text-anchor="start" x="496" y="-306" font-family="Helvetica,sans-Serif" font-size="10.00">FiftyoneDegrees::Common</text>
<text text-anchor="middle" x="561" y="-295" font-family="Helvetica,sans-Serif" font-size="10.00">::RequiredPropertiesConfig</text>
</a>
</g>
</g>
<!-- Node5&#45;&gt;Node4 -->
<g id="edge4" class="edge">
<title>Node5&#45;&gt;Node4</title>
<path fill="none" stroke="#9a32cd" stroke-dasharray="5,2" d="M641.64,-285.55C674.44,-277.4 712.52,-266.68 746,-254 768.06,-245.65 791.88,-233.59 809.47,-224.06"/>
<polygon fill="#9a32cd" stroke="#9a32cd" points="640.52,-282.22 631.64,-287.99 642.19,-289.02 640.52,-282.22"/>
<text text-anchor="middle" x="699" y="-284" font-family="Helvetica,sans-Serif" font-size="10.00"> requiredProperties</text>
</g>
<!-- Node6 -->
<g id="node6" class="node">
<title>Node6</title>
<g id="a_node6"><a xlink:title=" ">
<polygon fill="none" stroke="#bfbfbf" points="241,-210 241,-240 398,-240 398,-210 241,-210"/>
<text text-anchor="start" x="249" y="-228" font-family="Helvetica,sans-Serif" font-size="10.00">shared_ptr&lt; fiftyoneDegrees</text>
<text text-anchor="middle" x="319.5" y="-217" font-family="Helvetica,sans-Serif" font-size="10.00">ResourceManager &gt;</text>
</a>
</g>
</g>
<!-- Node6&#45;&gt;Node4 -->
<g id="edge5" class="edge">
<title>Node6&#45;&gt;Node4</title>
<path fill="none" stroke="#9a32cd" stroke-dasharray="5,2" d="M408.15,-221.07C433.87,-219.99 462.06,-218.88 488,-218 583.28,-214.78 693.28,-212.11 763.67,-210.54"/>
<polygon fill="#9a32cd" stroke="#9a32cd" points="407.89,-217.58 398.05,-221.5 408.18,-224.58 407.89,-217.58"/>
<text text-anchor="middle" x="561" y="-221" font-family="Helvetica,sans-Serif" font-size="10.00"> manager</text>
</g>
<!-- Node11 -->
<g id="node11" class="node">
<title>Node11</title>
<g id="a_node11"><a xlink:href="class_fiftyone_degrees_1_1_common_1_1_meta_data.html" target="_top" xlink:title="Contains meta data for the properties, values, profiles and components that exist within the engine i...">
<polygon fill="none" stroke="black" points="488,-239 488,-269 634,-269 634,-239 488,-239"/>
<text text-anchor="start" x="496" y="-257" font-family="Helvetica,sans-Serif" font-size="10.00">FiftyoneDegrees::Common</text>
<text text-anchor="middle" x="561" y="-246" font-family="Helvetica,sans-Serif" font-size="10.00">::MetaData</text>
</a>
</g>
</g>
<!-- Node6&#45;&gt;Node11 -->
<g id="edge11" class="edge">
<title>Node6&#45;&gt;Node11</title>
<path fill="none" stroke="#9a32cd" stroke-dasharray="5,2" d="M408.53,-235.66C434.65,-238.82 462.93,-242.25 487.91,-245.27"/>
<polygon fill="#9a32cd" stroke="#9a32cd" points="408.61,-232.14 398.26,-234.42 407.77,-239.09 408.61,-232.14"/>
<text text-anchor="middle" x="443" y="-246" font-family="Helvetica,sans-Serif" font-size="10.00"> manager</text>
</g>
<!-- Node7 -->
<g id="node7" class="node">
<title>Node7</title>
<g id="a_node7"><a xlink:title=" ">
<polygon fill="none" stroke="#bfbfbf" points="0,-215.5 0,-234.5 68,-234.5 68,-215.5 0,-215.5"/>
<text text-anchor="middle" x="34" y="-222.5" font-family="Helvetica,sans-Serif" font-size="10.00">shared_ptr</text>
</a>
</g>
</g>
<!-- Node7&#45;&gt;Node6 -->
<g id="edge6" class="edge">
<title>Node7&#45;&gt;Node6</title>
<path fill="none" stroke="orange" stroke-dasharray="5,2" d="M78.22,-225C121.31,-225 188.44,-225 240.8,-225"/>
<polygon fill="orange" stroke="orange" points="78.08,-221.5 68.08,-225 78.08,-228.5 78.08,-221.5"/>
<text text-anchor="start" x="86" y="-239" font-family="Helvetica,sans-Serif" font-size="10.00"> &lt; fiftyoneDegreesResource</text>
<text text-anchor="middle" x="154.5" y="-228" font-family="Helvetica,sans-Serif" font-size="10.00">Manager &gt;</text>
</g>
<!-- Node8 -->
<g id="node8" class="node">
<title>Node8</title>
<g id="a_node8"><a xlink:title=" ">
<polygon fill="none" stroke="#bfbfbf" points="512,-153.5 512,-172.5 610,-172.5 610,-153.5 512,-153.5"/>
<text text-anchor="middle" x="561" y="-160.5" font-family="Helvetica,sans-Serif" font-size="10.00">vector&lt; string &gt;</text>
</a>
</g>
</g>
<!-- Node8&#45;&gt;Node4 -->
<g id="edge7" class="edge">
<title>Node8&#45;&gt;Node4</title>
<path fill="none" stroke="#9a32cd" stroke-dasharray="5,2" d="M620.77,-167.33C657.07,-170.6 704.49,-175.92 746,-184 759.53,-186.63 774,-190.28 787.29,-193.96"/>
<polygon fill="#9a32cd" stroke="#9a32cd" points="620.62,-163.81 610.36,-166.43 620.02,-170.78 620.62,-163.81"/>
<text text-anchor="middle" x="699" y="-187" font-family="Helvetica,sans-Serif" font-size="10.00"> keys</text>
</g>
<!-- Node9 -->
<g id="node9" class="node">
<title>Node9</title>
<g id="a_node9"><a xlink:title=" ">
<polygon fill="none" stroke="#bfbfbf" points="296,-153.5 296,-172.5 343,-172.5 343,-153.5 296,-153.5"/>
<text text-anchor="middle" x="319.5" y="-160.5" font-family="Helvetica,sans-Serif" font-size="10.00">vector</text>
</a>
</g>
</g>
<!-- Node9&#45;&gt;Node8 -->
<g id="edge8" class="edge">
<title>Node9&#45;&gt;Node8</title>
<path fill="none" stroke="orange" stroke-dasharray="5,2" d="M353.27,-163C394.24,-163 464.69,-163 511.81,-163"/>
<polygon fill="orange" stroke="orange" points="353.03,-159.5 343.03,-163 353.03,-166.5 353.03,-159.5"/>
<text text-anchor="middle" x="443" y="-166" font-family="Helvetica,sans-Serif" font-size="10.00"> &lt; string &gt;</text>
</g>
<!-- Node10 -->
<g id="node10" class="node">
<title>Node10</title>
<g id="a_node10"><a xlink:title=" ">
<polygon fill="none" stroke="#bfbfbf" points="539,-84.5 539,-103.5 583,-103.5 583,-84.5 539,-84.5"/>
<text text-anchor="middle" x="561" y="-91.5" font-family="Helvetica,sans-Serif" font-size="10.00">string</text>
</a>
</g>
</g>
<!-- Node10&#45;&gt;Node1 -->
<g id="edge14" class="edge">
<title>Node10&#45;&gt;Node1</title>
<path fill="none" stroke="#9a32cd" stroke-dasharray="5,2" d="M593.07,-85.32C643.58,-71.98 746.84,-48 836,-48 836,-48 836,-48 1259.5,-48 1314.71,-48 1376.56,-48 1425.86,-48"/>
<polygon fill="#9a32cd" stroke="#9a32cd" points="591.86,-82.01 583.11,-87.99 593.68,-88.78 591.86,-82.01"/>
<text text-anchor="middle" x="1038.5" y="-51" font-family="Helvetica,sans-Serif" font-size="10.00"> userAgentFilePath</text>
</g>
<!-- Node10&#45;&gt;Node3 -->
<g id="edge13" class="edge">
<title>Node10&#45;&gt;Node3</title>
<path fill="none" stroke="#9a32cd" stroke-dasharray="5,2" d="M593.08,-94C663.72,-94 838.61,-94 946.74,-94"/>
<polygon fill="#9a32cd" stroke="#9a32cd" points="593.05,-90.5 583.05,-94 593.05,-97.5 593.05,-90.5"/>
<text text-anchor="middle" x="837" y="-97" font-family="Helvetica,sans-Serif" font-size="10.00"> defaultElementDataKey</text>
</g>
<!-- Node10&#45;&gt;Node4 -->
<g id="edge9" class="edge">
<title>Node10&#45;&gt;Node4</title>
<path fill="none" stroke="#9a32cd" stroke-dasharray="5,2" d="M593.29,-98.95C638.45,-106.4 719.42,-121.02 746,-134 776.7,-149 805.87,-176.61 822.29,-193.82"/>
<polygon fill="#9a32cd" stroke="#9a32cd" points="593.59,-95.45 583.16,-97.3 592.47,-102.36 593.59,-95.45"/>
<text text-anchor="middle" x="699" y="-159" font-family="Helvetica,sans-Serif" font-size="10.00"> defaultDataKey</text>
<text text-anchor="middle" x="699" y="-148" font-family="Helvetica,sans-Serif" font-size="10.00">licenceKey</text>
<text text-anchor="middle" x="699" y="-137" font-family="Helvetica,sans-Serif" font-size="10.00">updateUrl</text>
</g>
<!-- Node11&#45;&gt;Node4 -->
<g id="edge10" class="edge">
<title>Node11&#45;&gt;Node4</title>
<path fill="none" stroke="#9a32cd" stroke-dasharray="5,2" d="M644.36,-240.47C682.36,-234.23 727.05,-226.89 763.72,-220.87"/>
<polygon fill="#9a32cd" stroke="#9a32cd" points="643.65,-237.04 634.35,-242.12 644.78,-243.95 643.65,-237.04"/>
<text text-anchor="middle" x="699" y="-242" font-family="Helvetica,sans-Serif" font-size="10.00"> metaData</text>
</g>
<!-- Node12 -->
<g id="node12" class="node">
<title>Node12</title>
<g id="a_node12"><a xlink:href="class_fiftyone_degrees_1_1_common_1_1_config_base.html" target="_top" xlink:title="C++ class wrapper for the fiftyoneDegreesConfigBase configuration structure.">
<polygon fill="none" stroke="black" points="488,-337 488,-367 634,-367 634,-337 488,-337"/>
<text text-anchor="start" x="496" y="-355" font-family="Helvetica,sans-Serif" font-size="10.00">FiftyoneDegrees::Common</text>
<text text-anchor="middle" x="561" y="-344" font-family="Helvetica,sans-Serif" font-size="10.00">::ConfigBase</text>
</a>
</g>
</g>
<!-- Node12&#45;&gt;Node4 -->
<g id="edge12" class="edge">
<title>Node12&#45;&gt;Node4</title>
<path fill="none" stroke="#9a32cd" stroke-dasharray="5,2" d="M644.37,-335.79C677.43,-327.08 714.97,-314.26 746,-296 778.59,-276.82 808.45,-243.52 824.24,-224.16"/>
<polygon fill="#9a32cd" stroke="#9a32cd" points="643.09,-332.51 634.26,-338.37 644.82,-339.29 643.09,-332.51"/>
<text text-anchor="middle" x="699" y="-336" font-family="Helvetica,sans-Serif" font-size="10.00"> config</text>
</g>
<!-- Node13 -->
<g id="node13" class="node">
<title>Node13</title>
<g id="a_node13"><a xlink:title=" ">
<polygon fill="none" stroke="#bfbfbf" points="1234.5,-0.5 1234.5,-19.5 1282.5,-19.5 1282.5,-0.5 1234.5,-0.5"/>
<text text-anchor="middle" x="1258.5" y="-7.5" font-family="Helvetica,sans-Serif" font-size="10.00">thread</text>
</a>
</g>
</g>
<!-- Node13&#45;&gt;Node1 -->
<g id="edge15" class="edge">
<title>Node13&#45;&gt;Node1</title>
<path fill="none" stroke="#9a32cd" stroke-dasharray="5,2" d="M1292.51,-11.59C1322.7,-13.35 1368.55,-16.8 1408,-23 1424.47,-25.59 1442.15,-29.24 1458.4,-32.95"/>
<polygon fill="#9a32cd" stroke="#9a32cd" points="1292.69,-8.09 1282.51,-11.03 1292.3,-15.08 1292.69,-8.09"/>
<text text-anchor="middle" x="1388" y="-26" font-family="Helvetica,sans-Serif" font-size="10.00"> threads</text>
</g>
</g>
</svg>
