<?xml version="1.0" encoding="UTF-8" standalone="no"?>
<!DOCTYPE svg PUBLIC "-//W3C//DTD SVG 1.1//EN"
 "http://www.w3.org/Graphics/SVG/1.1/DTD/svg11.dtd">
<!-- Generated by graphviz version 2.43.0 (0)
 -->
<!-- Title: FiftyoneDegrees::DeviceDetection::Hash::MetaDataHash Pages: 1 -->
<svg width="237pt" height="263pt"
 viewBox="0.00 0.00 236.50 263.00" xmlns="http://www.w3.org/2000/svg" xmlns:xlink="http://www.w3.org/1999/xlink">
<g id="graph0" class="graph" transform="scale(1 1) rotate(0) translate(4 259)">
<title>FiftyoneDegrees::DeviceDetection::Hash::MetaDataHash</title>
<!-- Node2 -->
<g id="node1" class="node">
<title>Node2</title>
<g id="a_node1"><a xlink:title="Construct a new instance of MetaData.">
<polygon fill="#bfbfbf" stroke="black" points="0,-0.5 0,-30.5 183,-30.5 183,-0.5 0,-0.5"/>
<text text-anchor="start" x="8" y="-18.5" font-family="Helvetica,sans-Serif" font-size="10.00">FiftyoneDegrees::DeviceDetection</text>
<text text-anchor="middle" x="91.5" y="-7.5" font-family="Helvetica,sans-Serif" font-size="10.00">::Hash::MetaDataHash</text>
</a>
</g>
</g>
<!-- Node3 -->
<g id="node2" class="node">
<title>Node3</title>
<g id="a_node2"><a xlink:href="class_fiftyone_degrees_1_1_common_1_1_meta_data.html" target="_top" xlink:title="Contains meta data for the properties, values, profiles and components that exist within the engine i...">
<polygon fill="none" stroke="black" points="18.5,-68.5 18.5,-98.5 164.5,-98.5 164.5,-68.5 18.5,-68.5"/>
<text text-anchor="start" x="26.5" y="-86.5" font-family="Helvetica,sans-Serif" font-size="10.00">FiftyoneDegrees::Common</text>
<text text-anchor="middle" x="91.5" y="-75.5" font-family="Helvetica,sans-Serif" font-size="10.00">::MetaData</text>
</a>
</g>
</g>
<!-- Node3&#45;&gt;Node2 -->
<g id="edge1" class="edge">
<title>Node3&#45;&gt;Node2</title>
<path fill="none" stroke="midnightblue" d="M91.5,-58.03C91.5,-48.86 91.5,-38.74 91.5,-30.79"/>
<polygon fill="midnightblue" stroke="midnightblue" points="88,-58.18 91.5,-68.18 95,-58.18 88,-58.18"/>
</g>
<!-- Node4 -->
<g id="node3" class="node">
<title>Node4</title>
<g id="a_node3"><a xlink:title=" ">
<polygon fill="none" stroke="#bfbfbf" points="13,-146.5 13,-176.5 170,-176.5 170,-146.5 13,-146.5"/>
<text text-anchor="start" x="21" y="-164.5" font-family="Helvetica,sans-Serif" font-size="10.00">shared_ptr&lt; fiftyoneDegrees</text>
<text text-anchor="middle" x="91.5" y="-153.5" font-family="Helvetica,sans-Serif" font-size="10.00">ResourceManager &gt;</text>
</a>
</g>
</g>
<!-- Node4&#45;&gt;Node3 -->
<g id="edge2" class="edge">
<title>Node4&#45;&gt;Node3</title>
<path fill="none" stroke="#9a32cd" stroke-dasharray="5,2" d="M91.5,-136.09C91.5,-123.76 91.5,-109.22 91.5,-98.73"/>
<polygon fill="#9a32cd" stroke="#9a32cd" points="88,-136.2 91.5,-146.2 95,-136.21 88,-136.2"/>
<text text-anchor="middle" x="115" y="-120" font-family="Helvetica,sans-Serif" font-size="10.00"> manager</text>
</g>
<!-- Node5 -->
<g id="node4" class="node">
<title>Node5</title>
<g id="a_node4"><a xlink:title=" ">
<polygon fill="none" stroke="#bfbfbf" points="57.5,-235.5 57.5,-254.5 125.5,-254.5 125.5,-235.5 57.5,-235.5"/>
<text text-anchor="middle" x="91.5" y="-242.5" font-family="Helvetica,sans-Serif" font-size="10.00">shared_ptr</text>
</a>
</g>
</g>
<!-- Node5&#45;&gt;Node4 -->
<g id="edge3" class="edge">
<title>Node5&#45;&gt;Node4</title>
<path fill="none" stroke="orange" stroke-dasharray="5,2" d="M91.5,-225.23C91.5,-210.41 91.5,-190.05 91.5,-176.6"/>
<polygon fill="orange" stroke="orange" points="88,-225.28 91.5,-235.28 95,-225.28 88,-225.28"/>
<text text-anchor="start" x="91.5" y="-209" font-family="Helvetica,sans-Serif" font-size="10.00"> &lt; fiftyoneDegreesResource</text>
<text text-anchor="middle" x="160" y="-198" font-family="Helvetica,sans-Serif" font-size="10.00">Manager &gt;</text>
</g>
</g>
</svg>
