<?xml version="1.0" encoding="UTF-8" standalone="no"?>
<!DOCTYPE svg PUBLIC "-//W3C//DTD SVG 1.1//EN"
 "http://www.w3.org/Graphics/SVG/1.1/DTD/svg11.dtd">
<!-- Generated by graphviz version 2.43.0 (0)
 -->
<!-- Title: FiftyoneDegrees::DeviceDetection::Hash::ConfigHash Pages: 1 -->
<svg width="191pt" height="173pt"
 viewBox="0.00 0.00 191.00 173.00" xmlns="http://www.w3.org/2000/svg" xmlns:xlink="http://www.w3.org/1999/xlink">
<g id="graph0" class="graph" transform="scale(1 1) rotate(0) translate(4 169)">
<title>FiftyoneDegrees::DeviceDetection::Hash::ConfigHash</title>
<!-- Node3 -->
<g id="node1" class="node">
<title>Node3</title>
<g id="a_node1"><a xlink:title="C++ class wrapper for the fiftyoneDegreesConfigHash configuration structure.">
<polygon fill="#bfbfbf" stroke="black" points="0,-0.5 0,-30.5 183,-30.5 183,-0.5 0,-0.5"/>
<text text-anchor="start" x="8" y="-18.5" font-family="Helvetica,sans-Serif" font-size="10.00">FiftyoneDegrees::DeviceDetection</text>
<text text-anchor="middle" x="91.5" y="-7.5" font-family="Helvetica,sans-Serif" font-size="10.00">::Hash::ConfigHash</text>
</a>
</g>
</g>
<!-- Node4 -->
<g id="node2" class="node">
<title>Node4</title>
<g id="a_node2"><a xlink:href="class_fiftyone_degrees_1_1_device_detection_1_1_config_device_detection.html" target="_top" xlink:title="C++ class wrapper for the fiftyoneDegreesConfigDeviceDetection configuration structure.">
<polygon fill="none" stroke="black" points="0,-67.5 0,-97.5 183,-97.5 183,-67.5 0,-67.5"/>
<text text-anchor="start" x="8" y="-85.5" font-family="Helvetica,sans-Serif" font-size="10.00">FiftyoneDegrees::DeviceDetection</text>
<text text-anchor="middle" x="91.5" y="-74.5" font-family="Helvetica,sans-Serif" font-size="10.00">::ConfigDeviceDetection</text>
</a>
</g>
</g>
<!-- Node4&#45;&gt;Node3 -->
<g id="edge1" class="edge">
<title>Node4&#45;&gt;Node3</title>
<path fill="none" stroke="midnightblue" d="M91.5,-57.11C91.5,-48.15 91.5,-38.32 91.5,-30.58"/>
<polygon fill="midnightblue" stroke="midnightblue" points="88,-57.4 91.5,-67.4 95,-57.4 88,-57.4"/>
</g>
<!-- Node5 -->
<g id="node3" class="node">
<title>Node5</title>
<g id="a_node3"><a xlink:href="class_fiftyone_degrees_1_1_common_1_1_config_base.html" target="_top" xlink:title="C++ class wrapper for the fiftyoneDegreesConfigBase configuration structure.">
<polygon fill="none" stroke="black" points="18.5,-134.5 18.5,-164.5 164.5,-164.5 164.5,-134.5 18.5,-134.5"/>
<text text-anchor="start" x="26.5" y="-152.5" font-family="Helvetica,sans-Serif" font-size="10.00">FiftyoneDegrees::Common</text>
<text text-anchor="middle" x="91.5" y="-141.5" font-family="Helvetica,sans-Serif" font-size="10.00">::ConfigBase</text>
</a>
</g>
</g>
<!-- Node5&#45;&gt;Node4 -->
<g id="edge2" class="edge">
<title>Node5&#45;&gt;Node4</title>
<path fill="none" stroke="midnightblue" d="M91.5,-124.11C91.5,-115.15 91.5,-105.32 91.5,-97.58"/>
<polygon fill="midnightblue" stroke="midnightblue" points="88,-124.4 91.5,-134.4 95,-124.4 88,-124.4"/>
</g>
</g>
</svg>
