<?xml version="1.0" encoding="UTF-8" standalone="no"?>
<!DOCTYPE svg PUBLIC "-//W3C//DTD SVG 1.1//EN"
 "http://www.w3.org/Graphics/SVG/1.1/DTD/svg11.dtd">
<!-- Generated by graphviz version 2.43.0 (0)
 -->
<!-- Title: FiftyoneDegrees::DeviceDetection::Hash::ValueMetaDataCollectionForProfileHash Pages: 1 -->
<svg width="256pt" height="275pt"
 viewBox="0.00 0.00 256.00 275.00" xmlns="http://www.w3.org/2000/svg" xmlns:xlink="http://www.w3.org/1999/xlink">
<g id="graph0" class="graph" transform="scale(1 1) rotate(0) translate(4 271)">
<title>FiftyoneDegrees::DeviceDetection::Hash::ValueMetaDataCollectionForProfileHash</title>
<!-- Node0 -->
<g id="node1" class="node">
<title>Node0</title>
<g id="a_node1"><a xlink:title="A collection of value meta data relating to a profile contained in a Hash engine.">
<polygon fill="#bfbfbf" stroke="black" points="0,-0.5 0,-30.5 248,-30.5 248,-0.5 0,-0.5"/>
<text text-anchor="start" x="8" y="-18.5" font-family="Helvetica,sans-Serif" font-size="10.00">FiftyoneDegrees::DeviceDetection</text>
<text text-anchor="middle" x="124" y="-7.5" font-family="Helvetica,sans-Serif" font-size="10.00">::Hash::ValueMetaDataCollectionForProfileHash</text>
</a>
</g>
</g>
<!-- Node1 -->
<g id="node2" class="node">
<title>Node1</title>
<g id="a_node2"><a xlink:href="class_fiftyone_degrees_1_1_device_detection_1_1_hash_1_1_value_meta_data_collection_base_hash.html" target="_top" xlink:title="A collection of all value meta data contained in a Hash engine.">
<polygon fill="none" stroke="black" points="11,-68.5 11,-98.5 237,-98.5 237,-68.5 11,-68.5"/>
<text text-anchor="start" x="19" y="-86.5" font-family="Helvetica,sans-Serif" font-size="10.00">FiftyoneDegrees::DeviceDetection</text>
<text text-anchor="middle" x="124" y="-75.5" font-family="Helvetica,sans-Serif" font-size="10.00">::Hash::ValueMetaDataCollectionBaseHash</text>
</a>
</g>
</g>
<!-- Node1&#45;&gt;Node0 -->
<g id="edge1" class="edge">
<title>Node1&#45;&gt;Node0</title>
<path fill="none" stroke="midnightblue" d="M124,-58.03C124,-48.86 124,-38.74 124,-30.79"/>
<polygon fill="midnightblue" stroke="midnightblue" points="120.5,-58.18 124,-68.18 127.5,-58.18 120.5,-58.18"/>
</g>
<!-- Node2 -->
<g id="node3" class="node">
<title>Node2</title>
<g id="a_node3"><a xlink:href="class_fiftyone_degrees_1_1_common_1_1_collection.html" target="_top" xlink:title=" ">
<polygon fill="none" stroke="black" points="34.5,-136.5 34.5,-177.5 213.5,-177.5 213.5,-136.5 34.5,-136.5"/>
<text text-anchor="start" x="42.5" y="-165.5" font-family="Helvetica,sans-Serif" font-size="10.00">FiftyoneDegrees::Common</text>
<text text-anchor="start" x="42.5" y="-154.5" font-family="Helvetica,sans-Serif" font-size="10.00">::Collection&lt; ValueMetaDataKey,</text>
<text text-anchor="middle" x="124" y="-143.5" font-family="Helvetica,sans-Serif" font-size="10.00"> ValueMetaData &gt;</text>
</a>
</g>
</g>
<!-- Node2&#45;&gt;Node1 -->
<g id="edge2" class="edge">
<title>Node2&#45;&gt;Node1</title>
<path fill="none" stroke="midnightblue" d="M124,-126.16C124,-116.69 124,-106.65 124,-98.8"/>
<polygon fill="midnightblue" stroke="midnightblue" points="120.5,-126.46 124,-136.46 127.5,-126.46 120.5,-126.46"/>
</g>
<!-- Node3 -->
<g id="node4" class="node">
<title>Node3</title>
<g id="a_node4"><a xlink:href="class_fiftyone_degrees_1_1_common_1_1_collection.html" target="_top" xlink:title="A group of items accessible by index or key.">
<polygon fill="none" stroke="black" points="51,-236.5 51,-266.5 197,-266.5 197,-236.5 51,-236.5"/>
<text text-anchor="start" x="59" y="-254.5" font-family="Helvetica,sans-Serif" font-size="10.00">FiftyoneDegrees::Common</text>
<text text-anchor="middle" x="124" y="-243.5" font-family="Helvetica,sans-Serif" font-size="10.00">::Collection&lt; K, V &gt;</text>
</a>
</g>
</g>
<!-- Node3&#45;&gt;Node2 -->
<g id="edge3" class="edge">
<title>Node3&#45;&gt;Node2</title>
<path fill="none" stroke="orange" stroke-dasharray="5,2" d="M124,-226.28C124,-211.14 124,-191.88 124,-177.68"/>
<polygon fill="orange" stroke="orange" points="120.5,-226.45 124,-236.45 127.5,-226.45 120.5,-226.45"/>
<text text-anchor="start" x="124" y="-210" font-family="Helvetica,sans-Serif" font-size="10.00"> &lt; ValueMetaDataKey,</text>
<text text-anchor="middle" x="179.5" y="-199" font-family="Helvetica,sans-Serif" font-size="10.00"> ValueMetaData &gt;</text>
</g>
</g>
</svg>
