<?xml version="1.0" encoding="UTF-8" standalone="no"?>
<!DOCTYPE svg PUBLIC "-//W3C//DTD SVG 1.1//EN"
 "http://www.w3.org/Graphics/SVG/1.1/DTD/svg11.dtd">
<!-- Generated by graphviz version 2.43.0 (0)
 -->
<!-- Title: FiftyoneDegrees::DeviceDetection::Hash::ResultsHash Pages: 1 -->
<svg width="487pt" height="467pt"
 viewBox="0.00 0.00 487.00 467.00" xmlns="http://www.w3.org/2000/svg" xmlns:xlink="http://www.w3.org/1999/xlink">
<g id="graph0" class="graph" transform="scale(1 1) rotate(0) translate(4 463)">
<title>FiftyoneDegrees::DeviceDetection::Hash::ResultsHash</title>
<!-- Node3 -->
<g id="node1" class="node">
<title>Node3</title>
<g id="a_node1"><a xlink:title="Encapsulates the results of a Hash device detection engine&#39;s processing.">
<polygon fill="#bfbfbf" stroke="black" points="26,-0.5 26,-30.5 209,-30.5 209,-0.5 26,-0.5"/>
<text text-anchor="start" x="34" y="-18.5" font-family="Helvetica,sans-Serif" font-size="10.00">FiftyoneDegrees::DeviceDetection</text>
<text text-anchor="middle" x="117.5" y="-7.5" font-family="Helvetica,sans-Serif" font-size="10.00">::Hash::ResultsHash</text>
</a>
</g>
</g>
<!-- Node4 -->
<g id="node2" class="node">
<title>Node4</title>
<g id="a_node2"><a xlink:href="class_fiftyone_degrees_1_1_device_detection_1_1_results_device_detection.html" target="_top" xlink:title="Encapsulates the results of a device detection engine&#39;s processing.">
<polygon fill="none" stroke="black" points="26,-68.5 26,-98.5 209,-98.5 209,-68.5 26,-68.5"/>
<text text-anchor="start" x="34" y="-86.5" font-family="Helvetica,sans-Serif" font-size="10.00">FiftyoneDegrees::DeviceDetection</text>
<text text-anchor="middle" x="117.5" y="-75.5" font-family="Helvetica,sans-Serif" font-size="10.00">::ResultsDeviceDetection</text>
</a>
</g>
</g>
<!-- Node4&#45;&gt;Node3 -->
<g id="edge1" class="edge">
<title>Node4&#45;&gt;Node3</title>
<path fill="none" stroke="midnightblue" d="M117.5,-58.03C117.5,-48.86 117.5,-38.74 117.5,-30.79"/>
<polygon fill="midnightblue" stroke="midnightblue" points="114,-58.18 117.5,-68.18 121,-58.18 114,-58.18"/>
</g>
<!-- Node5 -->
<g id="node3" class="node">
<title>Node5</title>
<g id="a_node3"><a xlink:href="class_fiftyone_degrees_1_1_common_1_1_results_base.html" target="_top" xlink:title="Encapsulates the results of an engine&#39;s processing.">
<polygon fill="none" stroke="black" points="44.5,-136.5 44.5,-166.5 190.5,-166.5 190.5,-136.5 44.5,-136.5"/>
<text text-anchor="start" x="52.5" y="-154.5" font-family="Helvetica,sans-Serif" font-size="10.00">FiftyoneDegrees::Common</text>
<text text-anchor="middle" x="117.5" y="-143.5" font-family="Helvetica,sans-Serif" font-size="10.00">::ResultsBase</text>
</a>
</g>
</g>
<!-- Node5&#45;&gt;Node4 -->
<g id="edge2" class="edge">
<title>Node5&#45;&gt;Node4</title>
<path fill="none" stroke="midnightblue" d="M117.5,-126.03C117.5,-116.86 117.5,-106.74 117.5,-98.79"/>
<polygon fill="midnightblue" stroke="midnightblue" points="114,-126.18 117.5,-136.18 121,-126.18 114,-126.18"/>
</g>
<!-- Node6 -->
<g id="node4" class="node">
<title>Node6</title>
<g id="a_node4"><a xlink:href="structfiftyone_degrees_property_available_array.html" target="_top" xlink:title="Array of items of type fiftyoneDegreesPropertyAvailable used to easily access and track the size of t...">
<polygon fill="none" stroke="black" points="27.5,-214.5 27.5,-244.5 207.5,-244.5 207.5,-214.5 27.5,-214.5"/>
<text text-anchor="start" x="35.5" y="-232.5" font-family="Helvetica,sans-Serif" font-size="10.00">fiftyoneDegreesPropertyAvailable</text>
<text text-anchor="middle" x="117.5" y="-221.5" font-family="Helvetica,sans-Serif" font-size="10.00">Array</text>
</a>
</g>
</g>
<!-- Node6&#45;&gt;Node5 -->
<g id="edge3" class="edge">
<title>Node6&#45;&gt;Node5</title>
<path fill="none" stroke="#9a32cd" stroke-dasharray="5,2" d="M117.5,-204.09C117.5,-191.76 117.5,-177.22 117.5,-166.73"/>
<polygon fill="#9a32cd" stroke="#9a32cd" points="114,-204.2 117.5,-214.2 121,-204.21 114,-204.2"/>
<text text-anchor="middle" x="142" y="-188" font-family="Helvetica,sans-Serif" font-size="10.00"> available</text>
</g>
<!-- Node7 -->
<g id="node5" class="node">
<title>Node7</title>
<g id="a_node5"><a xlink:href="structfiftyone_degrees_property_available.html" target="_top" xlink:title="Used to access the property item quickly without the need to search.">
<polygon fill="none" stroke="black" points="27.5,-293.5 27.5,-312.5 207.5,-312.5 207.5,-293.5 27.5,-293.5"/>
<text text-anchor="middle" x="117.5" y="-300.5" font-family="Helvetica,sans-Serif" font-size="10.00">fiftyoneDegreesPropertyAvailable</text>
</a>
</g>
</g>
<!-- Node7&#45;&gt;Node6 -->
<g id="edge4" class="edge">
<title>Node7&#45;&gt;Node6</title>
<path fill="none" stroke="#9a32cd" stroke-dasharray="5,2" d="M117.5,-282.9C117.5,-270.82 117.5,-255.47 117.5,-244.51"/>
<polygon fill="#9a32cd" stroke="#9a32cd" points="114,-283.23 117.5,-293.23 121,-283.23 114,-283.23"/>
<text text-anchor="middle" x="133" y="-266" font-family="Helvetica,sans-Serif" font-size="10.00"> items</text>
</g>
<!-- Node8 -->
<g id="node6" class="node">
<title>Node8</title>
<g id="a_node6"><a xlink:href="structfiftyone_degrees_evidence_property_index_array.html" target="_top" xlink:title="Array of items of type fiftyoneDegreesEvidencePropertyIndex used to easily access and track the size ...">
<polygon fill="none" stroke="black" points="0,-361.5 0,-391.5 179,-391.5 179,-361.5 0,-361.5"/>
<text text-anchor="start" x="8" y="-379.5" font-family="Helvetica,sans-Serif" font-size="10.00">fiftyoneDegreesEvidenceProperty</text>
<text text-anchor="middle" x="89.5" y="-368.5" font-family="Helvetica,sans-Serif" font-size="10.00">IndexArray</text>
</a>
</g>
</g>
<!-- Node8&#45;&gt;Node7 -->
<g id="edge5" class="edge">
<title>Node8&#45;&gt;Node7</title>
<path fill="none" stroke="#9a32cd" stroke-dasharray="5,2" d="M92.79,-351.18C94.12,-344.79 95.96,-338.01 98.5,-332 101.43,-325.07 106.18,-318.07 110.2,-312.81"/>
<polygon fill="#9a32cd" stroke="#9a32cd" points="89.28,-350.91 91,-361.37 96.17,-352.12 89.28,-350.91"/>
<text text-anchor="middle" x="147" y="-335" font-family="Helvetica,sans-Serif" font-size="10.00"> evidenceProperties</text>
</g>
<!-- Node9 -->
<g id="node7" class="node">
<title>Node9</title>
<g id="a_node7"><a xlink:href="structfiftyone_degrees_collection_item.html" target="_top" xlink:title="Used to store a handle to the underlying item that could be used to release the item when it&#39;s finish...">
<polygon fill="none" stroke="black" points="197,-367 197,-386 362,-386 362,-367 197,-367"/>
<text text-anchor="middle" x="279.5" y="-374" font-family="Helvetica,sans-Serif" font-size="10.00">fiftyoneDegreesCollectionItem</text>
</a>
</g>
</g>
<!-- Node9&#45;&gt;Node7 -->
<g id="edge6" class="edge">
<title>Node9&#45;&gt;Node7</title>
<path fill="none" stroke="#9a32cd" stroke-dasharray="5,2" d="M255.33,-361.89C238.76,-352.84 216.14,-341 195.5,-332 178.75,-324.7 159.42,-317.75 144.2,-312.6"/>
<polygon fill="#9a32cd" stroke="#9a32cd" points="253.87,-365.08 264.32,-366.86 257.26,-358.96 253.87,-365.08"/>
<text text-anchor="middle" x="235" y="-335" font-family="Helvetica,sans-Serif" font-size="10.00"> name</text>
</g>
<!-- Node10 -->
<g id="node8" class="node">
<title>Node10</title>
<g id="a_node8"><a xlink:href="structfiftyone_degrees_collection.html" target="_top" xlink:title="All the shared methods and fields required by file, memory and cached collections.">
<polygon fill="none" stroke="black" points="246,-293.5 246,-312.5 389,-312.5 389,-293.5 246,-293.5"/>
<text text-anchor="middle" x="317.5" y="-300.5" font-family="Helvetica,sans-Serif" font-size="10.00">fiftyoneDegreesCollection</text>
</a>
</g>
</g>
<!-- Node9&#45;&gt;Node10 -->
<g id="edge8" class="edge">
<title>Node9&#45;&gt;Node10</title>
<path fill="none" stroke="#9a32cd" stroke-dasharray="5,2" d="M271.6,-357.51C269.21,-349.3 268.22,-339.71 272.5,-332 277.33,-323.31 286.09,-316.97 294.61,-312.54"/>
<polygon fill="#9a32cd" stroke="#9a32cd" points="268.33,-358.76 275.08,-366.93 274.9,-356.34 268.33,-358.76"/>
<text text-anchor="middle" x="292.5" y="-335" font-family="Helvetica,sans-Serif" font-size="10.00"> release</text>
</g>
<!-- Node10&#45;&gt;Node9 -->
<g id="edge7" class="edge">
<title>Node10&#45;&gt;Node9</title>
<path fill="none" stroke="#9a32cd" stroke-dasharray="5,2" d="M320.03,-322.72C320.17,-329.4 319.41,-336.79 316.5,-343 311.79,-353.07 302.32,-361.29 294.14,-366.95"/>
<polygon fill="#9a32cd" stroke="#9a32cd" points="323.5,-322.18 319.17,-312.51 316.52,-322.77 323.5,-322.18"/>
<text text-anchor="middle" x="344" y="-335" font-family="Helvetica,sans-Serif" font-size="10.00"> collection</text>
</g>
<!-- Node10&#45;&gt;Node10 -->
<g id="edge9" class="edge">
<title>Node10&#45;&gt;Node10</title>
<path fill="none" stroke="#9a32cd" stroke-dasharray="5,2" d="M399.11,-307.41C404.04,-306.36 407,-304.89 407,-303 407,-300.04 399.79,-298.12 389.13,-297.22"/>
<polygon fill="#9a32cd" stroke="#9a32cd" points="398.56,-303.96 389.13,-308.78 399.51,-310.89 398.56,-303.96"/>
<text text-anchor="middle" x="443" y="-306" font-family="Helvetica,sans-Serif" font-size="10.00"> freeCollection</text>
<text text-anchor="middle" x="443" y="-295" font-family="Helvetica,sans-Serif" font-size="10.00">get</text>
</g>
<!-- Node11 -->
<g id="node9" class="node">
<title>Node11</title>
<g id="a_node9"><a xlink:href="structfiftyone_degrees_data.html" target="_top" xlink:title="Data structure used for reusing memory which may have been allocated in a previous operation.">
<polygon fill="none" stroke="black" points="221,-439.5 221,-458.5 338,-458.5 338,-439.5 221,-439.5"/>
<text text-anchor="middle" x="279.5" y="-446.5" font-family="Helvetica,sans-Serif" font-size="10.00">fiftyoneDegreesData</text>
</a>
</g>
</g>
<!-- Node11&#45;&gt;Node9 -->
<g id="edge10" class="edge">
<title>Node11&#45;&gt;Node9</title>
<path fill="none" stroke="#9a32cd" stroke-dasharray="5,2" d="M279.5,-428.94C279.5,-415.03 279.5,-396.82 279.5,-386.22"/>
<polygon fill="#9a32cd" stroke="#9a32cd" points="276,-429.36 279.5,-439.36 283,-429.36 276,-429.36"/>
<text text-anchor="middle" x="292" y="-413" font-family="Helvetica,sans-Serif" font-size="10.00"> data</text>
</g>
</g>
</svg>
