<?xml version="1.0" encoding="UTF-8" standalone="no"?>
<!DOCTYPE svg PUBLIC "-//W3C//DTD SVG 1.1//EN"
 "http://www.w3.org/Graphics/SVG/1.1/DTD/svg11.dtd">
<!-- Generated by graphviz version 2.43.0 (0)
 -->
<!-- Title: FiftyoneDegrees::DeviceDetection::Hash::ValueMetaDataCollectionBaseHash Pages: 1 -->
<svg width="1038pt" height="137pt"
 viewBox="0.00 0.00 1038.00 137.00" xmlns="http://www.w3.org/2000/svg" xmlns:xlink="http://www.w3.org/1999/xlink">
<g id="graph0" class="graph" transform="scale(1 1) rotate(0) translate(4 133)">
<title>FiftyoneDegrees::DeviceDetection::Hash::ValueMetaDataCollectionBaseHash</title>
<!-- Node0 -->
<g id="node1" class="node">
<title>Node0</title>
<g id="a_node1"><a xlink:title="A collection of all value meta data contained in a Hash engine.">
<polygon fill="#bfbfbf" stroke="black" points="509,-49.5 509,-79.5 735,-79.5 735,-49.5 509,-49.5"/>
<text text-anchor="start" x="517" y="-67.5" font-family="Helvetica,sans-Serif" font-size="10.00">FiftyoneDegrees::DeviceDetection</text>
<text text-anchor="middle" x="622" y="-56.5" font-family="Helvetica,sans-Serif" font-size="10.00">::Hash::ValueMetaDataCollectionBaseHash</text>
</a>
</g>
</g>
<!-- Node3 -->
<g id="node4" class="node">
<title>Node3</title>
<g id="a_node4"><a xlink:href="class_fiftyone_degrees_1_1_device_detection_1_1_hash_1_1_value_meta_data_collection_for_profile_hash.html" target="_top" xlink:title="A collection of value meta data relating to a profile contained in a Hash engine.">
<polygon fill="none" stroke="black" points="777,-98.5 777,-128.5 1025,-128.5 1025,-98.5 777,-98.5"/>
<text text-anchor="start" x="785" y="-116.5" font-family="Helvetica,sans-Serif" font-size="10.00">FiftyoneDegrees::DeviceDetection</text>
<text text-anchor="middle" x="901" y="-105.5" font-family="Helvetica,sans-Serif" font-size="10.00">::Hash::ValueMetaDataCollectionForProfileHash</text>
</a>
</g>
</g>
<!-- Node0&#45;&gt;Node3 -->
<g id="edge3" class="edge">
<title>Node0&#45;&gt;Node3</title>
<path fill="none" stroke="midnightblue" d="M718.1,-81.32C749.62,-86.9 784.47,-93.06 815.17,-98.49"/>
<polygon fill="midnightblue" stroke="midnightblue" points="718.45,-77.83 707.99,-79.53 717.23,-84.72 718.45,-77.83"/>
</g>
<!-- Node4 -->
<g id="node5" class="node">
<title>Node4</title>
<g id="a_node5"><a xlink:href="class_fiftyone_degrees_1_1_device_detection_1_1_hash_1_1_value_meta_data_collection_for_property_hash.html" target="_top" xlink:title="A collection of value meta data relating to a property contained in a Hash engine.">
<polygon fill="none" stroke="black" points="772,-49.5 772,-79.5 1030,-79.5 1030,-49.5 772,-49.5"/>
<text text-anchor="start" x="780" y="-67.5" font-family="Helvetica,sans-Serif" font-size="10.00">FiftyoneDegrees::DeviceDetection</text>
<text text-anchor="middle" x="901" y="-56.5" font-family="Helvetica,sans-Serif" font-size="10.00">::Hash::ValueMetaDataCollectionForPropertyHash</text>
</a>
</g>
</g>
<!-- Node0&#45;&gt;Node4 -->
<g id="edge4" class="edge">
<title>Node0&#45;&gt;Node4</title>
<path fill="none" stroke="midnightblue" d="M745.45,-64.5C754.16,-64.5 762.96,-64.5 771.7,-64.5"/>
<polygon fill="midnightblue" stroke="midnightblue" points="745.27,-61 735.27,-64.5 745.27,-68 745.27,-61"/>
</g>
<!-- Node5 -->
<g id="node6" class="node">
<title>Node5</title>
<g id="a_node6"><a xlink:href="class_fiftyone_degrees_1_1_device_detection_1_1_hash_1_1_value_meta_data_collection_hash.html" target="_top" xlink:title="A collection of all value meta data contained in a Hash engine.">
<polygon fill="none" stroke="black" points="800,-0.5 800,-30.5 1002,-30.5 1002,-0.5 800,-0.5"/>
<text text-anchor="start" x="808" y="-18.5" font-family="Helvetica,sans-Serif" font-size="10.00">FiftyoneDegrees::DeviceDetection</text>
<text text-anchor="middle" x="901" y="-7.5" font-family="Helvetica,sans-Serif" font-size="10.00">::Hash::ValueMetaDataCollectionHash</text>
</a>
</g>
</g>
<!-- Node0&#45;&gt;Node5 -->
<g id="edge5" class="edge">
<title>Node0&#45;&gt;Node5</title>
<path fill="none" stroke="midnightblue" d="M718.1,-47.68C749.62,-42.1 784.47,-35.94 815.17,-30.51"/>
<polygon fill="midnightblue" stroke="midnightblue" points="717.23,-44.28 707.99,-49.47 718.45,-51.17 717.23,-44.28"/>
</g>
<!-- Node1 -->
<g id="node2" class="node">
<title>Node1</title>
<g id="a_node2"><a xlink:href="class_fiftyone_degrees_1_1_common_1_1_collection.html" target="_top" xlink:title=" ">
<polygon fill="none" stroke="black" points="293,-44 293,-85 472,-85 472,-44 293,-44"/>
<text text-anchor="start" x="301" y="-73" font-family="Helvetica,sans-Serif" font-size="10.00">FiftyoneDegrees::Common</text>
<text text-anchor="start" x="301" y="-62" font-family="Helvetica,sans-Serif" font-size="10.00">::Collection&lt; ValueMetaDataKey,</text>
<text text-anchor="middle" x="382.5" y="-51" font-family="Helvetica,sans-Serif" font-size="10.00"> ValueMetaData &gt;</text>
</a>
</g>
</g>
<!-- Node1&#45;&gt;Node0 -->
<g id="edge1" class="edge">
<title>Node1&#45;&gt;Node0</title>
<path fill="none" stroke="midnightblue" d="M482.37,-64.5C491.03,-64.5 499.85,-64.5 508.61,-64.5"/>
<polygon fill="midnightblue" stroke="midnightblue" points="482.27,-61 472.27,-64.5 482.27,-68 482.27,-61"/>
</g>
<!-- Node2 -->
<g id="node3" class="node">
<title>Node2</title>
<g id="a_node3"><a xlink:href="class_fiftyone_degrees_1_1_common_1_1_collection.html" target="_top" xlink:title="A group of items accessible by index or key.">
<polygon fill="none" stroke="black" points="0,-49.5 0,-79.5 146,-79.5 146,-49.5 0,-49.5"/>
<text text-anchor="start" x="8" y="-67.5" font-family="Helvetica,sans-Serif" font-size="10.00">FiftyoneDegrees::Common</text>
<text text-anchor="middle" x="73" y="-56.5" font-family="Helvetica,sans-Serif" font-size="10.00">::Collection&lt; K, V &gt;</text>
</a>
</g>
</g>
<!-- Node2&#45;&gt;Node1 -->
<g id="edge2" class="edge">
<title>Node2&#45;&gt;Node1</title>
<path fill="none" stroke="orange" stroke-dasharray="5,2" d="M156.32,-64.5C198.47,-64.5 249.82,-64.5 292.83,-64.5"/>
<polygon fill="orange" stroke="orange" points="156.1,-61 146.1,-64.5 156.1,-68 156.1,-61"/>
<text text-anchor="start" x="164" y="-78.5" font-family="Helvetica,sans-Serif" font-size="10.00"> &lt; ValueMetaDataKey,</text>
<text text-anchor="middle" x="219.5" y="-67.5" font-family="Helvetica,sans-Serif" font-size="10.00"> ValueMetaData &gt;</text>
</g>
</g>
</svg>
