<?xml version="1.0" encoding="UTF-8" standalone="no"?>
<!DOCTYPE svg PUBLIC "-//W3C//DTD SVG 1.1//EN"
 "http://www.w3.org/Graphics/SVG/1.1/DTD/svg11.dtd">
<!-- Generated by graphviz version 2.43.0 (0)
 -->
<!-- Title: FiftyoneDegrees::DeviceDetection::ResultsDeviceDetection Pages: 1 -->
<svg width="487pt" height="399pt"
 viewBox="0.00 0.00 487.00 399.00" xmlns="http://www.w3.org/2000/svg" xmlns:xlink="http://www.w3.org/1999/xlink">
<g id="graph0" class="graph" transform="scale(1 1) rotate(0) translate(4 395)">
<title>FiftyoneDegrees::DeviceDetection::ResultsDeviceDetection</title>
<!-- Node3 -->
<g id="node1" class="node">
<title>Node3</title>
<g id="a_node1"><a xlink:title="Encapsulates the results of a device detection engine&#39;s processing.">
<polygon fill="#bfbfbf" stroke="black" points="26,-0.5 26,-30.5 209,-30.5 209,-0.5 26,-0.5"/>
<text text-anchor="start" x="34" y="-18.5" font-family="Helvetica,sans-Serif" font-size="10.00">FiftyoneDegrees::DeviceDetection</text>
<text text-anchor="middle" x="117.5" y="-7.5" font-family="Helvetica,sans-Serif" font-size="10.00">::ResultsDeviceDetection</text>
</a>
</g>
</g>
<!-- Node4 -->
<g id="node2" class="node">
<title>Node4</title>
<g id="a_node2"><a xlink:href="class_fiftyone_degrees_1_1_common_1_1_results_base.html" target="_top" xlink:title="Encapsulates the results of an engine&#39;s processing.">
<polygon fill="none" stroke="black" points="44.5,-68.5 44.5,-98.5 190.5,-98.5 190.5,-68.5 44.5,-68.5"/>
<text text-anchor="start" x="52.5" y="-86.5" font-family="Helvetica,sans-Serif" font-size="10.00">FiftyoneDegrees::Common</text>
<text text-anchor="middle" x="117.5" y="-75.5" font-family="Helvetica,sans-Serif" font-size="10.00">::ResultsBase</text>
</a>
</g>
</g>
<!-- Node4&#45;&gt;Node3 -->
<g id="edge1" class="edge">
<title>Node4&#45;&gt;Node3</title>
<path fill="none" stroke="midnightblue" d="M117.5,-58.03C117.5,-48.86 117.5,-38.74 117.5,-30.79"/>
<polygon fill="midnightblue" stroke="midnightblue" points="114,-58.18 117.5,-68.18 121,-58.18 114,-58.18"/>
</g>
<!-- Node5 -->
<g id="node3" class="node">
<title>Node5</title>
<g id="a_node3"><a xlink:href="structfiftyone_degrees_property_available_array.html" target="_top" xlink:title="Array of items of type fiftyoneDegreesPropertyAvailable used to easily access and track the size of t...">
<polygon fill="none" stroke="black" points="27.5,-146.5 27.5,-176.5 207.5,-176.5 207.5,-146.5 27.5,-146.5"/>
<text text-anchor="start" x="35.5" y="-164.5" font-family="Helvetica,sans-Serif" font-size="10.00">fiftyoneDegreesPropertyAvailable</text>
<text text-anchor="middle" x="117.5" y="-153.5" font-family="Helvetica,sans-Serif" font-size="10.00">Array</text>
</a>
</g>
</g>
<!-- Node5&#45;&gt;Node4 -->
<g id="edge2" class="edge">
<title>Node5&#45;&gt;Node4</title>
<path fill="none" stroke="#9a32cd" stroke-dasharray="5,2" d="M117.5,-136.09C117.5,-123.76 117.5,-109.22 117.5,-98.73"/>
<polygon fill="#9a32cd" stroke="#9a32cd" points="114,-136.2 117.5,-146.2 121,-136.21 114,-136.2"/>
<text text-anchor="middle" x="142" y="-120" font-family="Helvetica,sans-Serif" font-size="10.00"> available</text>
</g>
<!-- Node6 -->
<g id="node4" class="node">
<title>Node6</title>
<g id="a_node4"><a xlink:href="structfiftyone_degrees_property_available.html" target="_top" xlink:title="Used to access the property item quickly without the need to search.">
<polygon fill="none" stroke="black" points="27.5,-225.5 27.5,-244.5 207.5,-244.5 207.5,-225.5 27.5,-225.5"/>
<text text-anchor="middle" x="117.5" y="-232.5" font-family="Helvetica,sans-Serif" font-size="10.00">fiftyoneDegreesPropertyAvailable</text>
</a>
</g>
</g>
<!-- Node6&#45;&gt;Node5 -->
<g id="edge3" class="edge">
<title>Node6&#45;&gt;Node5</title>
<path fill="none" stroke="#9a32cd" stroke-dasharray="5,2" d="M117.5,-214.9C117.5,-202.82 117.5,-187.47 117.5,-176.51"/>
<polygon fill="#9a32cd" stroke="#9a32cd" points="114,-215.23 117.5,-225.23 121,-215.23 114,-215.23"/>
<text text-anchor="middle" x="133" y="-198" font-family="Helvetica,sans-Serif" font-size="10.00"> items</text>
</g>
<!-- Node7 -->
<g id="node5" class="node">
<title>Node7</title>
<g id="a_node5"><a xlink:href="structfiftyone_degrees_evidence_property_index_array.html" target="_top" xlink:title="Array of items of type fiftyoneDegreesEvidencePropertyIndex used to easily access and track the size ...">
<polygon fill="none" stroke="black" points="0,-293.5 0,-323.5 179,-323.5 179,-293.5 0,-293.5"/>
<text text-anchor="start" x="8" y="-311.5" font-family="Helvetica,sans-Serif" font-size="10.00">fiftyoneDegreesEvidenceProperty</text>
<text text-anchor="middle" x="89.5" y="-300.5" font-family="Helvetica,sans-Serif" font-size="10.00">IndexArray</text>
</a>
</g>
</g>
<!-- Node7&#45;&gt;Node6 -->
<g id="edge4" class="edge">
<title>Node7&#45;&gt;Node6</title>
<path fill="none" stroke="#9a32cd" stroke-dasharray="5,2" d="M92.79,-283.18C94.12,-276.79 95.96,-270.01 98.5,-264 101.43,-257.07 106.18,-250.07 110.2,-244.81"/>
<polygon fill="#9a32cd" stroke="#9a32cd" points="89.28,-282.91 91,-293.37 96.17,-284.12 89.28,-282.91"/>
<text text-anchor="middle" x="147" y="-267" font-family="Helvetica,sans-Serif" font-size="10.00"> evidenceProperties</text>
</g>
<!-- Node8 -->
<g id="node6" class="node">
<title>Node8</title>
<g id="a_node6"><a xlink:href="structfiftyone_degrees_collection_item.html" target="_top" xlink:title="Used to store a handle to the underlying item that could be used to release the item when it&#39;s finish...">
<polygon fill="none" stroke="black" points="197,-299 197,-318 362,-318 362,-299 197,-299"/>
<text text-anchor="middle" x="279.5" y="-306" font-family="Helvetica,sans-Serif" font-size="10.00">fiftyoneDegreesCollectionItem</text>
</a>
</g>
</g>
<!-- Node8&#45;&gt;Node6 -->
<g id="edge5" class="edge">
<title>Node8&#45;&gt;Node6</title>
<path fill="none" stroke="#9a32cd" stroke-dasharray="5,2" d="M255.33,-293.89C238.76,-284.84 216.14,-273 195.5,-264 178.75,-256.7 159.42,-249.75 144.2,-244.6"/>
<polygon fill="#9a32cd" stroke="#9a32cd" points="253.87,-297.08 264.32,-298.86 257.26,-290.96 253.87,-297.08"/>
<text text-anchor="middle" x="235" y="-267" font-family="Helvetica,sans-Serif" font-size="10.00"> name</text>
</g>
<!-- Node9 -->
<g id="node7" class="node">
<title>Node9</title>
<g id="a_node7"><a xlink:href="structfiftyone_degrees_collection.html" target="_top" xlink:title="All the shared methods and fields required by file, memory and cached collections.">
<polygon fill="none" stroke="black" points="246,-225.5 246,-244.5 389,-244.5 389,-225.5 246,-225.5"/>
<text text-anchor="middle" x="317.5" y="-232.5" font-family="Helvetica,sans-Serif" font-size="10.00">fiftyoneDegreesCollection</text>
</a>
</g>
</g>
<!-- Node8&#45;&gt;Node9 -->
<g id="edge7" class="edge">
<title>Node8&#45;&gt;Node9</title>
<path fill="none" stroke="#9a32cd" stroke-dasharray="5,2" d="M271.6,-289.51C269.21,-281.3 268.22,-271.71 272.5,-264 277.33,-255.31 286.09,-248.97 294.61,-244.54"/>
<polygon fill="#9a32cd" stroke="#9a32cd" points="268.33,-290.76 275.08,-298.93 274.9,-288.34 268.33,-290.76"/>
<text text-anchor="middle" x="292.5" y="-267" font-family="Helvetica,sans-Serif" font-size="10.00"> release</text>
</g>
<!-- Node9&#45;&gt;Node8 -->
<g id="edge6" class="edge">
<title>Node9&#45;&gt;Node8</title>
<path fill="none" stroke="#9a32cd" stroke-dasharray="5,2" d="M320.03,-254.72C320.17,-261.4 319.41,-268.79 316.5,-275 311.79,-285.07 302.32,-293.29 294.14,-298.95"/>
<polygon fill="#9a32cd" stroke="#9a32cd" points="323.5,-254.18 319.17,-244.51 316.52,-254.77 323.5,-254.18"/>
<text text-anchor="middle" x="344" y="-267" font-family="Helvetica,sans-Serif" font-size="10.00"> collection</text>
</g>
<!-- Node9&#45;&gt;Node9 -->
<g id="edge8" class="edge">
<title>Node9&#45;&gt;Node9</title>
<path fill="none" stroke="#9a32cd" stroke-dasharray="5,2" d="M399.11,-239.41C404.04,-238.36 407,-236.89 407,-235 407,-232.04 399.79,-230.12 389.13,-229.22"/>
<polygon fill="#9a32cd" stroke="#9a32cd" points="398.56,-235.96 389.13,-240.78 399.51,-242.89 398.56,-235.96"/>
<text text-anchor="middle" x="443" y="-238" font-family="Helvetica,sans-Serif" font-size="10.00"> freeCollection</text>
<text text-anchor="middle" x="443" y="-227" font-family="Helvetica,sans-Serif" font-size="10.00">get</text>
</g>
<!-- Node10 -->
<g id="node8" class="node">
<title>Node10</title>
<g id="a_node8"><a xlink:href="structfiftyone_degrees_data.html" target="_top" xlink:title="Data structure used for reusing memory which may have been allocated in a previous operation.">
<polygon fill="none" stroke="black" points="221,-371.5 221,-390.5 338,-390.5 338,-371.5 221,-371.5"/>
<text text-anchor="middle" x="279.5" y="-378.5" font-family="Helvetica,sans-Serif" font-size="10.00">fiftyoneDegreesData</text>
</a>
</g>
</g>
<!-- Node10&#45;&gt;Node8 -->
<g id="edge9" class="edge">
<title>Node10&#45;&gt;Node8</title>
<path fill="none" stroke="#9a32cd" stroke-dasharray="5,2" d="M279.5,-360.94C279.5,-347.03 279.5,-328.82 279.5,-318.22"/>
<polygon fill="#9a32cd" stroke="#9a32cd" points="276,-361.36 279.5,-371.36 283,-361.36 276,-361.36"/>
<text text-anchor="middle" x="292" y="-345" font-family="Helvetica,sans-Serif" font-size="10.00"> data</text>
</g>
</g>
</svg>
