<?xml version="1.0" encoding="UTF-8" standalone="no"?>
<!DOCTYPE svg PUBLIC "-//W3C//DTD SVG 1.1//EN"
 "http://www.w3.org/Graphics/SVG/1.1/DTD/svg11.dtd">
<!-- Generated by graphviz version 2.43.0 (0)
 -->
<!-- Title: FiftyoneDegrees::DeviceDetection::Hash::EngineHash Pages: 1 -->
<svg width="1358pt" height="276pt"
 viewBox="0.00 0.00 1358.00 275.50" xmlns="http://www.w3.org/2000/svg" xmlns:xlink="http://www.w3.org/1999/xlink">
<g id="graph0" class="graph" transform="scale(1 1) rotate(0) translate(4 271.5)">
<title>FiftyoneDegrees::DeviceDetection::Hash::EngineHash</title>
<!-- Node3 -->
<g id="node1" class="node">
<title>Node3</title>
<g id="a_node1"><a xlink:title="Encapsulates the Hash engine class which implements EngineDeviceDetection.">
<polygon fill="#bfbfbf" stroke="black" points="1167,-14 1167,-44 1350,-44 1350,-14 1167,-14"/>
<text text-anchor="start" x="1175" y="-32" font-family="Helvetica,sans-Serif" font-size="10.00">FiftyoneDegrees::DeviceDetection</text>
<text text-anchor="middle" x="1258.5" y="-21" font-family="Helvetica,sans-Serif" font-size="10.00">::Hash::EngineHash</text>
</a>
</g>
</g>
<!-- Node4 -->
<g id="node2" class="node">
<title>Node4</title>
<g id="a_node2"><a xlink:href="class_fiftyone_degrees_1_1_device_detection_1_1_engine_device_detection.html" target="_top" xlink:title="Encapsulates the device detection engine class to be extended by device detection engine implementati...">
<polygon fill="none" stroke="black" points="947,-14 947,-44 1130,-44 1130,-14 947,-14"/>
<text text-anchor="start" x="955" y="-32" font-family="Helvetica,sans-Serif" font-size="10.00">FiftyoneDegrees::DeviceDetection</text>
<text text-anchor="middle" x="1038.5" y="-21" font-family="Helvetica,sans-Serif" font-size="10.00">::EngineDeviceDetection</text>
</a>
</g>
</g>
<!-- Node4&#45;&gt;Node3 -->
<g id="edge1" class="edge">
<title>Node4&#45;&gt;Node3</title>
<path fill="none" stroke="midnightblue" d="M1140.1,-29C1149.03,-29 1158.03,-29 1166.87,-29"/>
<polygon fill="midnightblue" stroke="midnightblue" points="1140.06,-25.5 1130.06,-29 1140.06,-32.5 1140.06,-25.5"/>
</g>
<!-- Node5 -->
<g id="node3" class="node">
<title>Node5</title>
<g id="a_node3"><a xlink:href="class_fiftyone_degrees_1_1_common_1_1_engine_base.html" target="_top" xlink:title="Encapsulates the engine class to be extended by engine implementations.">
<polygon fill="none" stroke="black" points="764,-94 764,-124 910,-124 910,-94 764,-94"/>
<text text-anchor="start" x="772" y="-112" font-family="Helvetica,sans-Serif" font-size="10.00">FiftyoneDegrees::Common</text>
<text text-anchor="middle" x="837" y="-101" font-family="Helvetica,sans-Serif" font-size="10.00">::EngineBase</text>
</a>
</g>
</g>
<!-- Node5&#45;&gt;Node4 -->
<g id="edge2" class="edge">
<title>Node5&#45;&gt;Node4</title>
<path fill="none" stroke="midnightblue" d="M885.06,-90.13C920.08,-76.09 967.25,-57.17 999.81,-44.12"/>
<polygon fill="midnightblue" stroke="midnightblue" points="883.5,-86.98 875.52,-93.95 886.11,-93.48 883.5,-86.98"/>
</g>
<!-- Node6 -->
<g id="node4" class="node">
<title>Node6</title>
<g id="a_node4"><a xlink:href="class_fiftyone_degrees_1_1_common_1_1_required_properties_config.html" target="_top" xlink:title="C++ class wrapper for the fiftyoneDegreesPropertiesRequired structure.">
<polygon fill="none" stroke="black" points="488,-188 488,-218 634,-218 634,-188 488,-188"/>
<text text-anchor="start" x="496" y="-206" font-family="Helvetica,sans-Serif" font-size="10.00">FiftyoneDegrees::Common</text>
<text text-anchor="middle" x="561" y="-195" font-family="Helvetica,sans-Serif" font-size="10.00">::RequiredPropertiesConfig</text>
</a>
</g>
</g>
<!-- Node6&#45;&gt;Node5 -->
<g id="edge3" class="edge">
<title>Node6&#45;&gt;Node5</title>
<path fill="none" stroke="#9a32cd" stroke-dasharray="5,2" d="M639.52,-185.41C672.76,-176.98 711.75,-165.89 746,-153 767.65,-144.85 791.1,-133.29 808.63,-124.07"/>
<polygon fill="#9a32cd" stroke="#9a32cd" points="638.25,-182.12 629.4,-187.94 639.95,-188.91 638.25,-182.12"/>
<text text-anchor="middle" x="699" y="-183" font-family="Helvetica,sans-Serif" font-size="10.00"> requiredProperties</text>
</g>
<!-- Node7 -->
<g id="node5" class="node">
<title>Node7</title>
<g id="a_node5"><a xlink:title=" ">
<polygon fill="none" stroke="#bfbfbf" points="241,-110 241,-140 398,-140 398,-110 241,-110"/>
<text text-anchor="start" x="249" y="-128" font-family="Helvetica,sans-Serif" font-size="10.00">shared_ptr&lt; fiftyoneDegrees</text>
<text text-anchor="middle" x="319.5" y="-117" font-family="Helvetica,sans-Serif" font-size="10.00">ResourceManager &gt;</text>
</a>
</g>
</g>
<!-- Node7&#45;&gt;Node5 -->
<g id="edge4" class="edge">
<title>Node7&#45;&gt;Node5</title>
<path fill="none" stroke="#9a32cd" stroke-dasharray="5,2" d="M408.15,-121.74C433.88,-120.82 462.07,-119.84 488,-119 583.3,-115.92 693.29,-112.84 763.68,-110.93"/>
<polygon fill="#9a32cd" stroke="#9a32cd" points="407.92,-118.25 398.05,-122.11 408.17,-125.24 407.92,-118.25"/>
<text text-anchor="middle" x="561" y="-122" font-family="Helvetica,sans-Serif" font-size="10.00"> manager</text>
</g>
<!-- Node12 -->
<g id="node10" class="node">
<title>Node12</title>
<g id="a_node10"><a xlink:href="class_fiftyone_degrees_1_1_common_1_1_meta_data.html" target="_top" xlink:title="Contains meta data for the properties, values, profiles and components that exist within the engine i...">
<polygon fill="none" stroke="black" points="488,-139 488,-169 634,-169 634,-139 488,-139"/>
<text text-anchor="start" x="496" y="-157" font-family="Helvetica,sans-Serif" font-size="10.00">FiftyoneDegrees::Common</text>
<text text-anchor="middle" x="561" y="-146" font-family="Helvetica,sans-Serif" font-size="10.00">::MetaData</text>
</a>
</g>
</g>
<!-- Node7&#45;&gt;Node12 -->
<g id="edge10" class="edge">
<title>Node7&#45;&gt;Node12</title>
<path fill="none" stroke="#9a32cd" stroke-dasharray="5,2" d="M408.53,-135.66C434.65,-138.82 462.93,-142.25 487.91,-145.27"/>
<polygon fill="#9a32cd" stroke="#9a32cd" points="408.61,-132.14 398.26,-134.42 407.77,-139.09 408.61,-132.14"/>
<text text-anchor="middle" x="443" y="-145" font-family="Helvetica,sans-Serif" font-size="10.00"> manager</text>
</g>
<!-- Node8 -->
<g id="node6" class="node">
<title>Node8</title>
<g id="a_node6"><a xlink:title=" ">
<polygon fill="none" stroke="#bfbfbf" points="0,-115.5 0,-134.5 68,-134.5 68,-115.5 0,-115.5"/>
<text text-anchor="middle" x="34" y="-122.5" font-family="Helvetica,sans-Serif" font-size="10.00">shared_ptr</text>
</a>
</g>
</g>
<!-- Node8&#45;&gt;Node7 -->
<g id="edge5" class="edge">
<title>Node8&#45;&gt;Node7</title>
<path fill="none" stroke="orange" stroke-dasharray="5,2" d="M78.22,-125C121.31,-125 188.44,-125 240.8,-125"/>
<polygon fill="orange" stroke="orange" points="78.08,-121.5 68.08,-125 78.08,-128.5 78.08,-121.5"/>
<text text-anchor="start" x="86" y="-139" font-family="Helvetica,sans-Serif" font-size="10.00"> &lt; fiftyoneDegreesResource</text>
<text text-anchor="middle" x="154.5" y="-128" font-family="Helvetica,sans-Serif" font-size="10.00">Manager &gt;</text>
</g>
<!-- Node9 -->
<g id="node7" class="node">
<title>Node9</title>
<g id="a_node7"><a xlink:title=" ">
<polygon fill="none" stroke="#bfbfbf" points="512,-53.5 512,-72.5 610,-72.5 610,-53.5 512,-53.5"/>
<text text-anchor="middle" x="561" y="-60.5" font-family="Helvetica,sans-Serif" font-size="10.00">vector&lt; string &gt;</text>
</a>
</g>
</g>
<!-- Node9&#45;&gt;Node5 -->
<g id="edge6" class="edge">
<title>Node9&#45;&gt;Node5</title>
<path fill="none" stroke="#9a32cd" stroke-dasharray="5,2" d="M620.77,-67.33C657.07,-70.6 704.49,-75.92 746,-84 759.53,-86.63 774,-90.28 787.29,-93.96"/>
<polygon fill="#9a32cd" stroke="#9a32cd" points="620.62,-63.81 610.36,-66.43 620.02,-70.78 620.62,-63.81"/>
<text text-anchor="middle" x="699" y="-87" font-family="Helvetica,sans-Serif" font-size="10.00"> keys</text>
</g>
<!-- Node10 -->
<g id="node8" class="node">
<title>Node10</title>
<g id="a_node8"><a xlink:title=" ">
<polygon fill="none" stroke="#bfbfbf" points="296,-53.5 296,-72.5 343,-72.5 343,-53.5 296,-53.5"/>
<text text-anchor="middle" x="319.5" y="-60.5" font-family="Helvetica,sans-Serif" font-size="10.00">vector</text>
</a>
</g>
</g>
<!-- Node10&#45;&gt;Node9 -->
<g id="edge7" class="edge">
<title>Node10&#45;&gt;Node9</title>
<path fill="none" stroke="orange" stroke-dasharray="5,2" d="M353.27,-63C394.24,-63 464.69,-63 511.81,-63"/>
<polygon fill="orange" stroke="orange" points="353.03,-59.5 343.03,-63 353.03,-66.5 353.03,-59.5"/>
<text text-anchor="middle" x="443" y="-66" font-family="Helvetica,sans-Serif" font-size="10.00"> &lt; string &gt;</text>
</g>
<!-- Node11 -->
<g id="node9" class="node">
<title>Node11</title>
<g id="a_node9"><a xlink:title=" ">
<polygon fill="none" stroke="#bfbfbf" points="539,-0.5 539,-19.5 583,-19.5 583,-0.5 539,-0.5"/>
<text text-anchor="middle" x="561" y="-7.5" font-family="Helvetica,sans-Serif" font-size="10.00">string</text>
</a>
</g>
</g>
<!-- Node11&#45;&gt;Node4 -->
<g id="edge12" class="edge">
<title>Node11&#45;&gt;Node4</title>
<path fill="none" stroke="#9a32cd" stroke-dasharray="5,2" d="M593.22,-9.14C610.53,-8.7 632.46,-8.22 652,-8 693.78,-7.54 704.25,-6.5 746,-8 813.44,-10.43 889.48,-16 946.99,-20.8"/>
<polygon fill="#9a32cd" stroke="#9a32cd" points="593,-5.64 583.09,-9.4 593.18,-12.64 593,-5.64"/>
<text text-anchor="middle" x="837" y="-21" font-family="Helvetica,sans-Serif" font-size="10.00"> defaultElementDataKey</text>
</g>
<!-- Node11&#45;&gt;Node5 -->
<g id="edge8" class="edge">
<title>Node11&#45;&gt;Node5</title>
<path fill="none" stroke="#9a32cd" stroke-dasharray="5,2" d="M593.53,-8.88C631.34,-8.68 695.9,-12.09 746,-34 777.68,-47.85 806.97,-76.38 823.08,-93.98"/>
<polygon fill="#9a32cd" stroke="#9a32cd" points="593.1,-5.38 583.15,-9.02 593.2,-12.38 593.1,-5.38"/>
<text text-anchor="middle" x="699" y="-59" font-family="Helvetica,sans-Serif" font-size="10.00"> defaultDataKey</text>
<text text-anchor="middle" x="699" y="-48" font-family="Helvetica,sans-Serif" font-size="10.00">licenceKey</text>
<text text-anchor="middle" x="699" y="-37" font-family="Helvetica,sans-Serif" font-size="10.00">updateUrl</text>
</g>
<!-- Node12&#45;&gt;Node5 -->
<g id="edge9" class="edge">
<title>Node12&#45;&gt;Node5</title>
<path fill="none" stroke="#9a32cd" stroke-dasharray="5,2" d="M644.36,-140.47C682.36,-134.23 727.05,-126.89 763.72,-120.87"/>
<polygon fill="#9a32cd" stroke="#9a32cd" points="643.65,-137.04 634.35,-142.12 644.78,-143.95 643.65,-137.04"/>
<text text-anchor="middle" x="699" y="-141" font-family="Helvetica,sans-Serif" font-size="10.00"> metaData</text>
</g>
<!-- Node13 -->
<g id="node11" class="node">
<title>Node13</title>
<g id="a_node11"><a xlink:href="class_fiftyone_degrees_1_1_common_1_1_config_base.html" target="_top" xlink:title="C++ class wrapper for the fiftyoneDegreesConfigBase configuration structure.">
<polygon fill="none" stroke="black" points="488,-237 488,-267 634,-267 634,-237 488,-237"/>
<text text-anchor="start" x="496" y="-255" font-family="Helvetica,sans-Serif" font-size="10.00">FiftyoneDegrees::Common</text>
<text text-anchor="middle" x="561" y="-244" font-family="Helvetica,sans-Serif" font-size="10.00">::ConfigBase</text>
</a>
</g>
</g>
<!-- Node13&#45;&gt;Node5 -->
<g id="edge11" class="edge">
<title>Node13&#45;&gt;Node5</title>
<path fill="none" stroke="#9a32cd" stroke-dasharray="5,2" d="M644.31,-235.19C677.36,-226.27 714.91,-213.28 746,-195 778.23,-176.05 808,-143.44 823.92,-124.28"/>
<polygon fill="#9a32cd" stroke="#9a32cd" points="643,-231.92 634.21,-237.83 644.77,-238.69 643,-231.92"/>
<text text-anchor="middle" x="699" y="-235" font-family="Helvetica,sans-Serif" font-size="10.00"> config</text>
</g>
</g>
</svg>
