<?xml version="1.0" encoding="UTF-8" standalone="no"?>
<!DOCTYPE svg PUBLIC "-//W3C//DTD SVG 1.1//EN"
 "http://www.w3.org/Graphics/SVG/1.1/DTD/svg11.dtd">
<!-- Generated by graphviz version 2.43.0 (0)
 -->
<!-- Title: FiftyoneDegrees::DeviceDetection::Hash::ValueMetaDataCollectionBaseHash Pages: 1 -->
<svg width="2617pt" height="618pt"
 viewBox="0.00 0.00 2617.00 618.00" xmlns="http://www.w3.org/2000/svg" xmlns:xlink="http://www.w3.org/1999/xlink">
<g id="graph0" class="graph" transform="scale(1 1) rotate(0) translate(4 614)">
<title>FiftyoneDegrees::DeviceDetection::Hash::ValueMetaDataCollectionBaseHash</title>
<!-- Node6 -->
<g id="node1" class="node">
<title>Node6</title>
<g id="a_node1"><a xlink:title="A collection of all value meta data contained in a Hash engine.">
<polygon fill="#bfbfbf" stroke="black" points="2383,-276 2383,-306 2609,-306 2609,-276 2383,-276"/>
<text text-anchor="start" x="2391" y="-294" font-family="Helvetica,sans-Serif" font-size="10.00">FiftyoneDegrees::DeviceDetection</text>
<text text-anchor="middle" x="2496" y="-283" font-family="Helvetica,sans-Serif" font-size="10.00">::Hash::ValueMetaDataCollectionBaseHash</text>
</a>
</g>
</g>
<!-- Node7 -->
<g id="node2" class="node">
<title>Node7</title>
<g id="a_node2"><a xlink:href="class_fiftyone_degrees_1_1_common_1_1_collection.html" target="_top" xlink:title=" ">
<polygon fill="none" stroke="black" points="2127,-356.5 2127,-397.5 2306,-397.5 2306,-356.5 2127,-356.5"/>
<text text-anchor="start" x="2135" y="-385.5" font-family="Helvetica,sans-Serif" font-size="10.00">FiftyoneDegrees::Common</text>
<text text-anchor="start" x="2135" y="-374.5" font-family="Helvetica,sans-Serif" font-size="10.00">::Collection&lt; ValueMetaDataKey,</text>
<text text-anchor="middle" x="2216.5" y="-363.5" font-family="Helvetica,sans-Serif" font-size="10.00"> ValueMetaData &gt;</text>
</a>
</g>
</g>
<!-- Node7&#45;&gt;Node6 -->
<g id="edge1" class="edge">
<title>Node7&#45;&gt;Node6</title>
<path fill="none" stroke="midnightblue" d="M2293.54,-353.43C2342.34,-338.31 2404.23,-319.13 2446.45,-306.04"/>
<polygon fill="midnightblue" stroke="midnightblue" points="2292.48,-350.1 2283.97,-356.4 2294.56,-356.78 2292.48,-350.1"/>
</g>
<!-- Node8 -->
<g id="node3" class="node">
<title>Node8</title>
<g id="a_node3"><a xlink:href="class_fiftyone_degrees_1_1_common_1_1_collection.html" target="_top" xlink:title="A group of items accessible by index or key.">
<polygon fill="none" stroke="black" points="1823.5,-423 1823.5,-453 1969.5,-453 1969.5,-423 1823.5,-423"/>
<text text-anchor="start" x="1831.5" y="-441" font-family="Helvetica,sans-Serif" font-size="10.00">FiftyoneDegrees::Common</text>
<text text-anchor="middle" x="1896.5" y="-430" font-family="Helvetica,sans-Serif" font-size="10.00">::Collection&lt; K, V &gt;</text>
</a>
</g>
</g>
<!-- Node8&#45;&gt;Node7 -->
<g id="edge2" class="edge">
<title>Node8&#45;&gt;Node7</title>
<path fill="none" stroke="orange" stroke-dasharray="5,2" d="M1979.7,-422.23C2024.82,-413.58 2080.8,-402.84 2126.89,-394"/>
<polygon fill="orange" stroke="orange" points="1978.82,-418.84 1969.66,-424.16 1980.14,-425.71 1978.82,-418.84"/>
<text text-anchor="start" x="1998" y="-433" font-family="Helvetica,sans-Serif" font-size="10.00"> &lt; ValueMetaDataKey,</text>
<text text-anchor="middle" x="2053.5" y="-422" font-family="Helvetica,sans-Serif" font-size="10.00"> ValueMetaData &gt;</text>
</g>
<!-- Node9 -->
<g id="node4" class="node">
<title>Node9</title>
<g id="a_node4"><a xlink:href="structfiftyone_degrees_data_set_hash.html" target="_top" xlink:title="Data set structure containing all the components used for detections.">
<polygon fill="none" stroke="black" points="2137.5,-257.5 2137.5,-276.5 2295.5,-276.5 2295.5,-257.5 2137.5,-257.5"/>
<text text-anchor="middle" x="2216.5" y="-264.5" font-family="Helvetica,sans-Serif" font-size="10.00">fiftyoneDegreesDataSetHash</text>
</a>
</g>
</g>
<!-- Node9&#45;&gt;Node6 -->
<g id="edge3" class="edge">
<title>Node9&#45;&gt;Node6</title>
<path fill="none" stroke="#9a32cd" stroke-dasharray="5,2" d="M2305.54,-274.61C2330.1,-276.74 2357.12,-279.07 2382.86,-281.3"/>
<polygon fill="#9a32cd" stroke="#9a32cd" points="2305.8,-271.12 2295.54,-273.75 2305.2,-278.1 2305.8,-271.12"/>
<text text-anchor="middle" x="2344.5" y="-283" font-family="Helvetica,sans-Serif" font-size="10.00"> dataSet</text>
</g>
<!-- Node10 -->
<g id="node5" class="node">
<title>Node10</title>
<g id="a_node5"><a xlink:href="structfiftyone_degrees_list.html" target="_top" xlink:title="List structure which contains a list of collection items.">
<polygon fill="none" stroke="black" points="688,-159.5 688,-178.5 799,-178.5 799,-159.5 688,-159.5"/>
<text text-anchor="middle" x="743.5" y="-166.5" font-family="Helvetica,sans-Serif" font-size="10.00">fiftyoneDegreesList</text>
</a>
</g>
</g>
<!-- Node10&#45;&gt;Node9 -->
<g id="edge4" class="edge">
<title>Node10&#45;&gt;Node9</title>
<path fill="none" stroke="#9a32cd" stroke-dasharray="5,2" d="M809.35,-169C880.8,-169 999.09,-169 1101,-169 1101,-169 1101,-169 1897.5,-169 1992.1,-169 2020.47,-159.66 2109,-193 2148.61,-207.92 2187.48,-240.83 2205.33,-257.27"/>
<polygon fill="#9a32cd" stroke="#9a32cd" points="809.16,-165.5 799.16,-169 809.16,-172.5 809.16,-165.5"/>
<text text-anchor="middle" x="1456.5" y="-172" font-family="Helvetica,sans-Serif" font-size="10.00"> componentsList</text>
</g>
<!-- Node11 -->
<g id="node6" class="node">
<title>Node11</title>
<g id="a_node6"><a xlink:href="structfiftyone_degrees_collection_item.html" target="_top" xlink:title="Used to store a handle to the underlying item that could be used to release the item when it&#39;s finish...">
<polygon fill="none" stroke="black" points="185,-210.5 185,-229.5 350,-229.5 350,-210.5 185,-210.5"/>
<text text-anchor="middle" x="267.5" y="-217.5" font-family="Helvetica,sans-Serif" font-size="10.00">fiftyoneDegreesCollectionItem</text>
</a>
</g>
</g>
<!-- Node11&#45;&gt;Node10 -->
<g id="edge5" class="edge">
<title>Node11&#45;&gt;Node10</title>
<path fill="none" stroke="#9a32cd" stroke-dasharray="5,2" d="M302.6,-207.03C323.24,-199.79 350.26,-191.37 375,-187 484.77,-167.62 615.65,-166.3 687.85,-167.42"/>
<polygon fill="#9a32cd" stroke="#9a32cd" points="301.26,-203.79 293.03,-210.46 303.62,-210.38 301.26,-203.79"/>
<text text-anchor="middle" x="423.5" y="-190" font-family="Helvetica,sans-Serif" font-size="10.00"> items</text>
</g>
<!-- Node12 -->
<g id="node7" class="node">
<title>Node12</title>
<g id="a_node7"><a xlink:href="structfiftyone_degrees_collection.html" target="_top" xlink:title="All the shared methods and fields required by file, memory and cached collections.">
<polygon fill="none" stroke="black" points="508.5,-197.5 508.5,-216.5 651.5,-216.5 651.5,-197.5 508.5,-197.5"/>
<text text-anchor="middle" x="580" y="-204.5" font-family="Helvetica,sans-Serif" font-size="10.00">fiftyoneDegreesCollection</text>
</a>
</g>
</g>
<!-- Node11&#45;&gt;Node12 -->
<g id="edge7" class="edge">
<title>Node11&#45;&gt;Node12</title>
<path fill="none" stroke="#9a32cd" stroke-dasharray="5,2" d="M360.41,-218.72C395.37,-217.97 435.54,-216.81 472,-215 483.72,-214.42 496.15,-213.64 508.24,-212.79"/>
<polygon fill="#9a32cd" stroke="#9a32cd" points="360.15,-215.22 350.23,-218.93 360.3,-222.22 360.15,-215.22"/>
<text text-anchor="middle" x="423.5" y="-222" font-family="Helvetica,sans-Serif" font-size="10.00"> release</text>
</g>
<!-- Node30 -->
<g id="node25" class="node">
<title>Node30</title>
<g id="a_node25"><a xlink:href="structfiftyone_degrees_property_available.html" target="_top" xlink:title="Used to access the property item quickly without the need to search.">
<polygon fill="none" stroke="black" points="490,-294.5 490,-313.5 670,-313.5 670,-294.5 490,-294.5"/>
<text text-anchor="middle" x="580" y="-301.5" font-family="Helvetica,sans-Serif" font-size="10.00">fiftyoneDegreesPropertyAvailable</text>
</a>
</g>
</g>
<!-- Node11&#45;&gt;Node30 -->
<g id="edge32" class="edge">
<title>Node11&#45;&gt;Node30</title>
<path fill="none" stroke="#9a32cd" stroke-dasharray="5,2" d="M313.76,-232.24C376.11,-249.11 487.13,-279.14 543.72,-294.45"/>
<polygon fill="#9a32cd" stroke="#9a32cd" points="314.38,-228.79 303.82,-229.55 312.55,-235.54 314.38,-228.79"/>
<text text-anchor="middle" x="423.5" y="-278" font-family="Helvetica,sans-Serif" font-size="10.00"> name</text>
</g>
<!-- Node12&#45;&gt;Node9 -->
<g id="edge36" class="edge">
<title>Node12&#45;&gt;Node9</title>
<path fill="none" stroke="#9a32cd" stroke-dasharray="5,2" d="M661.93,-207C727.36,-207 821.87,-207 904.5,-207 904.5,-207 904.5,-207 1897.5,-207 2005.09,-207 2129.66,-240.57 2185.6,-257.49"/>
<polygon fill="#9a32cd" stroke="#9a32cd" points="661.68,-203.5 651.68,-207 661.68,-210.5 661.68,-203.5"/>
<text text-anchor="middle" x="1456.5" y="-298" font-family="Helvetica,sans-Serif" font-size="10.00"> profileOffsets</text>
<text text-anchor="middle" x="1456.5" y="-287" font-family="Helvetica,sans-Serif" font-size="10.00">values</text>
<text text-anchor="middle" x="1456.5" y="-276" font-family="Helvetica,sans-Serif" font-size="10.00">strings</text>
<text text-anchor="middle" x="1456.5" y="-265" font-family="Helvetica,sans-Serif" font-size="10.00">maps</text>
<text text-anchor="middle" x="1456.5" y="-254" font-family="Helvetica,sans-Serif" font-size="10.00">components</text>
<text text-anchor="middle" x="1456.5" y="-243" font-family="Helvetica,sans-Serif" font-size="10.00">nodes</text>
<text text-anchor="middle" x="1456.5" y="-232" font-family="Helvetica,sans-Serif" font-size="10.00">properties</text>
<text text-anchor="middle" x="1456.5" y="-221" font-family="Helvetica,sans-Serif" font-size="10.00">rootNodes</text>
<text text-anchor="middle" x="1456.5" y="-210" font-family="Helvetica,sans-Serif" font-size="10.00">profiles</text>
</g>
<!-- Node12&#45;&gt;Node11 -->
<g id="edge6" class="edge">
<title>Node12&#45;&gt;Node11</title>
<path fill="none" stroke="#9a32cd" stroke-dasharray="5,2" d="M497.75,-202.49C460.33,-201.26 415.36,-200.99 375,-204 357.47,-205.31 338.46,-207.81 321.41,-210.46"/>
<polygon fill="#9a32cd" stroke="#9a32cd" points="497.98,-206 508.1,-202.86 498.23,-199 497.98,-206"/>
<text text-anchor="middle" x="423.5" y="-207" font-family="Helvetica,sans-Serif" font-size="10.00"> collection</text>
</g>
<!-- Node12&#45;&gt;Node12 -->
<g id="edge8" class="edge">
<title>Node12&#45;&gt;Node12</title>
<path fill="none" stroke="#9a32cd" stroke-dasharray="5,2" d="M550.88,-225.65C552.1,-230.94 561.8,-235 580,-235 607.73,-235 615.74,-225.57 604.04,-216.76"/>
<polygon fill="#9a32cd" stroke="#9a32cd" points="554.04,-227.18 555.96,-216.76 547.96,-223.71 554.04,-227.18"/>
<text text-anchor="middle" x="580" y="-260" font-family="Helvetica,sans-Serif" font-size="10.00"> next</text>
<text text-anchor="middle" x="580" y="-249" font-family="Helvetica,sans-Serif" font-size="10.00">freeCollection</text>
<text text-anchor="middle" x="580" y="-238" font-family="Helvetica,sans-Serif" font-size="10.00">get</text>
</g>
<!-- Node13 -->
<g id="node8" class="node">
<title>Node13</title>
<g id="a_node8"><a xlink:href="structfiftyone_degrees_data.html" target="_top" xlink:title="Data structure used for reusing memory which may have been allocated in a previous operation.">
<polygon fill="none" stroke="black" points="0,-210.5 0,-229.5 117,-229.5 117,-210.5 0,-210.5"/>
<text text-anchor="middle" x="58.5" y="-217.5" font-family="Helvetica,sans-Serif" font-size="10.00">fiftyoneDegreesData</text>
</a>
</g>
</g>
<!-- Node13&#45;&gt;Node11 -->
<g id="edge9" class="edge">
<title>Node13&#45;&gt;Node11</title>
<path fill="none" stroke="#9a32cd" stroke-dasharray="5,2" d="M127.19,-220C145.58,-220 165.7,-220 184.78,-220"/>
<polygon fill="#9a32cd" stroke="#9a32cd" points="127.16,-216.5 117.16,-220 127.16,-223.5 127.16,-216.5"/>
<text text-anchor="middle" x="147.5" y="-223" font-family="Helvetica,sans-Serif" font-size="10.00"> data</text>
</g>
<!-- Node14 -->
<g id="node9" class="node">
<title>Node14</title>
<g id="a_node9"><a xlink:href="structfiftyone_degrees_data_set_hash_header.html" target="_top" xlink:title="Dataset header containing information about the dataset.">
<polygon fill="none" stroke="black" points="1817.5,-40 1817.5,-70 1975.5,-70 1975.5,-40 1817.5,-40"/>
<text text-anchor="start" x="1825.5" y="-58" font-family="Helvetica,sans-Serif" font-size="10.00">fiftyoneDegreesDataSetHash</text>
<text text-anchor="middle" x="1896.5" y="-47" font-family="Helvetica,sans-Serif" font-size="10.00">Header</text>
</a>
</g>
</g>
<!-- Node14&#45;&gt;Node9 -->
<g id="edge10" class="edge">
<title>Node14&#45;&gt;Node9</title>
<path fill="none" stroke="#9a32cd" stroke-dasharray="5,2" d="M1961.14,-73.26C2005.3,-87.88 2064.04,-111.37 2109,-144 2155.18,-177.51 2194.79,-234.72 2209.45,-257.36"/>
<polygon fill="#9a32cd" stroke="#9a32cd" points="1961.97,-69.85 1951.38,-70.09 1959.81,-76.5 1961.97,-69.85"/>
<text text-anchor="middle" x="2053.5" y="-147" font-family="Helvetica,sans-Serif" font-size="10.00"> header</text>
</g>
<!-- Node15 -->
<g id="node10" class="node">
<title>Node15</title>
<g id="a_node10"><a xlink:href="structfiftyone_degrees_date.html" target="_top" xlink:title="Used to store the date when the dataset was produced and next date 51Degrees expect to provide a new ...">
<polygon fill="none" stroke="black" points="1558.5,-0.5 1558.5,-19.5 1675.5,-19.5 1675.5,-0.5 1558.5,-0.5"/>
<text text-anchor="middle" x="1617" y="-7.5" font-family="Helvetica,sans-Serif" font-size="10.00">fiftyoneDegreesDate</text>
</a>
</g>
</g>
<!-- Node15&#45;&gt;Node14 -->
<g id="edge11" class="edge">
<title>Node15&#45;&gt;Node14</title>
<path fill="none" stroke="#9a32cd" stroke-dasharray="5,2" d="M1685.73,-14.93C1718.84,-17.94 1759.18,-22.48 1795,-29 1810.87,-31.89 1827.93,-35.94 1843.4,-39.98"/>
<polygon fill="#9a32cd" stroke="#9a32cd" points="1685.97,-11.44 1675.7,-14.05 1685.35,-18.41 1685.97,-11.44"/>
<text text-anchor="middle" x="1760.5" y="-43" font-family="Helvetica,sans-Serif" font-size="10.00"> nextUpdate</text>
<text text-anchor="middle" x="1760.5" y="-32" font-family="Helvetica,sans-Serif" font-size="10.00">published</text>
</g>
<!-- Node16 -->
<g id="node11" class="node">
<title>Node16</title>
<g id="a_node11"><a xlink:href="structfiftyone_degrees_collection_header.html" target="_top" xlink:title="Collection header structure which defines the size and location of the collection data.">
<polygon fill="none" stroke="black" points="1545.5,-40 1545.5,-70 1688.5,-70 1688.5,-40 1545.5,-40"/>
<text text-anchor="start" x="1553.5" y="-58" font-family="Helvetica,sans-Serif" font-size="10.00">fiftyoneDegreesCollection</text>
<text text-anchor="middle" x="1617" y="-47" font-family="Helvetica,sans-Serif" font-size="10.00">Header</text>
</a>
</g>
</g>
<!-- Node16&#45;&gt;Node14 -->
<g id="edge12" class="edge">
<title>Node16&#45;&gt;Node14</title>
<path fill="none" stroke="#9a32cd" stroke-dasharray="5,2" d="M1699.05,-55C1736.25,-55 1780.18,-55 1817.06,-55"/>
<polygon fill="#9a32cd" stroke="#9a32cd" points="1698.74,-51.5 1688.74,-55 1698.74,-58.5 1698.74,-51.5"/>
<text text-anchor="middle" x="1760.5" y="-146" font-family="Helvetica,sans-Serif" font-size="10.00"> profileOffsets</text>
<text text-anchor="middle" x="1760.5" y="-135" font-family="Helvetica,sans-Serif" font-size="10.00">values</text>
<text text-anchor="middle" x="1760.5" y="-124" font-family="Helvetica,sans-Serif" font-size="10.00">strings</text>
<text text-anchor="middle" x="1760.5" y="-113" font-family="Helvetica,sans-Serif" font-size="10.00">maps</text>
<text text-anchor="middle" x="1760.5" y="-102" font-family="Helvetica,sans-Serif" font-size="10.00">components</text>
<text text-anchor="middle" x="1760.5" y="-91" font-family="Helvetica,sans-Serif" font-size="10.00">nodes</text>
<text text-anchor="middle" x="1760.5" y="-80" font-family="Helvetica,sans-Serif" font-size="10.00">properties</text>
<text text-anchor="middle" x="1760.5" y="-69" font-family="Helvetica,sans-Serif" font-size="10.00">rootNodes</text>
<text text-anchor="middle" x="1760.5" y="-58" font-family="Helvetica,sans-Serif" font-size="10.00">profiles</text>
</g>
<!-- Node17 -->
<g id="node12" class="node">
<title>Node17</title>
<g id="a_node12"><a xlink:href="structfiftyone_degrees_header_ptr_array.html" target="_top" xlink:title="Array of header indexes.">
<polygon fill="none" stroke="black" points="1545.5,-271 1545.5,-301 1688.5,-301 1688.5,-271 1545.5,-271"/>
<text text-anchor="start" x="1553.5" y="-289" font-family="Helvetica,sans-Serif" font-size="10.00">fiftyoneDegreesHeaderPtr</text>
<text text-anchor="middle" x="1617" y="-278" font-family="Helvetica,sans-Serif" font-size="10.00">Array</text>
</a>
</g>
</g>
<!-- Node17&#45;&gt;Node9 -->
<g id="edge13" class="edge">
<title>Node17&#45;&gt;Node9</title>
<path fill="none" stroke="#9a32cd" stroke-dasharray="5,2" d="M1699.01,-281.32C1734.06,-279.43 1775.54,-277.38 1813,-276 1925.63,-271.85 2056.07,-269.36 2137.19,-268.08"/>
<polygon fill="#9a32cd" stroke="#9a32cd" points="1698.63,-277.84 1688.84,-281.87 1699.01,-284.83 1698.63,-277.84"/>
<text text-anchor="middle" x="1896.5" y="-279" font-family="Helvetica,sans-Serif" font-size="10.00"> componentHeaders</text>
</g>
<!-- Node18 -->
<g id="node13" class="node">
<title>Node18</title>
<g id="a_node13"><a xlink:href="structfiftyone_degrees_data_set_device_detection.html" target="_top" xlink:title="Device detection data set structure which contains the &#39;must have&#39;s for all device detection data set...">
<polygon fill="none" stroke="black" points="1813,-297 1813,-327 1980,-327 1980,-297 1813,-297"/>
<text text-anchor="start" x="1821" y="-315" font-family="Helvetica,sans-Serif" font-size="10.00">fiftyoneDegreesDataSetDevice</text>
<text text-anchor="middle" x="1896.5" y="-304" font-family="Helvetica,sans-Serif" font-size="10.00">Detection</text>
</a>
</g>
</g>
<!-- Node17&#45;&gt;Node18 -->
<g id="edge15" class="edge">
<title>Node17&#45;&gt;Node18</title>
<path fill="none" stroke="#9a32cd" stroke-dasharray="5,2" d="M1699.14,-293.6C1734.9,-296.95 1776.88,-300.89 1812.82,-304.25"/>
<polygon fill="#9a32cd" stroke="#9a32cd" points="1699.03,-290.08 1688.74,-292.63 1698.37,-297.05 1699.03,-290.08"/>
<text text-anchor="middle" x="1760.5" y="-306" font-family="Helvetica,sans-Serif" font-size="10.00"> ghevHeaders</text>
</g>
<!-- Node18&#45;&gt;Node9 -->
<g id="edge14" class="edge">
<title>Node18&#45;&gt;Node9</title>
<path fill="none" stroke="#9a32cd" stroke-dasharray="5,2" d="M1990.18,-298.88C2040.75,-291.73 2102.22,-283.03 2148.18,-276.53"/>
<polygon fill="#9a32cd" stroke="#9a32cd" points="1989.63,-295.43 1980.22,-300.29 1990.61,-302.36 1989.63,-295.43"/>
<text text-anchor="middle" x="2053.5" y="-301" font-family="Helvetica,sans-Serif" font-size="10.00"> b</text>
</g>
<!-- Node19 -->
<g id="node14" class="node">
<title>Node19</title>
<g id="a_node14"><a xlink:href="structfiftyone_degrees_data_set_base.html" target="_top" xlink:title="Base data set structure which contains the &#39;must have&#39;s for all data sets.">
<polygon fill="none" stroke="black" points="1538.5,-370.5 1538.5,-389.5 1695.5,-389.5 1695.5,-370.5 1538.5,-370.5"/>
<text text-anchor="middle" x="1617" y="-377.5" font-family="Helvetica,sans-Serif" font-size="10.00">fiftyoneDegreesDataSetBase</text>
</a>
</g>
</g>
<!-- Node19&#45;&gt;Node18 -->
<g id="edge16" class="edge">
<title>Node19&#45;&gt;Node18</title>
<path fill="none" stroke="#9a32cd" stroke-dasharray="5,2" d="M1666.73,-368.06C1713.34,-356.64 1783.79,-339.37 1834.19,-327.02"/>
<polygon fill="#9a32cd" stroke="#9a32cd" points="1665.76,-364.69 1656.88,-370.47 1667.42,-371.49 1665.76,-364.69"/>
<text text-anchor="middle" x="1760.5" y="-356" font-family="Helvetica,sans-Serif" font-size="10.00"> b</text>
</g>
<!-- Node20 -->
<g id="node15" class="node">
<title>Node20</title>
<g id="a_node15"><a xlink:href="structfiftyone_degrees_header_array.html" target="_top" xlink:title="Array of Headers which should always be ordered in ascending order of fullHeaderId.">
<polygon fill="none" stroke="black" points="1221,-381.5 1221,-400.5 1376,-400.5 1376,-381.5 1221,-381.5"/>
<text text-anchor="middle" x="1298.5" y="-388.5" font-family="Helvetica,sans-Serif" font-size="10.00">fiftyoneDegreesHeaderArray</text>
</a>
</g>
</g>
<!-- Node20&#45;&gt;Node19 -->
<g id="edge17" class="edge">
<title>Node20&#45;&gt;Node19</title>
<path fill="none" stroke="#9a32cd" stroke-dasharray="5,2" d="M1386.4,-387.98C1433.97,-386.33 1492.42,-384.29 1538.44,-382.7"/>
<polygon fill="#9a32cd" stroke="#9a32cd" points="1385.99,-384.49 1376.12,-388.34 1386.23,-391.49 1385.99,-384.49"/>
<text text-anchor="middle" x="1456.5" y="-391" font-family="Helvetica,sans-Serif" font-size="10.00"> uniqueHeaders</text>
</g>
<!-- Node21 -->
<g id="node16" class="node">
<title>Node21</title>
<g id="a_node16"><a xlink:href="structfiftyone_degrees_resource_handle.html" target="_top" xlink:title="Handle for a shared resource.">
<polygon fill="none" stroke="black" points="1212,-548.5 1212,-567.5 1385,-567.5 1385,-548.5 1212,-548.5"/>
<text text-anchor="middle" x="1298.5" y="-555.5" font-family="Helvetica,sans-Serif" font-size="10.00">fiftyoneDegreesResourceHandle</text>
</a>
</g>
</g>
<!-- Node21&#45;&gt;Node19 -->
<g id="edge18" class="edge">
<title>Node21&#45;&gt;Node19</title>
<path fill="none" stroke="#9a32cd" stroke-dasharray="5,2" d="M1377.8,-544.37C1381,-542.77 1384.09,-540.99 1387,-539 1398.92,-530.88 1393.6,-520.84 1405,-512 1443.32,-482.29 1475.59,-512.07 1508,-476 1531.49,-449.86 1500.88,-423.58 1526,-399 1529.88,-395.2 1534.32,-392.08 1539.1,-389.52"/>
<polygon fill="#9a32cd" stroke="#9a32cd" points="1376.28,-541.22 1368.51,-548.42 1379.07,-547.63 1376.28,-541.22"/>
<text text-anchor="middle" x="1456.5" y="-515" font-family="Helvetica,sans-Serif" font-size="10.00"> handle</text>
</g>
<!-- Node22 -->
<g id="node17" class="node">
<title>Node22</title>
<g id="a_node17"><a xlink:href="structfiftyone_degrees_resource_manager.html" target="_top" xlink:title="Manager structure used to provide access to a shared and changing resource.">
<polygon fill="none" stroke="black" points="1526,-528.5 1526,-547.5 1708,-547.5 1708,-528.5 1526,-528.5"/>
<text text-anchor="middle" x="1617" y="-535.5" font-family="Helvetica,sans-Serif" font-size="10.00">fiftyoneDegreesResourceManager</text>
</a>
</g>
</g>
<!-- Node21&#45;&gt;Node22 -->
<g id="edge20" class="edge">
<title>Node21&#45;&gt;Node22</title>
<path fill="none" stroke="#9a32cd" stroke-dasharray="5,2" d="M1361.77,-546.12C1370.32,-544.02 1378.93,-541.64 1387,-539 1395.32,-536.28 1396.44,-532.82 1405,-531 1449.78,-521.5 1462.25,-529.52 1508,-531 1513.82,-531.19 1519.82,-531.43 1525.86,-531.72"/>
<polygon fill="#9a32cd" stroke="#9a32cd" points="1360.72,-542.78 1351.79,-548.48 1362.33,-549.59 1360.72,-542.78"/>
<text text-anchor="middle" x="1456.5" y="-534" font-family="Helvetica,sans-Serif" font-size="10.00"> active</text>
</g>
<!-- Node22&#45;&gt;Node21 -->
<g id="edge19" class="edge">
<title>Node22&#45;&gt;Node21</title>
<path fill="none" stroke="#9a32cd" stroke-dasharray="5,2" d="M1515.61,-544.34C1473.65,-546.99 1425.4,-550.04 1385.15,-552.59"/>
<polygon fill="#9a32cd" stroke="#9a32cd" points="1516.1,-547.82 1525.86,-543.7 1515.66,-540.83 1516.1,-547.82"/>
<text text-anchor="middle" x="1456.5" y="-554" font-family="Helvetica,sans-Serif" font-size="10.00"> manager</text>
</g>
<!-- Node23 -->
<g id="node18" class="node">
<title>Node23</title>
<g id="a_node18"><a xlink:href="structfiftyone_degrees_interlock_double_width.html" target="_top" xlink:title="Double width (64 or 128 depending on the architecture) compare and exchange.">
<polygon fill="none" stroke="black" points="837,-543 837,-573 974,-573 974,-543 837,-543"/>
<text text-anchor="start" x="845" y="-561" font-family="Helvetica,sans-Serif" font-size="10.00">fiftyoneDegreesInterlock</text>
<text text-anchor="middle" x="905.5" y="-550" font-family="Helvetica,sans-Serif" font-size="10.00">DoubleWidth</text>
</a>
</g>
</g>
<!-- Node23&#45;&gt;Node21 -->
<g id="edge21" class="edge">
<title>Node23&#45;&gt;Node21</title>
<path fill="none" stroke="#9a32cd" stroke-dasharray="5,2" d="M984.46,-558C1050.18,-558 1144.1,-558 1211.89,-558"/>
<polygon fill="#9a32cd" stroke="#9a32cd" points="984.16,-554.5 974.16,-558 984.16,-561.5 984.16,-554.5"/>
<text text-anchor="middle" x="1102" y="-561" font-family="Helvetica,sans-Serif" font-size="10.00"> counter</text>
</g>
<!-- Node24 -->
<g id="node19" class="node">
<title>Node24</title>
<g id="a_node19"><a xlink:href="structfiftyone_degrees_file_pool.html" target="_top" xlink:title="Stack of handles used to read data from a single source file.">
<polygon fill="none" stroke="black" points="1232.5,-469.5 1232.5,-488.5 1364.5,-488.5 1364.5,-469.5 1232.5,-469.5"/>
<text text-anchor="middle" x="1298.5" y="-476.5" font-family="Helvetica,sans-Serif" font-size="10.00">fiftyoneDegreesFilePool</text>
</a>
</g>
</g>
<!-- Node24&#45;&gt;Node19 -->
<g id="edge22" class="edge">
<title>Node24&#45;&gt;Node19</title>
<path fill="none" stroke="#9a32cd" stroke-dasharray="5,2" d="M1368.89,-467.81C1425.15,-458.22 1496.89,-444.64 1508,-436 1522.44,-424.78 1511.59,-410.26 1526,-399 1530.91,-395.17 1536.41,-392.06 1542.21,-389.55"/>
<polygon fill="#9a32cd" stroke="#9a32cd" points="1368.22,-464.37 1358.94,-469.49 1369.39,-471.28 1368.22,-464.37"/>
<text text-anchor="middle" x="1456.5" y="-464" font-family="Helvetica,sans-Serif" font-size="10.00"> filePool</text>
</g>
<!-- Node25 -->
<g id="node20" class="node">
<title>Node25</title>
<g id="a_node20"><a xlink:href="structfiftyone_degrees_pool.html" target="_top" xlink:title="Pool of resources stored as items in a stack.">
<polygon fill="none" stroke="black" points="848,-475.5 848,-494.5 963,-494.5 963,-475.5 848,-475.5"/>
<text text-anchor="middle" x="905.5" y="-482.5" font-family="Helvetica,sans-Serif" font-size="10.00">fiftyoneDegreesPool</text>
</a>
</g>
</g>
<!-- Node25&#45;&gt;Node24 -->
<g id="edge23" class="edge">
<title>Node25&#45;&gt;Node24</title>
<path fill="none" stroke="#9a32cd" stroke-dasharray="5,2" d="M942.22,-472.17C962.41,-465.6 988.28,-458.31 1012,-455 1091.23,-443.95 1112.5,-446.07 1192,-455 1192.85,-455.1 1226.81,-462.84 1255.97,-469.5"/>
<polygon fill="#9a32cd" stroke="#9a32cd" points="940.89,-468.93 932.51,-475.42 943.11,-475.57 940.89,-468.93"/>
<text text-anchor="middle" x="1102" y="-458" font-family="Helvetica,sans-Serif" font-size="10.00"> pool</text>
</g>
<!-- Node25&#45;&gt;Node25 -->
<g id="edge24" class="edge">
<title>Node25&#45;&gt;Node25</title>
<path fill="none" stroke="#9a32cd" stroke-dasharray="5,2" d="M875.19,-503.27C876.05,-508.74 886.15,-513 905.5,-513 934.29,-513 942.62,-503.57 930.47,-494.76"/>
<polygon fill="#9a32cd" stroke="#9a32cd" points="878.18,-505.09 880.53,-494.76 872.25,-501.37 878.18,-505.09"/>
<text text-anchor="middle" x="905.5" y="-516" font-family="Helvetica,sans-Serif" font-size="10.00"> resourceFree</text>
</g>
<!-- Node27 -->
<g id="node22" class="node">
<title>Node27</title>
<g id="a_node22"><a xlink:href="structfiftyone_degrees_pool_item.html" target="_top" xlink:title="Pool item node in the stack of items.">
<polygon fill="none" stroke="black" points="1230,-510.5 1230,-529.5 1367,-529.5 1367,-510.5 1230,-510.5"/>
<text text-anchor="middle" x="1298.5" y="-517.5" font-family="Helvetica,sans-Serif" font-size="10.00">fiftyoneDegreesPoolItem</text>
</a>
</g>
</g>
<!-- Node25&#45;&gt;Node27 -->
<g id="edge27" class="edge">
<title>Node25&#45;&gt;Node27</title>
<path fill="none" stroke="#9a32cd" stroke-dasharray="5,2" d="M973.24,-495.22C986.08,-496.98 999.44,-498.67 1012,-500 1086.36,-507.88 1171.96,-513.41 1229.89,-516.62"/>
<polygon fill="#9a32cd" stroke="#9a32cd" points="973.46,-491.72 963.08,-493.8 972.5,-498.65 973.46,-491.72"/>
<text text-anchor="middle" x="1102" y="-518" font-family="Helvetica,sans-Serif" font-size="10.00"> pool</text>
</g>
<!-- Node26 -->
<g id="node21" class="node">
<title>Node26</title>
<g id="a_node21"><a xlink:href="unionfiftyone_degrees_pool_head.html" target="_top" xlink:title="The head of the stack used for pop and push operations.">
<polygon fill="none" stroke="black" points="510,-475.5 510,-494.5 650,-494.5 650,-475.5 510,-475.5"/>
<text text-anchor="middle" x="580" y="-482.5" font-family="Helvetica,sans-Serif" font-size="10.00">fiftyoneDegreesPoolHead</text>
</a>
</g>
</g>
<!-- Node26&#45;&gt;Node25 -->
<g id="edge25" class="edge">
<title>Node26&#45;&gt;Node25</title>
<path fill="none" stroke="#9a32cd" stroke-dasharray="5,2" d="M660.26,-485C718.42,-485 796.02,-485 847.99,-485"/>
<polygon fill="#9a32cd" stroke="#9a32cd" points="660,-481.5 650,-485 660,-488.5 660,-481.5"/>
<text text-anchor="middle" x="743.5" y="-488" font-family="Helvetica,sans-Serif" font-size="10.00"> head</text>
</g>
<!-- Node27&#45;&gt;Node25 -->
<g id="edge26" class="edge">
<title>Node27&#45;&gt;Node25</title>
<path fill="none" stroke="#9a32cd" stroke-dasharray="5,2" d="M1241.82,-507.93C1231.13,-505.08 1220.12,-501.75 1210,-498 1201.61,-494.89 1200.69,-491.12 1192,-489 1114.46,-470.12 1021.53,-473.41 963.23,-478.44"/>
<polygon fill="#9a32cd" stroke="#9a32cd" points="1240.96,-511.33 1251.51,-510.43 1242.7,-504.55 1240.96,-511.33"/>
<text text-anchor="middle" x="1102" y="-492" font-family="Helvetica,sans-Serif" font-size="10.00"> stack</text>
</g>
<!-- Node28 -->
<g id="node23" class="node">
<title>Node28</title>
<g id="a_node23"><a xlink:href="structfiftyone_degrees_override_property_array.html" target="_top" xlink:title="Array of items of type fiftyoneDegreesOverrideProperty used to easily access and track the size of th...">
<polygon fill="none" stroke="black" points="1210,-285 1210,-315 1387,-315 1387,-285 1210,-285"/>
<text text-anchor="start" x="1218" y="-303" font-family="Helvetica,sans-Serif" font-size="10.00">fiftyoneDegreesOverrideProperty</text>
<text text-anchor="middle" x="1298.5" y="-292" font-family="Helvetica,sans-Serif" font-size="10.00">Array</text>
</a>
</g>
</g>
<!-- Node28&#45;&gt;Node19 -->
<g id="edge28" class="edge">
<title>Node28&#45;&gt;Node19</title>
<path fill="none" stroke="#9a32cd" stroke-dasharray="5,2" d="M1397.51,-308.15C1432.82,-312.64 1472.66,-319.52 1508,-330 1541.87,-340.04 1578.68,-358.98 1599.39,-370.45"/>
<polygon fill="#9a32cd" stroke="#9a32cd" points="1397.55,-304.63 1387.19,-306.89 1396.7,-311.58 1397.55,-304.63"/>
<text text-anchor="middle" x="1456.5" y="-333" font-family="Helvetica,sans-Serif" font-size="10.00"> overridable</text>
</g>
<!-- Node29 -->
<g id="node24" class="node">
<title>Node29</title>
<g id="a_node24"><a xlink:href="structfiftyone_degrees_override_property.html" target="_top" xlink:title="Index and pointer to a property which can be overridden.">
<polygon fill="none" stroke="black" points="817,-293.5 817,-312.5 994,-312.5 994,-293.5 817,-293.5"/>
<text text-anchor="middle" x="905.5" y="-300.5" font-family="Helvetica,sans-Serif" font-size="10.00">fiftyoneDegreesOverrideProperty</text>
</a>
</g>
</g>
<!-- Node29&#45;&gt;Node28 -->
<g id="edge29" class="edge">
<title>Node29&#45;&gt;Node28</title>
<path fill="none" stroke="#9a32cd" stroke-dasharray="5,2" d="M1004.6,-302.25C1067.63,-301.76 1148.81,-301.14 1209.71,-300.67"/>
<polygon fill="#9a32cd" stroke="#9a32cd" points="1004.22,-298.75 994.25,-302.33 1004.27,-305.75 1004.22,-298.75"/>
<text text-anchor="middle" x="1102" y="-306" font-family="Helvetica,sans-Serif" font-size="10.00"> items</text>
</g>
<!-- Node30&#45;&gt;Node29 -->
<g id="edge30" class="edge">
<title>Node30&#45;&gt;Node29</title>
<path fill="none" stroke="#9a32cd" stroke-dasharray="5,2" d="M680.31,-303.69C723.95,-303.56 774.74,-303.4 816.94,-303.27"/>
<polygon fill="#9a32cd" stroke="#9a32cd" points="680.24,-300.19 670.25,-303.72 680.26,-307.19 680.24,-300.19"/>
<text text-anchor="middle" x="743.5" y="-307" font-family="Helvetica,sans-Serif" font-size="10.00"> available</text>
</g>
<!-- Node33 -->
<g id="node28" class="node">
<title>Node33</title>
<g id="a_node28"><a xlink:href="structfiftyone_degrees_property_available_array.html" target="_top" xlink:title="Array of items of type fiftyoneDegreesPropertyAvailable used to easily access and track the size of t...">
<polygon fill="none" stroke="black" points="1012,-333 1012,-363 1192,-363 1192,-333 1012,-333"/>
<text text-anchor="start" x="1020" y="-351" font-family="Helvetica,sans-Serif" font-size="10.00">fiftyoneDegreesPropertyAvailable</text>
<text text-anchor="middle" x="1102" y="-340" font-family="Helvetica,sans-Serif" font-size="10.00">Array</text>
</a>
</g>
</g>
<!-- Node30&#45;&gt;Node33 -->
<g id="edge35" class="edge">
<title>Node30&#45;&gt;Node33</title>
<path fill="none" stroke="#9a32cd" stroke-dasharray="5,2" d="M653.7,-314.88C665.16,-316.4 676.89,-317.83 688,-319 799.34,-330.7 928.07,-338.9 1011.82,-343.52"/>
<polygon fill="#9a32cd" stroke="#9a32cd" points="654.09,-311.4 643.71,-313.53 653.16,-318.34 654.09,-311.4"/>
<text text-anchor="middle" x="743.5" y="-332" font-family="Helvetica,sans-Serif" font-size="10.00"> items</text>
</g>
<!-- Node31 -->
<g id="node26" class="node">
<title>Node31</title>
<g id="a_node26"><a xlink:href="structfiftyone_degrees_evidence_property_index_array.html" target="_top" xlink:title="Array of items of type fiftyoneDegreesEvidencePropertyIndex used to easily access and track the size ...">
<polygon fill="none" stroke="black" points="178,-290 178,-320 357,-320 357,-290 178,-290"/>
<text text-anchor="start" x="186" y="-308" font-family="Helvetica,sans-Serif" font-size="10.00">fiftyoneDegreesEvidenceProperty</text>
<text text-anchor="middle" x="267.5" y="-297" font-family="Helvetica,sans-Serif" font-size="10.00">IndexArray</text>
</a>
</g>
</g>
<!-- Node31&#45;&gt;Node30 -->
<g id="edge31" class="edge">
<title>Node31&#45;&gt;Node30</title>
<path fill="none" stroke="#9a32cd" stroke-dasharray="5,2" d="M367.2,-304.68C406.52,-304.56 451.45,-304.41 489.78,-304.29"/>
<polygon fill="#9a32cd" stroke="#9a32cd" points="367.05,-301.18 357.06,-304.71 367.07,-308.18 367.05,-301.18"/>
<text text-anchor="middle" x="423.5" y="-308" font-family="Helvetica,sans-Serif" font-size="10.00"> evidenceProperties</text>
</g>
<!-- Node32 -->
<g id="node27" class="node">
<title>Node32</title>
<g id="a_node27"><a xlink:href="structfiftyone_degrees_indices_property_profile.html" target="_top" xlink:title="Maps the profile index and the property index to the first value index of the profile for the propert...">
<polygon fill="none" stroke="black" points="1213.5,-420 1213.5,-450 1383.5,-450 1383.5,-420 1213.5,-420"/>
<text text-anchor="start" x="1221.5" y="-438" font-family="Helvetica,sans-Serif" font-size="10.00">fiftyoneDegreesIndicesProperty</text>
<text text-anchor="middle" x="1298.5" y="-427" font-family="Helvetica,sans-Serif" font-size="10.00">Profile</text>
</a>
</g>
</g>
<!-- Node32&#45;&gt;Node19 -->
<g id="edge33" class="edge">
<title>Node32&#45;&gt;Node19</title>
<path fill="none" stroke="#9a32cd" stroke-dasharray="5,2" d="M1393.64,-421.91C1429.52,-416.56 1470.74,-409.99 1508,-403 1516.05,-401.49 1517.99,-400.74 1526,-399 1540.36,-395.89 1556.02,-392.56 1570.19,-389.57"/>
<polygon fill="#9a32cd" stroke="#9a32cd" points="1393.05,-418.46 1383.67,-423.38 1394.07,-425.38 1393.05,-418.46"/>
<text text-anchor="middle" x="1456.5" y="-424" font-family="Helvetica,sans-Serif" font-size="10.00"> indexPropertyProfile</text>
</g>
<!-- Node33&#45;&gt;Node19 -->
<g id="edge34" class="edge">
<title>Node33&#45;&gt;Node19</title>
<path fill="none" stroke="#9a32cd" stroke-dasharray="5,2" d="M1202.28,-351.64C1256.83,-353.87 1325.68,-357.05 1387,-361 1437.46,-364.25 1494.09,-368.94 1538.41,-372.84"/>
<polygon fill="#9a32cd" stroke="#9a32cd" points="1202.4,-348.14 1192.27,-351.24 1202.12,-355.14 1202.4,-348.14"/>
<text text-anchor="middle" x="1298.5" y="-364" font-family="Helvetica,sans-Serif" font-size="10.00"> available</text>
</g>
<!-- Node34 -->
<g id="node29" class="node">
<title>Node34</title>
<g id="a_node29"><a xlink:href="structfiftyone_degrees_config_hash.html" target="_top" xlink:title="Hash specific configuration structure.">
<polygon fill="none" stroke="black" points="1822,-384.5 1822,-403.5 1971,-403.5 1971,-384.5 1822,-384.5"/>
<text text-anchor="middle" x="1896.5" y="-391.5" font-family="Helvetica,sans-Serif" font-size="10.00">fiftyoneDegreesConfigHash</text>
</a>
</g>
</g>
<!-- Node34&#45;&gt;Node9 -->
<g id="edge37" class="edge">
<title>Node34&#45;&gt;Node9</title>
<path fill="none" stroke="#9a32cd" stroke-dasharray="5,2" d="M1932.89,-380.96C1975.04,-365.32 2047.47,-338.06 2109,-313 2138.66,-300.92 2172.56,-286.1 2193.99,-276.61"/>
<polygon fill="#9a32cd" stroke="#9a32cd" points="1931.52,-377.74 1923.36,-384.5 1933.95,-384.3 1931.52,-377.74"/>
<text text-anchor="middle" x="2053.5" y="-359" font-family="Helvetica,sans-Serif" font-size="10.00"> config</text>
</g>
<!-- Node35 -->
<g id="node30" class="node">
<title>Node35</title>
<g id="a_node30"><a xlink:href="structfiftyone_degrees_collection_config.html" target="_top" xlink:title="Collection configuration structure which defines how the collection should be created by the create m...">
<polygon fill="none" stroke="black" points="1545.5,-409 1545.5,-439 1688.5,-439 1688.5,-409 1545.5,-409"/>
<text text-anchor="start" x="1553.5" y="-427" font-family="Helvetica,sans-Serif" font-size="10.00">fiftyoneDegreesCollection</text>
<text text-anchor="middle" x="1617" y="-416" font-family="Helvetica,sans-Serif" font-size="10.00">Config</text>
</a>
</g>
</g>
<!-- Node35&#45;&gt;Node34 -->
<g id="edge38" class="edge">
<title>Node35&#45;&gt;Node34</title>
<path fill="none" stroke="#9a32cd" stroke-dasharray="5,2" d="M1698.98,-415.25C1737.86,-411.04 1784.12,-406.04 1821.98,-401.95"/>
<polygon fill="#9a32cd" stroke="#9a32cd" points="1698.31,-411.8 1688.74,-416.35 1699.06,-418.76 1698.31,-411.8"/>
<text text-anchor="middle" x="1760.5" y="-503" font-family="Helvetica,sans-Serif" font-size="10.00"> profileOffsets</text>
<text text-anchor="middle" x="1760.5" y="-492" font-family="Helvetica,sans-Serif" font-size="10.00">values</text>
<text text-anchor="middle" x="1760.5" y="-481" font-family="Helvetica,sans-Serif" font-size="10.00">strings</text>
<text text-anchor="middle" x="1760.5" y="-470" font-family="Helvetica,sans-Serif" font-size="10.00">maps</text>
<text text-anchor="middle" x="1760.5" y="-459" font-family="Helvetica,sans-Serif" font-size="10.00">components</text>
<text text-anchor="middle" x="1760.5" y="-448" font-family="Helvetica,sans-Serif" font-size="10.00">nodes</text>
<text text-anchor="middle" x="1760.5" y="-437" font-family="Helvetica,sans-Serif" font-size="10.00">properties</text>
<text text-anchor="middle" x="1760.5" y="-426" font-family="Helvetica,sans-Serif" font-size="10.00">rootNodes</text>
<text text-anchor="middle" x="1760.5" y="-415" font-family="Helvetica,sans-Serif" font-size="10.00">profiles</text>
</g>
<!-- Node36 -->
<g id="node31" class="node">
<title>Node36</title>
<g id="a_node31"><a xlink:href="structfiftyone_degrees_config_device_detection.html" target="_top" xlink:title="Device detection configuration structure containing device detection specific configuration options,...">
<polygon fill="none" stroke="black" points="1538,-579 1538,-609 1696,-609 1696,-579 1538,-579"/>
<text text-anchor="start" x="1546" y="-597" font-family="Helvetica,sans-Serif" font-size="10.00">fiftyoneDegreesConfigDevice</text>
<text text-anchor="middle" x="1617" y="-586" font-family="Helvetica,sans-Serif" font-size="10.00">Detection</text>
</a>
</g>
</g>
<!-- Node36&#45;&gt;Node34 -->
<g id="edge39" class="edge">
<title>Node36&#45;&gt;Node34</title>
<path fill="none" stroke="#9a32cd" stroke-dasharray="5,2" d="M1701.03,-575.79C1735.25,-564.07 1772.17,-545.17 1795,-515 1822.78,-478.29 1781.3,-446.38 1813,-413 1816.54,-409.27 1820.66,-406.2 1825.12,-403.69"/>
<polygon fill="#9a32cd" stroke="#9a32cd" points="1699.88,-572.49 1691.46,-578.91 1702.05,-579.14 1699.88,-572.49"/>
<text text-anchor="middle" x="1760.5" y="-568" font-family="Helvetica,sans-Serif" font-size="10.00"> b</text>
</g>
<!-- Node37 -->
<g id="node32" class="node">
<title>Node37</title>
<g id="a_node32"><a xlink:href="structfiftyone_degrees_config_base.html" target="_top" xlink:title="Base configuration structure containing common configuration options, and options that apply to struc...">
<polygon fill="none" stroke="black" points="1224,-590.5 1224,-609.5 1373,-609.5 1373,-590.5 1224,-590.5"/>
<text text-anchor="middle" x="1298.5" y="-597.5" font-family="Helvetica,sans-Serif" font-size="10.00">fiftyoneDegreesConfigBase</text>
</a>
</g>
</g>
<!-- Node37&#45;&gt;Node36 -->
<g id="edge40" class="edge">
<title>Node37&#45;&gt;Node36</title>
<path fill="none" stroke="#9a32cd" stroke-dasharray="5,2" d="M1383.35,-598.41C1431.28,-597.5 1491,-596.37 1537.93,-595.48"/>
<polygon fill="#9a32cd" stroke="#9a32cd" points="1383.24,-594.91 1373.31,-598.6 1383.37,-601.91 1383.24,-594.91"/>
<text text-anchor="middle" x="1456.5" y="-600" font-family="Helvetica,sans-Serif" font-size="10.00"> b</text>
</g>
</g>
</svg>
