<?xml version="1.0" encoding="UTF-8" standalone="no"?>
<!DOCTYPE svg PUBLIC "-//W3C//DTD SVG 1.1//EN"
 "http://www.w3.org/Graphics/SVG/1.1/DTD/svg11.dtd">
<!-- Generated by graphviz version 2.43.0 (0)
 -->
<!-- Title: FiftyoneDegrees::Common::EngineBase Pages: 1 -->
<svg width="918pt" height="266pt"
 viewBox="0.00 0.00 918.00 266.00" xmlns="http://www.w3.org/2000/svg" xmlns:xlink="http://www.w3.org/1999/xlink">
<g id="graph0" class="graph" transform="scale(1 1) rotate(0) translate(4 262)">
<title>FiftyoneDegrees::Common::EngineBase</title>
<!-- Node3 -->
<g id="node1" class="node">
<title>Node3</title>
<g id="a_node1"><a xlink:title="Encapsulates the engine class to be extended by engine implementations.">
<polygon fill="#bfbfbf" stroke="black" points="764,-117.5 764,-147.5 910,-147.5 910,-117.5 764,-117.5"/>
<text text-anchor="start" x="772" y="-135.5" font-family="Helvetica,sans-Serif" font-size="10.00">FiftyoneDegrees::Common</text>
<text text-anchor="middle" x="837" y="-124.5" font-family="Helvetica,sans-Serif" font-size="10.00">::EngineBase</text>
</a>
</g>
</g>
<!-- Node4 -->
<g id="node2" class="node">
<title>Node4</title>
<g id="a_node2"><a xlink:href="class_fiftyone_degrees_1_1_common_1_1_required_properties_config.html" target="_top" xlink:title="C++ class wrapper for the fiftyoneDegreesPropertiesRequired structure.">
<polygon fill="none" stroke="black" points="488,-227.5 488,-257.5 634,-257.5 634,-227.5 488,-227.5"/>
<text text-anchor="start" x="496" y="-245.5" font-family="Helvetica,sans-Serif" font-size="10.00">FiftyoneDegrees::Common</text>
<text text-anchor="middle" x="561" y="-234.5" font-family="Helvetica,sans-Serif" font-size="10.00">::RequiredPropertiesConfig</text>
</a>
</g>
</g>
<!-- Node4&#45;&gt;Node3 -->
<g id="edge1" class="edge">
<title>Node4&#45;&gt;Node3</title>
<path fill="none" stroke="#9a32cd" stroke-dasharray="5,2" d="M644.26,-238.39C677.14,-234.29 714.58,-226.43 746,-211.5 778.11,-196.24 807.48,-166.12 823.44,-147.8"/>
<polygon fill="#9a32cd" stroke="#9a32cd" points="643.75,-234.92 634.22,-239.54 644.55,-241.88 643.75,-234.92"/>
<text text-anchor="middle" x="699" y="-239.5" font-family="Helvetica,sans-Serif" font-size="10.00"> requiredProperties</text>
</g>
<!-- Node5 -->
<g id="node3" class="node">
<title>Node5</title>
<g id="a_node3"><a xlink:title=" ">
<polygon fill="none" stroke="#bfbfbf" points="241,-169.5 241,-199.5 398,-199.5 398,-169.5 241,-169.5"/>
<text text-anchor="start" x="249" y="-187.5" font-family="Helvetica,sans-Serif" font-size="10.00">shared_ptr&lt; fiftyoneDegrees</text>
<text text-anchor="middle" x="319.5" y="-176.5" font-family="Helvetica,sans-Serif" font-size="10.00">ResourceManager &gt;</text>
</a>
</g>
</g>
<!-- Node5&#45;&gt;Node3 -->
<g id="edge2" class="edge">
<title>Node5&#45;&gt;Node3</title>
<path fill="none" stroke="#9a32cd" stroke-dasharray="5,2" d="M408.16,-184.82C494.76,-183.66 630.63,-177.89 746,-155.5 757.56,-153.26 769.84,-150.42 781.5,-147.52"/>
<polygon fill="#9a32cd" stroke="#9a32cd" points="408.07,-181.32 398.11,-184.93 408.15,-188.32 408.07,-181.32"/>
<text text-anchor="middle" x="561" y="-184.5" font-family="Helvetica,sans-Serif" font-size="10.00"> manager</text>
</g>
<!-- Node10 -->
<g id="node8" class="node">
<title>Node10</title>
<g id="a_node8"><a xlink:href="class_fiftyone_degrees_1_1_common_1_1_meta_data.html" target="_top" xlink:title="Contains meta data for the properties, values, profiles and components that exist within the engine i...">
<polygon fill="none" stroke="black" points="488,-130.5 488,-160.5 634,-160.5 634,-130.5 488,-130.5"/>
<text text-anchor="start" x="496" y="-148.5" font-family="Helvetica,sans-Serif" font-size="10.00">FiftyoneDegrees::Common</text>
<text text-anchor="middle" x="561" y="-137.5" font-family="Helvetica,sans-Serif" font-size="10.00">::MetaData</text>
</a>
</g>
</g>
<!-- Node5&#45;&gt;Node10 -->
<g id="edge8" class="edge">
<title>Node5&#45;&gt;Node10</title>
<path fill="none" stroke="#9a32cd" stroke-dasharray="5,2" d="M408.18,-170.22C434.4,-165.95 462.82,-161.32 487.91,-157.24"/>
<polygon fill="#9a32cd" stroke="#9a32cd" points="407.57,-166.78 398.26,-171.84 408.69,-173.69 407.57,-166.78"/>
<text text-anchor="middle" x="443" y="-170.5" font-family="Helvetica,sans-Serif" font-size="10.00"> manager</text>
</g>
<!-- Node6 -->
<g id="node4" class="node">
<title>Node6</title>
<g id="a_node4"><a xlink:title=" ">
<polygon fill="none" stroke="#bfbfbf" points="0,-175 0,-194 68,-194 68,-175 0,-175"/>
<text text-anchor="middle" x="34" y="-182" font-family="Helvetica,sans-Serif" font-size="10.00">shared_ptr</text>
</a>
</g>
</g>
<!-- Node6&#45;&gt;Node5 -->
<g id="edge3" class="edge">
<title>Node6&#45;&gt;Node5</title>
<path fill="none" stroke="orange" stroke-dasharray="5,2" d="M78.22,-184.5C121.31,-184.5 188.44,-184.5 240.8,-184.5"/>
<polygon fill="orange" stroke="orange" points="78.08,-181 68.08,-184.5 78.08,-188 78.08,-181"/>
<text text-anchor="start" x="86" y="-198.5" font-family="Helvetica,sans-Serif" font-size="10.00"> &lt; fiftyoneDegreesResource</text>
<text text-anchor="middle" x="154.5" y="-187.5" font-family="Helvetica,sans-Serif" font-size="10.00">Manager &gt;</text>
</g>
<!-- Node7 -->
<g id="node5" class="node">
<title>Node7</title>
<g id="a_node5"><a xlink:title=" ">
<polygon fill="none" stroke="#bfbfbf" points="512,-92 512,-111 610,-111 610,-92 512,-92"/>
<text text-anchor="middle" x="561" y="-99" font-family="Helvetica,sans-Serif" font-size="10.00">vector&lt; string &gt;</text>
</a>
</g>
</g>
<!-- Node7&#45;&gt;Node3 -->
<g id="edge4" class="edge">
<title>Node7&#45;&gt;Node3</title>
<path fill="none" stroke="#9a32cd" stroke-dasharray="5,2" d="M620.43,-107.65C656.61,-111.51 704.02,-116.65 746,-121.5 751.79,-122.17 757.78,-122.87 763.8,-123.59"/>
<polygon fill="#9a32cd" stroke="#9a32cd" points="620.37,-104.12 610.06,-106.55 619.63,-111.08 620.37,-104.12"/>
<text text-anchor="middle" x="699" y="-124.5" font-family="Helvetica,sans-Serif" font-size="10.00"> keys</text>
</g>
<!-- Node8 -->
<g id="node6" class="node">
<title>Node8</title>
<g id="a_node6"><a xlink:title=" ">
<polygon fill="none" stroke="#bfbfbf" points="296,-92 296,-111 343,-111 343,-92 296,-92"/>
<text text-anchor="middle" x="319.5" y="-99" font-family="Helvetica,sans-Serif" font-size="10.00">vector</text>
</a>
</g>
</g>
<!-- Node8&#45;&gt;Node7 -->
<g id="edge5" class="edge">
<title>Node8&#45;&gt;Node7</title>
<path fill="none" stroke="orange" stroke-dasharray="5,2" d="M353.27,-101.5C394.24,-101.5 464.69,-101.5 511.81,-101.5"/>
<polygon fill="orange" stroke="orange" points="353.03,-98 343.03,-101.5 353.03,-105 353.03,-98"/>
<text text-anchor="middle" x="443" y="-104.5" font-family="Helvetica,sans-Serif" font-size="10.00"> &lt; string &gt;</text>
</g>
<!-- Node9 -->
<g id="node7" class="node">
<title>Node9</title>
<g id="a_node7"><a xlink:title=" ">
<polygon fill="none" stroke="#bfbfbf" points="539,-50 539,-69 583,-69 583,-50 539,-50"/>
<text text-anchor="middle" x="561" y="-57" font-family="Helvetica,sans-Serif" font-size="10.00">string</text>
</a>
</g>
</g>
<!-- Node9&#45;&gt;Node3 -->
<g id="edge6" class="edge">
<title>Node9&#45;&gt;Node3</title>
<path fill="none" stroke="#9a32cd" stroke-dasharray="5,2" d="M593.36,-57.22C630.76,-55.54 694.66,-56.02 746,-73.5 773.94,-83.01 801.68,-103.26 818.82,-117.36"/>
<polygon fill="#9a32cd" stroke="#9a32cd" points="592.9,-53.73 583.1,-57.76 593.27,-60.72 592.9,-53.73"/>
<text text-anchor="middle" x="699" y="-98.5" font-family="Helvetica,sans-Serif" font-size="10.00"> defaultDataKey</text>
<text text-anchor="middle" x="699" y="-87.5" font-family="Helvetica,sans-Serif" font-size="10.00">licenceKey</text>
<text text-anchor="middle" x="699" y="-76.5" font-family="Helvetica,sans-Serif" font-size="10.00">updateUrl</text>
</g>
<!-- Node10&#45;&gt;Node3 -->
<g id="edge7" class="edge">
<title>Node10&#45;&gt;Node3</title>
<path fill="none" stroke="#9a32cd" stroke-dasharray="5,2" d="M644.36,-141.59C682.36,-139.79 727.05,-137.67 763.72,-135.93"/>
<polygon fill="#9a32cd" stroke="#9a32cd" points="644.17,-138.1 634.35,-142.07 644.5,-145.09 644.17,-138.1"/>
<text text-anchor="middle" x="699" y="-143.5" font-family="Helvetica,sans-Serif" font-size="10.00"> metaData</text>
</g>
<!-- Node11 -->
<g id="node9" class="node">
<title>Node11</title>
<g id="a_node9"><a xlink:href="class_fiftyone_degrees_1_1_common_1_1_config_base.html" target="_top" xlink:title="C++ class wrapper for the fiftyoneDegreesConfigBase configuration structure.">
<polygon fill="none" stroke="black" points="488,-0.5 488,-30.5 634,-30.5 634,-0.5 488,-0.5"/>
<text text-anchor="start" x="496" y="-18.5" font-family="Helvetica,sans-Serif" font-size="10.00">FiftyoneDegrees::Common</text>
<text text-anchor="middle" x="561" y="-7.5" font-family="Helvetica,sans-Serif" font-size="10.00">::ConfigBase</text>
</a>
</g>
</g>
<!-- Node11&#45;&gt;Node3 -->
<g id="edge9" class="edge">
<title>Node11&#45;&gt;Node3</title>
<path fill="none" stroke="#9a32cd" stroke-dasharray="5,2" d="M644.31,-15.85C677.36,-18.8 714.91,-25.88 746,-41.5 781.34,-59.26 811.05,-96.32 825.87,-117.25"/>
<polygon fill="#9a32cd" stroke="#9a32cd" points="644.46,-12.35 634.21,-15.06 643.91,-19.33 644.46,-12.35"/>
<text text-anchor="middle" x="699" y="-44.5" font-family="Helvetica,sans-Serif" font-size="10.00"> config</text>
</g>
</g>
</svg>
