<?xml version="1.0" encoding="UTF-8" standalone="no"?>
<!DOCTYPE svg PUBLIC "-//W3C//DTD SVG 1.1//EN"
 "http://www.w3.org/Graphics/SVG/1.1/DTD/svg11.dtd">
<!-- Generated by graphviz version 2.43.0 (0)
 -->
<!-- Title: FiftyoneDegrees::DeviceDetection::Hash::ProfileMetaDataCollectionHash Pages: 1 -->
<svg width="262pt" height="196pt"
 viewBox="0.00 0.00 262.00 196.00" xmlns="http://www.w3.org/2000/svg" xmlns:xlink="http://www.w3.org/1999/xlink">
<g id="graph0" class="graph" transform="scale(1 1) rotate(0) translate(4 192)">
<title>FiftyoneDegrees::DeviceDetection::Hash::ProfileMetaDataCollectionHash</title>
<!-- Node3 -->
<g id="node1" class="node">
<title>Node3</title>
<g id="a_node1"><a xlink:title="A collection of all profile meta data contained in a Hash engine.">
<polygon fill="#bfbfbf" stroke="black" points="0,-0.5 0,-30.5 206,-30.5 206,-0.5 0,-0.5"/>
<text text-anchor="start" x="8" y="-18.5" font-family="Helvetica,sans-Serif" font-size="10.00">FiftyoneDegrees::DeviceDetection</text>
<text text-anchor="middle" x="103" y="-7.5" font-family="Helvetica,sans-Serif" font-size="10.00">::Hash::ProfileMetaDataCollectionHash</text>
</a>
</g>
</g>
<!-- Node4 -->
<g id="node2" class="node">
<title>Node4</title>
<g id="a_node2"><a xlink:href="class_fiftyone_degrees_1_1_common_1_1_collection.html" target="_top" xlink:title=" ">
<polygon fill="none" stroke="black" points="30,-68.5 30,-109.5 176,-109.5 176,-68.5 30,-68.5"/>
<text text-anchor="start" x="38" y="-97.5" font-family="Helvetica,sans-Serif" font-size="10.00">FiftyoneDegrees::Common</text>
<text text-anchor="start" x="38" y="-86.5" font-family="Helvetica,sans-Serif" font-size="10.00">::Collection&lt; uint32_t,</text>
<text text-anchor="middle" x="103" y="-75.5" font-family="Helvetica,sans-Serif" font-size="10.00"> ProfileMetaData &gt;</text>
</a>
</g>
</g>
<!-- Node4&#45;&gt;Node3 -->
<g id="edge1" class="edge">
<title>Node4&#45;&gt;Node3</title>
<path fill="none" stroke="midnightblue" d="M103,-58.16C103,-48.69 103,-38.65 103,-30.8"/>
<polygon fill="midnightblue" stroke="midnightblue" points="99.5,-58.46 103,-68.46 106.5,-58.46 99.5,-58.46"/>
</g>
<!-- Node5 -->
<g id="node3" class="node">
<title>Node5</title>
<g id="a_node3"><a xlink:href="class_fiftyone_degrees_1_1_common_1_1_collection.html" target="_top" xlink:title="A group of items accessible by index or key.">
<polygon fill="none" stroke="black" points="30,-157.5 30,-187.5 176,-187.5 176,-157.5 30,-157.5"/>
<text text-anchor="start" x="38" y="-175.5" font-family="Helvetica,sans-Serif" font-size="10.00">FiftyoneDegrees::Common</text>
<text text-anchor="middle" x="103" y="-164.5" font-family="Helvetica,sans-Serif" font-size="10.00">::Collection&lt; K, V &gt;</text>
</a>
</g>
</g>
<!-- Node5&#45;&gt;Node4 -->
<g id="edge2" class="edge">
<title>Node5&#45;&gt;Node4</title>
<path fill="none" stroke="orange" stroke-dasharray="5,2" d="M103,-147.07C103,-135.06 103,-120.79 103,-109.53"/>
<polygon fill="orange" stroke="orange" points="99.5,-147.3 103,-157.3 106.5,-147.3 99.5,-147.3"/>
<text text-anchor="middle" x="178.5" y="-131" font-family="Helvetica,sans-Serif" font-size="10.00"> &lt; uint32_t, ProfileMetaData &gt;</text>
</g>
</g>
</svg>
