<?xml version="1.0" encoding="UTF-8" standalone="no"?>
<!DOCTYPE svg PUBLIC "-//W3C//DTD SVG 1.1//EN"
 "http://www.w3.org/Graphics/SVG/1.1/DTD/svg11.dtd">
<!-- Generated by graphviz version 2.43.0 (0)
 -->
<!-- Title: FiftyoneDegrees::DeviceDetection::Hash::ComponentMetaDataCollectionHash Pages: 1 -->
<svg width="282pt" height="196pt"
 viewBox="0.00 0.00 281.50 196.00" xmlns="http://www.w3.org/2000/svg" xmlns:xlink="http://www.w3.org/1999/xlink">
<g id="graph0" class="graph" transform="scale(1 1) rotate(0) translate(4 192)">
<title>FiftyoneDegrees::DeviceDetection::Hash::ComponentMetaDataCollectionHash</title>
<!-- Node3 -->
<g id="node1" class="node">
<title>Node3</title>
<g id="a_node1"><a xlink:title="A collection of component meta data contained in a Hash engine.">
<polygon fill="#bfbfbf" stroke="black" points="0,-0.5 0,-30.5 231,-30.5 231,-0.5 0,-0.5"/>
<text text-anchor="start" x="8" y="-18.5" font-family="Helvetica,sans-Serif" font-size="10.00">FiftyoneDegrees::DeviceDetection</text>
<text text-anchor="middle" x="115.5" y="-7.5" font-family="Helvetica,sans-Serif" font-size="10.00">::Hash::ComponentMetaDataCollectionHash</text>
</a>
</g>
</g>
<!-- Node4 -->
<g id="node2" class="node">
<title>Node4</title>
<g id="a_node2"><a xlink:href="class_fiftyone_degrees_1_1_common_1_1_collection.html" target="_top" xlink:title=" ">
<polygon fill="none" stroke="black" points="32,-68.5 32,-109.5 199,-109.5 199,-68.5 32,-68.5"/>
<text text-anchor="start" x="40" y="-97.5" font-family="Helvetica,sans-Serif" font-size="10.00">FiftyoneDegrees::Common</text>
<text text-anchor="start" x="40" y="-86.5" font-family="Helvetica,sans-Serif" font-size="10.00">::Collection&lt; byte, Component</text>
<text text-anchor="middle" x="115.5" y="-75.5" font-family="Helvetica,sans-Serif" font-size="10.00">MetaData &gt;</text>
</a>
</g>
</g>
<!-- Node4&#45;&gt;Node3 -->
<g id="edge1" class="edge">
<title>Node4&#45;&gt;Node3</title>
<path fill="none" stroke="midnightblue" d="M115.5,-58.16C115.5,-48.69 115.5,-38.65 115.5,-30.8"/>
<polygon fill="midnightblue" stroke="midnightblue" points="112,-58.46 115.5,-68.46 119,-58.46 112,-58.46"/>
</g>
<!-- Node5 -->
<g id="node3" class="node">
<title>Node5</title>
<g id="a_node3"><a xlink:href="class_fiftyone_degrees_1_1_common_1_1_collection.html" target="_top" xlink:title="A group of items accessible by index or key.">
<polygon fill="none" stroke="black" points="42.5,-157.5 42.5,-187.5 188.5,-187.5 188.5,-157.5 42.5,-157.5"/>
<text text-anchor="start" x="50.5" y="-175.5" font-family="Helvetica,sans-Serif" font-size="10.00">FiftyoneDegrees::Common</text>
<text text-anchor="middle" x="115.5" y="-164.5" font-family="Helvetica,sans-Serif" font-size="10.00">::Collection&lt; K, V &gt;</text>
</a>
</g>
</g>
<!-- Node5&#45;&gt;Node4 -->
<g id="edge2" class="edge">
<title>Node5&#45;&gt;Node4</title>
<path fill="none" stroke="orange" stroke-dasharray="5,2" d="M115.5,-147.07C115.5,-135.06 115.5,-120.79 115.5,-109.53"/>
<polygon fill="orange" stroke="orange" points="112,-147.3 115.5,-157.3 119,-147.3 112,-147.3"/>
<text text-anchor="middle" x="194.5" y="-131" font-family="Helvetica,sans-Serif" font-size="10.00"> &lt; byte, ComponentMetaData &gt;</text>
</g>
</g>
</svg>
