<?xml version="1.0" encoding="UTF-8" standalone="no"?>
<!DOCTYPE svg PUBLIC "-//W3C//DTD SVG 1.1//EN"
 "http://www.w3.org/Graphics/SVG/1.1/DTD/svg11.dtd">
<!-- Generated by graphviz version 2.43.0 (0)
 -->
<!-- Title: FiftyoneDegrees::Common::FatalException Pages: 1 -->
<svg width="154pt" height="174pt"
 viewBox="0.00 0.00 154.00 174.00" xmlns="http://www.w3.org/2000/svg" xmlns:xlink="http://www.w3.org/1999/xlink">
<g id="graph0" class="graph" transform="scale(1 1) rotate(0) translate(4 170)">
<title>FiftyoneDegrees::Common::FatalException</title>
<!-- Node3 -->
<g id="node1" class="node">
<title>Node3</title>
<g id="a_node1"><a xlink:title="Fatal exception meaning the process should be halted.">
<polygon fill="#bfbfbf" stroke="black" points="0,-0.5 0,-30.5 146,-30.5 146,-0.5 0,-0.5"/>
<text text-anchor="start" x="8" y="-18.5" font-family="Helvetica,sans-Serif" font-size="10.00">FiftyoneDegrees::Common</text>
<text text-anchor="middle" x="73" y="-7.5" font-family="Helvetica,sans-Serif" font-size="10.00">::FatalException</text>
</a>
</g>
</g>
<!-- Node4 -->
<g id="node2" class="node">
<title>Node4</title>
<g id="a_node2"><a xlink:href="class_fiftyone_degrees_1_1_common_1_1_status_code_exception.html" target="_top" xlink:title="Exception containing the status code which caused the exception.">
<polygon fill="none" stroke="black" points="0,-68.5 0,-98.5 146,-98.5 146,-68.5 0,-68.5"/>
<text text-anchor="start" x="8" y="-86.5" font-family="Helvetica,sans-Serif" font-size="10.00">FiftyoneDegrees::Common</text>
<text text-anchor="middle" x="73" y="-75.5" font-family="Helvetica,sans-Serif" font-size="10.00">::StatusCodeException</text>
</a>
</g>
</g>
<!-- Node4&#45;&gt;Node3 -->
<g id="edge1" class="edge">
<title>Node4&#45;&gt;Node3</title>
<path fill="none" stroke="midnightblue" d="M73,-58.03C73,-48.86 73,-38.74 73,-30.79"/>
<polygon fill="midnightblue" stroke="midnightblue" points="69.5,-58.18 73,-68.18 76.5,-58.18 69.5,-58.18"/>
</g>
<!-- Node5 -->
<g id="node3" class="node">
<title>Node5</title>
<g id="a_node3"><a xlink:title=" ">
<polygon fill="none" stroke="#bfbfbf" points="4.5,-146.5 4.5,-165.5 69.5,-165.5 69.5,-146.5 4.5,-146.5"/>
<text text-anchor="middle" x="37" y="-153.5" font-family="Helvetica,sans-Serif" font-size="10.00">exception</text>
</a>
</g>
</g>
<!-- Node5&#45;&gt;Node4 -->
<g id="edge2" class="edge">
<title>Node5&#45;&gt;Node4</title>
<path fill="none" stroke="midnightblue" d="M46.03,-137.32C52.14,-125.34 60.12,-109.72 65.81,-98.58"/>
<polygon fill="midnightblue" stroke="midnightblue" points="42.85,-135.86 41.41,-146.36 49.08,-139.04 42.85,-135.86"/>
</g>
<!-- Node6 -->
<g id="node4" class="node">
<title>Node6</title>
<g id="a_node4"><a xlink:title=" ">
<polygon fill="none" stroke="#bfbfbf" points="88,-146.5 88,-165.5 132,-165.5 132,-146.5 88,-146.5"/>
<text text-anchor="middle" x="110" y="-153.5" font-family="Helvetica,sans-Serif" font-size="10.00">string</text>
</a>
</g>
</g>
<!-- Node6&#45;&gt;Node4 -->
<g id="edge3" class="edge">
<title>Node6&#45;&gt;Node4</title>
<path fill="none" stroke="#9a32cd" stroke-dasharray="5,2" d="M100.72,-137.32C94.43,-125.34 86.23,-109.72 80.39,-98.58"/>
<polygon fill="#9a32cd" stroke="#9a32cd" points="97.72,-139.13 105.46,-146.36 103.92,-135.87 97.72,-139.13"/>
<text text-anchor="middle" x="118" y="-120" font-family="Helvetica,sans-Serif" font-size="10.00"> message</text>
</g>
</g>
</svg>
