<?xml version="1.0" encoding="UTF-8" standalone="no"?>
<!DOCTYPE svg PUBLIC "-//W3C//DTD SVG 1.1//EN"
 "http://www.w3.org/Graphics/SVG/1.1/DTD/svg11.dtd">
<!-- Generated by graphviz version 2.43.0 (0)
 -->
<!-- Title: FiftyoneDegrees::Examples::Hash::ExampleBase Pages: 1 -->
<svg width="346pt" height="284pt"
 viewBox="0.00 0.00 346.00 284.00" xmlns="http://www.w3.org/2000/svg" xmlns:xlink="http://www.w3.org/1999/xlink">
<g id="graph0" class="graph" transform="scale(1 1) rotate(0) translate(4 280)">
<title>FiftyoneDegrees::Examples::Hash::ExampleBase</title>
<!-- Node0 -->
<g id="node1" class="node">
<title>Node0</title>
<g id="a_node1"><a xlink:title="Base class extended by all Hash examples.">
<polygon fill="#bfbfbf" stroke="black" points="0,-122.5 0,-152.5 150,-152.5 150,-122.5 0,-122.5"/>
<text text-anchor="start" x="8" y="-140.5" font-family="Helvetica,sans-Serif" font-size="10.00">FiftyoneDegrees::Examples</text>
<text text-anchor="middle" x="75" y="-129.5" font-family="Helvetica,sans-Serif" font-size="10.00">::Hash::ExampleBase</text>
</a>
</g>
</g>
<!-- Node1 -->
<g id="node2" class="node">
<title>Node1</title>
<g id="a_node2"><a xlink:href="class_fiftyone_degrees_1_1_examples_1_1_hash_1_1_getting_started.html" target="_top" xlink:title="Hash Getting Started Example.">
<polygon fill="none" stroke="black" points="187,-245.5 187,-275.5 337,-275.5 337,-245.5 187,-245.5"/>
<text text-anchor="start" x="195" y="-263.5" font-family="Helvetica,sans-Serif" font-size="10.00">FiftyoneDegrees::Examples</text>
<text text-anchor="middle" x="262" y="-252.5" font-family="Helvetica,sans-Serif" font-size="10.00">::Hash::GettingStarted</text>
</a>
</g>
</g>
<!-- Node0&#45;&gt;Node1 -->
<g id="edge1" class="edge">
<title>Node0&#45;&gt;Node1</title>
<path fill="none" stroke="midnightblue" d="M95.99,-160.43C116.54,-182.72 150.48,-216.1 186,-236.5 191.81,-239.84 198.14,-242.77 204.59,-245.34"/>
<polygon fill="midnightblue" stroke="midnightblue" points="98.35,-157.83 89.04,-152.77 93.16,-162.53 98.35,-157.83"/>
</g>
<!-- Node2 -->
<g id="node3" class="node">
<title>Node2</title>
<g id="a_node3"><a xlink:href="class_fiftyone_degrees_1_1_examples_1_1_hash_1_1_match_metrics.html" target="_top" xlink:title="Match Metrics Hash Example.">
<polygon fill="none" stroke="black" points="187,-196.5 187,-226.5 337,-226.5 337,-196.5 187,-196.5"/>
<text text-anchor="start" x="195" y="-214.5" font-family="Helvetica,sans-Serif" font-size="10.00">FiftyoneDegrees::Examples</text>
<text text-anchor="middle" x="262" y="-203.5" font-family="Helvetica,sans-Serif" font-size="10.00">::Hash::MatchMetrics</text>
</a>
</g>
</g>
<!-- Node0&#45;&gt;Node2 -->
<g id="edge2" class="edge">
<title>Node0&#45;&gt;Node2</title>
<path fill="none" stroke="midnightblue" d="M115.99,-157.04C136.65,-166.78 162.41,-178.4 186,-187.5 194.04,-190.6 202.66,-193.63 211.09,-196.43"/>
<polygon fill="midnightblue" stroke="midnightblue" points="117.41,-153.84 106.88,-152.71 114.41,-160.16 117.41,-153.84"/>
</g>
<!-- Node3 -->
<g id="node4" class="node">
<title>Node3</title>
<g id="a_node4"><a xlink:href="class_fiftyone_degrees_1_1_examples_1_1_hash_1_1_meta_data_example.html" target="_top" xlink:title="Hash Meta Data Example.">
<polygon fill="none" stroke="black" points="187,-147.5 187,-177.5 337,-177.5 337,-147.5 187,-147.5"/>
<text text-anchor="start" x="195" y="-165.5" font-family="Helvetica,sans-Serif" font-size="10.00">FiftyoneDegrees::Examples</text>
<text text-anchor="middle" x="262" y="-154.5" font-family="Helvetica,sans-Serif" font-size="10.00">::Hash::MetaDataExample</text>
</a>
</g>
</g>
<!-- Node0&#45;&gt;Node3 -->
<g id="edge3" class="edge">
<title>Node0&#45;&gt;Node3</title>
<path fill="none" stroke="midnightblue" d="M160.16,-148.87C169.04,-150.07 178.04,-151.29 186.8,-152.47"/>
<polygon fill="midnightblue" stroke="midnightblue" points="160.56,-145.4 150.18,-147.52 159.62,-152.33 160.56,-145.4"/>
</g>
<!-- Node4 -->
<g id="node5" class="node">
<title>Node4</title>
<g id="a_node5"><a xlink:href="class_fiftyone_degrees_1_1_examples_1_1_hash_1_1_reload_from_file.html" target="_top" xlink:title="Hash Reload From File Example.">
<polygon fill="none" stroke="black" points="187,-98.5 187,-128.5 337,-128.5 337,-98.5 187,-98.5"/>
<text text-anchor="start" x="195" y="-116.5" font-family="Helvetica,sans-Serif" font-size="10.00">FiftyoneDegrees::Examples</text>
<text text-anchor="middle" x="262" y="-105.5" font-family="Helvetica,sans-Serif" font-size="10.00">::Hash::ReloadFromFile</text>
</a>
</g>
</g>
<!-- Node0&#45;&gt;Node4 -->
<g id="edge4" class="edge">
<title>Node0&#45;&gt;Node4</title>
<path fill="none" stroke="midnightblue" d="M160.16,-126.58C169.04,-125.43 178.04,-124.26 186.8,-123.13"/>
<polygon fill="midnightblue" stroke="midnightblue" points="159.65,-123.12 150.18,-127.88 160.55,-130.06 159.65,-123.12"/>
</g>
<!-- Node5 -->
<g id="node6" class="node">
<title>Node5</title>
<g id="a_node6"><a xlink:href="class_fiftyone_degrees_1_1_examples_1_1_hash_1_1_reload_from_memory.html" target="_top" xlink:title="Hash Reload From Memory Example.">
<polygon fill="none" stroke="black" points="186,-49.5 186,-79.5 338,-79.5 338,-49.5 186,-49.5"/>
<text text-anchor="start" x="194" y="-67.5" font-family="Helvetica,sans-Serif" font-size="10.00">FiftyoneDegrees::Examples</text>
<text text-anchor="middle" x="262" y="-56.5" font-family="Helvetica,sans-Serif" font-size="10.00">::Hash::ReloadFromMemory</text>
</a>
</g>
</g>
<!-- Node0&#45;&gt;Node5 -->
<g id="edge5" class="edge">
<title>Node0&#45;&gt;Node5</title>
<path fill="none" stroke="midnightblue" d="M117.73,-118.24C138.14,-109.09 163.16,-98.27 186,-89.5 194.84,-86.11 204.36,-82.72 213.56,-79.6"/>
<polygon fill="midnightblue" stroke="midnightblue" points="116.09,-115.14 108.41,-122.44 118.97,-121.52 116.09,-115.14"/>
</g>
<!-- Node6 -->
<g id="node7" class="node">
<title>Node6</title>
<g id="a_node7"><a xlink:href="class_fiftyone_degrees_1_1_examples_1_1_hash_1_1_strongly_typed.html" target="_top" xlink:title="Hash Strongly Typed Example.">
<polygon fill="none" stroke="black" points="187,-0.5 187,-30.5 337,-30.5 337,-0.5 187,-0.5"/>
<text text-anchor="start" x="195" y="-18.5" font-family="Helvetica,sans-Serif" font-size="10.00">FiftyoneDegrees::Examples</text>
<text text-anchor="middle" x="262" y="-7.5" font-family="Helvetica,sans-Serif" font-size="10.00">::Hash::StronglyTyped</text>
</a>
</g>
</g>
<!-- Node0&#45;&gt;Node6 -->
<g id="edge6" class="edge">
<title>Node0&#45;&gt;Node6</title>
<path fill="none" stroke="midnightblue" d="M96.48,-114.78C117.18,-93.03 151.02,-60.63 186,-40.5 192.54,-36.73 199.74,-33.43 207,-30.57"/>
<polygon fill="midnightblue" stroke="midnightblue" points="93.75,-112.58 89.47,-122.27 98.86,-117.36 93.75,-112.58"/>
</g>
</g>
</svg>
