<?xml version="1.0" encoding="UTF-8" standalone="no"?>
<!DOCTYPE svg PUBLIC "-//W3C//DTD SVG 1.1//EN"
 "http://www.w3.org/Graphics/SVG/1.1/DTD/svg11.dtd">
<!-- Generated by graphviz version 2.43.0 (0)
 -->
<!-- Title: Common Pages: 1 -->
<svg width="216pt" height="1211pt"
 viewBox="0.00 0.00 216.00 1211.00" xmlns="http://www.w3.org/2000/svg" xmlns:xlink="http://www.w3.org/1999/xlink">
<g id="graph0" class="graph" transform="scale(1 1) rotate(0) translate(4 1207)">
<title>Common</title>
<!-- Node0 -->
<g id="node1" class="node">
<title>Node0</title>
<g id="a_node1"><a xlink:title="Common 51Degrees methods, types and macros.">
<polygon fill="#bfbfbf" stroke="black" points="61,-611 0,-611 0,-592 61,-592 61,-611"/>
<text text-anchor="middle" x="30.5" y="-599" font-family="Helvetica,sans-Serif" font-size="10.00">Common</text>
</a>
</g>
</g>
<!-- Node3 -->
<g id="node2" class="node">
<title>Node3</title>
<g id="a_node2"><a xlink:href="group___fifty_one_degrees_collection.html" target="_top" xlink:title="Group of related items such as strings.">
<polygon fill="none" stroke="black" points="185,-1203 120,-1203 120,-1184 185,-1184 185,-1203"/>
<text text-anchor="middle" x="152.5" y="-1191" font-family="Helvetica,sans-Serif" font-size="10.00">Collection</text>
</a>
</g>
</g>
<!-- Node0&#45;&gt;Node3 -->
<g id="edge3" class="edge">
<title>Node0&#45;&gt;Node3</title>
<path fill="none" stroke="black" d="M32.49,-621.11C37.51,-716.74 61.2,-1131.47 97,-1175.5 102.72,-1182.54 111.26,-1186.84 119.89,-1189.47"/>
<polygon fill="black" stroke="black" points="35.99,-620.88 31.98,-611.07 29,-621.24 35.99,-620.88"/>
</g>
<!-- Node19 -->
<g id="node3" class="node">
<title>Node19</title>
<g id="a_node3"><a xlink:href="group___fifty_one_degrees_list.html" target="_top" xlink:title="A more manageable way to store arrays.">
<polygon fill="none" stroke="black" points="169.5,-1166 135.5,-1166 135.5,-1147 169.5,-1147 169.5,-1166"/>
<text text-anchor="middle" x="152.5" y="-1154" font-family="Helvetica,sans-Serif" font-size="10.00">List</text>
</a>
</g>
</g>
<!-- Node0&#45;&gt;Node19 -->
<g id="edge19" class="edge">
<title>Node0&#45;&gt;Node19</title>
<path fill="none" stroke="black" d="M31.18,-621.38C30.18,-708.69 30.48,-1057.34 97,-1138.5 106.29,-1149.83 122.88,-1154.08 135.32,-1155.65"/>
<polygon fill="black" stroke="black" points="34.68,-621.3 31.32,-611.25 27.68,-621.2 34.68,-621.3"/>
</g>
<!-- Node27 -->
<g id="node4" class="node">
<title>Node27</title>
<g id="a_node4"><a xlink:href="group___fifty_one_degrees_results.html" target="_top" xlink:title="Structure returned by an engine&#39;s process method(s), containing values.">
<polygon fill="none" stroke="black" points="179,-1129 126,-1129 126,-1110 179,-1110 179,-1129"/>
<text text-anchor="middle" x="152.5" y="-1117" font-family="Helvetica,sans-Serif" font-size="10.00">Results</text>
</a>
</g>
</g>
<!-- Node0&#45;&gt;Node27 -->
<g id="edge27" class="edge">
<title>Node0&#45;&gt;Node27</title>
<path fill="none" stroke="black" d="M31.38,-621.59C31.29,-705.44 35.05,-1026.6 97,-1101.5 104.11,-1110.1 115.43,-1114.62 125.92,-1116.98"/>
<polygon fill="black" stroke="black" points="34.88,-621.4 31.41,-611.38 27.88,-621.37 34.88,-621.4"/>
</g>
<!-- Node30 -->
<g id="node5" class="node">
<title>Node30</title>
<g id="a_node5"><a xlink:href="group___fifty_one_degrees_text_file.html" target="_top" xlink:title="Contains helper methods for accessing and using text files.">
<polygon fill="none" stroke="black" points="179.5,-1092 125.5,-1092 125.5,-1073 179.5,-1073 179.5,-1092"/>
<text text-anchor="middle" x="152.5" y="-1080" font-family="Helvetica,sans-Serif" font-size="10.00">TextFile</text>
</a>
</g>
</g>
<!-- Node0&#45;&gt;Node30 -->
<g id="edge30" class="edge">
<title>Node0&#45;&gt;Node30</title>
<path fill="none" stroke="black" d="M31.61,-621.1C32.45,-700.29 39.44,-995.63 97,-1064.5 104.03,-1072.91 115.08,-1077.42 125.4,-1079.82"/>
<polygon fill="black" stroke="black" points="35.11,-621.01 31.53,-611.04 28.11,-621.07 35.11,-621.01"/>
</g>
<!-- Node24 -->
<g id="node6" class="node">
<title>Node24</title>
<g id="a_node6"><a xlink:href="group___fifty_one_degrees_properties.html" target="_top" xlink:title="Structures for properties which are available, or required.">
<polygon fill="none" stroke="black" points="185.5,-1055 119.5,-1055 119.5,-1036 185.5,-1036 185.5,-1055"/>
<text text-anchor="middle" x="152.5" y="-1043" font-family="Helvetica,sans-Serif" font-size="10.00">Properties</text>
</a>
</g>
</g>
<!-- Node0&#45;&gt;Node24 -->
<g id="edge24" class="edge">
<title>Node0&#45;&gt;Node24</title>
<path fill="none" stroke="black" d="M31.89,-621.42C33.74,-697 44.01,-964.87 97,-1027.5 102.73,-1034.27 111.06,-1038.51 119.49,-1041.16"/>
<polygon fill="black" stroke="black" points="35.38,-620.93 31.65,-611.01 28.38,-621.08 35.38,-620.93"/>
</g>
<!-- Node31 -->
<g id="node7" class="node">
<title>Node31</title>
<g id="a_node7"><a xlink:href="group___fifty_one_degrees_threading.html" target="_top" xlink:title="Defines multi threading macros if the FIFTYONE_DEGREES_NO_THREADING compiler directive is not explici...">
<polygon fill="none" stroke="black" points="185,-1018 120,-1018 120,-999 185,-999 185,-1018"/>
<text text-anchor="middle" x="152.5" y="-1006" font-family="Helvetica,sans-Serif" font-size="10.00">Threading</text>
</a>
</g>
</g>
<!-- Node0&#45;&gt;Node31 -->
<g id="edge31" class="edge">
<title>Node0&#45;&gt;Node31</title>
<path fill="none" stroke="black" d="M32.21,-621.51C35.14,-692.93 48.51,-934.01 97,-990.5 102.84,-997.31 111.31,-1001.55 119.84,-1004.19"/>
<polygon fill="black" stroke="black" points="35.7,-621.08 31.81,-611.23 28.7,-621.35 35.7,-621.08"/>
</g>
<!-- Node6 -->
<g id="node8" class="node">
<title>Node6</title>
<g id="a_node8"><a xlink:href="group___fifty_one_degrees_component.html" target="_top" xlink:title="Component of a data set.">
<polygon fill="none" stroke="black" points="189,-981 116,-981 116,-962 189,-962 189,-981"/>
<text text-anchor="middle" x="152.5" y="-969" font-family="Helvetica,sans-Serif" font-size="10.00">Component</text>
</a>
</g>
</g>
<!-- Node0&#45;&gt;Node6 -->
<g id="edge6" class="edge">
<title>Node0&#45;&gt;Node6</title>
<path fill="none" stroke="black" d="M32.59,-621.33C36.64,-688.04 52.94,-903.05 97,-953.5 101.98,-959.2 108.81,-963.11 115.95,-965.78"/>
<polygon fill="black" stroke="black" points="36.08,-621.08 32.01,-611.3 29.09,-621.48 36.08,-621.08"/>
</g>
<!-- Node11 -->
<g id="node9" class="node">
<title>Node11</title>
<g id="a_node9"><a xlink:href="group___fifty_one_degrees_exceptions.html" target="_top" xlink:title="Allow the bubbling up or errors in C.">
<polygon fill="none" stroke="black" points="187.5,-944 117.5,-944 117.5,-925 187.5,-925 187.5,-944"/>
<text text-anchor="middle" x="152.5" y="-932" font-family="Helvetica,sans-Serif" font-size="10.00">Exceptions</text>
</a>
</g>
</g>
<!-- Node0&#45;&gt;Node11 -->
<g id="edge11" class="edge">
<title>Node0&#45;&gt;Node11</title>
<path fill="none" stroke="black" d="M33.05,-621.22C38.31,-683.12 57.36,-872.06 97,-916.5 102.37,-922.52 109.8,-926.54 117.45,-929.21"/>
<polygon fill="black" stroke="black" points="36.54,-620.88 32.23,-611.2 29.56,-621.46 36.54,-620.88"/>
</g>
<!-- Node14 -->
<g id="node10" class="node">
<title>Node14</title>
<g id="a_node10"><a xlink:href="group__fiftyone_degrees_float.html" target="_top" xlink:title="IEEE Single Precision Floating Point standard implementation and methods to convert to native float t...">
<polygon fill="none" stroke="black" points="173,-907 132,-907 132,-888 173,-888 173,-907"/>
<text text-anchor="middle" x="152.5" y="-895" font-family="Helvetica,sans-Serif" font-size="10.00">Float</text>
</a>
</g>
</g>
<!-- Node0&#45;&gt;Node14 -->
<g id="edge14" class="edge">
<title>Node0&#45;&gt;Node14</title>
<path fill="none" stroke="black" d="M33.68,-621.46C40.28,-678.59 61.83,-841.1 97,-879.5 105.88,-889.2 120.1,-893.68 131.78,-895.75"/>
<polygon fill="black" stroke="black" points="37.12,-620.77 32.52,-611.23 30.16,-621.56 37.12,-620.77"/>
</g>
<!-- Node33 -->
<g id="node11" class="node">
<title>Node33</title>
<g id="a_node11"><a xlink:href="group___fifty_one_degrees_value.html" target="_top" xlink:title="Value of a data set relating to a property.">
<polygon fill="none" stroke="black" points="177,-870 128,-870 128,-851 177,-851 177,-870"/>
<text text-anchor="middle" x="152.5" y="-858" font-family="Helvetica,sans-Serif" font-size="10.00">Values</text>
</a>
</g>
</g>
<!-- Node0&#45;&gt;Node33 -->
<g id="edge33" class="edge">
<title>Node0&#45;&gt;Node33</title>
<path fill="none" stroke="black" d="M30.97,-621.35C30.86,-666.79 37.06,-779.26 97,-842.5 105.02,-850.96 117.09,-855.45 127.84,-857.83"/>
<polygon fill="black" stroke="black" points="34.47,-621.36 31.1,-611.32 27.47,-621.27 34.47,-621.36"/>
</g>
<!-- Node12 -->
<g id="node12" class="node">
<title>Node12</title>
<g id="a_node12"><a xlink:href="group___fifty_one_degrees_synonyms.html" target="_top" xlink:title="Quick shortenings of common methods and types.">
<polygon fill="none" stroke="black" points="186.5,-833 118.5,-833 118.5,-814 186.5,-814 186.5,-833"/>
<text text-anchor="middle" x="152.5" y="-821" font-family="Helvetica,sans-Serif" font-size="10.00">Synonyms</text>
</a>
</g>
</g>
<!-- Node0&#45;&gt;Node12 -->
<g id="edge12" class="edge">
<title>Node0&#45;&gt;Node12</title>
<path fill="none" stroke="black" d="M32.14,-621.27C34.53,-661.56 45.63,-753.71 97,-805.5 102.82,-811.37 110.6,-815.33 118.45,-817.99"/>
<polygon fill="black" stroke="black" points="35.63,-620.98 31.67,-611.15 28.64,-621.31 35.63,-620.98"/>
</g>
<!-- Node22 -->
<g id="node13" class="node">
<title>Node22</title>
<g id="a_node13"><a xlink:href="group___fifty_one_degrees_pool.html" target="_top" xlink:title="Pool of handles to allow safe access to multiple threads.">
<polygon fill="none" stroke="black" points="171.5,-796 133.5,-796 133.5,-777 171.5,-777 171.5,-796"/>
<text text-anchor="middle" x="152.5" y="-784" font-family="Helvetica,sans-Serif" font-size="10.00">Pool</text>
</a>
</g>
</g>
<!-- Node0&#45;&gt;Node22 -->
<g id="edge22" class="edge">
<title>Node0&#45;&gt;Node22</title>
<path fill="none" stroke="black" d="M33.85,-621.7C38.98,-656.54 54.33,-728.1 97,-768.5 106.84,-777.82 121.61,-782.31 133.29,-784.48"/>
<polygon fill="black" stroke="black" points="37.27,-620.84 32.48,-611.38 30.33,-621.76 37.27,-620.84"/>
</g>
<!-- Node21 -->
<g id="node14" class="node">
<title>Node21</title>
<g id="a_node14"><a xlink:href="group___fifty_one_degrees_overrides.html" target="_top" xlink:title="Used to override properties values or an entire profile.">
<polygon fill="none" stroke="black" points="184.5,-759 120.5,-759 120.5,-740 184.5,-740 184.5,-759"/>
<text text-anchor="middle" x="152.5" y="-747" font-family="Helvetica,sans-Serif" font-size="10.00">Overrides</text>
</a>
</g>
</g>
<!-- Node0&#45;&gt;Node21 -->
<g id="edge21" class="edge">
<title>Node0&#45;&gt;Node21</title>
<path fill="none" stroke="black" d="M36.27,-621.17C44.14,-649.54 62.53,-701.78 97,-731.5 103.64,-737.23 112.16,-741.14 120.47,-743.82"/>
<polygon fill="black" stroke="black" points="39.59,-620.04 33.68,-611.25 32.82,-621.81 39.59,-620.04"/>
</g>
<!-- Node17 -->
<g id="node15" class="node">
<title>Node17</title>
<g id="a_node15"><a xlink:href="group__fiftyone_degrees_ip.html" target="_top" xlink:title="Types and methods to parse IP address strings.">
<polygon fill="none" stroke="black" points="167,-722 138,-722 138,-703 167,-703 167,-722"/>
<text text-anchor="middle" x="152.5" y="-710" font-family="Helvetica,sans-Serif" font-size="10.00">IP</text>
</a>
</g>
</g>
<!-- Node0&#45;&gt;Node17 -->
<g id="edge17" class="edge">
<title>Node0&#45;&gt;Node17</title>
<path fill="none" stroke="black" d="M40.19,-620.39C50.77,-641.38 70.55,-674.89 97,-694.5 109.17,-703.52 126.1,-708.18 137.85,-710.47"/>
<polygon fill="black" stroke="black" points="43.26,-618.68 35.75,-611.21 36.96,-621.73 43.26,-618.68"/>
</g>
<!-- Node28 -->
<g id="node16" class="node">
<title>Node28</title>
<g id="a_node16"><a xlink:href="group___fifty_one_degrees_status.html" target="_top" xlink:title="Status codes and messages indicating the result of an operation.">
<polygon fill="none" stroke="black" points="176,-685 129,-685 129,-666 176,-666 176,-685"/>
<text text-anchor="middle" x="152.5" y="-673" font-family="Helvetica,sans-Serif" font-size="10.00">Status</text>
</a>
</g>
</g>
<!-- Node0&#45;&gt;Node28 -->
<g id="edge28" class="edge">
<title>Node0&#45;&gt;Node28</title>
<path fill="none" stroke="black" d="M47.69,-618.53C60.18,-630.81 78.4,-647.02 97,-657.5 106.9,-663.08 118.79,-667.26 128.93,-670.18"/>
<polygon fill="black" stroke="black" points="49.89,-615.78 40.38,-611.12 44.91,-620.7 49.89,-615.78"/>
</g>
<!-- Node1 -->
<g id="node17" class="node">
<title>Node1</title>
<g id="a_node17"><a xlink:href="group___fifty_one_degrees_array.html" target="_top" xlink:title="Macros used to quickly define array structures.">
<polygon fill="none" stroke="black" points="176.5,-648 128.5,-648 128.5,-629 176.5,-629 176.5,-648"/>
<text text-anchor="middle" x="152.5" y="-636" font-family="Helvetica,sans-Serif" font-size="10.00">Arrays</text>
</a>
</g>
</g>
<!-- Node0&#45;&gt;Node1 -->
<g id="edge1" class="edge">
<title>Node0&#45;&gt;Node1</title>
<path fill="none" stroke="black" d="M70.76,-613.6C89.75,-619.46 111.89,-626.29 128.19,-631.31"/>
<polygon fill="black" stroke="black" points="71.75,-610.25 61.16,-610.65 69.69,-616.94 71.75,-610.25"/>
</g>
<!-- Node8 -->
<g id="node18" class="node">
<title>Node8</title>
<g id="a_node18"><a xlink:href="group___fifty_one_degrees_data.html" target="_top" xlink:title="Structure containing memory allocated to store a variable.">
<polygon fill="none" stroke="black" points="172.5,-611 132.5,-611 132.5,-592 172.5,-592 172.5,-611"/>
<text text-anchor="middle" x="152.5" y="-599" font-family="Helvetica,sans-Serif" font-size="10.00">Data</text>
</a>
</g>
</g>
<!-- Node0&#45;&gt;Node8 -->
<g id="edge8" class="edge">
<title>Node0&#45;&gt;Node8</title>
<path fill="none" stroke="black" d="M71.21,-601.5C91.75,-601.5 115.88,-601.5 132.29,-601.5"/>
<polygon fill="black" stroke="black" points="71.16,-598 61.16,-601.5 71.16,-605 71.16,-598"/>
</g>
<!-- Node10 -->
<g id="node19" class="node">
<title>Node10</title>
<g id="a_node19"><a xlink:href="group___fifty_one_degrees_date.html" target="_top" xlink:title="Represents a date in a data set.">
<polygon fill="none" stroke="black" points="172.5,-574 132.5,-574 132.5,-555 172.5,-555 172.5,-574"/>
<text text-anchor="middle" x="152.5" y="-562" font-family="Helvetica,sans-Serif" font-size="10.00">Date</text>
</a>
</g>
</g>
<!-- Node0&#45;&gt;Node10 -->
<g id="edge10" class="edge">
<title>Node0&#45;&gt;Node10</title>
<path fill="none" stroke="black" d="M70.93,-589.34C91.53,-582.99 115.81,-575.51 132.29,-570.42"/>
<polygon fill="black" stroke="black" points="69.69,-586.06 61.16,-592.35 71.75,-592.75 69.69,-586.06"/>
</g>
<!-- Node20 -->
<g id="node20" class="node">
<title>Node20</title>
<g id="a_node20"><a xlink:href="group___fifty_one_degrees_memory.html" target="_top" xlink:title="Utility methods used to handle common memory operations such as allocating memory and freeing it,...">
<polygon fill="none" stroke="black" points="181,-537 124,-537 124,-518 181,-518 181,-537"/>
<text text-anchor="middle" x="152.5" y="-525" font-family="Helvetica,sans-Serif" font-size="10.00">Memory</text>
</a>
</g>
</g>
<!-- Node0&#45;&gt;Node20 -->
<g id="edge20" class="edge">
<title>Node0&#45;&gt;Node20</title>
<path fill="none" stroke="black" d="M48.23,-584.46C60.75,-572.5 78.79,-556.85 97,-546.5 105.28,-541.8 114.91,-537.97 123.76,-535.01"/>
<polygon fill="black" stroke="black" points="45.55,-582.2 40.86,-591.7 50.45,-587.2 45.55,-582.2"/>
</g>
<!-- Node16 -->
<g id="node21" class="node">
<title>Node16</title>
<g id="a_node21"><a xlink:href="group___fifty_one_degrees_indices.html" target="_top" xlink:title="A look up structure for profile and property index to the first value associated with the property an...">
<polygon fill="none" stroke="black" points="178,-500 127,-500 127,-481 178,-481 178,-500"/>
<text text-anchor="middle" x="152.5" y="-488" font-family="Helvetica,sans-Serif" font-size="10.00">Indices</text>
</a>
</g>
</g>
<!-- Node0&#45;&gt;Node16 -->
<g id="edge16" class="edge">
<title>Node0&#45;&gt;Node16</title>
<path fill="none" stroke="black" d="M40.3,-582.89C50.98,-562.2 70.85,-529.12 97,-509.5 105.74,-502.94 116.91,-498.53 126.87,-495.61"/>
<polygon fill="black" stroke="black" points="37.12,-581.43 35.81,-591.94 43.39,-584.54 37.12,-581.43"/>
</g>
<!-- Node26 -->
<g id="node22" class="node">
<title>Node26</title>
<g id="a_node22"><a xlink:href="group___fifty_one_degrees_resource.html" target="_top" xlink:title="Resources to be managed by a resource manager.">
<polygon fill="none" stroke="black" points="206,-463 99,-463 99,-444 206,-444 206,-463"/>
<text text-anchor="middle" x="152.5" y="-451" font-family="Helvetica,sans-Serif" font-size="10.00">Resource Manager</text>
</a>
</g>
</g>
<!-- Node0&#45;&gt;Node26 -->
<g id="edge26" class="edge">
<title>Node0&#45;&gt;Node26</title>
<path fill="none" stroke="black" d="M36.38,-582.05C44.39,-553.99 62.94,-502.27 97,-472.5 101.45,-468.61 106.75,-465.5 112.26,-463.03"/>
<polygon fill="black" stroke="black" points="32.95,-581.3 33.73,-591.87 39.71,-583.12 32.95,-581.3"/>
</g>
<!-- Node25 -->
<g id="node23" class="node">
<title>Node25</title>
<g id="a_node23"><a xlink:href="group___fifty_one_degrees_property.html" target="_top" xlink:title="Property in a data set relating to a single component.">
<polygon fill="none" stroke="black" points="181.5,-426 123.5,-426 123.5,-407 181.5,-407 181.5,-426"/>
<text text-anchor="middle" x="152.5" y="-414" font-family="Helvetica,sans-Serif" font-size="10.00">Property</text>
</a>
</g>
</g>
<!-- Node0&#45;&gt;Node25 -->
<g id="edge25" class="edge">
<title>Node0&#45;&gt;Node25</title>
<path fill="none" stroke="black" d="M33.96,-581.5C39.25,-546.96 54.84,-475.99 97,-435.5 104.15,-428.63 113.93,-424.23 123.22,-421.42"/>
<polygon fill="black" stroke="black" points="30.45,-581.33 32.54,-591.71 37.38,-582.29 30.45,-581.33"/>
</g>
<!-- Node2 -->
<g id="node24" class="node">
<title>Node2</title>
<g id="a_node24"><a xlink:href="group___fifty_one_degrees_cache.html" target="_top" xlink:title="Fixed size, thread safe, loading, tree based cache.">
<polygon fill="none" stroke="black" points="176,-389 129,-389 129,-370 176,-370 176,-389"/>
<text text-anchor="middle" x="152.5" y="-377" font-family="Helvetica,sans-Serif" font-size="10.00">Cache</text>
</a>
</g>
</g>
<!-- Node0&#45;&gt;Node2 -->
<g id="edge2" class="edge">
<title>Node0&#45;&gt;Node2</title>
<path fill="none" stroke="black" d="M32.24,-581.89C34.82,-541.93 46.25,-450.45 97,-398.5 105.4,-389.9 117.9,-385.19 128.81,-382.61"/>
<polygon fill="black" stroke="black" points="28.75,-581.76 31.72,-591.93 35.74,-582.13 28.75,-581.76"/>
</g>
<!-- Node7 -->
<g id="node25" class="node">
<title>Node7</title>
<g id="a_node25"><a xlink:href="group___fifty_one_degrees_config.html" target="_top" xlink:title="Configuration for building data sets.">
<polygon fill="none" stroke="black" points="176,-352 129,-352 129,-333 176,-333 176,-352"/>
<text text-anchor="middle" x="152.5" y="-340" font-family="Helvetica,sans-Serif" font-size="10.00">Config</text>
</a>
</g>
</g>
<!-- Node0&#45;&gt;Node7 -->
<g id="edge7" class="edge">
<title>Node0&#45;&gt;Node7</title>
<path fill="none" stroke="black" d="M31.07,-581.51C31.2,-536.22 37.9,-424.82 97,-361.5 105.27,-352.64 117.9,-347.91 128.92,-345.38"/>
<polygon fill="black" stroke="black" points="27.57,-581.79 31.15,-591.76 34.57,-581.73 27.57,-581.79"/>
</g>
<!-- Node9 -->
<g id="node26" class="node">
<title>Node9</title>
<g id="a_node26"><a xlink:href="group___fifty_one_degrees_data_set.html" target="_top" xlink:title="A data file initialised in a structure.">
<polygon fill="none" stroke="black" points="182,-315 123,-315 123,-296 182,-296 182,-315"/>
<text text-anchor="middle" x="152.5" y="-303" font-family="Helvetica,sans-Serif" font-size="10.00">Data Set</text>
</a>
</g>
</g>
<!-- Node0&#45;&gt;Node9 -->
<g id="edge9" class="edge">
<title>Node0&#45;&gt;Node9</title>
<path fill="none" stroke="black" d="M33.72,-581.64C40.43,-524.79 62.25,-363.04 97,-324.5 103.71,-317.06 113.49,-312.53 122.93,-309.78"/>
<polygon fill="black" stroke="black" points="30.21,-581.49 32.54,-591.82 37.16,-582.29 30.21,-581.49"/>
</g>
<!-- Node18 -->
<g id="node27" class="node">
<title>Node18</title>
<g id="a_node27"><a xlink:href="group___fifty_one_degrees_json.html" target="_top" xlink:title="JSON methods.">
<polygon fill="none" stroke="black" points="173,-278 132,-278 132,-259 173,-259 173,-278"/>
<text text-anchor="middle" x="152.5" y="-266" font-family="Helvetica,sans-Serif" font-size="10.00">JSON</text>
</a>
</g>
</g>
<!-- Node0&#45;&gt;Node18 -->
<g id="edge18" class="edge">
<title>Node0&#45;&gt;Node18</title>
<path fill="none" stroke="black" d="M33.09,-581.87C38.47,-520.25 57.83,-332.12 97,-287.5 105.79,-277.49 120.16,-272.75 131.94,-270.51"/>
<polygon fill="black" stroke="black" points="29.61,-581.58 32.25,-591.84 36.58,-582.17 29.61,-581.58"/>
</g>
<!-- Node13 -->
<g id="node28" class="node">
<title>Node13</title>
<g id="a_node28"><a xlink:href="group___fifty_one_degrees_file.html" target="_top" xlink:title="File handle pool and simple file operations e.g.">
<polygon fill="none" stroke="black" points="169.5,-241 135.5,-241 135.5,-222 169.5,-222 169.5,-241"/>
<text text-anchor="middle" x="152.5" y="-229" font-family="Helvetica,sans-Serif" font-size="10.00">File</text>
</a>
</g>
</g>
<!-- Node0&#45;&gt;Node13 -->
<g id="edge13" class="edge">
<title>Node0&#45;&gt;Node13</title>
<path fill="none" stroke="black" d="M32.63,-581.76C36.81,-515.32 53.46,-301.16 97,-250.5 106.6,-239.33 123.15,-234.72 135.49,-232.82"/>
<polygon fill="black" stroke="black" points="29.13,-581.55 32.03,-591.75 36.12,-581.97 29.13,-581.55"/>
</g>
<!-- Node29 -->
<g id="node29" class="node">
<title>Node29</title>
<g id="a_node29"><a xlink:href="group___fifty_one_degrees_string.html" target="_top" xlink:title="Byte array structures containing raw data bytes.">
<polygon fill="none" stroke="black" points="175,-204 130,-204 130,-185 175,-185 175,-204"/>
<text text-anchor="middle" x="152.5" y="-192" font-family="Helvetica,sans-Serif" font-size="10.00">String</text>
</a>
</g>
</g>
<!-- Node0&#45;&gt;Node29 -->
<g id="edge29" class="edge">
<title>Node0&#45;&gt;Node29</title>
<path fill="none" stroke="black" d="M32.25,-581.56C35.32,-510.42 49.09,-270.23 97,-213.5 105.15,-203.85 118.48,-199.1 129.91,-196.76"/>
<polygon fill="black" stroke="black" points="28.74,-581.68 31.83,-591.81 35.74,-581.96 28.74,-581.68"/>
</g>
<!-- Node23 -->
<g id="node30" class="node">
<title>Node23</title>
<g id="a_node30"><a xlink:href="group___fifty_one_degrees_profile.html" target="_top" xlink:title="Profile containing a unique set of values for the properties of a single component.">
<polygon fill="none" stroke="black" points="176,-167 129,-167 129,-148 176,-148 176,-167"/>
<text text-anchor="middle" x="152.5" y="-155" font-family="Helvetica,sans-Serif" font-size="10.00">Profile</text>
</a>
</g>
</g>
<!-- Node0&#45;&gt;Node23 -->
<g id="edge23" class="edge">
<title>Node0&#45;&gt;Node23</title>
<path fill="none" stroke="black" d="M31.93,-581.62C33.92,-506.29 44.65,-239.4 97,-176.5 104.82,-167.1 117.56,-162.35 128.76,-159.94"/>
<polygon fill="black" stroke="black" points="28.43,-581.58 31.68,-591.66 35.42,-581.75 28.43,-581.58"/>
</g>
<!-- Node5 -->
<g id="node31" class="node">
<title>Node5</title>
<g id="a_node31"><a xlink:href="group___fifty_one_degrees_collection_key_types.html" target="_top" xlink:title="Group of related items such as collection key type constants.">
<polygon fill="none" stroke="black" points="208,-130 97,-130 97,-111 208,-111 208,-130"/>
<text text-anchor="middle" x="152.5" y="-118" font-family="Helvetica,sans-Serif" font-size="10.00">CollectionKeyTypes</text>
</a>
</g>
</g>
<!-- Node0&#45;&gt;Node5 -->
<g id="edge5" class="edge">
<title>Node0&#45;&gt;Node5</title>
<path fill="none" stroke="black" d="M31.65,-581.97C32.63,-503.05 40.12,-208.69 97,-139.5 100.18,-135.63 104.2,-132.55 108.61,-130.09"/>
<polygon fill="black" stroke="black" points="28.15,-581.96 31.55,-591.99 35.15,-582.03 28.15,-581.96"/>
</g>
<!-- Node32 -->
<g id="node32" class="node">
<title>Node32</title>
<g id="a_node32"><a xlink:href="group___fifty_one_degrees_tree.html" target="_top" xlink:title="Implementation of the classic red black binary tree.">
<polygon fill="none" stroke="black" points="171,-93 134,-93 134,-74 171,-74 171,-93"/>
<text text-anchor="middle" x="152.5" y="-81" font-family="Helvetica,sans-Serif" font-size="10.00">Tree</text>
</a>
</g>
</g>
<!-- Node0&#45;&gt;Node32 -->
<g id="edge32" class="edge">
<title>Node0&#45;&gt;Node32</title>
<path fill="none" stroke="black" d="M31.42,-581.48C31.48,-497.9 35.78,-177.75 97,-102.5 105.92,-91.54 121.54,-86.89 133.78,-84.92"/>
<polygon fill="black" stroke="black" points="27.92,-581.65 31.43,-591.65 34.92,-581.64 27.92,-581.65"/>
</g>
<!-- Node4 -->
<g id="node33" class="node">
<title>Node4</title>
<g id="a_node33"><a xlink:href="group___fifty_one_degrees_collection_key.html" target="_top" xlink:title="Group of related items such as keys.">
<polygon fill="none" stroke="black" points="194,-56 111,-56 111,-37 194,-37 194,-56"/>
<text text-anchor="middle" x="152.5" y="-44" font-family="Helvetica,sans-Serif" font-size="10.00">CollectionKey</text>
</a>
</g>
</g>
<!-- Node0&#45;&gt;Node4 -->
<g id="edge4" class="edge">
<title>Node0&#45;&gt;Node4</title>
<path fill="none" stroke="black" d="M31.22,-581.68C30.38,-494.65 31.26,-147.05 97,-65.5 100.71,-60.9 105.61,-57.41 110.94,-54.76"/>
<polygon fill="black" stroke="black" points="27.72,-581.82 31.34,-591.78 34.72,-581.74 27.72,-581.82"/>
</g>
<!-- Node15 -->
<g id="node34" class="node">
<title>Node15</title>
<g id="a_node34"><a xlink:href="group___fifty_one_degrees_headers.html" target="_top" xlink:title="Common form of evidence in 51Degrees engines.">
<polygon fill="none" stroke="black" points="181,-19 124,-19 124,0 181,0 181,-19"/>
<text text-anchor="middle" x="152.5" y="-7" font-family="Helvetica,sans-Serif" font-size="10.00">Headers</text>
</a>
</g>
</g>
<!-- Node0&#45;&gt;Node15 -->
<g id="edge15" class="edge">
<title>Node0&#45;&gt;Node15</title>
<path fill="none" stroke="black" d="M32.51,-581.94C37.61,-486.53 61.62,-72.74 97,-28.5 103.57,-20.28 113.92,-15.61 123.84,-12.96"/>
<polygon fill="black" stroke="black" points="29.02,-581.78 31.98,-591.95 36.01,-582.15 29.02,-581.78"/>
</g>
</g>
</svg>
