<?xml version="1.0" encoding="UTF-8" standalone="no"?>
<!DOCTYPE svg PUBLIC "-//W3C//DTD SVG 1.1//EN"
 "http://www.w3.org/Graphics/SVG/1.1/DTD/svg11.dtd">
<!-- Generated by graphviz version 2.43.0 (0)
 -->
<!-- Title: fiftyoneDegreesResultHashArray Pages: 1 -->
<svg width="1068pt" height="312pt"
 viewBox="0.00 0.00 1068.00 311.50" xmlns="http://www.w3.org/2000/svg" xmlns:xlink="http://www.w3.org/1999/xlink">
<g id="graph0" class="graph" transform="scale(1 1) rotate(0) translate(4 307.5)">
<title>fiftyoneDegreesResultHashArray</title>
<!-- Node1 -->
<g id="node1" class="node">
<title>Node1</title>
<g id="a_node1"><a xlink:title="Array of items of type fiftyoneDegreesResultHash used to easily access and track the size of the arra...">
<polygon fill="#bfbfbf" stroke="black" points="911,-201.5 911,-231.5 1060,-231.5 1060,-201.5 911,-201.5"/>
<text text-anchor="start" x="919" y="-219.5" font-family="Helvetica,sans-Serif" font-size="10.00">fiftyoneDegreesResultHash</text>
<text text-anchor="middle" x="985.5" y="-208.5" font-family="Helvetica,sans-Serif" font-size="10.00">Array</text>
</a>
</g>
</g>
<!-- Node2 -->
<g id="node2" class="node">
<title>Node2</title>
<g id="a_node2"><a xlink:href="structfiftyone_degrees_list.html" target="_top" xlink:title="List structure which contains a list of collection items.">
<polygon fill="none" stroke="black" points="701.5,-253 701.5,-272 812.5,-272 812.5,-253 701.5,-253"/>
<text text-anchor="middle" x="757" y="-260" font-family="Helvetica,sans-Serif" font-size="10.00">fiftyoneDegreesList</text>
</a>
</g>
</g>
<!-- Node2&#45;&gt;Node1 -->
<g id="edge1" class="edge">
<title>Node2&#45;&gt;Node1</title>
<path fill="none" stroke="#9a32cd" stroke-dasharray="5,2" d="M814.92,-250.94C844,-245.03 879.72,-237.78 910.87,-231.45"/>
<polygon fill="#9a32cd" stroke="#9a32cd" points="814.03,-247.55 804.93,-252.97 815.43,-254.41 814.03,-247.55"/>
<text text-anchor="middle" x="875" y="-244.5" font-family="Helvetica,sans-Serif" font-size="10.00"> values</text>
</g>
<!-- Node3 -->
<g id="node3" class="node">
<title>Node3</title>
<g id="a_node3"><a xlink:href="structfiftyone_degrees_collection_item.html" target="_top" xlink:title="Used to store a handle to the underlying item that could be used to release the item when it&#39;s finish...">
<polygon fill="none" stroke="black" points="418.5,-219 418.5,-238 583.5,-238 583.5,-219 418.5,-219"/>
<text text-anchor="middle" x="501" y="-226" font-family="Helvetica,sans-Serif" font-size="10.00">fiftyoneDegreesCollectionItem</text>
</a>
</g>
</g>
<!-- Node3&#45;&gt;Node1 -->
<g id="edge16" class="edge">
<title>Node3&#45;&gt;Node1</title>
<path fill="none" stroke="#9a32cd" stroke-dasharray="5,2" d="M538.36,-241.43C558.24,-248.32 583.36,-256.74 606,-263.5 705.53,-293.19 737.42,-303.16 839,-281.5 883.78,-271.95 931.47,-247.58 959.59,-231.55"/>
<polygon fill="#9a32cd" stroke="#9a32cd" points="539.37,-238.07 528.77,-238.08 537.06,-244.68 539.37,-238.07"/>
<text text-anchor="middle" x="757" y="-295.5" font-family="Helvetica,sans-Serif" font-size="10.00"> propertyItem</text>
</g>
<!-- Node3&#45;&gt;Node2 -->
<g id="edge2" class="edge">
<title>Node3&#45;&gt;Node2</title>
<path fill="none" stroke="#9a32cd" stroke-dasharray="5,2" d="M583.28,-239.38C621.89,-244.55 667.02,-250.59 701.47,-255.2"/>
<polygon fill="#9a32cd" stroke="#9a32cd" points="583.47,-235.87 573.09,-238.02 582.54,-242.81 583.47,-235.87"/>
<text text-anchor="middle" x="631.5" y="-251.5" font-family="Helvetica,sans-Serif" font-size="10.00"> items</text>
</g>
<!-- Node4 -->
<g id="node4" class="node">
<title>Node4</title>
<g id="a_node4"><a xlink:href="structfiftyone_degrees_collection.html" target="_top" xlink:title="All the shared methods and fields required by file, memory and cached collections.">
<polygon fill="none" stroke="black" points="685.5,-175 685.5,-194 828.5,-194 828.5,-175 685.5,-175"/>
<text text-anchor="middle" x="757" y="-182" font-family="Helvetica,sans-Serif" font-size="10.00">fiftyoneDegreesCollection</text>
</a>
</g>
</g>
<!-- Node3&#45;&gt;Node4 -->
<g id="edge4" class="edge">
<title>Node3&#45;&gt;Node4</title>
<path fill="none" stroke="#9a32cd" stroke-dasharray="5,2" d="M587.42,-217.59C610.09,-214.36 634.52,-210.59 657,-206.5 676.57,-202.94 698.16,-198.24 716.16,-194.09"/>
<polygon fill="#9a32cd" stroke="#9a32cd" points="586.9,-214.13 577.48,-218.98 587.87,-221.06 586.9,-214.13"/>
<text text-anchor="middle" x="631.5" y="-217.5" font-family="Helvetica,sans-Serif" font-size="10.00"> release</text>
</g>
<!-- Node4&#45;&gt;Node3 -->
<g id="edge3" class="edge">
<title>Node4&#45;&gt;Node3</title>
<path fill="none" stroke="#9a32cd" stroke-dasharray="5,2" d="M675.14,-186.95C652.62,-188.58 628.24,-191.22 606,-195.5 578.1,-200.87 547.19,-211.28 526.37,-218.98"/>
<polygon fill="#9a32cd" stroke="#9a32cd" points="675.6,-190.43 685.35,-186.28 675.14,-183.44 675.6,-190.43"/>
<text text-anchor="middle" x="631.5" y="-198.5" font-family="Helvetica,sans-Serif" font-size="10.00"> collection</text>
</g>
<!-- Node4&#45;&gt;Node4 -->
<g id="edge5" class="edge">
<title>Node4&#45;&gt;Node4</title>
<path fill="none" stroke="#9a32cd" stroke-dasharray="5,2" d="M735.05,-203.53C736.25,-208.63 743.56,-212.5 757,-212.5 777.97,-212.5 784.04,-203.07 775.19,-194.26"/>
<polygon fill="#9a32cd" stroke="#9a32cd" points="738.3,-204.84 738.81,-194.26 731.81,-202.21 738.3,-204.84"/>
<text text-anchor="middle" x="757" y="-226.5" font-family="Helvetica,sans-Serif" font-size="10.00"> freeCollection</text>
<text text-anchor="middle" x="757" y="-215.5" font-family="Helvetica,sans-Serif" font-size="10.00">get</text>
</g>
<!-- Node5 -->
<g id="node5" class="node">
<title>Node5</title>
<g id="a_node5"><a xlink:href="structfiftyone_degrees_data.html" target="_top" xlink:title="Data structure used for reusing memory which may have been allocated in a previous operation.">
<polygon fill="none" stroke="black" points="0,-195 0,-214 117,-214 117,-195 0,-195"/>
<text text-anchor="middle" x="58.5" y="-202" font-family="Helvetica,sans-Serif" font-size="10.00">fiftyoneDegreesData</text>
</a>
</g>
</g>
<!-- Node5&#45;&gt;Node3 -->
<g id="edge6" class="edge">
<title>Node5&#45;&gt;Node3</title>
<path fill="none" stroke="#9a32cd" stroke-dasharray="5,2" d="M127.31,-209.04C129.9,-209.2 132.48,-209.35 135,-209.5 232.39,-215.26 344.45,-220.95 418.44,-224.58"/>
<polygon fill="#9a32cd" stroke="#9a32cd" points="127.4,-205.54 117.2,-208.41 126.97,-212.52 127.4,-205.54"/>
<text text-anchor="middle" x="265.5" y="-223.5" font-family="Helvetica,sans-Serif" font-size="10.00"> data</text>
</g>
<!-- Node8 -->
<g id="node8" class="node">
<title>Node8</title>
<g id="a_node8"><a xlink:href="structfiftyone_degrees_override_value.html" target="_top" xlink:title="String value which should override the value for the property indicated by the required property inde...">
<polygon fill="none" stroke="black" points="184,-171 184,-190 347,-190 347,-171 184,-171"/>
<text text-anchor="middle" x="265.5" y="-178" font-family="Helvetica,sans-Serif" font-size="10.00">fiftyoneDegreesOverrideValue</text>
</a>
</g>
</g>
<!-- Node5&#45;&gt;Node8 -->
<g id="edge10" class="edge">
<title>Node5&#45;&gt;Node8</title>
<path fill="none" stroke="#9a32cd" stroke-dasharray="5,2" d="M127.32,-196.56C145.45,-194.44 165.22,-192.12 183.96,-189.93"/>
<polygon fill="#9a32cd" stroke="#9a32cd" points="126.67,-193.11 117.15,-197.75 127.49,-200.06 126.67,-193.11"/>
<text text-anchor="middle" x="150.5" y="-197.5" font-family="Helvetica,sans-Serif" font-size="10.00"> string</text>
</g>
<!-- Node6 -->
<g id="node6" class="node">
<title>Node6</title>
<g id="a_node6"><a xlink:href="structfiftyone_degrees_results_device_detection.html" target="_top" xlink:title="Device detection specific results structure which any device detection processing results should exte...">
<polygon fill="none" stroke="black" points="675,-125.5 675,-155.5 839,-155.5 839,-125.5 675,-125.5"/>
<text text-anchor="start" x="683" y="-143.5" font-family="Helvetica,sans-Serif" font-size="10.00">fiftyoneDegreesResultsDevice</text>
<text text-anchor="middle" x="757" y="-132.5" font-family="Helvetica,sans-Serif" font-size="10.00">Detection</text>
</a>
</g>
</g>
<!-- Node6&#45;&gt;Node1 -->
<g id="edge7" class="edge">
<title>Node6&#45;&gt;Node1</title>
<path fill="none" stroke="#9a32cd" stroke-dasharray="5,2" d="M817.58,-158.61C824.81,-160.89 832.08,-163.22 839,-165.5 874.21,-177.1 913.91,-191.08 942.93,-201.46"/>
<polygon fill="#9a32cd" stroke="#9a32cd" points="818.37,-155.19 807.78,-155.54 816.28,-161.87 818.37,-155.19"/>
<text text-anchor="middle" x="875" y="-185.5" font-family="Helvetica,sans-Serif" font-size="10.00"> b</text>
</g>
<!-- Node7 -->
<g id="node7" class="node">
<title>Node7</title>
<g id="a_node7"><a xlink:href="structfiftyone_degrees_override_value_array.html" target="_top" xlink:title="An array of properties and values to use when getting override values.">
<polygon fill="none" stroke="black" points="419.5,-156.5 419.5,-186.5 582.5,-186.5 582.5,-156.5 419.5,-156.5"/>
<text text-anchor="start" x="427.5" y="-174.5" font-family="Helvetica,sans-Serif" font-size="10.00">fiftyoneDegreesOverrideValue</text>
<text text-anchor="middle" x="501" y="-163.5" font-family="Helvetica,sans-Serif" font-size="10.00">Array</text>
</a>
</g>
</g>
<!-- Node7&#45;&gt;Node6 -->
<g id="edge8" class="edge">
<title>Node7&#45;&gt;Node6</title>
<path fill="none" stroke="#9a32cd" stroke-dasharray="5,2" d="M592.82,-160.42C619.52,-157.16 648.55,-153.61 674.62,-150.43"/>
<polygon fill="#9a32cd" stroke="#9a32cd" points="592.22,-156.96 582.72,-161.65 593.07,-163.91 592.22,-156.96"/>
<text text-anchor="middle" x="631.5" y="-161.5" font-family="Helvetica,sans-Serif" font-size="10.00"> overrides</text>
</g>
<!-- Node8&#45;&gt;Node7 -->
<g id="edge9" class="edge">
<title>Node8&#45;&gt;Node7</title>
<path fill="none" stroke="#9a32cd" stroke-dasharray="5,2" d="M357.42,-177C377.83,-176.21 399.35,-175.38 419.31,-174.61"/>
<polygon fill="#9a32cd" stroke="#9a32cd" points="357.04,-173.51 347.18,-177.39 357.31,-180.5 357.04,-173.51"/>
<text text-anchor="middle" x="380.5" y="-179.5" font-family="Helvetica,sans-Serif" font-size="10.00"> items</text>
</g>
<!-- Node9 -->
<g id="node9" class="node">
<title>Node9</title>
<g id="a_node9"><a xlink:href="structfiftyone_degrees_results_base.html" target="_top" xlink:title="Base results structure which any processing results should extend.">
<polygon fill="none" stroke="black" points="424,-117 424,-136 578,-136 578,-117 424,-117"/>
<text text-anchor="middle" x="501" y="-124" font-family="Helvetica,sans-Serif" font-size="10.00">fiftyoneDegreesResultsBase</text>
</a>
</g>
</g>
<!-- Node9&#45;&gt;Node6 -->
<g id="edge11" class="edge">
<title>Node9&#45;&gt;Node6</title>
<path fill="none" stroke="#9a32cd" stroke-dasharray="5,2" d="M588.31,-125.16C610.7,-125.33 634.77,-125.97 657,-127.5 662.79,-127.9 668.77,-128.41 674.77,-129.01"/>
<polygon fill="#9a32cd" stroke="#9a32cd" points="588.16,-121.66 578.15,-125.11 588.13,-128.66 588.16,-121.66"/>
<text text-anchor="middle" x="631.5" y="-130.5" font-family="Helvetica,sans-Serif" font-size="10.00"> b</text>
</g>
<!-- Node10 -->
<g id="node10" class="node">
<title>Node10</title>
<g id="a_node10"><a xlink:href="structfiftyone_degrees_result_hash.html" target="_top" xlink:title="Singular User&#45;Agent result returned by a Hash process method.">
<polygon fill="none" stroke="black" points="682.5,-50 682.5,-69 831.5,-69 831.5,-50 682.5,-50"/>
<text text-anchor="middle" x="757" y="-57" font-family="Helvetica,sans-Serif" font-size="10.00">fiftyoneDegreesResultHash</text>
</a>
</g>
</g>
<!-- Node10&#45;&gt;Node1 -->
<g id="edge12" class="edge">
<title>Node10&#45;&gt;Node1</title>
<path fill="none" stroke="#9a32cd" stroke-dasharray="5,2" d="M780.27,-74.94C823.73,-105.06 919.36,-171.35 962.55,-201.29"/>
<polygon fill="#9a32cd" stroke="#9a32cd" points="782.04,-71.91 771.83,-69.08 778.05,-77.66 782.04,-71.91"/>
<text text-anchor="middle" x="875" y="-154.5" font-family="Helvetica,sans-Serif" font-size="10.00"> items</text>
</g>
<!-- Node11 -->
<g id="node11" class="node">
<title>Node11</title>
<g id="a_node11"><a xlink:href="structfiftyone_degrees_graph_trace_node.html" target="_top" xlink:title="Trace node structure used to trace the route taken when evaluating a graph.">
<polygon fill="none" stroke="black" points="414,-50 414,-69 588,-69 588,-50 414,-50"/>
<text text-anchor="middle" x="501" y="-57" font-family="Helvetica,sans-Serif" font-size="10.00">fiftyoneDegreesGraphTraceNode</text>
</a>
</g>
</g>
<!-- Node11&#45;&gt;Node10 -->
<g id="edge13" class="edge">
<title>Node11&#45;&gt;Node10</title>
<path fill="none" stroke="#9a32cd" stroke-dasharray="5,2" d="M598.47,-59.5C626.22,-59.5 656.03,-59.5 682.18,-59.5"/>
<polygon fill="#9a32cd" stroke="#9a32cd" points="598.35,-56 588.35,-59.5 598.35,-63 598.35,-56"/>
<text text-anchor="middle" x="631.5" y="-62.5" font-family="Helvetica,sans-Serif" font-size="10.00"> trace</text>
</g>
<!-- Node11&#45;&gt;Node11 -->
<g id="edge14" class="edge">
<title>Node11&#45;&gt;Node11</title>
<path fill="none" stroke="#9a32cd" stroke-dasharray="5,2" d="M478.68,-78.53C479.9,-83.63 487.34,-87.5 501,-87.5 522.33,-87.5 528.49,-78.07 519.5,-69.26"/>
<polygon fill="#9a32cd" stroke="#9a32cd" points="481.93,-79.84 482.5,-69.26 475.45,-77.17 481.93,-79.84"/>
<text text-anchor="middle" x="501" y="-90.5" font-family="Helvetica,sans-Serif" font-size="10.00"> next</text>
</g>
<!-- Node12 -->
<g id="node12" class="node">
<title>Node12</title>
<g id="a_node12"><a xlink:href="structfiftyone_degrees_result_user_agent.html" target="_top" xlink:title="Singular User&#45;Agent result returned by a device detection process method.">
<polygon fill="none" stroke="black" points="427.5,-0.5 427.5,-30.5 574.5,-30.5 574.5,-0.5 427.5,-0.5"/>
<text text-anchor="start" x="435.5" y="-18.5" font-family="Helvetica,sans-Serif" font-size="10.00">fiftyoneDegreesResultUser</text>
<text text-anchor="middle" x="501" y="-7.5" font-family="Helvetica,sans-Serif" font-size="10.00">Agent</text>
</a>
</g>
</g>
<!-- Node12&#45;&gt;Node10 -->
<g id="edge15" class="edge">
<title>Node12&#45;&gt;Node10</title>
<path fill="none" stroke="#9a32cd" stroke-dasharray="5,2" d="M584.84,-29.85C622.92,-36.45 667.06,-44.09 700.97,-49.97"/>
<polygon fill="#9a32cd" stroke="#9a32cd" points="585.24,-26.37 574.79,-28.11 584.04,-33.26 585.24,-26.37"/>
<text text-anchor="middle" x="631.5" y="-44.5" font-family="Helvetica,sans-Serif" font-size="10.00"> b</text>
</g>
</g>
</svg>
