<?xml version="1.0" encoding="UTF-8" standalone="no"?>
<!DOCTYPE svg PUBLIC "-//W3C//DTD SVG 1.1//EN"
 "http://www.w3.org/Graphics/SVG/1.1/DTD/svg11.dtd">
<!-- Generated by graphviz version 2.43.0 (0)
 -->
<!-- Title: fiftyoneDegreesPropertyAvailable Pages: 1 -->
<svg width="484pt" height="186pt"
 viewBox="0.00 0.00 484.00 186.00" xmlns="http://www.w3.org/2000/svg" xmlns:xlink="http://www.w3.org/1999/xlink">
<g id="graph0" class="graph" transform="scale(1 1) rotate(0) translate(4 182)">
<title>fiftyoneDegreesPropertyAvailable</title>
<!-- Node1 -->
<g id="node1" class="node">
<title>Node1</title>
<g id="a_node1"><a xlink:title="Used to access the property item quickly without the need to search.">
<polygon fill="#bfbfbf" stroke="black" points="27.5,-7 27.5,-26 207.5,-26 207.5,-7 27.5,-7"/>
<text text-anchor="middle" x="117.5" y="-14" font-family="Helvetica,sans-Serif" font-size="10.00">fiftyoneDegreesPropertyAvailable</text>
</a>
</g>
</g>
<!-- Node2 -->
<g id="node2" class="node">
<title>Node2</title>
<g id="a_node2"><a xlink:href="structfiftyone_degrees_evidence_property_index_array.html" target="_top" xlink:title="Array of items of type fiftyoneDegreesEvidencePropertyIndex used to easily access and track the size ...">
<polygon fill="none" stroke="black" points="0,-80.5 0,-110.5 179,-110.5 179,-80.5 0,-80.5"/>
<text text-anchor="start" x="8" y="-98.5" font-family="Helvetica,sans-Serif" font-size="10.00">fiftyoneDegreesEvidenceProperty</text>
<text text-anchor="middle" x="89.5" y="-87.5" font-family="Helvetica,sans-Serif" font-size="10.00">IndexArray</text>
</a>
</g>
</g>
<!-- Node2&#45;&gt;Node1 -->
<g id="edge1" class="edge">
<title>Node2&#45;&gt;Node1</title>
<path fill="none" stroke="#9a32cd" stroke-dasharray="5,2" d="M93.11,-70.32C94.44,-63.92 96.2,-57.1 98.5,-51 101.84,-42.11 107.32,-32.78 111.54,-26.23"/>
<polygon fill="#9a32cd" stroke="#9a32cd" points="89.61,-70.01 91.27,-80.48 96.5,-71.26 89.61,-70.01"/>
<text text-anchor="middle" x="147" y="-54" font-family="Helvetica,sans-Serif" font-size="10.00"> evidenceProperties</text>
</g>
<!-- Node3 -->
<g id="node3" class="node">
<title>Node3</title>
<g id="a_node3"><a xlink:href="structfiftyone_degrees_collection_item.html" target="_top" xlink:title="Used to store a handle to the underlying item that could be used to release the item when it&#39;s finish...">
<polygon fill="none" stroke="black" points="197,-86 197,-105 362,-105 362,-86 197,-86"/>
<text text-anchor="middle" x="279.5" y="-93" font-family="Helvetica,sans-Serif" font-size="10.00">fiftyoneDegreesCollectionItem</text>
</a>
</g>
</g>
<!-- Node3&#45;&gt;Node1 -->
<g id="edge2" class="edge">
<title>Node3&#45;&gt;Node1</title>
<path fill="none" stroke="#9a32cd" stroke-dasharray="5,2" d="M254.84,-81.13C238.22,-72.27 215.73,-60.57 195.5,-51 176.45,-41.99 154.34,-32.59 138.54,-26.05"/>
<polygon fill="#9a32cd" stroke="#9a32cd" points="253.41,-84.34 263.88,-85.98 256.72,-78.17 253.41,-84.34"/>
<text text-anchor="middle" x="232" y="-54" font-family="Helvetica,sans-Serif" font-size="10.00"> name</text>
</g>
<!-- Node4 -->
<g id="node4" class="node">
<title>Node4</title>
<g id="a_node4"><a xlink:href="structfiftyone_degrees_collection.html" target="_top" xlink:title="All the shared methods and fields required by file, memory and cached collections.">
<polygon fill="none" stroke="black" points="246,-7 246,-26 389,-26 389,-7 246,-7"/>
<text text-anchor="middle" x="317.5" y="-14" font-family="Helvetica,sans-Serif" font-size="10.00">fiftyoneDegreesCollection</text>
</a>
</g>
</g>
<!-- Node3&#45;&gt;Node4 -->
<g id="edge4" class="edge">
<title>Node3&#45;&gt;Node4</title>
<path fill="none" stroke="#9a32cd" stroke-dasharray="5,2" d="M271.74,-76.1C269.52,-68.05 268.63,-58.7 272.5,-51 278.01,-40.03 288.99,-31.75 298.73,-26.16"/>
<polygon fill="#9a32cd" stroke="#9a32cd" points="268.49,-77.42 275.11,-85.69 275.09,-75.1 268.49,-77.42"/>
<text text-anchor="middle" x="292.5" y="-54" font-family="Helvetica,sans-Serif" font-size="10.00"> release</text>
</g>
<!-- Node4&#45;&gt;Node3 -->
<g id="edge3" class="edge">
<title>Node4&#45;&gt;Node3</title>
<path fill="none" stroke="#9a32cd" stroke-dasharray="5,2" d="M320.37,-36.29C320.81,-44.53 320.18,-54.1 316.5,-62 311.8,-72.07 302.34,-80.3 294.15,-85.95"/>
<polygon fill="#9a32cd" stroke="#9a32cd" points="323.83,-35.73 319.28,-26.16 316.87,-36.48 323.83,-35.73"/>
<text text-anchor="middle" x="345" y="-54" font-family="Helvetica,sans-Serif" font-size="10.00"> collection</text>
</g>
<!-- Node4&#45;&gt;Node4 -->
<g id="edge5" class="edge">
<title>Node4&#45;&gt;Node4</title>
<path fill="none" stroke="#9a32cd" stroke-dasharray="5,2" d="M399.11,-21.69C404.04,-20.46 407,-18.73 407,-16.5 407,-13.02 399.79,-10.76 389.13,-9.7"/>
<polygon fill="#9a32cd" stroke="#9a32cd" points="398.44,-18.26 389.13,-23.3 399.56,-25.17 398.44,-18.26"/>
<text text-anchor="middle" x="441.5" y="-25" font-family="Helvetica,sans-Serif" font-size="10.00"> next</text>
<text text-anchor="middle" x="441.5" y="-14" font-family="Helvetica,sans-Serif" font-size="10.00">freeCollection</text>
<text text-anchor="middle" x="441.5" y="-3" font-family="Helvetica,sans-Serif" font-size="10.00">get</text>
</g>
<!-- Node5 -->
<g id="node5" class="node">
<title>Node5</title>
<g id="a_node5"><a xlink:href="structfiftyone_degrees_data.html" target="_top" xlink:title="Data structure used for reusing memory which may have been allocated in a previous operation.">
<polygon fill="none" stroke="black" points="221,-158.5 221,-177.5 338,-177.5 338,-158.5 221,-158.5"/>
<text text-anchor="middle" x="279.5" y="-165.5" font-family="Helvetica,sans-Serif" font-size="10.00">fiftyoneDegreesData</text>
</a>
</g>
</g>
<!-- Node5&#45;&gt;Node3 -->
<g id="edge6" class="edge">
<title>Node5&#45;&gt;Node3</title>
<path fill="none" stroke="#9a32cd" stroke-dasharray="5,2" d="M279.5,-147.94C279.5,-134.03 279.5,-115.82 279.5,-105.22"/>
<polygon fill="#9a32cd" stroke="#9a32cd" points="276,-148.36 279.5,-158.36 283,-148.36 276,-148.36"/>
<text text-anchor="middle" x="292" y="-132" font-family="Helvetica,sans-Serif" font-size="10.00"> data</text>
</g>
</g>
</svg>
