<?xml version="1.0" encoding="UTF-8" standalone="no"?>
<!DOCTYPE svg PUBLIC "-//W3C//DTD SVG 1.1//EN"
 "http://www.w3.org/Graphics/SVG/1.1/DTD/svg11.dtd">
<!-- Generated by graphviz version 2.43.0 (0)
 -->
<!-- Title: fiftyoneDegreesPropertyAvailable Pages: 1 -->
<svg width="487pt" height="175pt"
 viewBox="0.00 0.00 487.00 175.00" xmlns="http://www.w3.org/2000/svg" xmlns:xlink="http://www.w3.org/1999/xlink">
<g id="graph0" class="graph" transform="scale(1 1) rotate(0) translate(4 171)">
<title>fiftyoneDegreesPropertyAvailable</title>
<!-- Node1 -->
<g id="node1" class="node">
<title>Node1</title>
<g id="a_node1"><a xlink:title="Used to access the property item quickly without the need to search.">
<polygon fill="#bfbfbf" stroke="black" points="27.5,-1.5 27.5,-20.5 207.5,-20.5 207.5,-1.5 27.5,-1.5"/>
<text text-anchor="middle" x="117.5" y="-8.5" font-family="Helvetica,sans-Serif" font-size="10.00">fiftyoneDegreesPropertyAvailable</text>
</a>
</g>
</g>
<!-- Node2 -->
<g id="node2" class="node">
<title>Node2</title>
<g id="a_node2"><a xlink:href="structfiftyone_degrees_evidence_property_index_array.html" target="_top" xlink:title="Array of items of type fiftyoneDegreesEvidencePropertyIndex used to easily access and track the size ...">
<polygon fill="none" stroke="black" points="0,-69.5 0,-99.5 179,-99.5 179,-69.5 0,-69.5"/>
<text text-anchor="start" x="8" y="-87.5" font-family="Helvetica,sans-Serif" font-size="10.00">fiftyoneDegreesEvidenceProperty</text>
<text text-anchor="middle" x="89.5" y="-76.5" font-family="Helvetica,sans-Serif" font-size="10.00">IndexArray</text>
</a>
</g>
</g>
<!-- Node2&#45;&gt;Node1 -->
<g id="edge1" class="edge">
<title>Node2&#45;&gt;Node1</title>
<path fill="none" stroke="#9a32cd" stroke-dasharray="5,2" d="M92.79,-59.18C94.12,-52.79 95.96,-46.01 98.5,-40 101.43,-33.07 106.18,-26.07 110.2,-20.81"/>
<polygon fill="#9a32cd" stroke="#9a32cd" points="89.28,-58.91 91,-69.37 96.17,-60.12 89.28,-58.91"/>
<text text-anchor="middle" x="147" y="-43" font-family="Helvetica,sans-Serif" font-size="10.00"> evidenceProperties</text>
</g>
<!-- Node3 -->
<g id="node3" class="node">
<title>Node3</title>
<g id="a_node3"><a xlink:href="structfiftyone_degrees_collection_item.html" target="_top" xlink:title="Used to store a handle to the underlying item that could be used to release the item when it&#39;s finish...">
<polygon fill="none" stroke="black" points="197,-75 197,-94 362,-94 362,-75 197,-75"/>
<text text-anchor="middle" x="279.5" y="-82" font-family="Helvetica,sans-Serif" font-size="10.00">fiftyoneDegreesCollectionItem</text>
</a>
</g>
</g>
<!-- Node3&#45;&gt;Node1 -->
<g id="edge2" class="edge">
<title>Node3&#45;&gt;Node1</title>
<path fill="none" stroke="#9a32cd" stroke-dasharray="5,2" d="M255.33,-69.89C238.76,-60.84 216.14,-49 195.5,-40 178.75,-32.7 159.42,-25.75 144.2,-20.6"/>
<polygon fill="#9a32cd" stroke="#9a32cd" points="253.87,-73.08 264.32,-74.86 257.26,-66.96 253.87,-73.08"/>
<text text-anchor="middle" x="235" y="-43" font-family="Helvetica,sans-Serif" font-size="10.00"> name</text>
</g>
<!-- Node4 -->
<g id="node4" class="node">
<title>Node4</title>
<g id="a_node4"><a xlink:href="structfiftyone_degrees_collection.html" target="_top" xlink:title="All the shared methods and fields required by file, memory and cached collections.">
<polygon fill="none" stroke="black" points="246,-1.5 246,-20.5 389,-20.5 389,-1.5 246,-1.5"/>
<text text-anchor="middle" x="317.5" y="-8.5" font-family="Helvetica,sans-Serif" font-size="10.00">fiftyoneDegreesCollection</text>
</a>
</g>
</g>
<!-- Node3&#45;&gt;Node4 -->
<g id="edge4" class="edge">
<title>Node3&#45;&gt;Node4</title>
<path fill="none" stroke="#9a32cd" stroke-dasharray="5,2" d="M271.6,-65.51C269.21,-57.3 268.22,-47.71 272.5,-40 277.33,-31.31 286.09,-24.97 294.61,-20.54"/>
<polygon fill="#9a32cd" stroke="#9a32cd" points="268.33,-66.76 275.08,-74.93 274.9,-64.34 268.33,-66.76"/>
<text text-anchor="middle" x="292.5" y="-43" font-family="Helvetica,sans-Serif" font-size="10.00"> release</text>
</g>
<!-- Node4&#45;&gt;Node3 -->
<g id="edge3" class="edge">
<title>Node4&#45;&gt;Node3</title>
<path fill="none" stroke="#9a32cd" stroke-dasharray="5,2" d="M320.03,-30.72C320.17,-37.4 319.41,-44.79 316.5,-51 311.79,-61.07 302.32,-69.29 294.14,-74.95"/>
<polygon fill="#9a32cd" stroke="#9a32cd" points="323.5,-30.18 319.17,-20.51 316.52,-30.77 323.5,-30.18"/>
<text text-anchor="middle" x="344" y="-43" font-family="Helvetica,sans-Serif" font-size="10.00"> collection</text>
</g>
<!-- Node4&#45;&gt;Node4 -->
<g id="edge5" class="edge">
<title>Node4&#45;&gt;Node4</title>
<path fill="none" stroke="#9a32cd" stroke-dasharray="5,2" d="M399.11,-15.41C404.04,-14.36 407,-12.89 407,-11 407,-8.04 399.79,-6.12 389.13,-5.22"/>
<polygon fill="#9a32cd" stroke="#9a32cd" points="398.56,-11.96 389.13,-16.78 399.51,-18.89 398.56,-11.96"/>
<text text-anchor="middle" x="443" y="-14" font-family="Helvetica,sans-Serif" font-size="10.00"> freeCollection</text>
<text text-anchor="middle" x="443" y="-3" font-family="Helvetica,sans-Serif" font-size="10.00">get</text>
</g>
<!-- Node5 -->
<g id="node5" class="node">
<title>Node5</title>
<g id="a_node5"><a xlink:href="structfiftyone_degrees_data.html" target="_top" xlink:title="Data structure used for reusing memory which may have been allocated in a previous operation.">
<polygon fill="none" stroke="black" points="221,-147.5 221,-166.5 338,-166.5 338,-147.5 221,-147.5"/>
<text text-anchor="middle" x="279.5" y="-154.5" font-family="Helvetica,sans-Serif" font-size="10.00">fiftyoneDegreesData</text>
</a>
</g>
</g>
<!-- Node5&#45;&gt;Node3 -->
<g id="edge6" class="edge">
<title>Node5&#45;&gt;Node3</title>
<path fill="none" stroke="#9a32cd" stroke-dasharray="5,2" d="M279.5,-136.94C279.5,-123.03 279.5,-104.82 279.5,-94.22"/>
<polygon fill="#9a32cd" stroke="#9a32cd" points="276,-137.36 279.5,-147.36 283,-137.36 276,-137.36"/>
<text text-anchor="middle" x="292" y="-121" font-family="Helvetica,sans-Serif" font-size="10.00"> data</text>
</g>
</g>
</svg>
