<?xml version="1.0" encoding="UTF-8" standalone="no"?>
<!DOCTYPE svg PUBLIC "-//W3C//DTD SVG 1.1//EN"
 "http://www.w3.org/Graphics/SVG/1.1/DTD/svg11.dtd">
<!-- Generated by graphviz version 2.43.0 (0)
 -->
<!-- Title: fiftyoneDegreesOverrideValueArray Pages: 1 -->
<svg width="171pt" height="173pt"
 viewBox="0.00 0.00 171.00 173.00" xmlns="http://www.w3.org/2000/svg" xmlns:xlink="http://www.w3.org/1999/xlink">
<g id="graph0" class="graph" transform="scale(1 1) rotate(0) translate(4 169)">
<title>fiftyoneDegreesOverrideValueArray</title>
<!-- Node1 -->
<g id="node1" class="node">
<title>Node1</title>
<g id="a_node1"><a xlink:title="An array of properties and values to use when getting override values.">
<polygon fill="#bfbfbf" stroke="black" points="0,-0.5 0,-30.5 163,-30.5 163,-0.5 0,-0.5"/>
<text text-anchor="start" x="8" y="-18.5" font-family="Helvetica,sans-Serif" font-size="10.00">fiftyoneDegreesOverrideValue</text>
<text text-anchor="middle" x="81.5" y="-7.5" font-family="Helvetica,sans-Serif" font-size="10.00">Array</text>
</a>
</g>
</g>
<!-- Node2 -->
<g id="node2" class="node">
<title>Node2</title>
<g id="a_node2"><a xlink:href="structfiftyone_degrees_override_value.html" target="_top" xlink:title="String value which should override the value for the property indicated by the required property inde...">
<polygon fill="none" stroke="black" points="0,-78.5 0,-97.5 163,-97.5 163,-78.5 0,-78.5"/>
<text text-anchor="middle" x="81.5" y="-85.5" font-family="Helvetica,sans-Serif" font-size="10.00">fiftyoneDegreesOverrideValue</text>
</a>
</g>
</g>
<!-- Node2&#45;&gt;Node1 -->
<g id="edge1" class="edge">
<title>Node2&#45;&gt;Node1</title>
<path fill="none" stroke="#9a32cd" stroke-dasharray="5,2" d="M81.5,-68.24C81.5,-56.41 81.5,-41.38 81.5,-30.58"/>
<polygon fill="#9a32cd" stroke="#9a32cd" points="78,-68.36 81.5,-78.36 85,-68.36 78,-68.36"/>
<text text-anchor="middle" x="97" y="-52" font-family="Helvetica,sans-Serif" font-size="10.00"> items</text>
</g>
<!-- Node3 -->
<g id="node3" class="node">
<title>Node3</title>
<g id="a_node3"><a xlink:href="structfiftyone_degrees_data.html" target="_top" xlink:title="Data structure used for reusing memory which may have been allocated in a previous operation.">
<polygon fill="none" stroke="black" points="23,-145.5 23,-164.5 140,-164.5 140,-145.5 23,-145.5"/>
<text text-anchor="middle" x="81.5" y="-152.5" font-family="Helvetica,sans-Serif" font-size="10.00">fiftyoneDegreesData</text>
</a>
</g>
</g>
<!-- Node3&#45;&gt;Node2 -->
<g id="edge2" class="edge">
<title>Node3&#45;&gt;Node2</title>
<path fill="none" stroke="#9a32cd" stroke-dasharray="5,2" d="M81.5,-135.04C81.5,-122.67 81.5,-107.12 81.5,-97.63"/>
<polygon fill="#9a32cd" stroke="#9a32cd" points="78,-135.23 81.5,-145.23 85,-135.23 78,-135.23"/>
<text text-anchor="middle" x="97" y="-119" font-family="Helvetica,sans-Serif" font-size="10.00"> string</text>
</g>
</g>
</svg>
