<?xml version="1.0" encoding="UTF-8" standalone="no"?>
<!DOCTYPE svg PUBLIC "-//W3C//DTD SVG 1.1//EN"
 "http://www.w3.org/Graphics/SVG/1.1/DTD/svg11.dtd">
<!-- Generated by graphviz version 2.43.0 (0)
 -->
<!-- Title: fiftyoneDegreesResourceManager Pages: 1 -->
<svg width="346pt" height="106pt"
 viewBox="0.00 0.00 345.50 106.00" xmlns="http://www.w3.org/2000/svg" xmlns:xlink="http://www.w3.org/1999/xlink">
<g id="graph0" class="graph" transform="scale(1 1) rotate(0) translate(4 102)">
<title>fiftyoneDegreesResourceManager</title>
<!-- Node1 -->
<g id="node1" class="node">
<title>Node1</title>
<g id="a_node1"><a xlink:title="Manager structure used to provide access to a shared and changing resource.">
<polygon fill="#bfbfbf" stroke="black" points="0,-73 0,-92 182,-92 182,-73 0,-73"/>
<text text-anchor="middle" x="91" y="-80" font-family="Helvetica,sans-Serif" font-size="10.00">fiftyoneDegreesResourceManager</text>
</a>
</g>
</g>
<!-- Node2 -->
<g id="node2" class="node">
<title>Node2</title>
<g id="a_node2"><a xlink:href="structfiftyone_degrees_resource_handle.html" target="_top" xlink:title="Handle for a shared resource.">
<polygon fill="none" stroke="black" points="74.5,-0.5 74.5,-19.5 247.5,-19.5 247.5,-0.5 74.5,-0.5"/>
<text text-anchor="middle" x="161" y="-7.5" font-family="Helvetica,sans-Serif" font-size="10.00">fiftyoneDegreesResourceHandle</text>
</a>
</g>
</g>
<!-- Node1&#45;&gt;Node2 -->
<g id="edge2" class="edge">
<title>Node1&#45;&gt;Node2</title>
<path fill="none" stroke="#9a32cd" stroke-dasharray="5,2" d="M84.82,-63.32C83.13,-54.93 82.95,-45.25 88,-38 93.95,-29.46 102.92,-23.62 112.56,-19.62"/>
<polygon fill="#9a32cd" stroke="#9a32cd" points="81.45,-64.27 87.49,-72.97 88.2,-62.4 81.45,-64.27"/>
<text text-anchor="middle" x="111.5" y="-41" font-family="Helvetica,sans-Serif" font-size="10.00"> manager</text>
</g>
<!-- Node2&#45;&gt;Node1 -->
<g id="edge1" class="edge">
<title>Node2&#45;&gt;Node1</title>
<path fill="none" stroke="#9a32cd" stroke-dasharray="5,2" d="M152.88,-28.73C149.24,-35.54 144.52,-43.08 139,-49 129.94,-58.72 117.46,-67.06 107.5,-72.85"/>
<polygon fill="#9a32cd" stroke="#9a32cd" points="156.12,-30.09 157.41,-19.57 149.84,-26.99 156.12,-30.09"/>
<text text-anchor="middle" x="164" y="-41" font-family="Helvetica,sans-Serif" font-size="10.00"> active</text>
</g>
<!-- Node3 -->
<g id="node3" class="node">
<title>Node3</title>
<g id="a_node3"><a xlink:href="structfiftyone_degrees_interlock_double_width.html" target="_top" xlink:title="Double width (64 or 128 depending on the architecture) compare and exchange.">
<polygon fill="none" stroke="black" points="200.5,-67.5 200.5,-97.5 337.5,-97.5 337.5,-67.5 200.5,-67.5"/>
<text text-anchor="start" x="208.5" y="-85.5" font-family="Helvetica,sans-Serif" font-size="10.00">fiftyoneDegreesInterlock</text>
<text text-anchor="middle" x="269" y="-74.5" font-family="Helvetica,sans-Serif" font-size="10.00">DoubleWidth</text>
</a>
</g>
</g>
<!-- Node3&#45;&gt;Node2 -->
<g id="edge3" class="edge">
<title>Node3&#45;&gt;Node2</title>
<path fill="none" stroke="#9a32cd" stroke-dasharray="5,2" d="M238.99,-61.91C217.67,-47.99 190.07,-29.98 174.07,-19.53"/>
<polygon fill="#9a32cd" stroke="#9a32cd" points="237.12,-64.87 247.4,-67.4 240.94,-59.01 237.12,-64.87"/>
<text text-anchor="middle" x="238" y="-41" font-family="Helvetica,sans-Serif" font-size="10.00"> counter</text>
</g>
</g>
</svg>
