<?xml version="1.0" encoding="UTF-8" standalone="no"?>
<!DOCTYPE svg PUBLIC "-//W3C//DTD SVG 1.1//EN"
 "http://www.w3.org/Graphics/SVG/1.1/DTD/svg11.dtd">
<!-- Generated by graphviz version 2.43.0 (0)
 -->
<!-- Title: fiftyoneDegreesList Pages: 1 -->
<svg width="370pt" height="164pt"
 viewBox="0.00 0.00 370.00 164.00" xmlns="http://www.w3.org/2000/svg" xmlns:xlink="http://www.w3.org/1999/xlink">
<g id="graph0" class="graph" transform="scale(1 1) rotate(0) translate(4 160)">
<title>fiftyoneDegreesList</title>
<!-- Node1 -->
<g id="node1" class="node">
<title>Node1</title>
<g id="a_node1"><a xlink:title="List structure which contains a list of collection items.">
<polygon fill="#bfbfbf" stroke="black" points="0,-1.5 0,-20.5 111,-20.5 111,-1.5 0,-1.5"/>
<text text-anchor="middle" x="55.5" y="-8.5" font-family="Helvetica,sans-Serif" font-size="10.00">fiftyoneDegreesList</text>
</a>
</g>
</g>
<!-- Node2 -->
<g id="node2" class="node">
<title>Node2</title>
<g id="a_node2"><a xlink:href="structfiftyone_degrees_collection_item.html" target="_top" xlink:title="Used to store a handle to the underlying item that could be used to release the item when it&#39;s finish...">
<polygon fill="none" stroke="black" points="55,-69.5 55,-88.5 220,-88.5 220,-69.5 55,-69.5"/>
<text text-anchor="middle" x="137.5" y="-76.5" font-family="Helvetica,sans-Serif" font-size="10.00">fiftyoneDegreesCollectionItem</text>
</a>
</g>
</g>
<!-- Node2&#45;&gt;Node1 -->
<g id="edge1" class="edge">
<title>Node2&#45;&gt;Node1</title>
<path fill="none" stroke="#9a32cd" stroke-dasharray="5,2" d="M114.58,-63.94C108.55,-59.96 102.15,-55.49 96.5,-51 84.35,-41.34 71.58,-28.75 63.58,-20.53"/>
<polygon fill="#9a32cd" stroke="#9a32cd" points="112.72,-66.9 123.02,-69.35 116.49,-61.01 112.72,-66.9"/>
<text text-anchor="middle" x="112" y="-43" font-family="Helvetica,sans-Serif" font-size="10.00"> items</text>
</g>
<!-- Node3 -->
<g id="node3" class="node">
<title>Node3</title>
<g id="a_node3"><a xlink:href="structfiftyone_degrees_collection.html" target="_top" xlink:title="All the shared methods and fields required by file, memory and cached collections.">
<polygon fill="none" stroke="black" points="129,-1.5 129,-20.5 272,-20.5 272,-1.5 129,-1.5"/>
<text text-anchor="middle" x="200.5" y="-8.5" font-family="Helvetica,sans-Serif" font-size="10.00">fiftyoneDegreesCollection</text>
</a>
</g>
</g>
<!-- Node2&#45;&gt;Node3 -->
<g id="edge3" class="edge">
<title>Node2&#45;&gt;Node3</title>
<path fill="none" stroke="#9a32cd" stroke-dasharray="5,2" d="M131.48,-59.25C130.5,-52.69 130.8,-45.59 134.5,-40 140.55,-30.87 150.23,-24.7 160.35,-20.55"/>
<polygon fill="#9a32cd" stroke="#9a32cd" points="128.19,-60.52 133.98,-69.39 134.99,-58.84 128.19,-60.52"/>
<text text-anchor="middle" x="154.5" y="-43" font-family="Helvetica,sans-Serif" font-size="10.00"> release</text>
</g>
<!-- Node3&#45;&gt;Node2 -->
<g id="edge2" class="edge">
<title>Node3&#45;&gt;Node2</title>
<path fill="none" stroke="#9a32cd" stroke-dasharray="5,2" d="M192.64,-29.98C189,-37.04 184.2,-44.89 178.5,-51 171.64,-58.35 162.39,-64.66 154.41,-69.33"/>
<polygon fill="#9a32cd" stroke="#9a32cd" points="196.01,-31.04 197.12,-20.5 189.68,-28.05 196.01,-31.04"/>
<text text-anchor="middle" x="212" y="-43" font-family="Helvetica,sans-Serif" font-size="10.00"> collection</text>
</g>
<!-- Node3&#45;&gt;Node3 -->
<g id="edge4" class="edge">
<title>Node3&#45;&gt;Node3</title>
<path fill="none" stroke="#9a32cd" stroke-dasharray="5,2" d="M282.11,-15.41C287.04,-14.36 290,-12.89 290,-11 290,-8.04 282.79,-6.12 272.13,-5.22"/>
<polygon fill="#9a32cd" stroke="#9a32cd" points="281.56,-11.96 272.13,-16.78 282.51,-18.89 281.56,-11.96"/>
<text text-anchor="middle" x="326" y="-14" font-family="Helvetica,sans-Serif" font-size="10.00"> freeCollection</text>
<text text-anchor="middle" x="326" y="-3" font-family="Helvetica,sans-Serif" font-size="10.00">get</text>
</g>
<!-- Node4 -->
<g id="node4" class="node">
<title>Node4</title>
<g id="a_node4"><a xlink:href="structfiftyone_degrees_data.html" target="_top" xlink:title="Data structure used for reusing memory which may have been allocated in a previous operation.">
<polygon fill="none" stroke="black" points="79,-136.5 79,-155.5 196,-155.5 196,-136.5 79,-136.5"/>
<text text-anchor="middle" x="137.5" y="-143.5" font-family="Helvetica,sans-Serif" font-size="10.00">fiftyoneDegreesData</text>
</a>
</g>
</g>
<!-- Node4&#45;&gt;Node2 -->
<g id="edge5" class="edge">
<title>Node4&#45;&gt;Node2</title>
<path fill="none" stroke="#9a32cd" stroke-dasharray="5,2" d="M137.5,-126.04C137.5,-113.67 137.5,-98.12 137.5,-88.63"/>
<polygon fill="#9a32cd" stroke="#9a32cd" points="134,-126.23 137.5,-136.23 141,-126.23 134,-126.23"/>
<text text-anchor="middle" x="150" y="-110" font-family="Helvetica,sans-Serif" font-size="10.00"> data</text>
</g>
</g>
</svg>
