<?xml version="1.0" encoding="UTF-8" standalone="no"?>
<!DOCTYPE svg PUBLIC "-//W3C//DTD SVG 1.1//EN"
 "http://www.w3.org/Graphics/SVG/1.1/DTD/svg11.dtd">
<!-- Generated by graphviz version 2.43.0 (0)
 -->
<!-- Title: fiftyoneDegreesDataSetHashHeader Pages: 1 -->
<svg width="286pt" height="205pt"
 viewBox="0.00 0.00 286.00 205.00" xmlns="http://www.w3.org/2000/svg" xmlns:xlink="http://www.w3.org/1999/xlink">
<g id="graph0" class="graph" transform="scale(1 1) rotate(0) translate(4 201)">
<title>fiftyoneDegreesDataSetHashHeader</title>
<!-- Node1 -->
<g id="node1" class="node">
<title>Node1</title>
<g id="a_node1"><a xlink:title="Dataset header containing information about the dataset.">
<polygon fill="#bfbfbf" stroke="black" points="53.5,-0.5 53.5,-30.5 211.5,-30.5 211.5,-0.5 53.5,-0.5"/>
<text text-anchor="start" x="61.5" y="-18.5" font-family="Helvetica,sans-Serif" font-size="10.00">fiftyoneDegreesDataSetHash</text>
<text text-anchor="middle" x="132.5" y="-7.5" font-family="Helvetica,sans-Serif" font-size="10.00">Header</text>
</a>
</g>
</g>
<!-- Node2 -->
<g id="node2" class="node">
<title>Node2</title>
<g id="a_node2"><a xlink:href="structfiftyone_degrees_date.html" target="_top" xlink:title="Used to store the date when the dataset was produced and next date 51Degrees expect to provide a new ...">
<polygon fill="none" stroke="black" points="0,-172 0,-191 117,-191 117,-172 0,-172"/>
<text text-anchor="middle" x="58.5" y="-179" font-family="Helvetica,sans-Serif" font-size="10.00">fiftyoneDegreesDate</text>
</a>
</g>
</g>
<!-- Node2&#45;&gt;Node1 -->
<g id="edge1" class="edge">
<title>Node2&#45;&gt;Node1</title>
<path fill="none" stroke="#9a32cd" stroke-dasharray="5,2" d="M66.69,-162.35C81.55,-129.43 112.65,-60.5 126.09,-30.71"/>
<polygon fill="#9a32cd" stroke="#9a32cd" points="63.4,-161.13 62.48,-171.68 69.78,-164.01 63.4,-161.13"/>
<text text-anchor="middle" x="148" y="-101.5" font-family="Helvetica,sans-Serif" font-size="10.00"> nextUpdate</text>
<text text-anchor="middle" x="148" y="-90.5" font-family="Helvetica,sans-Serif" font-size="10.00">published</text>
</g>
<!-- Node3 -->
<g id="node3" class="node">
<title>Node3</title>
<g id="a_node3"><a xlink:href="structfiftyone_degrees_collection_header.html" target="_top" xlink:title="Collection header structure which defines the size and location of the collection data.">
<polygon fill="none" stroke="black" points="135,-166.5 135,-196.5 278,-196.5 278,-166.5 135,-166.5"/>
<text text-anchor="start" x="143" y="-184.5" font-family="Helvetica,sans-Serif" font-size="10.00">fiftyoneDegreesCollection</text>
<text text-anchor="middle" x="206.5" y="-173.5" font-family="Helvetica,sans-Serif" font-size="10.00">Header</text>
</a>
</g>
</g>
<!-- Node3&#45;&gt;Node1 -->
<g id="edge2" class="edge">
<title>Node3&#45;&gt;Node1</title>
<path fill="none" stroke="#9a32cd" stroke-dasharray="5,2" d="M207.6,-155.94C207.68,-127.8 204.08,-81.4 182.5,-49 177.57,-41.59 170.3,-35.49 162.83,-30.66"/>
<polygon fill="#9a32cd" stroke="#9a32cd" points="204.1,-156.04 207.41,-166.1 211.1,-156.17 204.1,-156.04"/>
<text text-anchor="middle" x="241" y="-140" font-family="Helvetica,sans-Serif" font-size="10.00"> profileOffsets</text>
<text text-anchor="middle" x="241" y="-129" font-family="Helvetica,sans-Serif" font-size="10.00">values</text>
<text text-anchor="middle" x="241" y="-118" font-family="Helvetica,sans-Serif" font-size="10.00">strings</text>
<text text-anchor="middle" x="241" y="-107" font-family="Helvetica,sans-Serif" font-size="10.00">maps</text>
<text text-anchor="middle" x="241" y="-96" font-family="Helvetica,sans-Serif" font-size="10.00">components</text>
<text text-anchor="middle" x="241" y="-85" font-family="Helvetica,sans-Serif" font-size="10.00">nodes</text>
<text text-anchor="middle" x="241" y="-74" font-family="Helvetica,sans-Serif" font-size="10.00">properties</text>
<text text-anchor="middle" x="241" y="-63" font-family="Helvetica,sans-Serif" font-size="10.00">rootNodes</text>
<text text-anchor="middle" x="241" y="-52" font-family="Helvetica,sans-Serif" font-size="10.00">profiles</text>
</g>
</g>
</svg>
