<?xml version="1.0" encoding="UTF-8" standalone="no"?>
<!DOCTYPE svg PUBLIC "-//W3C//DTD SVG 1.1//EN"
 "http://www.w3.org/Graphics/SVG/1.1/DTD/svg11.dtd">
<!-- Generated by graphviz version 2.43.0 (0)
 -->
<!-- Title: fiftyoneDegreesCollectionItem Pages: 1 -->
<svg width="249pt" height="175pt"
 viewBox="0.00 0.00 249.00 175.00" xmlns="http://www.w3.org/2000/svg" xmlns:xlink="http://www.w3.org/1999/xlink">
<g id="graph0" class="graph" transform="scale(1 1) rotate(0) translate(4 171)">
<title>fiftyoneDegreesCollectionItem</title>
<!-- Node1 -->
<g id="node1" class="node">
<title>Node1</title>
<g id="a_node1"><a xlink:title="Used to store a handle to the underlying item that could be used to release the item when it&#39;s finish...">
<polygon fill="#bfbfbf" stroke="black" points="0,-80.5 0,-99.5 165,-99.5 165,-80.5 0,-80.5"/>
<text text-anchor="middle" x="82.5" y="-87.5" font-family="Helvetica,sans-Serif" font-size="10.00">fiftyoneDegreesCollectionItem</text>
</a>
</g>
</g>
<!-- Node2 -->
<g id="node2" class="node">
<title>Node2</title>
<g id="a_node2"><a xlink:href="structfiftyone_degrees_collection.html" target="_top" xlink:title="All the shared methods and fields required by file, memory and cached collections.">
<polygon fill="none" stroke="black" points="11,-7 11,-26 154,-26 154,-7 11,-7"/>
<text text-anchor="middle" x="82.5" y="-14" font-family="Helvetica,sans-Serif" font-size="10.00">fiftyoneDegreesCollection</text>
</a>
</g>
</g>
<!-- Node1&#45;&gt;Node2 -->
<g id="edge2" class="edge">
<title>Node1&#45;&gt;Node2</title>
<path fill="none" stroke="#9a32cd" stroke-dasharray="5,2" d="M57.38,-74.02C50.06,-67.62 44.89,-59.64 48.5,-51 52.79,-40.76 61.9,-32.06 69.62,-26.09"/>
<polygon fill="#9a32cd" stroke="#9a32cd" points="55.73,-77.15 65.84,-80.3 59.89,-71.53 55.73,-77.15"/>
<text text-anchor="middle" x="68.5" y="-54" font-family="Helvetica,sans-Serif" font-size="10.00"> release</text>
</g>
<!-- Node2&#45;&gt;Node1 -->
<g id="edge1" class="edge">
<title>Node2&#45;&gt;Node1</title>
<path fill="none" stroke="#9a32cd" stroke-dasharray="5,2" d="M89.97,-35.78C92.37,-43.79 94.05,-53.33 92.5,-62 91.37,-68.3 88.87,-75.05 86.65,-80.22"/>
<polygon fill="#9a32cd" stroke="#9a32cd" points="93.25,-34.57 86.61,-26.32 86.66,-36.91 93.25,-34.57"/>
<text text-anchor="middle" x="118" y="-54" font-family="Helvetica,sans-Serif" font-size="10.00"> collection</text>
</g>
<!-- Node2&#45;&gt;Node2 -->
<g id="edge3" class="edge">
<title>Node2&#45;&gt;Node2</title>
<path fill="none" stroke="#9a32cd" stroke-dasharray="5,2" d="M164.11,-21.69C169.04,-20.46 172,-18.73 172,-16.5 172,-13.02 164.79,-10.76 154.13,-9.7"/>
<polygon fill="#9a32cd" stroke="#9a32cd" points="163.44,-18.26 154.13,-23.3 164.56,-25.17 163.44,-18.26"/>
<text text-anchor="middle" x="206.5" y="-25" font-family="Helvetica,sans-Serif" font-size="10.00"> next</text>
<text text-anchor="middle" x="206.5" y="-14" font-family="Helvetica,sans-Serif" font-size="10.00">freeCollection</text>
<text text-anchor="middle" x="206.5" y="-3" font-family="Helvetica,sans-Serif" font-size="10.00">get</text>
</g>
<!-- Node3 -->
<g id="node3" class="node">
<title>Node3</title>
<g id="a_node3"><a xlink:href="structfiftyone_degrees_data.html" target="_top" xlink:title="Data structure used for reusing memory which may have been allocated in a previous operation.">
<polygon fill="none" stroke="black" points="24,-147.5 24,-166.5 141,-166.5 141,-147.5 24,-147.5"/>
<text text-anchor="middle" x="82.5" y="-154.5" font-family="Helvetica,sans-Serif" font-size="10.00">fiftyoneDegreesData</text>
</a>
</g>
</g>
<!-- Node3&#45;&gt;Node1 -->
<g id="edge4" class="edge">
<title>Node3&#45;&gt;Node1</title>
<path fill="none" stroke="#9a32cd" stroke-dasharray="5,2" d="M82.5,-137.04C82.5,-124.67 82.5,-109.12 82.5,-99.63"/>
<polygon fill="#9a32cd" stroke="#9a32cd" points="79,-137.23 82.5,-147.23 86,-137.23 79,-137.23"/>
<text text-anchor="middle" x="95" y="-121" font-family="Helvetica,sans-Serif" font-size="10.00"> data</text>
</g>
</g>
</svg>
