<?xml version="1.0" encoding="UTF-8" standalone="no"?>
<!DOCTYPE svg PUBLIC "-//W3C//DTD SVG 1.1//EN"
 "http://www.w3.org/Graphics/SVG/1.1/DTD/svg11.dtd">
<!-- Generated by graphviz version 2.43.0 (0)
 -->
<!-- Title: fiftyoneDegreesDataSetHash Pages: 1 -->
<svg width="2219pt" height="472pt"
 viewBox="0.00 0.00 2219.00 472.00" xmlns="http://www.w3.org/2000/svg" xmlns:xlink="http://www.w3.org/1999/xlink">
<g id="graph0" class="graph" transform="scale(1 1) rotate(0) translate(4 468)">
<title>fiftyoneDegreesDataSetHash</title>
<!-- Node1 -->
<g id="node1" class="node">
<title>Node1</title>
<g id="a_node1"><a xlink:title="Data set structure containing all the components used for detections.">
<polygon fill="#bfbfbf" stroke="black" points="2053,-238.5 2053,-257.5 2211,-257.5 2211,-238.5 2053,-238.5"/>
<text text-anchor="middle" x="2132" y="-245.5" font-family="Helvetica,sans-Serif" font-size="10.00">fiftyoneDegreesDataSetHash</text>
</a>
</g>
</g>
<!-- Node2 -->
<g id="node2" class="node">
<title>Node2</title>
<g id="a_node2"><a xlink:href="structfiftyone_degrees_list.html" target="_top" xlink:title="List structure which contains a list of collection items.">
<polygon fill="none" stroke="black" points="688,-367.5 688,-386.5 799,-386.5 799,-367.5 688,-367.5"/>
<text text-anchor="middle" x="743.5" y="-374.5" font-family="Helvetica,sans-Serif" font-size="10.00">fiftyoneDegreesList</text>
</a>
</g>
</g>
<!-- Node2&#45;&gt;Node1 -->
<g id="edge1" class="edge">
<title>Node2&#45;&gt;Node1</title>
<path fill="none" stroke="#9a32cd" stroke-dasharray="5,2" d="M771.58,-390.98C784.94,-397.35 801.49,-404.46 817,-409 939.59,-444.87 973.27,-453 1101,-453 1101,-453 1101,-453 1897.5,-453 2017.53,-453 2105.3,-298.14 2126.22,-257.61"/>
<polygon fill="#9a32cd" stroke="#9a32cd" points="773,-387.78 762.48,-386.52 769.92,-394.06 773,-387.78"/>
<text text-anchor="middle" x="1456.5" y="-456" font-family="Helvetica,sans-Serif" font-size="10.00"> componentsList</text>
</g>
<!-- Node3 -->
<g id="node3" class="node">
<title>Node3</title>
<g id="a_node3"><a xlink:href="structfiftyone_degrees_collection_item.html" target="_top" xlink:title="Used to store a handle to the underlying item that could be used to release the item when it&#39;s finish...">
<polygon fill="none" stroke="black" points="185,-176.5 185,-195.5 350,-195.5 350,-176.5 185,-176.5"/>
<text text-anchor="middle" x="267.5" y="-183.5" font-family="Helvetica,sans-Serif" font-size="10.00">fiftyoneDegreesCollectionItem</text>
</a>
</g>
</g>
<!-- Node3&#45;&gt;Node2 -->
<g id="edge2" class="edge">
<title>Node3&#45;&gt;Node2</title>
<path fill="none" stroke="#9a32cd" stroke-dasharray="5,2" d="M325.49,-199.09C336.88,-203.66 348.07,-209.8 357,-218 371.06,-230.91 360.74,-244.31 375,-257 465.02,-337.07 609.48,-363.85 687.78,-372.71"/>
<polygon fill="#9a32cd" stroke="#9a32cd" points="326.51,-195.73 315.92,-195.6 324.11,-202.31 326.51,-195.73"/>
<text text-anchor="middle" x="423.5" y="-319" font-family="Helvetica,sans-Serif" font-size="10.00"> items</text>
</g>
<!-- Node4 -->
<g id="node4" class="node">
<title>Node4</title>
<g id="a_node4"><a xlink:href="structfiftyone_degrees_collection.html" target="_top" xlink:title="All the shared methods and fields required by file, memory and cached collections.">
<polygon fill="none" stroke="black" points="508.5,-102.5 508.5,-121.5 651.5,-121.5 651.5,-102.5 508.5,-102.5"/>
<text text-anchor="middle" x="580" y="-109.5" font-family="Helvetica,sans-Serif" font-size="10.00">fiftyoneDegreesCollection</text>
</a>
</g>
</g>
<!-- Node3&#45;&gt;Node4 -->
<g id="edge4" class="edge">
<title>Node3&#45;&gt;Node4</title>
<path fill="none" stroke="#9a32cd" stroke-dasharray="5,2" d="M339.09,-174.74C378.47,-167.89 428.26,-158.3 472,-147 500.01,-139.77 531.39,-129.2 552.89,-121.57"/>
<polygon fill="#9a32cd" stroke="#9a32cd" points="338.31,-171.32 329.05,-176.47 339.5,-178.22 338.31,-171.32"/>
<text text-anchor="middle" x="423.5" y="-170" font-family="Helvetica,sans-Serif" font-size="10.00"> release</text>
</g>
<!-- Node22 -->
<g id="node22" class="node">
<title>Node22</title>
<g id="a_node22"><a xlink:href="structfiftyone_degrees_property_available.html" target="_top" xlink:title="Used to access the property item quickly without the need to search.">
<polygon fill="none" stroke="black" points="490,-232.5 490,-251.5 670,-251.5 670,-232.5 490,-232.5"/>
<text text-anchor="middle" x="580" y="-239.5" font-family="Helvetica,sans-Serif" font-size="10.00">fiftyoneDegreesPropertyAvailable</text>
</a>
</g>
</g>
<!-- Node3&#45;&gt;Node22 -->
<g id="edge29" class="edge">
<title>Node3&#45;&gt;Node22</title>
<path fill="none" stroke="#9a32cd" stroke-dasharray="5,2" d="M331.54,-197.37C388.82,-207.7 472.35,-222.77 526.19,-232.48"/>
<polygon fill="#9a32cd" stroke="#9a32cd" points="331.99,-193.89 321.52,-195.56 330.74,-200.78 331.99,-193.89"/>
<text text-anchor="middle" x="423.5" y="-225" font-family="Helvetica,sans-Serif" font-size="10.00"> name</text>
</g>
<!-- Node4&#45;&gt;Node1 -->
<g id="edge33" class="edge">
<title>Node4&#45;&gt;Node1</title>
<path fill="none" stroke="#9a32cd" stroke-dasharray="5,2" d="M605.41,-97.22C658.05,-66.79 787,0 904.5,0 904.5,0 904.5,0 1897.5,0 2030.85,0 2110.45,-192.43 2127.53,-238.28"/>
<polygon fill="#9a32cd" stroke="#9a32cd" points="603.35,-94.37 596.49,-102.45 606.89,-100.41 603.35,-94.37"/>
<text text-anchor="middle" x="1456.5" y="-91" font-family="Helvetica,sans-Serif" font-size="10.00"> profileOffsets</text>
<text text-anchor="middle" x="1456.5" y="-80" font-family="Helvetica,sans-Serif" font-size="10.00">values</text>
<text text-anchor="middle" x="1456.5" y="-69" font-family="Helvetica,sans-Serif" font-size="10.00">strings</text>
<text text-anchor="middle" x="1456.5" y="-58" font-family="Helvetica,sans-Serif" font-size="10.00">maps</text>
<text text-anchor="middle" x="1456.5" y="-47" font-family="Helvetica,sans-Serif" font-size="10.00">components</text>
<text text-anchor="middle" x="1456.5" y="-36" font-family="Helvetica,sans-Serif" font-size="10.00">nodes</text>
<text text-anchor="middle" x="1456.5" y="-25" font-family="Helvetica,sans-Serif" font-size="10.00">properties</text>
<text text-anchor="middle" x="1456.5" y="-14" font-family="Helvetica,sans-Serif" font-size="10.00">rootNodes</text>
<text text-anchor="middle" x="1456.5" y="-3" font-family="Helvetica,sans-Serif" font-size="10.00">profiles</text>
</g>
<!-- Node4&#45;&gt;Node3 -->
<g id="edge3" class="edge">
<title>Node4&#45;&gt;Node3</title>
<path fill="none" stroke="#9a32cd" stroke-dasharray="5,2" d="M498.06,-115.52C460.13,-118.69 414.66,-124.68 375,-136 341.22,-145.64 304.75,-164.9 284.46,-176.5"/>
<polygon fill="#9a32cd" stroke="#9a32cd" points="498.34,-119.01 508.04,-114.74 497.79,-112.03 498.34,-119.01"/>
<text text-anchor="middle" x="423.5" y="-139" font-family="Helvetica,sans-Serif" font-size="10.00"> collection</text>
</g>
<!-- Node4&#45;&gt;Node4 -->
<g id="edge5" class="edge">
<title>Node4&#45;&gt;Node4</title>
<path fill="none" stroke="#9a32cd" stroke-dasharray="5,2" d="M550.88,-130.65C552.1,-135.94 561.8,-140 580,-140 607.73,-140 615.74,-130.57 604.04,-121.76"/>
<polygon fill="#9a32cd" stroke="#9a32cd" points="554.04,-132.18 555.96,-121.76 547.96,-128.71 554.04,-132.18"/>
<text text-anchor="middle" x="580" y="-154" font-family="Helvetica,sans-Serif" font-size="10.00"> freeCollection</text>
<text text-anchor="middle" x="580" y="-143" font-family="Helvetica,sans-Serif" font-size="10.00">get</text>
</g>
<!-- Node5 -->
<g id="node5" class="node">
<title>Node5</title>
<g id="a_node5"><a xlink:href="structfiftyone_degrees_data.html" target="_top" xlink:title="Data structure used for reusing memory which may have been allocated in a previous operation.">
<polygon fill="none" stroke="black" points="0,-176.5 0,-195.5 117,-195.5 117,-176.5 0,-176.5"/>
<text text-anchor="middle" x="58.5" y="-183.5" font-family="Helvetica,sans-Serif" font-size="10.00">fiftyoneDegreesData</text>
</a>
</g>
</g>
<!-- Node5&#45;&gt;Node3 -->
<g id="edge6" class="edge">
<title>Node5&#45;&gt;Node3</title>
<path fill="none" stroke="#9a32cd" stroke-dasharray="5,2" d="M127.19,-186C145.58,-186 165.7,-186 184.78,-186"/>
<polygon fill="#9a32cd" stroke="#9a32cd" points="127.16,-182.5 117.16,-186 127.16,-189.5 127.16,-182.5"/>
<text text-anchor="middle" x="147.5" y="-189" font-family="Helvetica,sans-Serif" font-size="10.00"> data</text>
</g>
<!-- Node6 -->
<g id="node6" class="node">
<title>Node6</title>
<g id="a_node6"><a xlink:href="structfiftyone_degrees_data_set_hash_header.html" target="_top" xlink:title="Dataset header containing information about the dataset.">
<polygon fill="none" stroke="black" points="1817.5,-291 1817.5,-321 1975.5,-321 1975.5,-291 1817.5,-291"/>
<text text-anchor="start" x="1825.5" y="-309" font-family="Helvetica,sans-Serif" font-size="10.00">fiftyoneDegreesDataSetHash</text>
<text text-anchor="middle" x="1896.5" y="-298" font-family="Helvetica,sans-Serif" font-size="10.00">Header</text>
</a>
</g>
</g>
<!-- Node6&#45;&gt;Node1 -->
<g id="edge7" class="edge">
<title>Node6&#45;&gt;Node1</title>
<path fill="none" stroke="#9a32cd" stroke-dasharray="5,2" d="M1977.4,-288.73C1996.33,-284.43 2016.42,-279.71 2035,-275 2056.32,-269.6 2080.11,-262.92 2098.67,-257.55"/>
<polygon fill="#9a32cd" stroke="#9a32cd" points="1976.6,-285.32 1967.62,-290.94 1978.14,-292.15 1976.6,-285.32"/>
<text text-anchor="middle" x="2016.5" y="-286" font-family="Helvetica,sans-Serif" font-size="10.00"> header</text>
</g>
<!-- Node7 -->
<g id="node7" class="node">
<title>Node7</title>
<g id="a_node7"><a xlink:href="structfiftyone_degrees_date.html" target="_top" xlink:title="Used to store the date when the dataset was produced and next date 51Degrees expect to provide a new ...">
<polygon fill="none" stroke="black" points="1558.5,-284.5 1558.5,-303.5 1675.5,-303.5 1675.5,-284.5 1558.5,-284.5"/>
<text text-anchor="middle" x="1617" y="-291.5" font-family="Helvetica,sans-Serif" font-size="10.00">fiftyoneDegreesDate</text>
</a>
</g>
</g>
<!-- Node7&#45;&gt;Node6 -->
<g id="edge8" class="edge">
<title>Node7&#45;&gt;Node6</title>
<path fill="none" stroke="#9a32cd" stroke-dasharray="5,2" d="M1686.26,-292.74C1719.15,-292.55 1759.15,-292.94 1795,-295 1802.27,-295.42 1809.83,-295.99 1817.38,-296.65"/>
<polygon fill="#9a32cd" stroke="#9a32cd" points="1685.81,-289.24 1675.84,-292.82 1685.87,-296.24 1685.81,-289.24"/>
<text text-anchor="middle" x="1760.5" y="-309" font-family="Helvetica,sans-Serif" font-size="10.00"> nextUpdate</text>
<text text-anchor="middle" x="1760.5" y="-298" font-family="Helvetica,sans-Serif" font-size="10.00">published</text>
</g>
<!-- Node8 -->
<g id="node8" class="node">
<title>Node8</title>
<g id="a_node8"><a xlink:href="structfiftyone_degrees_collection_header.html" target="_top" xlink:title="Collection header structure which defines the size and location of the collection data.">
<polygon fill="none" stroke="black" points="1545.5,-324 1545.5,-354 1688.5,-354 1688.5,-324 1545.5,-324"/>
<text text-anchor="start" x="1553.5" y="-342" font-family="Helvetica,sans-Serif" font-size="10.00">fiftyoneDegreesCollection</text>
<text text-anchor="middle" x="1617" y="-331" font-family="Helvetica,sans-Serif" font-size="10.00">Header</text>
</a>
</g>
</g>
<!-- Node8&#45;&gt;Node6 -->
<g id="edge9" class="edge">
<title>Node8&#45;&gt;Node6</title>
<path fill="none" stroke="#9a32cd" stroke-dasharray="5,2" d="M1699.05,-329.36C1736.25,-324.94 1780.18,-319.71 1817.06,-315.33"/>
<polygon fill="#9a32cd" stroke="#9a32cd" points="1698.26,-325.93 1688.74,-330.59 1699.09,-332.88 1698.26,-325.93"/>
<text text-anchor="middle" x="1760.5" y="-416" font-family="Helvetica,sans-Serif" font-size="10.00"> profileOffsets</text>
<text text-anchor="middle" x="1760.5" y="-405" font-family="Helvetica,sans-Serif" font-size="10.00">values</text>
<text text-anchor="middle" x="1760.5" y="-394" font-family="Helvetica,sans-Serif" font-size="10.00">strings</text>
<text text-anchor="middle" x="1760.5" y="-383" font-family="Helvetica,sans-Serif" font-size="10.00">maps</text>
<text text-anchor="middle" x="1760.5" y="-372" font-family="Helvetica,sans-Serif" font-size="10.00">components</text>
<text text-anchor="middle" x="1760.5" y="-361" font-family="Helvetica,sans-Serif" font-size="10.00">nodes</text>
<text text-anchor="middle" x="1760.5" y="-350" font-family="Helvetica,sans-Serif" font-size="10.00">properties</text>
<text text-anchor="middle" x="1760.5" y="-339" font-family="Helvetica,sans-Serif" font-size="10.00">rootNodes</text>
<text text-anchor="middle" x="1760.5" y="-328" font-family="Helvetica,sans-Serif" font-size="10.00">profiles</text>
</g>
<!-- Node9 -->
<g id="node9" class="node">
<title>Node9</title>
<g id="a_node9"><a xlink:href="structfiftyone_degrees_header_ptr_array.html" target="_top" xlink:title="Array of header indexes.">
<polygon fill="none" stroke="black" points="1545.5,-235 1545.5,-265 1688.5,-265 1688.5,-235 1545.5,-235"/>
<text text-anchor="start" x="1553.5" y="-253" font-family="Helvetica,sans-Serif" font-size="10.00">fiftyoneDegreesHeaderPtr</text>
<text text-anchor="middle" x="1617" y="-242" font-family="Helvetica,sans-Serif" font-size="10.00">Array</text>
</a>
</g>
</g>
<!-- Node9&#45;&gt;Node1 -->
<g id="edge10" class="edge">
<title>Node9&#45;&gt;Node1</title>
<path fill="none" stroke="#9a32cd" stroke-dasharray="5,2" d="M1698.56,-249.69C1795.48,-249.31 1957.07,-248.68 2052.88,-248.3"/>
<polygon fill="#9a32cd" stroke="#9a32cd" points="1698.51,-246.19 1688.52,-249.73 1698.54,-253.19 1698.51,-246.19"/>
<text text-anchor="middle" x="1896.5" y="-252" font-family="Helvetica,sans-Serif" font-size="10.00"> componentHeaders</text>
</g>
<!-- Node10 -->
<g id="node10" class="node">
<title>Node10</title>
<g id="a_node10"><a xlink:href="structfiftyone_degrees_data_set_device_detection.html" target="_top" xlink:title="Device detection data set structure which contains the &#39;must have&#39;s for all device detection data set...">
<polygon fill="none" stroke="black" points="1813,-194 1813,-224 1980,-224 1980,-194 1813,-194"/>
<text text-anchor="start" x="1821" y="-212" font-family="Helvetica,sans-Serif" font-size="10.00">fiftyoneDegreesDataSetDevice</text>
<text text-anchor="middle" x="1896.5" y="-201" font-family="Helvetica,sans-Serif" font-size="10.00">Detection</text>
</a>
</g>
</g>
<!-- Node9&#45;&gt;Node10 -->
<g id="edge12" class="edge">
<title>Node9&#45;&gt;Node10</title>
<path fill="none" stroke="#9a32cd" stroke-dasharray="5,2" d="M1698.68,-238.08C1734.54,-232.78 1776.72,-226.55 1812.82,-221.22"/>
<polygon fill="#9a32cd" stroke="#9a32cd" points="1698.12,-234.62 1688.74,-239.55 1699.15,-241.55 1698.12,-234.62"/>
<text text-anchor="middle" x="1760.5" y="-236" font-family="Helvetica,sans-Serif" font-size="10.00"> ghevHeaders</text>
</g>
<!-- Node10&#45;&gt;Node1 -->
<g id="edge11" class="edge">
<title>Node10&#45;&gt;Node1</title>
<path fill="none" stroke="#9a32cd" stroke-dasharray="5,2" d="M1990.1,-224.47C2018.48,-229.21 2048.85,-234.28 2074.1,-238.5"/>
<polygon fill="#9a32cd" stroke="#9a32cd" points="1990.59,-221 1980.15,-222.8 1989.44,-227.9 1990.59,-221"/>
<text text-anchor="middle" x="2016.5" y="-233" font-family="Helvetica,sans-Serif" font-size="10.00"> b</text>
</g>
<!-- Node11 -->
<g id="node11" class="node">
<title>Node11</title>
<g id="a_node11"><a xlink:href="structfiftyone_degrees_data_set_base.html" target="_top" xlink:title="Base data set structure which contains the &#39;must have&#39;s for all data sets.">
<polygon fill="none" stroke="black" points="1538.5,-196.5 1538.5,-215.5 1695.5,-215.5 1695.5,-196.5 1538.5,-196.5"/>
<text text-anchor="middle" x="1617" y="-203.5" font-family="Helvetica,sans-Serif" font-size="10.00">fiftyoneDegreesDataSetBase</text>
</a>
</g>
</g>
<!-- Node11&#45;&gt;Node10 -->
<g id="edge13" class="edge">
<title>Node11&#45;&gt;Node10</title>
<path fill="none" stroke="#9a32cd" stroke-dasharray="5,2" d="M1705.88,-202.02C1734.32,-201.27 1766,-200.99 1795,-202 1800.86,-202.2 1806.9,-202.47 1812.98,-202.79"/>
<polygon fill="#9a32cd" stroke="#9a32cd" points="1705.45,-198.54 1695.55,-202.32 1705.65,-205.53 1705.45,-198.54"/>
<text text-anchor="middle" x="1760.5" y="-205" font-family="Helvetica,sans-Serif" font-size="10.00"> b</text>
</g>
<!-- Node12 -->
<g id="node12" class="node">
<title>Node12</title>
<g id="a_node12"><a xlink:href="structfiftyone_degrees_header_array.html" target="_top" xlink:title="Array of Headers which should always be ordered in ascending order of fullHeaderId.">
<polygon fill="none" stroke="black" points="1221,-186.5 1221,-205.5 1376,-205.5 1376,-186.5 1221,-186.5"/>
<text text-anchor="middle" x="1298.5" y="-193.5" font-family="Helvetica,sans-Serif" font-size="10.00">fiftyoneDegreesHeaderArray</text>
</a>
</g>
</g>
<!-- Node12&#45;&gt;Node11 -->
<g id="edge14" class="edge">
<title>Node12&#45;&gt;Node11</title>
<path fill="none" stroke="#9a32cd" stroke-dasharray="5,2" d="M1386.4,-198.75C1433.97,-200.25 1492.42,-202.1 1538.44,-203.55"/>
<polygon fill="#9a32cd" stroke="#9a32cd" points="1386.22,-195.24 1376.12,-198.42 1386,-202.23 1386.22,-195.24"/>
<text text-anchor="middle" x="1456.5" y="-205" font-family="Helvetica,sans-Serif" font-size="10.00"> uniqueHeaders</text>
</g>
<!-- Node13 -->
<g id="node13" class="node">
<title>Node13</title>
<g id="a_node13"><a xlink:href="structfiftyone_degrees_resource_handle.html" target="_top" xlink:title="Handle for a shared resource.">
<polygon fill="none" stroke="black" points="1212,-374.5 1212,-393.5 1385,-393.5 1385,-374.5 1212,-374.5"/>
<text text-anchor="middle" x="1298.5" y="-381.5" font-family="Helvetica,sans-Serif" font-size="10.00">fiftyoneDegreesResourceHandle</text>
</a>
</g>
</g>
<!-- Node13&#45;&gt;Node11 -->
<g id="edge15" class="edge">
<title>Node13&#45;&gt;Node11</title>
<path fill="none" stroke="#9a32cd" stroke-dasharray="5,2" d="M1354.91,-372.34C1413.06,-359.6 1497.52,-339.48 1508,-328 1539.03,-293.99 1494.17,-259.26 1526,-226 1529.98,-221.84 1534.63,-218.45 1539.67,-215.7"/>
<polygon fill="#9a32cd" stroke="#9a32cd" points="1354.12,-368.93 1345.1,-374.47 1355.61,-375.77 1354.12,-368.93"/>
<text text-anchor="middle" x="1456.5" y="-362" font-family="Helvetica,sans-Serif" font-size="10.00"> handle</text>
</g>
<!-- Node14 -->
<g id="node14" class="node">
<title>Node14</title>
<g id="a_node14"><a xlink:href="structfiftyone_degrees_resource_manager.html" target="_top" xlink:title="Manager structure used to provide access to a shared and changing resource.">
<polygon fill="none" stroke="black" points="1526,-389.5 1526,-408.5 1708,-408.5 1708,-389.5 1526,-389.5"/>
<text text-anchor="middle" x="1617" y="-396.5" font-family="Helvetica,sans-Serif" font-size="10.00">fiftyoneDegreesResourceManager</text>
</a>
</g>
</g>
<!-- Node13&#45;&gt;Node14 -->
<g id="edge17" class="edge">
<title>Node13&#45;&gt;Node14</title>
<path fill="none" stroke="#9a32cd" stroke-dasharray="5,2" d="M1395.4,-380.4C1430.83,-379.9 1471.28,-380.29 1508,-383 1525.77,-384.31 1545.05,-386.81 1562.34,-389.46"/>
<polygon fill="#9a32cd" stroke="#9a32cd" points="1395.01,-376.91 1385.07,-380.57 1395.13,-383.91 1395.01,-376.91"/>
<text text-anchor="middle" x="1456.5" y="-386" font-family="Helvetica,sans-Serif" font-size="10.00"> active</text>
</g>
<!-- Node14&#45;&gt;Node13 -->
<g id="edge16" class="edge">
<title>Node14&#45;&gt;Node13</title>
<path fill="none" stroke="#9a32cd" stroke-dasharray="5,2" d="M1515.59,-399.6C1480.57,-399.27 1441.02,-398.3 1405,-396 1395.34,-395.38 1385.21,-394.52 1375.2,-393.52"/>
<polygon fill="#9a32cd" stroke="#9a32cd" points="1515.8,-403.1 1525.83,-399.68 1515.85,-396.1 1515.8,-403.1"/>
<text text-anchor="middle" x="1456.5" y="-402" font-family="Helvetica,sans-Serif" font-size="10.00"> manager</text>
</g>
<!-- Node15 -->
<g id="node15" class="node">
<title>Node15</title>
<g id="a_node15"><a xlink:href="structfiftyone_degrees_interlock_double_width.html" target="_top" xlink:title="Double width (64 or 128 depending on the architecture) compare and exchange.">
<polygon fill="none" stroke="black" points="837,-369 837,-399 974,-399 974,-369 837,-369"/>
<text text-anchor="start" x="845" y="-387" font-family="Helvetica,sans-Serif" font-size="10.00">fiftyoneDegreesInterlock</text>
<text text-anchor="middle" x="905.5" y="-376" font-family="Helvetica,sans-Serif" font-size="10.00">DoubleWidth</text>
</a>
</g>
</g>
<!-- Node15&#45;&gt;Node13 -->
<g id="edge18" class="edge">
<title>Node15&#45;&gt;Node13</title>
<path fill="none" stroke="#9a32cd" stroke-dasharray="5,2" d="M984.46,-384C1050.18,-384 1144.1,-384 1211.89,-384"/>
<polygon fill="#9a32cd" stroke="#9a32cd" points="984.16,-380.5 974.16,-384 984.16,-387.5 984.16,-380.5"/>
<text text-anchor="middle" x="1102" y="-387" font-family="Helvetica,sans-Serif" font-size="10.00"> counter</text>
</g>
<!-- Node16 -->
<g id="node16" class="node">
<title>Node16</title>
<g id="a_node16"><a xlink:href="structfiftyone_degrees_file_pool.html" target="_top" xlink:title="Stack of handles used to read data from a single source file.">
<polygon fill="none" stroke="black" points="1232.5,-110.5 1232.5,-129.5 1364.5,-129.5 1364.5,-110.5 1232.5,-110.5"/>
<text text-anchor="middle" x="1298.5" y="-117.5" font-family="Helvetica,sans-Serif" font-size="10.00">fiftyoneDegreesFilePool</text>
</a>
</g>
</g>
<!-- Node16&#45;&gt;Node11 -->
<g id="edge19" class="edge">
<title>Node16&#45;&gt;Node11</title>
<path fill="none" stroke="#9a32cd" stroke-dasharray="5,2" d="M1356.47,-131.76C1366.67,-134.04 1377.17,-136.5 1387,-139 1458.86,-157.29 1542.19,-182.76 1585.81,-196.43"/>
<polygon fill="#9a32cd" stroke="#9a32cd" points="1356.93,-128.28 1346.42,-129.55 1355.43,-135.11 1356.93,-128.28"/>
<text text-anchor="middle" x="1456.5" y="-175" font-family="Helvetica,sans-Serif" font-size="10.00"> filePool</text>
</g>
<!-- Node17 -->
<g id="node17" class="node">
<title>Node17</title>
<g id="a_node17"><a xlink:href="structfiftyone_degrees_pool.html" target="_top" xlink:title="Pool of resources stored as items in a stack.">
<polygon fill="none" stroke="black" points="848,-157.5 848,-176.5 963,-176.5 963,-157.5 848,-157.5"/>
<text text-anchor="middle" x="905.5" y="-164.5" font-family="Helvetica,sans-Serif" font-size="10.00">fiftyoneDegreesPool</text>
</a>
</g>
</g>
<!-- Node17&#45;&gt;Node16 -->
<g id="edge20" class="edge">
<title>Node17&#45;&gt;Node16</title>
<path fill="none" stroke="#9a32cd" stroke-dasharray="5,2" d="M943.55,-154.33C963.58,-148.02 988.87,-140.93 1012,-137 1086.9,-124.28 1174.25,-120.69 1232.41,-119.86"/>
<polygon fill="#9a32cd" stroke="#9a32cd" points="942.34,-151.04 933.89,-157.43 944.48,-157.7 942.34,-151.04"/>
<text text-anchor="middle" x="1102" y="-140" font-family="Helvetica,sans-Serif" font-size="10.00"> pool</text>
</g>
<!-- Node17&#45;&gt;Node17 -->
<g id="edge21" class="edge">
<title>Node17&#45;&gt;Node17</title>
<path fill="none" stroke="#9a32cd" stroke-dasharray="5,2" d="M875.19,-185.27C876.05,-190.74 886.15,-195 905.5,-195 934.29,-195 942.62,-185.57 930.47,-176.76"/>
<polygon fill="#9a32cd" stroke="#9a32cd" points="878.18,-187.09 880.53,-176.76 872.25,-183.37 878.18,-187.09"/>
<text text-anchor="middle" x="905.5" y="-198" font-family="Helvetica,sans-Serif" font-size="10.00"> resourceFree</text>
</g>
<!-- Node19 -->
<g id="node19" class="node">
<title>Node19</title>
<g id="a_node19"><a xlink:href="structfiftyone_degrees_pool_item.html" target="_top" xlink:title="Pool item node in the stack of items.">
<polygon fill="none" stroke="black" points="1230,-148.5 1230,-167.5 1367,-167.5 1367,-148.5 1230,-148.5"/>
<text text-anchor="middle" x="1298.5" y="-155.5" font-family="Helvetica,sans-Serif" font-size="10.00">fiftyoneDegreesPoolItem</text>
</a>
</g>
</g>
<!-- Node17&#45;&gt;Node19 -->
<g id="edge24" class="edge">
<title>Node17&#45;&gt;Node19</title>
<path fill="none" stroke="#9a32cd" stroke-dasharray="5,2" d="M973.23,-158.25C986.08,-156.9 999.44,-155.71 1012,-155 1086.48,-150.78 1172.06,-152.56 1229.95,-154.74"/>
<polygon fill="#9a32cd" stroke="#9a32cd" points="972.62,-154.8 963.07,-159.37 973.39,-161.76 972.62,-154.8"/>
<text text-anchor="middle" x="1102" y="-158" font-family="Helvetica,sans-Serif" font-size="10.00"> pool</text>
</g>
<!-- Node18 -->
<g id="node18" class="node">
<title>Node18</title>
<g id="a_node18"><a xlink:href="unionfiftyone_degrees_pool_head.html" target="_top" xlink:title="The head of the stack used for pop and push operations.">
<polygon fill="none" stroke="black" points="510,-180.5 510,-199.5 650,-199.5 650,-180.5 510,-180.5"/>
<text text-anchor="middle" x="580" y="-187.5" font-family="Helvetica,sans-Serif" font-size="10.00">fiftyoneDegreesPoolHead</text>
</a>
</g>
</g>
<!-- Node18&#45;&gt;Node17 -->
<g id="edge22" class="edge">
<title>Node18&#45;&gt;Node17</title>
<path fill="none" stroke="#9a32cd" stroke-dasharray="5,2" d="M660.26,-184.36C718.42,-180.23 796.02,-174.71 847.99,-171.02"/>
<polygon fill="#9a32cd" stroke="#9a32cd" points="659.73,-180.89 650,-185.09 660.23,-187.88 659.73,-180.89"/>
<text text-anchor="middle" x="743.5" y="-184" font-family="Helvetica,sans-Serif" font-size="10.00"> head</text>
</g>
<!-- Node19&#45;&gt;Node17 -->
<g id="edge23" class="edge">
<title>Node19&#45;&gt;Node17</title>
<path fill="none" stroke="#9a32cd" stroke-dasharray="5,2" d="M1219.68,-166.21C1210.36,-166.95 1200.97,-167.58 1192,-168 1112.66,-171.75 1020.78,-170.41 963.14,-168.89"/>
<polygon fill="#9a32cd" stroke="#9a32cd" points="1220.07,-169.69 1229.75,-165.38 1219.49,-162.72 1220.07,-169.69"/>
<text text-anchor="middle" x="1102" y="-173" font-family="Helvetica,sans-Serif" font-size="10.00"> stack</text>
</g>
<!-- Node20 -->
<g id="node20" class="node">
<title>Node20</title>
<g id="a_node20"><a xlink:href="structfiftyone_degrees_override_property_array.html" target="_top" xlink:title="Array of items of type fiftyoneDegreesOverrideProperty used to easily access and track the size of th...">
<polygon fill="none" stroke="black" points="1210,-272 1210,-302 1387,-302 1387,-272 1210,-272"/>
<text text-anchor="start" x="1218" y="-290" font-family="Helvetica,sans-Serif" font-size="10.00">fiftyoneDegreesOverrideProperty</text>
<text text-anchor="middle" x="1298.5" y="-279" font-family="Helvetica,sans-Serif" font-size="10.00">Array</text>
</a>
</g>
</g>
<!-- Node20&#45;&gt;Node11 -->
<g id="edge25" class="edge">
<title>Node20&#45;&gt;Node11</title>
<path fill="none" stroke="#9a32cd" stroke-dasharray="5,2" d="M1397.35,-280.45C1442.3,-275.85 1489.65,-268.26 1508,-256 1520.93,-247.36 1513.39,-235.09 1526,-226 1531.97,-221.69 1538.71,-218.29 1545.73,-215.6"/>
<polygon fill="#9a32cd" stroke="#9a32cd" points="1396.82,-276.98 1387.21,-281.44 1397.5,-283.95 1396.82,-276.98"/>
<text text-anchor="middle" x="1456.5" y="-282" font-family="Helvetica,sans-Serif" font-size="10.00"> overridable</text>
</g>
<!-- Node21 -->
<g id="node21" class="node">
<title>Node21</title>
<g id="a_node21"><a xlink:href="structfiftyone_degrees_override_property.html" target="_top" xlink:title="Index and pointer to a property which can be overridden.">
<polygon fill="none" stroke="black" points="817,-273.5 817,-292.5 994,-292.5 994,-273.5 817,-273.5"/>
<text text-anchor="middle" x="905.5" y="-280.5" font-family="Helvetica,sans-Serif" font-size="10.00">fiftyoneDegreesOverrideProperty</text>
</a>
</g>
</g>
<!-- Node21&#45;&gt;Node20 -->
<g id="edge26" class="edge">
<title>Node21&#45;&gt;Node20</title>
<path fill="none" stroke="#9a32cd" stroke-dasharray="5,2" d="M1004.6,-284C1067.63,-284.65 1148.81,-285.48 1209.71,-286.1"/>
<polygon fill="#9a32cd" stroke="#9a32cd" points="1004.28,-280.5 994.25,-283.9 1004.21,-287.5 1004.28,-280.5"/>
<text text-anchor="middle" x="1102" y="-288" font-family="Helvetica,sans-Serif" font-size="10.00"> items</text>
</g>
<!-- Node22&#45;&gt;Node21 -->
<g id="edge27" class="edge">
<title>Node22&#45;&gt;Node21</title>
<path fill="none" stroke="#9a32cd" stroke-dasharray="5,2" d="M657.62,-252.93C667.83,-254.33 678.16,-255.72 688,-257 732.2,-262.75 781.55,-268.71 821.95,-273.47"/>
<polygon fill="#9a32cd" stroke="#9a32cd" points="657.85,-249.43 647.47,-251.53 656.9,-256.36 657.85,-249.43"/>
<text text-anchor="middle" x="743.5" y="-273" font-family="Helvetica,sans-Serif" font-size="10.00"> available</text>
</g>
<!-- Node25 -->
<g id="node25" class="node">
<title>Node25</title>
<g id="a_node25"><a xlink:href="structfiftyone_degrees_property_available_array.html" target="_top" xlink:title="Array of items of type fiftyoneDegreesPropertyAvailable used to easily access and track the size of t...">
<polygon fill="none" stroke="black" points="1012,-227 1012,-257 1192,-257 1192,-227 1012,-227"/>
<text text-anchor="start" x="1020" y="-245" font-family="Helvetica,sans-Serif" font-size="10.00">fiftyoneDegreesPropertyAvailable</text>
<text text-anchor="middle" x="1102" y="-234" font-family="Helvetica,sans-Serif" font-size="10.00">Array</text>
</a>
</g>
</g>
<!-- Node22&#45;&gt;Node25 -->
<g id="edge32" class="edge">
<title>Node22&#45;&gt;Node25</title>
<path fill="none" stroke="#9a32cd" stroke-dasharray="5,2" d="M680.37,-242C776.11,-242 919.63,-242 1011.8,-242"/>
<polygon fill="#9a32cd" stroke="#9a32cd" points="680.1,-238.5 670.1,-242 680.1,-245.5 680.1,-238.5"/>
<text text-anchor="middle" x="743.5" y="-245" font-family="Helvetica,sans-Serif" font-size="10.00"> items</text>
</g>
<!-- Node23 -->
<g id="node23" class="node">
<title>Node23</title>
<g id="a_node23"><a xlink:href="structfiftyone_degrees_evidence_property_index_array.html" target="_top" xlink:title="Array of items of type fiftyoneDegreesEvidencePropertyIndex used to easily access and track the size ...">
<polygon fill="none" stroke="black" points="178,-227 178,-257 357,-257 357,-227 178,-227"/>
<text text-anchor="start" x="186" y="-245" font-family="Helvetica,sans-Serif" font-size="10.00">fiftyoneDegreesEvidenceProperty</text>
<text text-anchor="middle" x="267.5" y="-234" font-family="Helvetica,sans-Serif" font-size="10.00">IndexArray</text>
</a>
</g>
</g>
<!-- Node23&#45;&gt;Node22 -->
<g id="edge28" class="edge">
<title>Node23&#45;&gt;Node22</title>
<path fill="none" stroke="#9a32cd" stroke-dasharray="5,2" d="M367.2,-242C406.52,-242 451.45,-242 489.78,-242"/>
<polygon fill="#9a32cd" stroke="#9a32cd" points="367.06,-238.5 357.06,-242 367.06,-245.5 367.06,-238.5"/>
<text text-anchor="middle" x="423.5" y="-245" font-family="Helvetica,sans-Serif" font-size="10.00"> evidenceProperties</text>
</g>
<!-- Node24 -->
<g id="node24" class="node">
<title>Node24</title>
<g id="a_node24"><a xlink:href="structfiftyone_degrees_indices_property_profile.html" target="_top" xlink:title="Maps the profile index and the property index to the first value index of the profile for the propert...">
<polygon fill="none" stroke="black" points="1213.5,-321 1213.5,-351 1383.5,-351 1383.5,-321 1213.5,-321"/>
<text text-anchor="start" x="1221.5" y="-339" font-family="Helvetica,sans-Serif" font-size="10.00">fiftyoneDegreesIndicesProperty</text>
<text text-anchor="middle" x="1298.5" y="-328" font-family="Helvetica,sans-Serif" font-size="10.00">Profile</text>
</a>
</g>
</g>
<!-- Node24&#45;&gt;Node11 -->
<g id="edge30" class="edge">
<title>Node24&#45;&gt;Node11</title>
<path fill="none" stroke="#9a32cd" stroke-dasharray="5,2" d="M1388.99,-319.06C1444.48,-308.38 1505.67,-296.2 1508,-294 1530.76,-272.57 1503.45,-247.66 1526,-226 1530.39,-221.79 1535.45,-218.38 1540.9,-215.64"/>
<polygon fill="#9a32cd" stroke="#9a32cd" points="1388.23,-315.64 1379.07,-320.96 1389.55,-322.51 1388.23,-315.64"/>
<text text-anchor="middle" x="1456.5" y="-318" font-family="Helvetica,sans-Serif" font-size="10.00"> indexPropertyProfile</text>
</g>
<!-- Node25&#45;&gt;Node11 -->
<g id="edge31" class="edge">
<title>Node25&#45;&gt;Node11</title>
<path fill="none" stroke="#9a32cd" stroke-dasharray="5,2" d="M1202.42,-236.97C1284.45,-232.55 1403.87,-225.51 1508,-217 1517.86,-216.19 1528.22,-215.26 1538.46,-214.27"/>
<polygon fill="#9a32cd" stroke="#9a32cd" points="1202.15,-233.48 1192.35,-237.51 1202.53,-240.47 1202.15,-233.48"/>
<text text-anchor="middle" x="1298.5" y="-239" font-family="Helvetica,sans-Serif" font-size="10.00"> available</text>
</g>
<!-- Node26 -->
<g id="node26" class="node">
<title>Node26</title>
<g id="a_node26"><a xlink:href="structfiftyone_degrees_config_hash.html" target="_top" xlink:title="Hash specific configuration structure.">
<polygon fill="none" stroke="black" points="1822,-155.5 1822,-174.5 1971,-174.5 1971,-155.5 1822,-155.5"/>
<text text-anchor="middle" x="1896.5" y="-162.5" font-family="Helvetica,sans-Serif" font-size="10.00">fiftyoneDegreesConfigHash</text>
</a>
</g>
</g>
<!-- Node26&#45;&gt;Node1 -->
<g id="edge34" class="edge">
<title>Node26&#45;&gt;Node1</title>
<path fill="none" stroke="#9a32cd" stroke-dasharray="5,2" d="M1952.36,-177.02C1961.65,-179.42 1971.15,-182.1 1980,-185 2028.05,-200.74 2082.28,-225.05 2110.87,-238.4"/>
<polygon fill="#9a32cd" stroke="#9a32cd" points="1952.94,-173.55 1942.39,-174.53 1951.24,-180.35 1952.94,-173.55"/>
<text text-anchor="middle" x="2016.5" y="-208" font-family="Helvetica,sans-Serif" font-size="10.00"> config</text>
</g>
<!-- Node27 -->
<g id="node27" class="node">
<title>Node27</title>
<g id="a_node27"><a xlink:href="structfiftyone_degrees_collection_config.html" target="_top" xlink:title="Collection configuration structure which defines how the collection should be created by the create m...">
<polygon fill="none" stroke="black" points="1545.5,-29 1545.5,-59 1688.5,-59 1688.5,-29 1545.5,-29"/>
<text text-anchor="start" x="1553.5" y="-47" font-family="Helvetica,sans-Serif" font-size="10.00">fiftyoneDegreesCollection</text>
<text text-anchor="middle" x="1617" y="-36" font-family="Helvetica,sans-Serif" font-size="10.00">Config</text>
</a>
</g>
</g>
<!-- Node27&#45;&gt;Node26 -->
<g id="edge35" class="edge">
<title>Node27&#45;&gt;Node26</title>
<path fill="none" stroke="#9a32cd" stroke-dasharray="5,2" d="M1698.73,-32.16C1730.12,-30.99 1765.54,-34.06 1795,-48 1844.38,-71.36 1878.88,-131.79 1890.86,-155.37"/>
<polygon fill="#9a32cd" stroke="#9a32cd" points="1698.5,-28.67 1688.7,-32.68 1698.87,-35.66 1698.5,-28.67"/>
<text text-anchor="middle" x="1760.5" y="-139" font-family="Helvetica,sans-Serif" font-size="10.00"> profileOffsets</text>
<text text-anchor="middle" x="1760.5" y="-128" font-family="Helvetica,sans-Serif" font-size="10.00">values</text>
<text text-anchor="middle" x="1760.5" y="-117" font-family="Helvetica,sans-Serif" font-size="10.00">strings</text>
<text text-anchor="middle" x="1760.5" y="-106" font-family="Helvetica,sans-Serif" font-size="10.00">maps</text>
<text text-anchor="middle" x="1760.5" y="-95" font-family="Helvetica,sans-Serif" font-size="10.00">components</text>
<text text-anchor="middle" x="1760.5" y="-84" font-family="Helvetica,sans-Serif" font-size="10.00">nodes</text>
<text text-anchor="middle" x="1760.5" y="-73" font-family="Helvetica,sans-Serif" font-size="10.00">properties</text>
<text text-anchor="middle" x="1760.5" y="-62" font-family="Helvetica,sans-Serif" font-size="10.00">rootNodes</text>
<text text-anchor="middle" x="1760.5" y="-51" font-family="Helvetica,sans-Serif" font-size="10.00">profiles</text>
</g>
<!-- Node28 -->
<g id="node28" class="node">
<title>Node28</title>
<g id="a_node28"><a xlink:href="structfiftyone_degrees_config_device_detection.html" target="_top" xlink:title="Device detection configuration structure containing device detection specific configuration options,...">
<polygon fill="none" stroke="black" points="1538,-127 1538,-157 1696,-157 1696,-127 1538,-127"/>
<text text-anchor="start" x="1546" y="-145" font-family="Helvetica,sans-Serif" font-size="10.00">fiftyoneDegreesConfigDevice</text>
<text text-anchor="middle" x="1617" y="-134" font-family="Helvetica,sans-Serif" font-size="10.00">Detection</text>
</a>
</g>
</g>
<!-- Node28&#45;&gt;Node26 -->
<g id="edge36" class="edge">
<title>Node28&#45;&gt;Node26</title>
<path fill="none" stroke="#9a32cd" stroke-dasharray="5,2" d="M1706.37,-149.32C1743.59,-152.41 1786.39,-155.96 1821.86,-158.9"/>
<polygon fill="#9a32cd" stroke="#9a32cd" points="1706.29,-145.81 1696.04,-148.47 1705.71,-152.78 1706.29,-145.81"/>
<text text-anchor="middle" x="1760.5" y="-159" font-family="Helvetica,sans-Serif" font-size="10.00"> b</text>
</g>
<!-- Node29 -->
<g id="node29" class="node">
<title>Node29</title>
<g id="a_node29"><a xlink:href="structfiftyone_degrees_config_base.html" target="_top" xlink:title="Base configuration structure containing common configuration options, and options that apply to struc...">
<polygon fill="none" stroke="black" points="1224,-72.5 1224,-91.5 1373,-91.5 1373,-72.5 1224,-72.5"/>
<text text-anchor="middle" x="1298.5" y="-79.5" font-family="Helvetica,sans-Serif" font-size="10.00">fiftyoneDegreesConfigBase</text>
</a>
</g>
</g>
<!-- Node29&#45;&gt;Node28 -->
<g id="edge37" class="edge">
<title>Node29&#45;&gt;Node28</title>
<path fill="none" stroke="#9a32cd" stroke-dasharray="5,2" d="M1359.76,-93.42C1410.27,-103 1482.72,-116.73 1537.71,-127.16"/>
<polygon fill="#9a32cd" stroke="#9a32cd" points="1360.13,-89.93 1349.65,-91.51 1358.82,-96.81 1360.13,-89.93"/>
<text text-anchor="middle" x="1456.5" y="-124" font-family="Helvetica,sans-Serif" font-size="10.00"> b</text>
</g>
</g>
</svg>
