<?xml version="1.0" encoding="UTF-8" standalone="no"?>
<!DOCTYPE svg PUBLIC "-//W3C//DTD SVG 1.1//EN"
 "http://www.w3.org/Graphics/SVG/1.1/DTD/svg11.dtd">
<!-- Generated by graphviz version 2.43.0 (0)
 -->
<!-- Title: fiftyoneDegreesCollectionMemory Pages: 1 -->
<svg width="413pt" height="119pt"
 viewBox="0.00 0.00 413.00 119.00" xmlns="http://www.w3.org/2000/svg" xmlns:xlink="http://www.w3.org/1999/xlink">
<g id="graph0" class="graph" transform="scale(1 1) rotate(0) translate(4 115)">
<title>fiftyoneDegreesCollectionMemory</title>
<!-- Node1 -->
<g id="node1" class="node">
<title>Node1</title>
<g id="a_node1"><a xlink:title="Type of collection where the collection is held in continuous memory.">
<polygon fill="#bfbfbf" stroke="black" points="0,-0.5 0,-30.5 143,-30.5 143,-0.5 0,-0.5"/>
<text text-anchor="start" x="8" y="-18.5" font-family="Helvetica,sans-Serif" font-size="10.00">fiftyoneDegreesCollection</text>
<text text-anchor="middle" x="71.5" y="-7.5" font-family="Helvetica,sans-Serif" font-size="10.00">Memory</text>
</a>
</g>
</g>
<!-- Node2 -->
<g id="node2" class="node">
<title>Node2</title>
<g id="a_node2"><a xlink:href="structfiftyone_degrees_collection.html" target="_top" xlink:title="All the shared methods and fields required by file, memory and cached collections.">
<polygon fill="none" stroke="black" points="40,-85 40,-104 183,-104 183,-85 40,-85"/>
<text text-anchor="middle" x="111.5" y="-92" font-family="Helvetica,sans-Serif" font-size="10.00">fiftyoneDegreesCollection</text>
</a>
</g>
</g>
<!-- Node2&#45;&gt;Node1 -->
<g id="edge1" class="edge">
<title>Node2&#45;&gt;Node1</title>
<path fill="none" stroke="#9a32cd" stroke-dasharray="5,2" d="M92.29,-78.01C87.04,-72.83 81.87,-66.66 78.5,-60 73.94,-50.99 72.22,-39.71 71.63,-30.89"/>
<polygon fill="#9a32cd" stroke="#9a32cd" points="90.09,-80.74 99.85,-84.85 94.78,-75.54 90.09,-80.74"/>
<text text-anchor="middle" x="104" y="-52" font-family="Helvetica,sans-Serif" font-size="10.00"> collection</text>
</g>
<!-- Node2&#45;&gt;Node2 -->
<g id="edge5" class="edge">
<title>Node2&#45;&gt;Node2</title>
<path fill="none" stroke="#9a32cd" stroke-dasharray="5,2" d="M193.11,-99.69C198.04,-98.46 201,-96.73 201,-94.5 201,-91.02 193.79,-88.76 183.13,-87.7"/>
<polygon fill="#9a32cd" stroke="#9a32cd" points="192.44,-96.26 183.13,-101.3 193.56,-103.17 192.44,-96.26"/>
<text text-anchor="middle" x="235.5" y="-103" font-family="Helvetica,sans-Serif" font-size="10.00"> next</text>
<text text-anchor="middle" x="235.5" y="-92" font-family="Helvetica,sans-Serif" font-size="10.00">freeCollection</text>
<text text-anchor="middle" x="235.5" y="-81" font-family="Helvetica,sans-Serif" font-size="10.00">get</text>
</g>
<!-- Node3 -->
<g id="node3" class="node">
<title>Node3</title>
<g id="a_node3"><a xlink:href="structfiftyone_degrees_collection_item.html" target="_top" xlink:title="Used to store a handle to the underlying item that could be used to release the item when it&#39;s finish...">
<polygon fill="none" stroke="black" points="161,-6 161,-25 326,-25 326,-6 161,-6"/>
<text text-anchor="middle" x="243.5" y="-13" font-family="Helvetica,sans-Serif" font-size="10.00">fiftyoneDegreesCollectionItem</text>
</a>
</g>
</g>
<!-- Node2&#45;&gt;Node3 -->
<g id="edge3" class="edge">
<title>Node2&#45;&gt;Node3</title>
<path fill="none" stroke="#9a32cd" stroke-dasharray="5,2" d="M123.33,-76.64C130.55,-67.39 140.5,-56.35 151.5,-49 167.98,-37.99 188.61,-30.25 206.16,-25.1"/>
<polygon fill="#9a32cd" stroke="#9a32cd" points="120.44,-74.66 117.29,-84.78 126.06,-78.83 120.44,-74.66"/>
<text text-anchor="middle" x="177" y="-52" font-family="Helvetica,sans-Serif" font-size="10.00"> collection</text>
</g>
<!-- Node3&#45;&gt;Node2 -->
<g id="edge2" class="edge">
<title>Node3&#45;&gt;Node2</title>
<path fill="none" stroke="#9a32cd" stroke-dasharray="5,2" d="M232.53,-33.28C225.92,-42.27 216.79,-52.92 206.5,-60 189.5,-71.69 167.98,-79.73 149.73,-84.99"/>
<polygon fill="#9a32cd" stroke="#9a32cd" points="235.42,-35.25 238.25,-25.04 229.67,-31.26 235.42,-35.25"/>
<text text-anchor="middle" x="237.5" y="-52" font-family="Helvetica,sans-Serif" font-size="10.00"> release</text>
</g>
<!-- Node4 -->
<g id="node4" class="node">
<title>Node4</title>
<g id="a_node4"><a xlink:href="structfiftyone_degrees_data.html" target="_top" xlink:title="Data structure used for reusing memory which may have been allocated in a previous operation.">
<polygon fill="none" stroke="black" points="288,-85 288,-104 405,-104 405,-85 288,-85"/>
<text text-anchor="middle" x="346.5" y="-92" font-family="Helvetica,sans-Serif" font-size="10.00">fiftyoneDegreesData</text>
</a>
</g>
</g>
<!-- Node4&#45;&gt;Node3 -->
<g id="edge4" class="edge">
<title>Node4&#45;&gt;Node3</title>
<path fill="none" stroke="#9a32cd" stroke-dasharray="5,2" d="M327.05,-78.96C305.78,-63.06 272.4,-38.1 254.97,-25.07"/>
<polygon fill="#9a32cd" stroke="#9a32cd" points="324.98,-81.78 335.08,-84.97 329.17,-76.17 324.98,-81.78"/>
<text text-anchor="middle" x="313" y="-52" font-family="Helvetica,sans-Serif" font-size="10.00"> data</text>
</g>
</g>
</svg>
