<?xml version="1.0" encoding="UTF-8" standalone="no"?>
<!DOCTYPE svg PUBLIC "-//W3C//DTD SVG 1.1//EN"
 "http://www.w3.org/Graphics/SVG/1.1/DTD/svg11.dtd">
<!-- Generated by graphviz version 2.43.0 (0)
 -->
<!-- Title: fiftyoneDegreesOverrideProperty Pages: 1 -->
<svg width="484pt" height="253pt"
 viewBox="0.00 0.00 484.00 253.00" xmlns="http://www.w3.org/2000/svg" xmlns:xlink="http://www.w3.org/1999/xlink">
<g id="graph0" class="graph" transform="scale(1 1) rotate(0) translate(4 249)">
<title>fiftyoneDegreesOverrideProperty</title>
<!-- Node1 -->
<g id="node1" class="node">
<title>Node1</title>
<g id="a_node1"><a xlink:title="Index and pointer to a property which can be overridden.">
<polygon fill="#bfbfbf" stroke="black" points="29,-0.5 29,-19.5 206,-19.5 206,-0.5 29,-0.5"/>
<text text-anchor="middle" x="117.5" y="-7.5" font-family="Helvetica,sans-Serif" font-size="10.00">fiftyoneDegreesOverrideProperty</text>
</a>
</g>
</g>
<!-- Node2 -->
<g id="node2" class="node">
<title>Node2</title>
<g id="a_node2"><a xlink:href="structfiftyone_degrees_property_available.html" target="_top" xlink:title="Used to access the property item quickly without the need to search.">
<polygon fill="none" stroke="black" points="27.5,-74 27.5,-93 207.5,-93 207.5,-74 27.5,-74"/>
<text text-anchor="middle" x="117.5" y="-81" font-family="Helvetica,sans-Serif" font-size="10.00">fiftyoneDegreesPropertyAvailable</text>
</a>
</g>
</g>
<!-- Node2&#45;&gt;Node1 -->
<g id="edge1" class="edge">
<title>Node2&#45;&gt;Node1</title>
<path fill="none" stroke="#9a32cd" stroke-dasharray="5,2" d="M117.5,-63.59C117.5,-49.43 117.5,-30.7 117.5,-19.84"/>
<polygon fill="#9a32cd" stroke="#9a32cd" points="114,-63.73 117.5,-73.73 121,-63.73 114,-63.73"/>
<text text-anchor="middle" x="142" y="-41" font-family="Helvetica,sans-Serif" font-size="10.00"> available</text>
</g>
<!-- Node3 -->
<g id="node3" class="node">
<title>Node3</title>
<g id="a_node3"><a xlink:href="structfiftyone_degrees_evidence_property_index_array.html" target="_top" xlink:title="Array of items of type fiftyoneDegreesEvidencePropertyIndex used to easily access and track the size ...">
<polygon fill="none" stroke="black" points="0,-147.5 0,-177.5 179,-177.5 179,-147.5 0,-147.5"/>
<text text-anchor="start" x="8" y="-165.5" font-family="Helvetica,sans-Serif" font-size="10.00">fiftyoneDegreesEvidenceProperty</text>
<text text-anchor="middle" x="89.5" y="-154.5" font-family="Helvetica,sans-Serif" font-size="10.00">IndexArray</text>
</a>
</g>
</g>
<!-- Node3&#45;&gt;Node2 -->
<g id="edge2" class="edge">
<title>Node3&#45;&gt;Node2</title>
<path fill="none" stroke="#9a32cd" stroke-dasharray="5,2" d="M93.11,-137.32C94.44,-130.92 96.2,-124.1 98.5,-118 101.84,-109.11 107.32,-99.78 111.54,-93.23"/>
<polygon fill="#9a32cd" stroke="#9a32cd" points="89.61,-137.01 91.27,-147.48 96.5,-138.26 89.61,-137.01"/>
<text text-anchor="middle" x="147" y="-121" font-family="Helvetica,sans-Serif" font-size="10.00"> evidenceProperties</text>
</g>
<!-- Node4 -->
<g id="node4" class="node">
<title>Node4</title>
<g id="a_node4"><a xlink:href="structfiftyone_degrees_collection_item.html" target="_top" xlink:title="Used to store a handle to the underlying item that could be used to release the item when it&#39;s finish...">
<polygon fill="none" stroke="black" points="197,-153 197,-172 362,-172 362,-153 197,-153"/>
<text text-anchor="middle" x="279.5" y="-160" font-family="Helvetica,sans-Serif" font-size="10.00">fiftyoneDegreesCollectionItem</text>
</a>
</g>
</g>
<!-- Node4&#45;&gt;Node2 -->
<g id="edge3" class="edge">
<title>Node4&#45;&gt;Node2</title>
<path fill="none" stroke="#9a32cd" stroke-dasharray="5,2" d="M254.84,-148.13C238.22,-139.27 215.73,-127.57 195.5,-118 176.45,-108.99 154.34,-99.59 138.54,-93.05"/>
<polygon fill="#9a32cd" stroke="#9a32cd" points="253.41,-151.34 263.88,-152.98 256.72,-145.17 253.41,-151.34"/>
<text text-anchor="middle" x="232" y="-121" font-family="Helvetica,sans-Serif" font-size="10.00"> name</text>
</g>
<!-- Node5 -->
<g id="node5" class="node">
<title>Node5</title>
<g id="a_node5"><a xlink:href="structfiftyone_degrees_collection.html" target="_top" xlink:title="All the shared methods and fields required by file, memory and cached collections.">
<polygon fill="none" stroke="black" points="246,-74 246,-93 389,-93 389,-74 246,-74"/>
<text text-anchor="middle" x="317.5" y="-81" font-family="Helvetica,sans-Serif" font-size="10.00">fiftyoneDegreesCollection</text>
</a>
</g>
</g>
<!-- Node4&#45;&gt;Node5 -->
<g id="edge5" class="edge">
<title>Node4&#45;&gt;Node5</title>
<path fill="none" stroke="#9a32cd" stroke-dasharray="5,2" d="M271.74,-143.1C269.52,-135.05 268.63,-125.7 272.5,-118 278.01,-107.03 288.99,-98.75 298.73,-93.16"/>
<polygon fill="#9a32cd" stroke="#9a32cd" points="268.49,-144.42 275.11,-152.69 275.09,-142.1 268.49,-144.42"/>
<text text-anchor="middle" x="292.5" y="-121" font-family="Helvetica,sans-Serif" font-size="10.00"> release</text>
</g>
<!-- Node5&#45;&gt;Node4 -->
<g id="edge4" class="edge">
<title>Node5&#45;&gt;Node4</title>
<path fill="none" stroke="#9a32cd" stroke-dasharray="5,2" d="M320.37,-103.29C320.81,-111.53 320.18,-121.1 316.5,-129 311.8,-139.07 302.34,-147.3 294.15,-152.95"/>
<polygon fill="#9a32cd" stroke="#9a32cd" points="323.83,-102.73 319.28,-93.16 316.87,-103.48 323.83,-102.73"/>
<text text-anchor="middle" x="345" y="-121" font-family="Helvetica,sans-Serif" font-size="10.00"> collection</text>
</g>
<!-- Node5&#45;&gt;Node5 -->
<g id="edge6" class="edge">
<title>Node5&#45;&gt;Node5</title>
<path fill="none" stroke="#9a32cd" stroke-dasharray="5,2" d="M399.11,-88.69C404.04,-87.46 407,-85.73 407,-83.5 407,-80.02 399.79,-77.76 389.13,-76.7"/>
<polygon fill="#9a32cd" stroke="#9a32cd" points="398.44,-85.26 389.13,-90.3 399.56,-92.17 398.44,-85.26"/>
<text text-anchor="middle" x="441.5" y="-92" font-family="Helvetica,sans-Serif" font-size="10.00"> next</text>
<text text-anchor="middle" x="441.5" y="-81" font-family="Helvetica,sans-Serif" font-size="10.00">freeCollection</text>
<text text-anchor="middle" x="441.5" y="-70" font-family="Helvetica,sans-Serif" font-size="10.00">get</text>
</g>
<!-- Node6 -->
<g id="node6" class="node">
<title>Node6</title>
<g id="a_node6"><a xlink:href="structfiftyone_degrees_data.html" target="_top" xlink:title="Data structure used for reusing memory which may have been allocated in a previous operation.">
<polygon fill="none" stroke="black" points="221,-225.5 221,-244.5 338,-244.5 338,-225.5 221,-225.5"/>
<text text-anchor="middle" x="279.5" y="-232.5" font-family="Helvetica,sans-Serif" font-size="10.00">fiftyoneDegreesData</text>
</a>
</g>
</g>
<!-- Node6&#45;&gt;Node4 -->
<g id="edge7" class="edge">
<title>Node6&#45;&gt;Node4</title>
<path fill="none" stroke="#9a32cd" stroke-dasharray="5,2" d="M279.5,-214.94C279.5,-201.03 279.5,-182.82 279.5,-172.22"/>
<polygon fill="#9a32cd" stroke="#9a32cd" points="276,-215.36 279.5,-225.36 283,-215.36 276,-215.36"/>
<text text-anchor="middle" x="292" y="-199" font-family="Helvetica,sans-Serif" font-size="10.00"> data</text>
</g>
</g>
</svg>
