<?xml version="1.0" encoding="UTF-8" standalone="no"?>
<!DOCTYPE svg PUBLIC "-//W3C//DTD SVG 1.1//EN"
 "http://www.w3.org/Graphics/SVG/1.1/DTD/svg11.dtd">
<!-- Generated by graphviz version 2.43.0 (0)
 -->
<!-- Title: fiftyoneDegreesPropertyAvailableArray Pages: 1 -->
<svg width="484pt" height="264pt"
 viewBox="0.00 0.00 484.00 264.00" xmlns="http://www.w3.org/2000/svg" xmlns:xlink="http://www.w3.org/1999/xlink">
<g id="graph0" class="graph" transform="scale(1 1) rotate(0) translate(4 260)">
<title>fiftyoneDegreesPropertyAvailableArray</title>
<!-- Node1 -->
<g id="node1" class="node">
<title>Node1</title>
<g id="a_node1"><a xlink:title="Array of items of type fiftyoneDegreesPropertyAvailable used to easily access and track the size of t...">
<polygon fill="#bfbfbf" stroke="black" points="27.5,-0.5 27.5,-30.5 207.5,-30.5 207.5,-0.5 27.5,-0.5"/>
<text text-anchor="start" x="35.5" y="-18.5" font-family="Helvetica,sans-Serif" font-size="10.00">fiftyoneDegreesPropertyAvailable</text>
<text text-anchor="middle" x="117.5" y="-7.5" font-family="Helvetica,sans-Serif" font-size="10.00">Array</text>
</a>
</g>
</g>
<!-- Node2 -->
<g id="node2" class="node">
<title>Node2</title>
<g id="a_node2"><a xlink:href="structfiftyone_degrees_property_available.html" target="_top" xlink:title="Used to access the property item quickly without the need to search.">
<polygon fill="none" stroke="black" points="27.5,-85 27.5,-104 207.5,-104 207.5,-85 27.5,-85"/>
<text text-anchor="middle" x="117.5" y="-92" font-family="Helvetica,sans-Serif" font-size="10.00">fiftyoneDegreesPropertyAvailable</text>
</a>
</g>
</g>
<!-- Node2&#45;&gt;Node1 -->
<g id="edge1" class="edge">
<title>Node2&#45;&gt;Node1</title>
<path fill="none" stroke="#9a32cd" stroke-dasharray="5,2" d="M117.5,-74.8C117.5,-61.16 117.5,-42.96 117.5,-30.54"/>
<polygon fill="#9a32cd" stroke="#9a32cd" points="114,-74.97 117.5,-84.97 121,-74.97 114,-74.97"/>
<text text-anchor="middle" x="133" y="-52" font-family="Helvetica,sans-Serif" font-size="10.00"> items</text>
</g>
<!-- Node3 -->
<g id="node3" class="node">
<title>Node3</title>
<g id="a_node3"><a xlink:href="structfiftyone_degrees_evidence_property_index_array.html" target="_top" xlink:title="Array of items of type fiftyoneDegreesEvidencePropertyIndex used to easily access and track the size ...">
<polygon fill="none" stroke="black" points="0,-158.5 0,-188.5 179,-188.5 179,-158.5 0,-158.5"/>
<text text-anchor="start" x="8" y="-176.5" font-family="Helvetica,sans-Serif" font-size="10.00">fiftyoneDegreesEvidenceProperty</text>
<text text-anchor="middle" x="89.5" y="-165.5" font-family="Helvetica,sans-Serif" font-size="10.00">IndexArray</text>
</a>
</g>
</g>
<!-- Node3&#45;&gt;Node2 -->
<g id="edge2" class="edge">
<title>Node3&#45;&gt;Node2</title>
<path fill="none" stroke="#9a32cd" stroke-dasharray="5,2" d="M93.11,-148.32C94.44,-141.92 96.2,-135.1 98.5,-129 101.84,-120.11 107.32,-110.78 111.54,-104.23"/>
<polygon fill="#9a32cd" stroke="#9a32cd" points="89.61,-148.01 91.27,-158.48 96.5,-149.26 89.61,-148.01"/>
<text text-anchor="middle" x="147" y="-132" font-family="Helvetica,sans-Serif" font-size="10.00"> evidenceProperties</text>
</g>
<!-- Node4 -->
<g id="node4" class="node">
<title>Node4</title>
<g id="a_node4"><a xlink:href="structfiftyone_degrees_collection_item.html" target="_top" xlink:title="Used to store a handle to the underlying item that could be used to release the item when it&#39;s finish...">
<polygon fill="none" stroke="black" points="197,-164 197,-183 362,-183 362,-164 197,-164"/>
<text text-anchor="middle" x="279.5" y="-171" font-family="Helvetica,sans-Serif" font-size="10.00">fiftyoneDegreesCollectionItem</text>
</a>
</g>
</g>
<!-- Node4&#45;&gt;Node2 -->
<g id="edge3" class="edge">
<title>Node4&#45;&gt;Node2</title>
<path fill="none" stroke="#9a32cd" stroke-dasharray="5,2" d="M254.84,-159.13C238.22,-150.27 215.73,-138.57 195.5,-129 176.45,-119.99 154.34,-110.59 138.54,-104.05"/>
<polygon fill="#9a32cd" stroke="#9a32cd" points="253.41,-162.34 263.88,-163.98 256.72,-156.17 253.41,-162.34"/>
<text text-anchor="middle" x="232" y="-132" font-family="Helvetica,sans-Serif" font-size="10.00"> name</text>
</g>
<!-- Node5 -->
<g id="node5" class="node">
<title>Node5</title>
<g id="a_node5"><a xlink:href="structfiftyone_degrees_collection.html" target="_top" xlink:title="All the shared methods and fields required by file, memory and cached collections.">
<polygon fill="none" stroke="black" points="246,-85 246,-104 389,-104 389,-85 246,-85"/>
<text text-anchor="middle" x="317.5" y="-92" font-family="Helvetica,sans-Serif" font-size="10.00">fiftyoneDegreesCollection</text>
</a>
</g>
</g>
<!-- Node4&#45;&gt;Node5 -->
<g id="edge5" class="edge">
<title>Node4&#45;&gt;Node5</title>
<path fill="none" stroke="#9a32cd" stroke-dasharray="5,2" d="M271.74,-154.1C269.52,-146.05 268.63,-136.7 272.5,-129 278.01,-118.03 288.99,-109.75 298.73,-104.16"/>
<polygon fill="#9a32cd" stroke="#9a32cd" points="268.49,-155.42 275.11,-163.69 275.09,-153.1 268.49,-155.42"/>
<text text-anchor="middle" x="292.5" y="-132" font-family="Helvetica,sans-Serif" font-size="10.00"> release</text>
</g>
<!-- Node5&#45;&gt;Node4 -->
<g id="edge4" class="edge">
<title>Node5&#45;&gt;Node4</title>
<path fill="none" stroke="#9a32cd" stroke-dasharray="5,2" d="M320.37,-114.29C320.81,-122.53 320.18,-132.1 316.5,-140 311.8,-150.07 302.34,-158.3 294.15,-163.95"/>
<polygon fill="#9a32cd" stroke="#9a32cd" points="323.83,-113.73 319.28,-104.16 316.87,-114.48 323.83,-113.73"/>
<text text-anchor="middle" x="345" y="-132" font-family="Helvetica,sans-Serif" font-size="10.00"> collection</text>
</g>
<!-- Node5&#45;&gt;Node5 -->
<g id="edge6" class="edge">
<title>Node5&#45;&gt;Node5</title>
<path fill="none" stroke="#9a32cd" stroke-dasharray="5,2" d="M399.11,-99.69C404.04,-98.46 407,-96.73 407,-94.5 407,-91.02 399.79,-88.76 389.13,-87.7"/>
<polygon fill="#9a32cd" stroke="#9a32cd" points="398.44,-96.26 389.13,-101.3 399.56,-103.17 398.44,-96.26"/>
<text text-anchor="middle" x="441.5" y="-103" font-family="Helvetica,sans-Serif" font-size="10.00"> next</text>
<text text-anchor="middle" x="441.5" y="-92" font-family="Helvetica,sans-Serif" font-size="10.00">freeCollection</text>
<text text-anchor="middle" x="441.5" y="-81" font-family="Helvetica,sans-Serif" font-size="10.00">get</text>
</g>
<!-- Node6 -->
<g id="node6" class="node">
<title>Node6</title>
<g id="a_node6"><a xlink:href="structfiftyone_degrees_data.html" target="_top" xlink:title="Data structure used for reusing memory which may have been allocated in a previous operation.">
<polygon fill="none" stroke="black" points="221,-236.5 221,-255.5 338,-255.5 338,-236.5 221,-236.5"/>
<text text-anchor="middle" x="279.5" y="-243.5" font-family="Helvetica,sans-Serif" font-size="10.00">fiftyoneDegreesData</text>
</a>
</g>
</g>
<!-- Node6&#45;&gt;Node4 -->
<g id="edge7" class="edge">
<title>Node6&#45;&gt;Node4</title>
<path fill="none" stroke="#9a32cd" stroke-dasharray="5,2" d="M279.5,-225.94C279.5,-212.03 279.5,-193.82 279.5,-183.22"/>
<polygon fill="#9a32cd" stroke="#9a32cd" points="276,-226.36 279.5,-236.36 283,-226.36 276,-226.36"/>
<text text-anchor="middle" x="292" y="-210" font-family="Helvetica,sans-Serif" font-size="10.00"> data</text>
</g>
</g>
</svg>
