<?xml version="1.0" encoding="UTF-8" standalone="no"?>
<!DOCTYPE svg PUBLIC "-//W3C//DTD SVG 1.1//EN"
 "http://www.w3.org/Graphics/SVG/1.1/DTD/svg11.dtd">
<!-- Generated by graphviz version 2.43.0 (0)
 -->
<!-- Title: fiftyoneDegreesOverridePropertyArray Pages: 1 -->
<svg width="487pt" height="320pt"
 viewBox="0.00 0.00 487.00 320.00" xmlns="http://www.w3.org/2000/svg" xmlns:xlink="http://www.w3.org/1999/xlink">
<g id="graph0" class="graph" transform="scale(1 1) rotate(0) translate(4 316)">
<title>fiftyoneDegreesOverridePropertyArray</title>
<!-- Node1 -->
<g id="node1" class="node">
<title>Node1</title>
<g id="a_node1"><a xlink:title="Array of items of type fiftyoneDegreesOverrideProperty used to easily access and track the size of th...">
<polygon fill="#bfbfbf" stroke="black" points="29,-0.5 29,-30.5 206,-30.5 206,-0.5 29,-0.5"/>
<text text-anchor="start" x="37" y="-18.5" font-family="Helvetica,sans-Serif" font-size="10.00">fiftyoneDegreesOverrideProperty</text>
<text text-anchor="middle" x="117.5" y="-7.5" font-family="Helvetica,sans-Serif" font-size="10.00">Array</text>
</a>
</g>
</g>
<!-- Node2 -->
<g id="node2" class="node">
<title>Node2</title>
<g id="a_node2"><a xlink:href="structfiftyone_degrees_override_property.html" target="_top" xlink:title="Index and pointer to a property which can be overridden.">
<polygon fill="none" stroke="black" points="29,-78.5 29,-97.5 206,-97.5 206,-78.5 29,-78.5"/>
<text text-anchor="middle" x="117.5" y="-85.5" font-family="Helvetica,sans-Serif" font-size="10.00">fiftyoneDegreesOverrideProperty</text>
</a>
</g>
</g>
<!-- Node2&#45;&gt;Node1 -->
<g id="edge1" class="edge">
<title>Node2&#45;&gt;Node1</title>
<path fill="none" stroke="#9a32cd" stroke-dasharray="5,2" d="M117.5,-68.24C117.5,-56.41 117.5,-41.38 117.5,-30.58"/>
<polygon fill="#9a32cd" stroke="#9a32cd" points="114,-68.36 117.5,-78.36 121,-68.36 114,-68.36"/>
<text text-anchor="middle" x="133" y="-52" font-family="Helvetica,sans-Serif" font-size="10.00"> items</text>
</g>
<!-- Node3 -->
<g id="node3" class="node">
<title>Node3</title>
<g id="a_node3"><a xlink:href="structfiftyone_degrees_property_available.html" target="_top" xlink:title="Used to access the property item quickly without the need to search.">
<polygon fill="none" stroke="black" points="27.5,-146.5 27.5,-165.5 207.5,-165.5 207.5,-146.5 27.5,-146.5"/>
<text text-anchor="middle" x="117.5" y="-153.5" font-family="Helvetica,sans-Serif" font-size="10.00">fiftyoneDegreesPropertyAvailable</text>
</a>
</g>
</g>
<!-- Node3&#45;&gt;Node2 -->
<g id="edge2" class="edge">
<title>Node3&#45;&gt;Node2</title>
<path fill="none" stroke="#9a32cd" stroke-dasharray="5,2" d="M117.5,-136.04C117.5,-123.47 117.5,-107.56 117.5,-97.84"/>
<polygon fill="#9a32cd" stroke="#9a32cd" points="114,-136.37 117.5,-146.37 121,-136.37 114,-136.37"/>
<text text-anchor="middle" x="142" y="-119" font-family="Helvetica,sans-Serif" font-size="10.00"> available</text>
</g>
<!-- Node4 -->
<g id="node4" class="node">
<title>Node4</title>
<g id="a_node4"><a xlink:href="structfiftyone_degrees_evidence_property_index_array.html" target="_top" xlink:title="Array of items of type fiftyoneDegreesEvidencePropertyIndex used to easily access and track the size ...">
<polygon fill="none" stroke="black" points="0,-214.5 0,-244.5 179,-244.5 179,-214.5 0,-214.5"/>
<text text-anchor="start" x="8" y="-232.5" font-family="Helvetica,sans-Serif" font-size="10.00">fiftyoneDegreesEvidenceProperty</text>
<text text-anchor="middle" x="89.5" y="-221.5" font-family="Helvetica,sans-Serif" font-size="10.00">IndexArray</text>
</a>
</g>
</g>
<!-- Node4&#45;&gt;Node3 -->
<g id="edge3" class="edge">
<title>Node4&#45;&gt;Node3</title>
<path fill="none" stroke="#9a32cd" stroke-dasharray="5,2" d="M92.79,-204.18C94.12,-197.79 95.96,-191.01 98.5,-185 101.43,-178.07 106.18,-171.07 110.2,-165.81"/>
<polygon fill="#9a32cd" stroke="#9a32cd" points="89.28,-203.91 91,-214.37 96.17,-205.12 89.28,-203.91"/>
<text text-anchor="middle" x="147" y="-188" font-family="Helvetica,sans-Serif" font-size="10.00"> evidenceProperties</text>
</g>
<!-- Node5 -->
<g id="node5" class="node">
<title>Node5</title>
<g id="a_node5"><a xlink:href="structfiftyone_degrees_collection_item.html" target="_top" xlink:title="Used to store a handle to the underlying item that could be used to release the item when it&#39;s finish...">
<polygon fill="none" stroke="black" points="197,-220 197,-239 362,-239 362,-220 197,-220"/>
<text text-anchor="middle" x="279.5" y="-227" font-family="Helvetica,sans-Serif" font-size="10.00">fiftyoneDegreesCollectionItem</text>
</a>
</g>
</g>
<!-- Node5&#45;&gt;Node3 -->
<g id="edge4" class="edge">
<title>Node5&#45;&gt;Node3</title>
<path fill="none" stroke="#9a32cd" stroke-dasharray="5,2" d="M255.33,-214.89C238.76,-205.84 216.14,-194 195.5,-185 178.75,-177.7 159.42,-170.75 144.2,-165.6"/>
<polygon fill="#9a32cd" stroke="#9a32cd" points="253.87,-218.08 264.32,-219.86 257.26,-211.96 253.87,-218.08"/>
<text text-anchor="middle" x="235" y="-188" font-family="Helvetica,sans-Serif" font-size="10.00"> name</text>
</g>
<!-- Node6 -->
<g id="node6" class="node">
<title>Node6</title>
<g id="a_node6"><a xlink:href="structfiftyone_degrees_collection.html" target="_top" xlink:title="All the shared methods and fields required by file, memory and cached collections.">
<polygon fill="none" stroke="black" points="246,-146.5 246,-165.5 389,-165.5 389,-146.5 246,-146.5"/>
<text text-anchor="middle" x="317.5" y="-153.5" font-family="Helvetica,sans-Serif" font-size="10.00">fiftyoneDegreesCollection</text>
</a>
</g>
</g>
<!-- Node5&#45;&gt;Node6 -->
<g id="edge6" class="edge">
<title>Node5&#45;&gt;Node6</title>
<path fill="none" stroke="#9a32cd" stroke-dasharray="5,2" d="M271.6,-210.51C269.21,-202.3 268.22,-192.71 272.5,-185 277.33,-176.31 286.09,-169.97 294.61,-165.54"/>
<polygon fill="#9a32cd" stroke="#9a32cd" points="268.33,-211.76 275.08,-219.93 274.9,-209.34 268.33,-211.76"/>
<text text-anchor="middle" x="292.5" y="-188" font-family="Helvetica,sans-Serif" font-size="10.00"> release</text>
</g>
<!-- Node6&#45;&gt;Node5 -->
<g id="edge5" class="edge">
<title>Node6&#45;&gt;Node5</title>
<path fill="none" stroke="#9a32cd" stroke-dasharray="5,2" d="M320.03,-175.72C320.17,-182.4 319.41,-189.79 316.5,-196 311.79,-206.07 302.32,-214.29 294.14,-219.95"/>
<polygon fill="#9a32cd" stroke="#9a32cd" points="323.5,-175.18 319.17,-165.51 316.52,-175.77 323.5,-175.18"/>
<text text-anchor="middle" x="344" y="-188" font-family="Helvetica,sans-Serif" font-size="10.00"> collection</text>
</g>
<!-- Node6&#45;&gt;Node6 -->
<g id="edge7" class="edge">
<title>Node6&#45;&gt;Node6</title>
<path fill="none" stroke="#9a32cd" stroke-dasharray="5,2" d="M399.11,-160.41C404.04,-159.36 407,-157.89 407,-156 407,-153.04 399.79,-151.12 389.13,-150.22"/>
<polygon fill="#9a32cd" stroke="#9a32cd" points="398.56,-156.96 389.13,-161.78 399.51,-163.89 398.56,-156.96"/>
<text text-anchor="middle" x="443" y="-159" font-family="Helvetica,sans-Serif" font-size="10.00"> freeCollection</text>
<text text-anchor="middle" x="443" y="-148" font-family="Helvetica,sans-Serif" font-size="10.00">get</text>
</g>
<!-- Node7 -->
<g id="node7" class="node">
<title>Node7</title>
<g id="a_node7"><a xlink:href="structfiftyone_degrees_data.html" target="_top" xlink:title="Data structure used for reusing memory which may have been allocated in a previous operation.">
<polygon fill="none" stroke="black" points="221,-292.5 221,-311.5 338,-311.5 338,-292.5 221,-292.5"/>
<text text-anchor="middle" x="279.5" y="-299.5" font-family="Helvetica,sans-Serif" font-size="10.00">fiftyoneDegreesData</text>
</a>
</g>
</g>
<!-- Node7&#45;&gt;Node5 -->
<g id="edge8" class="edge">
<title>Node7&#45;&gt;Node5</title>
<path fill="none" stroke="#9a32cd" stroke-dasharray="5,2" d="M279.5,-281.94C279.5,-268.03 279.5,-249.82 279.5,-239.22"/>
<polygon fill="#9a32cd" stroke="#9a32cd" points="276,-282.36 279.5,-292.36 283,-282.36 276,-282.36"/>
<text text-anchor="middle" x="292" y="-266" font-family="Helvetica,sans-Serif" font-size="10.00"> data</text>
</g>
</g>
</svg>
