<?xml version="1.0" encoding="UTF-8" standalone="no"?>
<!DOCTYPE svg PUBLIC "-//W3C//DTD SVG 1.1//EN"
 "http://www.w3.org/Graphics/SVG/1.1/DTD/svg11.dtd">
<!-- Generated by graphviz version 2.43.0 (0)
 -->
<!-- Title: threadState Pages: 1 -->
<svg width="1355pt" height="259pt"
 viewBox="0.00 0.00 1355.00 259.00" xmlns="http://www.w3.org/2000/svg" xmlns:xlink="http://www.w3.org/1999/xlink">
<g id="graph0" class="graph" transform="scale(1 1) rotate(0) translate(4 255)">
<title>threadState</title>
<!-- Node1 -->
<g id="node1" class="node">
<title>Node1</title>
<g id="a_node1"><a xlink:title="State specific to a single thread.">
<polygon fill="#bfbfbf" stroke="black" points="998.5,-172 998.5,-191 1072.5,-191 1072.5,-172 998.5,-172"/>
<text text-anchor="middle" x="1035.5" y="-179" font-family="Helvetica,sans-Serif" font-size="10.00">threadState</text>
</a>
</g>
</g>
<!-- Node9 -->
<g id="node9" class="node">
<title>Node9</title>
<g id="a_node9"><a xlink:href="structperformance_state.html" target="_top" xlink:title="Single state containing everything needed for running and then reporting the performance tests.">
<polygon fill="none" stroke="black" points="1243,-135 1243,-154 1347,-154 1347,-135 1243,-135"/>
<text text-anchor="middle" x="1295" y="-142" font-family="Helvetica,sans-Serif" font-size="10.00">performanceState</text>
</a>
</g>
</g>
<!-- Node1&#45;&gt;Node9 -->
<g id="edge15" class="edge">
<title>Node1&#45;&gt;Node9</title>
<path fill="none" stroke="#9a32cd" stroke-dasharray="5,2" d="M1083.16,-184.07C1121.68,-185.11 1177.52,-184.12 1225,-173.5 1243.13,-169.44 1262.54,-160.87 1276.14,-154.09"/>
<polygon fill="#9a32cd" stroke="#9a32cd" points="1082.89,-180.56 1072.78,-183.73 1082.66,-187.56 1082.89,-180.56"/>
<text text-anchor="middle" x="1182.5" y="-187.5" font-family="Helvetica,sans-Serif" font-size="10.00"> threadStates</text>
</g>
<!-- Node2 -->
<g id="node2" class="node">
<title>Node2</title>
<g id="a_node2"><a xlink:href="structfiftyone_degrees_resource_manager.html" target="_top" xlink:title="Manager structure used to provide access to a shared and changing resource.">
<polygon fill="none" stroke="black" points="663,-103 663,-122 845,-122 845,-103 663,-103"/>
<text text-anchor="middle" x="754" y="-110" font-family="Helvetica,sans-Serif" font-size="10.00">fiftyoneDegreesResourceManager</text>
</a>
</g>
</g>
<!-- Node2&#45;&gt;Node1 -->
<g id="edge1" class="edge">
<title>Node2&#45;&gt;Node1</title>
<path fill="none" stroke="#9a32cd" stroke-dasharray="5,2" d="M802.78,-124.5C821.55,-129.2 843.28,-134.62 863,-139.5 909.72,-151.06 963.64,-164.24 998.35,-172.7"/>
<polygon fill="#9a32cd" stroke="#9a32cd" points="803.53,-121.08 792.97,-122.04 801.82,-127.87 803.53,-121.08"/>
<text text-anchor="middle" x="897" y="-159.5" font-family="Helvetica,sans-Serif" font-size="10.00"> manager</text>
</g>
<!-- Node3 -->
<g id="node3" class="node">
<title>Node3</title>
<g id="a_node3"><a xlink:href="structfiftyone_degrees_resource_handle.html" target="_top" xlink:title="Handle for a shared resource.">
<polygon fill="none" stroke="black" points="949,-6 949,-25 1122,-25 1122,-6 949,-6"/>
<text text-anchor="middle" x="1035.5" y="-13" font-family="Helvetica,sans-Serif" font-size="10.00">fiftyoneDegreesResourceHandle</text>
</a>
</g>
</g>
<!-- Node2&#45;&gt;Node3 -->
<g id="edge3" class="edge">
<title>Node2&#45;&gt;Node3</title>
<path fill="none" stroke="#9a32cd" stroke-dasharray="5,2" d="M844.82,-101.3C880.9,-95.26 917.21,-86.7 931,-75.5 946.45,-62.95 933.62,-47.14 949,-34.5 953.7,-30.64 959.02,-27.52 964.65,-25.01"/>
<polygon fill="#9a32cd" stroke="#9a32cd" points="843.98,-97.89 834.67,-102.94 845.1,-104.8 843.98,-97.89"/>
<text text-anchor="middle" x="897" y="-101.5" font-family="Helvetica,sans-Serif" font-size="10.00"> manager</text>
</g>
<!-- Node2&#45;&gt;Node9 -->
<g id="edge12" class="edge">
<title>Node2&#45;&gt;Node9</title>
<path fill="none" stroke="#9a32cd" stroke-dasharray="5,2" d="M855.44,-118.46C970.43,-125.29 1154.33,-136.21 1242.96,-141.47"/>
<polygon fill="#9a32cd" stroke="#9a32cd" points="855.41,-114.95 845.22,-117.86 854.99,-121.94 855.41,-114.95"/>
<text text-anchor="middle" x="1035.5" y="-137.5" font-family="Helvetica,sans-Serif" font-size="10.00"> manager</text>
</g>
<!-- Node3&#45;&gt;Node2 -->
<g id="edge2" class="edge">
<title>Node3&#45;&gt;Node2</title>
<path fill="none" stroke="#9a32cd" stroke-dasharray="5,2" d="M976.76,-27.37C967.43,-29.56 957.91,-31.96 949,-34.5 883.18,-53.22 809.11,-86.66 774.62,-103"/>
<polygon fill="#9a32cd" stroke="#9a32cd" points="977.8,-30.72 986.77,-25.07 976.24,-23.89 977.8,-30.72"/>
<text text-anchor="middle" x="897" y="-66.5" font-family="Helvetica,sans-Serif" font-size="10.00"> active</text>
</g>
<!-- Node4 -->
<g id="node4" class="node">
<title>Node4</title>
<g id="a_node4"><a xlink:href="structfiftyone_degrees_interlock_double_width.html" target="_top" xlink:title="Double width (64 or 128 depending on the architecture) compare and exchange.">
<polygon fill="none" stroke="black" points="685.5,-0.5 685.5,-30.5 822.5,-30.5 822.5,-0.5 685.5,-0.5"/>
<text text-anchor="start" x="693.5" y="-18.5" font-family="Helvetica,sans-Serif" font-size="10.00">fiftyoneDegreesInterlock</text>
<text text-anchor="middle" x="754" y="-7.5" font-family="Helvetica,sans-Serif" font-size="10.00">DoubleWidth</text>
</a>
</g>
</g>
<!-- Node4&#45;&gt;Node3 -->
<g id="edge4" class="edge">
<title>Node4&#45;&gt;Node3</title>
<path fill="none" stroke="#9a32cd" stroke-dasharray="5,2" d="M833.12,-15.5C869.15,-15.5 912.01,-15.5 948.91,-15.5"/>
<polygon fill="#9a32cd" stroke="#9a32cd" points="832.66,-12 822.66,-15.5 832.66,-19 832.66,-12"/>
<text text-anchor="middle" x="897" y="-18.5" font-family="Helvetica,sans-Serif" font-size="10.00"> counter</text>
</g>
<!-- Node5 -->
<g id="node5" class="node">
<title>Node5</title>
<g id="a_node5"><a xlink:href="structevidence_node.html" target="_top" xlink:title=" ">
<polygon fill="none" stroke="black" points="711,-186 711,-205 797,-205 797,-186 711,-186"/>
<text text-anchor="middle" x="754" y="-193" font-family="Helvetica,sans-Serif" font-size="10.00">evidenceNode</text>
</a>
</g>
</g>
<!-- Node5&#45;&gt;Node1 -->
<g id="edge5" class="edge">
<title>Node5&#45;&gt;Node1</title>
<path fill="none" stroke="#9a32cd" stroke-dasharray="5,2" d="M807.16,-192.89C862.84,-190.1 949.59,-185.75 998.25,-183.32"/>
<polygon fill="#9a32cd" stroke="#9a32cd" points="806.96,-189.39 797.15,-193.39 807.31,-196.38 806.96,-189.39"/>
<text text-anchor="middle" x="897" y="-204.5" font-family="Helvetica,sans-Serif" font-size="10.00"> evidenceLast</text>
<text text-anchor="middle" x="897" y="-193.5" font-family="Helvetica,sans-Serif" font-size="10.00">evidenceFirst</text>
</g>
<!-- Node5&#45;&gt;Node5 -->
<g id="edge6" class="edge">
<title>Node5&#45;&gt;Node5</title>
<path fill="none" stroke="#9a32cd" stroke-dasharray="5,2" d="M731.31,-214.53C732.54,-219.63 740.11,-223.5 754,-223.5 775.68,-223.5 781.95,-214.07 772.8,-205.26"/>
<polygon fill="#9a32cd" stroke="#9a32cd" points="734.56,-215.83 735.2,-205.26 728.1,-213.12 734.56,-215.83"/>
<text text-anchor="middle" x="754" y="-226.5" font-family="Helvetica,sans-Serif" font-size="10.00"> next</text>
</g>
<!-- Node6 -->
<g id="node6" class="node">
<title>Node6</title>
<g id="a_node6"><a xlink:href="structfiftyone_degrees_evidence_key_value_pair_array.html" target="_top" xlink:title="Array of evidence key value pairs and a pointer to the next array if present or NULL of not present.">
<polygon fill="none" stroke="black" points="442,-180.5 442,-210.5 598,-210.5 598,-180.5 442,-180.5"/>
<text text-anchor="start" x="450" y="-198.5" font-family="Helvetica,sans-Serif" font-size="10.00">fiftyoneDegreesEvidenceKey</text>
<text text-anchor="middle" x="520" y="-187.5" font-family="Helvetica,sans-Serif" font-size="10.00">ValuePairArray</text>
</a>
</g>
</g>
<!-- Node6&#45;&gt;Node5 -->
<g id="edge7" class="edge">
<title>Node6&#45;&gt;Node5</title>
<path fill="none" stroke="#9a32cd" stroke-dasharray="5,2" d="M608.51,-195.5C643.57,-195.5 682.33,-195.5 710.87,-195.5"/>
<polygon fill="#9a32cd" stroke="#9a32cd" points="608.25,-192 598.25,-195.5 608.25,-199 608.25,-192"/>
<text text-anchor="middle" x="630.5" y="-198.5" font-family="Helvetica,sans-Serif" font-size="10.00"> array</text>
</g>
<!-- Node6&#45;&gt;Node6 -->
<g id="edge10" class="edge">
<title>Node6&#45;&gt;Node6</title>
<path fill="none" stroke="#9a32cd" stroke-dasharray="5,2" d="M500.45,-220.96C502.88,-225.68 509.4,-229 520,-229 537.4,-229 543.79,-220.06 539.17,-210.66"/>
<polygon fill="#9a32cd" stroke="#9a32cd" points="503.96,-220.78 500.83,-210.66 496.97,-220.52 503.96,-220.78"/>
<text text-anchor="middle" x="520" y="-243" font-family="Helvetica,sans-Serif" font-size="10.00"> prev</text>
<text text-anchor="middle" x="520" y="-232" font-family="Helvetica,sans-Serif" font-size="10.00">next</text>
</g>
<!-- Node7 -->
<g id="node7" class="node">
<title>Node7</title>
<g id="a_node7"><a xlink:href="structfiftyone_degrees_evidence_key_value_pair.html" target="_top" xlink:title="Evidence key value pair structure which combines the prefix, key and value.">
<polygon fill="none" stroke="black" points="219,-180.5 219,-210.5 375,-210.5 375,-180.5 219,-180.5"/>
<text text-anchor="start" x="227" y="-198.5" font-family="Helvetica,sans-Serif" font-size="10.00">fiftyoneDegreesEvidenceKey</text>
<text text-anchor="middle" x="297" y="-187.5" font-family="Helvetica,sans-Serif" font-size="10.00">ValuePair</text>
</a>
</g>
</g>
<!-- Node7&#45;&gt;Node6 -->
<g id="edge8" class="edge">
<title>Node7&#45;&gt;Node6</title>
<path fill="none" stroke="#9a32cd" stroke-dasharray="5,2" d="M385.51,-195.5C404.09,-195.5 423.58,-195.5 441.75,-195.5"/>
<polygon fill="#9a32cd" stroke="#9a32cd" points="385.3,-192 375.3,-195.5 385.3,-199 385.3,-192"/>
<text text-anchor="middle" x="408.5" y="-198.5" font-family="Helvetica,sans-Serif" font-size="10.00"> items</text>
</g>
<!-- Node8 -->
<g id="node8" class="node">
<title>Node8</title>
<g id="a_node8"><a xlink:href="structfiftyone_degrees_key_value_pair.html" target="_top" xlink:title=" ">
<polygon fill="none" stroke="black" points="0,-186 0,-205 157,-205 157,-186 0,-186"/>
<text text-anchor="middle" x="78.5" y="-193" font-family="Helvetica,sans-Serif" font-size="10.00">fiftyoneDegreesKeyValuePair</text>
</a>
</g>
</g>
<!-- Node8&#45;&gt;Node7 -->
<g id="edge9" class="edge">
<title>Node8&#45;&gt;Node7</title>
<path fill="none" stroke="#9a32cd" stroke-dasharray="5,2" d="M167.07,-195.5C184.26,-195.5 202.18,-195.5 218.99,-195.5"/>
<polygon fill="#9a32cd" stroke="#9a32cd" points="167.05,-192 157.05,-195.5 167.05,-199 167.05,-192"/>
<text text-anchor="middle" x="188" y="-198.5" font-family="Helvetica,sans-Serif" font-size="10.00"> item</text>
</g>
<!-- Node9&#45;&gt;Node1 -->
<g id="edge11" class="edge">
<title>Node9&#45;&gt;Node1</title>
<path fill="none" stroke="#9a32cd" stroke-dasharray="5,2" d="M1232.76,-150.73C1204.47,-153.85 1170.47,-157.93 1140,-162.5 1117.6,-165.86 1092.61,-170.42 1072.81,-174.24"/>
<polygon fill="#9a32cd" stroke="#9a32cd" points="1233.34,-154.19 1242.91,-149.63 1232.59,-147.23 1233.34,-154.19"/>
<text text-anchor="middle" x="1182.5" y="-165.5" font-family="Helvetica,sans-Serif" font-size="10.00"> mainState</text>
</g>
<!-- Node10 -->
<g id="node10" class="node">
<title>Node10</title>
<g id="a_node10"><a xlink:href="structshared_string_node.html" target="_top" xlink:title=" ">
<polygon fill="none" stroke="black" points="983.5,-44 983.5,-63 1087.5,-63 1087.5,-44 983.5,-44"/>
<text text-anchor="middle" x="1035.5" y="-51" font-family="Helvetica,sans-Serif" font-size="10.00">sharedStringNode</text>
</a>
</g>
</g>
<!-- Node10&#45;&gt;Node9 -->
<g id="edge13" class="edge">
<title>Node10&#45;&gt;Node9</title>
<path fill="none" stroke="#9a32cd" stroke-dasharray="5,2" d="M1097.97,-59.28C1135.89,-64.5 1184.79,-74.3 1225,-92.5 1248.51,-103.14 1271.57,-122.95 1284.18,-134.81"/>
<polygon fill="#9a32cd" stroke="#9a32cd" points="1097.96,-55.74 1087.59,-57.92 1097.05,-62.69 1097.96,-55.74"/>
<text text-anchor="middle" x="1182.5" y="-106.5" font-family="Helvetica,sans-Serif" font-size="10.00"> sharedStringLast</text>
<text text-anchor="middle" x="1182.5" y="-95.5" font-family="Helvetica,sans-Serif" font-size="10.00">sharedStringFirst</text>
</g>
<!-- Node10&#45;&gt;Node10 -->
<g id="edge14" class="edge">
<title>Node10&#45;&gt;Node10</title>
<path fill="none" stroke="#9a32cd" stroke-dasharray="5,2" d="M1009.83,-72.53C1011.23,-77.63 1019.79,-81.5 1035.5,-81.5 1060.03,-81.5 1067.12,-72.07 1056.77,-63.26"/>
<polygon fill="#9a32cd" stroke="#9a32cd" points="1013.11,-73.79 1014.23,-63.26 1006.78,-70.79 1013.11,-73.79"/>
<text text-anchor="middle" x="1035.5" y="-84.5" font-family="Helvetica,sans-Serif" font-size="10.00"> next</text>
</g>
</g>
</svg>
