<?xml version="1.0" encoding="UTF-8" standalone="no"?>
<!DOCTYPE svg PUBLIC "-//W3C//DTD SVG 1.1//EN"
 "http://www.w3.org/Graphics/SVG/1.1/DTD/svg11.dtd">
<!-- Generated by graphviz version 2.43.0 (0)
 -->
<!-- Title: fiftyoneDegreesCollection Pages: 1 -->
<svg width="376pt" height="97pt"
 viewBox="0.00 0.00 376.00 97.00" xmlns="http://www.w3.org/2000/svg" xmlns:xlink="http://www.w3.org/1999/xlink">
<g id="graph0" class="graph" transform="scale(1 1) rotate(0) translate(4 93)">
<title>fiftyoneDegreesCollection</title>
<!-- Node1 -->
<g id="node1" class="node">
<title>Node1</title>
<g id="a_node1"><a xlink:title="All the shared methods and fields required by file, memory and cached collections.">
<polygon fill="#bfbfbf" stroke="black" points="0,-68.5 0,-87.5 143,-87.5 143,-68.5 0,-68.5"/>
<text text-anchor="middle" x="71.5" y="-75.5" font-family="Helvetica,sans-Serif" font-size="10.00">fiftyoneDegreesCollection</text>
</a>
</g>
</g>
<!-- Node1&#45;&gt;Node1 -->
<g id="edge4" class="edge">
<title>Node1&#45;&gt;Node1</title>
<path fill="none" stroke="#9a32cd" stroke-dasharray="5,2" d="M153.11,-82.41C158.04,-81.36 161,-79.89 161,-78 161,-75.04 153.79,-73.12 143.13,-72.22"/>
<polygon fill="#9a32cd" stroke="#9a32cd" points="152.56,-78.96 143.13,-83.78 153.51,-85.89 152.56,-78.96"/>
<text text-anchor="middle" x="197" y="-81" font-family="Helvetica,sans-Serif" font-size="10.00"> freeCollection</text>
<text text-anchor="middle" x="197" y="-70" font-family="Helvetica,sans-Serif" font-size="10.00">get</text>
</g>
<!-- Node2 -->
<g id="node2" class="node">
<title>Node2</title>
<g id="a_node2"><a xlink:href="structfiftyone_degrees_collection_item.html" target="_top" xlink:title="Used to store a handle to the underlying item that could be used to release the item when it&#39;s finish...">
<polygon fill="none" stroke="black" points="63,-0.5 63,-19.5 228,-19.5 228,-0.5 63,-0.5"/>
<text text-anchor="middle" x="145.5" y="-7.5" font-family="Helvetica,sans-Serif" font-size="10.00">fiftyoneDegreesCollectionItem</text>
</a>
</g>
</g>
<!-- Node1&#45;&gt;Node2 -->
<g id="edge2" class="edge">
<title>Node1&#45;&gt;Node2</title>
<path fill="none" stroke="#9a32cd" stroke-dasharray="5,2" d="M65.3,-58.37C64.14,-51.42 64.38,-43.82 68.5,-38 74.56,-29.45 83.56,-23.58 93.28,-19.57"/>
<polygon fill="#9a32cd" stroke="#9a32cd" points="62,-59.6 67.9,-68.4 68.77,-57.84 62,-59.6"/>
<text text-anchor="middle" x="94" y="-41" font-family="Helvetica,sans-Serif" font-size="10.00"> collection</text>
</g>
<!-- Node2&#45;&gt;Node1 -->
<g id="edge1" class="edge">
<title>Node2&#45;&gt;Node1</title>
<path fill="none" stroke="#9a32cd" stroke-dasharray="5,2" d="M137.68,-29.03C134.08,-35.87 129.31,-43.37 123.5,-49 114.96,-57.28 103.48,-63.8 93.48,-68.47"/>
<polygon fill="#9a32cd" stroke="#9a32cd" points="140.96,-30.29 142.1,-19.76 134.64,-27.28 140.96,-30.29"/>
<text text-anchor="middle" x="152.5" y="-41" font-family="Helvetica,sans-Serif" font-size="10.00"> release</text>
</g>
<!-- Node3 -->
<g id="node3" class="node">
<title>Node3</title>
<g id="a_node3"><a xlink:href="structfiftyone_degrees_data.html" target="_top" xlink:title="Data structure used for reusing memory which may have been allocated in a previous operation.">
<polygon fill="none" stroke="black" points="251,-68.5 251,-87.5 368,-87.5 368,-68.5 251,-68.5"/>
<text text-anchor="middle" x="309.5" y="-75.5" font-family="Helvetica,sans-Serif" font-size="10.00">fiftyoneDegreesData</text>
</a>
</g>
</g>
<!-- Node3&#45;&gt;Node2 -->
<g id="edge3" class="edge">
<title>Node3&#45;&gt;Node2</title>
<path fill="none" stroke="#9a32cd" stroke-dasharray="5,2" d="M278.53,-64.54C245.81,-51.37 195.12,-30.97 166.69,-19.53"/>
<polygon fill="#9a32cd" stroke="#9a32cd" points="277.48,-67.89 288.06,-68.37 280.09,-61.39 277.48,-67.89"/>
<text text-anchor="middle" x="249" y="-41" font-family="Helvetica,sans-Serif" font-size="10.00"> data</text>
</g>
</g>
</svg>
