<?xml version="1.0" encoding="UTF-8" standalone="no"?>
<!DOCTYPE svg PUBLIC "-//W3C//DTD SVG 1.1//EN"
 "http://www.w3.org/Graphics/SVG/1.1/DTD/svg11.dtd">
<!-- Generated by graphviz version 2.43.0 (0)
 -->
<!-- Title: fiftyoneDegreesCollectionFile Pages: 1 -->
<svg width="682pt" height="231pt"
 viewBox="0.00 0.00 681.50 231.00" xmlns="http://www.w3.org/2000/svg" xmlns:xlink="http://www.w3.org/1999/xlink">
<g id="graph0" class="graph" transform="scale(1 1) rotate(0) translate(4 227)">
<title>fiftyoneDegreesCollectionFile</title>
<!-- Node1 -->
<g id="node1" class="node">
<title>Node1</title>
<g id="a_node1"><a xlink:title="Type of collection where the collection is streamed from file.">
<polygon fill="#bfbfbf" stroke="black" points="107,-0.5 107,-19.5 267,-19.5 267,-0.5 107,-0.5"/>
<text text-anchor="middle" x="187" y="-7.5" font-family="Helvetica,sans-Serif" font-size="10.00">fiftyoneDegreesCollectionFile</text>
</a>
</g>
</g>
<!-- Node1&#45;&gt;Node1 -->
<g id="edge1" class="edge">
<title>Node1&#45;&gt;Node1</title>
<path fill="none" stroke="#9a32cd" stroke-dasharray="5,2" d="M277.6,-13.91C282.25,-12.94 285,-11.64 285,-10 285,-7.38 277.97,-5.61 267.36,-4.71"/>
<polygon fill="#9a32cd" stroke="#9a32cd" points="276.8,-10.49 267.36,-15.29 277.74,-17.43 276.8,-10.49"/>
<text text-anchor="middle" x="297.5" y="-7.5" font-family="Helvetica,sans-Serif" font-size="10.00"> read</text>
</g>
<!-- Node2 -->
<g id="node2" class="node">
<title>Node2</title>
<g id="a_node2"><a xlink:href="structfiftyone_degrees_file_pool.html" target="_top" xlink:title="Stack of handles used to read data from a single source file.">
<polygon fill="none" stroke="black" points="0,-68.5 0,-87.5 132,-87.5 132,-68.5 0,-68.5"/>
<text text-anchor="middle" x="66" y="-75.5" font-family="Helvetica,sans-Serif" font-size="10.00">fiftyoneDegreesFilePool</text>
</a>
</g>
</g>
<!-- Node2&#45;&gt;Node1 -->
<g id="edge2" class="edge">
<title>Node2&#45;&gt;Node1</title>
<path fill="none" stroke="#9a32cd" stroke-dasharray="5,2" d="M90.72,-63.51C114.81,-50.38 150.7,-30.8 171.18,-19.63"/>
<polygon fill="#9a32cd" stroke="#9a32cd" points="88.92,-60.51 81.82,-68.37 92.27,-66.66 88.92,-60.51"/>
<text text-anchor="middle" x="155.5" y="-41" font-family="Helvetica,sans-Serif" font-size="10.00"> reader</text>
</g>
<!-- Node3 -->
<g id="node3" class="node">
<title>Node3</title>
<g id="a_node3"><a xlink:href="structfiftyone_degrees_pool.html" target="_top" xlink:title="Pool of resources stored as items in a stack.">
<polygon fill="none" stroke="black" points="113.5,-136.5 113.5,-155.5 228.5,-155.5 228.5,-136.5 113.5,-136.5"/>
<text text-anchor="middle" x="171" y="-143.5" font-family="Helvetica,sans-Serif" font-size="10.00">fiftyoneDegreesPool</text>
</a>
</g>
</g>
<!-- Node3&#45;&gt;Node2 -->
<g id="edge3" class="edge">
<title>Node3&#45;&gt;Node2</title>
<path fill="none" stroke="#9a32cd" stroke-dasharray="5,2" d="M148.71,-130.99C127.82,-117.86 97.26,-98.65 79.73,-87.63"/>
<polygon fill="#9a32cd" stroke="#9a32cd" points="146.94,-134.01 157.27,-136.37 150.67,-128.09 146.94,-134.01"/>
<text text-anchor="middle" x="140.5" y="-110" font-family="Helvetica,sans-Serif" font-size="10.00"> pool</text>
</g>
<!-- Node3&#45;&gt;Node3 -->
<g id="edge4" class="edge">
<title>Node3&#45;&gt;Node3</title>
<path fill="none" stroke="#9a32cd" stroke-dasharray="5,2" d="M238.53,-150.44C243.47,-149.44 246.5,-147.96 246.5,-146 246.5,-142.94 239.12,-141.05 228.61,-140.33"/>
<polygon fill="#9a32cd" stroke="#9a32cd" points="238.1,-146.97 228.61,-151.67 238.96,-153.92 238.1,-146.97"/>
<text text-anchor="middle" x="280" y="-143.5" font-family="Helvetica,sans-Serif" font-size="10.00"> resourceFree</text>
</g>
<!-- Node5 -->
<g id="node5" class="node">
<title>Node5</title>
<g id="a_node5"><a xlink:href="structfiftyone_degrees_pool_item.html" target="_top" xlink:title="Pool item node in the stack of items.">
<polygon fill="none" stroke="black" points="150.5,-68.5 150.5,-87.5 287.5,-87.5 287.5,-68.5 150.5,-68.5"/>
<text text-anchor="middle" x="219" y="-75.5" font-family="Helvetica,sans-Serif" font-size="10.00">fiftyoneDegreesPoolItem</text>
</a>
</g>
</g>
<!-- Node3&#45;&gt;Node5 -->
<g id="edge7" class="edge">
<title>Node3&#45;&gt;Node5</title>
<path fill="none" stroke="#9a32cd" stroke-dasharray="5,2" d="M165.26,-126.2C164.35,-119.73 164.63,-112.69 168,-107 173.25,-98.13 182.41,-91.89 191.53,-87.58"/>
<polygon fill="#9a32cd" stroke="#9a32cd" points="161.91,-127.25 167.58,-136.2 168.73,-125.67 161.91,-127.25"/>
<text text-anchor="middle" x="180.5" y="-110" font-family="Helvetica,sans-Serif" font-size="10.00"> pool</text>
</g>
<!-- Node4 -->
<g id="node4" class="node">
<title>Node4</title>
<g id="a_node4"><a xlink:href="unionfiftyone_degrees_pool_head.html" target="_top" xlink:title="The head of the stack used for pop and push operations.">
<polygon fill="none" stroke="black" points="101,-203.5 101,-222.5 241,-222.5 241,-203.5 101,-203.5"/>
<text text-anchor="middle" x="171" y="-210.5" font-family="Helvetica,sans-Serif" font-size="10.00">fiftyoneDegreesPoolHead</text>
</a>
</g>
</g>
<!-- Node4&#45;&gt;Node3 -->
<g id="edge5" class="edge">
<title>Node4&#45;&gt;Node3</title>
<path fill="none" stroke="#9a32cd" stroke-dasharray="5,2" d="M171,-193.04C171,-180.67 171,-165.12 171,-155.63"/>
<polygon fill="#9a32cd" stroke="#9a32cd" points="167.5,-193.23 171,-203.23 174.5,-193.23 167.5,-193.23"/>
<text text-anchor="middle" x="185" y="-177" font-family="Helvetica,sans-Serif" font-size="10.00"> head</text>
</g>
<!-- Node5&#45;&gt;Node3 -->
<g id="edge6" class="edge">
<title>Node5&#45;&gt;Node3</title>
<path fill="none" stroke="#9a32cd" stroke-dasharray="5,2" d="M210.14,-96.9C206.44,-103.74 201.87,-111.46 197,-118 192.1,-124.58 185.73,-131.22 180.52,-136.27"/>
<polygon fill="#9a32cd" stroke="#9a32cd" points="213.38,-98.24 214.87,-87.75 207.17,-95.03 213.38,-98.24"/>
<text text-anchor="middle" x="219" y="-110" font-family="Helvetica,sans-Serif" font-size="10.00"> stack</text>
</g>
<!-- Node6 -->
<g id="node6" class="node">
<title>Node6</title>
<g id="a_node6"><a xlink:href="structfiftyone_degrees_collection.html" target="_top" xlink:title="All the shared methods and fields required by file, memory and cached collections.">
<polygon fill="none" stroke="black" points="305.5,-68.5 305.5,-87.5 448.5,-87.5 448.5,-68.5 305.5,-68.5"/>
<text text-anchor="middle" x="377" y="-75.5" font-family="Helvetica,sans-Serif" font-size="10.00">fiftyoneDegreesCollection</text>
</a>
</g>
</g>
<!-- Node6&#45;&gt;Node1 -->
<g id="edge8" class="edge">
<title>Node6&#45;&gt;Node1</title>
<path fill="none" stroke="#9a32cd" stroke-dasharray="5,2" d="M342.58,-65.04C304.74,-51.9 244.91,-31.12 211.54,-19.53"/>
<polygon fill="#9a32cd" stroke="#9a32cd" points="341.57,-68.4 352.16,-68.37 343.86,-61.78 341.57,-68.4"/>
<text text-anchor="middle" x="319.5" y="-41" font-family="Helvetica,sans-Serif" font-size="10.00"> collection</text>
</g>
<!-- Node6&#45;&gt;Node6 -->
<g id="edge12" class="edge">
<title>Node6&#45;&gt;Node6</title>
<path fill="none" stroke="#9a32cd" stroke-dasharray="5,2" d="M458.61,-82.41C463.54,-81.36 466.5,-79.89 466.5,-78 466.5,-75.04 459.29,-73.12 448.63,-72.22"/>
<polygon fill="#9a32cd" stroke="#9a32cd" points="458.06,-78.96 448.63,-83.78 459.01,-85.89 458.06,-78.96"/>
<text text-anchor="middle" x="502.5" y="-81" font-family="Helvetica,sans-Serif" font-size="10.00"> freeCollection</text>
<text text-anchor="middle" x="502.5" y="-70" font-family="Helvetica,sans-Serif" font-size="10.00">get</text>
</g>
<!-- Node7 -->
<g id="node7" class="node">
<title>Node7</title>
<g id="a_node7"><a xlink:href="structfiftyone_degrees_collection_item.html" target="_top" xlink:title="Used to store a handle to the underlying item that could be used to release the item when it&#39;s finish...">
<polygon fill="none" stroke="black" points="368.5,-0.5 368.5,-19.5 533.5,-19.5 533.5,-0.5 368.5,-0.5"/>
<text text-anchor="middle" x="451" y="-7.5" font-family="Helvetica,sans-Serif" font-size="10.00">fiftyoneDegreesCollectionItem</text>
</a>
</g>
</g>
<!-- Node6&#45;&gt;Node7 -->
<g id="edge10" class="edge">
<title>Node6&#45;&gt;Node7</title>
<path fill="none" stroke="#9a32cd" stroke-dasharray="5,2" d="M370.8,-58.37C369.64,-51.42 369.88,-43.82 374,-38 380.06,-29.45 389.06,-23.58 398.78,-19.57"/>
<polygon fill="#9a32cd" stroke="#9a32cd" points="367.5,-59.6 373.4,-68.4 374.27,-57.84 367.5,-59.6"/>
<text text-anchor="middle" x="399.5" y="-41" font-family="Helvetica,sans-Serif" font-size="10.00"> collection</text>
</g>
<!-- Node7&#45;&gt;Node6 -->
<g id="edge9" class="edge">
<title>Node7&#45;&gt;Node6</title>
<path fill="none" stroke="#9a32cd" stroke-dasharray="5,2" d="M443.18,-29.03C439.58,-35.87 434.81,-43.37 429,-49 420.46,-57.28 408.98,-63.8 398.98,-68.47"/>
<polygon fill="#9a32cd" stroke="#9a32cd" points="446.46,-30.29 447.6,-19.76 440.14,-27.28 446.46,-30.29"/>
<text text-anchor="middle" x="458" y="-41" font-family="Helvetica,sans-Serif" font-size="10.00"> release</text>
</g>
<!-- Node8 -->
<g id="node8" class="node">
<title>Node8</title>
<g id="a_node8"><a xlink:href="structfiftyone_degrees_data.html" target="_top" xlink:title="Data structure used for reusing memory which may have been allocated in a previous operation.">
<polygon fill="none" stroke="black" points="556.5,-68.5 556.5,-87.5 673.5,-87.5 673.5,-68.5 556.5,-68.5"/>
<text text-anchor="middle" x="615" y="-75.5" font-family="Helvetica,sans-Serif" font-size="10.00">fiftyoneDegreesData</text>
</a>
</g>
</g>
<!-- Node8&#45;&gt;Node7 -->
<g id="edge11" class="edge">
<title>Node8&#45;&gt;Node7</title>
<path fill="none" stroke="#9a32cd" stroke-dasharray="5,2" d="M584.03,-64.54C551.31,-51.37 500.62,-30.97 472.19,-19.53"/>
<polygon fill="#9a32cd" stroke="#9a32cd" points="582.98,-67.89 593.56,-68.37 585.59,-61.39 582.98,-67.89"/>
<text text-anchor="middle" x="555.5" y="-41" font-family="Helvetica,sans-Serif" font-size="10.00"> data</text>
</g>
</g>
</svg>
