<?xml version="1.0" encoding="UTF-8" standalone="no"?>
<!DOCTYPE svg PUBLIC "-//W3C//DTD SVG 1.1//EN"
 "http://www.w3.org/Graphics/SVG/1.1/DTD/svg11.dtd">
<!-- Generated by graphviz version 2.43.0 (0)
 -->
<!-- Title: fiftyoneDegreesCollectionItem Pages: 1 -->
<svg width="252pt" height="164pt"
 viewBox="0.00 0.00 252.00 164.00" xmlns="http://www.w3.org/2000/svg" xmlns:xlink="http://www.w3.org/1999/xlink">
<g id="graph0" class="graph" transform="scale(1 1) rotate(0) translate(4 160)">
<title>fiftyoneDegreesCollectionItem</title>
<!-- Node1 -->
<g id="node1" class="node">
<title>Node1</title>
<g id="a_node1"><a xlink:title="Used to store a handle to the underlying item that could be used to release the item when it&#39;s finish...">
<polygon fill="#bfbfbf" stroke="black" points="0,-69.5 0,-88.5 165,-88.5 165,-69.5 0,-69.5"/>
<text text-anchor="middle" x="82.5" y="-76.5" font-family="Helvetica,sans-Serif" font-size="10.00">fiftyoneDegreesCollectionItem</text>
</a>
</g>
</g>
<!-- Node2 -->
<g id="node2" class="node">
<title>Node2</title>
<g id="a_node2"><a xlink:href="structfiftyone_degrees_collection.html" target="_top" xlink:title="All the shared methods and fields required by file, memory and cached collections.">
<polygon fill="none" stroke="black" points="11,-1.5 11,-20.5 154,-20.5 154,-1.5 11,-1.5"/>
<text text-anchor="middle" x="82.5" y="-8.5" font-family="Helvetica,sans-Serif" font-size="10.00">fiftyoneDegreesCollection</text>
</a>
</g>
</g>
<!-- Node1&#45;&gt;Node2 -->
<g id="edge2" class="edge">
<title>Node1&#45;&gt;Node2</title>
<path fill="none" stroke="#9a32cd" stroke-dasharray="5,2" d="M57.78,-63.52C49.99,-56.99 44.36,-48.77 48.5,-40 52.35,-31.84 59.88,-25.25 66.87,-20.52"/>
<polygon fill="#9a32cd" stroke="#9a32cd" points="55.85,-66.45 66.01,-69.46 59.94,-60.77 55.85,-66.45"/>
<text text-anchor="middle" x="68.5" y="-43" font-family="Helvetica,sans-Serif" font-size="10.00"> release</text>
</g>
<!-- Node2&#45;&gt;Node1 -->
<g id="edge1" class="edge">
<title>Node2&#45;&gt;Node1</title>
<path fill="none" stroke="#9a32cd" stroke-dasharray="5,2" d="M90.57,-30.4C92.51,-36.86 93.72,-44.21 92.5,-51 91.37,-57.3 88.87,-64.05 86.65,-69.22"/>
<polygon fill="#9a32cd" stroke="#9a32cd" points="93.68,-28.73 86.9,-20.59 87.13,-31.19 93.68,-28.73"/>
<text text-anchor="middle" x="118" y="-43" font-family="Helvetica,sans-Serif" font-size="10.00"> collection</text>
</g>
<!-- Node2&#45;&gt;Node2 -->
<g id="edge3" class="edge">
<title>Node2&#45;&gt;Node2</title>
<path fill="none" stroke="#9a32cd" stroke-dasharray="5,2" d="M164.11,-15.41C169.04,-14.36 172,-12.89 172,-11 172,-8.04 164.79,-6.12 154.13,-5.22"/>
<polygon fill="#9a32cd" stroke="#9a32cd" points="163.56,-11.96 154.13,-16.78 164.51,-18.89 163.56,-11.96"/>
<text text-anchor="middle" x="208" y="-14" font-family="Helvetica,sans-Serif" font-size="10.00"> freeCollection</text>
<text text-anchor="middle" x="208" y="-3" font-family="Helvetica,sans-Serif" font-size="10.00">get</text>
</g>
<!-- Node3 -->
<g id="node3" class="node">
<title>Node3</title>
<g id="a_node3"><a xlink:href="structfiftyone_degrees_data.html" target="_top" xlink:title="Data structure used for reusing memory which may have been allocated in a previous operation.">
<polygon fill="none" stroke="black" points="24,-136.5 24,-155.5 141,-155.5 141,-136.5 24,-136.5"/>
<text text-anchor="middle" x="82.5" y="-143.5" font-family="Helvetica,sans-Serif" font-size="10.00">fiftyoneDegreesData</text>
</a>
</g>
</g>
<!-- Node3&#45;&gt;Node1 -->
<g id="edge4" class="edge">
<title>Node3&#45;&gt;Node1</title>
<path fill="none" stroke="#9a32cd" stroke-dasharray="5,2" d="M82.5,-126.04C82.5,-113.67 82.5,-98.12 82.5,-88.63"/>
<polygon fill="#9a32cd" stroke="#9a32cd" points="79,-126.23 82.5,-136.23 86,-126.23 79,-126.23"/>
<text text-anchor="middle" x="95" y="-110" font-family="Helvetica,sans-Serif" font-size="10.00"> data</text>
</g>
</g>
</svg>
