<?xml version="1.0" encoding="UTF-8" standalone="no"?>
<!DOCTYPE svg PUBLIC "-//W3C//DTD SVG 1.1//EN"
 "http://www.w3.org/Graphics/SVG/1.1/DTD/svg11.dtd">
<!-- Generated by graphviz version 2.43.0 (0)
 -->
<!-- Title: fiftyoneDegreesCollectionCache Pages: 1 -->
<svg width="841pt" height="301pt"
 viewBox="0.00 0.00 841.00 300.51" xmlns="http://www.w3.org/2000/svg" xmlns:xlink="http://www.w3.org/1999/xlink">
<g id="graph0" class="graph" transform="scale(1 1) rotate(0) translate(4 296.51)">
<title>fiftyoneDegreesCollectionCache</title>
<!-- Node1 -->
<g id="node1" class="node">
<title>Node1</title>
<g id="a_node1"><a xlink:title="Type of collection where items are cached as they are used.">
<polygon fill="#bfbfbf" stroke="black" points="687,-180.51 687,-210.51 830,-210.51 830,-180.51 687,-180.51"/>
<text text-anchor="start" x="695" y="-198.51" font-family="Helvetica,sans-Serif" font-size="10.00">fiftyoneDegreesCollection</text>
<text text-anchor="middle" x="758.5" y="-187.51" font-family="Helvetica,sans-Serif" font-size="10.00">Cache</text>
</a>
</g>
</g>
<!-- Node2 -->
<g id="node2" class="node">
<title>Node2</title>
<g id="a_node2"><a xlink:href="structfiftyone_degrees_cache.html" target="_top" xlink:title="Cache structure to store the root of the red black tree and a list of allocated cache nodes.">
<polygon fill="none" stroke="black" points="228.5,-111.01 228.5,-130.01 352.5,-130.01 352.5,-111.01 228.5,-111.01"/>
<text text-anchor="middle" x="290.5" y="-118.01" font-family="Helvetica,sans-Serif" font-size="10.00">fiftyoneDegreesCache</text>
</a>
</g>
</g>
<!-- Node2&#45;&gt;Node1 -->
<g id="edge1" class="edge">
<title>Node2&#45;&gt;Node1</title>
<path fill="none" stroke="#9a32cd" stroke-dasharray="5,2" d="M361.11,-131.71C448.84,-145.83 598.79,-169.97 686.96,-184.16"/>
<polygon fill="#9a32cd" stroke="#9a32cd" points="361.42,-128.22 350.99,-130.08 360.31,-135.13 361.42,-128.22"/>
<text text-anchor="middle" x="536" y="-174.51" font-family="Helvetica,sans-Serif" font-size="10.00"> cache</text>
</g>
<!-- Node6 -->
<g id="node6" class="node">
<title>Node6</title>
<g id="a_node6"><a xlink:href="structfiftyone_degrees_cache_shard.html" target="_top" xlink:title="Cache shard structure used to enable concurrent access to the cache.">
<polygon fill="none" stroke="black" points="460,-77.01 460,-96.01 612,-96.01 612,-77.01 460,-77.01"/>
<text text-anchor="middle" x="536" y="-84.01" font-family="Helvetica,sans-Serif" font-size="10.00">fiftyoneDegreesCacheShard</text>
</a>
</g>
</g>
<!-- Node2&#45;&gt;Node6 -->
<g id="edge11" class="edge">
<title>Node2&#45;&gt;Node6</title>
<path fill="none" stroke="#9a32cd" stroke-dasharray="5,2" d="M362.6,-110.58C395.37,-106.01 434.1,-100.6 466.54,-96.07"/>
<polygon fill="#9a32cd" stroke="#9a32cd" points="362.05,-107.12 352.63,-111.97 363.02,-114.06 362.05,-107.12"/>
<text text-anchor="middle" x="416.5" y="-110.51" font-family="Helvetica,sans-Serif" font-size="10.00"> cache</text>
</g>
<!-- Node3 -->
<g id="node3" class="node">
<title>Node3</title>
<g id="a_node3"><a xlink:href="structfiftyone_degrees_cache_node.html" target="_top" xlink:title="Cache node structure used for storing data in the cache along with its key.">
<polygon fill="none" stroke="black" points="684,-70.01 684,-89.01 833,-89.01 833,-70.01 684,-70.01"/>
<text text-anchor="middle" x="758.5" y="-77.01" font-family="Helvetica,sans-Serif" font-size="10.00">fiftyoneDegreesCacheNode</text>
</a>
</g>
</g>
<!-- Node3&#45;&gt;Node2 -->
<g id="edge2" class="edge">
<title>Node3&#45;&gt;Node2</title>
<path fill="none" stroke="#9a32cd" stroke-dasharray="5,2" d="M703.45,-68.08C643.64,-57.11 544.52,-43.93 460,-56.51 402.12,-65.12 338.89,-95.3 309.01,-110.94"/>
<polygon fill="#9a32cd" stroke="#9a32cd" points="702.95,-71.55 713.43,-69.95 704.25,-64.67 702.95,-71.55"/>
<text text-anchor="middle" x="536" y="-59.51" font-family="Helvetica,sans-Serif" font-size="10.00"> nodes</text>
</g>
<!-- Node3&#45;&gt;Node3 -->
<g id="edge3" class="edge">
<title>Node3&#45;&gt;Node3</title>
<path fill="none" stroke="#9a32cd" stroke-dasharray="5,2" d="M738.13,-98.91C739.49,-103.82 746.28,-107.51 758.5,-107.51 778.05,-107.51 783.7,-98.07 775.45,-89.27"/>
<polygon fill="#9a32cd" stroke="#9a32cd" points="741.51,-99.86 741.55,-89.27 734.91,-97.52 741.51,-99.86"/>
<text text-anchor="middle" x="758.5" y="-121.51" font-family="Helvetica,sans-Serif" font-size="10.00"> listPrevious</text>
<text text-anchor="middle" x="758.5" y="-110.51" font-family="Helvetica,sans-Serif" font-size="10.00">listNext</text>
</g>
<!-- Node3&#45;&gt;Node6 -->
<g id="edge9" class="edge">
<title>Node3&#45;&gt;Node6</title>
<path fill="none" stroke="#9a32cd" stroke-dasharray="5,2" d="M682.86,-90.11C677.17,-90.67 671.5,-91.15 666,-91.51 648.56,-92.65 629.77,-92.63 612.07,-92.05"/>
<polygon fill="#9a32cd" stroke="#9a32cd" points="683.54,-93.56 693.12,-89.02 682.8,-86.6 683.54,-93.56"/>
<text text-anchor="middle" x="648" y="-117.51" font-family="Helvetica,sans-Serif" font-size="10.00"> last</text>
<text text-anchor="middle" x="648" y="-106.51" font-family="Helvetica,sans-Serif" font-size="10.00">first</text>
<text text-anchor="middle" x="648" y="-95.51" font-family="Helvetica,sans-Serif" font-size="10.00">nodes</text>
</g>
<!-- Node4 -->
<g id="node4" class="node">
<title>Node4</title>
<g id="a_node4"><a xlink:href="structfiftyone_degrees_tree_node.html" target="_top" xlink:title="Node structure defining a single node in the tree.">
<polygon fill="none" stroke="black" points="0,-8.01 0,-27.01 140,-27.01 140,-8.01 0,-8.01"/>
<text text-anchor="middle" x="70" y="-15.01" font-family="Helvetica,sans-Serif" font-size="10.00">fiftyoneDegreesTreeNode</text>
</a>
</g>
</g>
<!-- Node4&#45;&gt;Node3 -->
<g id="edge4" class="edge">
<title>Node4&#45;&gt;Node3</title>
<path fill="none" stroke="#9a32cd" stroke-dasharray="5,2" d="M150.29,-8.02C169.17,-6.15 189.28,-4.46 208,-3.51 412.55,6.92 466.1,-9.91 666,-54.51 685.93,-58.96 708.02,-64.96 725.5,-69.97"/>
<polygon fill="#9a32cd" stroke="#9a32cd" points="149.83,-4.55 140.24,-9.05 150.54,-11.51 149.83,-4.55"/>
<text text-anchor="middle" x="416.5" y="-12.51" font-family="Helvetica,sans-Serif" font-size="10.00"> tree</text>
</g>
<!-- Node4&#45;&gt;Node4 -->
<g id="edge5" class="edge">
<title>Node4&#45;&gt;Node4</title>
<path fill="none" stroke="#9a32cd" stroke-dasharray="5,2" d="M50.74,-36.91C52.03,-41.82 58.45,-45.51 70,-45.51 88.48,-45.51 93.83,-36.07 86.03,-27.27"/>
<polygon fill="#9a32cd" stroke="#9a32cd" points="54.11,-37.86 53.97,-27.27 47.48,-35.64 54.11,-37.86"/>
<text text-anchor="middle" x="70" y="-70.51" font-family="Helvetica,sans-Serif" font-size="10.00"> right</text>
<text text-anchor="middle" x="70" y="-59.51" font-family="Helvetica,sans-Serif" font-size="10.00">left</text>
<text text-anchor="middle" x="70" y="-48.51" font-family="Helvetica,sans-Serif" font-size="10.00">parent</text>
</g>
<!-- Node5 -->
<g id="node5" class="node">
<title>Node5</title>
<g id="a_node5"><a xlink:href="structfiftyone_degrees_tree_root.html" target="_top" xlink:title="Tree root structure defining the beginning of the tree.">
<polygon fill="none" stroke="black" points="222,-13.01 222,-32.01 359,-32.01 359,-13.01 222,-13.01"/>
<text text-anchor="middle" x="290.5" y="-20.01" font-family="Helvetica,sans-Serif" font-size="10.00">fiftyoneDegreesTreeRoot</text>
</a>
</g>
</g>
<!-- Node4&#45;&gt;Node5 -->
<g id="edge7" class="edge">
<title>Node4&#45;&gt;Node5</title>
<path fill="none" stroke="#9a32cd" stroke-dasharray="5,2" d="M150.36,-14.66C152.94,-14.6 155.49,-14.55 158,-14.51 172.22,-14.26 175.79,-13.94 190,-14.51 200.3,-14.92 211.19,-15.58 221.84,-16.34"/>
<polygon fill="#9a32cd" stroke="#9a32cd" points="150.24,-11.16 140.33,-14.9 150.41,-18.16 150.24,-11.16"/>
<text text-anchor="middle" x="174" y="-28.51" font-family="Helvetica,sans-Serif" font-size="10.00"> root</text>
<text text-anchor="middle" x="174" y="-17.51" font-family="Helvetica,sans-Serif" font-size="10.00">empty</text>
</g>
<!-- Node5&#45;&gt;Node4 -->
<g id="edge6" class="edge">
<title>Node5&#45;&gt;Node4</title>
<path fill="none" stroke="#9a32cd" stroke-dasharray="5,2" d="M246.22,-34.25C220.58,-39.75 187.45,-44.34 158,-40.51 138.17,-37.93 116.42,-32.18 99.63,-27.08"/>
<polygon fill="#9a32cd" stroke="#9a32cd" points="247.03,-37.65 256.01,-32.02 245.48,-30.82 247.03,-37.65"/>
<text text-anchor="middle" x="174" y="-45.51" font-family="Helvetica,sans-Serif" font-size="10.00"> root</text>
</g>
<!-- Node5&#45;&gt;Node6 -->
<g id="edge10" class="edge">
<title>Node5&#45;&gt;Node6</title>
<path fill="none" stroke="#9a32cd" stroke-dasharray="5,2" d="M337.56,-34.62C384.29,-46.9 455.69,-65.66 498.61,-76.94"/>
<polygon fill="#9a32cd" stroke="#9a32cd" points="338.25,-31.18 327.69,-32.02 336.47,-37.95 338.25,-31.18"/>
<text text-anchor="middle" x="416.5" y="-63.51" font-family="Helvetica,sans-Serif" font-size="10.00"> root</text>
</g>
<!-- Node6&#45;&gt;Node2 -->
<g id="edge13" class="edge">
<title>Node6&#45;&gt;Node2</title>
<path fill="none" stroke="#9a32cd" stroke-dasharray="5,2" d="M449.8,-80.98C430.37,-81.08 409.89,-82.28 391,-85.51 362.84,-90.32 332.05,-102.26 312.3,-110.86"/>
<polygon fill="#9a32cd" stroke="#9a32cd" points="449.84,-84.48 459.86,-81.02 449.87,-77.48 449.84,-84.48"/>
<text text-anchor="middle" x="416.5" y="-88.51" font-family="Helvetica,sans-Serif" font-size="10.00"> shards</text>
</g>
<!-- Node6&#45;&gt;Node3 -->
<g id="edge8" class="edge">
<title>Node6&#45;&gt;Node3</title>
<path fill="none" stroke="#9a32cd" stroke-dasharray="5,2" d="M622.26,-80.82C624.87,-80.7 627.45,-80.6 630,-80.51 647.48,-79.88 666.31,-79.54 683.99,-79.38"/>
<polygon fill="#9a32cd" stroke="#9a32cd" points="621.93,-77.33 612.1,-81.3 622.26,-84.32 621.93,-77.33"/>
<text text-anchor="middle" x="648" y="-83.51" font-family="Helvetica,sans-Serif" font-size="10.00"> shard</text>
</g>
<!-- Node7 -->
<g id="node7" class="node">
<title>Node7</title>
<g id="a_node7"><a xlink:href="structfiftyone_degrees_data.html" target="_top" xlink:title="Data structure used for reusing memory which may have been allocated in a previous operation.">
<polygon fill="none" stroke="black" points="11.5,-184.01 11.5,-203.01 128.5,-203.01 128.5,-184.01 11.5,-184.01"/>
<text text-anchor="middle" x="70" y="-191.01" font-family="Helvetica,sans-Serif" font-size="10.00">fiftyoneDegreesData</text>
</a>
</g>
</g>
<!-- Node7&#45;&gt;Node2 -->
<g id="edge14" class="edge">
<title>Node7&#45;&gt;Node2</title>
<path fill="none" stroke="#9a32cd" stroke-dasharray="5,2" d="M109.18,-180.75C152.47,-166.29 222.08,-143.04 260.93,-130.05"/>
<polygon fill="#9a32cd" stroke="#9a32cd" points="107.94,-177.48 99.57,-183.97 110.16,-184.12 107.94,-177.48"/>
<text text-anchor="middle" x="174" y="-167.51" font-family="Helvetica,sans-Serif" font-size="10.00"> load</text>
</g>
<!-- Node7&#45;&gt;Node3 -->
<g id="edge12" class="edge">
<title>Node7&#45;&gt;Node3</title>
<path fill="none" stroke="#9a32cd" stroke-dasharray="5,2" d="M138.78,-196.52C263.86,-201.29 526.06,-207.42 612,-179.51 670.3,-160.57 726.31,-110.19 748.03,-89.05"/>
<polygon fill="#9a32cd" stroke="#9a32cd" points="138.69,-193.01 128.56,-196.12 138.41,-200.01 138.69,-193.01"/>
<text text-anchor="middle" x="416.5" y="-203.51" font-family="Helvetica,sans-Serif" font-size="10.00"> data</text>
</g>
<!-- Node9 -->
<g id="node9" class="node">
<title>Node9</title>
<g id="a_node9"><a xlink:href="structfiftyone_degrees_collection_item.html" target="_top" xlink:title="Used to store a handle to the underlying item that could be used to release the item when it&#39;s finish...">
<polygon fill="none" stroke="black" points="208,-222.01 208,-241.01 373,-241.01 373,-222.01 208,-222.01"/>
<text text-anchor="middle" x="290.5" y="-229.01" font-family="Helvetica,sans-Serif" font-size="10.00">fiftyoneDegreesCollectionItem</text>
</a>
</g>
</g>
<!-- Node7&#45;&gt;Node9 -->
<g id="edge18" class="edge">
<title>Node7&#45;&gt;Node9</title>
<path fill="none" stroke="#9a32cd" stroke-dasharray="5,2" d="M135.84,-204.79C167.27,-210.25 204.62,-216.75 234.62,-221.97"/>
<polygon fill="#9a32cd" stroke="#9a32cd" points="136.31,-201.31 125.85,-203.05 135.11,-208.21 136.31,-201.31"/>
<text text-anchor="middle" x="174" y="-216.51" font-family="Helvetica,sans-Serif" font-size="10.00"> data</text>
</g>
<!-- Node8 -->
<g id="node8" class="node">
<title>Node8</title>
<g id="a_node8"><a xlink:href="structfiftyone_degrees_collection.html" target="_top" xlink:title="All the shared methods and fields required by file, memory and cached collections.">
<polygon fill="none" stroke="black" points="464.5,-222.01 464.5,-241.01 607.5,-241.01 607.5,-222.01 464.5,-222.01"/>
<text text-anchor="middle" x="536" y="-229.01" font-family="Helvetica,sans-Serif" font-size="10.00">fiftyoneDegreesCollection</text>
</a>
</g>
</g>
<!-- Node8&#45;&gt;Node1 -->
<g id="edge15" class="edge">
<title>Node8&#45;&gt;Node1</title>
<path fill="none" stroke="#9a32cd" stroke-dasharray="5,2" d="M605.31,-220.36C631.18,-216.13 660.66,-211.32 686.75,-207.06"/>
<polygon fill="#9a32cd" stroke="#9a32cd" points="604.53,-216.94 595.22,-222 605.66,-223.85 604.53,-216.94"/>
<text text-anchor="middle" x="648" y="-218.51" font-family="Helvetica,sans-Serif" font-size="10.00"> source</text>
</g>
<!-- Node8&#45;&gt;Node8 -->
<g id="edge19" class="edge">
<title>Node8&#45;&gt;Node8</title>
<path fill="none" stroke="#9a32cd" stroke-dasharray="5,2" d="M515.26,-250.91C516.65,-255.82 523.56,-259.51 536,-259.51 555.91,-259.51 561.66,-250.07 553.26,-241.27"/>
<polygon fill="#9a32cd" stroke="#9a32cd" points="518.64,-251.86 518.74,-241.27 512.05,-249.49 518.64,-251.86"/>
<text text-anchor="middle" x="536" y="-284.51" font-family="Helvetica,sans-Serif" font-size="10.00"> next</text>
<text text-anchor="middle" x="536" y="-273.51" font-family="Helvetica,sans-Serif" font-size="10.00">freeCollection</text>
<text text-anchor="middle" x="536" y="-262.51" font-family="Helvetica,sans-Serif" font-size="10.00">get</text>
</g>
<!-- Node8&#45;&gt;Node9 -->
<g id="edge17" class="edge">
<title>Node8&#45;&gt;Node9</title>
<path fill="none" stroke="#9a32cd" stroke-dasharray="5,2" d="M454.19,-240.73C450.07,-241.03 445.99,-241.3 442,-241.51 419.37,-242.72 413.64,-242.64 391,-241.51 385.19,-241.22 379.2,-240.83 373.17,-240.38"/>
<polygon fill="#9a32cd" stroke="#9a32cd" points="454.8,-244.19 464.48,-239.89 454.23,-237.21 454.8,-244.19"/>
<text text-anchor="middle" x="416.5" y="-244.51" font-family="Helvetica,sans-Serif" font-size="10.00"> collection</text>
</g>
<!-- Node9&#45;&gt;Node8 -->
<g id="edge16" class="edge">
<title>Node9&#45;&gt;Node8</title>
<path fill="none" stroke="#9a32cd" stroke-dasharray="5,2" d="M383.31,-230.55C385.9,-230.54 388.47,-230.52 391,-230.51 413.67,-230.4 419.33,-230.39 442,-230.51 449.27,-230.55 456.85,-230.6 464.42,-230.67"/>
<polygon fill="#9a32cd" stroke="#9a32cd" points="383.2,-227.05 373.22,-230.62 383.24,-234.05 383.2,-227.05"/>
<text text-anchor="middle" x="416.5" y="-233.51" font-family="Helvetica,sans-Serif" font-size="10.00"> release</text>
</g>
</g>
</svg>
