<?xml version="1.0" encoding="UTF-8" standalone="no"?>
<!DOCTYPE svg PUBLIC "-//W3C//DTD SVG 1.1//EN"
 "http://www.w3.org/Graphics/SVG/1.1/DTD/svg11.dtd">
<!-- Generated by graphviz version 2.43.0 (0)
 -->
<!-- Title: fiftyoneDegreesOverridePropertyArray Pages: 1 -->
<svg width="484pt" height="331pt"
 viewBox="0.00 0.00 484.00 331.00" xmlns="http://www.w3.org/2000/svg" xmlns:xlink="http://www.w3.org/1999/xlink">
<g id="graph0" class="graph" transform="scale(1 1) rotate(0) translate(4 327)">
<title>fiftyoneDegreesOverridePropertyArray</title>
<!-- Node1 -->
<g id="node1" class="node">
<title>Node1</title>
<g id="a_node1"><a xlink:title="Array of items of type fiftyoneDegreesOverrideProperty used to easily access and track the size of th...">
<polygon fill="#bfbfbf" stroke="black" points="29,-0.5 29,-30.5 206,-30.5 206,-0.5 29,-0.5"/>
<text text-anchor="start" x="37" y="-18.5" font-family="Helvetica,sans-Serif" font-size="10.00">fiftyoneDegreesOverrideProperty</text>
<text text-anchor="middle" x="117.5" y="-7.5" font-family="Helvetica,sans-Serif" font-size="10.00">Array</text>
</a>
</g>
</g>
<!-- Node2 -->
<g id="node2" class="node">
<title>Node2</title>
<g id="a_node2"><a xlink:href="structfiftyone_degrees_override_property.html" target="_top" xlink:title="Index and pointer to a property which can be overridden.">
<polygon fill="none" stroke="black" points="29,-78.5 29,-97.5 206,-97.5 206,-78.5 29,-78.5"/>
<text text-anchor="middle" x="117.5" y="-85.5" font-family="Helvetica,sans-Serif" font-size="10.00">fiftyoneDegreesOverrideProperty</text>
</a>
</g>
</g>
<!-- Node2&#45;&gt;Node1 -->
<g id="edge1" class="edge">
<title>Node2&#45;&gt;Node1</title>
<path fill="none" stroke="#9a32cd" stroke-dasharray="5,2" d="M117.5,-68.24C117.5,-56.41 117.5,-41.38 117.5,-30.58"/>
<polygon fill="#9a32cd" stroke="#9a32cd" points="114,-68.36 117.5,-78.36 121,-68.36 114,-68.36"/>
<text text-anchor="middle" x="133" y="-52" font-family="Helvetica,sans-Serif" font-size="10.00"> items</text>
</g>
<!-- Node3 -->
<g id="node3" class="node">
<title>Node3</title>
<g id="a_node3"><a xlink:href="structfiftyone_degrees_property_available.html" target="_top" xlink:title="Used to access the property item quickly without the need to search.">
<polygon fill="none" stroke="black" points="27.5,-152 27.5,-171 207.5,-171 207.5,-152 27.5,-152"/>
<text text-anchor="middle" x="117.5" y="-159" font-family="Helvetica,sans-Serif" font-size="10.00">fiftyoneDegreesPropertyAvailable</text>
</a>
</g>
</g>
<!-- Node3&#45;&gt;Node2 -->
<g id="edge2" class="edge">
<title>Node3&#45;&gt;Node2</title>
<path fill="none" stroke="#9a32cd" stroke-dasharray="5,2" d="M117.5,-141.59C117.5,-127.43 117.5,-108.7 117.5,-97.84"/>
<polygon fill="#9a32cd" stroke="#9a32cd" points="114,-141.73 117.5,-151.73 121,-141.73 114,-141.73"/>
<text text-anchor="middle" x="142" y="-119" font-family="Helvetica,sans-Serif" font-size="10.00"> available</text>
</g>
<!-- Node4 -->
<g id="node4" class="node">
<title>Node4</title>
<g id="a_node4"><a xlink:href="structfiftyone_degrees_evidence_property_index_array.html" target="_top" xlink:title="Array of items of type fiftyoneDegreesEvidencePropertyIndex used to easily access and track the size ...">
<polygon fill="none" stroke="black" points="0,-225.5 0,-255.5 179,-255.5 179,-225.5 0,-225.5"/>
<text text-anchor="start" x="8" y="-243.5" font-family="Helvetica,sans-Serif" font-size="10.00">fiftyoneDegreesEvidenceProperty</text>
<text text-anchor="middle" x="89.5" y="-232.5" font-family="Helvetica,sans-Serif" font-size="10.00">IndexArray</text>
</a>
</g>
</g>
<!-- Node4&#45;&gt;Node3 -->
<g id="edge3" class="edge">
<title>Node4&#45;&gt;Node3</title>
<path fill="none" stroke="#9a32cd" stroke-dasharray="5,2" d="M93.11,-215.32C94.44,-208.92 96.2,-202.1 98.5,-196 101.84,-187.11 107.32,-177.78 111.54,-171.23"/>
<polygon fill="#9a32cd" stroke="#9a32cd" points="89.61,-215.01 91.27,-225.48 96.5,-216.26 89.61,-215.01"/>
<text text-anchor="middle" x="147" y="-199" font-family="Helvetica,sans-Serif" font-size="10.00"> evidenceProperties</text>
</g>
<!-- Node5 -->
<g id="node5" class="node">
<title>Node5</title>
<g id="a_node5"><a xlink:href="structfiftyone_degrees_collection_item.html" target="_top" xlink:title="Used to store a handle to the underlying item that could be used to release the item when it&#39;s finish...">
<polygon fill="none" stroke="black" points="197,-231 197,-250 362,-250 362,-231 197,-231"/>
<text text-anchor="middle" x="279.5" y="-238" font-family="Helvetica,sans-Serif" font-size="10.00">fiftyoneDegreesCollectionItem</text>
</a>
</g>
</g>
<!-- Node5&#45;&gt;Node3 -->
<g id="edge4" class="edge">
<title>Node5&#45;&gt;Node3</title>
<path fill="none" stroke="#9a32cd" stroke-dasharray="5,2" d="M254.84,-226.13C238.22,-217.27 215.73,-205.57 195.5,-196 176.45,-186.99 154.34,-177.59 138.54,-171.05"/>
<polygon fill="#9a32cd" stroke="#9a32cd" points="253.41,-229.34 263.88,-230.98 256.72,-223.17 253.41,-229.34"/>
<text text-anchor="middle" x="232" y="-199" font-family="Helvetica,sans-Serif" font-size="10.00"> name</text>
</g>
<!-- Node6 -->
<g id="node6" class="node">
<title>Node6</title>
<g id="a_node6"><a xlink:href="structfiftyone_degrees_collection.html" target="_top" xlink:title="All the shared methods and fields required by file, memory and cached collections.">
<polygon fill="none" stroke="black" points="246,-152 246,-171 389,-171 389,-152 246,-152"/>
<text text-anchor="middle" x="317.5" y="-159" font-family="Helvetica,sans-Serif" font-size="10.00">fiftyoneDegreesCollection</text>
</a>
</g>
</g>
<!-- Node5&#45;&gt;Node6 -->
<g id="edge6" class="edge">
<title>Node5&#45;&gt;Node6</title>
<path fill="none" stroke="#9a32cd" stroke-dasharray="5,2" d="M271.74,-221.1C269.52,-213.05 268.63,-203.7 272.5,-196 278.01,-185.03 288.99,-176.75 298.73,-171.16"/>
<polygon fill="#9a32cd" stroke="#9a32cd" points="268.49,-222.42 275.11,-230.69 275.09,-220.1 268.49,-222.42"/>
<text text-anchor="middle" x="292.5" y="-199" font-family="Helvetica,sans-Serif" font-size="10.00"> release</text>
</g>
<!-- Node6&#45;&gt;Node5 -->
<g id="edge5" class="edge">
<title>Node6&#45;&gt;Node5</title>
<path fill="none" stroke="#9a32cd" stroke-dasharray="5,2" d="M320.37,-181.29C320.81,-189.53 320.18,-199.1 316.5,-207 311.8,-217.07 302.34,-225.3 294.15,-230.95"/>
<polygon fill="#9a32cd" stroke="#9a32cd" points="323.83,-180.73 319.28,-171.16 316.87,-181.48 323.83,-180.73"/>
<text text-anchor="middle" x="345" y="-199" font-family="Helvetica,sans-Serif" font-size="10.00"> collection</text>
</g>
<!-- Node6&#45;&gt;Node6 -->
<g id="edge7" class="edge">
<title>Node6&#45;&gt;Node6</title>
<path fill="none" stroke="#9a32cd" stroke-dasharray="5,2" d="M399.11,-166.69C404.04,-165.46 407,-163.73 407,-161.5 407,-158.02 399.79,-155.76 389.13,-154.7"/>
<polygon fill="#9a32cd" stroke="#9a32cd" points="398.44,-163.26 389.13,-168.3 399.56,-170.17 398.44,-163.26"/>
<text text-anchor="middle" x="441.5" y="-170" font-family="Helvetica,sans-Serif" font-size="10.00"> next</text>
<text text-anchor="middle" x="441.5" y="-159" font-family="Helvetica,sans-Serif" font-size="10.00">freeCollection</text>
<text text-anchor="middle" x="441.5" y="-148" font-family="Helvetica,sans-Serif" font-size="10.00">get</text>
</g>
<!-- Node7 -->
<g id="node7" class="node">
<title>Node7</title>
<g id="a_node7"><a xlink:href="structfiftyone_degrees_data.html" target="_top" xlink:title="Data structure used for reusing memory which may have been allocated in a previous operation.">
<polygon fill="none" stroke="black" points="221,-303.5 221,-322.5 338,-322.5 338,-303.5 221,-303.5"/>
<text text-anchor="middle" x="279.5" y="-310.5" font-family="Helvetica,sans-Serif" font-size="10.00">fiftyoneDegreesData</text>
</a>
</g>
</g>
<!-- Node7&#45;&gt;Node5 -->
<g id="edge8" class="edge">
<title>Node7&#45;&gt;Node5</title>
<path fill="none" stroke="#9a32cd" stroke-dasharray="5,2" d="M279.5,-292.94C279.5,-279.03 279.5,-260.82 279.5,-250.22"/>
<polygon fill="#9a32cd" stroke="#9a32cd" points="276,-293.36 279.5,-303.36 283,-293.36 276,-293.36"/>
<text text-anchor="middle" x="292" y="-277" font-family="Helvetica,sans-Serif" font-size="10.00"> data</text>
</g>
</g>
</svg>
