<?xml version="1.0" encoding="UTF-8" standalone="no"?>
<!DOCTYPE svg PUBLIC "-//W3C//DTD SVG 1.1//EN"
 "http://www.w3.org/Graphics/SVG/1.1/DTD/svg11.dtd">
<!-- Generated by graphviz version 2.43.0 (0)
 -->
<!-- Title: fiftyoneDegreesCollectionMemory Pages: 1 -->
<svg width="416pt" height="108pt"
 viewBox="0.00 0.00 416.00 108.00" xmlns="http://www.w3.org/2000/svg" xmlns:xlink="http://www.w3.org/1999/xlink">
<g id="graph0" class="graph" transform="scale(1 1) rotate(0) translate(4 104)">
<title>fiftyoneDegreesCollectionMemory</title>
<!-- Node1 -->
<g id="node1" class="node">
<title>Node1</title>
<g id="a_node1"><a xlink:title="Type of collection where the collection is held in continuous memory.">
<polygon fill="#bfbfbf" stroke="black" points="0,-0.5 0,-30.5 143,-30.5 143,-0.5 0,-0.5"/>
<text text-anchor="start" x="8" y="-18.5" font-family="Helvetica,sans-Serif" font-size="10.00">fiftyoneDegreesCollection</text>
<text text-anchor="middle" x="71.5" y="-7.5" font-family="Helvetica,sans-Serif" font-size="10.00">Memory</text>
</a>
</g>
</g>
<!-- Node2 -->
<g id="node2" class="node">
<title>Node2</title>
<g id="a_node2"><a xlink:href="structfiftyone_degrees_collection.html" target="_top" xlink:title="All the shared methods and fields required by file, memory and cached collections.">
<polygon fill="none" stroke="black" points="40,-79.5 40,-98.5 183,-98.5 183,-79.5 40,-79.5"/>
<text text-anchor="middle" x="111.5" y="-86.5" font-family="Helvetica,sans-Serif" font-size="10.00">fiftyoneDegreesCollection</text>
</a>
</g>
</g>
<!-- Node2&#45;&gt;Node1 -->
<g id="edge1" class="edge">
<title>Node2&#45;&gt;Node1</title>
<path fill="none" stroke="#9a32cd" stroke-dasharray="5,2" d="M89.17,-72.88C85.05,-69.12 81.2,-64.79 78.5,-60 73.47,-51.07 71.78,-39.57 71.32,-30.64"/>
<polygon fill="#9a32cd" stroke="#9a32cd" points="87.22,-75.8 97.2,-79.34 91.61,-70.34 87.22,-75.8"/>
<text text-anchor="middle" x="104" y="-52" font-family="Helvetica,sans-Serif" font-size="10.00"> collection</text>
</g>
<!-- Node2&#45;&gt;Node2 -->
<g id="edge5" class="edge">
<title>Node2&#45;&gt;Node2</title>
<path fill="none" stroke="#9a32cd" stroke-dasharray="5,2" d="M193.11,-93.41C198.04,-92.36 201,-90.89 201,-89 201,-86.04 193.79,-84.12 183.13,-83.22"/>
<polygon fill="#9a32cd" stroke="#9a32cd" points="192.56,-89.96 183.13,-94.78 193.51,-96.89 192.56,-89.96"/>
<text text-anchor="middle" x="237" y="-92" font-family="Helvetica,sans-Serif" font-size="10.00"> freeCollection</text>
<text text-anchor="middle" x="237" y="-81" font-family="Helvetica,sans-Serif" font-size="10.00">get</text>
</g>
<!-- Node3 -->
<g id="node3" class="node">
<title>Node3</title>
<g id="a_node3"><a xlink:href="structfiftyone_degrees_collection_item.html" target="_top" xlink:title="Used to store a handle to the underlying item that could be used to release the item when it&#39;s finish...">
<polygon fill="none" stroke="black" points="161,-6 161,-25 326,-25 326,-6 161,-6"/>
<text text-anchor="middle" x="243.5" y="-13" font-family="Helvetica,sans-Serif" font-size="10.00">fiftyoneDegreesCollectionItem</text>
</a>
</g>
</g>
<!-- Node2&#45;&gt;Node3 -->
<g id="edge3" class="edge">
<title>Node2&#45;&gt;Node3</title>
<path fill="none" stroke="#9a32cd" stroke-dasharray="5,2" d="M125.19,-71.68C132.37,-63.94 141.7,-55.09 151.5,-49 168.91,-38.18 190.41,-30.33 208.25,-25.05"/>
<polygon fill="#9a32cd" stroke="#9a32cd" points="122.32,-69.63 118.32,-79.44 127.57,-74.27 122.32,-69.63"/>
<text text-anchor="middle" x="177" y="-52" font-family="Helvetica,sans-Serif" font-size="10.00"> collection</text>
</g>
<!-- Node3&#45;&gt;Node2 -->
<g id="edge2" class="edge">
<title>Node3&#45;&gt;Node2</title>
<path fill="none" stroke="#9a32cd" stroke-dasharray="5,2" d="M232.67,-33.49C226.1,-42.55 216.97,-53.19 206.5,-60 192.66,-68.99 175.84,-75.18 160.22,-79.4"/>
<polygon fill="#9a32cd" stroke="#9a32cd" points="235.6,-35.4 238.34,-25.17 229.82,-31.46 235.6,-35.4"/>
<text text-anchor="middle" x="239.5" y="-52" font-family="Helvetica,sans-Serif" font-size="10.00"> release</text>
</g>
<!-- Node4 -->
<g id="node4" class="node">
<title>Node4</title>
<g id="a_node4"><a xlink:href="structfiftyone_degrees_data.html" target="_top" xlink:title="Data structure used for reusing memory which may have been allocated in a previous operation.">
<polygon fill="none" stroke="black" points="291,-79.5 291,-98.5 408,-98.5 408,-79.5 291,-79.5"/>
<text text-anchor="middle" x="349.5" y="-86.5" font-family="Helvetica,sans-Serif" font-size="10.00">fiftyoneDegreesData</text>
</a>
</g>
</g>
<!-- Node4&#45;&gt;Node3 -->
<g id="edge4" class="edge">
<title>Node4&#45;&gt;Node3</title>
<path fill="none" stroke="#9a32cd" stroke-dasharray="5,2" d="M328.02,-73.51C306.48,-58.98 274.05,-37.11 256.27,-25.12"/>
<polygon fill="#9a32cd" stroke="#9a32cd" points="326.25,-76.54 336.5,-79.23 330.17,-70.74 326.25,-76.54"/>
<text text-anchor="middle" x="318" y="-52" font-family="Helvetica,sans-Serif" font-size="10.00"> data</text>
</g>
</g>
</svg>
