<?xml version="1.0" encoding="UTF-8" standalone="no"?>
<!DOCTYPE svg PUBLIC "-//W3C//DTD SVG 1.1//EN"
 "http://www.w3.org/Graphics/SVG/1.1/DTD/svg11.dtd">
<!-- Generated by graphviz version 2.43.0 (0)
 -->
<!-- Title: fiftyoneDegreesOverrideProperty Pages: 1 -->
<svg width="487pt" height="242pt"
 viewBox="0.00 0.00 487.00 242.00" xmlns="http://www.w3.org/2000/svg" xmlns:xlink="http://www.w3.org/1999/xlink">
<g id="graph0" class="graph" transform="scale(1 1) rotate(0) translate(4 238)">
<title>fiftyoneDegreesOverrideProperty</title>
<!-- Node1 -->
<g id="node1" class="node">
<title>Node1</title>
<g id="a_node1"><a xlink:title="Index and pointer to a property which can be overridden.">
<polygon fill="#bfbfbf" stroke="black" points="29,-0.5 29,-19.5 206,-19.5 206,-0.5 29,-0.5"/>
<text text-anchor="middle" x="117.5" y="-7.5" font-family="Helvetica,sans-Serif" font-size="10.00">fiftyoneDegreesOverrideProperty</text>
</a>
</g>
</g>
<!-- Node2 -->
<g id="node2" class="node">
<title>Node2</title>
<g id="a_node2"><a xlink:href="structfiftyone_degrees_property_available.html" target="_top" xlink:title="Used to access the property item quickly without the need to search.">
<polygon fill="none" stroke="black" points="27.5,-68.5 27.5,-87.5 207.5,-87.5 207.5,-68.5 27.5,-68.5"/>
<text text-anchor="middle" x="117.5" y="-75.5" font-family="Helvetica,sans-Serif" font-size="10.00">fiftyoneDegreesPropertyAvailable</text>
</a>
</g>
</g>
<!-- Node2&#45;&gt;Node1 -->
<g id="edge1" class="edge">
<title>Node2&#45;&gt;Node1</title>
<path fill="none" stroke="#9a32cd" stroke-dasharray="5,2" d="M117.5,-58.04C117.5,-45.47 117.5,-29.56 117.5,-19.84"/>
<polygon fill="#9a32cd" stroke="#9a32cd" points="114,-58.37 117.5,-68.37 121,-58.37 114,-58.37"/>
<text text-anchor="middle" x="142" y="-41" font-family="Helvetica,sans-Serif" font-size="10.00"> available</text>
</g>
<!-- Node3 -->
<g id="node3" class="node">
<title>Node3</title>
<g id="a_node3"><a xlink:href="structfiftyone_degrees_evidence_property_index_array.html" target="_top" xlink:title="Array of items of type fiftyoneDegreesEvidencePropertyIndex used to easily access and track the size ...">
<polygon fill="none" stroke="black" points="0,-136.5 0,-166.5 179,-166.5 179,-136.5 0,-136.5"/>
<text text-anchor="start" x="8" y="-154.5" font-family="Helvetica,sans-Serif" font-size="10.00">fiftyoneDegreesEvidenceProperty</text>
<text text-anchor="middle" x="89.5" y="-143.5" font-family="Helvetica,sans-Serif" font-size="10.00">IndexArray</text>
</a>
</g>
</g>
<!-- Node3&#45;&gt;Node2 -->
<g id="edge2" class="edge">
<title>Node3&#45;&gt;Node2</title>
<path fill="none" stroke="#9a32cd" stroke-dasharray="5,2" d="M92.79,-126.18C94.12,-119.79 95.96,-113.01 98.5,-107 101.43,-100.07 106.18,-93.07 110.2,-87.81"/>
<polygon fill="#9a32cd" stroke="#9a32cd" points="89.28,-125.91 91,-136.37 96.17,-127.12 89.28,-125.91"/>
<text text-anchor="middle" x="147" y="-110" font-family="Helvetica,sans-Serif" font-size="10.00"> evidenceProperties</text>
</g>
<!-- Node4 -->
<g id="node4" class="node">
<title>Node4</title>
<g id="a_node4"><a xlink:href="structfiftyone_degrees_collection_item.html" target="_top" xlink:title="Used to store a handle to the underlying item that could be used to release the item when it&#39;s finish...">
<polygon fill="none" stroke="black" points="197,-142 197,-161 362,-161 362,-142 197,-142"/>
<text text-anchor="middle" x="279.5" y="-149" font-family="Helvetica,sans-Serif" font-size="10.00">fiftyoneDegreesCollectionItem</text>
</a>
</g>
</g>
<!-- Node4&#45;&gt;Node2 -->
<g id="edge3" class="edge">
<title>Node4&#45;&gt;Node2</title>
<path fill="none" stroke="#9a32cd" stroke-dasharray="5,2" d="M255.33,-136.89C238.76,-127.84 216.14,-116 195.5,-107 178.75,-99.7 159.42,-92.75 144.2,-87.6"/>
<polygon fill="#9a32cd" stroke="#9a32cd" points="253.87,-140.08 264.32,-141.86 257.26,-133.96 253.87,-140.08"/>
<text text-anchor="middle" x="235" y="-110" font-family="Helvetica,sans-Serif" font-size="10.00"> name</text>
</g>
<!-- Node5 -->
<g id="node5" class="node">
<title>Node5</title>
<g id="a_node5"><a xlink:href="structfiftyone_degrees_collection.html" target="_top" xlink:title="All the shared methods and fields required by file, memory and cached collections.">
<polygon fill="none" stroke="black" points="246,-68.5 246,-87.5 389,-87.5 389,-68.5 246,-68.5"/>
<text text-anchor="middle" x="317.5" y="-75.5" font-family="Helvetica,sans-Serif" font-size="10.00">fiftyoneDegreesCollection</text>
</a>
</g>
</g>
<!-- Node4&#45;&gt;Node5 -->
<g id="edge5" class="edge">
<title>Node4&#45;&gt;Node5</title>
<path fill="none" stroke="#9a32cd" stroke-dasharray="5,2" d="M271.6,-132.51C269.21,-124.3 268.22,-114.71 272.5,-107 277.33,-98.31 286.09,-91.97 294.61,-87.54"/>
<polygon fill="#9a32cd" stroke="#9a32cd" points="268.33,-133.76 275.08,-141.93 274.9,-131.34 268.33,-133.76"/>
<text text-anchor="middle" x="292.5" y="-110" font-family="Helvetica,sans-Serif" font-size="10.00"> release</text>
</g>
<!-- Node5&#45;&gt;Node4 -->
<g id="edge4" class="edge">
<title>Node5&#45;&gt;Node4</title>
<path fill="none" stroke="#9a32cd" stroke-dasharray="5,2" d="M320.03,-97.72C320.17,-104.4 319.41,-111.79 316.5,-118 311.79,-128.07 302.32,-136.29 294.14,-141.95"/>
<polygon fill="#9a32cd" stroke="#9a32cd" points="323.5,-97.18 319.17,-87.51 316.52,-97.77 323.5,-97.18"/>
<text text-anchor="middle" x="344" y="-110" font-family="Helvetica,sans-Serif" font-size="10.00"> collection</text>
</g>
<!-- Node5&#45;&gt;Node5 -->
<g id="edge6" class="edge">
<title>Node5&#45;&gt;Node5</title>
<path fill="none" stroke="#9a32cd" stroke-dasharray="5,2" d="M399.11,-82.41C404.04,-81.36 407,-79.89 407,-78 407,-75.04 399.79,-73.12 389.13,-72.22"/>
<polygon fill="#9a32cd" stroke="#9a32cd" points="398.56,-78.96 389.13,-83.78 399.51,-85.89 398.56,-78.96"/>
<text text-anchor="middle" x="443" y="-81" font-family="Helvetica,sans-Serif" font-size="10.00"> freeCollection</text>
<text text-anchor="middle" x="443" y="-70" font-family="Helvetica,sans-Serif" font-size="10.00">get</text>
</g>
<!-- Node6 -->
<g id="node6" class="node">
<title>Node6</title>
<g id="a_node6"><a xlink:href="structfiftyone_degrees_data.html" target="_top" xlink:title="Data structure used for reusing memory which may have been allocated in a previous operation.">
<polygon fill="none" stroke="black" points="221,-214.5 221,-233.5 338,-233.5 338,-214.5 221,-214.5"/>
<text text-anchor="middle" x="279.5" y="-221.5" font-family="Helvetica,sans-Serif" font-size="10.00">fiftyoneDegreesData</text>
</a>
</g>
</g>
<!-- Node6&#45;&gt;Node4 -->
<g id="edge7" class="edge">
<title>Node6&#45;&gt;Node4</title>
<path fill="none" stroke="#9a32cd" stroke-dasharray="5,2" d="M279.5,-203.94C279.5,-190.03 279.5,-171.82 279.5,-161.22"/>
<polygon fill="#9a32cd" stroke="#9a32cd" points="276,-204.36 279.5,-214.36 283,-204.36 276,-204.36"/>
<text text-anchor="middle" x="292" y="-188" font-family="Helvetica,sans-Serif" font-size="10.00"> data</text>
</g>
</g>
</svg>
