<?xml version="1.0" encoding="UTF-8" standalone="no"?>
<!DOCTYPE svg PUBLIC "-//W3C//DTD SVG 1.1//EN"
 "http://www.w3.org/Graphics/SVG/1.1/DTD/svg11.dtd">
<!-- Generated by graphviz version 2.43.0 (0)
 -->
<!-- Title: offlineProcessState Pages: 1 -->
<svg width="1251pt" height="313pt"
 viewBox="0.00 0.00 1251.00 312.50" xmlns="http://www.w3.org/2000/svg" xmlns:xlink="http://www.w3.org/1999/xlink">
<g id="graph0" class="graph" transform="scale(1 1) rotate(0) translate(4 308.5)">
<title>offlineProcessState</title>
<!-- Node1 -->
<g id="node1" class="node">
<title>Node1</title>
<g id="a_node1"><a xlink:title="State used for the offline processing operation.">
<polygon fill="#bfbfbf" stroke="black" points="1133,-203 1133,-222 1243,-222 1243,-203 1133,-203"/>
<text text-anchor="middle" x="1188" y="-210" font-family="Helvetica,sans-Serif" font-size="10.00">offlineProcessState</text>
</a>
</g>
</g>
<!-- Node2 -->
<g id="node2" class="node">
<title>Node2</title>
<g id="a_node2"><a xlink:href="structfiftyone_degrees_result_hash_array.html" target="_top" xlink:title="Array of items of type fiftyoneDegreesResultHash used to easily access and track the size of the arra...">
<polygon fill="none" stroke="black" points="911,-197.5 911,-227.5 1060,-227.5 1060,-197.5 911,-197.5"/>
<text text-anchor="start" x="919" y="-215.5" font-family="Helvetica,sans-Serif" font-size="10.00">fiftyoneDegreesResultHash</text>
<text text-anchor="middle" x="985.5" y="-204.5" font-family="Helvetica,sans-Serif" font-size="10.00">Array</text>
</a>
</g>
</g>
<!-- Node2&#45;&gt;Node1 -->
<g id="edge1" class="edge">
<title>Node2&#45;&gt;Node1</title>
<path fill="none" stroke="#9a32cd" stroke-dasharray="5,2" d="M1070.03,-212.5C1091.3,-212.5 1113.6,-212.5 1132.96,-212.5"/>
<polygon fill="#9a32cd" stroke="#9a32cd" points="1070.02,-209 1060.02,-212.5 1070.02,-216 1070.02,-209"/>
<text text-anchor="middle" x="1096.5" y="-215.5" font-family="Helvetica,sans-Serif" font-size="10.00"> results</text>
</g>
<!-- Node3 -->
<g id="node3" class="node">
<title>Node3</title>
<g id="a_node3"><a xlink:href="structfiftyone_degrees_list.html" target="_top" xlink:title="List structure which contains a list of collection items.">
<polygon fill="none" stroke="black" points="701.5,-253 701.5,-272 812.5,-272 812.5,-253 701.5,-253"/>
<text text-anchor="middle" x="757" y="-260" font-family="Helvetica,sans-Serif" font-size="10.00">fiftyoneDegreesList</text>
</a>
</g>
</g>
<!-- Node3&#45;&gt;Node2 -->
<g id="edge2" class="edge">
<title>Node3&#45;&gt;Node2</title>
<path fill="none" stroke="#9a32cd" stroke-dasharray="5,2" d="M810.99,-250.8C842.35,-243.88 882.41,-235.04 916.14,-227.59"/>
<polygon fill="#9a32cd" stroke="#9a32cd" points="810.15,-247.4 801.14,-252.98 811.66,-254.24 810.15,-247.4"/>
<text text-anchor="middle" x="875" y="-242.5" font-family="Helvetica,sans-Serif" font-size="10.00"> values</text>
</g>
<!-- Node4 -->
<g id="node4" class="node">
<title>Node4</title>
<g id="a_node4"><a xlink:href="structfiftyone_degrees_collection_item.html" target="_top" xlink:title="Used to store a handle to the underlying item that could be used to release the item when it&#39;s finish...">
<polygon fill="none" stroke="black" points="418.5,-219 418.5,-238 583.5,-238 583.5,-219 418.5,-219"/>
<text text-anchor="middle" x="501" y="-226" font-family="Helvetica,sans-Serif" font-size="10.00">fiftyoneDegreesCollectionItem</text>
</a>
</g>
</g>
<!-- Node4&#45;&gt;Node2 -->
<g id="edge17" class="edge">
<title>Node4&#45;&gt;Node2</title>
<path fill="none" stroke="#9a32cd" stroke-dasharray="5,2" d="M538.36,-241.43C558.24,-248.32 583.36,-256.74 606,-263.5 705.53,-293.19 737.67,-304.31 839,-281.5 884.82,-271.19 933.16,-244.69 960.98,-227.7"/>
<polygon fill="#9a32cd" stroke="#9a32cd" points="539.37,-238.07 528.77,-238.08 537.06,-244.68 539.37,-238.07"/>
<text text-anchor="middle" x="757" y="-296.5" font-family="Helvetica,sans-Serif" font-size="10.00"> propertyItem</text>
</g>
<!-- Node4&#45;&gt;Node3 -->
<g id="edge3" class="edge">
<title>Node4&#45;&gt;Node3</title>
<path fill="none" stroke="#9a32cd" stroke-dasharray="5,2" d="M583.28,-239.38C621.89,-244.55 667.02,-250.59 701.47,-255.2"/>
<polygon fill="#9a32cd" stroke="#9a32cd" points="583.47,-235.87 573.09,-238.02 582.54,-242.81 583.47,-235.87"/>
<text text-anchor="middle" x="631.5" y="-251.5" font-family="Helvetica,sans-Serif" font-size="10.00"> items</text>
</g>
<!-- Node5 -->
<g id="node5" class="node">
<title>Node5</title>
<g id="a_node5"><a xlink:href="structfiftyone_degrees_collection.html" target="_top" xlink:title="All the shared methods and fields required by file, memory and cached collections.">
<polygon fill="none" stroke="black" points="685.5,-164 685.5,-183 828.5,-183 828.5,-164 685.5,-164"/>
<text text-anchor="middle" x="757" y="-171" font-family="Helvetica,sans-Serif" font-size="10.00">fiftyoneDegreesCollection</text>
</a>
</g>
</g>
<!-- Node4&#45;&gt;Node5 -->
<g id="edge5" class="edge">
<title>Node4&#45;&gt;Node5</title>
<path fill="none" stroke="#9a32cd" stroke-dasharray="5,2" d="M593.91,-218.25C614.79,-215.15 636.77,-211.27 657,-206.5 682.92,-200.39 711.72,-190.42 731.54,-183.03"/>
<polygon fill="#9a32cd" stroke="#9a32cd" points="593.16,-214.82 583.76,-219.71 594.16,-221.75 593.16,-214.82"/>
<text text-anchor="middle" x="631.5" y="-218.5" font-family="Helvetica,sans-Serif" font-size="10.00"> release</text>
</g>
<!-- Node5&#45;&gt;Node4 -->
<g id="edge4" class="edge">
<title>Node5&#45;&gt;Node4</title>
<path fill="none" stroke="#9a32cd" stroke-dasharray="5,2" d="M675.15,-182.91C652.63,-186.2 628.24,-190.38 606,-195.5 579.05,-201.71 549.01,-211.57 528.18,-218.9"/>
<polygon fill="#9a32cd" stroke="#9a32cd" points="675.95,-186.34 685.36,-181.47 674.96,-179.41 675.95,-186.34"/>
<text text-anchor="middle" x="631.5" y="-198.5" font-family="Helvetica,sans-Serif" font-size="10.00"> collection</text>
</g>
<!-- Node5&#45;&gt;Node5 -->
<g id="edge6" class="edge">
<title>Node5&#45;&gt;Node5</title>
<path fill="none" stroke="#9a32cd" stroke-dasharray="5,2" d="M735.05,-192.53C736.25,-197.63 743.56,-201.5 757,-201.5 777.97,-201.5 784.04,-192.07 775.19,-183.26"/>
<polygon fill="#9a32cd" stroke="#9a32cd" points="738.3,-193.84 738.81,-183.26 731.81,-191.21 738.3,-193.84"/>
<text text-anchor="middle" x="757" y="-226.5" font-family="Helvetica,sans-Serif" font-size="10.00"> next</text>
<text text-anchor="middle" x="757" y="-215.5" font-family="Helvetica,sans-Serif" font-size="10.00">freeCollection</text>
<text text-anchor="middle" x="757" y="-204.5" font-family="Helvetica,sans-Serif" font-size="10.00">get</text>
</g>
<!-- Node6 -->
<g id="node6" class="node">
<title>Node6</title>
<g id="a_node6"><a xlink:href="structfiftyone_degrees_data.html" target="_top" xlink:title="Data structure used for reusing memory which may have been allocated in a previous operation.">
<polygon fill="none" stroke="black" points="0,-195 0,-214 117,-214 117,-195 0,-195"/>
<text text-anchor="middle" x="58.5" y="-202" font-family="Helvetica,sans-Serif" font-size="10.00">fiftyoneDegreesData</text>
</a>
</g>
</g>
<!-- Node6&#45;&gt;Node4 -->
<g id="edge7" class="edge">
<title>Node6&#45;&gt;Node4</title>
<path fill="none" stroke="#9a32cd" stroke-dasharray="5,2" d="M127.31,-209.04C129.9,-209.2 132.48,-209.35 135,-209.5 232.39,-215.26 344.45,-220.95 418.44,-224.58"/>
<polygon fill="#9a32cd" stroke="#9a32cd" points="127.4,-205.54 117.2,-208.41 126.97,-212.52 127.4,-205.54"/>
<text text-anchor="middle" x="265.5" y="-223.5" font-family="Helvetica,sans-Serif" font-size="10.00"> data</text>
</g>
<!-- Node9 -->
<g id="node9" class="node">
<title>Node9</title>
<g id="a_node9"><a xlink:href="structfiftyone_degrees_override_value.html" target="_top" xlink:title="String value which should override the value for the property indicated by the required property inde...">
<polygon fill="none" stroke="black" points="184,-171 184,-190 347,-190 347,-171 184,-171"/>
<text text-anchor="middle" x="265.5" y="-178" font-family="Helvetica,sans-Serif" font-size="10.00">fiftyoneDegreesOverrideValue</text>
</a>
</g>
</g>
<!-- Node6&#45;&gt;Node9 -->
<g id="edge11" class="edge">
<title>Node6&#45;&gt;Node9</title>
<path fill="none" stroke="#9a32cd" stroke-dasharray="5,2" d="M127.32,-196.56C145.45,-194.44 165.22,-192.12 183.96,-189.93"/>
<polygon fill="#9a32cd" stroke="#9a32cd" points="126.67,-193.11 117.15,-197.75 127.49,-200.06 126.67,-193.11"/>
<text text-anchor="middle" x="150.5" y="-197.5" font-family="Helvetica,sans-Serif" font-size="10.00"> string</text>
</g>
<!-- Node7 -->
<g id="node7" class="node">
<title>Node7</title>
<g id="a_node7"><a xlink:href="structfiftyone_degrees_results_device_detection.html" target="_top" xlink:title="Device detection specific results structure which any device detection processing results should exte...">
<polygon fill="none" stroke="black" points="675,-114.5 675,-144.5 839,-144.5 839,-114.5 675,-114.5"/>
<text text-anchor="start" x="683" y="-132.5" font-family="Helvetica,sans-Serif" font-size="10.00">fiftyoneDegreesResultsDevice</text>
<text text-anchor="middle" x="757" y="-121.5" font-family="Helvetica,sans-Serif" font-size="10.00">Detection</text>
</a>
</g>
</g>
<!-- Node7&#45;&gt;Node2 -->
<g id="edge8" class="edge">
<title>Node7&#45;&gt;Node2</title>
<path fill="none" stroke="#9a32cd" stroke-dasharray="5,2" d="M819.05,-147.77C825.81,-149.96 832.57,-152.23 839,-154.5 876.95,-167.9 919.65,-185.19 948.93,-197.39"/>
<polygon fill="#9a32cd" stroke="#9a32cd" points="819.78,-144.33 809.19,-144.62 817.65,-151 819.78,-144.33"/>
<text text-anchor="middle" x="875" y="-176.5" font-family="Helvetica,sans-Serif" font-size="10.00"> b</text>
</g>
<!-- Node8 -->
<g id="node8" class="node">
<title>Node8</title>
<g id="a_node8"><a xlink:href="structfiftyone_degrees_override_value_array.html" target="_top" xlink:title="An array of properties and values to use when getting override values.">
<polygon fill="none" stroke="black" points="419.5,-156.5 419.5,-186.5 582.5,-186.5 582.5,-156.5 419.5,-156.5"/>
<text text-anchor="start" x="427.5" y="-174.5" font-family="Helvetica,sans-Serif" font-size="10.00">fiftyoneDegreesOverrideValue</text>
<text text-anchor="middle" x="501" y="-163.5" font-family="Helvetica,sans-Serif" font-size="10.00">Array</text>
</a>
</g>
</g>
<!-- Node8&#45;&gt;Node7 -->
<g id="edge9" class="edge">
<title>Node8&#45;&gt;Node7</title>
<path fill="none" stroke="#9a32cd" stroke-dasharray="5,2" d="M592.82,-156.48C619.52,-152.07 648.55,-147.27 674.62,-142.96"/>
<polygon fill="#9a32cd" stroke="#9a32cd" points="592.01,-153.07 582.72,-158.15 593.15,-159.97 592.01,-153.07"/>
<text text-anchor="middle" x="631.5" y="-156.5" font-family="Helvetica,sans-Serif" font-size="10.00"> overrides</text>
</g>
<!-- Node9&#45;&gt;Node8 -->
<g id="edge10" class="edge">
<title>Node9&#45;&gt;Node8</title>
<path fill="none" stroke="#9a32cd" stroke-dasharray="5,2" d="M357.42,-177C377.83,-176.21 399.35,-175.38 419.31,-174.61"/>
<polygon fill="#9a32cd" stroke="#9a32cd" points="357.04,-173.51 347.18,-177.39 357.31,-180.5 357.04,-173.51"/>
<text text-anchor="middle" x="380.5" y="-179.5" font-family="Helvetica,sans-Serif" font-size="10.00"> items</text>
</g>
<!-- Node10 -->
<g id="node10" class="node">
<title>Node10</title>
<g id="a_node10"><a xlink:href="structfiftyone_degrees_results_base.html" target="_top" xlink:title="Base results structure which any processing results should extend.">
<polygon fill="none" stroke="black" points="424,-117 424,-136 578,-136 578,-117 424,-117"/>
<text text-anchor="middle" x="501" y="-124" font-family="Helvetica,sans-Serif" font-size="10.00">fiftyoneDegreesResultsBase</text>
</a>
</g>
</g>
<!-- Node10&#45;&gt;Node7 -->
<g id="edge12" class="edge">
<title>Node10&#45;&gt;Node7</title>
<path fill="none" stroke="#9a32cd" stroke-dasharray="5,2" d="M588.24,-126.85C610.63,-126.99 634.72,-127.2 657,-127.5 662.84,-127.58 668.88,-127.67 674.96,-127.77"/>
<polygon fill="#9a32cd" stroke="#9a32cd" points="588.1,-123.35 578.08,-126.78 588.06,-130.35 588.1,-123.35"/>
<text text-anchor="middle" x="631.5" y="-130.5" font-family="Helvetica,sans-Serif" font-size="10.00"> b</text>
</g>
<!-- Node11 -->
<g id="node11" class="node">
<title>Node11</title>
<g id="a_node11"><a xlink:href="structfiftyone_degrees_result_hash.html" target="_top" xlink:title="Singular User&#45;Agent result returned by a Hash process method.">
<polygon fill="none" stroke="black" points="682.5,-50 682.5,-69 831.5,-69 831.5,-50 682.5,-50"/>
<text text-anchor="middle" x="757" y="-57" font-family="Helvetica,sans-Serif" font-size="10.00">fiftyoneDegreesResultHash</text>
</a>
</g>
</g>
<!-- Node11&#45;&gt;Node2 -->
<g id="edge13" class="edge">
<title>Node11&#45;&gt;Node2</title>
<path fill="none" stroke="#9a32cd" stroke-dasharray="5,2" d="M785.2,-73.9C801.15,-82.61 821.53,-94.17 839,-105.5 885.83,-135.87 937.88,-175.73 965.25,-197.21"/>
<polygon fill="#9a32cd" stroke="#9a32cd" points="786.84,-70.81 776.38,-69.14 783.51,-76.97 786.84,-70.81"/>
<text text-anchor="middle" x="875" y="-144.5" font-family="Helvetica,sans-Serif" font-size="10.00"> items</text>
</g>
<!-- Node12 -->
<g id="node12" class="node">
<title>Node12</title>
<g id="a_node12"><a xlink:href="structfiftyone_degrees_graph_trace_node.html" target="_top" xlink:title="Trace node structure used to trace the route taken when evaluating a graph.">
<polygon fill="none" stroke="black" points="414,-50 414,-69 588,-69 588,-50 414,-50"/>
<text text-anchor="middle" x="501" y="-57" font-family="Helvetica,sans-Serif" font-size="10.00">fiftyoneDegreesGraphTraceNode</text>
</a>
</g>
</g>
<!-- Node12&#45;&gt;Node11 -->
<g id="edge14" class="edge">
<title>Node12&#45;&gt;Node11</title>
<path fill="none" stroke="#9a32cd" stroke-dasharray="5,2" d="M598.47,-59.5C626.22,-59.5 656.03,-59.5 682.18,-59.5"/>
<polygon fill="#9a32cd" stroke="#9a32cd" points="598.35,-56 588.35,-59.5 598.35,-63 598.35,-56"/>
<text text-anchor="middle" x="631.5" y="-62.5" font-family="Helvetica,sans-Serif" font-size="10.00"> trace</text>
</g>
<!-- Node12&#45;&gt;Node12 -->
<g id="edge15" class="edge">
<title>Node12&#45;&gt;Node12</title>
<path fill="none" stroke="#9a32cd" stroke-dasharray="5,2" d="M478.68,-78.53C479.9,-83.63 487.34,-87.5 501,-87.5 522.33,-87.5 528.49,-78.07 519.5,-69.26"/>
<polygon fill="#9a32cd" stroke="#9a32cd" points="481.93,-79.84 482.5,-69.26 475.45,-77.17 481.93,-79.84"/>
<text text-anchor="middle" x="501" y="-90.5" font-family="Helvetica,sans-Serif" font-size="10.00"> next</text>
</g>
<!-- Node13 -->
<g id="node13" class="node">
<title>Node13</title>
<g id="a_node13"><a xlink:href="structfiftyone_degrees_result_user_agent.html" target="_top" xlink:title="Singular User&#45;Agent result returned by a device detection process method.">
<polygon fill="none" stroke="black" points="427.5,-0.5 427.5,-30.5 574.5,-30.5 574.5,-0.5 427.5,-0.5"/>
<text text-anchor="start" x="435.5" y="-18.5" font-family="Helvetica,sans-Serif" font-size="10.00">fiftyoneDegreesResultUser</text>
<text text-anchor="middle" x="501" y="-7.5" font-family="Helvetica,sans-Serif" font-size="10.00">Agent</text>
</a>
</g>
</g>
<!-- Node13&#45;&gt;Node11 -->
<g id="edge16" class="edge">
<title>Node13&#45;&gt;Node11</title>
<path fill="none" stroke="#9a32cd" stroke-dasharray="5,2" d="M584.84,-29.85C622.92,-36.45 667.06,-44.09 700.97,-49.97"/>
<polygon fill="#9a32cd" stroke="#9a32cd" points="585.24,-26.37 574.79,-28.11 584.04,-33.26 585.24,-26.37"/>
<text text-anchor="middle" x="631.5" y="-44.5" font-family="Helvetica,sans-Serif" font-size="10.00"> b</text>
</g>
</g>
</svg>
