<?xml version="1.0" encoding="UTF-8" standalone="no"?>
<!DOCTYPE svg PUBLIC "-//W3C//DTD SVG 1.1//EN"
 "http://www.w3.org/Graphics/SVG/1.1/DTD/svg11.dtd">
<!-- Generated by graphviz version 2.43.0 (0)
 -->
<!-- Title: sharedState Pages: 1 -->
<svg width="346pt" height="106pt"
 viewBox="0.00 0.00 345.50 106.00" xmlns="http://www.w3.org/2000/svg" xmlns:xlink="http://www.w3.org/1999/xlink">
<g id="graph0" class="graph" transform="scale(1 1) rotate(0) translate(4 102)">
<title>sharedState</title>
<!-- Node1 -->
<g id="node1" class="node">
<title>Node1</title>
<g id="a_node1"><a xlink:title="State containing the states for all threads running in the example.">
<polygon fill="#bfbfbf" stroke="black" points="8.5,-0.5 8.5,-19.5 83.5,-19.5 83.5,-0.5 8.5,-0.5"/>
<text text-anchor="middle" x="46" y="-7.5" font-family="Helvetica,sans-Serif" font-size="10.00">sharedState</text>
</a>
</g>
</g>
<!-- Node2 -->
<g id="node2" class="node">
<title>Node2</title>
<g id="a_node2"><a xlink:href="structfiftyone_degrees_resource_manager.html" target="_top" xlink:title="Manager structure used to provide access to a shared and changing resource.">
<polygon fill="none" stroke="black" points="0,-73 0,-92 182,-92 182,-73 0,-73"/>
<text text-anchor="middle" x="91" y="-80" font-family="Helvetica,sans-Serif" font-size="10.00">fiftyoneDegreesResourceManager</text>
</a>
</g>
</g>
<!-- Node2&#45;&gt;Node1 -->
<g id="edge1" class="edge">
<title>Node2&#45;&gt;Node1</title>
<path fill="none" stroke="#9a32cd" stroke-dasharray="5,2" d="M64.87,-67.38C58.23,-62.47 51.89,-56.32 48,-49 43.17,-39.9 43.48,-27.78 44.46,-19.7"/>
<polygon fill="#9a32cd" stroke="#9a32cd" points="63,-70.33 73.27,-72.93 66.86,-64.49 63,-70.33"/>
<text text-anchor="middle" x="71.5" y="-41" font-family="Helvetica,sans-Serif" font-size="10.00"> manager</text>
</g>
<!-- Node3 -->
<g id="node3" class="node">
<title>Node3</title>
<g id="a_node3"><a xlink:href="structfiftyone_degrees_resource_handle.html" target="_top" xlink:title="Handle for a shared resource.">
<polygon fill="none" stroke="black" points="101.5,-0.5 101.5,-19.5 274.5,-19.5 274.5,-0.5 101.5,-0.5"/>
<text text-anchor="middle" x="188" y="-7.5" font-family="Helvetica,sans-Serif" font-size="10.00">fiftyoneDegreesResourceHandle</text>
</a>
</g>
</g>
<!-- Node2&#45;&gt;Node3 -->
<g id="edge3" class="edge">
<title>Node2&#45;&gt;Node3</title>
<path fill="none" stroke="#9a32cd" stroke-dasharray="5,2" d="M96.97,-63.58C100.67,-54.84 106.23,-44.78 114,-38 123.69,-29.55 136.24,-23.67 148.24,-19.6"/>
<polygon fill="#9a32cd" stroke="#9a32cd" points="93.68,-62.36 93.45,-72.96 100.24,-64.82 93.68,-62.36"/>
<text text-anchor="middle" x="137.5" y="-41" font-family="Helvetica,sans-Serif" font-size="10.00"> manager</text>
</g>
<!-- Node3&#45;&gt;Node2 -->
<g id="edge2" class="edge">
<title>Node3&#45;&gt;Node2</title>
<path fill="none" stroke="#9a32cd" stroke-dasharray="5,2" d="M180.05,-29.01C176.29,-35.96 171.23,-43.53 165,-49 152.55,-59.92 135.86,-67.68 121.48,-72.87"/>
<polygon fill="#9a32cd" stroke="#9a32cd" points="183.41,-30.11 184.64,-19.59 177.11,-27.05 183.41,-30.11"/>
<text text-anchor="middle" x="192" y="-41" font-family="Helvetica,sans-Serif" font-size="10.00"> active</text>
</g>
<!-- Node4 -->
<g id="node4" class="node">
<title>Node4</title>
<g id="a_node4"><a xlink:href="structfiftyone_degrees_interlock_double_width.html" target="_top" xlink:title="Double width (64 or 128 depending on the architecture) compare and exchange.">
<polygon fill="none" stroke="black" points="200.5,-67.5 200.5,-97.5 337.5,-97.5 337.5,-67.5 200.5,-67.5"/>
<text text-anchor="start" x="208.5" y="-85.5" font-family="Helvetica,sans-Serif" font-size="10.00">fiftyoneDegreesInterlock</text>
<text text-anchor="middle" x="269" y="-74.5" font-family="Helvetica,sans-Serif" font-size="10.00">DoubleWidth</text>
</a>
</g>
</g>
<!-- Node4&#45;&gt;Node3 -->
<g id="edge4" class="edge">
<title>Node4&#45;&gt;Node3</title>
<path fill="none" stroke="#9a32cd" stroke-dasharray="5,2" d="M248.33,-59.8C241.16,-52.62 232.93,-44.75 225,-38 217.25,-31.4 208,-24.65 200.69,-19.55"/>
<polygon fill="#9a32cd" stroke="#9a32cd" points="246.13,-62.55 255.63,-67.24 251.12,-57.65 246.13,-62.55"/>
<text text-anchor="middle" x="256" y="-41" font-family="Helvetica,sans-Serif" font-size="10.00"> counter</text>
</g>
</g>
</svg>
