<?xml version="1.0" encoding="UTF-8" standalone="no"?>
<!DOCTYPE svg PUBLIC "-//W3C//DTD SVG 1.1//EN"
 "http://www.w3.org/Graphics/SVG/1.1/DTD/svg11.dtd">
<!-- Generated by graphviz version 2.43.0 (0)
 -->
<!-- Title: fiftyoneDegreesResourceHandle Pages: 1 -->
<svg width="190pt" height="173pt"
 viewBox="0.00 0.00 190.00 173.00" xmlns="http://www.w3.org/2000/svg" xmlns:xlink="http://www.w3.org/1999/xlink">
<g id="graph0" class="graph" transform="scale(1 1) rotate(0) translate(4 169)">
<title>fiftyoneDegreesResourceHandle</title>
<!-- Node1 -->
<g id="node1" class="node">
<title>Node1</title>
<g id="a_node1"><a xlink:title="Handle for a shared resource.">
<polygon fill="#bfbfbf" stroke="black" points="4.5,-67.5 4.5,-86.5 177.5,-86.5 177.5,-67.5 4.5,-67.5"/>
<text text-anchor="middle" x="91" y="-74.5" font-family="Helvetica,sans-Serif" font-size="10.00">fiftyoneDegreesResourceHandle</text>
</a>
</g>
</g>
<!-- Node2 -->
<g id="node2" class="node">
<title>Node2</title>
<g id="a_node2"><a xlink:href="structfiftyone_degrees_resource_manager.html" target="_top" xlink:title="Manager structure used to provide access to a shared and changing resource.">
<polygon fill="none" stroke="black" points="0,-0.5 0,-19.5 182,-19.5 182,-0.5 0,-0.5"/>
<text text-anchor="middle" x="91" y="-7.5" font-family="Helvetica,sans-Serif" font-size="10.00">fiftyoneDegreesResourceManager</text>
</a>
</g>
</g>
<!-- Node1&#45;&gt;Node2 -->
<g id="edge2" class="edge">
<title>Node1&#45;&gt;Node2</title>
<path fill="none" stroke="#9a32cd" stroke-dasharray="5,2" d="M68.51,-60.71C65.05,-57.28 61.98,-53.36 60,-49 54.85,-37.69 65.66,-26.92 75.9,-19.75"/>
<polygon fill="#9a32cd" stroke="#9a32cd" points="66.5,-63.59 76.4,-67.37 71.02,-58.24 66.5,-63.59"/>
<text text-anchor="middle" x="77" y="-41" font-family="Helvetica,sans-Serif" font-size="10.00"> active</text>
</g>
<!-- Node2&#45;&gt;Node1 -->
<g id="edge1" class="edge">
<title>Node2&#45;&gt;Node1</title>
<path fill="none" stroke="#9a32cd" stroke-dasharray="5,2" d="M96.78,-29.68C98.05,-35.82 98.81,-42.68 98,-49 97.22,-55.15 95.47,-61.9 93.91,-67.11"/>
<polygon fill="#9a32cd" stroke="#9a32cd" points="100.09,-28.5 94.17,-19.71 93.32,-30.27 100.09,-28.5"/>
<text text-anchor="middle" x="121.5" y="-41" font-family="Helvetica,sans-Serif" font-size="10.00"> manager</text>
</g>
<!-- Node3 -->
<g id="node3" class="node">
<title>Node3</title>
<g id="a_node3"><a xlink:href="structfiftyone_degrees_interlock_double_width.html" target="_top" xlink:title="Double width (64 or 128 depending on the architecture) compare and exchange.">
<polygon fill="none" stroke="black" points="22.5,-134.5 22.5,-164.5 159.5,-164.5 159.5,-134.5 22.5,-134.5"/>
<text text-anchor="start" x="30.5" y="-152.5" font-family="Helvetica,sans-Serif" font-size="10.00">fiftyoneDegreesInterlock</text>
<text text-anchor="middle" x="91" y="-141.5" font-family="Helvetica,sans-Serif" font-size="10.00">DoubleWidth</text>
</a>
</g>
</g>
<!-- Node3&#45;&gt;Node1 -->
<g id="edge3" class="edge">
<title>Node3&#45;&gt;Node1</title>
<path fill="none" stroke="#9a32cd" stroke-dasharray="5,2" d="M91,-124.09C91,-111.21 91,-96.2 91,-86.89"/>
<polygon fill="#9a32cd" stroke="#9a32cd" points="87.5,-124.23 91,-134.23 94.5,-124.23 87.5,-124.23"/>
<text text-anchor="middle" x="111" y="-108" font-family="Helvetica,sans-Serif" font-size="10.00"> counter</text>
</g>
</g>
</svg>
