<?xml version="1.0" encoding="UTF-8" standalone="no"?>
<!DOCTYPE svg PUBLIC "-//W3C//DTD SVG 1.1//EN"
 "http://www.w3.org/Graphics/SVG/1.1/DTD/svg11.dtd">
<!-- Generated by graphviz version 2.43.0 (0)
 -->
<!-- Title: fiftyoneDegreesCache Pages: 1 -->
<svg width="402pt" height="277pt"
 viewBox="0.00 0.00 401.50 277.00" xmlns="http://www.w3.org/2000/svg" xmlns:xlink="http://www.w3.org/1999/xlink">
<g id="graph0" class="graph" transform="scale(1 1) rotate(0) translate(4 273)">
<title>fiftyoneDegreesCache</title>
<!-- Node1 -->
<g id="node1" class="node">
<title>Node1</title>
<g id="a_node1"><a xlink:title="Cache structure to store the root of the red black tree and a list of allocated cache nodes.">
<polygon fill="#bfbfbf" stroke="black" points="212,-158.5 212,-177.5 336,-177.5 336,-158.5 212,-158.5"/>
<text text-anchor="middle" x="274" y="-165.5" font-family="Helvetica,sans-Serif" font-size="10.00">fiftyoneDegreesCache</text>
</a>
</g>
</g>
<!-- Node5 -->
<g id="node5" class="node">
<title>Node5</title>
<g id="a_node5"><a xlink:href="structfiftyone_degrees_cache_shard.html" target="_top" xlink:title="Cache shard structure used to enable concurrent access to the cache.">
<polygon fill="none" stroke="black" points="110,-91.5 110,-110.5 262,-110.5 262,-91.5 110,-91.5"/>
<text text-anchor="middle" x="186" y="-98.5" font-family="Helvetica,sans-Serif" font-size="10.00">fiftyoneDegreesCacheShard</text>
</a>
</g>
</g>
<!-- Node1&#45;&gt;Node5 -->
<g id="edge10" class="edge">
<title>Node1&#45;&gt;Node5</title>
<path fill="none" stroke="#9a32cd" stroke-dasharray="5,2" d="M210.69,-154.35C203.61,-150.71 197.12,-146.02 192,-140 185.08,-131.86 184.46,-119.05 184.98,-110.59"/>
<polygon fill="#9a32cd" stroke="#9a32cd" points="209.35,-157.59 219.91,-158.44 212.18,-151.19 209.35,-157.59"/>
<text text-anchor="middle" x="208" y="-132" font-family="Helvetica,sans-Serif" font-size="10.00"> cache</text>
</g>
<!-- Node2 -->
<g id="node2" class="node">
<title>Node2</title>
<g id="a_node2"><a xlink:href="structfiftyone_degrees_cache_node.html" target="_top" xlink:title="Cache node structure used for storing data in the cache along with its key.">
<polygon fill="none" stroke="black" points="165.5,-1.5 165.5,-20.5 314.5,-20.5 314.5,-1.5 165.5,-1.5"/>
<text text-anchor="middle" x="240" y="-8.5" font-family="Helvetica,sans-Serif" font-size="10.00">fiftyoneDegreesCacheNode</text>
</a>
</g>
</g>
<!-- Node2&#45;&gt;Node1 -->
<g id="edge1" class="edge">
<title>Node2&#45;&gt;Node1</title>
<path fill="none" stroke="#9a32cd" stroke-dasharray="5,2" d="M257.9,-27.94C261.07,-31.6 263.99,-35.69 266,-40 285.02,-80.86 278.81,-137.24 275.5,-158.47"/>
<polygon fill="#9a32cd" stroke="#9a32cd" points="260.33,-25.41 250.84,-20.71 255.33,-30.31 260.33,-25.41"/>
<text text-anchor="middle" x="295.5" y="-98.5" font-family="Helvetica,sans-Serif" font-size="10.00"> nodes</text>
</g>
<!-- Node2&#45;&gt;Node2 -->
<g id="edge2" class="edge">
<title>Node2&#45;&gt;Node2</title>
<path fill="none" stroke="#9a32cd" stroke-dasharray="5,2" d="M324.69,-16.62C329.58,-15.27 332.5,-13.39 332.5,-11 332.5,-7.26 325.38,-4.79 314.76,-3.6"/>
<polygon fill="#9a32cd" stroke="#9a32cd" points="323.99,-13.19 314.76,-18.4 325.23,-20.08 323.99,-13.19"/>
<text text-anchor="middle" x="363" y="-14" font-family="Helvetica,sans-Serif" font-size="10.00"> listPrevious</text>
<text text-anchor="middle" x="363" y="-3" font-family="Helvetica,sans-Serif" font-size="10.00">listNext</text>
</g>
<!-- Node2&#45;&gt;Node5 -->
<g id="edge8" class="edge">
<title>Node2&#45;&gt;Node5</title>
<path fill="none" stroke="#9a32cd" stroke-dasharray="5,2" d="M236.03,-30.47C232.68,-43.22 226.95,-60.14 218,-73 213.02,-80.16 205.67,-86.54 199.28,-91.3"/>
<polygon fill="#9a32cd" stroke="#9a32cd" points="239.49,-31.08 238.4,-20.54 232.68,-29.46 239.49,-31.08"/>
<text text-anchor="middle" x="247" y="-65" font-family="Helvetica,sans-Serif" font-size="10.00"> last</text>
<text text-anchor="middle" x="247" y="-54" font-family="Helvetica,sans-Serif" font-size="10.00">first</text>
<text text-anchor="middle" x="247" y="-43" font-family="Helvetica,sans-Serif" font-size="10.00">nodes</text>
</g>
<!-- Node3 -->
<g id="node3" class="node">
<title>Node3</title>
<g id="a_node3"><a xlink:href="structfiftyone_degrees_tree_node.html" target="_top" xlink:title="Node structure defining a single node in the tree.">
<polygon fill="none" stroke="black" points="0,-243 0,-262 140,-262 140,-243 0,-243"/>
<text text-anchor="middle" x="70" y="-250" font-family="Helvetica,sans-Serif" font-size="10.00">fiftyoneDegreesTreeNode</text>
</a>
</g>
</g>
<!-- Node3&#45;&gt;Node2 -->
<g id="edge3" class="edge">
<title>Node3&#45;&gt;Node2</title>
<path fill="none" stroke="#9a32cd" stroke-dasharray="5,2" d="M59.62,-233.83C49.82,-214.8 37.9,-183.79 47,-158 73.84,-81.93 168.98,-37.84 214.88,-20.55"/>
<polygon fill="#9a32cd" stroke="#9a32cd" points="56.68,-235.75 64.56,-242.83 62.81,-232.38 56.68,-235.75"/>
<text text-anchor="middle" x="73.5" y="-132" font-family="Helvetica,sans-Serif" font-size="10.00"> tree</text>
</g>
<!-- Node3&#45;&gt;Node3 -->
<g id="edge4" class="edge">
<title>Node3&#45;&gt;Node3</title>
<path fill="none" stroke="#9a32cd" stroke-dasharray="5,2" d="M150.08,-258.26C155.02,-256.9 158,-254.98 158,-252.5 158,-248.63 150.75,-246.13 140.07,-244.98"/>
<polygon fill="#9a32cd" stroke="#9a32cd" points="149.31,-254.84 140.07,-260.02 150.53,-261.73 149.31,-254.84"/>
<text text-anchor="middle" x="174" y="-261" font-family="Helvetica,sans-Serif" font-size="10.00"> right</text>
<text text-anchor="middle" x="174" y="-250" font-family="Helvetica,sans-Serif" font-size="10.00">left</text>
<text text-anchor="middle" x="174" y="-239" font-family="Helvetica,sans-Serif" font-size="10.00">parent</text>
</g>
<!-- Node4 -->
<g id="node4" class="node">
<title>Node4</title>
<g id="a_node4"><a xlink:href="structfiftyone_degrees_tree_root.html" target="_top" xlink:title="Tree root structure defining the beginning of the tree.">
<polygon fill="none" stroke="black" points="56.5,-158.5 56.5,-177.5 193.5,-177.5 193.5,-158.5 56.5,-158.5"/>
<text text-anchor="middle" x="125" y="-165.5" font-family="Helvetica,sans-Serif" font-size="10.00">fiftyoneDegreesTreeRoot</text>
</a>
</g>
</g>
<!-- Node3&#45;&gt;Node4 -->
<g id="edge6" class="edge">
<title>Node3&#45;&gt;Node4</title>
<path fill="none" stroke="#9a32cd" stroke-dasharray="5,2" d="M63.83,-232.97C61.19,-221.46 60.08,-206.85 67,-196 72.43,-187.48 81.33,-181.6 90.55,-177.57"/>
<polygon fill="#9a32cd" stroke="#9a32cd" points="60.53,-234.16 66.63,-242.82 67.27,-232.25 60.53,-234.16"/>
<text text-anchor="middle" x="83" y="-210" font-family="Helvetica,sans-Serif" font-size="10.00"> root</text>
<text text-anchor="middle" x="83" y="-199" font-family="Helvetica,sans-Serif" font-size="10.00">empty</text>
</g>
<!-- Node4&#45;&gt;Node3 -->
<g id="edge5" class="edge">
<title>Node4&#45;&gt;Node3</title>
<path fill="none" stroke="#9a32cd" stroke-dasharray="5,2" d="M118.63,-187.18C114.84,-196.78 109.5,-208.5 103,-218 96.55,-227.43 87.28,-236.57 80.21,-242.91"/>
<polygon fill="#9a32cd" stroke="#9a32cd" points="121.92,-188.4 122.12,-177.81 115.36,-185.96 121.92,-188.4"/>
<text text-anchor="middle" x="126.5" y="-204.5" font-family="Helvetica,sans-Serif" font-size="10.00"> root</text>
</g>
<!-- Node4&#45;&gt;Node5 -->
<g id="edge9" class="edge">
<title>Node4&#45;&gt;Node5</title>
<path fill="none" stroke="#9a32cd" stroke-dasharray="5,2" d="M131.2,-148.66C134.07,-141.97 137.97,-134.66 143,-129 149.79,-121.35 159.26,-115.09 167.58,-110.53"/>
<polygon fill="#9a32cd" stroke="#9a32cd" points="127.8,-147.76 127.53,-158.35 134.34,-150.24 127.8,-147.76"/>
<text text-anchor="middle" x="154.5" y="-132" font-family="Helvetica,sans-Serif" font-size="10.00"> root</text>
</g>
<!-- Node5&#45;&gt;Node1 -->
<g id="edge12" class="edge">
<title>Node5&#45;&gt;Node1</title>
<path fill="none" stroke="#9a32cd" stroke-dasharray="5,2" d="M206.73,-116.55C212.36,-120.55 218.44,-124.91 224,-129 237.53,-138.94 252.88,-150.68 262.96,-158.45"/>
<polygon fill="#9a32cd" stroke="#9a32cd" points="208.58,-113.57 198.39,-110.66 204.54,-119.29 208.58,-113.57"/>
<text text-anchor="middle" x="255" y="-132" font-family="Helvetica,sans-Serif" font-size="10.00"> shards</text>
</g>
<!-- Node5&#45;&gt;Node2 -->
<g id="edge7" class="edge">
<title>Node5&#45;&gt;Node2</title>
<path fill="none" stroke="#9a32cd" stroke-dasharray="5,2" d="M181.63,-81.23C179.77,-68.65 179.49,-52.22 187,-40 192.5,-31.04 201.91,-24.8 211.29,-20.51"/>
<polygon fill="#9a32cd" stroke="#9a32cd" points="178.2,-81.92 183.52,-91.09 185.08,-80.61 178.2,-81.92"/>
<text text-anchor="middle" x="202.5" y="-54" font-family="Helvetica,sans-Serif" font-size="10.00"> shard</text>
</g>
<!-- Node6 -->
<g id="node6" class="node">
<title>Node6</title>
<g id="a_node6"><a xlink:href="structfiftyone_degrees_data.html" target="_top" xlink:title="Data structure used for reusing memory which may have been allocated in a previous operation.">
<polygon fill="none" stroke="black" points="273.5,-243 273.5,-262 390.5,-262 390.5,-243 273.5,-243"/>
<text text-anchor="middle" x="332" y="-250" font-family="Helvetica,sans-Serif" font-size="10.00">fiftyoneDegreesData</text>
</a>
</g>
</g>
<!-- Node6&#45;&gt;Node1 -->
<g id="edge13" class="edge">
<title>Node6&#45;&gt;Node1</title>
<path fill="none" stroke="#9a32cd" stroke-dasharray="5,2" d="M319.98,-234.4C307.8,-217.07 289.45,-190.98 280.04,-177.6"/>
<polygon fill="#9a32cd" stroke="#9a32cd" points="317.4,-236.81 326.01,-242.98 323.12,-232.79 317.4,-236.81"/>
<text text-anchor="middle" x="320.5" y="-204.5" font-family="Helvetica,sans-Serif" font-size="10.00"> load</text>
</g>
<!-- Node6&#45;&gt;Node2 -->
<g id="edge11" class="edge">
<title>Node6&#45;&gt;Node2</title>
<path fill="none" stroke="#9a32cd" stroke-dasharray="5,2" d="M338.22,-233.22C343.8,-214.28 350.36,-183.89 345,-158 333.03,-100.19 325.61,-81.88 284,-40 276.21,-32.16 265.86,-25.44 257.15,-20.54"/>
<polygon fill="#9a32cd" stroke="#9a32cd" points="334.83,-232.34 335.14,-242.93 341.5,-234.45 334.83,-232.34"/>
<text text-anchor="middle" x="352.5" y="-132" font-family="Helvetica,sans-Serif" font-size="10.00"> data</text>
</g>
</g>
</svg>
