<?xml version="1.0" encoding="UTF-8" standalone="no"?>
<!DOCTYPE svg PUBLIC "-//W3C//DTD SVG 1.1//EN"
 "http://www.w3.org/Graphics/SVG/1.1/DTD/svg11.dtd">
<!-- Generated by graphviz version 2.43.0 (0)
 -->
<!-- Title: fiftyoneDegreesPropertiesRequired Pages: 1 -->
<svg width="487pt" height="331pt"
 viewBox="0.00 0.00 487.00 331.00" xmlns="http://www.w3.org/2000/svg" xmlns:xlink="http://www.w3.org/1999/xlink">
<g id="graph0" class="graph" transform="scale(1 1) rotate(0) translate(4 327)">
<title>fiftyoneDegreesPropertiesRequired</title>
<!-- Node1 -->
<g id="node1" class="node">
<title>Node1</title>
<g id="a_node1"><a xlink:title="Defines a set of properties which are required by a caller.">
<polygon fill="#bfbfbf" stroke="black" points="46,-0.5 46,-30.5 189,-30.5 189,-0.5 46,-0.5"/>
<text text-anchor="start" x="54" y="-18.5" font-family="Helvetica,sans-Serif" font-size="10.00">fiftyoneDegreesProperties</text>
<text text-anchor="middle" x="117.5" y="-7.5" font-family="Helvetica,sans-Serif" font-size="10.00">Required</text>
</a>
</g>
</g>
<!-- Node2 -->
<g id="node2" class="node">
<title>Node2</title>
<g id="a_node2"><a xlink:href="structfiftyone_degrees_property_available_array.html" target="_top" xlink:title="Array of items of type fiftyoneDegreesPropertyAvailable used to easily access and track the size of t...">
<polygon fill="none" stroke="black" points="27.5,-78.5 27.5,-108.5 207.5,-108.5 207.5,-78.5 27.5,-78.5"/>
<text text-anchor="start" x="35.5" y="-96.5" font-family="Helvetica,sans-Serif" font-size="10.00">fiftyoneDegreesPropertyAvailable</text>
<text text-anchor="middle" x="117.5" y="-85.5" font-family="Helvetica,sans-Serif" font-size="10.00">Array</text>
</a>
</g>
</g>
<!-- Node2&#45;&gt;Node1 -->
<g id="edge1" class="edge">
<title>Node2&#45;&gt;Node1</title>
<path fill="none" stroke="#9a32cd" stroke-dasharray="5,2" d="M117.5,-68.09C117.5,-55.76 117.5,-41.22 117.5,-30.73"/>
<polygon fill="#9a32cd" stroke="#9a32cd" points="114,-68.2 117.5,-78.2 121,-68.21 114,-68.2"/>
<text text-anchor="middle" x="139" y="-52" font-family="Helvetica,sans-Serif" font-size="10.00"> existing</text>
</g>
<!-- Node3 -->
<g id="node3" class="node">
<title>Node3</title>
<g id="a_node3"><a xlink:href="structfiftyone_degrees_property_available.html" target="_top" xlink:title="Used to access the property item quickly without the need to search.">
<polygon fill="none" stroke="black" points="27.5,-157.5 27.5,-176.5 207.5,-176.5 207.5,-157.5 27.5,-157.5"/>
<text text-anchor="middle" x="117.5" y="-164.5" font-family="Helvetica,sans-Serif" font-size="10.00">fiftyoneDegreesPropertyAvailable</text>
</a>
</g>
</g>
<!-- Node3&#45;&gt;Node2 -->
<g id="edge2" class="edge">
<title>Node3&#45;&gt;Node2</title>
<path fill="none" stroke="#9a32cd" stroke-dasharray="5,2" d="M117.5,-146.9C117.5,-134.82 117.5,-119.47 117.5,-108.51"/>
<polygon fill="#9a32cd" stroke="#9a32cd" points="114,-147.23 117.5,-157.23 121,-147.23 114,-147.23"/>
<text text-anchor="middle" x="133" y="-130" font-family="Helvetica,sans-Serif" font-size="10.00"> items</text>
</g>
<!-- Node4 -->
<g id="node4" class="node">
<title>Node4</title>
<g id="a_node4"><a xlink:href="structfiftyone_degrees_evidence_property_index_array.html" target="_top" xlink:title="Array of items of type fiftyoneDegreesEvidencePropertyIndex used to easily access and track the size ...">
<polygon fill="none" stroke="black" points="0,-225.5 0,-255.5 179,-255.5 179,-225.5 0,-225.5"/>
<text text-anchor="start" x="8" y="-243.5" font-family="Helvetica,sans-Serif" font-size="10.00">fiftyoneDegreesEvidenceProperty</text>
<text text-anchor="middle" x="89.5" y="-232.5" font-family="Helvetica,sans-Serif" font-size="10.00">IndexArray</text>
</a>
</g>
</g>
<!-- Node4&#45;&gt;Node3 -->
<g id="edge3" class="edge">
<title>Node4&#45;&gt;Node3</title>
<path fill="none" stroke="#9a32cd" stroke-dasharray="5,2" d="M92.79,-215.18C94.12,-208.79 95.96,-202.01 98.5,-196 101.43,-189.07 106.18,-182.07 110.2,-176.81"/>
<polygon fill="#9a32cd" stroke="#9a32cd" points="89.28,-214.91 91,-225.37 96.17,-216.12 89.28,-214.91"/>
<text text-anchor="middle" x="147" y="-199" font-family="Helvetica,sans-Serif" font-size="10.00"> evidenceProperties</text>
</g>
<!-- Node5 -->
<g id="node5" class="node">
<title>Node5</title>
<g id="a_node5"><a xlink:href="structfiftyone_degrees_collection_item.html" target="_top" xlink:title="Used to store a handle to the underlying item that could be used to release the item when it&#39;s finish...">
<polygon fill="none" stroke="black" points="197,-231 197,-250 362,-250 362,-231 197,-231"/>
<text text-anchor="middle" x="279.5" y="-238" font-family="Helvetica,sans-Serif" font-size="10.00">fiftyoneDegreesCollectionItem</text>
</a>
</g>
</g>
<!-- Node5&#45;&gt;Node3 -->
<g id="edge4" class="edge">
<title>Node5&#45;&gt;Node3</title>
<path fill="none" stroke="#9a32cd" stroke-dasharray="5,2" d="M255.33,-225.89C238.76,-216.84 216.14,-205 195.5,-196 178.75,-188.7 159.42,-181.75 144.2,-176.6"/>
<polygon fill="#9a32cd" stroke="#9a32cd" points="253.87,-229.08 264.32,-230.86 257.26,-222.96 253.87,-229.08"/>
<text text-anchor="middle" x="235" y="-199" font-family="Helvetica,sans-Serif" font-size="10.00"> name</text>
</g>
<!-- Node6 -->
<g id="node6" class="node">
<title>Node6</title>
<g id="a_node6"><a xlink:href="structfiftyone_degrees_collection.html" target="_top" xlink:title="All the shared methods and fields required by file, memory and cached collections.">
<polygon fill="none" stroke="black" points="246,-157.5 246,-176.5 389,-176.5 389,-157.5 246,-157.5"/>
<text text-anchor="middle" x="317.5" y="-164.5" font-family="Helvetica,sans-Serif" font-size="10.00">fiftyoneDegreesCollection</text>
</a>
</g>
</g>
<!-- Node5&#45;&gt;Node6 -->
<g id="edge6" class="edge">
<title>Node5&#45;&gt;Node6</title>
<path fill="none" stroke="#9a32cd" stroke-dasharray="5,2" d="M271.6,-221.51C269.21,-213.3 268.22,-203.71 272.5,-196 277.33,-187.31 286.09,-180.97 294.61,-176.54"/>
<polygon fill="#9a32cd" stroke="#9a32cd" points="268.33,-222.76 275.08,-230.93 274.9,-220.34 268.33,-222.76"/>
<text text-anchor="middle" x="292.5" y="-199" font-family="Helvetica,sans-Serif" font-size="10.00"> release</text>
</g>
<!-- Node6&#45;&gt;Node5 -->
<g id="edge5" class="edge">
<title>Node6&#45;&gt;Node5</title>
<path fill="none" stroke="#9a32cd" stroke-dasharray="5,2" d="M320.03,-186.72C320.17,-193.4 319.41,-200.79 316.5,-207 311.79,-217.07 302.32,-225.29 294.14,-230.95"/>
<polygon fill="#9a32cd" stroke="#9a32cd" points="323.5,-186.18 319.17,-176.51 316.52,-186.77 323.5,-186.18"/>
<text text-anchor="middle" x="344" y="-199" font-family="Helvetica,sans-Serif" font-size="10.00"> collection</text>
</g>
<!-- Node6&#45;&gt;Node6 -->
<g id="edge7" class="edge">
<title>Node6&#45;&gt;Node6</title>
<path fill="none" stroke="#9a32cd" stroke-dasharray="5,2" d="M399.11,-171.41C404.04,-170.36 407,-168.89 407,-167 407,-164.04 399.79,-162.12 389.13,-161.22"/>
<polygon fill="#9a32cd" stroke="#9a32cd" points="398.56,-167.96 389.13,-172.78 399.51,-174.89 398.56,-167.96"/>
<text text-anchor="middle" x="443" y="-170" font-family="Helvetica,sans-Serif" font-size="10.00"> freeCollection</text>
<text text-anchor="middle" x="443" y="-159" font-family="Helvetica,sans-Serif" font-size="10.00">get</text>
</g>
<!-- Node7 -->
<g id="node7" class="node">
<title>Node7</title>
<g id="a_node7"><a xlink:href="structfiftyone_degrees_data.html" target="_top" xlink:title="Data structure used for reusing memory which may have been allocated in a previous operation.">
<polygon fill="none" stroke="black" points="221,-303.5 221,-322.5 338,-322.5 338,-303.5 221,-303.5"/>
<text text-anchor="middle" x="279.5" y="-310.5" font-family="Helvetica,sans-Serif" font-size="10.00">fiftyoneDegreesData</text>
</a>
</g>
</g>
<!-- Node7&#45;&gt;Node5 -->
<g id="edge8" class="edge">
<title>Node7&#45;&gt;Node5</title>
<path fill="none" stroke="#9a32cd" stroke-dasharray="5,2" d="M279.5,-292.94C279.5,-279.03 279.5,-260.82 279.5,-250.22"/>
<polygon fill="#9a32cd" stroke="#9a32cd" points="276,-293.36 279.5,-303.36 283,-293.36 276,-293.36"/>
<text text-anchor="middle" x="292" y="-277" font-family="Helvetica,sans-Serif" font-size="10.00"> data</text>
</g>
</g>
</svg>
