<?xml version="1.0" encoding="UTF-8" standalone="no"?>
<!DOCTYPE svg PUBLIC "-//W3C//DTD SVG 1.1//EN"
 "http://www.w3.org/Graphics/SVG/1.1/DTD/svg11.dtd">
<!-- Generated by graphviz version 2.43.0 (0)
 -->
<!-- Title: fiftyoneDegreesDataSetDeviceDetection Pages: 1 -->
<svg width="1925pt" height="357pt"
 viewBox="0.00 0.00 1925.00 356.50" xmlns="http://www.w3.org/2000/svg" xmlns:xlink="http://www.w3.org/1999/xlink">
<g id="graph0" class="graph" transform="scale(1 1) rotate(0) translate(4 352.5)">
<title>fiftyoneDegreesDataSetDeviceDetection</title>
<!-- Node1 -->
<g id="node1" class="node">
<title>Node1</title>
<g id="a_node1"><a xlink:title="Device detection data set structure which contains the &#39;must have&#39;s for all device detection data set...">
<polygon fill="#bfbfbf" stroke="black" points="1750,-245 1750,-275 1917,-275 1917,-245 1750,-245"/>
<text text-anchor="start" x="1758" y="-263" font-family="Helvetica,sans-Serif" font-size="10.00">fiftyoneDegreesDataSetDevice</text>
<text text-anchor="middle" x="1833.5" y="-252" font-family="Helvetica,sans-Serif" font-size="10.00">Detection</text>
</a>
</g>
</g>
<!-- Node2 -->
<g id="node2" class="node">
<title>Node2</title>
<g id="a_node2"><a xlink:href="structfiftyone_degrees_header_ptr_array.html" target="_top" xlink:title="Array of header indexes.">
<polygon fill="none" stroke="black" points="1483.5,-318 1483.5,-348 1626.5,-348 1626.5,-318 1483.5,-318"/>
<text text-anchor="start" x="1491.5" y="-336" font-family="Helvetica,sans-Serif" font-size="10.00">fiftyoneDegreesHeaderPtr</text>
<text text-anchor="middle" x="1555" y="-325" font-family="Helvetica,sans-Serif" font-size="10.00">Array</text>
</a>
</g>
</g>
<!-- Node2&#45;&gt;Node1 -->
<g id="edge1" class="edge">
<title>Node2&#45;&gt;Node1</title>
<path fill="none" stroke="#9a32cd" stroke-dasharray="5,2" d="M1622.69,-315.39C1669.42,-303.06 1731.21,-286.74 1775.62,-275.02"/>
<polygon fill="#9a32cd" stroke="#9a32cd" points="1621.73,-312.03 1612.96,-317.96 1623.52,-318.79 1621.73,-312.03"/>
<text text-anchor="middle" x="1698" y="-306" font-family="Helvetica,sans-Serif" font-size="10.00"> ghevHeaders</text>
</g>
<!-- Node3 -->
<g id="node3" class="node">
<title>Node3</title>
<g id="a_node3"><a xlink:href="structfiftyone_degrees_data_set_base.html" target="_top" xlink:title="Base data set structure which contains the &#39;must have&#39;s for all data sets.">
<polygon fill="none" stroke="black" points="1476.5,-177.5 1476.5,-196.5 1633.5,-196.5 1633.5,-177.5 1476.5,-177.5"/>
<text text-anchor="middle" x="1555" y="-184.5" font-family="Helvetica,sans-Serif" font-size="10.00">fiftyoneDegreesDataSetBase</text>
</a>
</g>
</g>
<!-- Node3&#45;&gt;Node1 -->
<g id="edge2" class="edge">
<title>Node3&#45;&gt;Node1</title>
<path fill="none" stroke="#9a32cd" stroke-dasharray="5,2" d="M1601.88,-199.11C1649.49,-211.68 1724.05,-231.37 1775.44,-244.93"/>
<polygon fill="#9a32cd" stroke="#9a32cd" points="1602.71,-195.71 1592.15,-196.54 1600.92,-202.48 1602.71,-195.71"/>
<text text-anchor="middle" x="1698" y="-235" font-family="Helvetica,sans-Serif" font-size="10.00"> b</text>
</g>
<!-- Node4 -->
<g id="node4" class="node">
<title>Node4</title>
<g id="a_node4"><a xlink:href="structfiftyone_degrees_header_array.html" target="_top" xlink:title="Array of Headers which should always be ordered in ascending order of fullHeaderId.">
<polygon fill="none" stroke="black" points="1159,-227.5 1159,-246.5 1314,-246.5 1314,-227.5 1159,-227.5"/>
<text text-anchor="middle" x="1236.5" y="-234.5" font-family="Helvetica,sans-Serif" font-size="10.00">fiftyoneDegreesHeaderArray</text>
</a>
</g>
</g>
<!-- Node4&#45;&gt;Node3 -->
<g id="edge3" class="edge">
<title>Node4&#45;&gt;Node3</title>
<path fill="none" stroke="#9a32cd" stroke-dasharray="5,2" d="M1307.93,-225.87C1363.69,-217.07 1440.73,-204.89 1493.68,-196.53"/>
<polygon fill="#9a32cd" stroke="#9a32cd" points="1307.11,-222.46 1297.78,-227.48 1308.2,-229.37 1307.11,-222.46"/>
<text text-anchor="middle" x="1394.5" y="-222" font-family="Helvetica,sans-Serif" font-size="10.00"> uniqueHeaders</text>
</g>
<!-- Node5 -->
<g id="node5" class="node">
<title>Node5</title>
<g id="a_node5"><a xlink:href="structfiftyone_degrees_resource_handle.html" target="_top" xlink:title="Handle for a shared resource.">
<polygon fill="none" stroke="black" points="1150,-279.5 1150,-298.5 1323,-298.5 1323,-279.5 1150,-279.5"/>
<text text-anchor="middle" x="1236.5" y="-286.5" font-family="Helvetica,sans-Serif" font-size="10.00">fiftyoneDegreesResourceHandle</text>
</a>
</g>
</g>
<!-- Node5&#45;&gt;Node3 -->
<g id="edge4" class="edge">
<title>Node5&#45;&gt;Node3</title>
<path fill="none" stroke="#9a32cd" stroke-dasharray="5,2" d="M1289.81,-277.11C1332.35,-266.92 1393.69,-251.07 1446,-233 1477.4,-222.16 1512.6,-206.47 1534.03,-196.51"/>
<polygon fill="#9a32cd" stroke="#9a32cd" points="1288.88,-273.73 1279.96,-279.45 1290.49,-280.54 1288.88,-273.73"/>
<text text-anchor="middle" x="1394.5" y="-266" font-family="Helvetica,sans-Serif" font-size="10.00"> handle</text>
</g>
<!-- Node6 -->
<g id="node6" class="node">
<title>Node6</title>
<g id="a_node6"><a xlink:href="structfiftyone_degrees_resource_manager.html" target="_top" xlink:title="Manager structure used to provide access to a shared and changing resource.">
<polygon fill="none" stroke="black" points="1464,-279.5 1464,-298.5 1646,-298.5 1646,-279.5 1464,-279.5"/>
<text text-anchor="middle" x="1555" y="-286.5" font-family="Helvetica,sans-Serif" font-size="10.00">fiftyoneDegreesResourceManager</text>
</a>
</g>
</g>
<!-- Node5&#45;&gt;Node6 -->
<g id="edge6" class="edge">
<title>Node5&#45;&gt;Node6</title>
<path fill="none" stroke="#9a32cd" stroke-dasharray="5,2" d="M1333.1,-288.05C1336.44,-288.03 1339.75,-288.02 1343,-288 1388.78,-287.78 1400.22,-287.79 1446,-288 1451.81,-288.03 1457.8,-288.06 1463.84,-288.1"/>
<polygon fill="#9a32cd" stroke="#9a32cd" points="1332.98,-284.55 1323,-288.12 1333.03,-291.55 1332.98,-284.55"/>
<text text-anchor="middle" x="1394.5" y="-291" font-family="Helvetica,sans-Serif" font-size="10.00"> active</text>
</g>
<!-- Node6&#45;&gt;Node5 -->
<g id="edge5" class="edge">
<title>Node6&#45;&gt;Node5</title>
<path fill="none" stroke="#9a32cd" stroke-dasharray="5,2" d="M1467.89,-299.43C1460.5,-300.07 1453.12,-300.61 1446,-301 1400.29,-303.53 1388.7,-303.59 1343,-301 1332.88,-300.43 1322.23,-299.55 1311.76,-298.52"/>
<polygon fill="#9a32cd" stroke="#9a32cd" points="1468.33,-302.91 1477.97,-298.52 1467.7,-295.94 1468.33,-302.91"/>
<text text-anchor="middle" x="1394.5" y="-305" font-family="Helvetica,sans-Serif" font-size="10.00"> manager</text>
</g>
<!-- Node7 -->
<g id="node7" class="node">
<title>Node7</title>
<g id="a_node7"><a xlink:href="structfiftyone_degrees_interlock_double_width.html" target="_top" xlink:title="Double width (64 or 128 depending on the architecture) compare and exchange.">
<polygon fill="none" stroke="black" points="775,-274 775,-304 912,-304 912,-274 775,-274"/>
<text text-anchor="start" x="783" y="-292" font-family="Helvetica,sans-Serif" font-size="10.00">fiftyoneDegreesInterlock</text>
<text text-anchor="middle" x="843.5" y="-281" font-family="Helvetica,sans-Serif" font-size="10.00">DoubleWidth</text>
</a>
</g>
</g>
<!-- Node7&#45;&gt;Node5 -->
<g id="edge7" class="edge">
<title>Node7&#45;&gt;Node5</title>
<path fill="none" stroke="#9a32cd" stroke-dasharray="5,2" d="M922.46,-289C988.18,-289 1082.1,-289 1149.89,-289"/>
<polygon fill="#9a32cd" stroke="#9a32cd" points="922.16,-285.5 912.16,-289 922.16,-292.5 922.16,-285.5"/>
<text text-anchor="middle" x="1040" y="-292" font-family="Helvetica,sans-Serif" font-size="10.00"> counter</text>
</g>
<!-- Node8 -->
<g id="node8" class="node">
<title>Node8</title>
<g id="a_node8"><a xlink:href="structfiftyone_degrees_file_pool.html" target="_top" xlink:title="Stack of handles used to read data from a single source file.">
<polygon fill="none" stroke="black" points="1170.5,-4.5 1170.5,-23.5 1302.5,-23.5 1302.5,-4.5 1170.5,-4.5"/>
<text text-anchor="middle" x="1236.5" y="-11.5" font-family="Helvetica,sans-Serif" font-size="10.00">fiftyoneDegreesFilePool</text>
</a>
</g>
</g>
<!-- Node8&#45;&gt;Node3 -->
<g id="edge8" class="edge">
<title>Node8&#45;&gt;Node3</title>
<path fill="none" stroke="#9a32cd" stroke-dasharray="5,2" d="M1299.75,-25.92C1308.31,-28.02 1316.92,-30.38 1325,-33 1380.85,-51.1 1396.97,-53.71 1446,-86 1487.81,-113.53 1528.59,-157.72 1545.65,-177.22"/>
<polygon fill="#9a32cd" stroke="#9a32cd" points="1300.31,-22.45 1289.77,-23.57 1298.71,-29.27 1300.31,-22.45"/>
<text text-anchor="middle" x="1394.5" y="-89" font-family="Helvetica,sans-Serif" font-size="10.00"> filePool</text>
</g>
<!-- Node9 -->
<g id="node9" class="node">
<title>Node9</title>
<g id="a_node9"><a xlink:href="structfiftyone_degrees_pool.html" target="_top" xlink:title="Pool of resources stored as items in a stack.">
<polygon fill="none" stroke="black" points="786,-56.5 786,-75.5 901,-75.5 901,-56.5 786,-56.5"/>
<text text-anchor="middle" x="843.5" y="-63.5" font-family="Helvetica,sans-Serif" font-size="10.00">fiftyoneDegreesPool</text>
</a>
</g>
</g>
<!-- Node9&#45;&gt;Node8 -->
<g id="edge9" class="edge">
<title>Node9&#45;&gt;Node8</title>
<path fill="none" stroke="#9a32cd" stroke-dasharray="5,2" d="M877.01,-52.76C897.58,-45.01 924.92,-35.82 950,-31 1024.6,-16.66 1112.01,-13.39 1170.27,-13.08"/>
<polygon fill="#9a32cd" stroke="#9a32cd" points="875.57,-49.57 867.5,-56.43 878.09,-56.1 875.57,-49.57"/>
<text text-anchor="middle" x="1040" y="-34" font-family="Helvetica,sans-Serif" font-size="10.00"> pool</text>
</g>
<!-- Node9&#45;&gt;Node9 -->
<g id="edge10" class="edge">
<title>Node9&#45;&gt;Node9</title>
<path fill="none" stroke="#9a32cd" stroke-dasharray="5,2" d="M819.32,-85.03C820.64,-90.13 828.7,-94 843.5,-94 866.61,-94 873.28,-84.57 863.54,-75.76"/>
<polygon fill="#9a32cd" stroke="#9a32cd" points="822.58,-86.31 823.46,-75.76 816.19,-83.46 822.58,-86.31"/>
<text text-anchor="middle" x="843.5" y="-97" font-family="Helvetica,sans-Serif" font-size="10.00"> resourceFree</text>
</g>
<!-- Node11 -->
<g id="node11" class="node">
<title>Node11</title>
<g id="a_node11"><a xlink:href="structfiftyone_degrees_pool_item.html" target="_top" xlink:title="Pool item node in the stack of items.">
<polygon fill="none" stroke="black" points="1168,-42.5 1168,-61.5 1305,-61.5 1305,-42.5 1168,-42.5"/>
<text text-anchor="middle" x="1236.5" y="-49.5" font-family="Helvetica,sans-Serif" font-size="10.00">fiftyoneDegreesPoolItem</text>
</a>
</g>
</g>
<!-- Node9&#45;&gt;Node11 -->
<g id="edge13" class="edge">
<title>Node9&#45;&gt;Node11</title>
<path fill="none" stroke="#9a32cd" stroke-dasharray="5,2" d="M903.41,-54.8C918.54,-52.4 934.82,-50.21 950,-49 1024.36,-43.05 1109.96,-45.13 1167.89,-47.86"/>
<polygon fill="#9a32cd" stroke="#9a32cd" points="902.45,-51.41 893.15,-56.49 903.59,-58.32 902.45,-51.41"/>
<text text-anchor="middle" x="1040" y="-52" font-family="Helvetica,sans-Serif" font-size="10.00"> pool</text>
</g>
<!-- Node10 -->
<g id="node10" class="node">
<title>Node10</title>
<g id="a_node10"><a xlink:href="unionfiftyone_degrees_pool_head.html" target="_top" xlink:title="The head of the stack used for pop and push operations.">
<polygon fill="none" stroke="black" points="510,-78.5 510,-97.5 650,-97.5 650,-78.5 510,-78.5"/>
<text text-anchor="middle" x="580" y="-85.5" font-family="Helvetica,sans-Serif" font-size="10.00">fiftyoneDegreesPoolHead</text>
</a>
</g>
</g>
<!-- Node10&#45;&gt;Node9 -->
<g id="edge11" class="edge">
<title>Node10&#45;&gt;Node9</title>
<path fill="none" stroke="#9a32cd" stroke-dasharray="5,2" d="M660.17,-81.34C700.71,-77.93 749.12,-73.86 785.86,-70.76"/>
<polygon fill="#9a32cd" stroke="#9a32cd" points="659.72,-77.86 650.05,-82.19 660.31,-84.84 659.72,-77.86"/>
<text text-anchor="middle" x="712.5" y="-81" font-family="Helvetica,sans-Serif" font-size="10.00"> head</text>
</g>
<!-- Node11&#45;&gt;Node9 -->
<g id="edge12" class="edge">
<title>Node11&#45;&gt;Node9</title>
<path fill="none" stroke="#9a32cd" stroke-dasharray="5,2" d="M1157.68,-60.09C1148.36,-60.85 1138.97,-61.51 1130,-62 1050.68,-66.31 958.79,-66.79 901.15,-66.55"/>
<polygon fill="#9a32cd" stroke="#9a32cd" points="1158.07,-63.57 1167.74,-59.24 1157.48,-56.59 1158.07,-63.57"/>
<text text-anchor="middle" x="1040" y="-69" font-family="Helvetica,sans-Serif" font-size="10.00"> stack</text>
</g>
<!-- Node12 -->
<g id="node12" class="node">
<title>Node12</title>
<g id="a_node12"><a xlink:href="structfiftyone_degrees_override_property_array.html" target="_top" xlink:title="Array of items of type fiftyoneDegreesOverrideProperty used to easily access and track the size of th...">
<polygon fill="none" stroke="black" points="1148,-178 1148,-208 1325,-208 1325,-178 1148,-178"/>
<text text-anchor="start" x="1156" y="-196" font-family="Helvetica,sans-Serif" font-size="10.00">fiftyoneDegreesOverrideProperty</text>
<text text-anchor="middle" x="1236.5" y="-185" font-family="Helvetica,sans-Serif" font-size="10.00">Array</text>
</a>
</g>
</g>
<!-- Node12&#45;&gt;Node3 -->
<g id="edge14" class="edge">
<title>Node12&#45;&gt;Node3</title>
<path fill="none" stroke="#9a32cd" stroke-dasharray="5,2" d="M1335.33,-188.22C1337.91,-188.14 1340.47,-188.07 1343,-188 1387.13,-186.85 1436.46,-186.56 1476.33,-186.58"/>
<polygon fill="#9a32cd" stroke="#9a32cd" points="1335.16,-184.72 1325.28,-188.56 1335.39,-191.72 1335.16,-184.72"/>
<text text-anchor="middle" x="1394.5" y="-191" font-family="Helvetica,sans-Serif" font-size="10.00"> overridable</text>
</g>
<!-- Node13 -->
<g id="node13" class="node">
<title>Node13</title>
<g id="a_node13"><a xlink:href="structfiftyone_degrees_override_property.html" target="_top" xlink:title="Index and pointer to a property which can be overridden.">
<polygon fill="none" stroke="black" points="755,-179.5 755,-198.5 932,-198.5 932,-179.5 755,-179.5"/>
<text text-anchor="middle" x="843.5" y="-186.5" font-family="Helvetica,sans-Serif" font-size="10.00">fiftyoneDegreesOverrideProperty</text>
</a>
</g>
</g>
<!-- Node13&#45;&gt;Node12 -->
<g id="edge15" class="edge">
<title>Node13&#45;&gt;Node12</title>
<path fill="none" stroke="#9a32cd" stroke-dasharray="5,2" d="M942.6,-190C1005.63,-190.65 1086.81,-191.48 1147.71,-192.1"/>
<polygon fill="#9a32cd" stroke="#9a32cd" points="942.28,-186.5 932.25,-189.9 942.21,-193.5 942.28,-186.5"/>
<text text-anchor="middle" x="1040" y="-194" font-family="Helvetica,sans-Serif" font-size="10.00"> items</text>
</g>
<!-- Node14 -->
<g id="node14" class="node">
<title>Node14</title>
<g id="a_node14"><a xlink:href="structfiftyone_degrees_property_available.html" target="_top" xlink:title="Used to access the property item quickly without the need to search.">
<polygon fill="none" stroke="black" points="490,-138.5 490,-157.5 670,-157.5 670,-138.5 490,-138.5"/>
<text text-anchor="middle" x="580" y="-145.5" font-family="Helvetica,sans-Serif" font-size="10.00">fiftyoneDegreesPropertyAvailable</text>
</a>
</g>
</g>
<!-- Node14&#45;&gt;Node13 -->
<g id="edge16" class="edge">
<title>Node14&#45;&gt;Node13</title>
<path fill="none" stroke="#9a32cd" stroke-dasharray="5,2" d="M651.76,-159.09C692.39,-165.46 742.89,-173.38 781.73,-179.47"/>
<polygon fill="#9a32cd" stroke="#9a32cd" points="652.07,-155.6 641.65,-157.51 650.99,-162.52 652.07,-155.6"/>
<text text-anchor="middle" x="712.5" y="-175" font-family="Helvetica,sans-Serif" font-size="10.00"> available</text>
</g>
<!-- Node20 -->
<g id="node20" class="node">
<title>Node20</title>
<g id="a_node20"><a xlink:href="structfiftyone_degrees_property_available_array.html" target="_top" xlink:title="Array of items of type fiftyoneDegreesPropertyAvailable used to easily access and track the size of t...">
<polygon fill="none" stroke="black" points="950,-133 950,-163 1130,-163 1130,-133 950,-133"/>
<text text-anchor="start" x="958" y="-151" font-family="Helvetica,sans-Serif" font-size="10.00">fiftyoneDegreesPropertyAvailable</text>
<text text-anchor="middle" x="1040" y="-140" font-family="Helvetica,sans-Serif" font-size="10.00">Array</text>
</a>
</g>
</g>
<!-- Node14&#45;&gt;Node20 -->
<g id="edge25" class="edge">
<title>Node14&#45;&gt;Node20</title>
<path fill="none" stroke="#9a32cd" stroke-dasharray="5,2" d="M680.23,-148C760.43,-148 872.32,-148 949.72,-148"/>
<polygon fill="#9a32cd" stroke="#9a32cd" points="680.12,-144.5 670.12,-148 680.12,-151.5 680.12,-144.5"/>
<text text-anchor="middle" x="712.5" y="-151" font-family="Helvetica,sans-Serif" font-size="10.00"> items</text>
</g>
<!-- Node15 -->
<g id="node15" class="node">
<title>Node15</title>
<g id="a_node15"><a xlink:href="structfiftyone_degrees_evidence_property_index_array.html" target="_top" xlink:title="Array of items of type fiftyoneDegreesEvidencePropertyIndex used to easily access and track the size ...">
<polygon fill="none" stroke="black" points="178,-133 178,-163 357,-163 357,-133 178,-133"/>
<text text-anchor="start" x="186" y="-151" font-family="Helvetica,sans-Serif" font-size="10.00">fiftyoneDegreesEvidenceProperty</text>
<text text-anchor="middle" x="267.5" y="-140" font-family="Helvetica,sans-Serif" font-size="10.00">IndexArray</text>
</a>
</g>
</g>
<!-- Node15&#45;&gt;Node14 -->
<g id="edge17" class="edge">
<title>Node15&#45;&gt;Node14</title>
<path fill="none" stroke="#9a32cd" stroke-dasharray="5,2" d="M367.2,-148C406.52,-148 451.45,-148 489.78,-148"/>
<polygon fill="#9a32cd" stroke="#9a32cd" points="367.06,-144.5 357.06,-148 367.06,-151.5 367.06,-144.5"/>
<text text-anchor="middle" x="423.5" y="-151" font-family="Helvetica,sans-Serif" font-size="10.00"> evidenceProperties</text>
</g>
<!-- Node16 -->
<g id="node16" class="node">
<title>Node16</title>
<g id="a_node16"><a xlink:href="structfiftyone_degrees_collection_item.html" target="_top" xlink:title="Used to store a handle to the underlying item that could be used to release the item when it&#39;s finish...">
<polygon fill="none" stroke="black" points="185,-34.5 185,-53.5 350,-53.5 350,-34.5 185,-34.5"/>
<text text-anchor="middle" x="267.5" y="-41.5" font-family="Helvetica,sans-Serif" font-size="10.00">fiftyoneDegreesCollectionItem</text>
</a>
</g>
</g>
<!-- Node16&#45;&gt;Node14 -->
<g id="edge18" class="edge">
<title>Node16&#45;&gt;Node14</title>
<path fill="none" stroke="#9a32cd" stroke-dasharray="5,2" d="M306.43,-56.71C369.41,-77.8 494.14,-119.58 550.35,-138.4"/>
<polygon fill="#9a32cd" stroke="#9a32cd" points="307.47,-53.36 296.88,-53.51 305.25,-60 307.47,-53.36"/>
<text text-anchor="middle" x="423.5" y="-114" font-family="Helvetica,sans-Serif" font-size="10.00"> name</text>
</g>
<!-- Node17 -->
<g id="node17" class="node">
<title>Node17</title>
<g id="a_node17"><a xlink:href="structfiftyone_degrees_collection.html" target="_top" xlink:title="All the shared methods and fields required by file, memory and cached collections.">
<polygon fill="none" stroke="black" points="508.5,-0.5 508.5,-19.5 651.5,-19.5 651.5,-0.5 508.5,-0.5"/>
<text text-anchor="middle" x="580" y="-7.5" font-family="Helvetica,sans-Serif" font-size="10.00">fiftyoneDegreesCollection</text>
</a>
</g>
</g>
<!-- Node16&#45;&gt;Node17 -->
<g id="edge20" class="edge">
<title>Node16&#45;&gt;Node17</title>
<path fill="none" stroke="#9a32cd" stroke-dasharray="5,2" d="M300.15,-30.66C321,-22.61 349.12,-13.14 375,-9 418.89,-1.97 468.77,-2.08 508.23,-4.01"/>
<polygon fill="#9a32cd" stroke="#9a32cd" points="298.84,-27.41 290.83,-34.35 301.42,-33.92 298.84,-27.41"/>
<text text-anchor="middle" x="423.5" y="-12" font-family="Helvetica,sans-Serif" font-size="10.00"> release</text>
</g>
<!-- Node17&#45;&gt;Node16 -->
<g id="edge19" class="edge">
<title>Node17&#45;&gt;Node16</title>
<path fill="none" stroke="#9a32cd" stroke-dasharray="5,2" d="M498.46,-19.07C489.53,-20.06 480.57,-21.06 472,-22 431.91,-26.42 387.37,-31.24 350.2,-35.24"/>
<polygon fill="#9a32cd" stroke="#9a32cd" points="498.95,-22.53 508.5,-17.95 498.17,-15.58 498.95,-22.53"/>
<text text-anchor="middle" x="423.5" y="-36" font-family="Helvetica,sans-Serif" font-size="10.00"> collection</text>
</g>
<!-- Node17&#45;&gt;Node17 -->
<g id="edge21" class="edge">
<title>Node17&#45;&gt;Node17</title>
<path fill="none" stroke="#9a32cd" stroke-dasharray="5,2" d="M555.45,-29.03C556.79,-34.13 564.97,-38 580,-38 603.46,-38 610.24,-28.57 600.35,-19.76"/>
<polygon fill="#9a32cd" stroke="#9a32cd" points="558.71,-30.31 559.65,-19.76 552.33,-27.42 558.71,-30.31"/>
<text text-anchor="middle" x="580" y="-52" font-family="Helvetica,sans-Serif" font-size="10.00"> freeCollection</text>
<text text-anchor="middle" x="580" y="-41" font-family="Helvetica,sans-Serif" font-size="10.00">get</text>
</g>
<!-- Node18 -->
<g id="node18" class="node">
<title>Node18</title>
<g id="a_node18"><a xlink:href="structfiftyone_degrees_data.html" target="_top" xlink:title="Data structure used for reusing memory which may have been allocated in a previous operation.">
<polygon fill="none" stroke="black" points="0,-34.5 0,-53.5 117,-53.5 117,-34.5 0,-34.5"/>
<text text-anchor="middle" x="58.5" y="-41.5" font-family="Helvetica,sans-Serif" font-size="10.00">fiftyoneDegreesData</text>
</a>
</g>
</g>
<!-- Node18&#45;&gt;Node16 -->
<g id="edge22" class="edge">
<title>Node18&#45;&gt;Node16</title>
<path fill="none" stroke="#9a32cd" stroke-dasharray="5,2" d="M127.19,-44C145.58,-44 165.7,-44 184.78,-44"/>
<polygon fill="#9a32cd" stroke="#9a32cd" points="127.16,-40.5 117.16,-44 127.16,-47.5 127.16,-40.5"/>
<text text-anchor="middle" x="147.5" y="-47" font-family="Helvetica,sans-Serif" font-size="10.00"> data</text>
</g>
<!-- Node19 -->
<g id="node19" class="node">
<title>Node19</title>
<g id="a_node19"><a xlink:href="structfiftyone_degrees_indices_property_profile.html" target="_top" xlink:title="Maps the profile index and the property index to the first value index of the profile for the propert...">
<polygon fill="none" stroke="black" points="1151.5,-81 1151.5,-111 1321.5,-111 1321.5,-81 1151.5,-81"/>
<text text-anchor="start" x="1159.5" y="-99" font-family="Helvetica,sans-Serif" font-size="10.00">fiftyoneDegreesIndicesProperty</text>
<text text-anchor="middle" x="1236.5" y="-88" font-family="Helvetica,sans-Serif" font-size="10.00">Profile</text>
</a>
</g>
</g>
<!-- Node19&#45;&gt;Node3 -->
<g id="edge23" class="edge">
<title>Node19&#45;&gt;Node3</title>
<path fill="none" stroke="#9a32cd" stroke-dasharray="5,2" d="M1331.84,-100.08C1368.27,-103.74 1409.8,-110.53 1446,-123 1483.5,-135.92 1522.27,-162.82 1541.55,-177.29"/>
<polygon fill="#9a32cd" stroke="#9a32cd" points="1332,-96.58 1321.71,-99.13 1331.34,-103.55 1332,-96.58"/>
<text text-anchor="middle" x="1394.5" y="-126" font-family="Helvetica,sans-Serif" font-size="10.00"> indexPropertyProfile</text>
</g>
<!-- Node20&#45;&gt;Node3 -->
<g id="edge24" class="edge">
<title>Node20&#45;&gt;Node3</title>
<path fill="none" stroke="#9a32cd" stroke-dasharray="5,2" d="M1140.05,-149.28C1194.67,-150.55 1263.66,-153.05 1325,-158 1381.32,-162.55 1445.07,-170.88 1490.98,-177.45"/>
<polygon fill="#9a32cd" stroke="#9a32cd" points="1140.1,-145.78 1130.02,-149.06 1139.94,-152.78 1140.1,-145.78"/>
<text text-anchor="middle" x="1236.5" y="-161" font-family="Helvetica,sans-Serif" font-size="10.00"> available</text>
</g>
</g>
</svg>
