<?xml version="1.0" encoding="UTF-8" standalone="no"?>
<!DOCTYPE svg PUBLIC "-//W3C//DTD SVG 1.1//EN"
 "http://www.w3.org/Graphics/SVG/1.1/DTD/svg11.dtd">
<!-- Generated by graphviz version 2.43.0 (0)
 -->
<!-- Title: fiftyoneDegreesPropertyAvailableArray Pages: 1 -->
<svg width="487pt" height="253pt"
 viewBox="0.00 0.00 487.00 253.00" xmlns="http://www.w3.org/2000/svg" xmlns:xlink="http://www.w3.org/1999/xlink">
<g id="graph0" class="graph" transform="scale(1 1) rotate(0) translate(4 249)">
<title>fiftyoneDegreesPropertyAvailableArray</title>
<!-- Node1 -->
<g id="node1" class="node">
<title>Node1</title>
<g id="a_node1"><a xlink:title="Array of items of type fiftyoneDegreesPropertyAvailable used to easily access and track the size of t...">
<polygon fill="#bfbfbf" stroke="black" points="27.5,-0.5 27.5,-30.5 207.5,-30.5 207.5,-0.5 27.5,-0.5"/>
<text text-anchor="start" x="35.5" y="-18.5" font-family="Helvetica,sans-Serif" font-size="10.00">fiftyoneDegreesPropertyAvailable</text>
<text text-anchor="middle" x="117.5" y="-7.5" font-family="Helvetica,sans-Serif" font-size="10.00">Array</text>
</a>
</g>
</g>
<!-- Node2 -->
<g id="node2" class="node">
<title>Node2</title>
<g id="a_node2"><a xlink:href="structfiftyone_degrees_property_available.html" target="_top" xlink:title="Used to access the property item quickly without the need to search.">
<polygon fill="none" stroke="black" points="27.5,-79.5 27.5,-98.5 207.5,-98.5 207.5,-79.5 27.5,-79.5"/>
<text text-anchor="middle" x="117.5" y="-86.5" font-family="Helvetica,sans-Serif" font-size="10.00">fiftyoneDegreesPropertyAvailable</text>
</a>
</g>
</g>
<!-- Node2&#45;&gt;Node1 -->
<g id="edge1" class="edge">
<title>Node2&#45;&gt;Node1</title>
<path fill="none" stroke="#9a32cd" stroke-dasharray="5,2" d="M117.5,-68.9C117.5,-56.82 117.5,-41.47 117.5,-30.51"/>
<polygon fill="#9a32cd" stroke="#9a32cd" points="114,-69.23 117.5,-79.23 121,-69.23 114,-69.23"/>
<text text-anchor="middle" x="133" y="-52" font-family="Helvetica,sans-Serif" font-size="10.00"> items</text>
</g>
<!-- Node3 -->
<g id="node3" class="node">
<title>Node3</title>
<g id="a_node3"><a xlink:href="structfiftyone_degrees_evidence_property_index_array.html" target="_top" xlink:title="Array of items of type fiftyoneDegreesEvidencePropertyIndex used to easily access and track the size ...">
<polygon fill="none" stroke="black" points="0,-147.5 0,-177.5 179,-177.5 179,-147.5 0,-147.5"/>
<text text-anchor="start" x="8" y="-165.5" font-family="Helvetica,sans-Serif" font-size="10.00">fiftyoneDegreesEvidenceProperty</text>
<text text-anchor="middle" x="89.5" y="-154.5" font-family="Helvetica,sans-Serif" font-size="10.00">IndexArray</text>
</a>
</g>
</g>
<!-- Node3&#45;&gt;Node2 -->
<g id="edge2" class="edge">
<title>Node3&#45;&gt;Node2</title>
<path fill="none" stroke="#9a32cd" stroke-dasharray="5,2" d="M92.79,-137.18C94.12,-130.79 95.96,-124.01 98.5,-118 101.43,-111.07 106.18,-104.07 110.2,-98.81"/>
<polygon fill="#9a32cd" stroke="#9a32cd" points="89.28,-136.91 91,-147.37 96.17,-138.12 89.28,-136.91"/>
<text text-anchor="middle" x="147" y="-121" font-family="Helvetica,sans-Serif" font-size="10.00"> evidenceProperties</text>
</g>
<!-- Node4 -->
<g id="node4" class="node">
<title>Node4</title>
<g id="a_node4"><a xlink:href="structfiftyone_degrees_collection_item.html" target="_top" xlink:title="Used to store a handle to the underlying item that could be used to release the item when it&#39;s finish...">
<polygon fill="none" stroke="black" points="197,-153 197,-172 362,-172 362,-153 197,-153"/>
<text text-anchor="middle" x="279.5" y="-160" font-family="Helvetica,sans-Serif" font-size="10.00">fiftyoneDegreesCollectionItem</text>
</a>
</g>
</g>
<!-- Node4&#45;&gt;Node2 -->
<g id="edge3" class="edge">
<title>Node4&#45;&gt;Node2</title>
<path fill="none" stroke="#9a32cd" stroke-dasharray="5,2" d="M255.33,-147.89C238.76,-138.84 216.14,-127 195.5,-118 178.75,-110.7 159.42,-103.75 144.2,-98.6"/>
<polygon fill="#9a32cd" stroke="#9a32cd" points="253.87,-151.08 264.32,-152.86 257.26,-144.96 253.87,-151.08"/>
<text text-anchor="middle" x="235" y="-121" font-family="Helvetica,sans-Serif" font-size="10.00"> name</text>
</g>
<!-- Node5 -->
<g id="node5" class="node">
<title>Node5</title>
<g id="a_node5"><a xlink:href="structfiftyone_degrees_collection.html" target="_top" xlink:title="All the shared methods and fields required by file, memory and cached collections.">
<polygon fill="none" stroke="black" points="246,-79.5 246,-98.5 389,-98.5 389,-79.5 246,-79.5"/>
<text text-anchor="middle" x="317.5" y="-86.5" font-family="Helvetica,sans-Serif" font-size="10.00">fiftyoneDegreesCollection</text>
</a>
</g>
</g>
<!-- Node4&#45;&gt;Node5 -->
<g id="edge5" class="edge">
<title>Node4&#45;&gt;Node5</title>
<path fill="none" stroke="#9a32cd" stroke-dasharray="5,2" d="M271.6,-143.51C269.21,-135.3 268.22,-125.71 272.5,-118 277.33,-109.31 286.09,-102.97 294.61,-98.54"/>
<polygon fill="#9a32cd" stroke="#9a32cd" points="268.33,-144.76 275.08,-152.93 274.9,-142.34 268.33,-144.76"/>
<text text-anchor="middle" x="292.5" y="-121" font-family="Helvetica,sans-Serif" font-size="10.00"> release</text>
</g>
<!-- Node5&#45;&gt;Node4 -->
<g id="edge4" class="edge">
<title>Node5&#45;&gt;Node4</title>
<path fill="none" stroke="#9a32cd" stroke-dasharray="5,2" d="M320.03,-108.72C320.17,-115.4 319.41,-122.79 316.5,-129 311.79,-139.07 302.32,-147.29 294.14,-152.95"/>
<polygon fill="#9a32cd" stroke="#9a32cd" points="323.5,-108.18 319.17,-98.51 316.52,-108.77 323.5,-108.18"/>
<text text-anchor="middle" x="344" y="-121" font-family="Helvetica,sans-Serif" font-size="10.00"> collection</text>
</g>
<!-- Node5&#45;&gt;Node5 -->
<g id="edge6" class="edge">
<title>Node5&#45;&gt;Node5</title>
<path fill="none" stroke="#9a32cd" stroke-dasharray="5,2" d="M399.11,-93.41C404.04,-92.36 407,-90.89 407,-89 407,-86.04 399.79,-84.12 389.13,-83.22"/>
<polygon fill="#9a32cd" stroke="#9a32cd" points="398.56,-89.96 389.13,-94.78 399.51,-96.89 398.56,-89.96"/>
<text text-anchor="middle" x="443" y="-92" font-family="Helvetica,sans-Serif" font-size="10.00"> freeCollection</text>
<text text-anchor="middle" x="443" y="-81" font-family="Helvetica,sans-Serif" font-size="10.00">get</text>
</g>
<!-- Node6 -->
<g id="node6" class="node">
<title>Node6</title>
<g id="a_node6"><a xlink:href="structfiftyone_degrees_data.html" target="_top" xlink:title="Data structure used for reusing memory which may have been allocated in a previous operation.">
<polygon fill="none" stroke="black" points="221,-225.5 221,-244.5 338,-244.5 338,-225.5 221,-225.5"/>
<text text-anchor="middle" x="279.5" y="-232.5" font-family="Helvetica,sans-Serif" font-size="10.00">fiftyoneDegreesData</text>
</a>
</g>
</g>
<!-- Node6&#45;&gt;Node4 -->
<g id="edge7" class="edge">
<title>Node6&#45;&gt;Node4</title>
<path fill="none" stroke="#9a32cd" stroke-dasharray="5,2" d="M279.5,-214.94C279.5,-201.03 279.5,-182.82 279.5,-172.22"/>
<polygon fill="#9a32cd" stroke="#9a32cd" points="276,-215.36 279.5,-225.36 283,-215.36 276,-215.36"/>
<text text-anchor="middle" x="292" y="-199" font-family="Helvetica,sans-Serif" font-size="10.00"> data</text>
</g>
</g>
</svg>
