<?xml version="1.0" encoding="UTF-8" standalone="no"?>
<!DOCTYPE svg PUBLIC "-//W3C//DTD SVG 1.1//EN"
 "http://www.w3.org/Graphics/SVG/1.1/DTD/svg11.dtd">
<!-- Generated by graphviz version 2.43.0 (0)
 -->
<!-- Title: fiftyoneDegreesDataSetBase Pages: 1 -->
<svg width="1654pt" height="343pt"
 viewBox="0.00 0.00 1654.00 343.00" xmlns="http://www.w3.org/2000/svg" xmlns:xlink="http://www.w3.org/1999/xlink">
<g id="graph0" class="graph" transform="scale(1 1) rotate(0) translate(4 339)">
<title>fiftyoneDegreesDataSetBase</title>
<!-- Node1 -->
<g id="node1" class="node">
<title>Node1</title>
<g id="a_node1"><a xlink:title="Base data set structure which contains the &#39;must have&#39;s for all data sets.">
<polygon fill="#bfbfbf" stroke="black" points="1476.5,-169.5 1476.5,-188.5 1633.5,-188.5 1633.5,-169.5 1476.5,-169.5"/>
<text text-anchor="middle" x="1555" y="-176.5" font-family="Helvetica,sans-Serif" font-size="10.00">fiftyoneDegreesDataSetBase</text>
</a>
</g>
</g>
<!-- Node2 -->
<g id="node2" class="node">
<title>Node2</title>
<g id="a_node2"><a xlink:href="structfiftyone_degrees_header_array.html" target="_top" xlink:title="Array of Headers which should always be ordered in ascending order of fullHeaderId.">
<polygon fill="none" stroke="black" points="1159,-238.5 1159,-257.5 1314,-257.5 1314,-238.5 1159,-238.5"/>
<text text-anchor="middle" x="1236.5" y="-245.5" font-family="Helvetica,sans-Serif" font-size="10.00">fiftyoneDegreesHeaderArray</text>
</a>
</g>
</g>
<!-- Node2&#45;&gt;Node1 -->
<g id="edge1" class="edge">
<title>Node2&#45;&gt;Node1</title>
<path fill="none" stroke="#9a32cd" stroke-dasharray="5,2" d="M1308.99,-236.78C1349.4,-229.98 1400.75,-220.59 1446,-210 1472.4,-203.82 1501.97,-195.21 1523.49,-188.63"/>
<polygon fill="#9a32cd" stroke="#9a32cd" points="1308.25,-233.35 1298.96,-238.45 1309.4,-240.26 1308.25,-233.35"/>
<text text-anchor="middle" x="1394.5" y="-233" font-family="Helvetica,sans-Serif" font-size="10.00"> uniqueHeaders</text>
</g>
<!-- Node3 -->
<g id="node3" class="node">
<title>Node3</title>
<g id="a_node3"><a xlink:href="structfiftyone_degrees_resource_handle.html" target="_top" xlink:title="Handle for a shared resource.">
<polygon fill="none" stroke="black" points="1150,-298.5 1150,-317.5 1323,-317.5 1323,-298.5 1150,-298.5"/>
<text text-anchor="middle" x="1236.5" y="-305.5" font-family="Helvetica,sans-Serif" font-size="10.00">fiftyoneDegreesResourceHandle</text>
</a>
</g>
</g>
<!-- Node3&#45;&gt;Node1 -->
<g id="edge2" class="edge">
<title>Node3&#45;&gt;Node1</title>
<path fill="none" stroke="#9a32cd" stroke-dasharray="5,2" d="M1290.13,-296.06C1333.11,-285.38 1394.88,-267.89 1446,-245 1482.1,-228.84 1520.83,-202.77 1540.64,-188.72"/>
<polygon fill="#9a32cd" stroke="#9a32cd" points="1289.06,-292.72 1280.17,-298.5 1290.72,-299.52 1289.06,-292.72"/>
<text text-anchor="middle" x="1394.5" y="-284" font-family="Helvetica,sans-Serif" font-size="10.00"> handle</text>
</g>
<!-- Node4 -->
<g id="node4" class="node">
<title>Node4</title>
<g id="a_node4"><a xlink:href="structfiftyone_degrees_resource_manager.html" target="_top" xlink:title="Manager structure used to provide access to a shared and changing resource.">
<polygon fill="none" stroke="black" points="1464,-315.5 1464,-334.5 1646,-334.5 1646,-315.5 1464,-315.5"/>
<text text-anchor="middle" x="1555" y="-322.5" font-family="Helvetica,sans-Serif" font-size="10.00">fiftyoneDegreesResourceManager</text>
</a>
</g>
</g>
<!-- Node3&#45;&gt;Node4 -->
<g id="edge4" class="edge">
<title>Node3&#45;&gt;Node4</title>
<path fill="none" stroke="#9a32cd" stroke-dasharray="5,2" d="M1333.43,-304.04C1368.86,-303.5 1409.31,-303.96 1446,-307 1466.18,-308.67 1488.26,-312.07 1507.16,-315.46"/>
<polygon fill="#9a32cd" stroke="#9a32cd" points="1333.03,-300.55 1323.1,-304.23 1333.16,-307.54 1333.03,-300.55"/>
<text text-anchor="middle" x="1394.5" y="-310" font-family="Helvetica,sans-Serif" font-size="10.00"> active</text>
</g>
<!-- Node4&#45;&gt;Node3 -->
<g id="edge3" class="edge">
<title>Node4&#45;&gt;Node3</title>
<path fill="none" stroke="#9a32cd" stroke-dasharray="5,2" d="M1453.59,-324.46C1418.56,-323.78 1379.02,-322.47 1343,-320 1333.62,-319.36 1323.79,-318.49 1314.06,-317.52"/>
<polygon fill="#9a32cd" stroke="#9a32cd" points="1453.76,-327.96 1463.82,-324.64 1453.88,-320.96 1453.76,-327.96"/>
<text text-anchor="middle" x="1394.5" y="-327" font-family="Helvetica,sans-Serif" font-size="10.00"> manager</text>
</g>
<!-- Node5 -->
<g id="node5" class="node">
<title>Node5</title>
<g id="a_node5"><a xlink:href="structfiftyone_degrees_interlock_double_width.html" target="_top" xlink:title="Double width (64 or 128 depending on the architecture) compare and exchange.">
<polygon fill="none" stroke="black" points="775,-293 775,-323 912,-323 912,-293 775,-293"/>
<text text-anchor="start" x="783" y="-311" font-family="Helvetica,sans-Serif" font-size="10.00">fiftyoneDegreesInterlock</text>
<text text-anchor="middle" x="843.5" y="-300" font-family="Helvetica,sans-Serif" font-size="10.00">DoubleWidth</text>
</a>
</g>
</g>
<!-- Node5&#45;&gt;Node3 -->
<g id="edge5" class="edge">
<title>Node5&#45;&gt;Node3</title>
<path fill="none" stroke="#9a32cd" stroke-dasharray="5,2" d="M922.46,-308C988.18,-308 1082.1,-308 1149.89,-308"/>
<polygon fill="#9a32cd" stroke="#9a32cd" points="922.16,-304.5 912.16,-308 922.16,-311.5 922.16,-304.5"/>
<text text-anchor="middle" x="1040" y="-311" font-family="Helvetica,sans-Serif" font-size="10.00"> counter</text>
</g>
<!-- Node6 -->
<g id="node6" class="node">
<title>Node6</title>
<g id="a_node6"><a xlink:href="structfiftyone_degrees_file_pool.html" target="_top" xlink:title="Stack of handles used to read data from a single source file.">
<polygon fill="none" stroke="black" points="1170.5,-15.5 1170.5,-34.5 1302.5,-34.5 1302.5,-15.5 1170.5,-15.5"/>
<text text-anchor="middle" x="1236.5" y="-22.5" font-family="Helvetica,sans-Serif" font-size="10.00">fiftyoneDegreesFilePool</text>
</a>
</g>
</g>
<!-- Node6&#45;&gt;Node1 -->
<g id="edge6" class="edge">
<title>Node6&#45;&gt;Node1</title>
<path fill="none" stroke="#9a32cd" stroke-dasharray="5,2" d="M1300.14,-36.85C1308.58,-38.95 1317.06,-41.34 1325,-44 1381.18,-62.85 1394.95,-69.92 1446,-100 1483.23,-121.94 1523.37,-153.7 1542.54,-169.43"/>
<polygon fill="#9a32cd" stroke="#9a32cd" points="1300.83,-33.41 1290.29,-34.5 1299.21,-40.22 1300.83,-33.41"/>
<text text-anchor="middle" x="1394.5" y="-103" font-family="Helvetica,sans-Serif" font-size="10.00"> filePool</text>
</g>
<!-- Node7 -->
<g id="node7" class="node">
<title>Node7</title>
<g id="a_node7"><a xlink:href="structfiftyone_degrees_pool.html" target="_top" xlink:title="Pool of resources stored as items in a stack.">
<polygon fill="none" stroke="black" points="786,-67.5 786,-86.5 901,-86.5 901,-67.5 786,-67.5"/>
<text text-anchor="middle" x="843.5" y="-74.5" font-family="Helvetica,sans-Serif" font-size="10.00">fiftyoneDegreesPool</text>
</a>
</g>
</g>
<!-- Node7&#45;&gt;Node6 -->
<g id="edge7" class="edge">
<title>Node7&#45;&gt;Node6</title>
<path fill="none" stroke="#9a32cd" stroke-dasharray="5,2" d="M877.01,-63.76C897.58,-56.01 924.92,-46.82 950,-42 1024.6,-27.66 1112.01,-24.39 1170.27,-24.08"/>
<polygon fill="#9a32cd" stroke="#9a32cd" points="875.57,-60.57 867.5,-67.43 878.09,-67.1 875.57,-60.57"/>
<text text-anchor="middle" x="1040" y="-45" font-family="Helvetica,sans-Serif" font-size="10.00"> pool</text>
</g>
<!-- Node7&#45;&gt;Node7 -->
<g id="edge8" class="edge">
<title>Node7&#45;&gt;Node7</title>
<path fill="none" stroke="#9a32cd" stroke-dasharray="5,2" d="M819.32,-96.03C820.64,-101.13 828.7,-105 843.5,-105 866.61,-105 873.28,-95.57 863.54,-86.76"/>
<polygon fill="#9a32cd" stroke="#9a32cd" points="822.58,-97.31 823.46,-86.76 816.19,-94.46 822.58,-97.31"/>
<text text-anchor="middle" x="843.5" y="-108" font-family="Helvetica,sans-Serif" font-size="10.00"> resourceFree</text>
</g>
<!-- Node9 -->
<g id="node9" class="node">
<title>Node9</title>
<g id="a_node9"><a xlink:href="structfiftyone_degrees_pool_item.html" target="_top" xlink:title="Pool item node in the stack of items.">
<polygon fill="none" stroke="black" points="1168,-53.5 1168,-72.5 1305,-72.5 1305,-53.5 1168,-53.5"/>
<text text-anchor="middle" x="1236.5" y="-60.5" font-family="Helvetica,sans-Serif" font-size="10.00">fiftyoneDegreesPoolItem</text>
</a>
</g>
</g>
<!-- Node7&#45;&gt;Node9 -->
<g id="edge11" class="edge">
<title>Node7&#45;&gt;Node9</title>
<path fill="none" stroke="#9a32cd" stroke-dasharray="5,2" d="M903.41,-65.8C918.54,-63.4 934.82,-61.21 950,-60 1024.36,-54.05 1109.96,-56.13 1167.89,-58.86"/>
<polygon fill="#9a32cd" stroke="#9a32cd" points="902.45,-62.41 893.15,-67.49 903.59,-69.32 902.45,-62.41"/>
<text text-anchor="middle" x="1040" y="-63" font-family="Helvetica,sans-Serif" font-size="10.00"> pool</text>
</g>
<!-- Node8 -->
<g id="node8" class="node">
<title>Node8</title>
<g id="a_node8"><a xlink:href="unionfiftyone_degrees_pool_head.html" target="_top" xlink:title="The head of the stack used for pop and push operations.">
<polygon fill="none" stroke="black" points="510,-89.5 510,-108.5 650,-108.5 650,-89.5 510,-89.5"/>
<text text-anchor="middle" x="580" y="-96.5" font-family="Helvetica,sans-Serif" font-size="10.00">fiftyoneDegreesPoolHead</text>
</a>
</g>
</g>
<!-- Node8&#45;&gt;Node7 -->
<g id="edge9" class="edge">
<title>Node8&#45;&gt;Node7</title>
<path fill="none" stroke="#9a32cd" stroke-dasharray="5,2" d="M660.17,-92.34C700.71,-88.93 749.12,-84.86 785.86,-81.76"/>
<polygon fill="#9a32cd" stroke="#9a32cd" points="659.72,-88.86 650.05,-93.19 660.31,-95.84 659.72,-88.86"/>
<text text-anchor="middle" x="712.5" y="-92" font-family="Helvetica,sans-Serif" font-size="10.00"> head</text>
</g>
<!-- Node9&#45;&gt;Node7 -->
<g id="edge10" class="edge">
<title>Node9&#45;&gt;Node7</title>
<path fill="none" stroke="#9a32cd" stroke-dasharray="5,2" d="M1157.68,-71.09C1148.36,-71.85 1138.97,-72.51 1130,-73 1050.68,-77.31 958.79,-77.79 901.15,-77.55"/>
<polygon fill="#9a32cd" stroke="#9a32cd" points="1158.07,-74.57 1167.74,-70.24 1157.48,-67.59 1158.07,-74.57"/>
<text text-anchor="middle" x="1040" y="-80" font-family="Helvetica,sans-Serif" font-size="10.00"> stack</text>
</g>
<!-- Node10 -->
<g id="node10" class="node">
<title>Node10</title>
<g id="a_node10"><a xlink:href="structfiftyone_degrees_override_property_array.html" target="_top" xlink:title="Array of items of type fiftyoneDegreesOverrideProperty used to easily access and track the size of th...">
<polygon fill="none" stroke="black" points="1148,-189 1148,-219 1325,-219 1325,-189 1148,-189"/>
<text text-anchor="start" x="1156" y="-207" font-family="Helvetica,sans-Serif" font-size="10.00">fiftyoneDegreesOverrideProperty</text>
<text text-anchor="middle" x="1236.5" y="-196" font-family="Helvetica,sans-Serif" font-size="10.00">Array</text>
</a>
</g>
</g>
<!-- Node10&#45;&gt;Node1 -->
<g id="edge12" class="edge">
<title>Node10&#45;&gt;Node1</title>
<path fill="none" stroke="#9a32cd" stroke-dasharray="5,2" d="M1335.39,-196.27C1380.72,-192.69 1433.82,-188.49 1476.34,-185.13"/>
<polygon fill="#9a32cd" stroke="#9a32cd" points="1334.94,-192.79 1325.24,-197.07 1335.49,-199.77 1334.94,-192.79"/>
<text text-anchor="middle" x="1394.5" y="-198" font-family="Helvetica,sans-Serif" font-size="10.00"> overridable</text>
</g>
<!-- Node11 -->
<g id="node11" class="node">
<title>Node11</title>
<g id="a_node11"><a xlink:href="structfiftyone_degrees_override_property.html" target="_top" xlink:title="Index and pointer to a property which can be overridden.">
<polygon fill="none" stroke="black" points="755,-190.5 755,-209.5 932,-209.5 932,-190.5 755,-190.5"/>
<text text-anchor="middle" x="843.5" y="-197.5" font-family="Helvetica,sans-Serif" font-size="10.00">fiftyoneDegreesOverrideProperty</text>
</a>
</g>
</g>
<!-- Node11&#45;&gt;Node10 -->
<g id="edge13" class="edge">
<title>Node11&#45;&gt;Node10</title>
<path fill="none" stroke="#9a32cd" stroke-dasharray="5,2" d="M942.6,-201C1005.63,-201.65 1086.81,-202.48 1147.71,-203.1"/>
<polygon fill="#9a32cd" stroke="#9a32cd" points="942.28,-197.5 932.25,-200.9 942.21,-204.5 942.28,-197.5"/>
<text text-anchor="middle" x="1040" y="-205" font-family="Helvetica,sans-Serif" font-size="10.00"> items</text>
</g>
<!-- Node12 -->
<g id="node12" class="node">
<title>Node12</title>
<g id="a_node12"><a xlink:href="structfiftyone_degrees_property_available.html" target="_top" xlink:title="Used to access the property item quickly without the need to search.">
<polygon fill="none" stroke="black" points="490,-149.5 490,-168.5 670,-168.5 670,-149.5 490,-149.5"/>
<text text-anchor="middle" x="580" y="-156.5" font-family="Helvetica,sans-Serif" font-size="10.00">fiftyoneDegreesPropertyAvailable</text>
</a>
</g>
</g>
<!-- Node12&#45;&gt;Node11 -->
<g id="edge14" class="edge">
<title>Node12&#45;&gt;Node11</title>
<path fill="none" stroke="#9a32cd" stroke-dasharray="5,2" d="M651.76,-170.09C692.39,-176.46 742.89,-184.38 781.73,-190.47"/>
<polygon fill="#9a32cd" stroke="#9a32cd" points="652.07,-166.6 641.65,-168.51 650.99,-173.52 652.07,-166.6"/>
<text text-anchor="middle" x="712.5" y="-186" font-family="Helvetica,sans-Serif" font-size="10.00"> available</text>
</g>
<!-- Node18 -->
<g id="node18" class="node">
<title>Node18</title>
<g id="a_node18"><a xlink:href="structfiftyone_degrees_property_available_array.html" target="_top" xlink:title="Array of items of type fiftyoneDegreesPropertyAvailable used to easily access and track the size of t...">
<polygon fill="none" stroke="black" points="950,-144 950,-174 1130,-174 1130,-144 950,-144"/>
<text text-anchor="start" x="958" y="-162" font-family="Helvetica,sans-Serif" font-size="10.00">fiftyoneDegreesPropertyAvailable</text>
<text text-anchor="middle" x="1040" y="-151" font-family="Helvetica,sans-Serif" font-size="10.00">Array</text>
</a>
</g>
</g>
<!-- Node12&#45;&gt;Node18 -->
<g id="edge23" class="edge">
<title>Node12&#45;&gt;Node18</title>
<path fill="none" stroke="#9a32cd" stroke-dasharray="5,2" d="M680.23,-159C760.43,-159 872.32,-159 949.72,-159"/>
<polygon fill="#9a32cd" stroke="#9a32cd" points="680.12,-155.5 670.12,-159 680.12,-162.5 680.12,-155.5"/>
<text text-anchor="middle" x="712.5" y="-162" font-family="Helvetica,sans-Serif" font-size="10.00"> items</text>
</g>
<!-- Node13 -->
<g id="node13" class="node">
<title>Node13</title>
<g id="a_node13"><a xlink:href="structfiftyone_degrees_evidence_property_index_array.html" target="_top" xlink:title="Array of items of type fiftyoneDegreesEvidencePropertyIndex used to easily access and track the size ...">
<polygon fill="none" stroke="black" points="178,-144 178,-174 357,-174 357,-144 178,-144"/>
<text text-anchor="start" x="186" y="-162" font-family="Helvetica,sans-Serif" font-size="10.00">fiftyoneDegreesEvidenceProperty</text>
<text text-anchor="middle" x="267.5" y="-151" font-family="Helvetica,sans-Serif" font-size="10.00">IndexArray</text>
</a>
</g>
</g>
<!-- Node13&#45;&gt;Node12 -->
<g id="edge15" class="edge">
<title>Node13&#45;&gt;Node12</title>
<path fill="none" stroke="#9a32cd" stroke-dasharray="5,2" d="M367.2,-159C406.52,-159 451.45,-159 489.78,-159"/>
<polygon fill="#9a32cd" stroke="#9a32cd" points="367.06,-155.5 357.06,-159 367.06,-162.5 367.06,-155.5"/>
<text text-anchor="middle" x="423.5" y="-162" font-family="Helvetica,sans-Serif" font-size="10.00"> evidenceProperties</text>
</g>
<!-- Node14 -->
<g id="node14" class="node">
<title>Node14</title>
<g id="a_node14"><a xlink:href="structfiftyone_degrees_collection_item.html" target="_top" xlink:title="Used to store a handle to the underlying item that could be used to release the item when it&#39;s finish...">
<polygon fill="none" stroke="black" points="185,-34.5 185,-53.5 350,-53.5 350,-34.5 185,-34.5"/>
<text text-anchor="middle" x="267.5" y="-41.5" font-family="Helvetica,sans-Serif" font-size="10.00">fiftyoneDegreesCollectionItem</text>
</a>
</g>
</g>
<!-- Node14&#45;&gt;Node12 -->
<g id="edge16" class="edge">
<title>Node14&#45;&gt;Node12</title>
<path fill="none" stroke="#9a32cd" stroke-dasharray="5,2" d="M303.7,-57.04C366.82,-80.41 497.83,-128.94 553.3,-149.48"/>
<polygon fill="#9a32cd" stroke="#9a32cd" points="304.77,-53.7 294.17,-53.51 302.34,-60.26 304.77,-53.7"/>
<text text-anchor="middle" x="423.5" y="-121" font-family="Helvetica,sans-Serif" font-size="10.00"> name</text>
</g>
<!-- Node15 -->
<g id="node15" class="node">
<title>Node15</title>
<g id="a_node15"><a xlink:href="structfiftyone_degrees_collection.html" target="_top" xlink:title="All the shared methods and fields required by file, memory and cached collections.">
<polygon fill="none" stroke="black" points="508.5,-0.5 508.5,-19.5 651.5,-19.5 651.5,-0.5 508.5,-0.5"/>
<text text-anchor="middle" x="580" y="-7.5" font-family="Helvetica,sans-Serif" font-size="10.00">fiftyoneDegreesCollection</text>
</a>
</g>
</g>
<!-- Node14&#45;&gt;Node15 -->
<g id="edge18" class="edge">
<title>Node14&#45;&gt;Node15</title>
<path fill="none" stroke="#9a32cd" stroke-dasharray="5,2" d="M300.15,-30.66C321,-22.61 349.12,-13.14 375,-9 418.89,-1.97 468.77,-2.08 508.23,-4.01"/>
<polygon fill="#9a32cd" stroke="#9a32cd" points="298.84,-27.41 290.83,-34.35 301.42,-33.92 298.84,-27.41"/>
<text text-anchor="middle" x="423.5" y="-12" font-family="Helvetica,sans-Serif" font-size="10.00"> release</text>
</g>
<!-- Node15&#45;&gt;Node14 -->
<g id="edge17" class="edge">
<title>Node15&#45;&gt;Node14</title>
<path fill="none" stroke="#9a32cd" stroke-dasharray="5,2" d="M498.46,-19.07C489.53,-20.06 480.57,-21.06 472,-22 431.91,-26.42 387.37,-31.24 350.2,-35.24"/>
<polygon fill="#9a32cd" stroke="#9a32cd" points="498.95,-22.53 508.5,-17.95 498.17,-15.58 498.95,-22.53"/>
<text text-anchor="middle" x="423.5" y="-36" font-family="Helvetica,sans-Serif" font-size="10.00"> collection</text>
</g>
<!-- Node15&#45;&gt;Node15 -->
<g id="edge19" class="edge">
<title>Node15&#45;&gt;Node15</title>
<path fill="none" stroke="#9a32cd" stroke-dasharray="5,2" d="M555.45,-29.03C556.79,-34.13 564.97,-38 580,-38 603.46,-38 610.24,-28.57 600.35,-19.76"/>
<polygon fill="#9a32cd" stroke="#9a32cd" points="558.71,-30.31 559.65,-19.76 552.33,-27.42 558.71,-30.31"/>
<text text-anchor="middle" x="580" y="-63" font-family="Helvetica,sans-Serif" font-size="10.00"> next</text>
<text text-anchor="middle" x="580" y="-52" font-family="Helvetica,sans-Serif" font-size="10.00">freeCollection</text>
<text text-anchor="middle" x="580" y="-41" font-family="Helvetica,sans-Serif" font-size="10.00">get</text>
</g>
<!-- Node16 -->
<g id="node16" class="node">
<title>Node16</title>
<g id="a_node16"><a xlink:href="structfiftyone_degrees_data.html" target="_top" xlink:title="Data structure used for reusing memory which may have been allocated in a previous operation.">
<polygon fill="none" stroke="black" points="0,-34.5 0,-53.5 117,-53.5 117,-34.5 0,-34.5"/>
<text text-anchor="middle" x="58.5" y="-41.5" font-family="Helvetica,sans-Serif" font-size="10.00">fiftyoneDegreesData</text>
</a>
</g>
</g>
<!-- Node16&#45;&gt;Node14 -->
<g id="edge20" class="edge">
<title>Node16&#45;&gt;Node14</title>
<path fill="none" stroke="#9a32cd" stroke-dasharray="5,2" d="M127.19,-44C145.58,-44 165.7,-44 184.78,-44"/>
<polygon fill="#9a32cd" stroke="#9a32cd" points="127.16,-40.5 117.16,-44 127.16,-47.5 127.16,-40.5"/>
<text text-anchor="middle" x="147.5" y="-47" font-family="Helvetica,sans-Serif" font-size="10.00"> data</text>
</g>
<!-- Node17 -->
<g id="node17" class="node">
<title>Node17</title>
<g id="a_node17"><a xlink:href="structfiftyone_degrees_indices_property_profile.html" target="_top" xlink:title="Maps the profile index and the property index to the first value index of the profile for the propert...">
<polygon fill="none" stroke="black" points="1151.5,-92 1151.5,-122 1321.5,-122 1321.5,-92 1151.5,-92"/>
<text text-anchor="start" x="1159.5" y="-110" font-family="Helvetica,sans-Serif" font-size="10.00">fiftyoneDegreesIndicesProperty</text>
<text text-anchor="middle" x="1236.5" y="-99" font-family="Helvetica,sans-Serif" font-size="10.00">Profile</text>
</a>
</g>
</g>
<!-- Node17&#45;&gt;Node1 -->
<g id="edge21" class="edge">
<title>Node17&#45;&gt;Node1</title>
<path fill="none" stroke="#9a32cd" stroke-dasharray="5,2" d="M1331.74,-113.84C1367.89,-117.85 1409.26,-124.16 1446,-134 1478.57,-142.73 1514.31,-159.06 1535.42,-169.46"/>
<polygon fill="#9a32cd" stroke="#9a32cd" points="1332,-110.35 1321.69,-112.77 1331.26,-117.31 1332,-110.35"/>
<text text-anchor="middle" x="1394.5" y="-137" font-family="Helvetica,sans-Serif" font-size="10.00"> indexPropertyProfile</text>
</g>
<!-- Node18&#45;&gt;Node1 -->
<g id="edge22" class="edge">
<title>Node18&#45;&gt;Node1</title>
<path fill="none" stroke="#9a32cd" stroke-dasharray="5,2" d="M1140.24,-162.29C1194.77,-164.15 1263.62,-166.58 1325,-169 1375.4,-170.99 1432.03,-173.46 1476.37,-175.45"/>
<polygon fill="#9a32cd" stroke="#9a32cd" points="1140.34,-158.79 1130.23,-161.95 1140.1,-165.79 1140.34,-158.79"/>
<text text-anchor="middle" x="1236.5" y="-172" font-family="Helvetica,sans-Serif" font-size="10.00"> available</text>
</g>
</g>
</svg>
