<?xml version="1.0" encoding="UTF-8" standalone="no"?>
<!DOCTYPE svg PUBLIC "-//W3C//DTD SVG 1.1//EN"
 "http://www.w3.org/Graphics/SVG/1.1/DTD/svg11.dtd">
<!-- Generated by graphviz version 2.43.0 (0)
 -->
<!-- Title: performanceState Pages: 1 -->
<svg width="728pt" height="340pt"
 viewBox="0.00 0.00 728.00 340.00" xmlns="http://www.w3.org/2000/svg" xmlns:xlink="http://www.w3.org/1999/xlink">
<g id="graph0" class="graph" transform="scale(1 1) rotate(0) translate(4 336)">
<title>performanceState</title>
<!-- Node1 -->
<g id="node1" class="node">
<title>Node1</title>
<g id="a_node1"><a xlink:title="Single state containing everything needed for running and then reporting the performance tests.">
<polygon fill="#bfbfbf" stroke="black" points="81,-78.5 81,-97.5 185,-97.5 185,-78.5 81,-78.5"/>
<text text-anchor="middle" x="133" y="-85.5" font-family="Helvetica,sans-Serif" font-size="10.00">performanceState</text>
</a>
</g>
</g>
<!-- Node6 -->
<g id="node6" class="node">
<title>Node6</title>
<g id="a_node6"><a xlink:href="structthread_state.html" target="_top" xlink:title="State specific to a single thread.">
<polygon fill="none" stroke="black" points="178,-0.5 178,-19.5 252,-19.5 252,-0.5 178,-0.5"/>
<text text-anchor="middle" x="215" y="-7.5" font-family="Helvetica,sans-Serif" font-size="10.00">threadState</text>
</a>
</g>
</g>
<!-- Node1&#45;&gt;Node6 -->
<g id="edge15" class="edge">
<title>Node1&#45;&gt;Node6</title>
<path fill="none" stroke="#9a32cd" stroke-dasharray="5,2" d="M107.16,-72.43C103.06,-68.91 99.38,-64.77 97,-60 92.63,-51.25 90.91,-45.65 97,-38 107.02,-25.43 147.21,-18.24 177.93,-14.49"/>
<polygon fill="#9a32cd" stroke="#9a32cd" points="105.22,-75.34 115.36,-78.41 109.34,-69.69 105.22,-75.34"/>
<text text-anchor="middle" x="124" y="-46.5" font-family="Helvetica,sans-Serif" font-size="10.00"> mainState</text>
</g>
<!-- Node2 -->
<g id="node2" class="node">
<title>Node2</title>
<g id="a_node2"><a xlink:href="structfiftyone_degrees_resource_manager.html" target="_top" xlink:title="Manager structure used to provide access to a shared and changing resource.">
<polygon fill="none" stroke="black" points="165,-162 165,-181 347,-181 347,-162 165,-162"/>
<text text-anchor="middle" x="256" y="-169" font-family="Helvetica,sans-Serif" font-size="10.00">fiftyoneDegreesResourceManager</text>
</a>
</g>
</g>
<!-- Node2&#45;&gt;Node1 -->
<g id="edge1" class="edge">
<title>Node2&#45;&gt;Node1</title>
<path fill="none" stroke="#9a32cd" stroke-dasharray="5,2" d="M228.9,-157.39C218.1,-151.82 205.72,-145.01 195,-138 175.48,-125.23 154.54,-107.82 142.68,-97.55"/>
<polygon fill="#9a32cd" stroke="#9a32cd" points="227.4,-160.55 237.9,-161.93 230.55,-154.3 227.4,-160.55"/>
<text text-anchor="middle" x="218.5" y="-124.5" font-family="Helvetica,sans-Serif" font-size="10.00"> manager</text>
</g>
<!-- Node3 -->
<g id="node3" class="node">
<title>Node3</title>
<g id="a_node3"><a xlink:href="structfiftyone_degrees_resource_handle.html" target="_top" xlink:title="Handle for a shared resource.">
<polygon fill="none" stroke="black" points="321.5,-78.5 321.5,-97.5 494.5,-97.5 494.5,-78.5 321.5,-78.5"/>
<text text-anchor="middle" x="408" y="-85.5" font-family="Helvetica,sans-Serif" font-size="10.00">fiftyoneDegreesResourceHandle</text>
</a>
</g>
</g>
<!-- Node2&#45;&gt;Node3 -->
<g id="edge3" class="edge">
<title>Node2&#45;&gt;Node3</title>
<path fill="none" stroke="#9a32cd" stroke-dasharray="5,2" d="M265.35,-152.81C272.67,-140.67 283.94,-125.16 298,-116 311.18,-107.41 326.87,-101.56 342.2,-97.56"/>
<polygon fill="#9a32cd" stroke="#9a32cd" points="262.24,-151.21 260.36,-161.64 268.33,-154.66 262.24,-151.21"/>
<text text-anchor="middle" x="321.5" y="-124.5" font-family="Helvetica,sans-Serif" font-size="10.00"> manager</text>
</g>
<!-- Node2&#45;&gt;Node6 -->
<g id="edge8" class="edge">
<title>Node2&#45;&gt;Node6</title>
<path fill="none" stroke="#9a32cd" stroke-dasharray="5,2" d="M257.82,-151.7C259.58,-125.02 259.79,-75.28 242,-38 238.57,-30.82 232.43,-24.44 226.86,-19.69"/>
<polygon fill="#9a32cd" stroke="#9a32cd" points="254.31,-151.66 256.99,-161.91 261.28,-152.23 254.31,-151.66"/>
<text text-anchor="middle" x="280.5" y="-85.5" font-family="Helvetica,sans-Serif" font-size="10.00"> manager</text>
</g>
<!-- Node3&#45;&gt;Node2 -->
<g id="edge2" class="edge">
<title>Node3&#45;&gt;Node2</title>
<path fill="none" stroke="#9a32cd" stroke-dasharray="5,2" d="M392.24,-104.78C380.98,-115.34 365.04,-128.93 349,-138 330.39,-148.52 307.78,-156.52 289.52,-161.95"/>
<polygon fill="#9a32cd" stroke="#9a32cd" points="394.79,-107.19 399.55,-97.72 389.93,-102.15 394.79,-107.19"/>
<text text-anchor="middle" x="397" y="-124.5" font-family="Helvetica,sans-Serif" font-size="10.00"> active</text>
</g>
<!-- Node4 -->
<g id="node4" class="node">
<title>Node4</title>
<g id="a_node4"><a xlink:href="structfiftyone_degrees_interlock_double_width.html" target="_top" xlink:title="Double width (64 or 128 depending on the architecture) compare and exchange.">
<polygon fill="none" stroke="black" points="365.5,-156.5 365.5,-186.5 502.5,-186.5 502.5,-156.5 365.5,-156.5"/>
<text text-anchor="start" x="373.5" y="-174.5" font-family="Helvetica,sans-Serif" font-size="10.00">fiftyoneDegreesInterlock</text>
<text text-anchor="middle" x="434" y="-163.5" font-family="Helvetica,sans-Serif" font-size="10.00">DoubleWidth</text>
</a>
</g>
</g>
<!-- Node4&#45;&gt;Node3 -->
<g id="edge4" class="edge">
<title>Node4&#45;&gt;Node3</title>
<path fill="none" stroke="#9a32cd" stroke-dasharray="5,2" d="M426.41,-146.72C421.14,-130.18 414.41,-109.1 410.72,-97.54"/>
<polygon fill="#9a32cd" stroke="#9a32cd" points="423.1,-147.84 429.47,-156.3 429.77,-145.71 423.1,-147.84"/>
<text text-anchor="middle" x="444" y="-124.5" font-family="Helvetica,sans-Serif" font-size="10.00"> counter</text>
</g>
<!-- Node5 -->
<g id="node5" class="node">
<title>Node5</title>
<g id="a_node5"><a xlink:href="structshared_string_node.html" target="_top" xlink:title=" ">
<polygon fill="none" stroke="black" points="0,-162 0,-181 104,-181 104,-162 0,-162"/>
<text text-anchor="middle" x="52" y="-169" font-family="Helvetica,sans-Serif" font-size="10.00">sharedStringNode</text>
</a>
</g>
</g>
<!-- Node5&#45;&gt;Node1 -->
<g id="edge5" class="edge">
<title>Node5&#45;&gt;Node1</title>
<path fill="none" stroke="#9a32cd" stroke-dasharray="5,2" d="M57.67,-152.19C62.01,-140.65 68.96,-126.08 79,-116 86.99,-107.98 97.85,-101.92 107.73,-97.6"/>
<polygon fill="#9a32cd" stroke="#9a32cd" points="54.34,-151.12 54.42,-161.72 60.96,-153.38 54.34,-151.12"/>
<text text-anchor="middle" x="121.5" y="-130" font-family="Helvetica,sans-Serif" font-size="10.00"> sharedStringLast</text>
<text text-anchor="middle" x="121.5" y="-119" font-family="Helvetica,sans-Serif" font-size="10.00">sharedStringFirst</text>
</g>
<!-- Node5&#45;&gt;Node5 -->
<g id="edge6" class="edge">
<title>Node5&#45;&gt;Node5</title>
<path fill="none" stroke="#9a32cd" stroke-dasharray="5,2" d="M114.4,-176.83C119.11,-175.64 122,-173.87 122,-171.5 122,-167.71 114.59,-165.44 104.2,-164.67"/>
<polygon fill="#9a32cd" stroke="#9a32cd" points="113.59,-173.41 104.2,-178.33 114.61,-180.34 113.59,-173.41"/>
<text text-anchor="middle" x="134.5" y="-169" font-family="Helvetica,sans-Serif" font-size="10.00"> next</text>
</g>
<!-- Node6&#45;&gt;Node1 -->
<g id="edge7" class="edge">
<title>Node6&#45;&gt;Node1</title>
<path fill="none" stroke="#9a32cd" stroke-dasharray="5,2" d="M192.3,-25.33C186.77,-29.19 181,-33.54 176,-38 161.64,-50.8 147.39,-68.21 139.44,-78.46"/>
<polygon fill="#9a32cd" stroke="#9a32cd" points="194.31,-28.19 200.67,-19.71 190.41,-22.38 194.31,-28.19"/>
<text text-anchor="middle" x="209" y="-46.5" font-family="Helvetica,sans-Serif" font-size="10.00"> threadStates</text>
</g>
<!-- Node7 -->
<g id="node7" class="node">
<title>Node7</title>
<g id="a_node7"><a xlink:href="structevidence_node.html" target="_top" xlink:title=" ">
<polygon fill="none" stroke="black" points="524,-78.5 524,-97.5 610,-97.5 610,-78.5 524,-78.5"/>
<text text-anchor="middle" x="567" y="-85.5" font-family="Helvetica,sans-Serif" font-size="10.00">evidenceNode</text>
</a>
</g>
</g>
<!-- Node7&#45;&gt;Node6 -->
<g id="edge9" class="edge">
<title>Node7&#45;&gt;Node6</title>
<path fill="none" stroke="#9a32cd" stroke-dasharray="5,2" d="M517.21,-76.25C445.77,-60.83 315.82,-32.77 252.16,-19.02"/>
<polygon fill="#9a32cd" stroke="#9a32cd" points="516.79,-79.74 527.31,-78.43 518.27,-72.9 516.79,-79.74"/>
<text text-anchor="middle" x="467" y="-52" font-family="Helvetica,sans-Serif" font-size="10.00"> evidenceLast</text>
<text text-anchor="middle" x="467" y="-41" font-family="Helvetica,sans-Serif" font-size="10.00">evidenceFirst</text>
</g>
<!-- Node7&#45;&gt;Node7 -->
<g id="edge10" class="edge">
<title>Node7&#45;&gt;Node7</title>
<path fill="none" stroke="#9a32cd" stroke-dasharray="5,2" d="M620.25,-93.63C625.01,-92.45 628,-90.57 628,-88 628,-83.88 620.35,-81.55 610.04,-81"/>
<polygon fill="#9a32cd" stroke="#9a32cd" points="619.48,-90.2 610.04,-95 620.41,-97.14 619.48,-90.2"/>
<text text-anchor="middle" x="640.5" y="-85.5" font-family="Helvetica,sans-Serif" font-size="10.00"> next</text>
</g>
<!-- Node8 -->
<g id="node8" class="node">
<title>Node8</title>
<g id="a_node8"><a xlink:href="structfiftyone_degrees_evidence_key_value_pair_array.html" target="_top" xlink:title="Array of evidence key value pairs and a pointer to the next array if present or NULL of not present.">
<polygon fill="none" stroke="black" points="521,-156.5 521,-186.5 677,-186.5 677,-156.5 521,-156.5"/>
<text text-anchor="start" x="529" y="-174.5" font-family="Helvetica,sans-Serif" font-size="10.00">fiftyoneDegreesEvidenceKey</text>
<text text-anchor="middle" x="599" y="-163.5" font-family="Helvetica,sans-Serif" font-size="10.00">ValuePairArray</text>
</a>
</g>
</g>
<!-- Node8&#45;&gt;Node7 -->
<g id="edge11" class="edge">
<title>Node8&#45;&gt;Node7</title>
<path fill="none" stroke="#9a32cd" stroke-dasharray="5,2" d="M589.66,-146.72C583.17,-130.18 574.89,-109.1 570.35,-97.54"/>
<polygon fill="#9a32cd" stroke="#9a32cd" points="586.51,-148.27 593.43,-156.3 593.03,-145.72 586.51,-148.27"/>
<text text-anchor="middle" x="600.5" y="-124.5" font-family="Helvetica,sans-Serif" font-size="10.00"> array</text>
</g>
<!-- Node8&#45;&gt;Node8 -->
<g id="edge14" class="edge">
<title>Node8&#45;&gt;Node8</title>
<path fill="none" stroke="#9a32cd" stroke-dasharray="5,2" d="M687.24,-176.27C692.1,-175.11 695,-173.52 695,-171.5 695,-168.35 687.94,-166.24 677.35,-165.18"/>
<polygon fill="#9a32cd" stroke="#9a32cd" points="686.69,-172.82 677.35,-177.82 687.77,-179.73 686.69,-172.82"/>
<text text-anchor="middle" x="707.5" y="-174.5" font-family="Helvetica,sans-Serif" font-size="10.00"> prev</text>
<text text-anchor="middle" x="707.5" y="-163.5" font-family="Helvetica,sans-Serif" font-size="10.00">next</text>
</g>
<!-- Node9 -->
<g id="node9" class="node">
<title>Node9</title>
<g id="a_node9"><a xlink:href="structfiftyone_degrees_evidence_key_value_pair.html" target="_top" xlink:title="Evidence key value pair structure which combines the prefix, key and value.">
<polygon fill="none" stroke="black" points="521,-234.5 521,-264.5 677,-264.5 677,-234.5 521,-234.5"/>
<text text-anchor="start" x="529" y="-252.5" font-family="Helvetica,sans-Serif" font-size="10.00">fiftyoneDegreesEvidenceKey</text>
<text text-anchor="middle" x="599" y="-241.5" font-family="Helvetica,sans-Serif" font-size="10.00">ValuePair</text>
</a>
</g>
</g>
<!-- Node9&#45;&gt;Node8 -->
<g id="edge12" class="edge">
<title>Node9&#45;&gt;Node8</title>
<path fill="none" stroke="#9a32cd" stroke-dasharray="5,2" d="M599,-224.09C599,-211.76 599,-197.22 599,-186.73"/>
<polygon fill="#9a32cd" stroke="#9a32cd" points="595.5,-224.2 599,-234.2 602.5,-224.21 595.5,-224.2"/>
<text text-anchor="middle" x="614.5" y="-208" font-family="Helvetica,sans-Serif" font-size="10.00"> items</text>
</g>
<!-- Node10 -->
<g id="node10" class="node">
<title>Node10</title>
<g id="a_node10"><a xlink:href="structfiftyone_degrees_key_value_pair.html" target="_top" xlink:title=" ">
<polygon fill="none" stroke="black" points="520.5,-312.5 520.5,-331.5 677.5,-331.5 677.5,-312.5 520.5,-312.5"/>
<text text-anchor="middle" x="599" y="-319.5" font-family="Helvetica,sans-Serif" font-size="10.00">fiftyoneDegreesKeyValuePair</text>
</a>
</g>
</g>
<!-- Node10&#45;&gt;Node9 -->
<g id="edge13" class="edge">
<title>Node10&#45;&gt;Node9</title>
<path fill="none" stroke="#9a32cd" stroke-dasharray="5,2" d="M599,-302.24C599,-290.41 599,-275.38 599,-264.58"/>
<polygon fill="#9a32cd" stroke="#9a32cd" points="595.5,-302.36 599,-312.36 602.5,-302.36 595.5,-302.36"/>
<text text-anchor="middle" x="612" y="-286" font-family="Helvetica,sans-Serif" font-size="10.00"> item</text>
</g>
</g>
</svg>
