<?xml version="1.0" encoding="UTF-8" standalone="no"?>
<!DOCTYPE svg PUBLIC "-//W3C//DTD SVG 1.1//EN"
 "http://www.w3.org/Graphics/SVG/1.1/DTD/svg11.dtd">
<!-- Generated by graphviz version 2.43.0 (0)
 -->
<!-- Title: fiftyoneDegreesJson Pages: 1 -->
<svg width="797pt" height="220pt"
 viewBox="0.00 0.00 797.00 220.00" xmlns="http://www.w3.org/2000/svg" xmlns:xlink="http://www.w3.org/1999/xlink">
<g id="graph0" class="graph" transform="scale(1 1) rotate(0) translate(4 216)">
<title>fiftyoneDegreesJson</title>
<!-- Node1 -->
<g id="node1" class="node">
<title>Node1</title>
<g id="a_node1"><a xlink:title="Structure used to populated a JSON string for all required properties and values.">
<polygon fill="#bfbfbf" stroke="black" points="675,-76.5 675,-95.5 789,-95.5 789,-76.5 675,-76.5"/>
<text text-anchor="middle" x="732" y="-83.5" font-family="Helvetica,sans-Serif" font-size="10.00">fiftyoneDegreesJson</text>
</a>
</g>
</g>
<!-- Node2 -->
<g id="node2" class="node">
<title>Node2</title>
<g id="a_node2"><a xlink:href="structfiftyone_degrees_list.html" target="_top" xlink:title="List structure which contains a list of collection items.">
<polygon fill="none" stroke="black" points="453,-192.5 453,-211.5 564,-211.5 564,-192.5 453,-192.5"/>
<text text-anchor="middle" x="508.5" y="-199.5" font-family="Helvetica,sans-Serif" font-size="10.00">fiftyoneDegreesList</text>
</a>
</g>
</g>
<!-- Node2&#45;&gt;Node1 -->
<g id="edge1" class="edge">
<title>Node2&#45;&gt;Node1</title>
<path fill="none" stroke="#9a32cd" stroke-dasharray="5,2" d="M569.19,-189.65C575.31,-187.71 581.35,-185.5 587,-183 641.03,-159.09 696.74,-114.93 719.88,-95.55"/>
<polygon fill="#9a32cd" stroke="#9a32cd" points="568.17,-186.3 559.56,-192.48 570.14,-193.02 568.17,-186.3"/>
<text text-anchor="middle" x="631" y="-175" font-family="Helvetica,sans-Serif" font-size="10.00"> values</text>
</g>
<!-- Node3 -->
<g id="node3" class="node">
<title>Node3</title>
<g id="a_node3"><a xlink:href="structfiftyone_degrees_collection_item.html" target="_top" xlink:title="Used to store a handle to the underlying item that could be used to release the item when it&#39;s finish...">
<polygon fill="none" stroke="black" points="178,-148.5 178,-167.5 343,-167.5 343,-148.5 178,-148.5"/>
<text text-anchor="middle" x="260.5" y="-155.5" font-family="Helvetica,sans-Serif" font-size="10.00">fiftyoneDegreesCollectionItem</text>
</a>
</g>
</g>
<!-- Node3&#45;&gt;Node2 -->
<g id="edge2" class="edge">
<title>Node3&#45;&gt;Node2</title>
<path fill="none" stroke="#9a32cd" stroke-dasharray="5,2" d="M324.82,-169.33C364.93,-176.5 416.21,-185.67 454.23,-192.47"/>
<polygon fill="#9a32cd" stroke="#9a32cd" points="325.34,-165.86 314.88,-167.55 324.11,-172.75 325.34,-165.86"/>
<text text-anchor="middle" x="386.5" y="-186" font-family="Helvetica,sans-Serif" font-size="10.00"> items</text>
</g>
<!-- Node4 -->
<g id="node4" class="node">
<title>Node4</title>
<g id="a_node4"><a xlink:href="structfiftyone_degrees_collection.html" target="_top" xlink:title="All the shared methods and fields required by file, memory and cached collections.">
<polygon fill="none" stroke="black" points="437,-114.5 437,-133.5 580,-133.5 580,-114.5 437,-114.5"/>
<text text-anchor="middle" x="508.5" y="-121.5" font-family="Helvetica,sans-Serif" font-size="10.00">fiftyoneDegreesCollection</text>
</a>
</g>
</g>
<!-- Node3&#45;&gt;Node4 -->
<g id="edge4" class="edge">
<title>Node3&#45;&gt;Node4</title>
<path fill="none" stroke="#9a32cd" stroke-dasharray="5,2" d="M340.45,-147.09C372.06,-142.72 408.14,-137.73 438.66,-133.51"/>
<polygon fill="#9a32cd" stroke="#9a32cd" points="339.78,-143.65 330.35,-148.48 340.74,-150.58 339.78,-143.65"/>
<text text-anchor="middle" x="386.5" y="-147" font-family="Helvetica,sans-Serif" font-size="10.00"> release</text>
</g>
<!-- Node4&#45;&gt;Node1 -->
<g id="edge10" class="edge">
<title>Node4&#45;&gt;Node1</title>
<path fill="none" stroke="#9a32cd" stroke-dasharray="5,2" d="M580.09,-112.89C604.48,-108.95 631.96,-104.41 657,-100 664.98,-98.6 673.44,-97.05 681.67,-95.51"/>
<polygon fill="#9a32cd" stroke="#9a32cd" points="579.52,-109.44 570.2,-114.48 580.63,-116.35 579.52,-109.44"/>
<text text-anchor="middle" x="631" y="-111" font-family="Helvetica,sans-Serif" font-size="10.00"> strings</text>
</g>
<!-- Node4&#45;&gt;Node3 -->
<g id="edge3" class="edge">
<title>Node4&#45;&gt;Node3</title>
<path fill="none" stroke="#9a32cd" stroke-dasharray="5,2" d="M426.65,-120.04C405.19,-120.21 382.12,-121.51 361,-125 333.53,-129.53 303.35,-140.44 283.52,-148.47"/>
<polygon fill="#9a32cd" stroke="#9a32cd" points="426.7,-123.54 436.7,-120.03 426.7,-116.54 426.7,-123.54"/>
<text text-anchor="middle" x="386.5" y="-128" font-family="Helvetica,sans-Serif" font-size="10.00"> collection</text>
</g>
<!-- Node4&#45;&gt;Node4 -->
<g id="edge5" class="edge">
<title>Node4&#45;&gt;Node4</title>
<path fill="none" stroke="#9a32cd" stroke-dasharray="5,2" d="M485.81,-143.03C487.04,-148.13 494.61,-152 508.5,-152 530.18,-152 536.45,-142.57 527.3,-133.76"/>
<polygon fill="#9a32cd" stroke="#9a32cd" points="489.06,-144.33 489.7,-133.76 482.6,-141.62 489.06,-144.33"/>
<text text-anchor="middle" x="508.5" y="-166" font-family="Helvetica,sans-Serif" font-size="10.00"> freeCollection</text>
<text text-anchor="middle" x="508.5" y="-155" font-family="Helvetica,sans-Serif" font-size="10.00">get</text>
</g>
<!-- Node5 -->
<g id="node5" class="node">
<title>Node5</title>
<g id="a_node5"><a xlink:href="structfiftyone_degrees_data.html" target="_top" xlink:title="Data structure used for reusing memory which may have been allocated in a previous operation.">
<polygon fill="none" stroke="black" points="0,-148.5 0,-167.5 117,-167.5 117,-148.5 0,-148.5"/>
<text text-anchor="middle" x="58.5" y="-155.5" font-family="Helvetica,sans-Serif" font-size="10.00">fiftyoneDegreesData</text>
</a>
</g>
</g>
<!-- Node5&#45;&gt;Node3 -->
<g id="edge6" class="edge">
<title>Node5&#45;&gt;Node3</title>
<path fill="none" stroke="#9a32cd" stroke-dasharray="5,2" d="M127.5,-158C143.67,-158 161.08,-158 177.78,-158"/>
<polygon fill="#9a32cd" stroke="#9a32cd" points="127.08,-154.5 117.08,-158 127.08,-161.5 127.08,-154.5"/>
<text text-anchor="middle" x="147.5" y="-161" font-family="Helvetica,sans-Serif" font-size="10.00"> data</text>
</g>
<!-- Node6 -->
<g id="node6" class="node">
<title>Node6</title>
<g id="a_node6"><a xlink:href="structfiftyone_degrees_property.html" target="_top" xlink:title="Property structure containing all the meta data relating to a property.">
<polygon fill="none" stroke="black" points="441,-76.5 441,-95.5 576,-95.5 576,-76.5 441,-76.5"/>
<text text-anchor="middle" x="508.5" y="-83.5" font-family="Helvetica,sans-Serif" font-size="10.00">fiftyoneDegreesProperty</text>
</a>
</g>
</g>
<!-- Node6&#45;&gt;Node1 -->
<g id="edge7" class="edge">
<title>Node6&#45;&gt;Node1</title>
<path fill="none" stroke="#9a32cd" stroke-dasharray="5,2" d="M586.39,-86C615.47,-86 648,-86 674.84,-86"/>
<polygon fill="#9a32cd" stroke="#9a32cd" points="586.26,-82.5 576.26,-86 586.26,-89.5 586.26,-82.5"/>
<text text-anchor="middle" x="631" y="-89" font-family="Helvetica,sans-Serif" font-size="10.00"> property</text>
</g>
<!-- Node7 -->
<g id="node7" class="node">
<title>Node7</title>
<g id="a_node7"><a xlink:href="structfiftyone_degrees_string_builder.html" target="_top" xlink:title="String buffer for building strings with memory checks.">
<polygon fill="none" stroke="black" points="430,-38.5 430,-57.5 587,-57.5 587,-38.5 430,-38.5"/>
<text text-anchor="middle" x="508.5" y="-45.5" font-family="Helvetica,sans-Serif" font-size="10.00">fiftyoneDegreesStringBuilder</text>
</a>
</g>
</g>
<!-- Node7&#45;&gt;Node1 -->
<g id="edge8" class="edge">
<title>Node7&#45;&gt;Node1</title>
<path fill="none" stroke="#9a32cd" stroke-dasharray="5,2" d="M585.05,-59.11C608.18,-62.69 633.67,-66.82 657,-71 666.29,-72.66 676.21,-74.58 685.67,-76.47"/>
<polygon fill="#9a32cd" stroke="#9a32cd" points="585.37,-55.62 574.96,-57.56 584.31,-62.53 585.37,-55.62"/>
<text text-anchor="middle" x="631" y="-74" font-family="Helvetica,sans-Serif" font-size="10.00"> builder</text>
</g>
<!-- Node8 -->
<g id="node8" class="node">
<title>Node8</title>
<g id="a_node8"><a xlink:href="structfiftyone_degrees_exception.html" target="_top" xlink:title="Structure used to represent a 51Degrees exception and passed into methods that might generate excepti...">
<polygon fill="none" stroke="black" points="437.5,-0.5 437.5,-19.5 579.5,-19.5 579.5,-0.5 437.5,-0.5"/>
<text text-anchor="middle" x="508.5" y="-7.5" font-family="Helvetica,sans-Serif" font-size="10.00">fiftyoneDegreesException</text>
</a>
</g>
</g>
<!-- Node8&#45;&gt;Node1 -->
<g id="edge9" class="edge">
<title>Node8&#45;&gt;Node1</title>
<path fill="none" stroke="#9a32cd" stroke-dasharray="5,2" d="M568.08,-21.75C595.56,-28.11 628.45,-36.94 657,-48 677.6,-55.98 700.01,-68 714.71,-76.37"/>
<polygon fill="#9a32cd" stroke="#9a32cd" points="568.75,-18.32 558.23,-19.53 567.21,-25.15 568.75,-18.32"/>
<text text-anchor="middle" x="631" y="-51" font-family="Helvetica,sans-Serif" font-size="10.00"> exception</text>
</g>
</g>
</svg>
