<?xml version="1.0" encoding="UTF-8" standalone="no"?>
<!DOCTYPE svg PUBLIC "-//W3C//DTD SVG 1.1//EN"
 "http://www.w3.org/Graphics/SVG/1.1/DTD/svg11.dtd">
<!-- Generated by graphviz version 2.43.0 (0)
 -->
<!-- Title: fiftyoneDegreesDataSetDeviceDetection Pages: 1 -->
<svg width="1925pt" height="368pt"
 viewBox="0.00 0.00 1925.00 367.50" xmlns="http://www.w3.org/2000/svg" xmlns:xlink="http://www.w3.org/1999/xlink">
<g id="graph0" class="graph" transform="scale(1 1) rotate(0) translate(4 363.5)">
<title>fiftyoneDegreesDataSetDeviceDetection</title>
<!-- Node1 -->
<g id="node1" class="node">
<title>Node1</title>
<g id="a_node1"><a xlink:title="Device detection data set structure which contains the &#39;must have&#39;s for all device detection data set...">
<polygon fill="#bfbfbf" stroke="black" points="1750,-256 1750,-286 1917,-286 1917,-256 1750,-256"/>
<text text-anchor="start" x="1758" y="-274" font-family="Helvetica,sans-Serif" font-size="10.00">fiftyoneDegreesDataSetDevice</text>
<text text-anchor="middle" x="1833.5" y="-263" font-family="Helvetica,sans-Serif" font-size="10.00">Detection</text>
</a>
</g>
</g>
<!-- Node2 -->
<g id="node2" class="node">
<title>Node2</title>
<g id="a_node2"><a xlink:href="structfiftyone_degrees_header_ptr_array.html" target="_top" xlink:title="Array of header indexes.">
<polygon fill="none" stroke="black" points="1483.5,-329 1483.5,-359 1626.5,-359 1626.5,-329 1483.5,-329"/>
<text text-anchor="start" x="1491.5" y="-347" font-family="Helvetica,sans-Serif" font-size="10.00">fiftyoneDegreesHeaderPtr</text>
<text text-anchor="middle" x="1555" y="-336" font-family="Helvetica,sans-Serif" font-size="10.00">Array</text>
</a>
</g>
</g>
<!-- Node2&#45;&gt;Node1 -->
<g id="edge1" class="edge">
<title>Node2&#45;&gt;Node1</title>
<path fill="none" stroke="#9a32cd" stroke-dasharray="5,2" d="M1622.69,-326.39C1669.42,-314.06 1731.21,-297.74 1775.62,-286.02"/>
<polygon fill="#9a32cd" stroke="#9a32cd" points="1621.73,-323.03 1612.96,-328.96 1623.52,-329.79 1621.73,-323.03"/>
<text text-anchor="middle" x="1698" y="-317" font-family="Helvetica,sans-Serif" font-size="10.00"> ghevHeaders</text>
</g>
<!-- Node3 -->
<g id="node3" class="node">
<title>Node3</title>
<g id="a_node3"><a xlink:href="structfiftyone_degrees_data_set_base.html" target="_top" xlink:title="Base data set structure which contains the &#39;must have&#39;s for all data sets.">
<polygon fill="none" stroke="black" points="1476.5,-188.5 1476.5,-207.5 1633.5,-207.5 1633.5,-188.5 1476.5,-188.5"/>
<text text-anchor="middle" x="1555" y="-195.5" font-family="Helvetica,sans-Serif" font-size="10.00">fiftyoneDegreesDataSetBase</text>
</a>
</g>
</g>
<!-- Node3&#45;&gt;Node1 -->
<g id="edge2" class="edge">
<title>Node3&#45;&gt;Node1</title>
<path fill="none" stroke="#9a32cd" stroke-dasharray="5,2" d="M1601.88,-210.11C1649.49,-222.68 1724.05,-242.37 1775.44,-255.93"/>
<polygon fill="#9a32cd" stroke="#9a32cd" points="1602.71,-206.71 1592.15,-207.54 1600.92,-213.48 1602.71,-206.71"/>
<text text-anchor="middle" x="1698" y="-246" font-family="Helvetica,sans-Serif" font-size="10.00"> b</text>
</g>
<!-- Node4 -->
<g id="node4" class="node">
<title>Node4</title>
<g id="a_node4"><a xlink:href="structfiftyone_degrees_header_array.html" target="_top" xlink:title="Array of Headers which should always be ordered in ascending order of fullHeaderId.">
<polygon fill="none" stroke="black" points="1159,-238.5 1159,-257.5 1314,-257.5 1314,-238.5 1159,-238.5"/>
<text text-anchor="middle" x="1236.5" y="-245.5" font-family="Helvetica,sans-Serif" font-size="10.00">fiftyoneDegreesHeaderArray</text>
</a>
</g>
</g>
<!-- Node4&#45;&gt;Node3 -->
<g id="edge3" class="edge">
<title>Node4&#45;&gt;Node3</title>
<path fill="none" stroke="#9a32cd" stroke-dasharray="5,2" d="M1307.93,-236.87C1363.69,-228.07 1440.73,-215.89 1493.68,-207.53"/>
<polygon fill="#9a32cd" stroke="#9a32cd" points="1307.11,-233.46 1297.78,-238.48 1308.2,-240.37 1307.11,-233.46"/>
<text text-anchor="middle" x="1394.5" y="-233" font-family="Helvetica,sans-Serif" font-size="10.00"> uniqueHeaders</text>
</g>
<!-- Node5 -->
<g id="node5" class="node">
<title>Node5</title>
<g id="a_node5"><a xlink:href="structfiftyone_degrees_resource_handle.html" target="_top" xlink:title="Handle for a shared resource.">
<polygon fill="none" stroke="black" points="1150,-290.5 1150,-309.5 1323,-309.5 1323,-290.5 1150,-290.5"/>
<text text-anchor="middle" x="1236.5" y="-297.5" font-family="Helvetica,sans-Serif" font-size="10.00">fiftyoneDegreesResourceHandle</text>
</a>
</g>
</g>
<!-- Node5&#45;&gt;Node3 -->
<g id="edge4" class="edge">
<title>Node5&#45;&gt;Node3</title>
<path fill="none" stroke="#9a32cd" stroke-dasharray="5,2" d="M1289.81,-288.11C1332.35,-277.92 1393.69,-262.07 1446,-244 1477.4,-233.16 1512.6,-217.47 1534.03,-207.51"/>
<polygon fill="#9a32cd" stroke="#9a32cd" points="1288.88,-284.73 1279.96,-290.45 1290.49,-291.54 1288.88,-284.73"/>
<text text-anchor="middle" x="1394.5" y="-277" font-family="Helvetica,sans-Serif" font-size="10.00"> handle</text>
</g>
<!-- Node6 -->
<g id="node6" class="node">
<title>Node6</title>
<g id="a_node6"><a xlink:href="structfiftyone_degrees_resource_manager.html" target="_top" xlink:title="Manager structure used to provide access to a shared and changing resource.">
<polygon fill="none" stroke="black" points="1464,-290.5 1464,-309.5 1646,-309.5 1646,-290.5 1464,-290.5"/>
<text text-anchor="middle" x="1555" y="-297.5" font-family="Helvetica,sans-Serif" font-size="10.00">fiftyoneDegreesResourceManager</text>
</a>
</g>
</g>
<!-- Node5&#45;&gt;Node6 -->
<g id="edge6" class="edge">
<title>Node5&#45;&gt;Node6</title>
<path fill="none" stroke="#9a32cd" stroke-dasharray="5,2" d="M1333.1,-299.05C1336.44,-299.03 1339.75,-299.02 1343,-299 1388.78,-298.78 1400.22,-298.79 1446,-299 1451.81,-299.03 1457.8,-299.06 1463.84,-299.1"/>
<polygon fill="#9a32cd" stroke="#9a32cd" points="1332.98,-295.55 1323,-299.12 1333.03,-302.55 1332.98,-295.55"/>
<text text-anchor="middle" x="1394.5" y="-302" font-family="Helvetica,sans-Serif" font-size="10.00"> active</text>
</g>
<!-- Node6&#45;&gt;Node5 -->
<g id="edge5" class="edge">
<title>Node6&#45;&gt;Node5</title>
<path fill="none" stroke="#9a32cd" stroke-dasharray="5,2" d="M1467.89,-310.43C1460.5,-311.07 1453.12,-311.61 1446,-312 1400.29,-314.53 1388.7,-314.59 1343,-312 1332.88,-311.43 1322.23,-310.55 1311.76,-309.52"/>
<polygon fill="#9a32cd" stroke="#9a32cd" points="1468.33,-313.91 1477.97,-309.52 1467.7,-306.94 1468.33,-313.91"/>
<text text-anchor="middle" x="1394.5" y="-316" font-family="Helvetica,sans-Serif" font-size="10.00"> manager</text>
</g>
<!-- Node7 -->
<g id="node7" class="node">
<title>Node7</title>
<g id="a_node7"><a xlink:href="structfiftyone_degrees_interlock_double_width.html" target="_top" xlink:title="Double width (64 or 128 depending on the architecture) compare and exchange.">
<polygon fill="none" stroke="black" points="775,-285 775,-315 912,-315 912,-285 775,-285"/>
<text text-anchor="start" x="783" y="-303" font-family="Helvetica,sans-Serif" font-size="10.00">fiftyoneDegreesInterlock</text>
<text text-anchor="middle" x="843.5" y="-292" font-family="Helvetica,sans-Serif" font-size="10.00">DoubleWidth</text>
</a>
</g>
</g>
<!-- Node7&#45;&gt;Node5 -->
<g id="edge7" class="edge">
<title>Node7&#45;&gt;Node5</title>
<path fill="none" stroke="#9a32cd" stroke-dasharray="5,2" d="M922.46,-300C988.18,-300 1082.1,-300 1149.89,-300"/>
<polygon fill="#9a32cd" stroke="#9a32cd" points="922.16,-296.5 912.16,-300 922.16,-303.5 922.16,-296.5"/>
<text text-anchor="middle" x="1040" y="-303" font-family="Helvetica,sans-Serif" font-size="10.00"> counter</text>
</g>
<!-- Node8 -->
<g id="node8" class="node">
<title>Node8</title>
<g id="a_node8"><a xlink:href="structfiftyone_degrees_file_pool.html" target="_top" xlink:title="Stack of handles used to read data from a single source file.">
<polygon fill="none" stroke="black" points="1170.5,-15.5 1170.5,-34.5 1302.5,-34.5 1302.5,-15.5 1170.5,-15.5"/>
<text text-anchor="middle" x="1236.5" y="-22.5" font-family="Helvetica,sans-Serif" font-size="10.00">fiftyoneDegreesFilePool</text>
</a>
</g>
</g>
<!-- Node8&#45;&gt;Node3 -->
<g id="edge8" class="edge">
<title>Node8&#45;&gt;Node3</title>
<path fill="none" stroke="#9a32cd" stroke-dasharray="5,2" d="M1299.75,-36.92C1308.31,-39.02 1316.92,-41.38 1325,-44 1380.85,-62.1 1396.97,-64.71 1446,-97 1487.81,-124.53 1528.59,-168.72 1545.65,-188.22"/>
<polygon fill="#9a32cd" stroke="#9a32cd" points="1300.31,-33.45 1289.77,-34.57 1298.71,-40.27 1300.31,-33.45"/>
<text text-anchor="middle" x="1394.5" y="-100" font-family="Helvetica,sans-Serif" font-size="10.00"> filePool</text>
</g>
<!-- Node9 -->
<g id="node9" class="node">
<title>Node9</title>
<g id="a_node9"><a xlink:href="structfiftyone_degrees_pool.html" target="_top" xlink:title="Pool of resources stored as items in a stack.">
<polygon fill="none" stroke="black" points="786,-67.5 786,-86.5 901,-86.5 901,-67.5 786,-67.5"/>
<text text-anchor="middle" x="843.5" y="-74.5" font-family="Helvetica,sans-Serif" font-size="10.00">fiftyoneDegreesPool</text>
</a>
</g>
</g>
<!-- Node9&#45;&gt;Node8 -->
<g id="edge9" class="edge">
<title>Node9&#45;&gt;Node8</title>
<path fill="none" stroke="#9a32cd" stroke-dasharray="5,2" d="M877.01,-63.76C897.58,-56.01 924.92,-46.82 950,-42 1024.6,-27.66 1112.01,-24.39 1170.27,-24.08"/>
<polygon fill="#9a32cd" stroke="#9a32cd" points="875.57,-60.57 867.5,-67.43 878.09,-67.1 875.57,-60.57"/>
<text text-anchor="middle" x="1040" y="-45" font-family="Helvetica,sans-Serif" font-size="10.00"> pool</text>
</g>
<!-- Node9&#45;&gt;Node9 -->
<g id="edge10" class="edge">
<title>Node9&#45;&gt;Node9</title>
<path fill="none" stroke="#9a32cd" stroke-dasharray="5,2" d="M819.32,-96.03C820.64,-101.13 828.7,-105 843.5,-105 866.61,-105 873.28,-95.57 863.54,-86.76"/>
<polygon fill="#9a32cd" stroke="#9a32cd" points="822.58,-97.31 823.46,-86.76 816.19,-94.46 822.58,-97.31"/>
<text text-anchor="middle" x="843.5" y="-108" font-family="Helvetica,sans-Serif" font-size="10.00"> resourceFree</text>
</g>
<!-- Node11 -->
<g id="node11" class="node">
<title>Node11</title>
<g id="a_node11"><a xlink:href="structfiftyone_degrees_pool_item.html" target="_top" xlink:title="Pool item node in the stack of items.">
<polygon fill="none" stroke="black" points="1168,-53.5 1168,-72.5 1305,-72.5 1305,-53.5 1168,-53.5"/>
<text text-anchor="middle" x="1236.5" y="-60.5" font-family="Helvetica,sans-Serif" font-size="10.00">fiftyoneDegreesPoolItem</text>
</a>
</g>
</g>
<!-- Node9&#45;&gt;Node11 -->
<g id="edge13" class="edge">
<title>Node9&#45;&gt;Node11</title>
<path fill="none" stroke="#9a32cd" stroke-dasharray="5,2" d="M903.41,-65.8C918.54,-63.4 934.82,-61.21 950,-60 1024.36,-54.05 1109.96,-56.13 1167.89,-58.86"/>
<polygon fill="#9a32cd" stroke="#9a32cd" points="902.45,-62.41 893.15,-67.49 903.59,-69.32 902.45,-62.41"/>
<text text-anchor="middle" x="1040" y="-63" font-family="Helvetica,sans-Serif" font-size="10.00"> pool</text>
</g>
<!-- Node10 -->
<g id="node10" class="node">
<title>Node10</title>
<g id="a_node10"><a xlink:href="unionfiftyone_degrees_pool_head.html" target="_top" xlink:title="The head of the stack used for pop and push operations.">
<polygon fill="none" stroke="black" points="510,-89.5 510,-108.5 650,-108.5 650,-89.5 510,-89.5"/>
<text text-anchor="middle" x="580" y="-96.5" font-family="Helvetica,sans-Serif" font-size="10.00">fiftyoneDegreesPoolHead</text>
</a>
</g>
</g>
<!-- Node10&#45;&gt;Node9 -->
<g id="edge11" class="edge">
<title>Node10&#45;&gt;Node9</title>
<path fill="none" stroke="#9a32cd" stroke-dasharray="5,2" d="M660.17,-92.34C700.71,-88.93 749.12,-84.86 785.86,-81.76"/>
<polygon fill="#9a32cd" stroke="#9a32cd" points="659.72,-88.86 650.05,-93.19 660.31,-95.84 659.72,-88.86"/>
<text text-anchor="middle" x="712.5" y="-92" font-family="Helvetica,sans-Serif" font-size="10.00"> head</text>
</g>
<!-- Node11&#45;&gt;Node9 -->
<g id="edge12" class="edge">
<title>Node11&#45;&gt;Node9</title>
<path fill="none" stroke="#9a32cd" stroke-dasharray="5,2" d="M1157.68,-71.09C1148.36,-71.85 1138.97,-72.51 1130,-73 1050.68,-77.31 958.79,-77.79 901.15,-77.55"/>
<polygon fill="#9a32cd" stroke="#9a32cd" points="1158.07,-74.57 1167.74,-70.24 1157.48,-67.59 1158.07,-74.57"/>
<text text-anchor="middle" x="1040" y="-80" font-family="Helvetica,sans-Serif" font-size="10.00"> stack</text>
</g>
<!-- Node12 -->
<g id="node12" class="node">
<title>Node12</title>
<g id="a_node12"><a xlink:href="structfiftyone_degrees_override_property_array.html" target="_top" xlink:title="Array of items of type fiftyoneDegreesOverrideProperty used to easily access and track the size of th...">
<polygon fill="none" stroke="black" points="1148,-189 1148,-219 1325,-219 1325,-189 1148,-189"/>
<text text-anchor="start" x="1156" y="-207" font-family="Helvetica,sans-Serif" font-size="10.00">fiftyoneDegreesOverrideProperty</text>
<text text-anchor="middle" x="1236.5" y="-196" font-family="Helvetica,sans-Serif" font-size="10.00">Array</text>
</a>
</g>
</g>
<!-- Node12&#45;&gt;Node3 -->
<g id="edge14" class="edge">
<title>Node12&#45;&gt;Node3</title>
<path fill="none" stroke="#9a32cd" stroke-dasharray="5,2" d="M1335.33,-199.22C1337.91,-199.14 1340.47,-199.07 1343,-199 1387.13,-197.85 1436.46,-197.56 1476.33,-197.58"/>
<polygon fill="#9a32cd" stroke="#9a32cd" points="1335.16,-195.72 1325.28,-199.56 1335.39,-202.72 1335.16,-195.72"/>
<text text-anchor="middle" x="1394.5" y="-202" font-family="Helvetica,sans-Serif" font-size="10.00"> overridable</text>
</g>
<!-- Node13 -->
<g id="node13" class="node">
<title>Node13</title>
<g id="a_node13"><a xlink:href="structfiftyone_degrees_override_property.html" target="_top" xlink:title="Index and pointer to a property which can be overridden.">
<polygon fill="none" stroke="black" points="755,-190.5 755,-209.5 932,-209.5 932,-190.5 755,-190.5"/>
<text text-anchor="middle" x="843.5" y="-197.5" font-family="Helvetica,sans-Serif" font-size="10.00">fiftyoneDegreesOverrideProperty</text>
</a>
</g>
</g>
<!-- Node13&#45;&gt;Node12 -->
<g id="edge15" class="edge">
<title>Node13&#45;&gt;Node12</title>
<path fill="none" stroke="#9a32cd" stroke-dasharray="5,2" d="M942.6,-201C1005.63,-201.65 1086.81,-202.48 1147.71,-203.1"/>
<polygon fill="#9a32cd" stroke="#9a32cd" points="942.28,-197.5 932.25,-200.9 942.21,-204.5 942.28,-197.5"/>
<text text-anchor="middle" x="1040" y="-205" font-family="Helvetica,sans-Serif" font-size="10.00"> items</text>
</g>
<!-- Node14 -->
<g id="node14" class="node">
<title>Node14</title>
<g id="a_node14"><a xlink:href="structfiftyone_degrees_property_available.html" target="_top" xlink:title="Used to access the property item quickly without the need to search.">
<polygon fill="none" stroke="black" points="490,-149.5 490,-168.5 670,-168.5 670,-149.5 490,-149.5"/>
<text text-anchor="middle" x="580" y="-156.5" font-family="Helvetica,sans-Serif" font-size="10.00">fiftyoneDegreesPropertyAvailable</text>
</a>
</g>
</g>
<!-- Node14&#45;&gt;Node13 -->
<g id="edge16" class="edge">
<title>Node14&#45;&gt;Node13</title>
<path fill="none" stroke="#9a32cd" stroke-dasharray="5,2" d="M651.76,-170.09C692.39,-176.46 742.89,-184.38 781.73,-190.47"/>
<polygon fill="#9a32cd" stroke="#9a32cd" points="652.07,-166.6 641.65,-168.51 650.99,-173.52 652.07,-166.6"/>
<text text-anchor="middle" x="712.5" y="-186" font-family="Helvetica,sans-Serif" font-size="10.00"> available</text>
</g>
<!-- Node20 -->
<g id="node20" class="node">
<title>Node20</title>
<g id="a_node20"><a xlink:href="structfiftyone_degrees_property_available_array.html" target="_top" xlink:title="Array of items of type fiftyoneDegreesPropertyAvailable used to easily access and track the size of t...">
<polygon fill="none" stroke="black" points="950,-144 950,-174 1130,-174 1130,-144 950,-144"/>
<text text-anchor="start" x="958" y="-162" font-family="Helvetica,sans-Serif" font-size="10.00">fiftyoneDegreesPropertyAvailable</text>
<text text-anchor="middle" x="1040" y="-151" font-family="Helvetica,sans-Serif" font-size="10.00">Array</text>
</a>
</g>
</g>
<!-- Node14&#45;&gt;Node20 -->
<g id="edge25" class="edge">
<title>Node14&#45;&gt;Node20</title>
<path fill="none" stroke="#9a32cd" stroke-dasharray="5,2" d="M680.23,-159C760.43,-159 872.32,-159 949.72,-159"/>
<polygon fill="#9a32cd" stroke="#9a32cd" points="680.12,-155.5 670.12,-159 680.12,-162.5 680.12,-155.5"/>
<text text-anchor="middle" x="712.5" y="-162" font-family="Helvetica,sans-Serif" font-size="10.00"> items</text>
</g>
<!-- Node15 -->
<g id="node15" class="node">
<title>Node15</title>
<g id="a_node15"><a xlink:href="structfiftyone_degrees_evidence_property_index_array.html" target="_top" xlink:title="Array of items of type fiftyoneDegreesEvidencePropertyIndex used to easily access and track the size ...">
<polygon fill="none" stroke="black" points="178,-144 178,-174 357,-174 357,-144 178,-144"/>
<text text-anchor="start" x="186" y="-162" font-family="Helvetica,sans-Serif" font-size="10.00">fiftyoneDegreesEvidenceProperty</text>
<text text-anchor="middle" x="267.5" y="-151" font-family="Helvetica,sans-Serif" font-size="10.00">IndexArray</text>
</a>
</g>
</g>
<!-- Node15&#45;&gt;Node14 -->
<g id="edge17" class="edge">
<title>Node15&#45;&gt;Node14</title>
<path fill="none" stroke="#9a32cd" stroke-dasharray="5,2" d="M367.2,-159C406.52,-159 451.45,-159 489.78,-159"/>
<polygon fill="#9a32cd" stroke="#9a32cd" points="367.06,-155.5 357.06,-159 367.06,-162.5 367.06,-155.5"/>
<text text-anchor="middle" x="423.5" y="-162" font-family="Helvetica,sans-Serif" font-size="10.00"> evidenceProperties</text>
</g>
<!-- Node16 -->
<g id="node16" class="node">
<title>Node16</title>
<g id="a_node16"><a xlink:href="structfiftyone_degrees_collection_item.html" target="_top" xlink:title="Used to store a handle to the underlying item that could be used to release the item when it&#39;s finish...">
<polygon fill="none" stroke="black" points="185,-34.5 185,-53.5 350,-53.5 350,-34.5 185,-34.5"/>
<text text-anchor="middle" x="267.5" y="-41.5" font-family="Helvetica,sans-Serif" font-size="10.00">fiftyoneDegreesCollectionItem</text>
</a>
</g>
</g>
<!-- Node16&#45;&gt;Node14 -->
<g id="edge18" class="edge">
<title>Node16&#45;&gt;Node14</title>
<path fill="none" stroke="#9a32cd" stroke-dasharray="5,2" d="M303.7,-57.04C366.82,-80.41 497.83,-128.94 553.3,-149.48"/>
<polygon fill="#9a32cd" stroke="#9a32cd" points="304.77,-53.7 294.17,-53.51 302.34,-60.26 304.77,-53.7"/>
<text text-anchor="middle" x="423.5" y="-121" font-family="Helvetica,sans-Serif" font-size="10.00"> name</text>
</g>
<!-- Node17 -->
<g id="node17" class="node">
<title>Node17</title>
<g id="a_node17"><a xlink:href="structfiftyone_degrees_collection.html" target="_top" xlink:title="All the shared methods and fields required by file, memory and cached collections.">
<polygon fill="none" stroke="black" points="508.5,-0.5 508.5,-19.5 651.5,-19.5 651.5,-0.5 508.5,-0.5"/>
<text text-anchor="middle" x="580" y="-7.5" font-family="Helvetica,sans-Serif" font-size="10.00">fiftyoneDegreesCollection</text>
</a>
</g>
</g>
<!-- Node16&#45;&gt;Node17 -->
<g id="edge20" class="edge">
<title>Node16&#45;&gt;Node17</title>
<path fill="none" stroke="#9a32cd" stroke-dasharray="5,2" d="M300.15,-30.66C321,-22.61 349.12,-13.14 375,-9 418.89,-1.97 468.77,-2.08 508.23,-4.01"/>
<polygon fill="#9a32cd" stroke="#9a32cd" points="298.84,-27.41 290.83,-34.35 301.42,-33.92 298.84,-27.41"/>
<text text-anchor="middle" x="423.5" y="-12" font-family="Helvetica,sans-Serif" font-size="10.00"> release</text>
</g>
<!-- Node17&#45;&gt;Node16 -->
<g id="edge19" class="edge">
<title>Node17&#45;&gt;Node16</title>
<path fill="none" stroke="#9a32cd" stroke-dasharray="5,2" d="M498.46,-19.07C489.53,-20.06 480.57,-21.06 472,-22 431.91,-26.42 387.37,-31.24 350.2,-35.24"/>
<polygon fill="#9a32cd" stroke="#9a32cd" points="498.95,-22.53 508.5,-17.95 498.17,-15.58 498.95,-22.53"/>
<text text-anchor="middle" x="423.5" y="-36" font-family="Helvetica,sans-Serif" font-size="10.00"> collection</text>
</g>
<!-- Node17&#45;&gt;Node17 -->
<g id="edge21" class="edge">
<title>Node17&#45;&gt;Node17</title>
<path fill="none" stroke="#9a32cd" stroke-dasharray="5,2" d="M555.45,-29.03C556.79,-34.13 564.97,-38 580,-38 603.46,-38 610.24,-28.57 600.35,-19.76"/>
<polygon fill="#9a32cd" stroke="#9a32cd" points="558.71,-30.31 559.65,-19.76 552.33,-27.42 558.71,-30.31"/>
<text text-anchor="middle" x="580" y="-63" font-family="Helvetica,sans-Serif" font-size="10.00"> next</text>
<text text-anchor="middle" x="580" y="-52" font-family="Helvetica,sans-Serif" font-size="10.00">freeCollection</text>
<text text-anchor="middle" x="580" y="-41" font-family="Helvetica,sans-Serif" font-size="10.00">get</text>
</g>
<!-- Node18 -->
<g id="node18" class="node">
<title>Node18</title>
<g id="a_node18"><a xlink:href="structfiftyone_degrees_data.html" target="_top" xlink:title="Data structure used for reusing memory which may have been allocated in a previous operation.">
<polygon fill="none" stroke="black" points="0,-34.5 0,-53.5 117,-53.5 117,-34.5 0,-34.5"/>
<text text-anchor="middle" x="58.5" y="-41.5" font-family="Helvetica,sans-Serif" font-size="10.00">fiftyoneDegreesData</text>
</a>
</g>
</g>
<!-- Node18&#45;&gt;Node16 -->
<g id="edge22" class="edge">
<title>Node18&#45;&gt;Node16</title>
<path fill="none" stroke="#9a32cd" stroke-dasharray="5,2" d="M127.19,-44C145.58,-44 165.7,-44 184.78,-44"/>
<polygon fill="#9a32cd" stroke="#9a32cd" points="127.16,-40.5 117.16,-44 127.16,-47.5 127.16,-40.5"/>
<text text-anchor="middle" x="147.5" y="-47" font-family="Helvetica,sans-Serif" font-size="10.00"> data</text>
</g>
<!-- Node19 -->
<g id="node19" class="node">
<title>Node19</title>
<g id="a_node19"><a xlink:href="structfiftyone_degrees_indices_property_profile.html" target="_top" xlink:title="Maps the profile index and the property index to the first value index of the profile for the propert...">
<polygon fill="none" stroke="black" points="1151.5,-92 1151.5,-122 1321.5,-122 1321.5,-92 1151.5,-92"/>
<text text-anchor="start" x="1159.5" y="-110" font-family="Helvetica,sans-Serif" font-size="10.00">fiftyoneDegreesIndicesProperty</text>
<text text-anchor="middle" x="1236.5" y="-99" font-family="Helvetica,sans-Serif" font-size="10.00">Profile</text>
</a>
</g>
</g>
<!-- Node19&#45;&gt;Node3 -->
<g id="edge23" class="edge">
<title>Node19&#45;&gt;Node3</title>
<path fill="none" stroke="#9a32cd" stroke-dasharray="5,2" d="M1331.84,-111.08C1368.27,-114.74 1409.8,-121.53 1446,-134 1483.5,-146.92 1522.27,-173.82 1541.55,-188.29"/>
<polygon fill="#9a32cd" stroke="#9a32cd" points="1332,-107.58 1321.71,-110.13 1331.34,-114.55 1332,-107.58"/>
<text text-anchor="middle" x="1394.5" y="-137" font-family="Helvetica,sans-Serif" font-size="10.00"> indexPropertyProfile</text>
</g>
<!-- Node20&#45;&gt;Node3 -->
<g id="edge24" class="edge">
<title>Node20&#45;&gt;Node3</title>
<path fill="none" stroke="#9a32cd" stroke-dasharray="5,2" d="M1140.05,-160.28C1194.67,-161.55 1263.66,-164.05 1325,-169 1381.32,-173.55 1445.07,-181.88 1490.98,-188.45"/>
<polygon fill="#9a32cd" stroke="#9a32cd" points="1140.1,-156.78 1130.02,-160.06 1139.94,-163.78 1140.1,-156.78"/>
<text text-anchor="middle" x="1236.5" y="-172" font-family="Helvetica,sans-Serif" font-size="10.00"> available</text>
</g>
</g>
</svg>
