<?xml version="1.0" encoding="UTF-8" standalone="no"?>
<!DOCTYPE svg PUBLIC "-//W3C//DTD SVG 1.1//EN"
 "http://www.w3.org/Graphics/SVG/1.1/DTD/svg11.dtd">
<!-- Generated by graphviz version 2.43.0 (0)
 -->
<!-- Title: fiftyoneDegreesDataSetHash Pages: 1 -->
<svg width="2219pt" height="472pt"
 viewBox="0.00 0.00 2219.00 472.00" xmlns="http://www.w3.org/2000/svg" xmlns:xlink="http://www.w3.org/1999/xlink">
<g id="graph0" class="graph" transform="scale(1 1) rotate(0) translate(4 468)">
<title>fiftyoneDegreesDataSetHash</title>
<!-- Node1 -->
<g id="node1" class="node">
<title>Node1</title>
<g id="a_node1"><a xlink:title="Data set structure containing all the components used for detections.">
<polygon fill="#bfbfbf" stroke="black" points="2053,-238.5 2053,-257.5 2211,-257.5 2211,-238.5 2053,-238.5"/>
<text text-anchor="middle" x="2132" y="-245.5" font-family="Helvetica,sans-Serif" font-size="10.00">fiftyoneDegreesDataSetHash</text>
</a>
</g>
</g>
<!-- Node2 -->
<g id="node2" class="node">
<title>Node2</title>
<g id="a_node2"><a xlink:href="structfiftyone_degrees_list.html" target="_top" xlink:title="List structure which contains a list of collection items.">
<polygon fill="none" stroke="black" points="688,-370.5 688,-389.5 799,-389.5 799,-370.5 688,-370.5"/>
<text text-anchor="middle" x="743.5" y="-377.5" font-family="Helvetica,sans-Serif" font-size="10.00">fiftyoneDegreesList</text>
</a>
</g>
</g>
<!-- Node2&#45;&gt;Node1 -->
<g id="edge1" class="edge">
<title>Node2&#45;&gt;Node1</title>
<path fill="none" stroke="#9a32cd" stroke-dasharray="5,2" d="M774.04,-393.58C786.99,-399.07 802.52,-405.04 817,-409 940.2,-442.71 973.27,-453 1101,-453 1101,-453 1101,-453 1897.5,-453 2017.53,-453 2105.3,-298.14 2126.22,-257.61"/>
<polygon fill="#9a32cd" stroke="#9a32cd" points="775.27,-390.3 764.7,-389.52 772.47,-396.72 775.27,-390.3"/>
<text text-anchor="middle" x="1456.5" y="-456" font-family="Helvetica,sans-Serif" font-size="10.00"> componentsList</text>
</g>
<!-- Node3 -->
<g id="node3" class="node">
<title>Node3</title>
<g id="a_node3"><a xlink:href="structfiftyone_degrees_collection_item.html" target="_top" xlink:title="Used to store a handle to the underlying item that could be used to release the item when it&#39;s finish...">
<polygon fill="none" stroke="black" points="185,-174.5 185,-193.5 350,-193.5 350,-174.5 185,-174.5"/>
<text text-anchor="middle" x="267.5" y="-181.5" font-family="Helvetica,sans-Serif" font-size="10.00">fiftyoneDegreesCollectionItem</text>
</a>
</g>
</g>
<!-- Node3&#45;&gt;Node2 -->
<g id="edge2" class="edge">
<title>Node3&#45;&gt;Node2</title>
<path fill="none" stroke="#9a32cd" stroke-dasharray="5,2" d="M325.49,-197.09C336.88,-201.66 348.07,-207.8 357,-216 371.06,-228.91 360.81,-242.22 375,-255 464.89,-335.95 609.4,-364.84 687.74,-374.87"/>
<polygon fill="#9a32cd" stroke="#9a32cd" points="326.51,-193.73 315.92,-193.6 324.11,-200.31 326.51,-193.73"/>
<text text-anchor="middle" x="423.5" y="-318" font-family="Helvetica,sans-Serif" font-size="10.00"> items</text>
</g>
<!-- Node4 -->
<g id="node4" class="node">
<title>Node4</title>
<g id="a_node4"><a xlink:href="structfiftyone_degrees_collection.html" target="_top" xlink:title="All the shared methods and fields required by file, memory and cached collections.">
<polygon fill="none" stroke="black" points="508.5,-89.5 508.5,-108.5 651.5,-108.5 651.5,-89.5 508.5,-89.5"/>
<text text-anchor="middle" x="580" y="-96.5" font-family="Helvetica,sans-Serif" font-size="10.00">fiftyoneDegreesCollection</text>
</a>
</g>
</g>
<!-- Node3&#45;&gt;Node4 -->
<g id="edge4" class="edge">
<title>Node3&#45;&gt;Node4</title>
<path fill="none" stroke="#9a32cd" stroke-dasharray="5,2" d="M336.05,-172.64C376,-165.2 427.36,-154.38 472,-141 502.4,-131.89 536.31,-117.9 557.65,-108.6"/>
<polygon fill="#9a32cd" stroke="#9a32cd" points="335.36,-169.2 326.15,-174.45 336.62,-176.09 335.36,-169.2"/>
<text text-anchor="middle" x="423.5" y="-167" font-family="Helvetica,sans-Serif" font-size="10.00"> release</text>
</g>
<!-- Node22 -->
<g id="node22" class="node">
<title>Node22</title>
<g id="a_node22"><a xlink:href="structfiftyone_degrees_property_available.html" target="_top" xlink:title="Used to access the property item quickly without the need to search.">
<polygon fill="none" stroke="black" points="490,-230.5 490,-249.5 670,-249.5 670,-230.5 490,-230.5"/>
<text text-anchor="middle" x="580" y="-237.5" font-family="Helvetica,sans-Serif" font-size="10.00">fiftyoneDegreesPropertyAvailable</text>
</a>
</g>
</g>
<!-- Node3&#45;&gt;Node22 -->
<g id="edge29" class="edge">
<title>Node3&#45;&gt;Node22</title>
<path fill="none" stroke="#9a32cd" stroke-dasharray="5,2" d="M331.54,-195.37C388.82,-205.7 472.35,-220.77 526.19,-230.48"/>
<polygon fill="#9a32cd" stroke="#9a32cd" points="331.99,-191.89 321.52,-193.56 330.74,-198.78 331.99,-191.89"/>
<text text-anchor="middle" x="423.5" y="-223" font-family="Helvetica,sans-Serif" font-size="10.00"> name</text>
</g>
<!-- Node4&#45;&gt;Node1 -->
<g id="edge33" class="edge">
<title>Node4&#45;&gt;Node1</title>
<path fill="none" stroke="#9a32cd" stroke-dasharray="5,2" d="M608.01,-84.73C662.48,-57.33 790.08,0 904.5,0 904.5,0 904.5,0 1897.5,0 2030.85,0 2110.45,-192.43 2127.53,-238.28"/>
<polygon fill="#9a32cd" stroke="#9a32cd" points="606.32,-81.66 599,-89.33 609.5,-87.9 606.32,-81.66"/>
<text text-anchor="middle" x="1456.5" y="-91" font-family="Helvetica,sans-Serif" font-size="10.00"> profileOffsets</text>
<text text-anchor="middle" x="1456.5" y="-80" font-family="Helvetica,sans-Serif" font-size="10.00">values</text>
<text text-anchor="middle" x="1456.5" y="-69" font-family="Helvetica,sans-Serif" font-size="10.00">strings</text>
<text text-anchor="middle" x="1456.5" y="-58" font-family="Helvetica,sans-Serif" font-size="10.00">maps</text>
<text text-anchor="middle" x="1456.5" y="-47" font-family="Helvetica,sans-Serif" font-size="10.00">components</text>
<text text-anchor="middle" x="1456.5" y="-36" font-family="Helvetica,sans-Serif" font-size="10.00">nodes</text>
<text text-anchor="middle" x="1456.5" y="-25" font-family="Helvetica,sans-Serif" font-size="10.00">properties</text>
<text text-anchor="middle" x="1456.5" y="-14" font-family="Helvetica,sans-Serif" font-size="10.00">rootNodes</text>
<text text-anchor="middle" x="1456.5" y="-3" font-family="Helvetica,sans-Serif" font-size="10.00">profiles</text>
</g>
<!-- Node4&#45;&gt;Node3 -->
<g id="edge3" class="edge">
<title>Node4&#45;&gt;Node3</title>
<path fill="none" stroke="#9a32cd" stroke-dasharray="5,2" d="M498.33,-105.28C460.27,-109.75 414.62,-117.31 375,-130 340.65,-141.01 303.79,-162 283.71,-174.32"/>
<polygon fill="#9a32cd" stroke="#9a32cd" points="498.79,-108.75 508.34,-104.16 498.01,-101.8 498.79,-108.75"/>
<text text-anchor="middle" x="423.5" y="-133" font-family="Helvetica,sans-Serif" font-size="10.00"> collection</text>
</g>
<!-- Node4&#45;&gt;Node4 -->
<g id="edge5" class="edge">
<title>Node4&#45;&gt;Node4</title>
<path fill="none" stroke="#9a32cd" stroke-dasharray="5,2" d="M550.88,-117.65C552.1,-122.94 561.8,-127 580,-127 607.73,-127 615.74,-117.57 604.04,-108.76"/>
<polygon fill="#9a32cd" stroke="#9a32cd" points="554.04,-119.18 555.96,-108.76 547.96,-115.71 554.04,-119.18"/>
<text text-anchor="middle" x="580" y="-152" font-family="Helvetica,sans-Serif" font-size="10.00"> next</text>
<text text-anchor="middle" x="580" y="-141" font-family="Helvetica,sans-Serif" font-size="10.00">freeCollection</text>
<text text-anchor="middle" x="580" y="-130" font-family="Helvetica,sans-Serif" font-size="10.00">get</text>
</g>
<!-- Node5 -->
<g id="node5" class="node">
<title>Node5</title>
<g id="a_node5"><a xlink:href="structfiftyone_degrees_data.html" target="_top" xlink:title="Data structure used for reusing memory which may have been allocated in a previous operation.">
<polygon fill="none" stroke="black" points="0,-174.5 0,-193.5 117,-193.5 117,-174.5 0,-174.5"/>
<text text-anchor="middle" x="58.5" y="-181.5" font-family="Helvetica,sans-Serif" font-size="10.00">fiftyoneDegreesData</text>
</a>
</g>
</g>
<!-- Node5&#45;&gt;Node3 -->
<g id="edge6" class="edge">
<title>Node5&#45;&gt;Node3</title>
<path fill="none" stroke="#9a32cd" stroke-dasharray="5,2" d="M127.19,-184C145.58,-184 165.7,-184 184.78,-184"/>
<polygon fill="#9a32cd" stroke="#9a32cd" points="127.16,-180.5 117.16,-184 127.16,-187.5 127.16,-180.5"/>
<text text-anchor="middle" x="147.5" y="-187" font-family="Helvetica,sans-Serif" font-size="10.00"> data</text>
</g>
<!-- Node6 -->
<g id="node6" class="node">
<title>Node6</title>
<g id="a_node6"><a xlink:href="structfiftyone_degrees_data_set_hash_header.html" target="_top" xlink:title="Dataset header containing information about the dataset.">
<polygon fill="none" stroke="black" points="1817.5,-291 1817.5,-321 1975.5,-321 1975.5,-291 1817.5,-291"/>
<text text-anchor="start" x="1825.5" y="-309" font-family="Helvetica,sans-Serif" font-size="10.00">fiftyoneDegreesDataSetHash</text>
<text text-anchor="middle" x="1896.5" y="-298" font-family="Helvetica,sans-Serif" font-size="10.00">Header</text>
</a>
</g>
</g>
<!-- Node6&#45;&gt;Node1 -->
<g id="edge7" class="edge">
<title>Node6&#45;&gt;Node1</title>
<path fill="none" stroke="#9a32cd" stroke-dasharray="5,2" d="M1977.4,-288.73C1996.33,-284.43 2016.42,-279.71 2035,-275 2056.32,-269.6 2080.11,-262.92 2098.67,-257.55"/>
<polygon fill="#9a32cd" stroke="#9a32cd" points="1976.6,-285.32 1967.62,-290.94 1978.14,-292.15 1976.6,-285.32"/>
<text text-anchor="middle" x="2016.5" y="-286" font-family="Helvetica,sans-Serif" font-size="10.00"> header</text>
</g>
<!-- Node7 -->
<g id="node7" class="node">
<title>Node7</title>
<g id="a_node7"><a xlink:href="structfiftyone_degrees_date.html" target="_top" xlink:title="Used to store the date when the dataset was produced and next date 51Degrees expect to provide a new ...">
<polygon fill="none" stroke="black" points="1558.5,-284.5 1558.5,-303.5 1675.5,-303.5 1675.5,-284.5 1558.5,-284.5"/>
<text text-anchor="middle" x="1617" y="-291.5" font-family="Helvetica,sans-Serif" font-size="10.00">fiftyoneDegreesDate</text>
</a>
</g>
</g>
<!-- Node7&#45;&gt;Node6 -->
<g id="edge8" class="edge">
<title>Node7&#45;&gt;Node6</title>
<path fill="none" stroke="#9a32cd" stroke-dasharray="5,2" d="M1686.26,-292.74C1719.15,-292.55 1759.15,-292.94 1795,-295 1802.27,-295.42 1809.83,-295.99 1817.38,-296.65"/>
<polygon fill="#9a32cd" stroke="#9a32cd" points="1685.81,-289.24 1675.84,-292.82 1685.87,-296.24 1685.81,-289.24"/>
<text text-anchor="middle" x="1760.5" y="-309" font-family="Helvetica,sans-Serif" font-size="10.00"> nextUpdate</text>
<text text-anchor="middle" x="1760.5" y="-298" font-family="Helvetica,sans-Serif" font-size="10.00">published</text>
</g>
<!-- Node8 -->
<g id="node8" class="node">
<title>Node8</title>
<g id="a_node8"><a xlink:href="structfiftyone_degrees_collection_header.html" target="_top" xlink:title="Collection header structure which defines the size and location of the collection data.">
<polygon fill="none" stroke="black" points="1545.5,-324 1545.5,-354 1688.5,-354 1688.5,-324 1545.5,-324"/>
<text text-anchor="start" x="1553.5" y="-342" font-family="Helvetica,sans-Serif" font-size="10.00">fiftyoneDegreesCollection</text>
<text text-anchor="middle" x="1617" y="-331" font-family="Helvetica,sans-Serif" font-size="10.00">Header</text>
</a>
</g>
</g>
<!-- Node8&#45;&gt;Node6 -->
<g id="edge9" class="edge">
<title>Node8&#45;&gt;Node6</title>
<path fill="none" stroke="#9a32cd" stroke-dasharray="5,2" d="M1699.05,-329.36C1736.25,-324.94 1780.18,-319.71 1817.06,-315.33"/>
<polygon fill="#9a32cd" stroke="#9a32cd" points="1698.26,-325.93 1688.74,-330.59 1699.09,-332.88 1698.26,-325.93"/>
<text text-anchor="middle" x="1760.5" y="-416" font-family="Helvetica,sans-Serif" font-size="10.00"> profileOffsets</text>
<text text-anchor="middle" x="1760.5" y="-405" font-family="Helvetica,sans-Serif" font-size="10.00">values</text>
<text text-anchor="middle" x="1760.5" y="-394" font-family="Helvetica,sans-Serif" font-size="10.00">strings</text>
<text text-anchor="middle" x="1760.5" y="-383" font-family="Helvetica,sans-Serif" font-size="10.00">maps</text>
<text text-anchor="middle" x="1760.5" y="-372" font-family="Helvetica,sans-Serif" font-size="10.00">components</text>
<text text-anchor="middle" x="1760.5" y="-361" font-family="Helvetica,sans-Serif" font-size="10.00">nodes</text>
<text text-anchor="middle" x="1760.5" y="-350" font-family="Helvetica,sans-Serif" font-size="10.00">properties</text>
<text text-anchor="middle" x="1760.5" y="-339" font-family="Helvetica,sans-Serif" font-size="10.00">rootNodes</text>
<text text-anchor="middle" x="1760.5" y="-328" font-family="Helvetica,sans-Serif" font-size="10.00">profiles</text>
</g>
<!-- Node9 -->
<g id="node9" class="node">
<title>Node9</title>
<g id="a_node9"><a xlink:href="structfiftyone_degrees_header_ptr_array.html" target="_top" xlink:title="Array of header indexes.">
<polygon fill="none" stroke="black" points="1545.5,-235 1545.5,-265 1688.5,-265 1688.5,-235 1545.5,-235"/>
<text text-anchor="start" x="1553.5" y="-253" font-family="Helvetica,sans-Serif" font-size="10.00">fiftyoneDegreesHeaderPtr</text>
<text text-anchor="middle" x="1617" y="-242" font-family="Helvetica,sans-Serif" font-size="10.00">Array</text>
</a>
</g>
</g>
<!-- Node9&#45;&gt;Node1 -->
<g id="edge10" class="edge">
<title>Node9&#45;&gt;Node1</title>
<path fill="none" stroke="#9a32cd" stroke-dasharray="5,2" d="M1698.56,-249.69C1795.48,-249.31 1957.07,-248.68 2052.88,-248.3"/>
<polygon fill="#9a32cd" stroke="#9a32cd" points="1698.51,-246.19 1688.52,-249.73 1698.54,-253.19 1698.51,-246.19"/>
<text text-anchor="middle" x="1896.5" y="-252" font-family="Helvetica,sans-Serif" font-size="10.00"> componentHeaders</text>
</g>
<!-- Node10 -->
<g id="node10" class="node">
<title>Node10</title>
<g id="a_node10"><a xlink:href="structfiftyone_degrees_data_set_device_detection.html" target="_top" xlink:title="Device detection data set structure which contains the &#39;must have&#39;s for all device detection data set...">
<polygon fill="none" stroke="black" points="1813,-194 1813,-224 1980,-224 1980,-194 1813,-194"/>
<text text-anchor="start" x="1821" y="-212" font-family="Helvetica,sans-Serif" font-size="10.00">fiftyoneDegreesDataSetDevice</text>
<text text-anchor="middle" x="1896.5" y="-201" font-family="Helvetica,sans-Serif" font-size="10.00">Detection</text>
</a>
</g>
</g>
<!-- Node9&#45;&gt;Node10 -->
<g id="edge12" class="edge">
<title>Node9&#45;&gt;Node10</title>
<path fill="none" stroke="#9a32cd" stroke-dasharray="5,2" d="M1698.68,-238.08C1734.54,-232.78 1776.72,-226.55 1812.82,-221.22"/>
<polygon fill="#9a32cd" stroke="#9a32cd" points="1698.12,-234.62 1688.74,-239.55 1699.15,-241.55 1698.12,-234.62"/>
<text text-anchor="middle" x="1760.5" y="-236" font-family="Helvetica,sans-Serif" font-size="10.00"> ghevHeaders</text>
</g>
<!-- Node10&#45;&gt;Node1 -->
<g id="edge11" class="edge">
<title>Node10&#45;&gt;Node1</title>
<path fill="none" stroke="#9a32cd" stroke-dasharray="5,2" d="M1990.1,-224.47C2018.48,-229.21 2048.85,-234.28 2074.1,-238.5"/>
<polygon fill="#9a32cd" stroke="#9a32cd" points="1990.59,-221 1980.15,-222.8 1989.44,-227.9 1990.59,-221"/>
<text text-anchor="middle" x="2016.5" y="-233" font-family="Helvetica,sans-Serif" font-size="10.00"> b</text>
</g>
<!-- Node11 -->
<g id="node11" class="node">
<title>Node11</title>
<g id="a_node11"><a xlink:href="structfiftyone_degrees_data_set_base.html" target="_top" xlink:title="Base data set structure which contains the &#39;must have&#39;s for all data sets.">
<polygon fill="none" stroke="black" points="1538.5,-196.5 1538.5,-215.5 1695.5,-215.5 1695.5,-196.5 1538.5,-196.5"/>
<text text-anchor="middle" x="1617" y="-203.5" font-family="Helvetica,sans-Serif" font-size="10.00">fiftyoneDegreesDataSetBase</text>
</a>
</g>
</g>
<!-- Node11&#45;&gt;Node10 -->
<g id="edge13" class="edge">
<title>Node11&#45;&gt;Node10</title>
<path fill="none" stroke="#9a32cd" stroke-dasharray="5,2" d="M1705.88,-202.02C1734.32,-201.27 1766,-200.99 1795,-202 1800.86,-202.2 1806.9,-202.47 1812.98,-202.79"/>
<polygon fill="#9a32cd" stroke="#9a32cd" points="1705.45,-198.54 1695.55,-202.32 1705.65,-205.53 1705.45,-198.54"/>
<text text-anchor="middle" x="1760.5" y="-205" font-family="Helvetica,sans-Serif" font-size="10.00"> b</text>
</g>
<!-- Node12 -->
<g id="node12" class="node">
<title>Node12</title>
<g id="a_node12"><a xlink:href="structfiftyone_degrees_header_array.html" target="_top" xlink:title="Array of Headers which should always be ordered in ascending order of fullHeaderId.">
<polygon fill="none" stroke="black" points="1221,-184.5 1221,-203.5 1376,-203.5 1376,-184.5 1221,-184.5"/>
<text text-anchor="middle" x="1298.5" y="-191.5" font-family="Helvetica,sans-Serif" font-size="10.00">fiftyoneDegreesHeaderArray</text>
</a>
</g>
</g>
<!-- Node12&#45;&gt;Node11 -->
<g id="edge14" class="edge">
<title>Node12&#45;&gt;Node11</title>
<path fill="none" stroke="#9a32cd" stroke-dasharray="5,2" d="M1386.4,-197.29C1433.97,-199.1 1492.42,-201.31 1538.44,-203.06"/>
<polygon fill="#9a32cd" stroke="#9a32cd" points="1386.24,-193.79 1376.12,-196.9 1385.98,-200.78 1386.24,-193.79"/>
<text text-anchor="middle" x="1456.5" y="-204" font-family="Helvetica,sans-Serif" font-size="10.00"> uniqueHeaders</text>
</g>
<!-- Node13 -->
<g id="node13" class="node">
<title>Node13</title>
<g id="a_node13"><a xlink:href="structfiftyone_degrees_resource_handle.html" target="_top" xlink:title="Handle for a shared resource.">
<polygon fill="none" stroke="black" points="1212,-374.5 1212,-393.5 1385,-393.5 1385,-374.5 1212,-374.5"/>
<text text-anchor="middle" x="1298.5" y="-381.5" font-family="Helvetica,sans-Serif" font-size="10.00">fiftyoneDegreesResourceHandle</text>
</a>
</g>
</g>
<!-- Node13&#45;&gt;Node11 -->
<g id="edge15" class="edge">
<title>Node13&#45;&gt;Node11</title>
<path fill="none" stroke="#9a32cd" stroke-dasharray="5,2" d="M1354.9,-372.33C1413.04,-359.59 1497.5,-339.46 1508,-328 1539.09,-294.05 1494.17,-259.26 1526,-226 1529.98,-221.84 1534.63,-218.45 1539.67,-215.7"/>
<polygon fill="#9a32cd" stroke="#9a32cd" points="1354.12,-368.92 1345.09,-374.47 1355.6,-375.76 1354.12,-368.92"/>
<text text-anchor="middle" x="1456.5" y="-362" font-family="Helvetica,sans-Serif" font-size="10.00"> handle</text>
</g>
<!-- Node14 -->
<g id="node14" class="node">
<title>Node14</title>
<g id="a_node14"><a xlink:href="structfiftyone_degrees_resource_manager.html" target="_top" xlink:title="Manager structure used to provide access to a shared and changing resource.">
<polygon fill="none" stroke="black" points="1526,-390.5 1526,-409.5 1708,-409.5 1708,-390.5 1526,-390.5"/>
<text text-anchor="middle" x="1617" y="-397.5" font-family="Helvetica,sans-Serif" font-size="10.00">fiftyoneDegreesResourceManager</text>
</a>
</g>
</g>
<!-- Node13&#45;&gt;Node14 -->
<g id="edge17" class="edge">
<title>Node13&#45;&gt;Node14</title>
<path fill="none" stroke="#9a32cd" stroke-dasharray="5,2" d="M1395.42,-380.22C1430.84,-379.7 1471.29,-380.13 1508,-383 1527.11,-384.5 1547.95,-387.46 1566.19,-390.49"/>
<polygon fill="#9a32cd" stroke="#9a32cd" points="1395.02,-376.73 1385.08,-380.4 1395.14,-383.72 1395.02,-376.73"/>
<text text-anchor="middle" x="1456.5" y="-386" font-family="Helvetica,sans-Serif" font-size="10.00"> active</text>
</g>
<!-- Node14&#45;&gt;Node13 -->
<g id="edge16" class="edge">
<title>Node14&#45;&gt;Node13</title>
<path fill="none" stroke="#9a32cd" stroke-dasharray="5,2" d="M1515.59,-400.03C1480.57,-399.53 1441.02,-398.38 1405,-396 1395.44,-395.37 1385.4,-394.5 1375.49,-393.51"/>
<polygon fill="#9a32cd" stroke="#9a32cd" points="1515.78,-403.53 1525.82,-400.16 1515.87,-396.53 1515.78,-403.53"/>
<text text-anchor="middle" x="1456.5" y="-402" font-family="Helvetica,sans-Serif" font-size="10.00"> manager</text>
</g>
<!-- Node15 -->
<g id="node15" class="node">
<title>Node15</title>
<g id="a_node15"><a xlink:href="structfiftyone_degrees_interlock_double_width.html" target="_top" xlink:title="Double width (64 or 128 depending on the architecture) compare and exchange.">
<polygon fill="none" stroke="black" points="837,-369 837,-399 974,-399 974,-369 837,-369"/>
<text text-anchor="start" x="845" y="-387" font-family="Helvetica,sans-Serif" font-size="10.00">fiftyoneDegreesInterlock</text>
<text text-anchor="middle" x="905.5" y="-376" font-family="Helvetica,sans-Serif" font-size="10.00">DoubleWidth</text>
</a>
</g>
</g>
<!-- Node15&#45;&gt;Node13 -->
<g id="edge18" class="edge">
<title>Node15&#45;&gt;Node13</title>
<path fill="none" stroke="#9a32cd" stroke-dasharray="5,2" d="M984.46,-384C1050.18,-384 1144.1,-384 1211.89,-384"/>
<polygon fill="#9a32cd" stroke="#9a32cd" points="984.16,-380.5 974.16,-384 984.16,-387.5 984.16,-380.5"/>
<text text-anchor="middle" x="1102" y="-387" font-family="Helvetica,sans-Serif" font-size="10.00"> counter</text>
</g>
<!-- Node16 -->
<g id="node16" class="node">
<title>Node16</title>
<g id="a_node16"><a xlink:href="structfiftyone_degrees_file_pool.html" target="_top" xlink:title="Stack of handles used to read data from a single source file.">
<polygon fill="none" stroke="black" points="1232.5,-108.5 1232.5,-127.5 1364.5,-127.5 1364.5,-108.5 1232.5,-108.5"/>
<text text-anchor="middle" x="1298.5" y="-115.5" font-family="Helvetica,sans-Serif" font-size="10.00">fiftyoneDegreesFilePool</text>
</a>
</g>
</g>
<!-- Node16&#45;&gt;Node11 -->
<g id="edge19" class="edge">
<title>Node16&#45;&gt;Node11</title>
<path fill="none" stroke="#9a32cd" stroke-dasharray="5,2" d="M1356.84,-129.77C1366.92,-132.04 1377.29,-134.49 1387,-137 1459.56,-155.78 1543.64,-182.38 1586.93,-196.44"/>
<polygon fill="#9a32cd" stroke="#9a32cd" points="1357.41,-126.31 1346.89,-127.58 1355.9,-133.15 1357.41,-126.31"/>
<text text-anchor="middle" x="1456.5" y="-173" font-family="Helvetica,sans-Serif" font-size="10.00"> filePool</text>
</g>
<!-- Node17 -->
<g id="node17" class="node">
<title>Node17</title>
<g id="a_node17"><a xlink:href="structfiftyone_degrees_pool.html" target="_top" xlink:title="Pool of resources stored as items in a stack.">
<polygon fill="none" stroke="black" points="848,-155.5 848,-174.5 963,-174.5 963,-155.5 848,-155.5"/>
<text text-anchor="middle" x="905.5" y="-162.5" font-family="Helvetica,sans-Serif" font-size="10.00">fiftyoneDegreesPool</text>
</a>
</g>
</g>
<!-- Node17&#45;&gt;Node16 -->
<g id="edge20" class="edge">
<title>Node17&#45;&gt;Node16</title>
<path fill="none" stroke="#9a32cd" stroke-dasharray="5,2" d="M944.85,-152.42C964.68,-146.43 989.4,-139.78 1012,-136 1086.95,-123.47 1174.29,-119.49 1232.44,-118.31"/>
<polygon fill="#9a32cd" stroke="#9a32cd" points="943.77,-149.08 935.25,-155.37 945.84,-155.77 943.77,-149.08"/>
<text text-anchor="middle" x="1102" y="-139" font-family="Helvetica,sans-Serif" font-size="10.00"> pool</text>
</g>
<!-- Node17&#45;&gt;Node17 -->
<g id="edge21" class="edge">
<title>Node17&#45;&gt;Node17</title>
<path fill="none" stroke="#9a32cd" stroke-dasharray="5,2" d="M875.19,-183.27C876.05,-188.74 886.15,-193 905.5,-193 934.29,-193 942.62,-183.57 930.47,-174.76"/>
<polygon fill="#9a32cd" stroke="#9a32cd" points="878.18,-185.09 880.53,-174.76 872.25,-181.37 878.18,-185.09"/>
<text text-anchor="middle" x="905.5" y="-196" font-family="Helvetica,sans-Serif" font-size="10.00"> resourceFree</text>
</g>
<!-- Node19 -->
<g id="node19" class="node">
<title>Node19</title>
<g id="a_node19"><a xlink:href="structfiftyone_degrees_pool_item.html" target="_top" xlink:title="Pool item node in the stack of items.">
<polygon fill="none" stroke="black" points="1230,-146.5 1230,-165.5 1367,-165.5 1367,-146.5 1230,-146.5"/>
<text text-anchor="middle" x="1298.5" y="-153.5" font-family="Helvetica,sans-Serif" font-size="10.00">fiftyoneDegreesPoolItem</text>
</a>
</g>
</g>
<!-- Node17&#45;&gt;Node19 -->
<g id="edge24" class="edge">
<title>Node17&#45;&gt;Node19</title>
<path fill="none" stroke="#9a32cd" stroke-dasharray="5,2" d="M973.25,-156.98C986.09,-155.74 999.45,-154.65 1012,-154 1086.5,-150.13 1172.08,-151.5 1229.96,-153.29"/>
<polygon fill="#9a32cd" stroke="#9a32cd" points="972.68,-153.52 963.08,-158.01 973.38,-160.49 972.68,-153.52"/>
<text text-anchor="middle" x="1102" y="-157" font-family="Helvetica,sans-Serif" font-size="10.00"> pool</text>
</g>
<!-- Node18 -->
<g id="node18" class="node">
<title>Node18</title>
<g id="a_node18"><a xlink:href="unionfiftyone_degrees_pool_head.html" target="_top" xlink:title="The head of the stack used for pop and push operations.">
<polygon fill="none" stroke="black" points="510,-178.5 510,-197.5 650,-197.5 650,-178.5 510,-178.5"/>
<text text-anchor="middle" x="580" y="-185.5" font-family="Helvetica,sans-Serif" font-size="10.00">fiftyoneDegreesPoolHead</text>
</a>
</g>
</g>
<!-- Node18&#45;&gt;Node17 -->
<g id="edge22" class="edge">
<title>Node18&#45;&gt;Node17</title>
<path fill="none" stroke="#9a32cd" stroke-dasharray="5,2" d="M660.26,-182.36C718.42,-178.23 796.02,-172.71 847.99,-169.02"/>
<polygon fill="#9a32cd" stroke="#9a32cd" points="659.73,-178.89 650,-183.09 660.23,-185.88 659.73,-178.89"/>
<text text-anchor="middle" x="743.5" y="-182" font-family="Helvetica,sans-Serif" font-size="10.00"> head</text>
</g>
<!-- Node19&#45;&gt;Node17 -->
<g id="edge23" class="edge">
<title>Node19&#45;&gt;Node17</title>
<path fill="none" stroke="#9a32cd" stroke-dasharray="5,2" d="M1219.7,-165.03C1210.37,-165.84 1200.98,-166.53 1192,-167 1112.68,-171.12 1020.79,-169.3 963.15,-167.36"/>
<polygon fill="#9a32cd" stroke="#9a32cd" points="1220.12,-168.51 1229.76,-164.11 1219.48,-161.54 1220.12,-168.51"/>
<text text-anchor="middle" x="1102" y="-172" font-family="Helvetica,sans-Serif" font-size="10.00"> stack</text>
</g>
<!-- Node20 -->
<g id="node20" class="node">
<title>Node20</title>
<g id="a_node20"><a xlink:href="structfiftyone_degrees_override_property_array.html" target="_top" xlink:title="Array of items of type fiftyoneDegreesOverrideProperty used to easily access and track the size of th...">
<polygon fill="none" stroke="black" points="1210,-270 1210,-300 1387,-300 1387,-270 1210,-270"/>
<text text-anchor="start" x="1218" y="-288" font-family="Helvetica,sans-Serif" font-size="10.00">fiftyoneDegreesOverrideProperty</text>
<text text-anchor="middle" x="1298.5" y="-277" font-family="Helvetica,sans-Serif" font-size="10.00">Array</text>
</a>
</g>
</g>
<!-- Node20&#45;&gt;Node11 -->
<g id="edge25" class="edge">
<title>Node20&#45;&gt;Node11</title>
<path fill="none" stroke="#9a32cd" stroke-dasharray="5,2" d="M1397.19,-278.21C1442.1,-273.55 1489.46,-265.98 1508,-254 1520.43,-245.97 1513.87,-234.46 1526,-226 1532.17,-221.7 1539.11,-218.3 1546.32,-215.62"/>
<polygon fill="#9a32cd" stroke="#9a32cd" points="1396.67,-274.74 1387.06,-279.22 1397.36,-281.71 1396.67,-274.74"/>
<text text-anchor="middle" x="1456.5" y="-280" font-family="Helvetica,sans-Serif" font-size="10.00"> overridable</text>
</g>
<!-- Node21 -->
<g id="node21" class="node">
<title>Node21</title>
<g id="a_node21"><a xlink:href="structfiftyone_degrees_override_property.html" target="_top" xlink:title="Index and pointer to a property which can be overridden.">
<polygon fill="none" stroke="black" points="817,-271.5 817,-290.5 994,-290.5 994,-271.5 817,-271.5"/>
<text text-anchor="middle" x="905.5" y="-278.5" font-family="Helvetica,sans-Serif" font-size="10.00">fiftyoneDegreesOverrideProperty</text>
</a>
</g>
</g>
<!-- Node21&#45;&gt;Node20 -->
<g id="edge26" class="edge">
<title>Node21&#45;&gt;Node20</title>
<path fill="none" stroke="#9a32cd" stroke-dasharray="5,2" d="M1004.6,-282C1067.63,-282.65 1148.81,-283.48 1209.71,-284.1"/>
<polygon fill="#9a32cd" stroke="#9a32cd" points="1004.28,-278.5 994.25,-281.9 1004.21,-285.5 1004.28,-278.5"/>
<text text-anchor="middle" x="1102" y="-286" font-family="Helvetica,sans-Serif" font-size="10.00"> items</text>
</g>
<!-- Node22&#45;&gt;Node21 -->
<g id="edge27" class="edge">
<title>Node22&#45;&gt;Node21</title>
<path fill="none" stroke="#9a32cd" stroke-dasharray="5,2" d="M657.62,-250.93C667.83,-252.33 678.16,-253.72 688,-255 732.2,-260.75 781.55,-266.71 821.95,-271.47"/>
<polygon fill="#9a32cd" stroke="#9a32cd" points="657.85,-247.43 647.47,-249.53 656.9,-254.36 657.85,-247.43"/>
<text text-anchor="middle" x="743.5" y="-271" font-family="Helvetica,sans-Serif" font-size="10.00"> available</text>
</g>
<!-- Node25 -->
<g id="node25" class="node">
<title>Node25</title>
<g id="a_node25"><a xlink:href="structfiftyone_degrees_property_available_array.html" target="_top" xlink:title="Array of items of type fiftyoneDegreesPropertyAvailable used to easily access and track the size of t...">
<polygon fill="none" stroke="black" points="1012,-225 1012,-255 1192,-255 1192,-225 1012,-225"/>
<text text-anchor="start" x="1020" y="-243" font-family="Helvetica,sans-Serif" font-size="10.00">fiftyoneDegreesPropertyAvailable</text>
<text text-anchor="middle" x="1102" y="-232" font-family="Helvetica,sans-Serif" font-size="10.00">Array</text>
</a>
</g>
</g>
<!-- Node22&#45;&gt;Node25 -->
<g id="edge32" class="edge">
<title>Node22&#45;&gt;Node25</title>
<path fill="none" stroke="#9a32cd" stroke-dasharray="5,2" d="M680.37,-240C776.11,-240 919.63,-240 1011.8,-240"/>
<polygon fill="#9a32cd" stroke="#9a32cd" points="680.1,-236.5 670.1,-240 680.1,-243.5 680.1,-236.5"/>
<text text-anchor="middle" x="743.5" y="-243" font-family="Helvetica,sans-Serif" font-size="10.00"> items</text>
</g>
<!-- Node23 -->
<g id="node23" class="node">
<title>Node23</title>
<g id="a_node23"><a xlink:href="structfiftyone_degrees_evidence_property_index_array.html" target="_top" xlink:title="Array of items of type fiftyoneDegreesEvidencePropertyIndex used to easily access and track the size ...">
<polygon fill="none" stroke="black" points="178,-225 178,-255 357,-255 357,-225 178,-225"/>
<text text-anchor="start" x="186" y="-243" font-family="Helvetica,sans-Serif" font-size="10.00">fiftyoneDegreesEvidenceProperty</text>
<text text-anchor="middle" x="267.5" y="-232" font-family="Helvetica,sans-Serif" font-size="10.00">IndexArray</text>
</a>
</g>
</g>
<!-- Node23&#45;&gt;Node22 -->
<g id="edge28" class="edge">
<title>Node23&#45;&gt;Node22</title>
<path fill="none" stroke="#9a32cd" stroke-dasharray="5,2" d="M367.2,-240C406.52,-240 451.45,-240 489.78,-240"/>
<polygon fill="#9a32cd" stroke="#9a32cd" points="367.06,-236.5 357.06,-240 367.06,-243.5 367.06,-236.5"/>
<text text-anchor="middle" x="423.5" y="-243" font-family="Helvetica,sans-Serif" font-size="10.00"> evidenceProperties</text>
</g>
<!-- Node24 -->
<g id="node24" class="node">
<title>Node24</title>
<g id="a_node24"><a xlink:href="structfiftyone_degrees_indices_property_profile.html" target="_top" xlink:title="Maps the profile index and the property index to the first value index of the profile for the propert...">
<polygon fill="none" stroke="black" points="1213.5,-319 1213.5,-349 1383.5,-349 1383.5,-319 1213.5,-319"/>
<text text-anchor="start" x="1221.5" y="-337" font-family="Helvetica,sans-Serif" font-size="10.00">fiftyoneDegreesIndicesProperty</text>
<text text-anchor="middle" x="1298.5" y="-326" font-family="Helvetica,sans-Serif" font-size="10.00">Profile</text>
</a>
</g>
</g>
<!-- Node24&#45;&gt;Node11 -->
<g id="edge30" class="edge">
<title>Node24&#45;&gt;Node11</title>
<path fill="none" stroke="#9a32cd" stroke-dasharray="5,2" d="M1393.45,-317.33C1446.64,-307.52 1503.48,-296.22 1508,-292 1530.21,-271.24 1504,-246.98 1526,-226 1530.4,-221.8 1535.48,-218.41 1540.94,-215.68"/>
<polygon fill="#9a32cd" stroke="#9a32cd" points="1392.78,-313.9 1383.57,-319.15 1394.04,-320.78 1392.78,-313.9"/>
<text text-anchor="middle" x="1456.5" y="-317" font-family="Helvetica,sans-Serif" font-size="10.00"> indexPropertyProfile</text>
</g>
<!-- Node25&#45;&gt;Node11 -->
<g id="edge31" class="edge">
<title>Node25&#45;&gt;Node11</title>
<path fill="none" stroke="#9a32cd" stroke-dasharray="5,2" d="M1202.4,-235.03C1284.43,-230.71 1403.83,-223.91 1508,-216 1517.86,-215.25 1528.21,-214.39 1538.45,-213.49"/>
<polygon fill="#9a32cd" stroke="#9a32cd" points="1202.14,-231.54 1192.34,-235.56 1202.51,-238.53 1202.14,-231.54"/>
<text text-anchor="middle" x="1298.5" y="-237" font-family="Helvetica,sans-Serif" font-size="10.00"> available</text>
</g>
<!-- Node26 -->
<g id="node26" class="node">
<title>Node26</title>
<g id="a_node26"><a xlink:href="structfiftyone_degrees_config_hash.html" target="_top" xlink:title="Hash specific configuration structure.">
<polygon fill="none" stroke="black" points="1822,-155.5 1822,-174.5 1971,-174.5 1971,-155.5 1822,-155.5"/>
<text text-anchor="middle" x="1896.5" y="-162.5" font-family="Helvetica,sans-Serif" font-size="10.00">fiftyoneDegreesConfigHash</text>
</a>
</g>
</g>
<!-- Node26&#45;&gt;Node1 -->
<g id="edge34" class="edge">
<title>Node26&#45;&gt;Node1</title>
<path fill="none" stroke="#9a32cd" stroke-dasharray="5,2" d="M1952.36,-177.02C1961.65,-179.42 1971.15,-182.1 1980,-185 2028.05,-200.74 2082.28,-225.05 2110.87,-238.4"/>
<polygon fill="#9a32cd" stroke="#9a32cd" points="1952.94,-173.55 1942.39,-174.53 1951.24,-180.35 1952.94,-173.55"/>
<text text-anchor="middle" x="2016.5" y="-208" font-family="Helvetica,sans-Serif" font-size="10.00"> config</text>
</g>
<!-- Node27 -->
<g id="node27" class="node">
<title>Node27</title>
<g id="a_node27"><a xlink:href="structfiftyone_degrees_collection_config.html" target="_top" xlink:title="Collection configuration structure which defines how the collection should be created by the create m...">
<polygon fill="none" stroke="black" points="1545.5,-29 1545.5,-59 1688.5,-59 1688.5,-29 1545.5,-29"/>
<text text-anchor="start" x="1553.5" y="-47" font-family="Helvetica,sans-Serif" font-size="10.00">fiftyoneDegreesCollection</text>
<text text-anchor="middle" x="1617" y="-36" font-family="Helvetica,sans-Serif" font-size="10.00">Config</text>
</a>
</g>
</g>
<!-- Node27&#45;&gt;Node26 -->
<g id="edge35" class="edge">
<title>Node27&#45;&gt;Node26</title>
<path fill="none" stroke="#9a32cd" stroke-dasharray="5,2" d="M1698.73,-32.16C1730.12,-30.99 1765.54,-34.06 1795,-48 1844.38,-71.36 1878.88,-131.79 1890.86,-155.37"/>
<polygon fill="#9a32cd" stroke="#9a32cd" points="1698.5,-28.67 1688.7,-32.68 1698.87,-35.66 1698.5,-28.67"/>
<text text-anchor="middle" x="1760.5" y="-139" font-family="Helvetica,sans-Serif" font-size="10.00"> profileOffsets</text>
<text text-anchor="middle" x="1760.5" y="-128" font-family="Helvetica,sans-Serif" font-size="10.00">values</text>
<text text-anchor="middle" x="1760.5" y="-117" font-family="Helvetica,sans-Serif" font-size="10.00">strings</text>
<text text-anchor="middle" x="1760.5" y="-106" font-family="Helvetica,sans-Serif" font-size="10.00">maps</text>
<text text-anchor="middle" x="1760.5" y="-95" font-family="Helvetica,sans-Serif" font-size="10.00">components</text>
<text text-anchor="middle" x="1760.5" y="-84" font-family="Helvetica,sans-Serif" font-size="10.00">nodes</text>
<text text-anchor="middle" x="1760.5" y="-73" font-family="Helvetica,sans-Serif" font-size="10.00">properties</text>
<text text-anchor="middle" x="1760.5" y="-62" font-family="Helvetica,sans-Serif" font-size="10.00">rootNodes</text>
<text text-anchor="middle" x="1760.5" y="-51" font-family="Helvetica,sans-Serif" font-size="10.00">profiles</text>
</g>
<!-- Node28 -->
<g id="node28" class="node">
<title>Node28</title>
<g id="a_node28"><a xlink:href="structfiftyone_degrees_config_device_detection.html" target="_top" xlink:title="Device detection configuration structure containing device detection specific configuration options,...">
<polygon fill="none" stroke="black" points="1538,-127 1538,-157 1696,-157 1696,-127 1538,-127"/>
<text text-anchor="start" x="1546" y="-145" font-family="Helvetica,sans-Serif" font-size="10.00">fiftyoneDegreesConfigDevice</text>
<text text-anchor="middle" x="1617" y="-134" font-family="Helvetica,sans-Serif" font-size="10.00">Detection</text>
</a>
</g>
</g>
<!-- Node28&#45;&gt;Node26 -->
<g id="edge36" class="edge">
<title>Node28&#45;&gt;Node26</title>
<path fill="none" stroke="#9a32cd" stroke-dasharray="5,2" d="M1706.37,-149.32C1743.59,-152.41 1786.39,-155.96 1821.86,-158.9"/>
<polygon fill="#9a32cd" stroke="#9a32cd" points="1706.29,-145.81 1696.04,-148.47 1705.71,-152.78 1706.29,-145.81"/>
<text text-anchor="middle" x="1760.5" y="-159" font-family="Helvetica,sans-Serif" font-size="10.00"> b</text>
</g>
<!-- Node29 -->
<g id="node29" class="node">
<title>Node29</title>
<g id="a_node29"><a xlink:href="structfiftyone_degrees_config_base.html" target="_top" xlink:title="Base configuration structure containing common configuration options, and options that apply to struc...">
<polygon fill="none" stroke="black" points="1224,-70.5 1224,-89.5 1373,-89.5 1373,-70.5 1224,-70.5"/>
<text text-anchor="middle" x="1298.5" y="-77.5" font-family="Helvetica,sans-Serif" font-size="10.00">fiftyoneDegreesConfigBase</text>
</a>
</g>
</g>
<!-- Node29&#45;&gt;Node28 -->
<g id="edge37" class="edge">
<title>Node29&#45;&gt;Node28</title>
<path fill="none" stroke="#9a32cd" stroke-dasharray="5,2" d="M1358.14,-91.49C1409.14,-101.48 1483.4,-116.02 1539.14,-126.94"/>
<polygon fill="#9a32cd" stroke="#9a32cd" points="1358.75,-88.04 1348.26,-89.55 1357.4,-94.91 1358.75,-88.04"/>
<text text-anchor="middle" x="1456.5" y="-124" font-family="Helvetica,sans-Serif" font-size="10.00"> b</text>
</g>
</g>
</svg>
