<?xml version="1.0" encoding="UTF-8" standalone="no"?>
<!DOCTYPE svg PUBLIC "-//W3C//DTD SVG 1.1//EN"
 "http://www.w3.org/Graphics/SVG/1.1/DTD/svg11.dtd">
<!-- Generated by graphviz version 2.43.0 (0)
 -->
<!-- Title: fiftyoneDegreesStoredBinaryValue Pages: 1 -->
<svg width="304pt" height="106pt"
 viewBox="0.00 0.00 304.00 106.00" xmlns="http://www.w3.org/2000/svg" xmlns:xlink="http://www.w3.org/1999/xlink">
<g id="graph0" class="graph" transform="scale(1 1) rotate(0) translate(4 102)">
<title>fiftyoneDegreesStoredBinaryValue</title>
<!-- Node1 -->
<g id="node1" class="node">
<title>Node1</title>
<g id="a_node1"><a xlink:title="&quot;Packed&quot; value that can be present inside &quot;strings&quot; of dataset.">
<polygon fill="#bfbfbf" stroke="black" points="60.5,-0.5 60.5,-30.5 217.5,-30.5 217.5,-0.5 60.5,-0.5"/>
<text text-anchor="start" x="68.5" y="-18.5" font-family="Helvetica,sans-Serif" font-size="10.00">fiftyoneDegreesStoredBinary</text>
<text text-anchor="middle" x="139" y="-7.5" font-family="Helvetica,sans-Serif" font-size="10.00">Value</text>
</a>
</g>
</g>
<!-- Node2 -->
<g id="node2" class="node">
<title>Node2</title>
<g id="a_node2"><a xlink:href="structfiftyone_degrees_string.html" target="_top" xlink:title=" ">
<polygon fill="none" stroke="black" points="0,-78.5 0,-97.5 122,-97.5 122,-78.5 0,-78.5"/>
<text text-anchor="middle" x="61" y="-85.5" font-family="Helvetica,sans-Serif" font-size="10.00">fiftyoneDegreesString</text>
</a>
</g>
</g>
<!-- Node2&#45;&gt;Node1 -->
<g id="edge1" class="edge">
<title>Node2&#45;&gt;Node1</title>
<path fill="none" stroke="#9a32cd" stroke-dasharray="5,2" d="M78.22,-71.44C91.72,-59.23 110.36,-42.39 123.43,-30.58"/>
<polygon fill="#9a32cd" stroke="#9a32cd" points="75.64,-69.05 70.56,-78.36 80.33,-74.25 75.64,-69.05"/>
<text text-anchor="middle" x="132" y="-52" font-family="Helvetica,sans-Serif" font-size="10.00"> stringValue</text>
</g>
<!-- Node3 -->
<g id="node3" class="node">
<title>Node3</title>
<g id="a_node3"><a xlink:href="structfiftyone_degrees_float_internal.html" target="_top" xlink:title="Struture that represents 51Degrees implementation, which encapsulate an array of 4 bytes.">
<polygon fill="none" stroke="black" points="140,-78.5 140,-97.5 296,-97.5 296,-78.5 140,-78.5"/>
<text text-anchor="middle" x="218" y="-85.5" font-family="Helvetica,sans-Serif" font-size="10.00">fiftyoneDegreesFloatInternal</text>
</a>
</g>
</g>
<!-- Node3&#45;&gt;Node1 -->
<g id="edge2" class="edge">
<title>Node3&#45;&gt;Node1</title>
<path fill="none" stroke="#9a32cd" stroke-dasharray="5,2" d="M200.56,-71.44C186.88,-59.23 168.01,-42.39 154.77,-30.58"/>
<polygon fill="#9a32cd" stroke="#9a32cd" points="198.52,-74.31 208.31,-78.36 203.18,-69.09 198.52,-74.31"/>
<text text-anchor="middle" x="211" y="-52" font-family="Helvetica,sans-Serif" font-size="10.00"> floatValue</text>
</g>
</g>
</svg>
