<?xml version="1.0" encoding="UTF-8" standalone="no"?>
<!DOCTYPE svg PUBLIC "-//W3C//DTD SVG 1.1//EN"
 "http://www.w3.org/Graphics/SVG/1.1/DTD/svg11.dtd">
<!-- Generated by graphviz version 2.43.0 (0)
 -->
<!-- Title: fiftyoneDegreesFileHandle Pages: 1 -->
<svg width="373pt" height="95pt"
 viewBox="0.00 0.00 372.50 95.00" xmlns="http://www.w3.org/2000/svg" xmlns:xlink="http://www.w3.org/1999/xlink">
<g id="graph0" class="graph" transform="scale(1 1) rotate(0) translate(4 91)">
<title>fiftyoneDegreesFileHandle</title>
<!-- Node1 -->
<g id="node1" class="node">
<title>Node1</title>
<g id="a_node1"><a xlink:title="File handle node in the stack of handles.">
<polygon fill="#bfbfbf" stroke="black" points="0,-0.5 0,-19.5 146,-19.5 146,-0.5 0,-0.5"/>
<text text-anchor="middle" x="73" y="-7.5" font-family="Helvetica,sans-Serif" font-size="10.00">fiftyoneDegreesFileHandle</text>
</a>
</g>
</g>
<!-- Node2 -->
<g id="node2" class="node">
<title>Node2</title>
<g id="a_node2"><a xlink:href="structfiftyone_degrees_pool_item.html" target="_top" xlink:title="Pool item node in the stack of items.">
<polygon fill="none" stroke="black" points="24.5,-67.5 24.5,-86.5 161.5,-86.5 161.5,-67.5 24.5,-67.5"/>
<text text-anchor="middle" x="93" y="-74.5" font-family="Helvetica,sans-Serif" font-size="10.00">fiftyoneDegreesPoolItem</text>
</a>
</g>
</g>
<!-- Node2&#45;&gt;Node1 -->
<g id="edge1" class="edge">
<title>Node2&#45;&gt;Node1</title>
<path fill="none" stroke="#9a32cd" stroke-dasharray="5,2" d="M84.33,-57.9C83.11,-54.97 81.95,-51.93 81,-49 77.8,-39.12 75.56,-27.38 74.28,-19.59"/>
<polygon fill="#9a32cd" stroke="#9a32cd" points="81.22,-59.51 88.52,-67.19 87.6,-56.63 81.22,-59.51"/>
<text text-anchor="middle" x="94" y="-41" font-family="Helvetica,sans-Serif" font-size="10.00"> item</text>
</g>
<!-- Node3 -->
<g id="node3" class="node">
<title>Node3</title>
<g id="a_node3"><a xlink:href="structfiftyone_degrees_pool.html" target="_top" xlink:title="Pool of resources stored as items in a stack.">
<polygon fill="none" stroke="black" points="164.5,-0.5 164.5,-19.5 279.5,-19.5 279.5,-0.5 164.5,-0.5"/>
<text text-anchor="middle" x="222" y="-7.5" font-family="Helvetica,sans-Serif" font-size="10.00">fiftyoneDegreesPool</text>
</a>
</g>
</g>
<!-- Node2&#45;&gt;Node3 -->
<g id="edge5" class="edge">
<title>Node2&#45;&gt;Node3</title>
<path fill="none" stroke="#9a32cd" stroke-dasharray="5,2" d="M105.38,-59.34C111.7,-51.87 119.97,-43.51 129,-38 142.78,-29.6 159.3,-23.7 174.58,-19.61"/>
<polygon fill="#9a32cd" stroke="#9a32cd" points="102.39,-57.48 98.91,-67.49 107.87,-61.83 102.39,-57.48"/>
<text text-anchor="middle" x="144" y="-41" font-family="Helvetica,sans-Serif" font-size="10.00"> stack</text>
</g>
<!-- Node3&#45;&gt;Node2 -->
<g id="edge2" class="edge">
<title>Node3&#45;&gt;Node2</title>
<path fill="none" stroke="#9a32cd" stroke-dasharray="5,2" d="M201.71,-25.53C190.6,-33.11 176.41,-42.19 163,-49 148.83,-56.2 132.27,-62.67 118.81,-67.47"/>
<polygon fill="#9a32cd" stroke="#9a32cd" points="204.02,-28.19 210.23,-19.61 200.02,-22.45 204.02,-28.19"/>
<text text-anchor="middle" x="194.5" y="-41" font-family="Helvetica,sans-Serif" font-size="10.00"> pool</text>
</g>
<!-- Node3&#45;&gt;Node3 -->
<g id="edge3" class="edge">
<title>Node3&#45;&gt;Node3</title>
<path fill="none" stroke="#9a32cd" stroke-dasharray="5,2" d="M289.53,-14.44C294.47,-13.44 297.5,-11.96 297.5,-10 297.5,-6.94 290.12,-5.05 279.61,-4.33"/>
<polygon fill="#9a32cd" stroke="#9a32cd" points="289.1,-10.97 279.61,-15.67 289.96,-17.92 289.1,-10.97"/>
<text text-anchor="middle" x="331" y="-7.5" font-family="Helvetica,sans-Serif" font-size="10.00"> resourceFree</text>
</g>
<!-- Node4 -->
<g id="node4" class="node">
<title>Node4</title>
<g id="a_node4"><a xlink:href="unionfiftyone_degrees_pool_head.html" target="_top" xlink:title="The head of the stack used for pop and push operations.">
<polygon fill="none" stroke="black" points="180,-67.5 180,-86.5 320,-86.5 320,-67.5 180,-67.5"/>
<text text-anchor="middle" x="250" y="-74.5" font-family="Helvetica,sans-Serif" font-size="10.00">fiftyoneDegreesPoolHead</text>
</a>
</g>
</g>
<!-- Node4&#45;&gt;Node3 -->
<g id="edge4" class="edge">
<title>Node4&#45;&gt;Node3</title>
<path fill="none" stroke="#9a32cd" stroke-dasharray="5,2" d="M242.16,-57.79C236.78,-45.31 229.89,-29.31 225.72,-19.63"/>
<polygon fill="#9a32cd" stroke="#9a32cd" points="239.05,-59.43 246.22,-67.23 245.48,-56.66 239.05,-59.43"/>
<text text-anchor="middle" x="252" y="-41" font-family="Helvetica,sans-Serif" font-size="10.00"> head</text>
</g>
</g>
</svg>
