<?xml version="1.0" encoding="UTF-8" standalone="no"?>
<!DOCTYPE svg PUBLIC "-//W3C//DTD SVG 1.1//EN"
 "http://www.w3.org/Graphics/SVG/1.1/DTD/svg11.dtd">
<!-- Generated by graphviz version 2.43.0 (0)
 -->
<!-- Title: FiftyoneDegrees::Examples::Hash::ExampleBase Pages: 1 -->
<svg width="1800pt" height="308pt"
 viewBox="0.00 0.00 1800.00 308.00" xmlns="http://www.w3.org/2000/svg" xmlns:xlink="http://www.w3.org/1999/xlink">
<g id="graph0" class="graph" transform="scale(1 1) rotate(0) translate(4 304)">
<title>FiftyoneDegrees::Examples::Hash::ExampleBase</title>
<!-- Node7 -->
<g id="node1" class="node">
<title>Node7</title>
<g id="a_node1"><a xlink:title="Base class extended by all Hash examples.">
<polygon fill="#bfbfbf" stroke="black" points="1642,-116.5 1642,-146.5 1792,-146.5 1792,-116.5 1642,-116.5"/>
<text text-anchor="start" x="1650" y="-134.5" font-family="Helvetica,sans-Serif" font-size="10.00">FiftyoneDegrees::Examples</text>
<text text-anchor="middle" x="1717" y="-123.5" font-family="Helvetica,sans-Serif" font-size="10.00">::Hash::ExampleBase</text>
</a>
</g>
</g>
<!-- Node8 -->
<g id="node2" class="node">
<title>Node8</title>
<g id="a_node2"><a xlink:href="class_fiftyone_degrees_1_1_device_detection_1_1_hash_1_1_engine_hash.html" target="_top" xlink:title="Encapsulates the Hash engine class which implements EngineDeviceDetection.">
<polygon fill="none" stroke="black" points="1386,-116.5 1386,-146.5 1569,-146.5 1569,-116.5 1386,-116.5"/>
<text text-anchor="start" x="1394" y="-134.5" font-family="Helvetica,sans-Serif" font-size="10.00">FiftyoneDegrees::DeviceDetection</text>
<text text-anchor="middle" x="1477.5" y="-123.5" font-family="Helvetica,sans-Serif" font-size="10.00">::Hash::EngineHash</text>
</a>
</g>
</g>
<!-- Node8&#45;&gt;Node7 -->
<g id="edge1" class="edge">
<title>Node8&#45;&gt;Node7</title>
<path fill="none" stroke="#9a32cd" stroke-dasharray="5,2" d="M1579.5,-131.5C1600.41,-131.5 1622.07,-131.5 1641.81,-131.5"/>
<polygon fill="#9a32cd" stroke="#9a32cd" points="1579.31,-128 1569.31,-131.5 1579.31,-135 1579.31,-128"/>
<text text-anchor="middle" x="1605.5" y="-134.5" font-family="Helvetica,sans-Serif" font-size="10.00"> engine</text>
</g>
<!-- Node9 -->
<g id="node3" class="node">
<title>Node9</title>
<g id="a_node3"><a xlink:href="class_fiftyone_degrees_1_1_device_detection_1_1_engine_device_detection.html" target="_top" xlink:title="Encapsulates the device detection engine class to be extended by device detection engine implementati...">
<polygon fill="none" stroke="black" points="984,-116.5 984,-146.5 1167,-146.5 1167,-116.5 984,-116.5"/>
<text text-anchor="start" x="992" y="-134.5" font-family="Helvetica,sans-Serif" font-size="10.00">FiftyoneDegrees::DeviceDetection</text>
<text text-anchor="middle" x="1075.5" y="-123.5" font-family="Helvetica,sans-Serif" font-size="10.00">::EngineDeviceDetection</text>
</a>
</g>
</g>
<!-- Node9&#45;&gt;Node8 -->
<g id="edge2" class="edge">
<title>Node9&#45;&gt;Node8</title>
<path fill="none" stroke="midnightblue" d="M1177.39,-131.5C1241.47,-131.5 1323.72,-131.5 1385.75,-131.5"/>
<polygon fill="midnightblue" stroke="midnightblue" points="1177.27,-128 1167.27,-131.5 1177.27,-135 1177.27,-128"/>
</g>
<!-- Node10 -->
<g id="node4" class="node">
<title>Node10</title>
<g id="a_node4"><a xlink:href="class_fiftyone_degrees_1_1_common_1_1_engine_base.html" target="_top" xlink:title="Encapsulates the engine class to be extended by engine implementations.">
<polygon fill="none" stroke="black" points="782.5,-137.5 782.5,-167.5 928.5,-167.5 928.5,-137.5 782.5,-137.5"/>
<text text-anchor="start" x="790.5" y="-155.5" font-family="Helvetica,sans-Serif" font-size="10.00">FiftyoneDegrees::Common</text>
<text text-anchor="middle" x="855.5" y="-144.5" font-family="Helvetica,sans-Serif" font-size="10.00">::EngineBase</text>
</a>
</g>
</g>
<!-- Node10&#45;&gt;Node9 -->
<g id="edge3" class="edge">
<title>Node10&#45;&gt;Node9</title>
<path fill="none" stroke="midnightblue" d="M938.83,-144.57C953.5,-143.16 968.87,-141.68 983.77,-140.24"/>
<polygon fill="midnightblue" stroke="midnightblue" points="938.41,-141.09 928.79,-145.54 939.08,-148.06 938.41,-141.09"/>
</g>
<!-- Node11 -->
<g id="node5" class="node">
<title>Node11</title>
<g id="a_node5"><a xlink:href="class_fiftyone_degrees_1_1_common_1_1_required_properties_config.html" target="_top" xlink:title="C++ class wrapper for the fiftyoneDegreesPropertiesRequired structure.">
<polygon fill="none" stroke="black" points="488,-269.5 488,-299.5 634,-299.5 634,-269.5 488,-269.5"/>
<text text-anchor="start" x="496" y="-287.5" font-family="Helvetica,sans-Serif" font-size="10.00">FiftyoneDegrees::Common</text>
<text text-anchor="middle" x="561" y="-276.5" font-family="Helvetica,sans-Serif" font-size="10.00">::RequiredPropertiesConfig</text>
</a>
</g>
</g>
<!-- Node11&#45;&gt;Node7 -->
<g id="edge17" class="edge">
<title>Node11&#45;&gt;Node7</title>
<path fill="none" stroke="#9a32cd" stroke-dasharray="5,2" d="M644.43,-284.5C703.03,-284.5 783.6,-284.5 854.5,-284.5 854.5,-284.5 854.5,-284.5 1478.5,-284.5 1579.54,-284.5 1671.75,-185.43 1703.92,-146.73"/>
<polygon fill="#9a32cd" stroke="#9a32cd" points="644.12,-281 634.12,-284.5 644.12,-288 644.12,-281"/>
<text text-anchor="middle" x="1075.5" y="-287.5" font-family="Helvetica,sans-Serif" font-size="10.00"> properties</text>
</g>
<!-- Node11&#45;&gt;Node10 -->
<g id="edge4" class="edge">
<title>Node11&#45;&gt;Node10</title>
<path fill="none" stroke="#9a32cd" stroke-dasharray="5,2" d="M625.63,-266.65C634.48,-264.22 643.46,-261.78 652,-259.5 693.66,-248.4 707.2,-254.31 746,-235.5 782.7,-217.7 819.07,-186.35 838.98,-167.7"/>
<polygon fill="#9a32cd" stroke="#9a32cd" points="624.44,-263.34 615.73,-269.38 626.3,-270.09 624.44,-263.34"/>
<text text-anchor="middle" x="699" y="-262.5" font-family="Helvetica,sans-Serif" font-size="10.00"> requiredProperties</text>
</g>
<!-- Node12 -->
<g id="node6" class="node">
<title>Node12</title>
<g id="a_node6"><a xlink:title=" ">
<polygon fill="none" stroke="#bfbfbf" points="241,-159.5 241,-189.5 398,-189.5 398,-159.5 241,-159.5"/>
<text text-anchor="start" x="249" y="-177.5" font-family="Helvetica,sans-Serif" font-size="10.00">shared_ptr&lt; fiftyoneDegrees</text>
<text text-anchor="middle" x="319.5" y="-166.5" font-family="Helvetica,sans-Serif" font-size="10.00">ResourceManager &gt;</text>
</a>
</g>
</g>
<!-- Node12&#45;&gt;Node10 -->
<g id="edge5" class="edge">
<title>Node12&#45;&gt;Node10</title>
<path fill="none" stroke="#9a32cd" stroke-dasharray="5,2" d="M408.48,-166.79C434.11,-164.79 462.16,-162.82 488,-161.5 590.18,-156.28 708.55,-154.07 782.48,-153.14"/>
<polygon fill="#9a32cd" stroke="#9a32cd" points="408.11,-163.31 398.42,-167.59 408.67,-170.29 408.11,-163.31"/>
<text text-anchor="middle" x="561" y="-164.5" font-family="Helvetica,sans-Serif" font-size="10.00"> manager</text>
</g>
<!-- Node17 -->
<g id="node11" class="node">
<title>Node17</title>
<g id="a_node11"><a xlink:href="class_fiftyone_degrees_1_1_common_1_1_meta_data.html" target="_top" xlink:title="Contains meta data for the properties, values, profiles and components that exist within the engine i...">
<polygon fill="none" stroke="black" points="488,-181.5 488,-211.5 634,-211.5 634,-181.5 488,-181.5"/>
<text text-anchor="start" x="496" y="-199.5" font-family="Helvetica,sans-Serif" font-size="10.00">FiftyoneDegrees::Common</text>
<text text-anchor="middle" x="561" y="-188.5" font-family="Helvetica,sans-Serif" font-size="10.00">::MetaData</text>
</a>
</g>
</g>
<!-- Node12&#45;&gt;Node17 -->
<g id="edge11" class="edge">
<title>Node12&#45;&gt;Node17</title>
<path fill="none" stroke="#9a32cd" stroke-dasharray="5,2" d="M408.53,-182.59C434.65,-184.99 462.93,-187.58 487.91,-189.88"/>
<polygon fill="#9a32cd" stroke="#9a32cd" points="408.54,-179.07 398.26,-181.64 407.9,-186.04 408.54,-179.07"/>
<text text-anchor="middle" x="443" y="-190.5" font-family="Helvetica,sans-Serif" font-size="10.00"> manager</text>
</g>
<!-- Node13 -->
<g id="node7" class="node">
<title>Node13</title>
<g id="a_node7"><a xlink:title=" ">
<polygon fill="none" stroke="#bfbfbf" points="0,-165 0,-184 68,-184 68,-165 0,-165"/>
<text text-anchor="middle" x="34" y="-172" font-family="Helvetica,sans-Serif" font-size="10.00">shared_ptr</text>
</a>
</g>
</g>
<!-- Node13&#45;&gt;Node12 -->
<g id="edge6" class="edge">
<title>Node13&#45;&gt;Node12</title>
<path fill="none" stroke="orange" stroke-dasharray="5,2" d="M78.22,-174.5C121.31,-174.5 188.44,-174.5 240.8,-174.5"/>
<polygon fill="orange" stroke="orange" points="78.08,-171 68.08,-174.5 78.08,-178 78.08,-171"/>
<text text-anchor="start" x="86" y="-188.5" font-family="Helvetica,sans-Serif" font-size="10.00"> &lt; fiftyoneDegreesResource</text>
<text text-anchor="middle" x="154.5" y="-177.5" font-family="Helvetica,sans-Serif" font-size="10.00">Manager &gt;</text>
</g>
<!-- Node14 -->
<g id="node8" class="node">
<title>Node14</title>
<g id="a_node8"><a xlink:title=" ">
<polygon fill="none" stroke="#bfbfbf" points="512,-231 512,-250 610,-250 610,-231 512,-231"/>
<text text-anchor="middle" x="561" y="-238" font-family="Helvetica,sans-Serif" font-size="10.00">vector&lt; string &gt;</text>
</a>
</g>
</g>
<!-- Node14&#45;&gt;Node10 -->
<g id="edge7" class="edge">
<title>Node14&#45;&gt;Node10</title>
<path fill="none" stroke="#9a32cd" stroke-dasharray="5,2" d="M620.18,-228.94C656.69,-221.1 704.54,-209.78 746,-196.5 771.75,-188.25 800.03,-176.7 821.26,-167.5"/>
<polygon fill="#9a32cd" stroke="#9a32cd" points="619.26,-225.55 610.2,-231.05 620.71,-232.4 619.26,-225.55"/>
<text text-anchor="middle" x="699" y="-223.5" font-family="Helvetica,sans-Serif" font-size="10.00"> keys</text>
</g>
<!-- Node15 -->
<g id="node9" class="node">
<title>Node15</title>
<g id="a_node9"><a xlink:title=" ">
<polygon fill="none" stroke="#bfbfbf" points="296,-231 296,-250 343,-250 343,-231 296,-231"/>
<text text-anchor="middle" x="319.5" y="-238" font-family="Helvetica,sans-Serif" font-size="10.00">vector</text>
</a>
</g>
</g>
<!-- Node15&#45;&gt;Node14 -->
<g id="edge8" class="edge">
<title>Node15&#45;&gt;Node14</title>
<path fill="none" stroke="orange" stroke-dasharray="5,2" d="M353.27,-240.5C394.24,-240.5 464.69,-240.5 511.81,-240.5"/>
<polygon fill="orange" stroke="orange" points="353.03,-237 343.03,-240.5 353.03,-244 353.03,-237"/>
<text text-anchor="middle" x="443" y="-243.5" font-family="Helvetica,sans-Serif" font-size="10.00"> &lt; string &gt;</text>
</g>
<!-- Node16 -->
<g id="node10" class="node">
<title>Node16</title>
<g id="a_node10"><a xlink:title=" ">
<polygon fill="none" stroke="#bfbfbf" points="539,-74 539,-93 583,-93 583,-74 539,-74"/>
<text text-anchor="middle" x="561" y="-81" font-family="Helvetica,sans-Serif" font-size="10.00">string</text>
</a>
</g>
</g>
<!-- Node16&#45;&gt;Node9 -->
<g id="edge13" class="edge">
<title>Node16&#45;&gt;Node9</title>
<path fill="none" stroke="#9a32cd" stroke-dasharray="5,2" d="M593.06,-82.63C629.68,-81.88 692.36,-81.47 746,-85.5 828.98,-91.74 922.95,-105.59 989.06,-116.47"/>
<polygon fill="#9a32cd" stroke="#9a32cd" points="592.93,-79.13 583.01,-82.85 593.09,-86.13 592.93,-79.13"/>
<text text-anchor="middle" x="855.5" y="-112.5" font-family="Helvetica,sans-Serif" font-size="10.00"> defaultElementDataKey</text>
</g>
<!-- Node16&#45;&gt;Node10 -->
<g id="edge9" class="edge">
<title>Node16&#45;&gt;Node10</title>
<path fill="none" stroke="#9a32cd" stroke-dasharray="5,2" d="M593.23,-84.49C630.26,-86.28 693.56,-91.33 746,-105.5 774.14,-113.1 804.45,-126.73 825.86,-137.36"/>
<polygon fill="#9a32cd" stroke="#9a32cd" points="593.21,-80.98 583.07,-84.04 592.91,-87.98 593.21,-80.98"/>
<text text-anchor="middle" x="699" y="-130.5" font-family="Helvetica,sans-Serif" font-size="10.00"> defaultDataKey</text>
<text text-anchor="middle" x="699" y="-119.5" font-family="Helvetica,sans-Serif" font-size="10.00">licenceKey</text>
<text text-anchor="middle" x="699" y="-108.5" font-family="Helvetica,sans-Serif" font-size="10.00">updateUrl</text>
</g>
<!-- Node17&#45;&gt;Node10 -->
<g id="edge10" class="edge">
<title>Node17&#45;&gt;Node10</title>
<path fill="none" stroke="#9a32cd" stroke-dasharray="5,2" d="M644.27,-184.12C687.68,-177.59 740.45,-169.66 782.27,-163.37"/>
<polygon fill="#9a32cd" stroke="#9a32cd" points="643.67,-180.67 634.3,-185.62 644.71,-187.6 643.67,-180.67"/>
<text text-anchor="middle" x="699" y="-184.5" font-family="Helvetica,sans-Serif" font-size="10.00"> metaData</text>
</g>
<!-- Node18 -->
<g id="node12" class="node">
<title>Node18</title>
<g id="a_node12"><a xlink:href="class_fiftyone_degrees_1_1_common_1_1_config_base.html" target="_top" xlink:title="C++ class wrapper for the fiftyoneDegreesConfigBase configuration structure.">
<polygon fill="none" stroke="black" points="488,-17.5 488,-47.5 634,-47.5 634,-17.5 488,-17.5"/>
<text text-anchor="start" x="496" y="-35.5" font-family="Helvetica,sans-Serif" font-size="10.00">FiftyoneDegrees::Common</text>
<text text-anchor="middle" x="561" y="-24.5" font-family="Helvetica,sans-Serif" font-size="10.00">::ConfigBase</text>
</a>
</g>
</g>
<!-- Node18&#45;&gt;Node10 -->
<g id="edge12" class="edge">
<title>Node18&#45;&gt;Node10</title>
<path fill="none" stroke="#9a32cd" stroke-dasharray="5,2" d="M644.02,-43.98C676.7,-50.39 714.06,-60.09 746,-74.5 750.81,-76.67 803.62,-115.18 833.75,-137.26"/>
<polygon fill="#9a32cd" stroke="#9a32cd" points="644.51,-40.51 634.04,-42.09 643.21,-47.39 644.51,-40.51"/>
<text text-anchor="middle" x="699" y="-77.5" font-family="Helvetica,sans-Serif" font-size="10.00"> config</text>
</g>
<!-- Node20 -->
<g id="node14" class="node">
<title>Node20</title>
<g id="a_node14"><a xlink:href="class_fiftyone_degrees_1_1_device_detection_1_1_config_device_detection.html" target="_top" xlink:title="C++ class wrapper for the fiftyoneDegreesConfigDeviceDetection configuration structure.">
<polygon fill="none" stroke="black" points="764,-0.5 764,-30.5 947,-30.5 947,-0.5 764,-0.5"/>
<text text-anchor="start" x="772" y="-18.5" font-family="Helvetica,sans-Serif" font-size="10.00">FiftyoneDegrees::DeviceDetection</text>
<text text-anchor="middle" x="855.5" y="-7.5" font-family="Helvetica,sans-Serif" font-size="10.00">::ConfigDeviceDetection</text>
</a>
</g>
</g>
<!-- Node18&#45;&gt;Node20 -->
<g id="edge16" class="edge">
<title>Node18&#45;&gt;Node20</title>
<path fill="none" stroke="midnightblue" d="M644.3,-26.97C646.9,-26.81 649.47,-26.65 652,-26.5 688.55,-24.29 728.82,-22.06 763.76,-20.19"/>
<polygon fill="midnightblue" stroke="midnightblue" points="643.97,-23.49 634.21,-27.61 644.41,-30.47 643.97,-23.49"/>
</g>
<!-- Node19 -->
<g id="node13" class="node">
<title>Node19</title>
<g id="a_node13"><a xlink:href="class_fiftyone_degrees_1_1_device_detection_1_1_hash_1_1_config_hash.html" target="_top" xlink:title="C++ class wrapper for the fiftyoneDegreesConfigHash configuration structure.">
<polygon fill="none" stroke="black" points="1185,-64.5 1185,-94.5 1368,-94.5 1368,-64.5 1185,-64.5"/>
<text text-anchor="start" x="1193" y="-82.5" font-family="Helvetica,sans-Serif" font-size="10.00">FiftyoneDegrees::DeviceDetection</text>
<text text-anchor="middle" x="1276.5" y="-71.5" font-family="Helvetica,sans-Serif" font-size="10.00">::Hash::ConfigHash</text>
</a>
</g>
</g>
<!-- Node19&#45;&gt;Node7 -->
<g id="edge14" class="edge">
<title>Node19&#45;&gt;Node7</title>
<path fill="none" stroke="#9a32cd" stroke-dasharray="5,2" d="M1378.53,-81.04C1434.84,-82.98 1506.09,-87.25 1569,-96.5 1600.41,-101.12 1634.96,-109.19 1662.68,-116.42"/>
<polygon fill="#9a32cd" stroke="#9a32cd" points="1378.3,-77.53 1368.19,-80.7 1378.07,-84.52 1378.3,-77.53"/>
<text text-anchor="middle" x="1477.5" y="-99.5" font-family="Helvetica,sans-Serif" font-size="10.00"> config</text>
</g>
<!-- Node20&#45;&gt;Node19 -->
<g id="edge15" class="edge">
<title>Node20&#45;&gt;Node19</title>
<path fill="none" stroke="midnightblue" d="M957.21,-30.88C1026.45,-41.46 1117.63,-55.39 1184.65,-65.62"/>
<polygon fill="midnightblue" stroke="midnightblue" points="957.57,-27.4 947.16,-29.35 956.52,-34.32 957.57,-27.4"/>
</g>
</g>
</svg>
