<?xml version="1.0" encoding="UTF-8" standalone="no"?>
<!DOCTYPE svg PUBLIC "-//W3C//DTD SVG 1.1//EN"
 "http://www.w3.org/Graphics/SVG/1.1/DTD/svg11.dtd">
<!-- Generated by graphviz version 2.43.0 (0)
 -->
<!-- Title: FiftyoneDegrees::Examples::Hash::GettingStarted Pages: 1 -->
<svg width="1499pt" height="159pt"
 viewBox="0.00 0.00 1499.00 158.50" xmlns="http://www.w3.org/2000/svg" xmlns:xlink="http://www.w3.org/1999/xlink">
<g id="graph0" class="graph" transform="scale(1 1) rotate(0) translate(4 154.5)">
<title>FiftyoneDegrees::Examples::Hash::GettingStarted</title>
<!-- Node2 -->
<g id="node1" class="node">
<title>Node2</title>
<g id="a_node1"><a xlink:title="Hash Getting Started Example.">
<polygon fill="#bfbfbf" stroke="black" points="1341,-64.5 1341,-94.5 1491,-94.5 1491,-64.5 1341,-64.5"/>
<text text-anchor="start" x="1349" y="-82.5" font-family="Helvetica,sans-Serif" font-size="10.00">FiftyoneDegrees::Examples</text>
<text text-anchor="middle" x="1416" y="-71.5" font-family="Helvetica,sans-Serif" font-size="10.00">::Hash::GettingStarted</text>
</a>
</g>
</g>
<!-- Node3 -->
<g id="node2" class="node">
<title>Node3</title>
<g id="a_node2"><a xlink:href="class_fiftyone_degrees_1_1_examples_1_1_hash_1_1_example_base.html" target="_top" xlink:title="Base class extended by all Hash examples.">
<polygon fill="none" stroke="black" points="1154,-64.5 1154,-94.5 1304,-94.5 1304,-64.5 1154,-64.5"/>
<text text-anchor="start" x="1162" y="-82.5" font-family="Helvetica,sans-Serif" font-size="10.00">FiftyoneDegrees::Examples</text>
<text text-anchor="middle" x="1229" y="-71.5" font-family="Helvetica,sans-Serif" font-size="10.00">::Hash::ExampleBase</text>
</a>
</g>
</g>
<!-- Node3&#45;&gt;Node2 -->
<g id="edge1" class="edge">
<title>Node3&#45;&gt;Node2</title>
<path fill="none" stroke="midnightblue" d="M1314.44,-79.5C1323.24,-79.5 1332.13,-79.5 1340.8,-79.5"/>
<polygon fill="midnightblue" stroke="midnightblue" points="1314.18,-76 1304.18,-79.5 1314.18,-83 1314.18,-76"/>
</g>
<!-- Node4 -->
<g id="node3" class="node">
<title>Node4</title>
<g id="a_node3"><a xlink:href="class_fiftyone_degrees_1_1_device_detection_1_1_hash_1_1_engine_hash.html" target="_top" xlink:title="Encapsulates the Hash engine class which implements EngineDeviceDetection.">
<polygon fill="none" stroke="black" points="898,-64.5 898,-94.5 1081,-94.5 1081,-64.5 898,-64.5"/>
<text text-anchor="start" x="906" y="-82.5" font-family="Helvetica,sans-Serif" font-size="10.00">FiftyoneDegrees::DeviceDetection</text>
<text text-anchor="middle" x="989.5" y="-71.5" font-family="Helvetica,sans-Serif" font-size="10.00">::Hash::EngineHash</text>
</a>
</g>
</g>
<!-- Node4&#45;&gt;Node3 -->
<g id="edge2" class="edge">
<title>Node4&#45;&gt;Node3</title>
<path fill="none" stroke="#9a32cd" stroke-dasharray="5,2" d="M1091.5,-79.5C1112.41,-79.5 1134.07,-79.5 1153.81,-79.5"/>
<polygon fill="#9a32cd" stroke="#9a32cd" points="1091.31,-76 1081.31,-79.5 1091.31,-83 1091.31,-76"/>
<text text-anchor="middle" x="1117.5" y="-82.5" font-family="Helvetica,sans-Serif" font-size="10.00"> engine</text>
</g>
<!-- Node5 -->
<g id="node4" class="node">
<title>Node5</title>
<g id="a_node4"><a xlink:href="class_fiftyone_degrees_1_1_device_detection_1_1_engine_device_detection.html" target="_top" xlink:title="Encapsulates the device detection engine class to be extended by device detection engine implementati...">
<polygon fill="none" stroke="black" points="496,-64.5 496,-94.5 679,-94.5 679,-64.5 496,-64.5"/>
<text text-anchor="start" x="504" y="-82.5" font-family="Helvetica,sans-Serif" font-size="10.00">FiftyoneDegrees::DeviceDetection</text>
<text text-anchor="middle" x="587.5" y="-71.5" font-family="Helvetica,sans-Serif" font-size="10.00">::EngineDeviceDetection</text>
</a>
</g>
</g>
<!-- Node5&#45;&gt;Node4 -->
<g id="edge3" class="edge">
<title>Node5&#45;&gt;Node4</title>
<path fill="none" stroke="midnightblue" d="M689.39,-79.5C753.47,-79.5 835.72,-79.5 897.75,-79.5"/>
<polygon fill="midnightblue" stroke="midnightblue" points="689.27,-76 679.27,-79.5 689.27,-83 689.27,-76"/>
</g>
<!-- Node6 -->
<g id="node5" class="node">
<title>Node6</title>
<g id="a_node5"><a xlink:href="class_fiftyone_degrees_1_1_common_1_1_engine_base.html" target="_top" xlink:title="Encapsulates the engine class to be extended by engine implementations.">
<polygon fill="none" stroke="black" points="294.5,-64.5 294.5,-94.5 440.5,-94.5 440.5,-64.5 294.5,-64.5"/>
<text text-anchor="start" x="302.5" y="-82.5" font-family="Helvetica,sans-Serif" font-size="10.00">FiftyoneDegrees::Common</text>
<text text-anchor="middle" x="367.5" y="-71.5" font-family="Helvetica,sans-Serif" font-size="10.00">::EngineBase</text>
</a>
</g>
</g>
<!-- Node6&#45;&gt;Node5 -->
<g id="edge4" class="edge">
<title>Node6&#45;&gt;Node5</title>
<path fill="none" stroke="midnightblue" d="M450.83,-79.5C465.5,-79.5 480.87,-79.5 495.77,-79.5"/>
<polygon fill="midnightblue" stroke="midnightblue" points="450.79,-76 440.79,-79.5 450.79,-83 450.79,-76"/>
</g>
<!-- Node7 -->
<g id="node6" class="node">
<title>Node7</title>
<g id="a_node6"><a xlink:href="class_fiftyone_degrees_1_1_common_1_1_required_properties_config.html" target="_top" xlink:title="C++ class wrapper for the fiftyoneDegreesPropertiesRequired structure.">
<polygon fill="none" stroke="black" points="0,-118.5 0,-148.5 146,-148.5 146,-118.5 0,-118.5"/>
<text text-anchor="start" x="8" y="-136.5" font-family="Helvetica,sans-Serif" font-size="10.00">FiftyoneDegrees::Common</text>
<text text-anchor="middle" x="73" y="-125.5" font-family="Helvetica,sans-Serif" font-size="10.00">::RequiredPropertiesConfig</text>
</a>
</g>
</g>
<!-- Node7&#45;&gt;Node3 -->
<g id="edge11" class="edge">
<title>Node7&#45;&gt;Node3</title>
<path fill="none" stroke="#9a32cd" stroke-dasharray="5,2" d="M156.42,-136.09C215.02,-137.72 295.59,-139.5 366.5,-139.5 366.5,-139.5 366.5,-139.5 990.5,-139.5 1063.65,-139.5 1145.71,-112.42 1191.7,-94.64"/>
<polygon fill="#9a32cd" stroke="#9a32cd" points="156.21,-132.59 146.11,-135.8 156.01,-139.58 156.21,-132.59"/>
<text text-anchor="middle" x="587.5" y="-142.5" font-family="Helvetica,sans-Serif" font-size="10.00"> properties</text>
</g>
<!-- Node7&#45;&gt;Node6 -->
<g id="edge5" class="edge">
<title>Node7&#45;&gt;Node6</title>
<path fill="none" stroke="#9a32cd" stroke-dasharray="5,2" d="M154.2,-116.41C157.51,-115.76 160.78,-115.12 164,-114.5 207.1,-106.23 255.53,-97.83 294.22,-91.33"/>
<polygon fill="#9a32cd" stroke="#9a32cd" points="153.32,-113.02 144.21,-118.42 154.7,-119.88 153.32,-113.02"/>
<text text-anchor="middle" x="211" y="-117.5" font-family="Helvetica,sans-Serif" font-size="10.00"> requiredProperties</text>
</g>
<!-- Node8 -->
<g id="node7" class="node">
<title>Node8</title>
<g id="a_node7"><a xlink:href="class_fiftyone_degrees_1_1_common_1_1_meta_data.html" target="_top" xlink:title="Contains meta data for the properties, values, profiles and components that exist within the engine i...">
<polygon fill="none" stroke="black" points="0,-64.5 0,-94.5 146,-94.5 146,-64.5 0,-64.5"/>
<text text-anchor="start" x="8" y="-82.5" font-family="Helvetica,sans-Serif" font-size="10.00">FiftyoneDegrees::Common</text>
<text text-anchor="middle" x="73" y="-71.5" font-family="Helvetica,sans-Serif" font-size="10.00">::MetaData</text>
</a>
</g>
</g>
<!-- Node8&#45;&gt;Node6 -->
<g id="edge6" class="edge">
<title>Node8&#45;&gt;Node6</title>
<path fill="none" stroke="#9a32cd" stroke-dasharray="5,2" d="M156.54,-79.5C199.9,-79.5 252.54,-79.5 294.27,-79.5"/>
<polygon fill="#9a32cd" stroke="#9a32cd" points="156.3,-76 146.3,-79.5 156.3,-83 156.3,-76"/>
<text text-anchor="middle" x="211" y="-82.5" font-family="Helvetica,sans-Serif" font-size="10.00"> metaData</text>
</g>
<!-- Node9 -->
<g id="node8" class="node">
<title>Node9</title>
<g id="a_node8"><a xlink:href="class_fiftyone_degrees_1_1_common_1_1_config_base.html" target="_top" xlink:title="C++ class wrapper for the fiftyoneDegreesConfigBase configuration structure.">
<polygon fill="none" stroke="black" points="0,-6.5 0,-36.5 146,-36.5 146,-6.5 0,-6.5"/>
<text text-anchor="start" x="8" y="-24.5" font-family="Helvetica,sans-Serif" font-size="10.00">FiftyoneDegrees::Common</text>
<text text-anchor="middle" x="73" y="-13.5" font-family="Helvetica,sans-Serif" font-size="10.00">::ConfigBase</text>
</a>
</g>
</g>
<!-- Node9&#45;&gt;Node6 -->
<g id="edge7" class="edge">
<title>Node9&#45;&gt;Node6</title>
<path fill="none" stroke="#9a32cd" stroke-dasharray="5,2" d="M156.27,-37.81C199.68,-46.42 252.45,-56.89 294.27,-65.18"/>
<polygon fill="#9a32cd" stroke="#9a32cd" points="156.79,-34.35 146.3,-35.84 155.43,-41.22 156.79,-34.35"/>
<text text-anchor="middle" x="211" y="-60.5" font-family="Helvetica,sans-Serif" font-size="10.00"> config</text>
</g>
<!-- Node11 -->
<g id="node10" class="node">
<title>Node11</title>
<g id="a_node10"><a xlink:href="class_fiftyone_degrees_1_1_device_detection_1_1_config_device_detection.html" target="_top" xlink:title="C++ class wrapper for the fiftyoneDegreesConfigDeviceDetection configuration structure.">
<polygon fill="none" stroke="black" points="276,-0.5 276,-30.5 459,-30.5 459,-0.5 276,-0.5"/>
<text text-anchor="start" x="284" y="-18.5" font-family="Helvetica,sans-Serif" font-size="10.00">FiftyoneDegrees::DeviceDetection</text>
<text text-anchor="middle" x="367.5" y="-7.5" font-family="Helvetica,sans-Serif" font-size="10.00">::ConfigDeviceDetection</text>
</a>
</g>
</g>
<!-- Node9&#45;&gt;Node11 -->
<g id="edge10" class="edge">
<title>Node9&#45;&gt;Node11</title>
<path fill="none" stroke="midnightblue" d="M156.6,-19.81C193.8,-19.04 237.81,-18.14 275.91,-17.36"/>
<polygon fill="midnightblue" stroke="midnightblue" points="156.23,-16.31 146.3,-20.02 156.37,-23.31 156.23,-16.31"/>
</g>
<!-- Node10 -->
<g id="node9" class="node">
<title>Node10</title>
<g id="a_node9"><a xlink:href="class_fiftyone_degrees_1_1_device_detection_1_1_hash_1_1_config_hash.html" target="_top" xlink:title="C++ class wrapper for the fiftyoneDegreesConfigHash configuration structure.">
<polygon fill="none" stroke="black" points="697,-16.5 697,-46.5 880,-46.5 880,-16.5 697,-16.5"/>
<text text-anchor="start" x="705" y="-34.5" font-family="Helvetica,sans-Serif" font-size="10.00">FiftyoneDegrees::DeviceDetection</text>
<text text-anchor="middle" x="788.5" y="-23.5" font-family="Helvetica,sans-Serif" font-size="10.00">::Hash::ConfigHash</text>
</a>
</g>
</g>
<!-- Node10&#45;&gt;Node3 -->
<g id="edge8" class="edge">
<title>Node10&#45;&gt;Node3</title>
<path fill="none" stroke="#9a32cd" stroke-dasharray="5,2" d="M890.51,-31.32C946.82,-32.39 1018.07,-35.69 1081,-44.5 1112.7,-48.94 1147.57,-57.1 1175.39,-64.42"/>
<polygon fill="#9a32cd" stroke="#9a32cd" points="890.24,-27.81 880.18,-31.14 890.12,-34.81 890.24,-27.81"/>
<text text-anchor="middle" x="989.5" y="-47.5" font-family="Helvetica,sans-Serif" font-size="10.00"> config</text>
</g>
<!-- Node11&#45;&gt;Node10 -->
<g id="edge9" class="edge">
<title>Node11&#45;&gt;Node10</title>
<path fill="none" stroke="midnightblue" d="M469.21,-19.35C538.45,-21.99 629.63,-25.47 696.65,-28.03"/>
<polygon fill="midnightblue" stroke="midnightblue" points="469.29,-15.85 459.16,-18.96 469.02,-22.84 469.29,-15.85"/>
</g>
</g>
</svg>
