<?xml version="1.0" encoding="UTF-8" standalone="no"?>
<!DOCTYPE svg PUBLIC "-//W3C//DTD SVG 1.1//EN"
 "http://www.w3.org/Graphics/SVG/1.1/DTD/svg11.dtd">
<!-- Generated by graphviz version 2.43.0 (0)
 -->
<!-- Title: FiftyoneDegrees::DeviceDetection::Hash::ValueMetaDataCollectionHash Pages: 1 -->
<svg width="234pt" height="275pt"
 viewBox="0.00 0.00 234.00 275.00" xmlns="http://www.w3.org/2000/svg" xmlns:xlink="http://www.w3.org/1999/xlink">
<g id="graph0" class="graph" transform="scale(1 1) rotate(0) translate(4 271)">
<title>FiftyoneDegrees::DeviceDetection::Hash::ValueMetaDataCollectionHash</title>
<!-- Node0 -->
<g id="node1" class="node">
<title>Node0</title>
<g id="a_node1"><a xlink:title="A collection of all value meta data contained in a Hash engine.">
<polygon fill="#bfbfbf" stroke="black" points="12,-0.5 12,-30.5 214,-30.5 214,-0.5 12,-0.5"/>
<text text-anchor="start" x="20" y="-18.5" font-family="Helvetica,sans-Serif" font-size="10.00">FiftyoneDegrees::DeviceDetection</text>
<text text-anchor="middle" x="113" y="-7.5" font-family="Helvetica,sans-Serif" font-size="10.00">::Hash::ValueMetaDataCollectionHash</text>
</a>
</g>
</g>
<!-- Node1 -->
<g id="node2" class="node">
<title>Node1</title>
<g id="a_node2"><a xlink:href="class_fiftyone_degrees_1_1_device_detection_1_1_hash_1_1_value_meta_data_collection_base_hash.html" target="_top" xlink:title="A collection of all value meta data contained in a Hash engine.">
<polygon fill="none" stroke="black" points="0,-68.5 0,-98.5 226,-98.5 226,-68.5 0,-68.5"/>
<text text-anchor="start" x="8" y="-86.5" font-family="Helvetica,sans-Serif" font-size="10.00">FiftyoneDegrees::DeviceDetection</text>
<text text-anchor="middle" x="113" y="-75.5" font-family="Helvetica,sans-Serif" font-size="10.00">::Hash::ValueMetaDataCollectionBaseHash</text>
</a>
</g>
</g>
<!-- Node1&#45;&gt;Node0 -->
<g id="edge1" class="edge">
<title>Node1&#45;&gt;Node0</title>
<path fill="none" stroke="midnightblue" d="M113,-58.03C113,-48.86 113,-38.74 113,-30.79"/>
<polygon fill="midnightblue" stroke="midnightblue" points="109.5,-58.18 113,-68.18 116.5,-58.18 109.5,-58.18"/>
</g>
<!-- Node2 -->
<g id="node3" class="node">
<title>Node2</title>
<g id="a_node3"><a xlink:href="class_fiftyone_degrees_1_1_common_1_1_collection.html" target="_top" xlink:title=" ">
<polygon fill="none" stroke="black" points="23.5,-136.5 23.5,-177.5 202.5,-177.5 202.5,-136.5 23.5,-136.5"/>
<text text-anchor="start" x="31.5" y="-165.5" font-family="Helvetica,sans-Serif" font-size="10.00">FiftyoneDegrees::Common</text>
<text text-anchor="start" x="31.5" y="-154.5" font-family="Helvetica,sans-Serif" font-size="10.00">::Collection&lt; ValueMetaDataKey,</text>
<text text-anchor="middle" x="113" y="-143.5" font-family="Helvetica,sans-Serif" font-size="10.00"> ValueMetaData &gt;</text>
</a>
</g>
</g>
<!-- Node2&#45;&gt;Node1 -->
<g id="edge2" class="edge">
<title>Node2&#45;&gt;Node1</title>
<path fill="none" stroke="midnightblue" d="M113,-126.16C113,-116.69 113,-106.65 113,-98.8"/>
<polygon fill="midnightblue" stroke="midnightblue" points="109.5,-126.46 113,-136.46 116.5,-126.46 109.5,-126.46"/>
</g>
<!-- Node3 -->
<g id="node4" class="node">
<title>Node3</title>
<g id="a_node4"><a xlink:href="class_fiftyone_degrees_1_1_common_1_1_collection.html" target="_top" xlink:title="A group of items accessible by index or key.">
<polygon fill="none" stroke="black" points="40,-236.5 40,-266.5 186,-266.5 186,-236.5 40,-236.5"/>
<text text-anchor="start" x="48" y="-254.5" font-family="Helvetica,sans-Serif" font-size="10.00">FiftyoneDegrees::Common</text>
<text text-anchor="middle" x="113" y="-243.5" font-family="Helvetica,sans-Serif" font-size="10.00">::Collection&lt; K, V &gt;</text>
</a>
</g>
</g>
<!-- Node3&#45;&gt;Node2 -->
<g id="edge3" class="edge">
<title>Node3&#45;&gt;Node2</title>
<path fill="none" stroke="orange" stroke-dasharray="5,2" d="M113,-226.28C113,-211.14 113,-191.88 113,-177.68"/>
<polygon fill="orange" stroke="orange" points="109.5,-226.45 113,-236.45 116.5,-226.45 109.5,-226.45"/>
<text text-anchor="start" x="113" y="-210" font-family="Helvetica,sans-Serif" font-size="10.00"> &lt; ValueMetaDataKey,</text>
<text text-anchor="middle" x="168.5" y="-199" font-family="Helvetica,sans-Serif" font-size="10.00"> ValueMetaData &gt;</text>
</g>
</g>
</svg>
