<?xml version="1.0" encoding="UTF-8" standalone="no"?>
<!DOCTYPE svg PUBLIC "-//W3C//DTD SVG 1.1//EN"
 "http://www.w3.org/Graphics/SVG/1.1/DTD/svg11.dtd">
<!-- Generated by graphviz version 2.43.0 (0)
 -->
<!-- Title: FiftyoneDegrees::DeviceDetection::ResultsDeviceDetection Pages: 1 -->
<svg width="484pt" height="410pt"
 viewBox="0.00 0.00 484.00 410.00" xmlns="http://www.w3.org/2000/svg" xmlns:xlink="http://www.w3.org/1999/xlink">
<g id="graph0" class="graph" transform="scale(1 1) rotate(0) translate(4 406)">
<title>FiftyoneDegrees::DeviceDetection::ResultsDeviceDetection</title>
<!-- Node3 -->
<g id="node1" class="node">
<title>Node3</title>
<g id="a_node1"><a xlink:title="Encapsulates the results of a device detection engine&#39;s processing.">
<polygon fill="#bfbfbf" stroke="black" points="26,-0.5 26,-30.5 209,-30.5 209,-0.5 26,-0.5"/>
<text text-anchor="start" x="34" y="-18.5" font-family="Helvetica,sans-Serif" font-size="10.00">FiftyoneDegrees::DeviceDetection</text>
<text text-anchor="middle" x="117.5" y="-7.5" font-family="Helvetica,sans-Serif" font-size="10.00">::ResultsDeviceDetection</text>
</a>
</g>
</g>
<!-- Node4 -->
<g id="node2" class="node">
<title>Node4</title>
<g id="a_node2"><a xlink:href="class_fiftyone_degrees_1_1_common_1_1_results_base.html" target="_top" xlink:title="Encapsulates the results of an engine&#39;s processing.">
<polygon fill="none" stroke="black" points="44.5,-68.5 44.5,-98.5 190.5,-98.5 190.5,-68.5 44.5,-68.5"/>
<text text-anchor="start" x="52.5" y="-86.5" font-family="Helvetica,sans-Serif" font-size="10.00">FiftyoneDegrees::Common</text>
<text text-anchor="middle" x="117.5" y="-75.5" font-family="Helvetica,sans-Serif" font-size="10.00">::ResultsBase</text>
</a>
</g>
</g>
<!-- Node4&#45;&gt;Node3 -->
<g id="edge1" class="edge">
<title>Node4&#45;&gt;Node3</title>
<path fill="none" stroke="midnightblue" d="M117.5,-58.03C117.5,-48.86 117.5,-38.74 117.5,-30.79"/>
<polygon fill="midnightblue" stroke="midnightblue" points="114,-58.18 117.5,-68.18 121,-58.18 114,-58.18"/>
</g>
<!-- Node5 -->
<g id="node3" class="node">
<title>Node5</title>
<g id="a_node3"><a xlink:href="structfiftyone_degrees_property_available_array.html" target="_top" xlink:title="Array of items of type fiftyoneDegreesPropertyAvailable used to easily access and track the size of t...">
<polygon fill="none" stroke="black" points="27.5,-146.5 27.5,-176.5 207.5,-176.5 207.5,-146.5 27.5,-146.5"/>
<text text-anchor="start" x="35.5" y="-164.5" font-family="Helvetica,sans-Serif" font-size="10.00">fiftyoneDegreesPropertyAvailable</text>
<text text-anchor="middle" x="117.5" y="-153.5" font-family="Helvetica,sans-Serif" font-size="10.00">Array</text>
</a>
</g>
</g>
<!-- Node5&#45;&gt;Node4 -->
<g id="edge2" class="edge">
<title>Node5&#45;&gt;Node4</title>
<path fill="none" stroke="#9a32cd" stroke-dasharray="5,2" d="M117.5,-136.09C117.5,-123.76 117.5,-109.22 117.5,-98.73"/>
<polygon fill="#9a32cd" stroke="#9a32cd" points="114,-136.2 117.5,-146.2 121,-136.21 114,-136.2"/>
<text text-anchor="middle" x="142" y="-120" font-family="Helvetica,sans-Serif" font-size="10.00"> available</text>
</g>
<!-- Node6 -->
<g id="node4" class="node">
<title>Node6</title>
<g id="a_node4"><a xlink:href="structfiftyone_degrees_property_available.html" target="_top" xlink:title="Used to access the property item quickly without the need to search.">
<polygon fill="none" stroke="black" points="27.5,-231 27.5,-250 207.5,-250 207.5,-231 27.5,-231"/>
<text text-anchor="middle" x="117.5" y="-238" font-family="Helvetica,sans-Serif" font-size="10.00">fiftyoneDegreesPropertyAvailable</text>
</a>
</g>
</g>
<!-- Node6&#45;&gt;Node5 -->
<g id="edge3" class="edge">
<title>Node6&#45;&gt;Node5</title>
<path fill="none" stroke="#9a32cd" stroke-dasharray="5,2" d="M117.5,-220.8C117.5,-207.16 117.5,-188.96 117.5,-176.54"/>
<polygon fill="#9a32cd" stroke="#9a32cd" points="114,-220.97 117.5,-230.97 121,-220.97 114,-220.97"/>
<text text-anchor="middle" x="133" y="-198" font-family="Helvetica,sans-Serif" font-size="10.00"> items</text>
</g>
<!-- Node7 -->
<g id="node5" class="node">
<title>Node7</title>
<g id="a_node5"><a xlink:href="structfiftyone_degrees_evidence_property_index_array.html" target="_top" xlink:title="Array of items of type fiftyoneDegreesEvidencePropertyIndex used to easily access and track the size ...">
<polygon fill="none" stroke="black" points="0,-304.5 0,-334.5 179,-334.5 179,-304.5 0,-304.5"/>
<text text-anchor="start" x="8" y="-322.5" font-family="Helvetica,sans-Serif" font-size="10.00">fiftyoneDegreesEvidenceProperty</text>
<text text-anchor="middle" x="89.5" y="-311.5" font-family="Helvetica,sans-Serif" font-size="10.00">IndexArray</text>
</a>
</g>
</g>
<!-- Node7&#45;&gt;Node6 -->
<g id="edge4" class="edge">
<title>Node7&#45;&gt;Node6</title>
<path fill="none" stroke="#9a32cd" stroke-dasharray="5,2" d="M93.11,-294.32C94.44,-287.92 96.2,-281.1 98.5,-275 101.84,-266.11 107.32,-256.78 111.54,-250.23"/>
<polygon fill="#9a32cd" stroke="#9a32cd" points="89.61,-294.01 91.27,-304.48 96.5,-295.26 89.61,-294.01"/>
<text text-anchor="middle" x="147" y="-278" font-family="Helvetica,sans-Serif" font-size="10.00"> evidenceProperties</text>
</g>
<!-- Node8 -->
<g id="node6" class="node">
<title>Node8</title>
<g id="a_node6"><a xlink:href="structfiftyone_degrees_collection_item.html" target="_top" xlink:title="Used to store a handle to the underlying item that could be used to release the item when it&#39;s finish...">
<polygon fill="none" stroke="black" points="197,-310 197,-329 362,-329 362,-310 197,-310"/>
<text text-anchor="middle" x="279.5" y="-317" font-family="Helvetica,sans-Serif" font-size="10.00">fiftyoneDegreesCollectionItem</text>
</a>
</g>
</g>
<!-- Node8&#45;&gt;Node6 -->
<g id="edge5" class="edge">
<title>Node8&#45;&gt;Node6</title>
<path fill="none" stroke="#9a32cd" stroke-dasharray="5,2" d="M254.84,-305.13C238.22,-296.27 215.73,-284.57 195.5,-275 176.45,-265.99 154.34,-256.59 138.54,-250.05"/>
<polygon fill="#9a32cd" stroke="#9a32cd" points="253.41,-308.34 263.88,-309.98 256.72,-302.17 253.41,-308.34"/>
<text text-anchor="middle" x="232" y="-278" font-family="Helvetica,sans-Serif" font-size="10.00"> name</text>
</g>
<!-- Node9 -->
<g id="node7" class="node">
<title>Node9</title>
<g id="a_node7"><a xlink:href="structfiftyone_degrees_collection.html" target="_top" xlink:title="All the shared methods and fields required by file, memory and cached collections.">
<polygon fill="none" stroke="black" points="246,-231 246,-250 389,-250 389,-231 246,-231"/>
<text text-anchor="middle" x="317.5" y="-238" font-family="Helvetica,sans-Serif" font-size="10.00">fiftyoneDegreesCollection</text>
</a>
</g>
</g>
<!-- Node8&#45;&gt;Node9 -->
<g id="edge7" class="edge">
<title>Node8&#45;&gt;Node9</title>
<path fill="none" stroke="#9a32cd" stroke-dasharray="5,2" d="M271.74,-300.1C269.52,-292.05 268.63,-282.7 272.5,-275 278.01,-264.03 288.99,-255.75 298.73,-250.16"/>
<polygon fill="#9a32cd" stroke="#9a32cd" points="268.49,-301.42 275.11,-309.69 275.09,-299.1 268.49,-301.42"/>
<text text-anchor="middle" x="292.5" y="-278" font-family="Helvetica,sans-Serif" font-size="10.00"> release</text>
</g>
<!-- Node9&#45;&gt;Node8 -->
<g id="edge6" class="edge">
<title>Node9&#45;&gt;Node8</title>
<path fill="none" stroke="#9a32cd" stroke-dasharray="5,2" d="M320.37,-260.29C320.81,-268.53 320.18,-278.1 316.5,-286 311.8,-296.07 302.34,-304.3 294.15,-309.95"/>
<polygon fill="#9a32cd" stroke="#9a32cd" points="323.83,-259.73 319.28,-250.16 316.87,-260.48 323.83,-259.73"/>
<text text-anchor="middle" x="345" y="-278" font-family="Helvetica,sans-Serif" font-size="10.00"> collection</text>
</g>
<!-- Node9&#45;&gt;Node9 -->
<g id="edge8" class="edge">
<title>Node9&#45;&gt;Node9</title>
<path fill="none" stroke="#9a32cd" stroke-dasharray="5,2" d="M399.11,-245.69C404.04,-244.46 407,-242.73 407,-240.5 407,-237.02 399.79,-234.76 389.13,-233.7"/>
<polygon fill="#9a32cd" stroke="#9a32cd" points="398.44,-242.26 389.13,-247.3 399.56,-249.17 398.44,-242.26"/>
<text text-anchor="middle" x="441.5" y="-249" font-family="Helvetica,sans-Serif" font-size="10.00"> next</text>
<text text-anchor="middle" x="441.5" y="-238" font-family="Helvetica,sans-Serif" font-size="10.00">freeCollection</text>
<text text-anchor="middle" x="441.5" y="-227" font-family="Helvetica,sans-Serif" font-size="10.00">get</text>
</g>
<!-- Node10 -->
<g id="node8" class="node">
<title>Node10</title>
<g id="a_node8"><a xlink:href="structfiftyone_degrees_data.html" target="_top" xlink:title="Data structure used for reusing memory which may have been allocated in a previous operation.">
<polygon fill="none" stroke="black" points="221,-382.5 221,-401.5 338,-401.5 338,-382.5 221,-382.5"/>
<text text-anchor="middle" x="279.5" y="-389.5" font-family="Helvetica,sans-Serif" font-size="10.00">fiftyoneDegreesData</text>
</a>
</g>
</g>
<!-- Node10&#45;&gt;Node8 -->
<g id="edge9" class="edge">
<title>Node10&#45;&gt;Node8</title>
<path fill="none" stroke="#9a32cd" stroke-dasharray="5,2" d="M279.5,-371.94C279.5,-358.03 279.5,-339.82 279.5,-329.22"/>
<polygon fill="#9a32cd" stroke="#9a32cd" points="276,-372.36 279.5,-382.36 283,-372.36 276,-372.36"/>
<text text-anchor="middle" x="292" y="-356" font-family="Helvetica,sans-Serif" font-size="10.00"> data</text>
</g>
</g>
</svg>
