<?xml version="1.0" encoding="UTF-8" standalone="no"?>
<!DOCTYPE svg PUBLIC "-//W3C//DTD SVG 1.1//EN"
 "http://www.w3.org/Graphics/SVG/1.1/DTD/svg11.dtd">
<!-- Generated by graphviz version 2.43.0 (0)
 -->
<!-- Title: FiftyoneDegrees::Common::ProfileMetaData Pages: 1 -->
<svg width="169pt" height="185pt"
 viewBox="0.00 0.00 169.00 185.00" xmlns="http://www.w3.org/2000/svg" xmlns:xlink="http://www.w3.org/1999/xlink">
<g id="graph0" class="graph" transform="scale(1 1) rotate(0) translate(4 181)">
<title>FiftyoneDegrees::Common::ProfileMetaData</title>
<!-- Node3 -->
<g id="node1" class="node">
<title>Node3</title>
<g id="a_node1"><a xlink:title="Meta data relating to a profile populated by an engine implementation.">
<polygon fill="#bfbfbf" stroke="black" points="7.5,-0.5 7.5,-30.5 153.5,-30.5 153.5,-0.5 7.5,-0.5"/>
<text text-anchor="start" x="15.5" y="-18.5" font-family="Helvetica,sans-Serif" font-size="10.00">FiftyoneDegrees::Common</text>
<text text-anchor="middle" x="80.5" y="-7.5" font-family="Helvetica,sans-Serif" font-size="10.00">::ProfileMetaData</text>
</a>
</g>
</g>
<!-- Node4 -->
<g id="node2" class="node">
<title>Node4</title>
<g id="a_node2"><a xlink:href="class_fiftyone_degrees_1_1_common_1_1_entity_meta_data.html" target="_top" xlink:title=" ">
<polygon fill="none" stroke="black" points="0,-68.5 0,-98.5 161,-98.5 161,-68.5 0,-68.5"/>
<text text-anchor="start" x="8" y="-86.5" font-family="Helvetica,sans-Serif" font-size="10.00">FiftyoneDegrees::Common</text>
<text text-anchor="middle" x="80.5" y="-75.5" font-family="Helvetica,sans-Serif" font-size="10.00">::EntityMetaData&lt; uint32_t &gt;</text>
</a>
</g>
</g>
<!-- Node4&#45;&gt;Node3 -->
<g id="edge1" class="edge">
<title>Node4&#45;&gt;Node3</title>
<path fill="none" stroke="midnightblue" d="M80.5,-58.03C80.5,-48.86 80.5,-38.74 80.5,-30.79"/>
<polygon fill="midnightblue" stroke="midnightblue" points="77,-58.18 80.5,-68.18 84,-58.18 77,-58.18"/>
</g>
<!-- Node5 -->
<g id="node3" class="node">
<title>Node5</title>
<g id="a_node3"><a xlink:href="class_fiftyone_degrees_1_1_common_1_1_entity_meta_data.html" target="_top" xlink:title="Base class for any entity meta data.">
<polygon fill="none" stroke="black" points="7.5,-146.5 7.5,-176.5 153.5,-176.5 153.5,-146.5 7.5,-146.5"/>
<text text-anchor="start" x="15.5" y="-164.5" font-family="Helvetica,sans-Serif" font-size="10.00">FiftyoneDegrees::Common</text>
<text text-anchor="middle" x="80.5" y="-153.5" font-family="Helvetica,sans-Serif" font-size="10.00">::EntityMetaData&lt; K &gt;</text>
</a>
</g>
</g>
<!-- Node5&#45;&gt;Node4 -->
<g id="edge2" class="edge">
<title>Node5&#45;&gt;Node4</title>
<path fill="none" stroke="orange" stroke-dasharray="5,2" d="M80.5,-136.09C80.5,-123.76 80.5,-109.22 80.5,-98.73"/>
<polygon fill="orange" stroke="orange" points="77,-136.2 80.5,-146.2 84,-136.21 77,-136.2"/>
<text text-anchor="middle" x="113.5" y="-120" font-family="Helvetica,sans-Serif" font-size="10.00"> &lt; uint32_t &gt;</text>
</g>
</g>
</svg>
