<?xml version="1.0" encoding="UTF-8" standalone="no"?>
<!DOCTYPE svg PUBLIC "-//W3C//DTD SVG 1.1//EN"
 "http://www.w3.org/Graphics/SVG/1.1/DTD/svg11.dtd">
<!-- Generated by graphviz version 2.43.0 (0)
 -->
<!-- Title: FiftyoneDegrees::DeviceDetection::Hash::PropertyMetaDataCollectionHash Pages: 1 -->
<svg width="265pt" height="196pt"
 viewBox="0.00 0.00 265.00 196.00" xmlns="http://www.w3.org/2000/svg" xmlns:xlink="http://www.w3.org/1999/xlink">
<g id="graph0" class="graph" transform="scale(1 1) rotate(0) translate(4 192)">
<title>FiftyoneDegrees::DeviceDetection::Hash::PropertyMetaDataCollectionHash</title>
<!-- Node3 -->
<g id="node1" class="node">
<title>Node3</title>
<g id="a_node1"><a xlink:title="A collection of all property meta data contained in a Hash engine.">
<polygon fill="#bfbfbf" stroke="black" points="0,-0.5 0,-30.5 216,-30.5 216,-0.5 0,-0.5"/>
<text text-anchor="start" x="8" y="-18.5" font-family="Helvetica,sans-Serif" font-size="10.00">FiftyoneDegrees::DeviceDetection</text>
<text text-anchor="middle" x="108" y="-7.5" font-family="Helvetica,sans-Serif" font-size="10.00">::Hash::PropertyMetaDataCollectionHash</text>
</a>
</g>
</g>
<!-- Node4 -->
<g id="node2" class="node">
<title>Node4</title>
<g id="a_node2"><a xlink:href="class_fiftyone_degrees_1_1_common_1_1_collection.html" target="_top" xlink:title=" ">
<polygon fill="none" stroke="black" points="35,-68.5 35,-109.5 181,-109.5 181,-68.5 35,-68.5"/>
<text text-anchor="start" x="43" y="-97.5" font-family="Helvetica,sans-Serif" font-size="10.00">FiftyoneDegrees::Common</text>
<text text-anchor="start" x="43" y="-86.5" font-family="Helvetica,sans-Serif" font-size="10.00">::Collection&lt; string,</text>
<text text-anchor="middle" x="108" y="-75.5" font-family="Helvetica,sans-Serif" font-size="10.00"> PropertyMetaData &gt;</text>
</a>
</g>
</g>
<!-- Node4&#45;&gt;Node3 -->
<g id="edge1" class="edge">
<title>Node4&#45;&gt;Node3</title>
<path fill="none" stroke="midnightblue" d="M108,-58.16C108,-48.69 108,-38.65 108,-30.8"/>
<polygon fill="midnightblue" stroke="midnightblue" points="104.5,-58.46 108,-68.46 111.5,-58.46 104.5,-58.46"/>
</g>
<!-- Node5 -->
<g id="node3" class="node">
<title>Node5</title>
<g id="a_node3"><a xlink:href="class_fiftyone_degrees_1_1_common_1_1_collection.html" target="_top" xlink:title="A group of items accessible by index or key.">
<polygon fill="none" stroke="black" points="35,-157.5 35,-187.5 181,-187.5 181,-157.5 35,-157.5"/>
<text text-anchor="start" x="43" y="-175.5" font-family="Helvetica,sans-Serif" font-size="10.00">FiftyoneDegrees::Common</text>
<text text-anchor="middle" x="108" y="-164.5" font-family="Helvetica,sans-Serif" font-size="10.00">::Collection&lt; K, V &gt;</text>
</a>
</g>
</g>
<!-- Node5&#45;&gt;Node4 -->
<g id="edge2" class="edge">
<title>Node5&#45;&gt;Node4</title>
<path fill="none" stroke="orange" stroke-dasharray="5,2" d="M108,-147.07C108,-135.06 108,-120.79 108,-109.53"/>
<polygon fill="orange" stroke="orange" points="104.5,-147.3 108,-157.3 111.5,-147.3 104.5,-147.3"/>
<text text-anchor="middle" x="182.5" y="-131" font-family="Helvetica,sans-Serif" font-size="10.00"> &lt; string, PropertyMetaData &gt;</text>
</g>
</g>
</svg>
