<?xml version="1.0" encoding="UTF-8" standalone="no"?>
<!DOCTYPE svg PUBLIC "-//W3C//DTD SVG 1.1//EN"
 "http://www.w3.org/Graphics/SVG/1.1/DTD/svg11.dtd">
<!-- Generated by graphviz version 2.43.0 (0)
 -->
<!-- Title: FiftyoneDegrees::Common::EntityMetaData&lt; K &gt; Pages: 1 -->
<svg width="707pt" height="186pt"
 viewBox="0.00 0.00 707.00 186.00" xmlns="http://www.w3.org/2000/svg" xmlns:xlink="http://www.w3.org/1999/xlink">
<g id="graph0" class="graph" transform="scale(1 1) rotate(0) translate(4 182)">
<title>FiftyoneDegrees::Common::EntityMetaData&lt; K &gt;</title>
<!-- Node0 -->
<g id="node1" class="node">
<title>Node0</title>
<g id="a_node1"><a xlink:title="Base class for any entity meta data.">
<polygon fill="#bfbfbf" stroke="black" points="0,-73.5 0,-103.5 146,-103.5 146,-73.5 0,-73.5"/>
<text text-anchor="start" x="8" y="-91.5" font-family="Helvetica,sans-Serif" font-size="10.00">FiftyoneDegrees::Common</text>
<text text-anchor="middle" x="73" y="-80.5" font-family="Helvetica,sans-Serif" font-size="10.00">::EntityMetaData&lt; K &gt;</text>
</a>
</g>
</g>
<!-- Node1 -->
<g id="node2" class="node">
<title>Node1</title>
<g id="a_node2"><a xlink:href="class_fiftyone_degrees_1_1_common_1_1_entity_meta_data.html" target="_top" xlink:title=" ">
<polygon fill="none" stroke="black" points="328,-147.5 328,-177.5 489,-177.5 489,-147.5 328,-147.5"/>
<text text-anchor="start" x="336" y="-165.5" font-family="Helvetica,sans-Serif" font-size="10.00">FiftyoneDegrees::Common</text>
<text text-anchor="middle" x="408.5" y="-154.5" font-family="Helvetica,sans-Serif" font-size="10.00">::EntityMetaData&lt; uint32_t &gt;</text>
</a>
</g>
</g>
<!-- Node0&#45;&gt;Node1 -->
<g id="edge1" class="edge">
<title>Node0&#45;&gt;Node1</title>
<path fill="none" stroke="orange" stroke-dasharray="5,2" d="M124.8,-106.84C137.49,-111.03 151.16,-115.22 164,-118.5 218.11,-132.33 280.05,-143.46 327.93,-151.07"/>
<polygon fill="orange" stroke="orange" points="125.9,-103.52 115.3,-103.64 123.66,-110.15 125.9,-103.52"/>
<text text-anchor="middle" x="223.5" y="-144.5" font-family="Helvetica,sans-Serif" font-size="10.00"> &lt; uint32_t &gt;</text>
</g>
<!-- Node3 -->
<g id="node4" class="node">
<title>Node3</title>
<g id="a_node4"><a xlink:href="class_fiftyone_degrees_1_1_common_1_1_entity_meta_data.html" target="_top" xlink:title=" ">
<polygon fill="none" stroke="black" points="301,-98.5 301,-128.5 516,-128.5 516,-98.5 301,-98.5"/>
<text text-anchor="start" x="309" y="-116.5" font-family="Helvetica,sans-Serif" font-size="10.00">FiftyoneDegrees::Common</text>
<text text-anchor="middle" x="408.5" y="-105.5" font-family="Helvetica,sans-Serif" font-size="10.00">::EntityMetaData&lt; ValueMetaDataKey &gt;</text>
</a>
</g>
</g>
<!-- Node0&#45;&gt;Node3 -->
<g id="edge3" class="edge">
<title>Node0&#45;&gt;Node3</title>
<path fill="none" stroke="orange" stroke-dasharray="5,2" d="M156.35,-94.67C199.94,-97.94 253.98,-101.99 300.75,-105.5"/>
<polygon fill="orange" stroke="orange" points="156.6,-91.18 146.36,-93.92 156.07,-98.16 156.6,-91.18"/>
<text text-anchor="middle" x="223.5" y="-106.5" font-family="Helvetica,sans-Serif" font-size="10.00"> &lt; ValueMetaDataKey &gt;</text>
</g>
<!-- Node5 -->
<g id="node6" class="node">
<title>Node5</title>
<g id="a_node6"><a xlink:href="class_fiftyone_degrees_1_1_common_1_1_entity_meta_data.html" target="_top" xlink:title=" ">
<polygon fill="none" stroke="black" points="334,-49.5 334,-79.5 483,-79.5 483,-49.5 334,-49.5"/>
<text text-anchor="start" x="342" y="-67.5" font-family="Helvetica,sans-Serif" font-size="10.00">FiftyoneDegrees::Common</text>
<text text-anchor="middle" x="408.5" y="-56.5" font-family="Helvetica,sans-Serif" font-size="10.00">::EntityMetaData&lt; string &gt;</text>
</a>
</g>
</g>
<!-- Node0&#45;&gt;Node5 -->
<g id="edge5" class="edge">
<title>Node0&#45;&gt;Node5</title>
<path fill="none" stroke="orange" stroke-dasharray="5,2" d="M156.28,-77.25C158.88,-76.98 161.46,-76.73 164,-76.5 220.9,-71.31 285.51,-68.26 333.86,-66.53"/>
<polygon fill="orange" stroke="orange" points="155.72,-73.79 146.15,-78.34 156.47,-80.75 155.72,-73.79"/>
<text text-anchor="middle" x="223.5" y="-79.5" font-family="Helvetica,sans-Serif" font-size="10.00"> &lt; string &gt;</text>
</g>
<!-- Node7 -->
<g id="node8" class="node">
<title>Node7</title>
<g id="a_node8"><a xlink:href="class_fiftyone_degrees_1_1_common_1_1_entity_meta_data.html" target="_top" xlink:title=" ">
<polygon fill="none" stroke="black" points="335.5,-0.5 335.5,-30.5 481.5,-30.5 481.5,-0.5 335.5,-0.5"/>
<text text-anchor="start" x="343.5" y="-18.5" font-family="Helvetica,sans-Serif" font-size="10.00">FiftyoneDegrees::Common</text>
<text text-anchor="middle" x="408.5" y="-7.5" font-family="Helvetica,sans-Serif" font-size="10.00">::EntityMetaData&lt; byte &gt;</text>
</a>
</g>
</g>
<!-- Node0&#45;&gt;Node7 -->
<g id="edge7" class="edge">
<title>Node0&#45;&gt;Node7</title>
<path fill="none" stroke="orange" stroke-dasharray="5,2" d="M116.95,-69.62C131.64,-63.75 148.33,-57.72 164,-53.5 220.6,-38.27 286.36,-28.46 335.26,-22.63"/>
<polygon fill="orange" stroke="orange" points="115.54,-66.41 107.61,-73.43 118.19,-72.89 115.54,-66.41"/>
<text text-anchor="middle" x="223.5" y="-56.5" font-family="Helvetica,sans-Serif" font-size="10.00"> &lt; byte &gt;</text>
</g>
<!-- Node2 -->
<g id="node3" class="node">
<title>Node2</title>
<g id="a_node3"><a xlink:href="class_fiftyone_degrees_1_1_common_1_1_profile_meta_data.html" target="_top" xlink:title="Meta data relating to a profile populated by an engine implementation.">
<polygon fill="none" stroke="black" points="553,-147.5 553,-177.5 699,-177.5 699,-147.5 553,-147.5"/>
<text text-anchor="start" x="561" y="-165.5" font-family="Helvetica,sans-Serif" font-size="10.00">FiftyoneDegrees::Common</text>
<text text-anchor="middle" x="626" y="-154.5" font-family="Helvetica,sans-Serif" font-size="10.00">::ProfileMetaData</text>
</a>
</g>
</g>
<!-- Node1&#45;&gt;Node2 -->
<g id="edge2" class="edge">
<title>Node1&#45;&gt;Node2</title>
<path fill="none" stroke="midnightblue" d="M499.51,-162.5C517.28,-162.5 535.72,-162.5 552.82,-162.5"/>
<polygon fill="midnightblue" stroke="midnightblue" points="499.13,-159 489.13,-162.5 499.13,-166 499.13,-159"/>
</g>
<!-- Node4 -->
<g id="node5" class="node">
<title>Node4</title>
<g id="a_node5"><a xlink:href="class_fiftyone_degrees_1_1_common_1_1_value_meta_data.html" target="_top" xlink:title="Meta data relating to a value populated by an engine implementation.">
<polygon fill="none" stroke="black" points="553,-98.5 553,-128.5 699,-128.5 699,-98.5 553,-98.5"/>
<text text-anchor="start" x="561" y="-116.5" font-family="Helvetica,sans-Serif" font-size="10.00">FiftyoneDegrees::Common</text>
<text text-anchor="middle" x="626" y="-105.5" font-family="Helvetica,sans-Serif" font-size="10.00">::ValueMetaData</text>
</a>
</g>
</g>
<!-- Node3&#45;&gt;Node4 -->
<g id="edge4" class="edge">
<title>Node3&#45;&gt;Node4</title>
<path fill="none" stroke="midnightblue" d="M526.45,-113.5C535.42,-113.5 544.3,-113.5 552.85,-113.5"/>
<polygon fill="midnightblue" stroke="midnightblue" points="526.3,-110 516.3,-113.5 526.3,-117 526.3,-110"/>
</g>
<!-- Node6 -->
<g id="node7" class="node">
<title>Node6</title>
<g id="a_node7"><a xlink:href="class_fiftyone_degrees_1_1_common_1_1_property_meta_data.html" target="_top" xlink:title="Meta data relating to a property populated by an engine implementation.">
<polygon fill="none" stroke="black" points="553,-49.5 553,-79.5 699,-79.5 699,-49.5 553,-49.5"/>
<text text-anchor="start" x="561" y="-67.5" font-family="Helvetica,sans-Serif" font-size="10.00">FiftyoneDegrees::Common</text>
<text text-anchor="middle" x="626" y="-56.5" font-family="Helvetica,sans-Serif" font-size="10.00">::PropertyMetaData</text>
</a>
</g>
</g>
<!-- Node5&#45;&gt;Node6 -->
<g id="edge6" class="edge">
<title>Node5&#45;&gt;Node6</title>
<path fill="none" stroke="midnightblue" d="M493.24,-64.5C512.92,-64.5 533.74,-64.5 552.87,-64.5"/>
<polygon fill="midnightblue" stroke="midnightblue" points="493.06,-61 483.06,-64.5 493.06,-68 493.06,-61"/>
</g>
<!-- Node8 -->
<g id="node9" class="node">
<title>Node8</title>
<g id="a_node9"><a xlink:href="class_fiftyone_degrees_1_1_common_1_1_component_meta_data.html" target="_top" xlink:title="EntityMetaData relating to a component populated by an engine implementation.">
<polygon fill="none" stroke="black" points="553,-0.5 553,-30.5 699,-30.5 699,-0.5 553,-0.5"/>
<text text-anchor="start" x="561" y="-18.5" font-family="Helvetica,sans-Serif" font-size="10.00">FiftyoneDegrees::Common</text>
<text text-anchor="middle" x="626" y="-7.5" font-family="Helvetica,sans-Serif" font-size="10.00">::ComponentMetaData</text>
</a>
</g>
</g>
<!-- Node7&#45;&gt;Node8 -->
<g id="edge8" class="edge">
<title>Node7&#45;&gt;Node8</title>
<path fill="none" stroke="midnightblue" d="M491.62,-15.5C511.7,-15.5 533.05,-15.5 552.64,-15.5"/>
<polygon fill="midnightblue" stroke="midnightblue" points="491.56,-12 481.56,-15.5 491.56,-19 491.56,-12"/>
</g>
</g>
</svg>
