<?xml version="1.0" encoding="UTF-8" standalone="no"?>
<!DOCTYPE svg PUBLIC "-//W3C//DTD SVG 1.1//EN"
 "http://www.w3.org/Graphics/SVG/1.1/DTD/svg11.dtd">
<!-- Generated by graphviz version 2.43.0 (0)
 -->
<!-- Title: FiftyoneDegrees::Common::MetaData Pages: 1 -->
<svg width="224pt" height="195pt"
 viewBox="0.00 0.00 223.50 195.00" xmlns="http://www.w3.org/2000/svg" xmlns:xlink="http://www.w3.org/1999/xlink">
<g id="graph0" class="graph" transform="scale(1 1) rotate(0) translate(4 191)">
<title>FiftyoneDegrees::Common::MetaData</title>
<!-- Node2 -->
<g id="node1" class="node">
<title>Node2</title>
<g id="a_node1"><a xlink:title="Contains meta data for the properties, values, profiles and components that exist within the engine i...">
<polygon fill="#bfbfbf" stroke="black" points="5.5,-0.5 5.5,-30.5 151.5,-30.5 151.5,-0.5 5.5,-0.5"/>
<text text-anchor="start" x="13.5" y="-18.5" font-family="Helvetica,sans-Serif" font-size="10.00">FiftyoneDegrees::Common</text>
<text text-anchor="middle" x="78.5" y="-7.5" font-family="Helvetica,sans-Serif" font-size="10.00">::MetaData</text>
</a>
</g>
</g>
<!-- Node3 -->
<g id="node2" class="node">
<title>Node3</title>
<g id="a_node2"><a xlink:title=" ">
<polygon fill="none" stroke="#bfbfbf" points="0,-78.5 0,-108.5 157,-108.5 157,-78.5 0,-78.5"/>
<text text-anchor="start" x="8" y="-96.5" font-family="Helvetica,sans-Serif" font-size="10.00">shared_ptr&lt; fiftyoneDegrees</text>
<text text-anchor="middle" x="78.5" y="-85.5" font-family="Helvetica,sans-Serif" font-size="10.00">ResourceManager &gt;</text>
</a>
</g>
</g>
<!-- Node3&#45;&gt;Node2 -->
<g id="edge1" class="edge">
<title>Node3&#45;&gt;Node2</title>
<path fill="none" stroke="#9a32cd" stroke-dasharray="5,2" d="M78.5,-68.09C78.5,-55.76 78.5,-41.22 78.5,-30.73"/>
<polygon fill="#9a32cd" stroke="#9a32cd" points="75,-68.2 78.5,-78.2 82,-68.21 75,-68.2"/>
<text text-anchor="middle" x="102" y="-52" font-family="Helvetica,sans-Serif" font-size="10.00"> manager</text>
</g>
<!-- Node4 -->
<g id="node3" class="node">
<title>Node4</title>
<g id="a_node3"><a xlink:title=" ">
<polygon fill="none" stroke="#bfbfbf" points="44.5,-167.5 44.5,-186.5 112.5,-186.5 112.5,-167.5 44.5,-167.5"/>
<text text-anchor="middle" x="78.5" y="-174.5" font-family="Helvetica,sans-Serif" font-size="10.00">shared_ptr</text>
</a>
</g>
</g>
<!-- Node4&#45;&gt;Node3 -->
<g id="edge2" class="edge">
<title>Node4&#45;&gt;Node3</title>
<path fill="none" stroke="orange" stroke-dasharray="5,2" d="M78.5,-157.23C78.5,-142.41 78.5,-122.05 78.5,-108.6"/>
<polygon fill="orange" stroke="orange" points="75,-157.28 78.5,-167.28 82,-157.28 75,-157.28"/>
<text text-anchor="start" x="78.5" y="-141" font-family="Helvetica,sans-Serif" font-size="10.00"> &lt; fiftyoneDegreesResource</text>
<text text-anchor="middle" x="147" y="-130" font-family="Helvetica,sans-Serif" font-size="10.00">Manager &gt;</text>
</g>
</g>
</svg>
