<?xml version="1.0" encoding="UTF-8" standalone="no"?>
<!DOCTYPE svg PUBLIC "-//W3C//DTD SVG 1.1//EN"
 "http://www.w3.org/Graphics/SVG/1.1/DTD/svg11.dtd">
<!-- Generated by graphviz version 2.43.0 (0)
 -->
<!-- Title: FiftyoneDegrees::Examples::Hash::ExampleBase::SharedState Pages: 1 -->
<svg width="1128pt" height="137pt"
 viewBox="0.00 0.00 1128.00 137.00" xmlns="http://www.w3.org/2000/svg" xmlns:xlink="http://www.w3.org/1999/xlink">
<g id="graph0" class="graph" transform="scale(1 1) rotate(0) translate(4 133)">
<title>FiftyoneDegrees::Examples::Hash::ExampleBase::SharedState</title>
<!-- Node1 -->
<g id="node1" class="node">
<title>Node1</title>
<g id="a_node1"><a xlink:title="State containing the states for all threads running in a multi&#45;threaded example .">
<polygon fill="#bfbfbf" stroke="black" points="935,-49.5 935,-79.5 1120,-79.5 1120,-49.5 935,-49.5"/>
<text text-anchor="start" x="943" y="-67.5" font-family="Helvetica,sans-Serif" font-size="10.00">FiftyoneDegrees::Examples</text>
<text text-anchor="middle" x="1027.5" y="-56.5" font-family="Helvetica,sans-Serif" font-size="10.00">::Hash::ExampleBase::SharedState</text>
</a>
</g>
</g>
<!-- Node2 -->
<g id="node2" class="node">
<title>Node2</title>
<g id="a_node2"><a xlink:href="class_fiftyone_degrees_1_1_device_detection_1_1_hash_1_1_engine_hash.html" target="_top" xlink:title="Encapsulates the Hash engine class which implements EngineDeviceDetection.">
<polygon fill="none" stroke="black" points="679,-49.5 679,-79.5 862,-79.5 862,-49.5 679,-49.5"/>
<text text-anchor="start" x="687" y="-67.5" font-family="Helvetica,sans-Serif" font-size="10.00">FiftyoneDegrees::DeviceDetection</text>
<text text-anchor="middle" x="770.5" y="-56.5" font-family="Helvetica,sans-Serif" font-size="10.00">::Hash::EngineHash</text>
</a>
</g>
</g>
<!-- Node2&#45;&gt;Node1 -->
<g id="edge1" class="edge">
<title>Node2&#45;&gt;Node1</title>
<path fill="none" stroke="#9a32cd" stroke-dasharray="5,2" d="M872.19,-64.5C892.87,-64.5 914.54,-64.5 934.88,-64.5"/>
<polygon fill="#9a32cd" stroke="#9a32cd" points="872.12,-61 862.12,-64.5 872.12,-68 872.12,-61"/>
<text text-anchor="middle" x="898.5" y="-67.5" font-family="Helvetica,sans-Serif" font-size="10.00"> engine</text>
</g>
<!-- Node3 -->
<g id="node3" class="node">
<title>Node3</title>
<g id="a_node3"><a xlink:href="class_fiftyone_degrees_1_1_device_detection_1_1_engine_device_detection.html" target="_top" xlink:title="Encapsulates the device detection engine class to be extended by device detection engine implementati...">
<polygon fill="none" stroke="black" points="459,-49.5 459,-79.5 642,-79.5 642,-49.5 459,-49.5"/>
<text text-anchor="start" x="467" y="-67.5" font-family="Helvetica,sans-Serif" font-size="10.00">FiftyoneDegrees::DeviceDetection</text>
<text text-anchor="middle" x="550.5" y="-56.5" font-family="Helvetica,sans-Serif" font-size="10.00">::EngineDeviceDetection</text>
</a>
</g>
</g>
<!-- Node3&#45;&gt;Node2 -->
<g id="edge2" class="edge">
<title>Node3&#45;&gt;Node2</title>
<path fill="none" stroke="midnightblue" d="M652.1,-64.5C661.03,-64.5 670.03,-64.5 678.87,-64.5"/>
<polygon fill="midnightblue" stroke="midnightblue" points="652.06,-61 642.06,-64.5 652.06,-68 652.06,-61"/>
</g>
<!-- Node4 -->
<g id="node4" class="node">
<title>Node4</title>
<g id="a_node4"><a xlink:href="class_fiftyone_degrees_1_1_common_1_1_engine_base.html" target="_top" xlink:title="Encapsulates the engine class to be extended by engine implementations.">
<polygon fill="none" stroke="black" points="276,-49.5 276,-79.5 422,-79.5 422,-49.5 276,-49.5"/>
<text text-anchor="start" x="284" y="-67.5" font-family="Helvetica,sans-Serif" font-size="10.00">FiftyoneDegrees::Common</text>
<text text-anchor="middle" x="349" y="-56.5" font-family="Helvetica,sans-Serif" font-size="10.00">::EngineBase</text>
</a>
</g>
</g>
<!-- Node4&#45;&gt;Node3 -->
<g id="edge3" class="edge">
<title>Node4&#45;&gt;Node3</title>
<path fill="none" stroke="midnightblue" d="M432.22,-64.5C440.99,-64.5 449.95,-64.5 458.82,-64.5"/>
<polygon fill="midnightblue" stroke="midnightblue" points="432.02,-61 422.02,-64.5 432.02,-68 432.02,-61"/>
</g>
<!-- Node5 -->
<g id="node5" class="node">
<title>Node5</title>
<g id="a_node5"><a xlink:href="class_fiftyone_degrees_1_1_common_1_1_required_properties_config.html" target="_top" xlink:title="C++ class wrapper for the fiftyoneDegreesPropertiesRequired structure.">
<polygon fill="none" stroke="black" points="0,-98.5 0,-128.5 146,-128.5 146,-98.5 0,-98.5"/>
<text text-anchor="start" x="8" y="-116.5" font-family="Helvetica,sans-Serif" font-size="10.00">FiftyoneDegrees::Common</text>
<text text-anchor="middle" x="73" y="-105.5" font-family="Helvetica,sans-Serif" font-size="10.00">::RequiredPropertiesConfig</text>
</a>
</g>
</g>
<!-- Node5&#45;&gt;Node4 -->
<g id="edge4" class="edge">
<title>Node5&#45;&gt;Node4</title>
<path fill="none" stroke="#9a32cd" stroke-dasharray="5,2" d="M156.36,-98.77C194.36,-91.98 239.05,-83.98 275.72,-77.43"/>
<polygon fill="#9a32cd" stroke="#9a32cd" points="155.58,-95.36 146.35,-100.56 156.81,-102.25 155.58,-95.36"/>
<text text-anchor="middle" x="211" y="-98.5" font-family="Helvetica,sans-Serif" font-size="10.00"> requiredProperties</text>
</g>
<!-- Node6 -->
<g id="node6" class="node">
<title>Node6</title>
<g id="a_node6"><a xlink:href="class_fiftyone_degrees_1_1_common_1_1_meta_data.html" target="_top" xlink:title="Contains meta data for the properties, values, profiles and components that exist within the engine i...">
<polygon fill="none" stroke="black" points="0,-49.5 0,-79.5 146,-79.5 146,-49.5 0,-49.5"/>
<text text-anchor="start" x="8" y="-67.5" font-family="Helvetica,sans-Serif" font-size="10.00">FiftyoneDegrees::Common</text>
<text text-anchor="middle" x="73" y="-56.5" font-family="Helvetica,sans-Serif" font-size="10.00">::MetaData</text>
</a>
</g>
</g>
<!-- Node6&#45;&gt;Node4 -->
<g id="edge5" class="edge">
<title>Node6&#45;&gt;Node4</title>
<path fill="none" stroke="#9a32cd" stroke-dasharray="5,2" d="M156.36,-64.5C194.36,-64.5 239.05,-64.5 275.72,-64.5"/>
<polygon fill="#9a32cd" stroke="#9a32cd" points="156.35,-61 146.35,-64.5 156.35,-68 156.35,-61"/>
<text text-anchor="middle" x="211" y="-67.5" font-family="Helvetica,sans-Serif" font-size="10.00"> metaData</text>
</g>
<!-- Node7 -->
<g id="node7" class="node">
<title>Node7</title>
<g id="a_node7"><a xlink:href="class_fiftyone_degrees_1_1_common_1_1_config_base.html" target="_top" xlink:title="C++ class wrapper for the fiftyoneDegreesConfigBase configuration structure.">
<polygon fill="none" stroke="black" points="0,-0.5 0,-30.5 146,-30.5 146,-0.5 0,-0.5"/>
<text text-anchor="start" x="8" y="-18.5" font-family="Helvetica,sans-Serif" font-size="10.00">FiftyoneDegrees::Common</text>
<text text-anchor="middle" x="73" y="-7.5" font-family="Helvetica,sans-Serif" font-size="10.00">::ConfigBase</text>
</a>
</g>
</g>
<!-- Node7&#45;&gt;Node4 -->
<g id="edge6" class="edge">
<title>Node7&#45;&gt;Node4</title>
<path fill="none" stroke="#9a32cd" stroke-dasharray="5,2" d="M156.36,-30.23C194.36,-37.02 239.05,-45.02 275.72,-51.57"/>
<polygon fill="#9a32cd" stroke="#9a32cd" points="156.81,-26.75 146.35,-28.44 155.58,-33.64 156.81,-26.75"/>
<text text-anchor="middle" x="211" y="-49.5" font-family="Helvetica,sans-Serif" font-size="10.00"> config</text>
</g>
</g>
</svg>
