<?xml version="1.0" encoding="UTF-8" standalone="no"?>
<!DOCTYPE svg PUBLIC "-//W3C//DTD SVG 1.1//EN"
 "http://www.w3.org/Graphics/SVG/1.1/DTD/svg11.dtd">
<!-- Generated by graphviz version 2.43.0 (0)
 -->
<!-- Title: FiftyoneDegrees::DeviceDetection::Hash::ResultsHash Pages: 1 -->
<svg width="484pt" height="478pt"
 viewBox="0.00 0.00 484.00 478.00" xmlns="http://www.w3.org/2000/svg" xmlns:xlink="http://www.w3.org/1999/xlink">
<g id="graph0" class="graph" transform="scale(1 1) rotate(0) translate(4 474)">
<title>FiftyoneDegrees::DeviceDetection::Hash::ResultsHash</title>
<!-- Node3 -->
<g id="node1" class="node">
<title>Node3</title>
<g id="a_node1"><a xlink:title="Encapsulates the results of a Hash device detection engine&#39;s processing.">
<polygon fill="#bfbfbf" stroke="black" points="26,-0.5 26,-30.5 209,-30.5 209,-0.5 26,-0.5"/>
<text text-anchor="start" x="34" y="-18.5" font-family="Helvetica,sans-Serif" font-size="10.00">FiftyoneDegrees::DeviceDetection</text>
<text text-anchor="middle" x="117.5" y="-7.5" font-family="Helvetica,sans-Serif" font-size="10.00">::Hash::ResultsHash</text>
</a>
</g>
</g>
<!-- Node4 -->
<g id="node2" class="node">
<title>Node4</title>
<g id="a_node2"><a xlink:href="class_fiftyone_degrees_1_1_device_detection_1_1_results_device_detection.html" target="_top" xlink:title="Encapsulates the results of a device detection engine&#39;s processing.">
<polygon fill="none" stroke="black" points="26,-68.5 26,-98.5 209,-98.5 209,-68.5 26,-68.5"/>
<text text-anchor="start" x="34" y="-86.5" font-family="Helvetica,sans-Serif" font-size="10.00">FiftyoneDegrees::DeviceDetection</text>
<text text-anchor="middle" x="117.5" y="-75.5" font-family="Helvetica,sans-Serif" font-size="10.00">::ResultsDeviceDetection</text>
</a>
</g>
</g>
<!-- Node4&#45;&gt;Node3 -->
<g id="edge1" class="edge">
<title>Node4&#45;&gt;Node3</title>
<path fill="none" stroke="midnightblue" d="M117.5,-58.03C117.5,-48.86 117.5,-38.74 117.5,-30.79"/>
<polygon fill="midnightblue" stroke="midnightblue" points="114,-58.18 117.5,-68.18 121,-58.18 114,-58.18"/>
</g>
<!-- Node5 -->
<g id="node3" class="node">
<title>Node5</title>
<g id="a_node3"><a xlink:href="class_fiftyone_degrees_1_1_common_1_1_results_base.html" target="_top" xlink:title="Encapsulates the results of an engine&#39;s processing.">
<polygon fill="none" stroke="black" points="44.5,-136.5 44.5,-166.5 190.5,-166.5 190.5,-136.5 44.5,-136.5"/>
<text text-anchor="start" x="52.5" y="-154.5" font-family="Helvetica,sans-Serif" font-size="10.00">FiftyoneDegrees::Common</text>
<text text-anchor="middle" x="117.5" y="-143.5" font-family="Helvetica,sans-Serif" font-size="10.00">::ResultsBase</text>
</a>
</g>
</g>
<!-- Node5&#45;&gt;Node4 -->
<g id="edge2" class="edge">
<title>Node5&#45;&gt;Node4</title>
<path fill="none" stroke="midnightblue" d="M117.5,-126.03C117.5,-116.86 117.5,-106.74 117.5,-98.79"/>
<polygon fill="midnightblue" stroke="midnightblue" points="114,-126.18 117.5,-136.18 121,-126.18 114,-126.18"/>
</g>
<!-- Node6 -->
<g id="node4" class="node">
<title>Node6</title>
<g id="a_node4"><a xlink:href="structfiftyone_degrees_property_available_array.html" target="_top" xlink:title="Array of items of type fiftyoneDegreesPropertyAvailable used to easily access and track the size of t...">
<polygon fill="none" stroke="black" points="27.5,-214.5 27.5,-244.5 207.5,-244.5 207.5,-214.5 27.5,-214.5"/>
<text text-anchor="start" x="35.5" y="-232.5" font-family="Helvetica,sans-Serif" font-size="10.00">fiftyoneDegreesPropertyAvailable</text>
<text text-anchor="middle" x="117.5" y="-221.5" font-family="Helvetica,sans-Serif" font-size="10.00">Array</text>
</a>
</g>
</g>
<!-- Node6&#45;&gt;Node5 -->
<g id="edge3" class="edge">
<title>Node6&#45;&gt;Node5</title>
<path fill="none" stroke="#9a32cd" stroke-dasharray="5,2" d="M117.5,-204.09C117.5,-191.76 117.5,-177.22 117.5,-166.73"/>
<polygon fill="#9a32cd" stroke="#9a32cd" points="114,-204.2 117.5,-214.2 121,-204.21 114,-204.2"/>
<text text-anchor="middle" x="142" y="-188" font-family="Helvetica,sans-Serif" font-size="10.00"> available</text>
</g>
<!-- Node7 -->
<g id="node5" class="node">
<title>Node7</title>
<g id="a_node5"><a xlink:href="structfiftyone_degrees_property_available.html" target="_top" xlink:title="Used to access the property item quickly without the need to search.">
<polygon fill="none" stroke="black" points="27.5,-299 27.5,-318 207.5,-318 207.5,-299 27.5,-299"/>
<text text-anchor="middle" x="117.5" y="-306" font-family="Helvetica,sans-Serif" font-size="10.00">fiftyoneDegreesPropertyAvailable</text>
</a>
</g>
</g>
<!-- Node7&#45;&gt;Node6 -->
<g id="edge4" class="edge">
<title>Node7&#45;&gt;Node6</title>
<path fill="none" stroke="#9a32cd" stroke-dasharray="5,2" d="M117.5,-288.8C117.5,-275.16 117.5,-256.96 117.5,-244.54"/>
<polygon fill="#9a32cd" stroke="#9a32cd" points="114,-288.97 117.5,-298.97 121,-288.97 114,-288.97"/>
<text text-anchor="middle" x="133" y="-266" font-family="Helvetica,sans-Serif" font-size="10.00"> items</text>
</g>
<!-- Node8 -->
<g id="node6" class="node">
<title>Node8</title>
<g id="a_node6"><a xlink:href="structfiftyone_degrees_evidence_property_index_array.html" target="_top" xlink:title="Array of items of type fiftyoneDegreesEvidencePropertyIndex used to easily access and track the size ...">
<polygon fill="none" stroke="black" points="0,-372.5 0,-402.5 179,-402.5 179,-372.5 0,-372.5"/>
<text text-anchor="start" x="8" y="-390.5" font-family="Helvetica,sans-Serif" font-size="10.00">fiftyoneDegreesEvidenceProperty</text>
<text text-anchor="middle" x="89.5" y="-379.5" font-family="Helvetica,sans-Serif" font-size="10.00">IndexArray</text>
</a>
</g>
</g>
<!-- Node8&#45;&gt;Node7 -->
<g id="edge5" class="edge">
<title>Node8&#45;&gt;Node7</title>
<path fill="none" stroke="#9a32cd" stroke-dasharray="5,2" d="M93.11,-362.32C94.44,-355.92 96.2,-349.1 98.5,-343 101.84,-334.11 107.32,-324.78 111.54,-318.23"/>
<polygon fill="#9a32cd" stroke="#9a32cd" points="89.61,-362.01 91.27,-372.48 96.5,-363.26 89.61,-362.01"/>
<text text-anchor="middle" x="147" y="-346" font-family="Helvetica,sans-Serif" font-size="10.00"> evidenceProperties</text>
</g>
<!-- Node9 -->
<g id="node7" class="node">
<title>Node9</title>
<g id="a_node7"><a xlink:href="structfiftyone_degrees_collection_item.html" target="_top" xlink:title="Used to store a handle to the underlying item that could be used to release the item when it&#39;s finish...">
<polygon fill="none" stroke="black" points="197,-378 197,-397 362,-397 362,-378 197,-378"/>
<text text-anchor="middle" x="279.5" y="-385" font-family="Helvetica,sans-Serif" font-size="10.00">fiftyoneDegreesCollectionItem</text>
</a>
</g>
</g>
<!-- Node9&#45;&gt;Node7 -->
<g id="edge6" class="edge">
<title>Node9&#45;&gt;Node7</title>
<path fill="none" stroke="#9a32cd" stroke-dasharray="5,2" d="M254.84,-373.13C238.22,-364.27 215.73,-352.57 195.5,-343 176.45,-333.99 154.34,-324.59 138.54,-318.05"/>
<polygon fill="#9a32cd" stroke="#9a32cd" points="253.41,-376.34 263.88,-377.98 256.72,-370.17 253.41,-376.34"/>
<text text-anchor="middle" x="232" y="-346" font-family="Helvetica,sans-Serif" font-size="10.00"> name</text>
</g>
<!-- Node10 -->
<g id="node8" class="node">
<title>Node10</title>
<g id="a_node8"><a xlink:href="structfiftyone_degrees_collection.html" target="_top" xlink:title="All the shared methods and fields required by file, memory and cached collections.">
<polygon fill="none" stroke="black" points="246,-299 246,-318 389,-318 389,-299 246,-299"/>
<text text-anchor="middle" x="317.5" y="-306" font-family="Helvetica,sans-Serif" font-size="10.00">fiftyoneDegreesCollection</text>
</a>
</g>
</g>
<!-- Node9&#45;&gt;Node10 -->
<g id="edge8" class="edge">
<title>Node9&#45;&gt;Node10</title>
<path fill="none" stroke="#9a32cd" stroke-dasharray="5,2" d="M271.74,-368.1C269.52,-360.05 268.63,-350.7 272.5,-343 278.01,-332.03 288.99,-323.75 298.73,-318.16"/>
<polygon fill="#9a32cd" stroke="#9a32cd" points="268.49,-369.42 275.11,-377.69 275.09,-367.1 268.49,-369.42"/>
<text text-anchor="middle" x="292.5" y="-346" font-family="Helvetica,sans-Serif" font-size="10.00"> release</text>
</g>
<!-- Node10&#45;&gt;Node9 -->
<g id="edge7" class="edge">
<title>Node10&#45;&gt;Node9</title>
<path fill="none" stroke="#9a32cd" stroke-dasharray="5,2" d="M320.37,-328.29C320.81,-336.53 320.18,-346.1 316.5,-354 311.8,-364.07 302.34,-372.3 294.15,-377.95"/>
<polygon fill="#9a32cd" stroke="#9a32cd" points="323.83,-327.73 319.28,-318.16 316.87,-328.48 323.83,-327.73"/>
<text text-anchor="middle" x="345" y="-346" font-family="Helvetica,sans-Serif" font-size="10.00"> collection</text>
</g>
<!-- Node10&#45;&gt;Node10 -->
<g id="edge9" class="edge">
<title>Node10&#45;&gt;Node10</title>
<path fill="none" stroke="#9a32cd" stroke-dasharray="5,2" d="M399.11,-313.69C404.04,-312.46 407,-310.73 407,-308.5 407,-305.02 399.79,-302.76 389.13,-301.7"/>
<polygon fill="#9a32cd" stroke="#9a32cd" points="398.44,-310.26 389.13,-315.3 399.56,-317.17 398.44,-310.26"/>
<text text-anchor="middle" x="441.5" y="-317" font-family="Helvetica,sans-Serif" font-size="10.00"> next</text>
<text text-anchor="middle" x="441.5" y="-306" font-family="Helvetica,sans-Serif" font-size="10.00">freeCollection</text>
<text text-anchor="middle" x="441.5" y="-295" font-family="Helvetica,sans-Serif" font-size="10.00">get</text>
</g>
<!-- Node11 -->
<g id="node9" class="node">
<title>Node11</title>
<g id="a_node9"><a xlink:href="structfiftyone_degrees_data.html" target="_top" xlink:title="Data structure used for reusing memory which may have been allocated in a previous operation.">
<polygon fill="none" stroke="black" points="221,-450.5 221,-469.5 338,-469.5 338,-450.5 221,-450.5"/>
<text text-anchor="middle" x="279.5" y="-457.5" font-family="Helvetica,sans-Serif" font-size="10.00">fiftyoneDegreesData</text>
</a>
</g>
</g>
<!-- Node11&#45;&gt;Node9 -->
<g id="edge10" class="edge">
<title>Node11&#45;&gt;Node9</title>
<path fill="none" stroke="#9a32cd" stroke-dasharray="5,2" d="M279.5,-439.94C279.5,-426.03 279.5,-407.82 279.5,-397.22"/>
<polygon fill="#9a32cd" stroke="#9a32cd" points="276,-440.36 279.5,-450.36 283,-440.36 276,-440.36"/>
<text text-anchor="middle" x="292" y="-424" font-family="Helvetica,sans-Serif" font-size="10.00"> data</text>
</g>
</g>
</svg>
