<?xml version="1.0" encoding="UTF-8" standalone="no"?>
<!DOCTYPE svg PUBLIC "-//W3C//DTD SVG 1.1//EN"
 "http://www.w3.org/Graphics/SVG/1.1/DTD/svg11.dtd">
<!-- Generated by graphviz version 2.43.0 (0)
 -->
<!-- Title: FiftyoneDegrees::Common::Collection&lt; K, V &gt; Pages: 1 -->
<svg width="1090pt" height="328pt"
 viewBox="0.00 0.00 1090.00 328.00" xmlns="http://www.w3.org/2000/svg" xmlns:xlink="http://www.w3.org/1999/xlink">
<g id="graph0" class="graph" transform="scale(1 1) rotate(0) translate(4 324)">
<title>FiftyoneDegrees::Common::Collection&lt; K, V &gt;</title>
<!-- Node0 -->
<g id="node1" class="node">
<title>Node0</title>
<g id="a_node1"><a xlink:title="A group of items accessible by index or key.">
<polygon fill="#bfbfbf" stroke="black" points="0,-92 0,-122 146,-122 146,-92 0,-92"/>
<text text-anchor="start" x="8" y="-110" font-family="Helvetica,sans-Serif" font-size="10.00">FiftyoneDegrees::Common</text>
<text text-anchor="middle" x="73" y="-99" font-family="Helvetica,sans-Serif" font-size="10.00">::Collection&lt; K, V &gt;</text>
</a>
</g>
</g>
<!-- Node1 -->
<g id="node2" class="node">
<title>Node1</title>
<g id="a_node2"><a xlink:href="class_fiftyone_degrees_1_1_common_1_1_collection.html" target="_top" xlink:title=" ">
<polygon fill="none" stroke="black" points="356.5,-199.5 356.5,-240.5 502.5,-240.5 502.5,-199.5 356.5,-199.5"/>
<text text-anchor="start" x="364.5" y="-228.5" font-family="Helvetica,sans-Serif" font-size="10.00">FiftyoneDegrees::Common</text>
<text text-anchor="start" x="364.5" y="-217.5" font-family="Helvetica,sans-Serif" font-size="10.00">::Collection&lt; string,</text>
<text text-anchor="middle" x="429.5" y="-206.5" font-family="Helvetica,sans-Serif" font-size="10.00"> PropertyMetaData &gt;</text>
</a>
</g>
</g>
<!-- Node0&#45;&gt;Node1 -->
<g id="edge1" class="edge">
<title>Node0&#45;&gt;Node1</title>
<path fill="none" stroke="orange" stroke-dasharray="5,2" d="M116.41,-126.18C131.3,-132.57 148.25,-139.47 164,-145 228.17,-167.55 302.86,-188.23 356.47,-202.14"/>
<polygon fill="orange" stroke="orange" points="117.52,-122.84 106.96,-122.07 114.73,-129.26 117.52,-122.84"/>
<text text-anchor="middle" x="243" y="-195" font-family="Helvetica,sans-Serif" font-size="10.00"> &lt; string, PropertyMetaData &gt;</text>
</g>
<!-- Node5 -->
<g id="node6" class="node">
<title>Node5</title>
<g id="a_node6"><a xlink:href="class_fiftyone_degrees_1_1_common_1_1_collection.html" target="_top" xlink:title=" ">
<polygon fill="none" stroke="black" points="346,-120.5 346,-161.5 513,-161.5 513,-120.5 346,-120.5"/>
<text text-anchor="start" x="354" y="-149.5" font-family="Helvetica,sans-Serif" font-size="10.00">FiftyoneDegrees::Common</text>
<text text-anchor="start" x="354" y="-138.5" font-family="Helvetica,sans-Serif" font-size="10.00">::Collection&lt; byte, Component</text>
<text text-anchor="middle" x="429.5" y="-127.5" font-family="Helvetica,sans-Serif" font-size="10.00">MetaData &gt;</text>
</a>
</g>
</g>
<!-- Node0&#45;&gt;Node5 -->
<g id="edge5" class="edge">
<title>Node0&#45;&gt;Node5</title>
<path fill="none" stroke="orange" stroke-dasharray="5,2" d="M156.22,-114.89C213.21,-120.35 288.8,-127.6 345.88,-133.08"/>
<polygon fill="orange" stroke="orange" points="156.45,-111.39 146.17,-113.92 155.79,-118.36 156.45,-111.39"/>
<text text-anchor="middle" x="243" y="-133" font-family="Helvetica,sans-Serif" font-size="10.00"> &lt; byte, ComponentMetaData &gt;</text>
</g>
<!-- Node7 -->
<g id="node8" class="node">
<title>Node7</title>
<g id="a_node8"><a xlink:href="class_fiftyone_degrees_1_1_common_1_1_collection.html" target="_top" xlink:title=" ">
<polygon fill="none" stroke="black" points="340,-60.5 340,-101.5 519,-101.5 519,-60.5 340,-60.5"/>
<text text-anchor="start" x="348" y="-89.5" font-family="Helvetica,sans-Serif" font-size="10.00">FiftyoneDegrees::Common</text>
<text text-anchor="start" x="348" y="-78.5" font-family="Helvetica,sans-Serif" font-size="10.00">::Collection&lt; ValueMetaDataKey,</text>
<text text-anchor="middle" x="429.5" y="-67.5" font-family="Helvetica,sans-Serif" font-size="10.00"> ValueMetaData &gt;</text>
</a>
</g>
</g>
<!-- Node0&#45;&gt;Node7 -->
<g id="edge7" class="edge">
<title>Node0&#45;&gt;Node7</title>
<path fill="none" stroke="orange" stroke-dasharray="5,2" d="M156.26,-93.83C158.87,-93.53 161.45,-93.26 164,-93 222.43,-87.15 288.41,-84.15 339.86,-82.61"/>
<polygon fill="orange" stroke="orange" points="155.62,-90.38 146.12,-95.07 156.47,-97.33 155.62,-90.38"/>
<text text-anchor="start" x="187.5" y="-107" font-family="Helvetica,sans-Serif" font-size="10.00"> &lt; ValueMetaDataKey,</text>
<text text-anchor="middle" x="243" y="-96" font-family="Helvetica,sans-Serif" font-size="10.00"> ValueMetaData &gt;</text>
</g>
<!-- Node12 -->
<g id="node13" class="node">
<title>Node12</title>
<g id="a_node13"><a xlink:href="class_fiftyone_degrees_1_1_common_1_1_collection.html" target="_top" xlink:title=" ">
<polygon fill="none" stroke="black" points="356.5,-0.5 356.5,-41.5 502.5,-41.5 502.5,-0.5 356.5,-0.5"/>
<text text-anchor="start" x="364.5" y="-29.5" font-family="Helvetica,sans-Serif" font-size="10.00">FiftyoneDegrees::Common</text>
<text text-anchor="start" x="364.5" y="-18.5" font-family="Helvetica,sans-Serif" font-size="10.00">::Collection&lt; uint32_t,</text>
<text text-anchor="middle" x="429.5" y="-7.5" font-family="Helvetica,sans-Serif" font-size="10.00"> ProfileMetaData &gt;</text>
</a>
</g>
</g>
<!-- Node0&#45;&gt;Node12 -->
<g id="edge12" class="edge">
<title>Node0&#45;&gt;Node12</title>
<path fill="none" stroke="orange" stroke-dasharray="5,2" d="M113.42,-87.55C128.89,-80.55 146.99,-73.12 164,-68 227.75,-48.81 302.65,-36.41 356.44,-29.19"/>
<polygon fill="orange" stroke="orange" points="111.77,-84.45 104.16,-91.83 114.71,-90.81 111.77,-84.45"/>
<text text-anchor="middle" x="243" y="-71" font-family="Helvetica,sans-Serif" font-size="10.00"> &lt; uint32_t, ProfileMetaData &gt;</text>
</g>
<!-- Node2 -->
<g id="node3" class="node">
<title>Node2</title>
<g id="a_node3"><a xlink:href="class_fiftyone_degrees_1_1_device_detection_1_1_hash_1_1_property_meta_data_collection_for_component_hash.html" target="_top" xlink:title="A collection of property meta data relating to a component contained in a Hash engine.">
<polygon fill="none" stroke="black" points="568.5,-278.5 568.5,-319.5 774.5,-319.5 774.5,-278.5 568.5,-278.5"/>
<text text-anchor="start" x="576.5" y="-307.5" font-family="Helvetica,sans-Serif" font-size="10.00">FiftyoneDegrees::DeviceDetection</text>
<text text-anchor="start" x="576.5" y="-296.5" font-family="Helvetica,sans-Serif" font-size="10.00">::Hash::PropertyMetaDataCollectionFor</text>
<text text-anchor="middle" x="671.5" y="-285.5" font-family="Helvetica,sans-Serif" font-size="10.00">ComponentHash</text>
</a>
</g>
</g>
<!-- Node1&#45;&gt;Node2 -->
<g id="edge2" class="edge">
<title>Node1&#45;&gt;Node2</title>
<path fill="none" stroke="midnightblue" d="M488.63,-244.32C509.66,-252.68 533.72,-261.76 556,-269 566.06,-272.27 576.71,-275.44 587.3,-278.42"/>
<polygon fill="midnightblue" stroke="midnightblue" points="489.78,-241.01 479.2,-240.53 487.17,-247.5 489.78,-241.01"/>
</g>
<!-- Node3 -->
<g id="node4" class="node">
<title>Node3</title>
<g id="a_node4"><a xlink:href="class_fiftyone_degrees_1_1_device_detection_1_1_hash_1_1_property_meta_data_collection_for_property_hash.html" target="_top" xlink:title=" ">
<polygon fill="none" stroke="black" points="568.5,-218.5 568.5,-259.5 774.5,-259.5 774.5,-218.5 568.5,-218.5"/>
<text text-anchor="start" x="576.5" y="-247.5" font-family="Helvetica,sans-Serif" font-size="10.00">FiftyoneDegrees::DeviceDetection</text>
<text text-anchor="start" x="576.5" y="-236.5" font-family="Helvetica,sans-Serif" font-size="10.00">::Hash::PropertyMetaDataCollectionFor</text>
<text text-anchor="middle" x="671.5" y="-225.5" font-family="Helvetica,sans-Serif" font-size="10.00">PropertyHash</text>
</a>
</g>
</g>
<!-- Node1&#45;&gt;Node3 -->
<g id="edge3" class="edge">
<title>Node1&#45;&gt;Node3</title>
<path fill="none" stroke="midnightblue" d="M512.62,-226.5C530.56,-227.92 549.76,-229.44 568.38,-230.92"/>
<polygon fill="midnightblue" stroke="midnightblue" points="512.75,-223 502.51,-225.7 512.2,-229.98 512.75,-223"/>
</g>
<!-- Node4 -->
<g id="node5" class="node">
<title>Node4</title>
<g id="a_node5"><a xlink:href="class_fiftyone_degrees_1_1_device_detection_1_1_hash_1_1_property_meta_data_collection_hash.html" target="_top" xlink:title="A collection of all property meta data contained in a Hash engine.">
<polygon fill="none" stroke="black" points="563.5,-169 563.5,-199 779.5,-199 779.5,-169 563.5,-169"/>
<text text-anchor="start" x="571.5" y="-187" font-family="Helvetica,sans-Serif" font-size="10.00">FiftyoneDegrees::DeviceDetection</text>
<text text-anchor="middle" x="671.5" y="-176" font-family="Helvetica,sans-Serif" font-size="10.00">::Hash::PropertyMetaDataCollectionHash</text>
</a>
</g>
</g>
<!-- Node1&#45;&gt;Node4 -->
<g id="edge4" class="edge">
<title>Node1&#45;&gt;Node4</title>
<path fill="none" stroke="midnightblue" d="M512.64,-207.68C531.14,-204.9 550.99,-201.93 570.15,-199.05"/>
<polygon fill="midnightblue" stroke="midnightblue" points="511.88,-204.25 502.51,-209.2 512.92,-211.18 511.88,-204.25"/>
</g>
<!-- Node6 -->
<g id="node7" class="node">
<title>Node6</title>
<g id="a_node7"><a xlink:href="class_fiftyone_degrees_1_1_device_detection_1_1_hash_1_1_component_meta_data_collection_hash.html" target="_top" xlink:title="A collection of component meta data contained in a Hash engine.">
<polygon fill="none" stroke="black" points="556,-120 556,-150 787,-150 787,-120 556,-120"/>
<text text-anchor="start" x="564" y="-138" font-family="Helvetica,sans-Serif" font-size="10.00">FiftyoneDegrees::DeviceDetection</text>
<text text-anchor="middle" x="671.5" y="-127" font-family="Helvetica,sans-Serif" font-size="10.00">::Hash::ComponentMetaDataCollectionHash</text>
</a>
</g>
</g>
<!-- Node5&#45;&gt;Node6 -->
<g id="edge6" class="edge">
<title>Node5&#45;&gt;Node6</title>
<path fill="none" stroke="midnightblue" d="M523.26,-138.68C533.97,-138.41 544.99,-138.14 555.95,-137.86"/>
<polygon fill="midnightblue" stroke="midnightblue" points="523,-135.19 513.09,-138.94 523.18,-142.18 523,-135.19"/>
</g>
<!-- Node8 -->
<g id="node9" class="node">
<title>Node8</title>
<g id="a_node9"><a xlink:href="class_fiftyone_degrees_1_1_device_detection_1_1_hash_1_1_value_meta_data_collection_base_hash.html" target="_top" xlink:title="A collection of all value meta data contained in a Hash engine.">
<polygon fill="none" stroke="black" points="558.5,-66 558.5,-96 784.5,-96 784.5,-66 558.5,-66"/>
<text text-anchor="start" x="566.5" y="-84" font-family="Helvetica,sans-Serif" font-size="10.00">FiftyoneDegrees::DeviceDetection</text>
<text text-anchor="middle" x="671.5" y="-73" font-family="Helvetica,sans-Serif" font-size="10.00">::Hash::ValueMetaDataCollectionBaseHash</text>
</a>
</g>
</g>
<!-- Node7&#45;&gt;Node8 -->
<g id="edge8" class="edge">
<title>Node7&#45;&gt;Node8</title>
<path fill="none" stroke="midnightblue" d="M529.39,-81C538.87,-81 548.53,-81 558.12,-81"/>
<polygon fill="midnightblue" stroke="midnightblue" points="529.19,-77.5 519.19,-81 529.19,-84.5 529.19,-77.5"/>
</g>
<!-- Node9 -->
<g id="node10" class="node">
<title>Node9</title>
<g id="a_node10"><a xlink:href="class_fiftyone_degrees_1_1_device_detection_1_1_hash_1_1_value_meta_data_collection_for_profile_hash.html" target="_top" xlink:title="A collection of value meta data relating to a profile contained in a Hash engine.">
<polygon fill="none" stroke="black" points="829,-115 829,-145 1077,-145 1077,-115 829,-115"/>
<text text-anchor="start" x="837" y="-133" font-family="Helvetica,sans-Serif" font-size="10.00">FiftyoneDegrees::DeviceDetection</text>
<text text-anchor="middle" x="953" y="-122" font-family="Helvetica,sans-Serif" font-size="10.00">::Hash::ValueMetaDataCollectionForProfileHash</text>
</a>
</g>
</g>
<!-- Node8&#45;&gt;Node9 -->
<g id="edge9" class="edge">
<title>Node8&#45;&gt;Node9</title>
<path fill="none" stroke="midnightblue" d="M768.46,-97.82C800.26,-103.4 835.43,-109.56 866.4,-114.99"/>
<polygon fill="midnightblue" stroke="midnightblue" points="768.71,-94.31 758.26,-96.03 767.5,-101.21 768.71,-94.31"/>
</g>
<!-- Node10 -->
<g id="node11" class="node">
<title>Node10</title>
<g id="a_node11"><a xlink:href="class_fiftyone_degrees_1_1_device_detection_1_1_hash_1_1_value_meta_data_collection_for_property_hash.html" target="_top" xlink:title="A collection of value meta data relating to a property contained in a Hash engine.">
<polygon fill="none" stroke="black" points="824,-66 824,-96 1082,-96 1082,-66 824,-66"/>
<text text-anchor="start" x="832" y="-84" font-family="Helvetica,sans-Serif" font-size="10.00">FiftyoneDegrees::DeviceDetection</text>
<text text-anchor="middle" x="953" y="-73" font-family="Helvetica,sans-Serif" font-size="10.00">::Hash::ValueMetaDataCollectionForPropertyHash</text>
</a>
</g>
</g>
<!-- Node8&#45;&gt;Node10 -->
<g id="edge10" class="edge">
<title>Node8&#45;&gt;Node10</title>
<path fill="none" stroke="midnightblue" d="M794.61,-81C804.3,-81 814.1,-81 823.82,-81"/>
<polygon fill="midnightblue" stroke="midnightblue" points="794.57,-77.5 784.57,-81 794.57,-84.5 794.57,-77.5"/>
</g>
<!-- Node11 -->
<g id="node12" class="node">
<title>Node11</title>
<g id="a_node12"><a xlink:href="class_fiftyone_degrees_1_1_device_detection_1_1_hash_1_1_value_meta_data_collection_hash.html" target="_top" xlink:title="A collection of all value meta data contained in a Hash engine.">
<polygon fill="none" stroke="black" points="852,-17 852,-47 1054,-47 1054,-17 852,-17"/>
<text text-anchor="start" x="860" y="-35" font-family="Helvetica,sans-Serif" font-size="10.00">FiftyoneDegrees::DeviceDetection</text>
<text text-anchor="middle" x="953" y="-24" font-family="Helvetica,sans-Serif" font-size="10.00">::Hash::ValueMetaDataCollectionHash</text>
</a>
</g>
</g>
<!-- Node8&#45;&gt;Node11 -->
<g id="edge11" class="edge">
<title>Node8&#45;&gt;Node11</title>
<path fill="none" stroke="midnightblue" d="M768.46,-64.18C800.26,-58.6 835.43,-52.44 866.4,-47.01"/>
<polygon fill="midnightblue" stroke="midnightblue" points="767.5,-60.79 758.26,-65.97 768.71,-67.69 767.5,-60.79"/>
</g>
<!-- Node13 -->
<g id="node14" class="node">
<title>Node13</title>
<g id="a_node14"><a xlink:href="class_fiftyone_degrees_1_1_device_detection_1_1_hash_1_1_profile_meta_data_collection_hash.html" target="_top" xlink:title="A collection of all profile meta data contained in a Hash engine.">
<polygon fill="none" stroke="black" points="568.5,-6 568.5,-36 774.5,-36 774.5,-6 568.5,-6"/>
<text text-anchor="start" x="576.5" y="-24" font-family="Helvetica,sans-Serif" font-size="10.00">FiftyoneDegrees::DeviceDetection</text>
<text text-anchor="middle" x="671.5" y="-13" font-family="Helvetica,sans-Serif" font-size="10.00">::Hash::ProfileMetaDataCollectionHash</text>
</a>
</g>
</g>
<!-- Node12&#45;&gt;Node13 -->
<g id="edge13" class="edge">
<title>Node12&#45;&gt;Node13</title>
<path fill="none" stroke="midnightblue" d="M512.62,-21C530.56,-21 549.76,-21 568.38,-21"/>
<polygon fill="midnightblue" stroke="midnightblue" points="512.51,-17.5 502.51,-21 512.51,-24.5 512.51,-17.5"/>
</g>
</g>
</svg>
