<?xml version="1.0" encoding="UTF-8" standalone="no"?>
<!DOCTYPE svg PUBLIC "-//W3C//DTD SVG 1.1//EN"
 "http://www.w3.org/Graphics/SVG/1.1/DTD/svg11.dtd">
<!-- Generated by graphviz version 2.43.0 (0)
 -->
<!-- Title: FiftyoneDegrees::DeviceDetection::Hash::ValueMetaDataCollectionForProfileHash Pages: 1 -->
<svg width="2880pt" height="533pt"
 viewBox="0.00 0.00 2880.00 532.50" xmlns="http://www.w3.org/2000/svg" xmlns:xlink="http://www.w3.org/1999/xlink">
<g id="graph0" class="graph" transform="scale(1 1) rotate(0) translate(4 528.5)">
<title>FiftyoneDegrees::DeviceDetection::Hash::ValueMetaDataCollectionForProfileHash</title>
<!-- Node4 -->
<g id="node1" class="node">
<title>Node4</title>
<g id="a_node1"><a xlink:title="A collection of value meta data relating to a profile contained in a Hash engine.">
<polygon fill="#bfbfbf" stroke="black" points="2624,-332.5 2624,-362.5 2872,-362.5 2872,-332.5 2624,-332.5"/>
<text text-anchor="start" x="2632" y="-350.5" font-family="Helvetica,sans-Serif" font-size="10.00">FiftyoneDegrees::DeviceDetection</text>
<text text-anchor="middle" x="2748" y="-339.5" font-family="Helvetica,sans-Serif" font-size="10.00">::Hash::ValueMetaDataCollectionForProfileHash</text>
</a>
</g>
</g>
<!-- Node5 -->
<g id="node2" class="node">
<title>Node5</title>
<g id="a_node2"><a xlink:href="class_fiftyone_degrees_1_1_device_detection_1_1_hash_1_1_value_meta_data_collection_base_hash.html" target="_top" xlink:title="A collection of all value meta data contained in a Hash engine.">
<polygon fill="none" stroke="black" points="2361,-332.5 2361,-362.5 2587,-362.5 2587,-332.5 2361,-332.5"/>
<text text-anchor="start" x="2369" y="-350.5" font-family="Helvetica,sans-Serif" font-size="10.00">FiftyoneDegrees::DeviceDetection</text>
<text text-anchor="middle" x="2474" y="-339.5" font-family="Helvetica,sans-Serif" font-size="10.00">::Hash::ValueMetaDataCollectionBaseHash</text>
</a>
</g>
</g>
<!-- Node5&#45;&gt;Node4 -->
<g id="edge1" class="edge">
<title>Node5&#45;&gt;Node4</title>
<path fill="none" stroke="midnightblue" d="M2597.38,-347.5C2606.09,-347.5 2614.87,-347.5 2623.58,-347.5"/>
<polygon fill="midnightblue" stroke="midnightblue" points="2597.2,-344 2587.2,-347.5 2597.2,-351 2597.2,-344"/>
</g>
<!-- Node6 -->
<g id="node3" class="node">
<title>Node6</title>
<g id="a_node3"><a xlink:href="class_fiftyone_degrees_1_1_common_1_1_collection.html" target="_top" xlink:title=" ">
<polygon fill="none" stroke="black" points="2105,-378 2105,-419 2284,-419 2284,-378 2105,-378"/>
<text text-anchor="start" x="2113" y="-407" font-family="Helvetica,sans-Serif" font-size="10.00">FiftyoneDegrees::Common</text>
<text text-anchor="start" x="2113" y="-396" font-family="Helvetica,sans-Serif" font-size="10.00">::Collection&lt; ValueMetaDataKey,</text>
<text text-anchor="middle" x="2194.5" y="-385" font-family="Helvetica,sans-Serif" font-size="10.00"> ValueMetaData &gt;</text>
</a>
</g>
</g>
<!-- Node6&#45;&gt;Node5 -->
<g id="edge2" class="edge">
<title>Node6&#45;&gt;Node5</title>
<path fill="none" stroke="midnightblue" d="M2294.23,-380.36C2325.89,-374.54 2360.59,-368.16 2390.93,-362.58"/>
<polygon fill="midnightblue" stroke="midnightblue" points="2293.27,-376.97 2284.07,-382.22 2294.53,-383.86 2293.27,-376.97"/>
</g>
<!-- Node7 -->
<g id="node4" class="node">
<title>Node7</title>
<g id="a_node4"><a xlink:href="class_fiftyone_degrees_1_1_common_1_1_collection.html" target="_top" xlink:title="A group of items accessible by index or key.">
<polygon fill="none" stroke="black" points="1801.5,-410.5 1801.5,-440.5 1947.5,-440.5 1947.5,-410.5 1801.5,-410.5"/>
<text text-anchor="start" x="1809.5" y="-428.5" font-family="Helvetica,sans-Serif" font-size="10.00">FiftyoneDegrees::Common</text>
<text text-anchor="middle" x="1874.5" y="-417.5" font-family="Helvetica,sans-Serif" font-size="10.00">::Collection&lt; K, V &gt;</text>
</a>
</g>
</g>
<!-- Node7&#45;&gt;Node6 -->
<g id="edge3" class="edge">
<title>Node7&#45;&gt;Node6</title>
<path fill="none" stroke="orange" stroke-dasharray="5,2" d="M1957.7,-418.52C2002.82,-414.69 2058.8,-409.94 2104.89,-406.02"/>
<polygon fill="orange" stroke="orange" points="1957.33,-415.04 1947.66,-419.37 1957.92,-422.01 1957.33,-415.04"/>
<text text-anchor="start" x="1976" y="-431.5" font-family="Helvetica,sans-Serif" font-size="10.00"> &lt; ValueMetaDataKey,</text>
<text text-anchor="middle" x="2031.5" y="-420.5" font-family="Helvetica,sans-Serif" font-size="10.00"> ValueMetaData &gt;</text>
</g>
<!-- Node8 -->
<g id="node5" class="node">
<title>Node8</title>
<g id="a_node5"><a xlink:href="structfiftyone_degrees_data_set_hash.html" target="_top" xlink:title="Data set structure containing all the components used for detections.">
<polygon fill="none" stroke="black" points="2115.5,-314 2115.5,-333 2273.5,-333 2273.5,-314 2115.5,-314"/>
<text text-anchor="middle" x="2194.5" y="-321" font-family="Helvetica,sans-Serif" font-size="10.00">fiftyoneDegreesDataSetHash</text>
</a>
</g>
</g>
<!-- Node8&#45;&gt;Node5 -->
<g id="edge4" class="edge">
<title>Node8&#45;&gt;Node5</title>
<path fill="none" stroke="#9a32cd" stroke-dasharray="5,2" d="M2283.54,-331.11C2308.1,-333.24 2335.12,-335.57 2360.86,-337.8"/>
<polygon fill="#9a32cd" stroke="#9a32cd" points="2283.8,-327.62 2273.54,-330.25 2283.2,-334.6 2283.8,-327.62"/>
<text text-anchor="middle" x="2322.5" y="-339.5" font-family="Helvetica,sans-Serif" font-size="10.00"> dataSet</text>
</g>
<!-- Node9 -->
<g id="node6" class="node">
<title>Node9</title>
<g id="a_node6"><a xlink:href="structfiftyone_degrees_list.html" target="_top" xlink:title="List structure which contains a list of collection items.">
<polygon fill="none" stroke="black" points="688,-288 688,-307 799,-307 799,-288 688,-288"/>
<text text-anchor="middle" x="743.5" y="-295" font-family="Helvetica,sans-Serif" font-size="10.00">fiftyoneDegreesList</text>
</a>
</g>
</g>
<!-- Node9&#45;&gt;Node8 -->
<g id="edge5" class="edge">
<title>Node9&#45;&gt;Node8</title>
<path fill="none" stroke="#9a32cd" stroke-dasharray="5,2" d="M809.35,-299.54C880.79,-301.6 999.07,-304.5 1101,-304.5 1101,-304.5 1101,-304.5 1875.5,-304.5 1957.49,-304.5 2051.16,-310.87 2115.49,-316.24"/>
<polygon fill="#9a32cd" stroke="#9a32cd" points="809.25,-296.03 799.15,-299.24 809.05,-303.03 809.25,-296.03"/>
<text text-anchor="middle" x="1445.5" y="-307.5" font-family="Helvetica,sans-Serif" font-size="10.00"> componentsList</text>
</g>
<!-- Node10 -->
<g id="node7" class="node">
<title>Node10</title>
<g id="a_node7"><a xlink:href="structfiftyone_degrees_collection_item.html" target="_top" xlink:title="Used to store a handle to the underlying item that could be used to release the item when it&#39;s finish...">
<polygon fill="none" stroke="black" points="185,-297 185,-316 350,-316 350,-297 185,-297"/>
<text text-anchor="middle" x="267.5" y="-304" font-family="Helvetica,sans-Serif" font-size="10.00">fiftyoneDegreesCollectionItem</text>
</a>
</g>
</g>
<!-- Node10&#45;&gt;Node9 -->
<g id="edge6" class="edge">
<title>Node10&#45;&gt;Node9</title>
<path fill="none" stroke="#9a32cd" stroke-dasharray="5,2" d="M360.36,-299.18C365.31,-298.92 370.21,-298.69 375,-298.5 486.09,-294.18 616.22,-295.28 687.99,-296.42"/>
<polygon fill="#9a32cd" stroke="#9a32cd" points="359.94,-295.7 350.16,-299.76 360.34,-302.69 359.94,-295.7"/>
<text text-anchor="middle" x="423.5" y="-301.5" font-family="Helvetica,sans-Serif" font-size="10.00"> items</text>
</g>
<!-- Node11 -->
<g id="node8" class="node">
<title>Node11</title>
<g id="a_node8"><a xlink:href="structfiftyone_degrees_collection.html" target="_top" xlink:title="All the shared methods and fields required by file, memory and cached collections.">
<polygon fill="none" stroke="black" points="508.5,-333 508.5,-352 651.5,-352 651.5,-333 508.5,-333"/>
<text text-anchor="middle" x="580" y="-340" font-family="Helvetica,sans-Serif" font-size="10.00">fiftyoneDegreesCollection</text>
</a>
</g>
</g>
<!-- Node10&#45;&gt;Node11 -->
<g id="edge8" class="edge">
<title>Node10&#45;&gt;Node11</title>
<path fill="none" stroke="#9a32cd" stroke-dasharray="5,2" d="M360.6,-311.66C395.57,-314.16 435.71,-317.7 472,-322.5 492.42,-325.2 514.85,-329.23 533.88,-332.96"/>
<polygon fill="#9a32cd" stroke="#9a32cd" points="360.62,-308.15 350.4,-310.95 360.13,-315.13 360.62,-308.15"/>
<text text-anchor="middle" x="423.5" y="-325.5" font-family="Helvetica,sans-Serif" font-size="10.00"> release</text>
</g>
<!-- Node31 -->
<g id="node28" class="node">
<title>Node31</title>
<g id="a_node28"><a xlink:href="structfiftyone_degrees_property_available.html" target="_top" xlink:title="Used to access the property item quickly without the need to search.">
<polygon fill="none" stroke="black" points="490,-102 490,-121 670,-121 670,-102 490,-102"/>
<text text-anchor="middle" x="580" y="-109" font-family="Helvetica,sans-Serif" font-size="10.00">fiftyoneDegreesPropertyAvailable</text>
</a>
</g>
</g>
<!-- Node10&#45;&gt;Node31 -->
<g id="edge34" class="edge">
<title>Node10&#45;&gt;Node31</title>
<path fill="none" stroke="#9a32cd" stroke-dasharray="5,2" d="M291,-291.27C330.73,-264.52 416.1,-207.64 490,-162.5 514.47,-147.55 543.36,-131.23 561.44,-121.18"/>
<polygon fill="#9a32cd" stroke="#9a32cd" points="288.91,-288.46 282.58,-296.95 292.82,-294.27 288.91,-288.46"/>
<text text-anchor="middle" x="423.5" y="-235.5" font-family="Helvetica,sans-Serif" font-size="10.00"> name</text>
</g>
<!-- Node11&#45;&gt;Node8 -->
<g id="edge37" class="edge">
<title>Node11&#45;&gt;Node8</title>
<path fill="none" stroke="#9a32cd" stroke-dasharray="5,2" d="M661.93,-342.5C727.36,-342.5 821.87,-342.5 904.5,-342.5 904.5,-342.5 904.5,-342.5 1875.5,-342.5 1957.49,-342.5 2051.16,-336.13 2115.49,-330.76"/>
<polygon fill="#9a32cd" stroke="#9a32cd" points="661.68,-339 651.68,-342.5 661.68,-346 661.68,-339"/>
<text text-anchor="middle" x="1445.5" y="-433.5" font-family="Helvetica,sans-Serif" font-size="10.00"> profileOffsets</text>
<text text-anchor="middle" x="1445.5" y="-422.5" font-family="Helvetica,sans-Serif" font-size="10.00">values</text>
<text text-anchor="middle" x="1445.5" y="-411.5" font-family="Helvetica,sans-Serif" font-size="10.00">strings</text>
<text text-anchor="middle" x="1445.5" y="-400.5" font-family="Helvetica,sans-Serif" font-size="10.00">maps</text>
<text text-anchor="middle" x="1445.5" y="-389.5" font-family="Helvetica,sans-Serif" font-size="10.00">components</text>
<text text-anchor="middle" x="1445.5" y="-378.5" font-family="Helvetica,sans-Serif" font-size="10.00">nodes</text>
<text text-anchor="middle" x="1445.5" y="-367.5" font-family="Helvetica,sans-Serif" font-size="10.00">properties</text>
<text text-anchor="middle" x="1445.5" y="-356.5" font-family="Helvetica,sans-Serif" font-size="10.00">rootNodes</text>
<text text-anchor="middle" x="1445.5" y="-345.5" font-family="Helvetica,sans-Serif" font-size="10.00">profiles</text>
</g>
<!-- Node11&#45;&gt;Node10 -->
<g id="edge7" class="edge">
<title>Node11&#45;&gt;Node10</title>
<path fill="none" stroke="#9a32cd" stroke-dasharray="5,2" d="M497.91,-344.01C460.33,-343.61 415.2,-341.58 375,-335.5 347.91,-331.4 317.85,-322.83 296.6,-316.07"/>
<polygon fill="#9a32cd" stroke="#9a32cd" points="498.27,-347.51 508.29,-344.08 498.32,-340.51 498.27,-347.51"/>
<text text-anchor="middle" x="423.5" y="-346.5" font-family="Helvetica,sans-Serif" font-size="10.00"> collection</text>
</g>
<!-- Node11&#45;&gt;Node11 -->
<g id="edge9" class="edge">
<title>Node11&#45;&gt;Node11</title>
<path fill="none" stroke="#9a32cd" stroke-dasharray="5,2" d="M550.88,-361.15C552.1,-366.44 561.8,-370.5 580,-370.5 607.73,-370.5 615.74,-361.07 604.04,-352.26"/>
<polygon fill="#9a32cd" stroke="#9a32cd" points="554.04,-362.68 555.96,-352.26 547.96,-359.21 554.04,-362.68"/>
<text text-anchor="middle" x="580" y="-395.5" font-family="Helvetica,sans-Serif" font-size="10.00"> next</text>
<text text-anchor="middle" x="580" y="-384.5" font-family="Helvetica,sans-Serif" font-size="10.00">freeCollection</text>
<text text-anchor="middle" x="580" y="-373.5" font-family="Helvetica,sans-Serif" font-size="10.00">get</text>
</g>
<!-- Node12 -->
<g id="node9" class="node">
<title>Node12</title>
<g id="a_node9"><a xlink:href="structfiftyone_degrees_data.html" target="_top" xlink:title="Data structure used for reusing memory which may have been allocated in a previous operation.">
<polygon fill="none" stroke="black" points="0,-297 0,-316 117,-316 117,-297 0,-297"/>
<text text-anchor="middle" x="58.5" y="-304" font-family="Helvetica,sans-Serif" font-size="10.00">fiftyoneDegreesData</text>
</a>
</g>
</g>
<!-- Node12&#45;&gt;Node10 -->
<g id="edge10" class="edge">
<title>Node12&#45;&gt;Node10</title>
<path fill="none" stroke="#9a32cd" stroke-dasharray="5,2" d="M127.19,-306.5C145.58,-306.5 165.7,-306.5 184.78,-306.5"/>
<polygon fill="#9a32cd" stroke="#9a32cd" points="127.16,-303 117.16,-306.5 127.16,-310 127.16,-303"/>
<text text-anchor="middle" x="147.5" y="-309.5" font-family="Helvetica,sans-Serif" font-size="10.00"> data</text>
</g>
<!-- Node13 -->
<g id="node10" class="node">
<title>Node13</title>
<g id="a_node10"><a xlink:href="structfiftyone_degrees_data_set_hash_header.html" target="_top" xlink:title="Dataset header containing information about the dataset.">
<polygon fill="none" stroke="black" points="1795.5,-175.5 1795.5,-205.5 1953.5,-205.5 1953.5,-175.5 1795.5,-175.5"/>
<text text-anchor="start" x="1803.5" y="-193.5" font-family="Helvetica,sans-Serif" font-size="10.00">fiftyoneDegreesDataSetHash</text>
<text text-anchor="middle" x="1874.5" y="-182.5" font-family="Helvetica,sans-Serif" font-size="10.00">Header</text>
</a>
</g>
</g>
<!-- Node13&#45;&gt;Node8 -->
<g id="edge11" class="edge">
<title>Node13&#45;&gt;Node8</title>
<path fill="none" stroke="#9a32cd" stroke-dasharray="5,2" d="M1921,-209.53C1990.03,-238.4 2118.7,-292.22 2170.76,-313.99"/>
<polygon fill="#9a32cd" stroke="#9a32cd" points="1922.25,-206.26 1911.67,-205.63 1919.54,-212.71 1922.25,-206.26"/>
<text text-anchor="middle" x="2031.5" y="-280.5" font-family="Helvetica,sans-Serif" font-size="10.00"> header</text>
</g>
<!-- Node14 -->
<g id="node11" class="node">
<title>Node14</title>
<g id="a_node11"><a xlink:href="structfiftyone_degrees_date.html" target="_top" xlink:title="Used to store the date when the dataset was produced and next date 51Degrees expect to provide a new ...">
<polygon fill="none" stroke="black" points="1536.5,-136 1536.5,-155 1653.5,-155 1653.5,-136 1536.5,-136"/>
<text text-anchor="middle" x="1595" y="-143" font-family="Helvetica,sans-Serif" font-size="10.00">fiftyoneDegreesDate</text>
</a>
</g>
</g>
<!-- Node14&#45;&gt;Node13 -->
<g id="edge12" class="edge">
<title>Node14&#45;&gt;Node13</title>
<path fill="none" stroke="#9a32cd" stroke-dasharray="5,2" d="M1663.73,-150.43C1696.84,-153.44 1737.18,-157.98 1773,-164.5 1788.87,-167.39 1805.93,-171.44 1821.4,-175.48"/>
<polygon fill="#9a32cd" stroke="#9a32cd" points="1663.97,-146.94 1653.7,-149.55 1663.35,-153.91 1663.97,-146.94"/>
<text text-anchor="middle" x="1738.5" y="-178.5" font-family="Helvetica,sans-Serif" font-size="10.00"> nextUpdate</text>
<text text-anchor="middle" x="1738.5" y="-167.5" font-family="Helvetica,sans-Serif" font-size="10.00">published</text>
</g>
<!-- Node15 -->
<g id="node12" class="node">
<title>Node15</title>
<g id="a_node12"><a xlink:href="structfiftyone_degrees_collection_header.html" target="_top" xlink:title="Collection header structure which defines the size and location of the collection data.">
<polygon fill="none" stroke="black" points="1523.5,-175.5 1523.5,-205.5 1666.5,-205.5 1666.5,-175.5 1523.5,-175.5"/>
<text text-anchor="start" x="1531.5" y="-193.5" font-family="Helvetica,sans-Serif" font-size="10.00">fiftyoneDegreesCollection</text>
<text text-anchor="middle" x="1595" y="-182.5" font-family="Helvetica,sans-Serif" font-size="10.00">Header</text>
</a>
</g>
</g>
<!-- Node15&#45;&gt;Node13 -->
<g id="edge13" class="edge">
<title>Node15&#45;&gt;Node13</title>
<path fill="none" stroke="#9a32cd" stroke-dasharray="5,2" d="M1677.05,-190.5C1714.25,-190.5 1758.18,-190.5 1795.06,-190.5"/>
<polygon fill="#9a32cd" stroke="#9a32cd" points="1676.74,-187 1666.74,-190.5 1676.74,-194 1676.74,-187"/>
<text text-anchor="middle" x="1738.5" y="-281.5" font-family="Helvetica,sans-Serif" font-size="10.00"> profileOffsets</text>
<text text-anchor="middle" x="1738.5" y="-270.5" font-family="Helvetica,sans-Serif" font-size="10.00">values</text>
<text text-anchor="middle" x="1738.5" y="-259.5" font-family="Helvetica,sans-Serif" font-size="10.00">strings</text>
<text text-anchor="middle" x="1738.5" y="-248.5" font-family="Helvetica,sans-Serif" font-size="10.00">maps</text>
<text text-anchor="middle" x="1738.5" y="-237.5" font-family="Helvetica,sans-Serif" font-size="10.00">components</text>
<text text-anchor="middle" x="1738.5" y="-226.5" font-family="Helvetica,sans-Serif" font-size="10.00">nodes</text>
<text text-anchor="middle" x="1738.5" y="-215.5" font-family="Helvetica,sans-Serif" font-size="10.00">properties</text>
<text text-anchor="middle" x="1738.5" y="-204.5" font-family="Helvetica,sans-Serif" font-size="10.00">rootNodes</text>
<text text-anchor="middle" x="1738.5" y="-193.5" font-family="Helvetica,sans-Serif" font-size="10.00">profiles</text>
</g>
<!-- Node16 -->
<g id="node13" class="node">
<title>Node16</title>
<g id="a_node13"><a xlink:href="structfiftyone_degrees_data_set_device_detection.html" target="_top" xlink:title="Device detection data set structure which contains the &#39;must have&#39;s for all device detection data set...">
<polygon fill="none" stroke="black" points="1791,-109.5 1791,-139.5 1958,-139.5 1958,-109.5 1791,-109.5"/>
<text text-anchor="start" x="1799" y="-127.5" font-family="Helvetica,sans-Serif" font-size="10.00">fiftyoneDegreesDataSetDevice</text>
<text text-anchor="middle" x="1874.5" y="-116.5" font-family="Helvetica,sans-Serif" font-size="10.00">Detection</text>
</a>
</g>
</g>
<!-- Node16&#45;&gt;Node8 -->
<g id="edge14" class="edge">
<title>Node16&#45;&gt;Node8</title>
<path fill="none" stroke="#9a32cd" stroke-dasharray="5,2" d="M1930.26,-143.01C1974.65,-159.41 2037.72,-185.94 2087,-219.5 2128.87,-248.01 2169.05,-293.83 2185.59,-313.74"/>
<polygon fill="#9a32cd" stroke="#9a32cd" points="1931.39,-139.7 1920.8,-139.57 1929,-146.28 1931.39,-139.7"/>
<text text-anchor="middle" x="2031.5" y="-222.5" font-family="Helvetica,sans-Serif" font-size="10.00"> b</text>
</g>
<!-- Node17 -->
<g id="node14" class="node">
<title>Node17</title>
<g id="a_node14"><a xlink:href="structfiftyone_degrees_data_set_base.html" target="_top" xlink:title="Base data set structure which contains the &#39;must have&#39;s for all data sets.">
<polygon fill="none" stroke="black" points="1516.5,-98 1516.5,-117 1673.5,-117 1673.5,-98 1516.5,-98"/>
<text text-anchor="middle" x="1595" y="-105" font-family="Helvetica,sans-Serif" font-size="10.00">fiftyoneDegreesDataSetBase</text>
</a>
</g>
</g>
<!-- Node17&#45;&gt;Node16 -->
<g id="edge15" class="edge">
<title>Node17&#45;&gt;Node16</title>
<path fill="none" stroke="#9a32cd" stroke-dasharray="5,2" d="M1683.94,-108.41C1712.39,-109.13 1744.06,-110.37 1773,-112.5 1778.78,-112.93 1784.75,-113.44 1790.74,-114.02"/>
<polygon fill="#9a32cd" stroke="#9a32cd" points="1683.7,-104.91 1673.62,-108.17 1683.54,-111.9 1683.7,-104.91"/>
<text text-anchor="middle" x="1738.5" y="-115.5" font-family="Helvetica,sans-Serif" font-size="10.00"> b</text>
</g>
<!-- Node18 -->
<g id="node15" class="node">
<title>Node18</title>
<g id="a_node15"><a xlink:href="structfiftyone_degrees_header_array.html" target="_top" xlink:title="Array of items of type fiftyoneDegreesHeader used to easily access and track the size of the array.">
<polygon fill="none" stroke="black" points="1221,-6 1221,-25 1376,-25 1376,-6 1221,-6"/>
<text text-anchor="middle" x="1298.5" y="-13" font-family="Helvetica,sans-Serif" font-size="10.00">fiftyoneDegreesHeaderArray</text>
</a>
</g>
</g>
<!-- Node18&#45;&gt;Node17 -->
<g id="edge16" class="edge">
<title>Node18&#45;&gt;Node17</title>
<path fill="none" stroke="#9a32cd" stroke-dasharray="5,2" d="M1355.01,-27.26C1365.65,-29.6 1376.68,-32.08 1387,-34.5 1431.18,-44.87 1443.11,-44.67 1486,-59.5 1518.19,-70.63 1554.05,-87.51 1575.28,-98"/>
<polygon fill="#9a32cd" stroke="#9a32cd" points="1355.5,-23.78 1344.98,-25.07 1354,-30.62 1355.5,-23.78"/>
<text text-anchor="middle" x="1445.5" y="-62.5" font-family="Helvetica,sans-Serif" font-size="10.00"> uniqueHeaders</text>
</g>
<!-- Node19 -->
<g id="node16" class="node">
<title>Node19</title>
<g id="a_node16"><a xlink:href="structfiftyone_degrees_header.html" target="_top" xlink:title="Header structure to identify a header that either comes directly from the data set,...">
<polygon fill="none" stroke="black" points="841,-6 841,-25 970,-25 970,-6 841,-6"/>
<text text-anchor="middle" x="905.5" y="-13" font-family="Helvetica,sans-Serif" font-size="10.00">fiftyoneDegreesHeader</text>
</a>
</g>
</g>
<!-- Node19&#45;&gt;Node18 -->
<g id="edge17" class="edge">
<title>Node19&#45;&gt;Node18</title>
<path fill="none" stroke="#9a32cd" stroke-dasharray="5,2" d="M980.5,-15.5C1049.23,-15.5 1151.14,-15.5 1220.74,-15.5"/>
<polygon fill="#9a32cd" stroke="#9a32cd" points="980.19,-12 970.19,-15.5 980.19,-19 980.19,-12"/>
<text text-anchor="middle" x="1102" y="-18.5" font-family="Helvetica,sans-Serif" font-size="10.00"> items</text>
</g>
<!-- Node20 -->
<g id="node17" class="node">
<title>Node20</title>
<g id="a_node17"><a xlink:href="structfiftyone_degrees_header_segment_array.html" target="_top" xlink:title="Array of items of type fiftyoneDegreesHeaderSegment used to easily access and track the size of the a...">
<polygon fill="none" stroke="black" points="493.5,-0.5 493.5,-30.5 666.5,-30.5 666.5,-0.5 493.5,-0.5"/>
<text text-anchor="start" x="501.5" y="-18.5" font-family="Helvetica,sans-Serif" font-size="10.00">fiftyoneDegreesHeaderSegment</text>
<text text-anchor="middle" x="580" y="-7.5" font-family="Helvetica,sans-Serif" font-size="10.00">Array</text>
</a>
</g>
</g>
<!-- Node20&#45;&gt;Node19 -->
<g id="edge18" class="edge">
<title>Node20&#45;&gt;Node19</title>
<path fill="none" stroke="#9a32cd" stroke-dasharray="5,2" d="M676.93,-15.5C729.86,-15.5 794.13,-15.5 840.85,-15.5"/>
<polygon fill="#9a32cd" stroke="#9a32cd" points="676.84,-12 666.84,-15.5 676.84,-19 676.84,-12"/>
<text text-anchor="middle" x="743.5" y="-18.5" font-family="Helvetica,sans-Serif" font-size="10.00"> segments</text>
</g>
<!-- Node21 -->
<g id="node18" class="node">
<title>Node21</title>
<g id="a_node18"><a xlink:href="structfiftyone_degrees_header_segment.html" target="_top" xlink:title="Null or PSEUDO_HEADER_SEP terminated string segment within a header.">
<polygon fill="none" stroke="black" points="181,-6 181,-25 354,-25 354,-6 181,-6"/>
<text text-anchor="middle" x="267.5" y="-13" font-family="Helvetica,sans-Serif" font-size="10.00">fiftyoneDegreesHeaderSegment</text>
</a>
</g>
</g>
<!-- Node21&#45;&gt;Node20 -->
<g id="edge19" class="edge">
<title>Node21&#45;&gt;Node20</title>
<path fill="none" stroke="#9a32cd" stroke-dasharray="5,2" d="M364.22,-15.5C405.46,-15.5 453.3,-15.5 493.34,-15.5"/>
<polygon fill="#9a32cd" stroke="#9a32cd" points="364.17,-12 354.17,-15.5 364.17,-19 364.17,-12"/>
<text text-anchor="middle" x="423.5" y="-18.5" font-family="Helvetica,sans-Serif" font-size="10.00"> items</text>
</g>
<!-- Node22 -->
<g id="node19" class="node">
<title>Node22</title>
<g id="a_node19"><a xlink:href="structfiftyone_degrees_resource_handle.html" target="_top" xlink:title="Handle for a shared resource.">
<polygon fill="none" stroke="black" points="1212,-236 1212,-255 1385,-255 1385,-236 1212,-236"/>
<text text-anchor="middle" x="1298.5" y="-243" font-family="Helvetica,sans-Serif" font-size="10.00">fiftyoneDegreesResourceHandle</text>
</a>
</g>
</g>
<!-- Node22&#45;&gt;Node17 -->
<g id="edge20" class="edge">
<title>Node22&#45;&gt;Node17</title>
<path fill="none" stroke="#9a32cd" stroke-dasharray="5,2" d="M1346.91,-232.97C1360.18,-228.76 1374.4,-223.57 1387,-217.5 1434.64,-194.55 1447.94,-188.21 1486,-151.5 1495.85,-141.99 1492.53,-133.97 1504,-126.5 1509.89,-122.66 1516.41,-119.59 1523.17,-117.12"/>
<polygon fill="#9a32cd" stroke="#9a32cd" points="1345.54,-229.73 1336.99,-236 1347.58,-236.42 1345.54,-229.73"/>
<text text-anchor="middle" x="1445.5" y="-212.5" font-family="Helvetica,sans-Serif" font-size="10.00"> handle</text>
</g>
<!-- Node23 -->
<g id="node20" class="node">
<title>Node23</title>
<g id="a_node20"><a xlink:href="structfiftyone_degrees_resource_manager.html" target="_top" xlink:title="Manager structure used to provide access to a shared and changing resource.">
<polygon fill="none" stroke="black" points="1504,-241 1504,-260 1686,-260 1686,-241 1504,-241"/>
<text text-anchor="middle" x="1595" y="-248" font-family="Helvetica,sans-Serif" font-size="10.00">fiftyoneDegreesResourceManager</text>
</a>
</g>
</g>
<!-- Node22&#45;&gt;Node23 -->
<g id="edge22" class="edge">
<title>Node22&#45;&gt;Node23</title>
<path fill="none" stroke="#9a32cd" stroke-dasharray="5,2" d="M1395.1,-247.33C1398.44,-247.38 1401.75,-247.44 1405,-247.5 1437.16,-248.06 1472.39,-248.63 1503.63,-249.12"/>
<polygon fill="#9a32cd" stroke="#9a32cd" points="1395.07,-243.82 1385,-247.14 1394.94,-250.82 1395.07,-243.82"/>
<text text-anchor="middle" x="1445.5" y="-252.5" font-family="Helvetica,sans-Serif" font-size="10.00"> active</text>
</g>
<!-- Node23&#45;&gt;Node22 -->
<g id="edge21" class="edge">
<title>Node23&#45;&gt;Node22</title>
<path fill="none" stroke="#9a32cd" stroke-dasharray="5,2" d="M1521.12,-239.75C1509.4,-238.4 1497.38,-237.23 1486,-236.5 1450.07,-234.18 1440.97,-234.97 1405,-236.5 1398.57,-236.77 1391.93,-237.14 1385.25,-237.57"/>
<polygon fill="#9a32cd" stroke="#9a32cd" points="1520.97,-243.26 1531.31,-240.98 1521.81,-236.31 1520.97,-243.26"/>
<text text-anchor="middle" x="1445.5" y="-239.5" font-family="Helvetica,sans-Serif" font-size="10.00"> manager</text>
</g>
<!-- Node24 -->
<g id="node21" class="node">
<title>Node24</title>
<g id="a_node21"><a xlink:href="structfiftyone_degrees_interlock_double_width.html" target="_top" xlink:title="Double width (64 or 128 depending on the architecture) compare and exchange.">
<polygon fill="none" stroke="black" points="837,-239.5 837,-269.5 974,-269.5 974,-239.5 837,-239.5"/>
<text text-anchor="start" x="845" y="-257.5" font-family="Helvetica,sans-Serif" font-size="10.00">fiftyoneDegreesInterlock</text>
<text text-anchor="middle" x="905.5" y="-246.5" font-family="Helvetica,sans-Serif" font-size="10.00">DoubleWidth</text>
</a>
</g>
</g>
<!-- Node24&#45;&gt;Node22 -->
<g id="edge23" class="edge">
<title>Node24&#45;&gt;Node22</title>
<path fill="none" stroke="#9a32cd" stroke-dasharray="5,2" d="M984.46,-252.71C1050.18,-251.19 1144.1,-249.03 1211.89,-247.47"/>
<polygon fill="#9a32cd" stroke="#9a32cd" points="984.08,-249.21 974.16,-252.94 984.24,-256.21 984.08,-249.21"/>
<text text-anchor="middle" x="1102" y="-255.5" font-family="Helvetica,sans-Serif" font-size="10.00"> counter</text>
</g>
<!-- Node25 -->
<g id="node22" class="node">
<title>Node25</title>
<g id="a_node22"><a xlink:href="structfiftyone_degrees_file_pool.html" target="_top" xlink:title="Stack of handles used to read data from a single source file.">
<polygon fill="none" stroke="black" points="1232.5,-141 1232.5,-160 1364.5,-160 1364.5,-141 1232.5,-141"/>
<text text-anchor="middle" x="1298.5" y="-148" font-family="Helvetica,sans-Serif" font-size="10.00">fiftyoneDegreesFilePool</text>
</a>
</g>
</g>
<!-- Node25&#45;&gt;Node17 -->
<g id="edge24" class="edge">
<title>Node25&#45;&gt;Node17</title>
<path fill="none" stroke="#9a32cd" stroke-dasharray="5,2" d="M1375.05,-140.93C1409,-136.48 1449.55,-130.98 1486,-125.5 1503.2,-122.91 1521.9,-119.88 1538.83,-117.04"/>
<polygon fill="#9a32cd" stroke="#9a32cd" points="1374.2,-137.51 1364.74,-142.27 1375.11,-144.45 1374.2,-137.51"/>
<text text-anchor="middle" x="1445.5" y="-139.5" font-family="Helvetica,sans-Serif" font-size="10.00"> filePool</text>
</g>
<!-- Node26 -->
<g id="node23" class="node">
<title>Node26</title>
<g id="a_node23"><a xlink:href="structfiftyone_degrees_pool.html" target="_top" xlink:title="Pool of resources stored as items in a stack.">
<polygon fill="none" stroke="black" points="848,-172 848,-191 963,-191 963,-172 848,-172"/>
<text text-anchor="middle" x="905.5" y="-179" font-family="Helvetica,sans-Serif" font-size="10.00">fiftyoneDegreesPool</text>
</a>
</g>
</g>
<!-- Node26&#45;&gt;Node25 -->
<g id="edge25" class="edge">
<title>Node26&#45;&gt;Node25</title>
<path fill="none" stroke="#9a32cd" stroke-dasharray="5,2" d="M972.76,-170.44C985.74,-168.56 999.28,-166.8 1012,-165.5 1087.43,-157.82 1174.49,-153.96 1232.45,-152.1"/>
<polygon fill="#9a32cd" stroke="#9a32cd" points="971.87,-167.03 962.49,-171.96 972.9,-173.96 971.87,-167.03"/>
<text text-anchor="middle" x="1102" y="-168.5" font-family="Helvetica,sans-Serif" font-size="10.00"> pool</text>
</g>
<!-- Node26&#45;&gt;Node26 -->
<g id="edge26" class="edge">
<title>Node26&#45;&gt;Node26</title>
<path fill="none" stroke="#9a32cd" stroke-dasharray="5,2" d="M875.19,-199.77C876.05,-205.24 886.15,-209.5 905.5,-209.5 934.29,-209.5 942.62,-200.07 930.47,-191.26"/>
<polygon fill="#9a32cd" stroke="#9a32cd" points="878.18,-201.59 880.53,-191.26 872.25,-197.87 878.18,-201.59"/>
<text text-anchor="middle" x="905.5" y="-212.5" font-family="Helvetica,sans-Serif" font-size="10.00"> resourceFree</text>
</g>
<!-- Node28 -->
<g id="node25" class="node">
<title>Node28</title>
<g id="a_node25"><a xlink:href="structfiftyone_degrees_pool_item.html" target="_top" xlink:title="Pool item node in the stack of items.">
<polygon fill="none" stroke="black" points="1230,-189 1230,-208 1367,-208 1367,-189 1230,-189"/>
<text text-anchor="middle" x="1298.5" y="-196" font-family="Helvetica,sans-Serif" font-size="10.00">fiftyoneDegreesPoolItem</text>
</a>
</g>
</g>
<!-- Node26&#45;&gt;Node28 -->
<g id="edge29" class="edge">
<title>Node26&#45;&gt;Node28</title>
<path fill="none" stroke="#9a32cd" stroke-dasharray="5,2" d="M973.18,-192.36C986.03,-194.06 999.41,-195.56 1012,-196.5 1086.39,-202.02 1171.99,-201.74 1229.91,-200.58"/>
<polygon fill="#9a32cd" stroke="#9a32cd" points="973.4,-188.86 963.02,-190.96 972.45,-195.79 973.4,-188.86"/>
<text text-anchor="middle" x="1102" y="-204.5" font-family="Helvetica,sans-Serif" font-size="10.00"> pool</text>
</g>
<!-- Node27 -->
<g id="node24" class="node">
<title>Node27</title>
<g id="a_node24"><a xlink:href="unionfiftyone_degrees_pool_head.html" target="_top" xlink:title="The head of the stack used for pop and push operations.">
<polygon fill="none" stroke="black" points="510,-172 510,-191 650,-191 650,-172 510,-172"/>
<text text-anchor="middle" x="580" y="-179" font-family="Helvetica,sans-Serif" font-size="10.00">fiftyoneDegreesPoolHead</text>
</a>
</g>
</g>
<!-- Node27&#45;&gt;Node26 -->
<g id="edge27" class="edge">
<title>Node27&#45;&gt;Node26</title>
<path fill="none" stroke="#9a32cd" stroke-dasharray="5,2" d="M660.26,-181.5C718.42,-181.5 796.02,-181.5 847.99,-181.5"/>
<polygon fill="#9a32cd" stroke="#9a32cd" points="660,-178 650,-181.5 660,-185 660,-178"/>
<text text-anchor="middle" x="743.5" y="-184.5" font-family="Helvetica,sans-Serif" font-size="10.00"> head</text>
</g>
<!-- Node28&#45;&gt;Node26 -->
<g id="edge28" class="edge">
<title>Node28&#45;&gt;Node26</title>
<path fill="none" stroke="#9a32cd" stroke-dasharray="5,2" d="M1219.72,-187.95C1210.39,-186.97 1200.99,-186.12 1192,-185.5 1112.75,-180.08 1020.84,-179.88 963.18,-180.48"/>
<polygon fill="#9a32cd" stroke="#9a32cd" points="1219.46,-191.44 1229.78,-189.05 1220.23,-184.48 1219.46,-191.44"/>
<text text-anchor="middle" x="1102" y="-188.5" font-family="Helvetica,sans-Serif" font-size="10.00"> stack</text>
</g>
<!-- Node29 -->
<g id="node26" class="node">
<title>Node29</title>
<g id="a_node26"><a xlink:href="structfiftyone_degrees_override_property_array.html" target="_top" xlink:title="Array of items of type fiftyoneDegreesOverrideProperty used to easily access and track the size of th...">
<polygon fill="none" stroke="black" points="1210,-44.5 1210,-74.5 1387,-74.5 1387,-44.5 1210,-44.5"/>
<text text-anchor="start" x="1218" y="-62.5" font-family="Helvetica,sans-Serif" font-size="10.00">fiftyoneDegreesOverrideProperty</text>
<text text-anchor="middle" x="1298.5" y="-51.5" font-family="Helvetica,sans-Serif" font-size="10.00">Array</text>
</a>
</g>
</g>
<!-- Node29&#45;&gt;Node17 -->
<g id="edge30" class="edge">
<title>Node29&#45;&gt;Node17</title>
<path fill="none" stroke="#9a32cd" stroke-dasharray="5,2" d="M1397.39,-72.77C1426,-76.89 1457.29,-81.63 1486,-86.5 1506.24,-89.93 1528.53,-94.18 1547.57,-97.96"/>
<polygon fill="#9a32cd" stroke="#9a32cd" points="1397.79,-69.29 1387.4,-71.33 1396.8,-76.22 1397.79,-69.29"/>
<text text-anchor="middle" x="1445.5" y="-89.5" font-family="Helvetica,sans-Serif" font-size="10.00"> overridable</text>
</g>
<!-- Node30 -->
<g id="node27" class="node">
<title>Node30</title>
<g id="a_node27"><a xlink:href="structfiftyone_degrees_override_property.html" target="_top" xlink:title="Index and pointer to a property which can be overridden.">
<polygon fill="none" stroke="black" points="817,-56 817,-75 994,-75 994,-56 817,-56"/>
<text text-anchor="middle" x="905.5" y="-63" font-family="Helvetica,sans-Serif" font-size="10.00">fiftyoneDegreesOverrideProperty</text>
</a>
</g>
</g>
<!-- Node30&#45;&gt;Node29 -->
<g id="edge31" class="edge">
<title>Node30&#45;&gt;Node29</title>
<path fill="none" stroke="#9a32cd" stroke-dasharray="5,2" d="M1004.6,-63.99C1067.63,-63.03 1148.81,-61.78 1209.71,-60.85"/>
<polygon fill="#9a32cd" stroke="#9a32cd" points="1004.19,-60.5 994.25,-64.15 1004.3,-67.5 1004.19,-60.5"/>
<text text-anchor="middle" x="1102" y="-67.5" font-family="Helvetica,sans-Serif" font-size="10.00"> items</text>
</g>
<!-- Node31&#45;&gt;Node30 -->
<g id="edge32" class="edge">
<title>Node31&#45;&gt;Node30</title>
<path fill="none" stroke="#9a32cd" stroke-dasharray="5,2" d="M615.7,-98.48C636.39,-91.31 663.34,-82.98 688,-78.5 729.96,-70.88 777.16,-67.46 816.76,-66.01"/>
<polygon fill="#9a32cd" stroke="#9a32cd" points="614.34,-95.25 606.09,-101.89 616.68,-101.85 614.34,-95.25"/>
<text text-anchor="middle" x="743.5" y="-81.5" font-family="Helvetica,sans-Serif" font-size="10.00"> available</text>
</g>
<!-- Node33 -->
<g id="node30" class="node">
<title>Node33</title>
<g id="a_node30"><a xlink:href="structfiftyone_degrees_property_available_array.html" target="_top" xlink:title="Array of items of type fiftyoneDegreesPropertyAvailable used to easily access and track the size of t...">
<polygon fill="none" stroke="black" points="1012,-96.5 1012,-126.5 1192,-126.5 1192,-96.5 1012,-96.5"/>
<text text-anchor="start" x="1020" y="-114.5" font-family="Helvetica,sans-Serif" font-size="10.00">fiftyoneDegreesPropertyAvailable</text>
<text text-anchor="middle" x="1102" y="-103.5" font-family="Helvetica,sans-Serif" font-size="10.00">Array</text>
</a>
</g>
</g>
<!-- Node31&#45;&gt;Node33 -->
<g id="edge36" class="edge">
<title>Node31&#45;&gt;Node33</title>
<path fill="none" stroke="#9a32cd" stroke-dasharray="5,2" d="M680.37,-111.5C776.11,-111.5 919.63,-111.5 1011.8,-111.5"/>
<polygon fill="#9a32cd" stroke="#9a32cd" points="680.1,-108 670.1,-111.5 680.1,-115 680.1,-108"/>
<text text-anchor="middle" x="743.5" y="-114.5" font-family="Helvetica,sans-Serif" font-size="10.00"> items</text>
</g>
<!-- Node32 -->
<g id="node29" class="node">
<title>Node32</title>
<g id="a_node29"><a xlink:href="structfiftyone_degrees_evidence_property_index_array.html" target="_top" xlink:title="Array of items of type fiftyoneDegreesEvidencePropertyIndex used to easily access and track the size ...">
<polygon fill="none" stroke="black" points="178,-96.5 178,-126.5 357,-126.5 357,-96.5 178,-96.5"/>
<text text-anchor="start" x="186" y="-114.5" font-family="Helvetica,sans-Serif" font-size="10.00">fiftyoneDegreesEvidenceProperty</text>
<text text-anchor="middle" x="267.5" y="-103.5" font-family="Helvetica,sans-Serif" font-size="10.00">IndexArray</text>
</a>
</g>
</g>
<!-- Node32&#45;&gt;Node31 -->
<g id="edge33" class="edge">
<title>Node32&#45;&gt;Node31</title>
<path fill="none" stroke="#9a32cd" stroke-dasharray="5,2" d="M367.2,-111.5C406.52,-111.5 451.45,-111.5 489.78,-111.5"/>
<polygon fill="#9a32cd" stroke="#9a32cd" points="367.06,-108 357.06,-111.5 367.06,-115 367.06,-108"/>
<text text-anchor="middle" x="423.5" y="-114.5" font-family="Helvetica,sans-Serif" font-size="10.00"> evidenceProperties</text>
</g>
<!-- Node33&#45;&gt;Node17 -->
<g id="edge35" class="edge">
<title>Node33&#45;&gt;Node17</title>
<path fill="none" stroke="#9a32cd" stroke-dasharray="5,2" d="M1202.43,-110.69C1295.11,-109.93 1431.43,-108.82 1516.35,-108.13"/>
<polygon fill="#9a32cd" stroke="#9a32cd" points="1202.17,-107.19 1192.2,-110.77 1202.23,-114.19 1202.17,-107.19"/>
<text text-anchor="middle" x="1298.5" y="-114.5" font-family="Helvetica,sans-Serif" font-size="10.00"> available</text>
</g>
<!-- Node34 -->
<g id="node31" class="node">
<title>Node34</title>
<g id="a_node31"><a xlink:href="structfiftyone_degrees_config_hash.html" target="_top" xlink:title="Hash specific configuration structure.">
<polygon fill="none" stroke="black" points="1800,-372 1800,-391 1949,-391 1949,-372 1800,-372"/>
<text text-anchor="middle" x="1874.5" y="-379" font-family="Helvetica,sans-Serif" font-size="10.00">fiftyoneDegreesConfigHash</text>
</a>
</g>
</g>
<!-- Node34&#45;&gt;Node8 -->
<g id="edge38" class="edge">
<title>Node34&#45;&gt;Node8</title>
<path fill="none" stroke="#9a32cd" stroke-dasharray="5,2" d="M1959.71,-375.11C1998.71,-371.24 2045.5,-365.31 2087,-356.5 2114.83,-350.59 2145.82,-340.59 2167.16,-333.14"/>
<polygon fill="#9a32cd" stroke="#9a32cd" points="1959.07,-371.65 1949.45,-376.1 1959.74,-378.62 1959.07,-371.65"/>
<text text-anchor="middle" x="2031.5" y="-376.5" font-family="Helvetica,sans-Serif" font-size="10.00"> config</text>
</g>
<!-- Node35 -->
<g id="node32" class="node">
<title>Node35</title>
<g id="a_node32"><a xlink:href="structfiftyone_degrees_collection_config.html" target="_top" xlink:title="Collection configuration structure which defines how the collection should be created by the create m...">
<polygon fill="none" stroke="black" points="1523.5,-371.5 1523.5,-401.5 1666.5,-401.5 1666.5,-371.5 1523.5,-371.5"/>
<text text-anchor="start" x="1531.5" y="-389.5" font-family="Helvetica,sans-Serif" font-size="10.00">fiftyoneDegreesCollection</text>
<text text-anchor="middle" x="1595" y="-378.5" font-family="Helvetica,sans-Serif" font-size="10.00">Config</text>
</a>
</g>
</g>
<!-- Node35&#45;&gt;Node34 -->
<g id="edge39" class="edge">
<title>Node35&#45;&gt;Node34</title>
<path fill="none" stroke="#9a32cd" stroke-dasharray="5,2" d="M1676.98,-385.04C1715.86,-384.34 1762.12,-383.51 1799.98,-382.82"/>
<polygon fill="#9a32cd" stroke="#9a32cd" points="1676.68,-381.55 1666.74,-385.23 1676.8,-388.54 1676.68,-381.55"/>
<text text-anchor="middle" x="1738.5" y="-475.5" font-family="Helvetica,sans-Serif" font-size="10.00"> profileOffsets</text>
<text text-anchor="middle" x="1738.5" y="-464.5" font-family="Helvetica,sans-Serif" font-size="10.00">values</text>
<text text-anchor="middle" x="1738.5" y="-453.5" font-family="Helvetica,sans-Serif" font-size="10.00">strings</text>
<text text-anchor="middle" x="1738.5" y="-442.5" font-family="Helvetica,sans-Serif" font-size="10.00">maps</text>
<text text-anchor="middle" x="1738.5" y="-431.5" font-family="Helvetica,sans-Serif" font-size="10.00">components</text>
<text text-anchor="middle" x="1738.5" y="-420.5" font-family="Helvetica,sans-Serif" font-size="10.00">nodes</text>
<text text-anchor="middle" x="1738.5" y="-409.5" font-family="Helvetica,sans-Serif" font-size="10.00">properties</text>
<text text-anchor="middle" x="1738.5" y="-398.5" font-family="Helvetica,sans-Serif" font-size="10.00">rootNodes</text>
<text text-anchor="middle" x="1738.5" y="-387.5" font-family="Helvetica,sans-Serif" font-size="10.00">profiles</text>
</g>
<!-- Node36 -->
<g id="node33" class="node">
<title>Node36</title>
<g id="a_node33"><a xlink:href="structfiftyone_degrees_config_device_detection.html" target="_top" xlink:title="Device detection configuration structure containing device detection specific configuration options,...">
<polygon fill="none" stroke="black" points="1516,-491.5 1516,-521.5 1674,-521.5 1674,-491.5 1516,-491.5"/>
<text text-anchor="start" x="1524" y="-509.5" font-family="Helvetica,sans-Serif" font-size="10.00">fiftyoneDegreesConfigDevice</text>
<text text-anchor="middle" x="1595" y="-498.5" font-family="Helvetica,sans-Serif" font-size="10.00">Detection</text>
</a>
</g>
</g>
<!-- Node36&#45;&gt;Node34 -->
<g id="edge40" class="edge">
<title>Node36&#45;&gt;Node34</title>
<path fill="none" stroke="#9a32cd" stroke-dasharray="5,2" d="M1684.2,-515.44C1715.74,-513.93 1749.31,-506.21 1773,-484.5 1801.15,-458.71 1764.21,-427.7 1791,-400.5 1794.71,-396.73 1799.01,-393.64 1803.66,-391.13"/>
<polygon fill="#9a32cd" stroke="#9a32cd" points="1683.94,-511.95 1674.04,-515.72 1684.13,-518.94 1683.94,-511.95"/>
<text text-anchor="middle" x="1738.5" y="-516.5" font-family="Helvetica,sans-Serif" font-size="10.00"> b</text>
</g>
<!-- Node37 -->
<g id="node34" class="node">
<title>Node37</title>
<g id="a_node34"><a xlink:href="structfiftyone_degrees_config_base.html" target="_top" xlink:title="Base configuration structure containing common configuration options, and options that apply to struc...">
<polygon fill="none" stroke="black" points="1224,-497 1224,-516 1373,-516 1373,-497 1224,-497"/>
<text text-anchor="middle" x="1298.5" y="-504" font-family="Helvetica,sans-Serif" font-size="10.00">fiftyoneDegreesConfigBase</text>
</a>
</g>
</g>
<!-- Node37&#45;&gt;Node36 -->
<g id="edge41" class="edge">
<title>Node37&#45;&gt;Node36</title>
<path fill="none" stroke="#9a32cd" stroke-dasharray="5,2" d="M1383.19,-506.5C1424.92,-506.5 1475.06,-506.5 1515.98,-506.5"/>
<polygon fill="#9a32cd" stroke="#9a32cd" points="1383.06,-503 1373.06,-506.5 1383.06,-510 1383.06,-503"/>
<text text-anchor="middle" x="1445.5" y="-509.5" font-family="Helvetica,sans-Serif" font-size="10.00"> b</text>
</g>
</g>
</svg>
