<?xml version="1.0" encoding="UTF-8" standalone="no"?>
<!DOCTYPE svg PUBLIC "-//W3C//DTD SVG 1.1//EN"
 "http://www.w3.org/Graphics/SVG/1.1/DTD/svg11.dtd">
<!-- Generated by graphviz version 2.43.0 (0)
 -->
<!-- Title: Common Pages: 1 -->
<svg width="212pt" height="1137pt"
 viewBox="0.00 0.00 212.00 1137.00" xmlns="http://www.w3.org/2000/svg" xmlns:xlink="http://www.w3.org/1999/xlink">
<g id="graph0" class="graph" transform="scale(1 1) rotate(0) translate(4 1133)">
<title>Common</title>
<!-- Node0 -->
<g id="node1" class="node">
<title>Node0</title>
<g id="a_node1"><a xlink:title="Common 51Degrees methods, types and macros.">
<polygon fill="#bfbfbf" stroke="black" points="61,-574 0,-574 0,-555 61,-555 61,-574"/>
<text text-anchor="middle" x="30.5" y="-562" font-family="Helvetica,sans-Serif" font-size="10.00">Common</text>
</a>
</g>
</g>
<!-- Node3 -->
<g id="node2" class="node">
<title>Node3</title>
<g id="a_node2"><a xlink:href="group___fifty_one_degrees_collection.html" target="_top" xlink:title="Group of related items such as strings.">
<polygon fill="none" stroke="black" points="183,-1129 118,-1129 118,-1110 183,-1110 183,-1129"/>
<text text-anchor="middle" x="150.5" y="-1117" font-family="Helvetica,sans-Serif" font-size="10.00">Collection</text>
</a>
</g>
</g>
<!-- Node0&#45;&gt;Node3 -->
<g id="edge3" class="edge">
<title>Node0&#45;&gt;Node3</title>
<path fill="none" stroke="black" d="M31.2,-584.36C30.3,-671.59 30.94,-1019.96 97,-1101.5 102.28,-1108.01 110.03,-1112.18 117.97,-1114.84"/>
<polygon fill="black" stroke="black" points="34.71,-584.28 31.33,-574.24 27.71,-584.2 34.71,-584.28"/>
</g>
<!-- Node17 -->
<g id="node3" class="node">
<title>Node17</title>
<g id="a_node3"><a xlink:href="group___fifty_one_degrees_list.html" target="_top" xlink:title="A more manageable way to store arrays.">
<polygon fill="none" stroke="black" points="167.5,-1092 133.5,-1092 133.5,-1073 167.5,-1073 167.5,-1092"/>
<text text-anchor="middle" x="150.5" y="-1080" font-family="Helvetica,sans-Serif" font-size="10.00">List</text>
</a>
</g>
</g>
<!-- Node0&#45;&gt;Node17 -->
<g id="edge17" class="edge">
<title>Node0&#45;&gt;Node17</title>
<path fill="none" stroke="black" d="M31.4,-584.57C31.4,-668.35 35.47,-989.25 97,-1064.5 105.78,-1075.24 121.3,-1079.59 133.19,-1081.35"/>
<polygon fill="black" stroke="black" points="34.9,-584.38 31.43,-574.37 27.9,-584.37 34.9,-584.38"/>
</g>
<!-- Node25 -->
<g id="node4" class="node">
<title>Node25</title>
<g id="a_node4"><a xlink:href="group___fifty_one_degrees_results.html" target="_top" xlink:title="Structure returned by an engine&#39;s process method(s), containing values.">
<polygon fill="none" stroke="black" points="177,-1055 124,-1055 124,-1036 177,-1036 177,-1055"/>
<text text-anchor="middle" x="150.5" y="-1043" font-family="Helvetica,sans-Serif" font-size="10.00">Results</text>
</a>
</g>
</g>
<!-- Node0&#45;&gt;Node25 -->
<g id="edge25" class="edge">
<title>Node0&#45;&gt;Node25</title>
<path fill="none" stroke="black" d="M31.63,-584.08C32.55,-663.2 39.83,-958.3 97,-1027.5 103.63,-1035.52 114.01,-1039.98 123.79,-1042.45"/>
<polygon fill="black" stroke="black" points="35.13,-584 31.54,-574.03 28.13,-584.06 35.13,-584"/>
</g>
<!-- Node28 -->
<g id="node5" class="node">
<title>Node28</title>
<g id="a_node5"><a xlink:href="group___fifty_one_degrees_text_file.html" target="_top" xlink:title="Contains helper methods for accessing and using text files.">
<polygon fill="none" stroke="black" points="177.5,-1018 123.5,-1018 123.5,-999 177.5,-999 177.5,-1018"/>
<text text-anchor="middle" x="150.5" y="-1006" font-family="Helvetica,sans-Serif" font-size="10.00">TextFile</text>
</a>
</g>
</g>
<!-- Node0&#45;&gt;Node28 -->
<g id="edge28" class="edge">
<title>Node0&#45;&gt;Node28</title>
<path fill="none" stroke="black" d="M31.91,-584.43C33.85,-659.98 44.37,-927.58 97,-990.5 103.55,-998.33 113.68,-1002.77 123.3,-1005.27"/>
<polygon fill="black" stroke="black" points="35.41,-584.28 31.67,-574.37 28.41,-584.45 35.41,-584.28"/>
</g>
<!-- Node22 -->
<g id="node6" class="node">
<title>Node22</title>
<g id="a_node6"><a xlink:href="group___fifty_one_degrees_properties.html" target="_top" xlink:title="Structures for properties which are available, or required.">
<polygon fill="none" stroke="black" points="183.5,-981 117.5,-981 117.5,-962 183.5,-962 183.5,-981"/>
<text text-anchor="middle" x="150.5" y="-969" font-family="Helvetica,sans-Serif" font-size="10.00">Properties</text>
</a>
</g>
</g>
<!-- Node0&#45;&gt;Node22 -->
<g id="edge22" class="edge">
<title>Node0&#45;&gt;Node22</title>
<path fill="none" stroke="black" d="M32.23,-584.5C35.24,-655.85 48.83,-896.74 97,-953.5 102.24,-959.67 109.69,-963.73 117.34,-966.4"/>
<polygon fill="black" stroke="black" points="35.72,-584.07 31.83,-574.22 28.72,-584.35 35.72,-584.07"/>
</g>
<!-- Node29 -->
<g id="node7" class="node">
<title>Node29</title>
<g id="a_node7"><a xlink:href="group___fifty_one_degrees_threading.html" target="_top" xlink:title="Defines multi threading macros if the FIFTYONE_DEGREES_NO_THREADING compiler directive is not explici...">
<polygon fill="none" stroke="black" points="183,-944 118,-944 118,-925 183,-925 183,-944"/>
<text text-anchor="middle" x="150.5" y="-932" font-family="Helvetica,sans-Serif" font-size="10.00">Threading</text>
</a>
</g>
</g>
<!-- Node0&#45;&gt;Node29 -->
<g id="edge29" class="edge">
<title>Node0&#45;&gt;Node29</title>
<path fill="none" stroke="black" d="M32.61,-584.31C36.73,-650.96 53.22,-865.8 97,-916.5 102.42,-922.77 110.12,-926.86 117.96,-929.53"/>
<polygon fill="black" stroke="black" points="36.1,-584.06 32.02,-574.29 29.11,-584.48 36.1,-584.06"/>
</g>
<!-- Node4 -->
<g id="node8" class="node">
<title>Node4</title>
<g id="a_node8"><a xlink:href="group___fifty_one_degrees_component.html" target="_top" xlink:title="Component of a data set.">
<polygon fill="none" stroke="black" points="187,-907 114,-907 114,-888 187,-888 187,-907"/>
<text text-anchor="middle" x="150.5" y="-895" font-family="Helvetica,sans-Serif" font-size="10.00">Component</text>
</a>
</g>
</g>
<!-- Node0&#45;&gt;Node4 -->
<g id="edge4" class="edge">
<title>Node0&#45;&gt;Node4</title>
<path fill="none" stroke="black" d="M33.08,-584.2C38.4,-646.04 57.61,-834.84 97,-879.5 101.53,-884.63 107.58,-888.3 113.96,-890.92"/>
<polygon fill="black" stroke="black" points="36.56,-583.87 32.24,-574.19 29.58,-584.45 36.56,-583.87"/>
</g>
<!-- Node11 -->
<g id="node9" class="node">
<title>Node11</title>
<g id="a_node9"><a xlink:href="group___fifty_one_degrees_exceptions.html" target="_top" xlink:title="Allow the bubbling up or errors in C.">
<polygon fill="none" stroke="black" points="185.5,-870 115.5,-870 115.5,-851 185.5,-851 185.5,-870"/>
<text text-anchor="middle" x="150.5" y="-858" font-family="Helvetica,sans-Serif" font-size="10.00">Exceptions</text>
</a>
</g>
</g>
<!-- Node0&#45;&gt;Node11 -->
<g id="edge11" class="edge">
<title>Node0&#45;&gt;Node11</title>
<path fill="none" stroke="black" d="M33.7,-584.44C40.36,-641.52 62.04,-803.9 97,-842.5 101.92,-847.93 108.54,-851.72 115.42,-854.37"/>
<polygon fill="black" stroke="black" points="37.14,-583.76 32.53,-574.22 30.19,-584.55 37.14,-583.76"/>
</g>
<!-- Node14 -->
<g id="node10" class="node">
<title>Node14</title>
<g id="a_node10"><a xlink:href="group__fiftyone_degrees_float.html" target="_top" xlink:title="IEEE Single Precision Floating Point standard implementation and methods to convert to native float t...">
<polygon fill="none" stroke="black" points="171,-833 130,-833 130,-814 171,-814 171,-833"/>
<text text-anchor="middle" x="150.5" y="-821" font-family="Helvetica,sans-Serif" font-size="10.00">Float</text>
</a>
</g>
</g>
<!-- Node0&#45;&gt;Node14 -->
<g id="edge14" class="edge">
<title>Node0&#45;&gt;Node14</title>
<path fill="none" stroke="black" d="M31.02,-584.31C31.02,-629.64 37.42,-741.92 97,-805.5 105.5,-814.57 118.76,-819.07 129.83,-821.3"/>
<polygon fill="black" stroke="black" points="34.52,-584.33 31.13,-574.29 27.52,-584.26 34.52,-584.33"/>
</g>
<!-- Node31 -->
<g id="node11" class="node">
<title>Node31</title>
<g id="a_node11"><a xlink:href="group___fifty_one_degrees_value.html" target="_top" xlink:title="Value of a data set relating to a property.">
<polygon fill="none" stroke="black" points="175,-796 126,-796 126,-777 175,-777 175,-796"/>
<text text-anchor="middle" x="150.5" y="-784" font-family="Helvetica,sans-Serif" font-size="10.00">Values</text>
</a>
</g>
</g>
<!-- Node0&#45;&gt;Node31 -->
<g id="edge31" class="edge">
<title>Node0&#45;&gt;Node31</title>
<path fill="none" stroke="black" d="M32.19,-584.22C34.67,-624.42 45.93,-716.42 97,-768.5 104.62,-776.27 115.75,-780.69 125.79,-783.2"/>
<polygon fill="black" stroke="black" points="35.68,-583.94 31.69,-574.13 28.69,-584.29 35.68,-583.94"/>
</g>
<!-- Node12 -->
<g id="node12" class="node">
<title>Node12</title>
<g id="a_node12"><a xlink:href="group___fifty_one_degrees_synonyms.html" target="_top" xlink:title="Quick shortenings of common methods and types.">
<polygon fill="none" stroke="black" points="184.5,-759 116.5,-759 116.5,-740 184.5,-740 184.5,-759"/>
<text text-anchor="middle" x="150.5" y="-747" font-family="Helvetica,sans-Serif" font-size="10.00">Synonyms</text>
</a>
</g>
</g>
<!-- Node0&#45;&gt;Node12 -->
<g id="edge12" class="edge">
<title>Node0&#45;&gt;Node12</title>
<path fill="none" stroke="black" d="M33.9,-584.65C39.1,-619.42 54.56,-690.86 97,-731.5 102.36,-736.63 109.24,-740.3 116.25,-742.93"/>
<polygon fill="black" stroke="black" points="37.32,-583.8 32.51,-574.36 30.38,-584.74 37.32,-583.8"/>
</g>
<!-- Node20 -->
<g id="node13" class="node">
<title>Node20</title>
<g id="a_node13"><a xlink:href="group___fifty_one_degrees_pool.html" target="_top" xlink:title="Pool of handles to allow safe access to multiple threads.">
<polygon fill="none" stroke="black" points="169.5,-722 131.5,-722 131.5,-703 169.5,-703 169.5,-722"/>
<text text-anchor="middle" x="150.5" y="-710" font-family="Helvetica,sans-Serif" font-size="10.00">Pool</text>
</a>
</g>
</g>
<!-- Node0&#45;&gt;Node20 -->
<g id="edge20" class="edge">
<title>Node0&#45;&gt;Node20</title>
<path fill="none" stroke="black" d="M36.31,-584.12C44.24,-612.42 62.7,-664.59 97,-694.5 106.59,-702.86 120.24,-707.38 131.23,-709.81"/>
<polygon fill="black" stroke="black" points="39.64,-582.99 33.7,-574.22 32.87,-584.78 39.64,-582.99"/>
</g>
<!-- Node19 -->
<g id="node14" class="node">
<title>Node19</title>
<g id="a_node14"><a xlink:href="group___fifty_one_degrees_overrides.html" target="_top" xlink:title="Used to override properties values or an entire profile.">
<polygon fill="none" stroke="black" points="182.5,-685 118.5,-685 118.5,-666 182.5,-666 182.5,-685"/>
<text text-anchor="middle" x="150.5" y="-673" font-family="Helvetica,sans-Serif" font-size="10.00">Overrides</text>
</a>
</g>
</g>
<!-- Node0&#45;&gt;Node19 -->
<g id="edge19" class="edge">
<title>Node0&#45;&gt;Node19</title>
<path fill="none" stroke="black" d="M40.23,-583.33C50.85,-604.27 70.67,-637.74 97,-657.5 103.32,-662.24 110.98,-665.79 118.47,-668.43"/>
<polygon fill="black" stroke="black" points="43.3,-581.63 35.77,-574.18 37.01,-584.7 43.3,-581.63"/>
</g>
<!-- Node16 -->
<g id="node15" class="node">
<title>Node16</title>
<g id="a_node15"><a xlink:href="group__fiftyone_degrees_ip.html" target="_top" xlink:title="Types and methods to parse IP address strings.">
<polygon fill="none" stroke="black" points="165,-648 136,-648 136,-629 165,-629 165,-648"/>
<text text-anchor="middle" x="150.5" y="-636" font-family="Helvetica,sans-Serif" font-size="10.00">IP</text>
</a>
</g>
</g>
<!-- Node0&#45;&gt;Node16 -->
<g id="edge16" class="edge">
<title>Node0&#45;&gt;Node16</title>
<path fill="none" stroke="black" d="M47.73,-581.47C60.23,-593.72 78.46,-609.91 97,-620.5 109.38,-627.57 125,-632.48 135.96,-635.37"/>
<polygon fill="black" stroke="black" points="49.93,-578.71 40.4,-574.08 44.96,-583.65 49.93,-578.71"/>
</g>
<!-- Node26 -->
<g id="node16" class="node">
<title>Node26</title>
<g id="a_node16"><a xlink:href="group___fifty_one_degrees_status.html" target="_top" xlink:title="Status codes and messages indicating the result of an operation.">
<polygon fill="none" stroke="black" points="174,-611 127,-611 127,-592 174,-592 174,-611"/>
<text text-anchor="middle" x="150.5" y="-599" font-family="Helvetica,sans-Serif" font-size="10.00">Status</text>
</a>
</g>
</g>
<!-- Node0&#45;&gt;Node26 -->
<g id="edge26" class="edge">
<title>Node0&#45;&gt;Node26</title>
<path fill="none" stroke="black" d="M70.96,-576.87C89.53,-582.7 111.01,-589.43 126.81,-594.39"/>
<polygon fill="black" stroke="black" points="71.87,-573.49 61.28,-573.84 69.77,-580.17 71.87,-573.49"/>
</g>
<!-- Node1 -->
<g id="node17" class="node">
<title>Node1</title>
<g id="a_node17"><a xlink:href="group___fifty_one_degrees_array.html" target="_top" xlink:title="Macros used to quickly define array structures.">
<polygon fill="none" stroke="black" points="174.5,-574 126.5,-574 126.5,-555 174.5,-555 174.5,-574"/>
<text text-anchor="middle" x="150.5" y="-562" font-family="Helvetica,sans-Serif" font-size="10.00">Arrays</text>
</a>
</g>
</g>
<!-- Node0&#45;&gt;Node1 -->
<g id="edge1" class="edge">
<title>Node0&#45;&gt;Node1</title>
<path fill="none" stroke="black" d="M71.4,-564.5C89.72,-564.5 110.8,-564.5 126.43,-564.5"/>
<polygon fill="black" stroke="black" points="71.28,-561 61.28,-564.5 71.28,-568 71.28,-561"/>
</g>
<!-- Node7 -->
<g id="node18" class="node">
<title>Node7</title>
<g id="a_node18"><a xlink:href="group___fifty_one_degrees_data.html" target="_top" xlink:title="Structure containing memory allocated to store a variable.">
<polygon fill="none" stroke="black" points="170.5,-537 130.5,-537 130.5,-518 170.5,-518 170.5,-537"/>
<text text-anchor="middle" x="150.5" y="-525" font-family="Helvetica,sans-Serif" font-size="10.00">Data</text>
</a>
</g>
</g>
<!-- Node0&#45;&gt;Node7 -->
<g id="edge7" class="edge">
<title>Node0&#45;&gt;Node7</title>
<path fill="none" stroke="black" d="M71.08,-552.09C91.09,-545.81 114.46,-538.49 130.45,-533.47"/>
<polygon fill="black" stroke="black" points="69.77,-548.83 61.28,-555.16 71.87,-555.51 69.77,-548.83"/>
</g>
<!-- Node9 -->
<g id="node19" class="node">
<title>Node9</title>
<g id="a_node19"><a xlink:href="group___fifty_one_degrees_date.html" target="_top" xlink:title="Represents a date in a data set.">
<polygon fill="none" stroke="black" points="170.5,-500 130.5,-500 130.5,-481 170.5,-481 170.5,-500"/>
<text text-anchor="middle" x="150.5" y="-488" font-family="Helvetica,sans-Serif" font-size="10.00">Date</text>
</a>
</g>
</g>
<!-- Node0&#45;&gt;Node9 -->
<g id="edge9" class="edge">
<title>Node0&#45;&gt;Node9</title>
<path fill="none" stroke="black" d="M48.27,-547.53C60.81,-535.6 78.85,-519.96 97,-509.5 107.41,-503.5 120.06,-498.85 130.33,-495.66"/>
<polygon fill="black" stroke="black" points="45.59,-545.25 40.88,-554.74 50.48,-550.26 45.59,-545.25"/>
</g>
<!-- Node18 -->
<g id="node20" class="node">
<title>Node18</title>
<g id="a_node20"><a xlink:href="group___fifty_one_degrees_memory.html" target="_top" xlink:title="Utility methods used to handle common memory operations such as allocating memory and freeing it,...">
<polygon fill="none" stroke="black" points="179,-463 122,-463 122,-444 179,-444 179,-463"/>
<text text-anchor="middle" x="150.5" y="-451" font-family="Helvetica,sans-Serif" font-size="10.00">Memory</text>
</a>
</g>
</g>
<!-- Node0&#45;&gt;Node18 -->
<g id="edge18" class="edge">
<title>Node0&#45;&gt;Node18</title>
<path fill="none" stroke="black" d="M40.35,-545.95C51.06,-525.31 70.97,-492.27 97,-472.5 104.26,-466.99 113.26,-462.96 121.75,-460.07"/>
<polygon fill="black" stroke="black" points="37.18,-544.46 35.84,-554.97 43.44,-547.59 37.18,-544.46"/>
</g>
<!-- Node24 -->
<g id="node21" class="node">
<title>Node24</title>
<g id="a_node21"><a xlink:href="group___fifty_one_degrees_resource.html" target="_top" xlink:title="Resources to be managed by a resource manager.">
<polygon fill="none" stroke="black" points="204,-426 97,-426 97,-407 204,-407 204,-426"/>
<text text-anchor="middle" x="150.5" y="-414" font-family="Helvetica,sans-Serif" font-size="10.00">Resource Manager</text>
</a>
</g>
</g>
<!-- Node0&#45;&gt;Node24 -->
<g id="edge24" class="edge">
<title>Node0&#45;&gt;Node24</title>
<path fill="none" stroke="black" d="M36.42,-545.11C44.49,-517.11 63.11,-465.47 97,-435.5 101.36,-431.65 106.56,-428.56 111.96,-426.08"/>
<polygon fill="black" stroke="black" points="33.01,-544.33 33.76,-554.9 39.76,-546.17 33.01,-544.33"/>
</g>
<!-- Node23 -->
<g id="node22" class="node">
<title>Node23</title>
<g id="a_node22"><a xlink:href="group___fifty_one_degrees_property.html" target="_top" xlink:title="Property in a data set relating to a single component.">
<polygon fill="none" stroke="black" points="179.5,-389 121.5,-389 121.5,-370 179.5,-370 179.5,-389"/>
<text text-anchor="middle" x="150.5" y="-377" font-family="Helvetica,sans-Serif" font-size="10.00">Property</text>
</a>
</g>
</g>
<!-- Node0&#45;&gt;Node23 -->
<g id="edge23" class="edge">
<title>Node0&#45;&gt;Node23</title>
<path fill="none" stroke="black" d="M34.01,-544.55C39.37,-510.09 55.08,-439.24 97,-398.5 103.67,-392.01 112.72,-387.72 121.43,-384.89"/>
<polygon fill="black" stroke="black" points="30.5,-544.35 32.57,-554.74 37.43,-545.33 30.5,-544.35"/>
</g>
<!-- Node2 -->
<g id="node23" class="node">
<title>Node2</title>
<g id="a_node23"><a xlink:href="group___fifty_one_degrees_cache.html" target="_top" xlink:title="Fixed size, thread safe, loading, tree based cache.">
<polygon fill="none" stroke="black" points="174,-352 127,-352 127,-333 174,-333 174,-352"/>
<text text-anchor="middle" x="150.5" y="-340" font-family="Helvetica,sans-Serif" font-size="10.00">Cache</text>
</a>
</g>
</g>
<!-- Node0&#45;&gt;Node2 -->
<g id="edge2" class="edge">
<title>Node0&#45;&gt;Node2</title>
<path fill="none" stroke="black" d="M32.3,-544.94C34.96,-505.07 46.56,-413.75 97,-361.5 104.88,-353.34 116.52,-348.67 126.84,-346.01"/>
<polygon fill="black" stroke="black" points="28.8,-544.78 31.75,-554.95 35.79,-545.16 28.8,-544.78"/>
</g>
<!-- Node5 -->
<g id="node24" class="node">
<title>Node5</title>
<g id="a_node24"><a xlink:href="group___fifty_one_degrees_config.html" target="_top" xlink:title="Configuration for building data sets.">
<polygon fill="none" stroke="black" points="174,-315 127,-315 127,-296 174,-296 174,-315"/>
<text text-anchor="middle" x="150.5" y="-303" font-family="Helvetica,sans-Serif" font-size="10.00">Config</text>
</a>
</g>
</g>
<!-- Node0&#45;&gt;Node5 -->
<g id="edge5" class="edge">
<title>Node0&#45;&gt;Node5</title>
<path fill="none" stroke="black" d="M31.12,-544.56C31.36,-499.37 38.28,-388.17 97,-324.5 104.75,-316.09 116.51,-311.4 126.94,-308.78"/>
<polygon fill="black" stroke="black" points="27.62,-544.8 31.18,-554.78 34.62,-544.76 27.62,-544.8"/>
</g>
<!-- Node10 -->
<g id="node25" class="node">
<title>Node10</title>
<g id="a_node25"><a xlink:href="group___fifty_one_degrees_evidence.html" target="_top" xlink:title="Contains key value pairs as evidence to be processed.">
<polygon fill="none" stroke="black" points="181,-278 120,-278 120,-259 181,-259 181,-278"/>
<text text-anchor="middle" x="150.5" y="-266" font-family="Helvetica,sans-Serif" font-size="10.00">Evidence</text>
</a>
</g>
</g>
<!-- Node0&#45;&gt;Node10 -->
<g id="edge10" class="edge">
<title>Node0&#45;&gt;Node10</title>
<path fill="none" stroke="black" d="M33.74,-544.66C40.51,-487.87 62.48,-326.24 97,-287.5 102.93,-280.84 111.38,-276.52 119.77,-273.71"/>
<polygon fill="black" stroke="black" points="30.23,-544.49 32.55,-554.83 37.19,-545.3 30.23,-544.49"/>
</g>
<!-- Node8 -->
<g id="node26" class="node">
<title>Node8</title>
<g id="a_node26"><a xlink:href="group___fifty_one_degrees_data_set.html" target="_top" xlink:title="A data file initialised in a structure.">
<polygon fill="none" stroke="black" points="180,-241 121,-241 121,-222 180,-222 180,-241"/>
<text text-anchor="middle" x="150.5" y="-229" font-family="Helvetica,sans-Serif" font-size="10.00">Data Set</text>
</a>
</g>
</g>
<!-- Node0&#45;&gt;Node8 -->
<g id="edge8" class="edge">
<title>Node0&#45;&gt;Node8</title>
<path fill="none" stroke="black" d="M33.15,-544.5C38.64,-482.55 58.17,-295.25 97,-250.5 103.1,-243.47 112.01,-239.04 120.76,-236.25"/>
<polygon fill="black" stroke="black" points="29.63,-544.59 32.26,-554.85 36.6,-545.19 29.63,-544.59"/>
</g>
<!-- Node13 -->
<g id="node27" class="node">
<title>Node13</title>
<g id="a_node27"><a xlink:href="group___fifty_one_degrees_file.html" target="_top" xlink:title="File handle pool and simple file operations e.g.">
<polygon fill="none" stroke="black" points="167.5,-204 133.5,-204 133.5,-185 167.5,-185 167.5,-204"/>
<text text-anchor="middle" x="150.5" y="-192" font-family="Helvetica,sans-Serif" font-size="10.00">File</text>
</a>
</g>
</g>
<!-- Node0&#45;&gt;Node13 -->
<g id="edge13" class="edge">
<title>Node0&#45;&gt;Node13</title>
<path fill="none" stroke="black" d="M32.68,-544.36C36.97,-477.51 53.85,-264.32 97,-213.5 106.03,-202.86 121.52,-198.18 133.33,-196.12"/>
<polygon fill="black" stroke="black" points="29.16,-544.56 32.04,-554.75 36.15,-544.99 29.16,-544.56"/>
</g>
<!-- Node27 -->
<g id="node28" class="node">
<title>Node27</title>
<g id="a_node28"><a xlink:href="group___fifty_one_degrees_string.html" target="_top" xlink:title="String structures containing the string and length.">
<polygon fill="none" stroke="black" points="173,-167 128,-167 128,-148 173,-148 173,-167"/>
<text text-anchor="middle" x="150.5" y="-155" font-family="Helvetica,sans-Serif" font-size="10.00">String</text>
</a>
</g>
</g>
<!-- Node0&#45;&gt;Node27 -->
<g id="edge27" class="edge">
<title>Node0&#45;&gt;Node27</title>
<path fill="none" stroke="black" d="M32.27,-544.58C35.42,-473.5 49.42,-233.51 97,-176.5 104.64,-167.35 117.06,-162.6 127.9,-160.14"/>
<polygon fill="black" stroke="black" points="28.77,-544.69 31.85,-554.82 35.76,-544.98 28.77,-544.69"/>
</g>
<!-- Node21 -->
<g id="node29" class="node">
<title>Node21</title>
<g id="a_node29"><a xlink:href="group___fifty_one_degrees_profile.html" target="_top" xlink:title="Profile containing a unique set of values for the properties of a single component.">
<polygon fill="none" stroke="black" points="174,-130 127,-130 127,-111 174,-111 174,-130"/>
<text text-anchor="middle" x="150.5" y="-118" font-family="Helvetica,sans-Serif" font-size="10.00">Profile</text>
</a>
</g>
</g>
<!-- Node0&#45;&gt;Node21 -->
<g id="edge21" class="edge">
<title>Node0&#45;&gt;Node21</title>
<path fill="none" stroke="black" d="M31.95,-544.64C34.03,-469.37 45.02,-202.71 97,-139.5 104.33,-130.59 116.19,-125.86 126.78,-123.35"/>
<polygon fill="black" stroke="black" points="28.45,-544.58 31.69,-554.67 35.45,-544.76 28.45,-544.58"/>
</g>
<!-- Node30 -->
<g id="node30" class="node">
<title>Node30</title>
<g id="a_node30"><a xlink:href="group___fifty_one_degrees_tree.html" target="_top" xlink:title="Implementation of the classic red black binary tree.">
<polygon fill="none" stroke="black" points="169,-93 132,-93 132,-74 169,-74 169,-93"/>
<text text-anchor="middle" x="150.5" y="-81" font-family="Helvetica,sans-Serif" font-size="10.00">Tree</text>
</a>
</g>
</g>
<!-- Node0&#45;&gt;Node30 -->
<g id="edge30" class="edge">
<title>Node0&#45;&gt;Node30</title>
<path fill="none" stroke="black" d="M31.68,-544.47C32.78,-464.87 40.65,-171.87 97,-102.5 105.49,-92.04 120.24,-87.34 131.95,-85.23"/>
<polygon fill="black" stroke="black" points="28.18,-544.58 31.56,-554.62 35.18,-544.66 28.18,-544.58"/>
</g>
<!-- Node6 -->
<g id="node31" class="node">
<title>Node6</title>
<g id="a_node31"><a xlink:href="group___fifty_one_degrees_coordinate.html" target="_top" xlink:title="A coordinate representation of a location.">
<polygon fill="none" stroke="black" points="183.5,-56 117.5,-56 117.5,-37 183.5,-37 183.5,-56"/>
<text text-anchor="middle" x="150.5" y="-44" font-family="Helvetica,sans-Serif" font-size="10.00">Coodinate</text>
</a>
</g>
</g>
<!-- Node0&#45;&gt;Node6 -->
<g id="edge6" class="edge">
<title>Node0&#45;&gt;Node6</title>
<path fill="none" stroke="black" d="M31.44,-544.5C31.6,-461 36.22,-141.11 97,-65.5 102.16,-59.08 109.68,-54.83 117.43,-52.01"/>
<polygon fill="black" stroke="black" points="27.94,-544.66 31.45,-554.66 34.94,-544.66 27.94,-544.66"/>
</g>
<!-- Node15 -->
<g id="node32" class="node">
<title>Node15</title>
<g id="a_node32"><a xlink:href="group___fifty_one_degrees_headers.html" target="_top" xlink:title="Common form of evidence in 51Degrees engines.">
<polygon fill="none" stroke="black" points="179,-19 122,-19 122,0 179,0 179,-19"/>
<text text-anchor="middle" x="150.5" y="-7" font-family="Helvetica,sans-Serif" font-size="10.00">Headers</text>
</a>
</g>
</g>
<!-- Node0&#45;&gt;Node15 -->
<g id="edge15" class="edge">
<title>Node0&#45;&gt;Node15</title>
<path fill="none" stroke="black" d="M31.24,-544.7C30.5,-457.75 31.74,-110.44 97,-28.5 103.1,-20.84 112.56,-16.27 121.78,-13.54"/>
<polygon fill="black" stroke="black" points="27.74,-544.83 31.35,-554.79 34.74,-544.75 27.74,-544.83"/>
</g>
</g>
</svg>
