<?xml version="1.0" encoding="UTF-8" standalone="no"?>
<!DOCTYPE svg PUBLIC "-//W3C//DTD SVG 1.1//EN"
 "http://www.w3.org/Graphics/SVG/1.1/DTD/svg11.dtd">
<!-- Generated by graphviz version 2.43.0 (0)
 -->
<!-- Title: Device Detection Pages: 1 -->
<svg width="213pt" height="175pt"
 viewBox="0.00 0.00 213.00 175.00" xmlns="http://www.w3.org/2000/svg" xmlns:xlink="http://www.w3.org/1999/xlink">
<g id="graph0" class="graph" transform="scale(1 1) rotate(0) translate(4 171)">
<title>Device Detection</title>
<!-- Node5 -->
<g id="node1" class="node">
<title>Node5</title>
<g id="a_node1"><a xlink:href="group___fifty_one_degrees_device_detection_results.html" target="_top" xlink:title="Structure returned by a device detection engine&#39;s process method(s), containing values.">
<polygon fill="none" stroke="black" points="197.5,-167 144.5,-167 144.5,-148 197.5,-148 197.5,-167"/>
<text text-anchor="middle" x="171" y="-155" font-family="Helvetica,sans-Serif" font-size="10.00">Results</text>
</a>
</g>
</g>
<!-- Node0 -->
<g id="node2" class="node">
<title>Node0</title>
<g id="a_node2"><a xlink:title="Device detection specific methods, types and macros.">
<polygon fill="#bfbfbf" stroke="black" points="101,-93 0,-93 0,-74 101,-74 101,-93"/>
<text text-anchor="middle" x="50.5" y="-81" font-family="Helvetica,sans-Serif" font-size="10.00">Device Detection</text>
</a>
</g>
</g>
<!-- Node0&#45;&gt;Node5 -->
<g id="edge5" class="edge">
<title>Node0&#45;&gt;Node5</title>
<path fill="none" stroke="black" d="M74.19,-99.08C91.24,-110.61 115.29,-126.5 137,-139.5 141.7,-142.32 146.87,-145.22 151.7,-147.86"/>
<polygon fill="black" stroke="black" points="75.74,-95.9 65.5,-93.17 71.8,-101.69 75.74,-95.9"/>
</g>
<!-- Node4 -->
<g id="node3" class="node">
<title>Node4</title>
<g id="a_node3"><a xlink:href="group___fifty_one_degrees_device_detection_synonyms.html" target="_top" xlink:title="Quick shortenings of device detection specific methods and types.">
<polygon fill="none" stroke="black" points="205,-130 137,-130 137,-111 205,-111 205,-130"/>
<text text-anchor="middle" x="171" y="-118" font-family="Helvetica,sans-Serif" font-size="10.00">Synonyms</text>
</a>
</g>
</g>
<!-- Node0&#45;&gt;Node4 -->
<g id="edge4" class="edge">
<title>Node0&#45;&gt;Node4</title>
<path fill="none" stroke="black" d="M91.86,-96.1C107.34,-100.93 124.73,-106.37 139.17,-110.88"/>
<polygon fill="black" stroke="black" points="92.61,-92.67 82.02,-93.03 90.52,-99.35 92.61,-92.67"/>
</g>
<!-- Node3 -->
<g id="node4" class="node">
<title>Node3</title>
<g id="a_node4"><a xlink:href="group___fifty_one_degrees_data_set_device_detection.html" target="_top" xlink:title="A device detection specific data file initialised in a structure.">
<polygon fill="none" stroke="black" points="200.5,-93 141.5,-93 141.5,-74 200.5,-74 200.5,-93"/>
<text text-anchor="middle" x="171" y="-81" font-family="Helvetica,sans-Serif" font-size="10.00">Data Set</text>
</a>
</g>
</g>
<!-- Node0&#45;&gt;Node3 -->
<g id="edge3" class="edge">
<title>Node0&#45;&gt;Node3</title>
<path fill="none" stroke="black" d="M111.1,-83.5C121.61,-83.5 132.1,-83.5 141.26,-83.5"/>
<polygon fill="black" stroke="black" points="111.07,-80 101.07,-83.5 111.07,-87 111.07,-80"/>
</g>
<!-- Node2 -->
<g id="node5" class="node">
<title>Node2</title>
<g id="a_node5"><a xlink:href="group___fifty_one_degrees_config_device_detection.html" target="_top" xlink:title="Configuration for building device detection data sets.">
<polygon fill="none" stroke="black" points="194.5,-56 147.5,-56 147.5,-37 194.5,-37 194.5,-56"/>
<text text-anchor="middle" x="171" y="-44" font-family="Helvetica,sans-Serif" font-size="10.00">Config</text>
</a>
</g>
</g>
<!-- Node0&#45;&gt;Node2 -->
<g id="edge2" class="edge">
<title>Node0&#45;&gt;Node2</title>
<path fill="none" stroke="black" d="M91.73,-70.94C110.33,-65.13 131.73,-58.45 147.45,-53.54"/>
<polygon fill="black" stroke="black" points="90.52,-67.65 82.02,-73.97 92.61,-74.33 90.52,-67.65"/>
</g>
<!-- Node1 -->
<g id="node6" class="node">
<title>Node1</title>
<g id="a_node6"><a xlink:href="group___fifty_one_degrees_hash.html" target="_top" xlink:title="Hash specific methods, types and macros.">
<polygon fill="none" stroke="black" points="201,-19 141,-19 141,0 201,0 201,-19"/>
<text text-anchor="middle" x="171" y="-7" font-family="Helvetica,sans-Serif" font-size="10.00">Hash API</text>
</a>
</g>
</g>
<!-- Node0&#45;&gt;Node1 -->
<g id="edge1" class="edge">
<title>Node0&#45;&gt;Node1</title>
<path fill="none" stroke="black" d="M74.62,-68.19C91.71,-56.98 115.63,-41.51 137,-28.5 142.19,-25.34 147.92,-21.99 153.12,-19.01"/>
<polygon fill="black" stroke="black" points="72.31,-65.52 65.89,-73.94 76.16,-71.36 72.31,-65.52"/>
</g>
</g>
</svg>
