<?xml version="1.0" encoding="UTF-8" standalone="no"?>
<!DOCTYPE svg PUBLIC "-//W3C//DTD SVG 1.1//EN"
 "http://www.w3.org/Graphics/SVG/1.1/DTD/svg11.dtd">
<!-- Generated by graphviz version 2.43.0 (0)
 -->
<!-- Title: Hash API Pages: 1 -->
<svg width="309pt" height="101pt"
 viewBox="0.00 0.00 309.00 101.00" xmlns="http://www.w3.org/2000/svg" xmlns:xlink="http://www.w3.org/1999/xlink">
<g id="graph0" class="graph" transform="scale(1 1) rotate(0) translate(4 97)">
<title>Hash API</title>
<!-- Node3 -->
<g id="node1" class="node">
<title>Node3</title>
<g id="a_node1"><a xlink:href="group___fifty_one_degrees_graph.html" target="_top" xlink:title="Acyclic graph structures used in the Hash API.">
<polygon fill="none" stroke="black" points="290,-93 244,-93 244,-74 290,-74 290,-93"/>
<text text-anchor="middle" x="267" y="-81" font-family="Helvetica,sans-Serif" font-size="10.00">Graph</text>
</a>
</g>
</g>
<!-- Node4 -->
<g id="node2" class="node">
<title>Node4</title>
<g id="a_node2"><a xlink:href="group___fifty_one_degrees_hash_api.html" target="_top" xlink:title="All the functions specific to the Hash device detection API.">
<polygon fill="none" stroke="black" points="287.5,-56 246.5,-56 246.5,-37 287.5,-37 287.5,-56"/>
<text text-anchor="middle" x="267" y="-44" font-family="Helvetica,sans-Serif" font-size="10.00">Hash</text>
</a>
</g>
</g>
<!-- Node1 -->
<g id="node3" class="node">
<title>Node1</title>
<g id="a_node3"><a xlink:href="group___fifty_one_degrees_device_detection.html" target="_top" xlink:title="Device detection specific methods, types and macros.">
<polygon fill="none" stroke="black" points="101,-56 0,-56 0,-37 101,-37 101,-56"/>
<text text-anchor="middle" x="50.5" y="-44" font-family="Helvetica,sans-Serif" font-size="10.00">Device Detection</text>
</a>
</g>
</g>
<!-- Node0 -->
<g id="node5" class="node">
<title>Node0</title>
<g id="a_node5"><a xlink:title="Hash specific methods, types and macros.">
<polygon fill="#bfbfbf" stroke="black" points="197,-56 137,-56 137,-37 197,-37 197,-56"/>
<text text-anchor="middle" x="167" y="-44" font-family="Helvetica,sans-Serif" font-size="10.00">Hash API</text>
</a>
</g>
</g>
<!-- Node1&#45;&gt;Node0 -->
<g id="edge1" class="edge">
<title>Node1&#45;&gt;Node0</title>
<path fill="none" stroke="black" d="M111.13,-46.5C120.07,-46.5 128.92,-46.5 136.83,-46.5"/>
<polygon fill="black" stroke="black" points="111.06,-43 101.06,-46.5 111.06,-50 111.06,-43"/>
</g>
<!-- Node2 -->
<g id="node4" class="node">
<title>Node2</title>
<g id="a_node4"><a xlink:href="group___fifty_one_degrees_hash_synonyms.html" target="_top" xlink:title="Quick shortenings of Hash specific methods and types.">
<polygon fill="none" stroke="black" points="301,-19 233,-19 233,0 301,0 301,-19"/>
<text text-anchor="middle" x="267" y="-7" font-family="Helvetica,sans-Serif" font-size="10.00">Synonyms</text>
</a>
</g>
</g>
<!-- Node0&#45;&gt;Node3 -->
<g id="edge3" class="edge">
<title>Node0&#45;&gt;Node3</title>
<path fill="none" stroke="black" d="M202.83,-59.65C216.49,-64.81 231.75,-70.57 243.85,-75.14"/>
<polygon fill="black" stroke="black" points="203.83,-56.29 193.24,-56.03 201.36,-62.84 203.83,-56.29"/>
</g>
<!-- Node0&#45;&gt;Node4 -->
<g id="edge4" class="edge">
<title>Node0&#45;&gt;Node4</title>
<path fill="none" stroke="black" d="M207.18,-46.5C220.67,-46.5 235.19,-46.5 246.43,-46.5"/>
<polygon fill="black" stroke="black" points="207.14,-43 197.14,-46.5 207.14,-50 207.14,-43"/>
</g>
<!-- Node0&#45;&gt;Node2 -->
<g id="edge2" class="edge">
<title>Node0&#45;&gt;Node2</title>
<path fill="none" stroke="black" d="M202.85,-33.34C215.27,-28.65 229.02,-23.46 240.51,-19.12"/>
<polygon fill="black" stroke="black" points="201.36,-30.16 193.24,-36.97 203.83,-36.71 201.36,-30.16"/>
</g>
</g>
</svg>
