<?xml version="1.0" encoding="UTF-8" standalone="no"?>
<!DOCTYPE svg PUBLIC "-//W3C//DTD SVG 1.1//EN"
 "http://www.w3.org/Graphics/SVG/1.1/DTD/svg11.dtd">
<!-- Generated by graphviz version 2.43.0 (0)
 -->
<!-- Title: threadState Pages: 1 -->
<svg width="778pt" height="340pt"
 viewBox="0.00 0.00 777.50 340.00" xmlns="http://www.w3.org/2000/svg" xmlns:xlink="http://www.w3.org/1999/xlink">
<g id="graph0" class="graph" transform="scale(1 1) rotate(0) translate(4 336)">
<title>threadState</title>
<!-- Node1 -->
<g id="node1" class="node">
<title>Node1</title>
<g id="a_node1"><a xlink:title="State specific to a single thread.">
<polygon fill="#bfbfbf" stroke="black" points="369.5,-0.5 369.5,-19.5 443.5,-19.5 443.5,-0.5 369.5,-0.5"/>
<text text-anchor="middle" x="406.5" y="-7.5" font-family="Helvetica,sans-Serif" font-size="10.00">threadState</text>
</a>
</g>
</g>
<!-- Node2 -->
<g id="node2" class="node">
<title>Node2</title>
<g id="a_node2"><a xlink:href="structfiftyone_degrees_resource_manager.html" target="_top" xlink:title="Manager structure used to provide access to a shared and changing resource.">
<polygon fill="none" stroke="black" points="155.5,-151 155.5,-170 337.5,-170 337.5,-151 155.5,-151"/>
<text text-anchor="middle" x="246.5" y="-158" font-family="Helvetica,sans-Serif" font-size="10.00">fiftyoneDegreesResourceManager</text>
</a>
</g>
</g>
<!-- Node2&#45;&gt;Node1 -->
<g id="edge1" class="edge">
<title>Node2&#45;&gt;Node1</title>
<path fill="none" stroke="#9a32cd" stroke-dasharray="5,2" d="M266.05,-144.66C272.96,-139.25 280.69,-132.99 287.5,-127 330.83,-88.89 379.09,-39.53 398.13,-19.75"/>
<polygon fill="#9a32cd" stroke="#9a32cd" points="263.66,-142.09 257.89,-150.97 267.94,-147.63 263.66,-142.09"/>
<text text-anchor="middle" x="374" y="-74.5" font-family="Helvetica,sans-Serif" font-size="10.00"> manager</text>
</g>
<!-- Node3 -->
<g id="node3" class="node">
<title>Node3</title>
<g id="a_node3"><a xlink:href="structfiftyone_degrees_resource_handle.html" target="_top" xlink:title="Handle for a shared resource.">
<polygon fill="none" stroke="black" points="102,-67.5 102,-86.5 275,-86.5 275,-67.5 102,-67.5"/>
<text text-anchor="middle" x="188.5" y="-74.5" font-family="Helvetica,sans-Serif" font-size="10.00">fiftyoneDegreesResourceHandle</text>
</a>
</g>
</g>
<!-- Node2&#45;&gt;Node3 -->
<g id="edge3" class="edge">
<title>Node2&#45;&gt;Node3</title>
<path fill="none" stroke="#9a32cd" stroke-dasharray="5,2" d="M241.78,-141.01C238.29,-129.8 232.7,-115.67 224.5,-105 218.88,-97.69 210.79,-91.38 203.71,-86.71"/>
<polygon fill="#9a32cd" stroke="#9a32cd" points="238.42,-141.97 244.51,-150.64 245.15,-140.06 238.42,-141.97"/>
<text text-anchor="middle" x="260" y="-113.5" font-family="Helvetica,sans-Serif" font-size="10.00"> manager</text>
</g>
<!-- Node6 -->
<g id="node6" class="node">
<title>Node6</title>
<g id="a_node6"><a xlink:href="structperformance_state.html" target="_top" xlink:title="Single state containing everything needed for running and then reporting the performance tests.">
<polygon fill="none" stroke="black" points="455.5,-67.5 455.5,-86.5 559.5,-86.5 559.5,-67.5 455.5,-67.5"/>
<text text-anchor="middle" x="507.5" y="-74.5" font-family="Helvetica,sans-Serif" font-size="10.00">performanceState</text>
</a>
</g>
</g>
<!-- Node2&#45;&gt;Node6 -->
<g id="edge7" class="edge">
<title>Node2&#45;&gt;Node6</title>
<path fill="none" stroke="#9a32cd" stroke-dasharray="5,2" d="M275.05,-147.03C303.23,-135.07 347.74,-117.08 387.5,-105 411.92,-97.58 439.68,-91.2 462.36,-86.51"/>
<polygon fill="#9a32cd" stroke="#9a32cd" points="273.61,-143.84 265.8,-150.99 276.37,-150.27 273.61,-143.84"/>
<text text-anchor="middle" x="411" y="-113.5" font-family="Helvetica,sans-Serif" font-size="10.00"> manager</text>
</g>
<!-- Node3&#45;&gt;Node2 -->
<g id="edge2" class="edge">
<title>Node3&#45;&gt;Node2</title>
<path fill="none" stroke="#9a32cd" stroke-dasharray="5,2" d="M185.16,-96.87C184.43,-106.53 185.13,-118.09 190.5,-127 197.24,-138.16 209.37,-145.88 220.62,-150.99"/>
<polygon fill="#9a32cd" stroke="#9a32cd" points="188.67,-97.05 186.49,-86.68 181.73,-96.14 188.67,-97.05"/>
<text text-anchor="middle" x="207.5" y="-113.5" font-family="Helvetica,sans-Serif" font-size="10.00"> active</text>
</g>
<!-- Node4 -->
<g id="node4" class="node">
<title>Node4</title>
<g id="a_node4"><a xlink:href="structfiftyone_degrees_interlock_double_width.html" target="_top" xlink:title="Double width (64 or 128 depending on the architecture) compare and exchange.">
<polygon fill="none" stroke="black" points="0,-145.5 0,-175.5 137,-175.5 137,-145.5 0,-145.5"/>
<text text-anchor="start" x="8" y="-163.5" font-family="Helvetica,sans-Serif" font-size="10.00">fiftyoneDegreesInterlock</text>
<text text-anchor="middle" x="68.5" y="-152.5" font-family="Helvetica,sans-Serif" font-size="10.00">DoubleWidth</text>
</a>
</g>
</g>
<!-- Node4&#45;&gt;Node3 -->
<g id="edge4" class="edge">
<title>Node4&#45;&gt;Node3</title>
<path fill="none" stroke="#9a32cd" stroke-dasharray="5,2" d="M94.12,-139.19C107.88,-128.59 125.3,-115.65 141.5,-105 151.57,-98.39 163.32,-91.64 172.55,-86.54"/>
<polygon fill="#9a32cd" stroke="#9a32cd" points="91.82,-136.55 86.07,-145.45 96.11,-142.08 91.82,-136.55"/>
<text text-anchor="middle" x="161.5" y="-113.5" font-family="Helvetica,sans-Serif" font-size="10.00"> counter</text>
</g>
<!-- Node5 -->
<g id="node5" class="node">
<title>Node5</title>
<g id="a_node5"><a xlink:href="structbenchmark_result.html" target="_top" xlink:title="Result of benchmarking from a single thread.">
<polygon fill="none" stroke="black" points="355.5,-151 355.5,-170 457.5,-170 457.5,-151 355.5,-151"/>
<text text-anchor="middle" x="406.5" y="-158" font-family="Helvetica,sans-Serif" font-size="10.00">benchmarkResult</text>
</a>
</g>
</g>
<!-- Node5&#45;&gt;Node1 -->
<g id="edge5" class="edge">
<title>Node5&#45;&gt;Node1</title>
<path fill="none" stroke="#9a32cd" stroke-dasharray="5,2" d="M406.5,-140.24C406.5,-107.66 406.5,-42.92 406.5,-19.61"/>
<polygon fill="#9a32cd" stroke="#9a32cd" points="403,-140.66 406.5,-150.66 410,-140.66 403,-140.66"/>
<text text-anchor="middle" x="422" y="-74.5" font-family="Helvetica,sans-Serif" font-size="10.00"> result</text>
</g>
<!-- Node5&#45;&gt;Node6 -->
<g id="edge8" class="edge">
<title>Node5&#45;&gt;Node6</title>
<path fill="none" stroke="#9a32cd" stroke-dasharray="5,2" d="M421.3,-143.21C432.11,-131.8 447.45,-116.59 462.5,-105 471.45,-98.11 482.29,-91.56 491.09,-86.64"/>
<polygon fill="#9a32cd" stroke="#9a32cd" points="418.55,-141.03 414.3,-150.74 423.67,-145.8 418.55,-141.03"/>
<text text-anchor="middle" x="487" y="-113.5" font-family="Helvetica,sans-Serif" font-size="10.00"> resultList</text>
</g>
<!-- Node6&#45;&gt;Node1 -->
<g id="edge6" class="edge">
<title>Node6&#45;&gt;Node1</title>
<path fill="none" stroke="#9a32cd" stroke-dasharray="5,2" d="M485.39,-61.77C465.39,-48.9 436.61,-30.38 419.91,-19.63"/>
<polygon fill="#9a32cd" stroke="#9a32cd" points="483.58,-64.77 493.88,-67.23 487.36,-58.88 483.58,-64.77"/>
<text text-anchor="middle" x="490.5" y="-41" font-family="Helvetica,sans-Serif" font-size="10.00"> mainState</text>
</g>
<!-- Node7 -->
<g id="node7" class="node">
<title>Node7</title>
<g id="a_node7"><a xlink:href="structshared_string_node.html" target="_top" xlink:title=" ">
<polygon fill="none" stroke="black" points="475.5,-151 475.5,-170 579.5,-170 579.5,-151 475.5,-151"/>
<text text-anchor="middle" x="527.5" y="-158" font-family="Helvetica,sans-Serif" font-size="10.00">sharedStringNode</text>
</a>
</g>
</g>
<!-- Node7&#45;&gt;Node6 -->
<g id="edge9" class="edge">
<title>Node7&#45;&gt;Node6</title>
<path fill="none" stroke="#9a32cd" stroke-dasharray="5,2" d="M522.93,-140.86C518.75,-123.86 512.77,-99.49 509.62,-86.66"/>
<polygon fill="#9a32cd" stroke="#9a32cd" points="519.58,-141.9 525.36,-150.78 526.38,-140.23 519.58,-141.9"/>
<text text-anchor="middle" x="562" y="-119" font-family="Helvetica,sans-Serif" font-size="10.00"> sharedStringLast</text>
<text text-anchor="middle" x="562" y="-108" font-family="Helvetica,sans-Serif" font-size="10.00">sharedStringFirst</text>
</g>
<!-- Node7&#45;&gt;Node7 -->
<g id="edge10" class="edge">
<title>Node7&#45;&gt;Node7</title>
<path fill="none" stroke="#9a32cd" stroke-dasharray="5,2" d="M589.9,-165.83C594.61,-164.64 597.5,-162.87 597.5,-160.5 597.5,-156.71 590.09,-154.44 579.7,-153.67"/>
<polygon fill="#9a32cd" stroke="#9a32cd" points="589.09,-162.41 579.7,-167.33 590.11,-169.34 589.09,-162.41"/>
<text text-anchor="middle" x="610" y="-158" font-family="Helvetica,sans-Serif" font-size="10.00"> next</text>
</g>
<!-- Node8 -->
<g id="node8" class="node">
<title>Node8</title>
<g id="a_node8"><a xlink:href="structevidence_node.html" target="_top" xlink:title=" ">
<polygon fill="none" stroke="black" points="640.5,-151 640.5,-170 726.5,-170 726.5,-151 640.5,-151"/>
<text text-anchor="middle" x="683.5" y="-158" font-family="Helvetica,sans-Serif" font-size="10.00">evidenceNode</text>
</a>
</g>
</g>
<!-- Node8&#45;&gt;Node6 -->
<g id="edge11" class="edge">
<title>Node8&#45;&gt;Node6</title>
<path fill="none" stroke="#9a32cd" stroke-dasharray="5,2" d="M666.43,-144.25C651.94,-132.04 630.12,-115.31 608.5,-105 591.3,-96.8 571.21,-90.78 553.51,-86.54"/>
<polygon fill="#9a32cd" stroke="#9a32cd" points="664.2,-146.95 674.06,-150.84 668.78,-141.65 664.2,-146.95"/>
<text text-anchor="middle" x="676.5" y="-119" font-family="Helvetica,sans-Serif" font-size="10.00"> evidenceLast</text>
<text text-anchor="middle" x="676.5" y="-108" font-family="Helvetica,sans-Serif" font-size="10.00">evidenceFirst</text>
</g>
<!-- Node8&#45;&gt;Node8 -->
<g id="edge12" class="edge">
<title>Node8&#45;&gt;Node8</title>
<path fill="none" stroke="#9a32cd" stroke-dasharray="5,2" d="M736.75,-166.13C741.51,-164.95 744.5,-163.07 744.5,-160.5 744.5,-156.38 736.85,-154.05 726.54,-153.5"/>
<polygon fill="#9a32cd" stroke="#9a32cd" points="735.98,-162.7 726.54,-167.5 736.91,-169.64 735.98,-162.7"/>
<text text-anchor="middle" x="757" y="-158" font-family="Helvetica,sans-Serif" font-size="10.00"> next</text>
</g>
<!-- Node9 -->
<g id="node9" class="node">
<title>Node9</title>
<g id="a_node9"><a xlink:href="structfiftyone_degrees_evidence_key_value_pair_array.html" target="_top" xlink:title="Array of items of type fiftyoneDegreesEvidenceKeyValuePair used to easily access and track the size o...">
<polygon fill="none" stroke="black" points="605.5,-223.5 605.5,-253.5 761.5,-253.5 761.5,-223.5 605.5,-223.5"/>
<text text-anchor="start" x="613.5" y="-241.5" font-family="Helvetica,sans-Serif" font-size="10.00">fiftyoneDegreesEvidenceKey</text>
<text text-anchor="middle" x="683.5" y="-230.5" font-family="Helvetica,sans-Serif" font-size="10.00">ValuePairArray</text>
</a>
</g>
</g>
<!-- Node9&#45;&gt;Node8 -->
<g id="edge13" class="edge">
<title>Node9&#45;&gt;Node8</title>
<path fill="none" stroke="#9a32cd" stroke-dasharray="5,2" d="M683.5,-213.17C683.5,-198.4 683.5,-180.45 683.5,-170.06"/>
<polygon fill="#9a32cd" stroke="#9a32cd" points="680,-213.2 683.5,-223.2 687,-213.21 680,-213.2"/>
<text text-anchor="middle" x="698" y="-197" font-family="Helvetica,sans-Serif" font-size="10.00"> array</text>
</g>
<!-- Node10 -->
<g id="node10" class="node">
<title>Node10</title>
<g id="a_node10"><a xlink:href="structfiftyone_degrees_evidence_key_value_pair.html" target="_top" xlink:title="Evidence key value pair structure which combines the prefix, key and value.">
<polygon fill="none" stroke="black" points="605.5,-301.5 605.5,-331.5 761.5,-331.5 761.5,-301.5 605.5,-301.5"/>
<text text-anchor="start" x="613.5" y="-319.5" font-family="Helvetica,sans-Serif" font-size="10.00">fiftyoneDegreesEvidenceKey</text>
<text text-anchor="middle" x="683.5" y="-308.5" font-family="Helvetica,sans-Serif" font-size="10.00">ValuePair</text>
</a>
</g>
</g>
<!-- Node10&#45;&gt;Node9 -->
<g id="edge14" class="edge">
<title>Node10&#45;&gt;Node9</title>
<path fill="none" stroke="#9a32cd" stroke-dasharray="5,2" d="M683.5,-291.09C683.5,-278.76 683.5,-264.22 683.5,-253.73"/>
<polygon fill="#9a32cd" stroke="#9a32cd" points="680,-291.2 683.5,-301.2 687,-291.21 680,-291.2"/>
<text text-anchor="middle" x="699" y="-275" font-family="Helvetica,sans-Serif" font-size="10.00"> items</text>
</g>
</g>
</svg>
