<?xml version="1.0" encoding="UTF-8" standalone="no"?>
<!DOCTYPE svg PUBLIC "-//W3C//DTD SVG 1.1//EN"
 "http://www.w3.org/Graphics/SVG/1.1/DTD/svg11.dtd">
<!-- Generated by graphviz version 2.43.0 (0)
 -->
<!-- Title: fiftyoneDegreesPropertiesRequired Pages: 1 -->
<svg width="484pt" height="342pt"
 viewBox="0.00 0.00 484.00 342.00" xmlns="http://www.w3.org/2000/svg" xmlns:xlink="http://www.w3.org/1999/xlink">
<g id="graph0" class="graph" transform="scale(1 1) rotate(0) translate(4 338)">
<title>fiftyoneDegreesPropertiesRequired</title>
<!-- Node1 -->
<g id="node1" class="node">
<title>Node1</title>
<g id="a_node1"><a xlink:title="Defines a set of properties which are required by a caller.">
<polygon fill="#bfbfbf" stroke="black" points="46,-0.5 46,-30.5 189,-30.5 189,-0.5 46,-0.5"/>
<text text-anchor="start" x="54" y="-18.5" font-family="Helvetica,sans-Serif" font-size="10.00">fiftyoneDegreesProperties</text>
<text text-anchor="middle" x="117.5" y="-7.5" font-family="Helvetica,sans-Serif" font-size="10.00">Required</text>
</a>
</g>
</g>
<!-- Node2 -->
<g id="node2" class="node">
<title>Node2</title>
<g id="a_node2"><a xlink:href="structfiftyone_degrees_property_available_array.html" target="_top" xlink:title="Array of items of type fiftyoneDegreesPropertyAvailable used to easily access and track the size of t...">
<polygon fill="none" stroke="black" points="27.5,-78.5 27.5,-108.5 207.5,-108.5 207.5,-78.5 27.5,-78.5"/>
<text text-anchor="start" x="35.5" y="-96.5" font-family="Helvetica,sans-Serif" font-size="10.00">fiftyoneDegreesPropertyAvailable</text>
<text text-anchor="middle" x="117.5" y="-85.5" font-family="Helvetica,sans-Serif" font-size="10.00">Array</text>
</a>
</g>
</g>
<!-- Node2&#45;&gt;Node1 -->
<g id="edge1" class="edge">
<title>Node2&#45;&gt;Node1</title>
<path fill="none" stroke="#9a32cd" stroke-dasharray="5,2" d="M117.5,-68.09C117.5,-55.76 117.5,-41.22 117.5,-30.73"/>
<polygon fill="#9a32cd" stroke="#9a32cd" points="114,-68.2 117.5,-78.2 121,-68.21 114,-68.2"/>
<text text-anchor="middle" x="139" y="-52" font-family="Helvetica,sans-Serif" font-size="10.00"> existing</text>
</g>
<!-- Node3 -->
<g id="node3" class="node">
<title>Node3</title>
<g id="a_node3"><a xlink:href="structfiftyone_degrees_property_available.html" target="_top" xlink:title="Used to access the property item quickly without the need to search.">
<polygon fill="none" stroke="black" points="27.5,-163 27.5,-182 207.5,-182 207.5,-163 27.5,-163"/>
<text text-anchor="middle" x="117.5" y="-170" font-family="Helvetica,sans-Serif" font-size="10.00">fiftyoneDegreesPropertyAvailable</text>
</a>
</g>
</g>
<!-- Node3&#45;&gt;Node2 -->
<g id="edge2" class="edge">
<title>Node3&#45;&gt;Node2</title>
<path fill="none" stroke="#9a32cd" stroke-dasharray="5,2" d="M117.5,-152.8C117.5,-139.16 117.5,-120.96 117.5,-108.54"/>
<polygon fill="#9a32cd" stroke="#9a32cd" points="114,-152.97 117.5,-162.97 121,-152.97 114,-152.97"/>
<text text-anchor="middle" x="133" y="-130" font-family="Helvetica,sans-Serif" font-size="10.00"> items</text>
</g>
<!-- Node4 -->
<g id="node4" class="node">
<title>Node4</title>
<g id="a_node4"><a xlink:href="structfiftyone_degrees_evidence_property_index_array.html" target="_top" xlink:title="Array of items of type fiftyoneDegreesEvidencePropertyIndex used to easily access and track the size ...">
<polygon fill="none" stroke="black" points="0,-236.5 0,-266.5 179,-266.5 179,-236.5 0,-236.5"/>
<text text-anchor="start" x="8" y="-254.5" font-family="Helvetica,sans-Serif" font-size="10.00">fiftyoneDegreesEvidenceProperty</text>
<text text-anchor="middle" x="89.5" y="-243.5" font-family="Helvetica,sans-Serif" font-size="10.00">IndexArray</text>
</a>
</g>
</g>
<!-- Node4&#45;&gt;Node3 -->
<g id="edge3" class="edge">
<title>Node4&#45;&gt;Node3</title>
<path fill="none" stroke="#9a32cd" stroke-dasharray="5,2" d="M93.11,-226.32C94.44,-219.92 96.2,-213.1 98.5,-207 101.84,-198.11 107.32,-188.78 111.54,-182.23"/>
<polygon fill="#9a32cd" stroke="#9a32cd" points="89.61,-226.01 91.27,-236.48 96.5,-227.26 89.61,-226.01"/>
<text text-anchor="middle" x="147" y="-210" font-family="Helvetica,sans-Serif" font-size="10.00"> evidenceProperties</text>
</g>
<!-- Node5 -->
<g id="node5" class="node">
<title>Node5</title>
<g id="a_node5"><a xlink:href="structfiftyone_degrees_collection_item.html" target="_top" xlink:title="Used to store a handle to the underlying item that could be used to release the item when it&#39;s finish...">
<polygon fill="none" stroke="black" points="197,-242 197,-261 362,-261 362,-242 197,-242"/>
<text text-anchor="middle" x="279.5" y="-249" font-family="Helvetica,sans-Serif" font-size="10.00">fiftyoneDegreesCollectionItem</text>
</a>
</g>
</g>
<!-- Node5&#45;&gt;Node3 -->
<g id="edge4" class="edge">
<title>Node5&#45;&gt;Node3</title>
<path fill="none" stroke="#9a32cd" stroke-dasharray="5,2" d="M254.84,-237.13C238.22,-228.27 215.73,-216.57 195.5,-207 176.45,-197.99 154.34,-188.59 138.54,-182.05"/>
<polygon fill="#9a32cd" stroke="#9a32cd" points="253.41,-240.34 263.88,-241.98 256.72,-234.17 253.41,-240.34"/>
<text text-anchor="middle" x="232" y="-210" font-family="Helvetica,sans-Serif" font-size="10.00"> name</text>
</g>
<!-- Node6 -->
<g id="node6" class="node">
<title>Node6</title>
<g id="a_node6"><a xlink:href="structfiftyone_degrees_collection.html" target="_top" xlink:title="All the shared methods and fields required by file, memory and cached collections.">
<polygon fill="none" stroke="black" points="246,-163 246,-182 389,-182 389,-163 246,-163"/>
<text text-anchor="middle" x="317.5" y="-170" font-family="Helvetica,sans-Serif" font-size="10.00">fiftyoneDegreesCollection</text>
</a>
</g>
</g>
<!-- Node5&#45;&gt;Node6 -->
<g id="edge6" class="edge">
<title>Node5&#45;&gt;Node6</title>
<path fill="none" stroke="#9a32cd" stroke-dasharray="5,2" d="M271.74,-232.1C269.52,-224.05 268.63,-214.7 272.5,-207 278.01,-196.03 288.99,-187.75 298.73,-182.16"/>
<polygon fill="#9a32cd" stroke="#9a32cd" points="268.49,-233.42 275.11,-241.69 275.09,-231.1 268.49,-233.42"/>
<text text-anchor="middle" x="292.5" y="-210" font-family="Helvetica,sans-Serif" font-size="10.00"> release</text>
</g>
<!-- Node6&#45;&gt;Node5 -->
<g id="edge5" class="edge">
<title>Node6&#45;&gt;Node5</title>
<path fill="none" stroke="#9a32cd" stroke-dasharray="5,2" d="M320.37,-192.29C320.81,-200.53 320.18,-210.1 316.5,-218 311.8,-228.07 302.34,-236.3 294.15,-241.95"/>
<polygon fill="#9a32cd" stroke="#9a32cd" points="323.83,-191.73 319.28,-182.16 316.87,-192.48 323.83,-191.73"/>
<text text-anchor="middle" x="345" y="-210" font-family="Helvetica,sans-Serif" font-size="10.00"> collection</text>
</g>
<!-- Node6&#45;&gt;Node6 -->
<g id="edge7" class="edge">
<title>Node6&#45;&gt;Node6</title>
<path fill="none" stroke="#9a32cd" stroke-dasharray="5,2" d="M399.11,-177.69C404.04,-176.46 407,-174.73 407,-172.5 407,-169.02 399.79,-166.76 389.13,-165.7"/>
<polygon fill="#9a32cd" stroke="#9a32cd" points="398.44,-174.26 389.13,-179.3 399.56,-181.17 398.44,-174.26"/>
<text text-anchor="middle" x="441.5" y="-181" font-family="Helvetica,sans-Serif" font-size="10.00"> next</text>
<text text-anchor="middle" x="441.5" y="-170" font-family="Helvetica,sans-Serif" font-size="10.00">freeCollection</text>
<text text-anchor="middle" x="441.5" y="-159" font-family="Helvetica,sans-Serif" font-size="10.00">get</text>
</g>
<!-- Node7 -->
<g id="node7" class="node">
<title>Node7</title>
<g id="a_node7"><a xlink:href="structfiftyone_degrees_data.html" target="_top" xlink:title="Data structure used for reusing memory which may have been allocated in a previous operation.">
<polygon fill="none" stroke="black" points="221,-314.5 221,-333.5 338,-333.5 338,-314.5 221,-314.5"/>
<text text-anchor="middle" x="279.5" y="-321.5" font-family="Helvetica,sans-Serif" font-size="10.00">fiftyoneDegreesData</text>
</a>
</g>
</g>
<!-- Node7&#45;&gt;Node5 -->
<g id="edge8" class="edge">
<title>Node7&#45;&gt;Node5</title>
<path fill="none" stroke="#9a32cd" stroke-dasharray="5,2" d="M279.5,-303.94C279.5,-290.03 279.5,-271.82 279.5,-261.22"/>
<polygon fill="#9a32cd" stroke="#9a32cd" points="276,-304.36 279.5,-314.36 283,-304.36 276,-304.36"/>
<text text-anchor="middle" x="292" y="-288" font-family="Helvetica,sans-Serif" font-size="10.00"> data</text>
</g>
</g>
</svg>
