<?xml version="1.0" encoding="UTF-8" standalone="no"?>
<!DOCTYPE svg PUBLIC "-//W3C//DTD SVG 1.1//EN"
 "http://www.w3.org/Graphics/SVG/1.1/DTD/svg11.dtd">
<!-- Generated by graphviz version 2.43.0 (0)
 -->
<!-- Title: performanceState Pages: 1 -->
<svg width="615pt" height="173pt"
 viewBox="0.00 0.00 615.00 173.00" xmlns="http://www.w3.org/2000/svg" xmlns:xlink="http://www.w3.org/1999/xlink">
<g id="graph0" class="graph" transform="scale(1 1) rotate(0) translate(4 169)">
<title>performanceState</title>
<!-- Node1 -->
<g id="node1" class="node">
<title>Node1</title>
<g id="a_node1"><a xlink:title="Single state containing everything needed for running and then reporting the performance tests.">
<polygon fill="#bfbfbf" stroke="black" points="354.5,-0.5 354.5,-19.5 458.5,-19.5 458.5,-0.5 354.5,-0.5"/>
<text text-anchor="middle" x="406.5" y="-7.5" font-family="Helvetica,sans-Serif" font-size="10.00">performanceState</text>
</a>
</g>
</g>
<!-- Node2 -->
<g id="node2" class="node">
<title>Node2</title>
<g id="a_node2"><a xlink:href="structfiftyone_degrees_resource_manager.html" target="_top" xlink:title="Manager structure used to provide access to a shared and changing resource.">
<polygon fill="none" stroke="black" points="155.5,-73 155.5,-92 337.5,-92 337.5,-73 155.5,-73"/>
<text text-anchor="middle" x="246.5" y="-80" font-family="Helvetica,sans-Serif" font-size="10.00">fiftyoneDegreesResourceManager</text>
</a>
</g>
</g>
<!-- Node2&#45;&gt;Node1 -->
<g id="edge1" class="edge">
<title>Node2&#45;&gt;Node1</title>
<path fill="none" stroke="#9a32cd" stroke-dasharray="5,2" d="M275.17,-68.87C307.51,-54.62 359.22,-31.83 387.13,-19.53"/>
<polygon fill="#9a32cd" stroke="#9a32cd" points="273.54,-65.76 265.8,-73 276.36,-72.17 273.54,-65.76"/>
<text text-anchor="middle" x="365" y="-41" font-family="Helvetica,sans-Serif" font-size="10.00"> manager</text>
</g>
<!-- Node3 -->
<g id="node3" class="node">
<title>Node3</title>
<g id="a_node3"><a xlink:href="structfiftyone_degrees_resource_handle.html" target="_top" xlink:title="Handle for a shared resource.">
<polygon fill="none" stroke="black" points="103,-0.5 103,-19.5 276,-19.5 276,-0.5 103,-0.5"/>
<text text-anchor="middle" x="189.5" y="-7.5" font-family="Helvetica,sans-Serif" font-size="10.00">fiftyoneDegreesResourceHandle</text>
</a>
</g>
</g>
<!-- Node2&#45;&gt;Node3 -->
<g id="edge3" class="edge">
<title>Node2&#45;&gt;Node3</title>
<path fill="none" stroke="#9a32cd" stroke-dasharray="5,2" d="M239.5,-63.34C235.8,-55.09 230.72,-45.52 224.5,-38 218.53,-30.78 210.3,-24.31 203.33,-19.52"/>
<polygon fill="#9a32cd" stroke="#9a32cd" points="236.38,-64.94 243.45,-72.83 242.84,-62.25 236.38,-64.94"/>
<text text-anchor="middle" x="256" y="-41" font-family="Helvetica,sans-Serif" font-size="10.00"> manager</text>
</g>
<!-- Node3&#45;&gt;Node2 -->
<g id="edge2" class="edge">
<title>Node3&#45;&gt;Node2</title>
<path fill="none" stroke="#9a32cd" stroke-dasharray="5,2" d="M186.42,-29.58C186.22,-36.11 187.09,-43.26 190.5,-49 197.1,-60.12 209.07,-67.8 220.25,-72.9"/>
<polygon fill="#9a32cd" stroke="#9a32cd" points="189.91,-29.81 187.49,-19.5 182.95,-29.07 189.91,-29.81"/>
<text text-anchor="middle" x="207.5" y="-41" font-family="Helvetica,sans-Serif" font-size="10.00"> active</text>
</g>
<!-- Node4 -->
<g id="node4" class="node">
<title>Node4</title>
<g id="a_node4"><a xlink:href="structfiftyone_degrees_interlock_double_width.html" target="_top" xlink:title="Double width (64 or 128 depending on the architecture) compare and exchange.">
<polygon fill="none" stroke="black" points="0,-67.5 0,-97.5 137,-97.5 137,-67.5 0,-67.5"/>
<text text-anchor="start" x="8" y="-85.5" font-family="Helvetica,sans-Serif" font-size="10.00">fiftyoneDegreesInterlock</text>
<text text-anchor="middle" x="68.5" y="-74.5" font-family="Helvetica,sans-Serif" font-size="10.00">DoubleWidth</text>
</a>
</g>
</g>
<!-- Node4&#45;&gt;Node3 -->
<g id="edge4" class="edge">
<title>Node4&#45;&gt;Node3</title>
<path fill="none" stroke="#9a32cd" stroke-dasharray="5,2" d="M101.48,-62.28C125.46,-48.31 156.77,-30.07 174.85,-19.53"/>
<polygon fill="#9a32cd" stroke="#9a32cd" points="99.57,-59.34 92.7,-67.4 103.1,-65.39 99.57,-59.34"/>
<text text-anchor="middle" x="160.5" y="-41" font-family="Helvetica,sans-Serif" font-size="10.00"> counter</text>
</g>
<!-- Node5 -->
<g id="node5" class="node">
<title>Node5</title>
<g id="a_node5"><a xlink:href="structbenchmark_result.html" target="_top" xlink:title="Result of benchmarking from a single thread.">
<polygon fill="none" stroke="black" points="355.5,-73 355.5,-92 457.5,-92 457.5,-73 355.5,-73"/>
<text text-anchor="middle" x="406.5" y="-80" font-family="Helvetica,sans-Serif" font-size="10.00">benchmarkResult</text>
</a>
</g>
</g>
<!-- Node5&#45;&gt;Node1 -->
<g id="edge5" class="edge">
<title>Node5&#45;&gt;Node1</title>
<path fill="none" stroke="#9a32cd" stroke-dasharray="5,2" d="M406.5,-62.44C406.5,-48.53 406.5,-30.32 406.5,-19.72"/>
<polygon fill="#9a32cd" stroke="#9a32cd" points="403,-62.86 406.5,-72.86 410,-62.86 403,-62.86"/>
<text text-anchor="middle" x="431" y="-41" font-family="Helvetica,sans-Serif" font-size="10.00"> resultList</text>
</g>
<!-- Node6 -->
<g id="node6" class="node">
<title>Node6</title>
<g id="a_node6"><a xlink:href="structkey_value_pair_array.html" target="_top" xlink:title="Contains one or more piece of evidence.">
<polygon fill="none" stroke="black" points="476,-73 476,-92 581,-92 581,-73 476,-73"/>
<text text-anchor="middle" x="528.5" y="-80" font-family="Helvetica,sans-Serif" font-size="10.00">keyValuePairArray</text>
</a>
</g>
</g>
<!-- Node6&#45;&gt;Node1 -->
<g id="edge6" class="edge">
<title>Node6&#45;&gt;Node1</title>
<path fill="none" stroke="#9a32cd" stroke-dasharray="5,2" d="M507.19,-67.36C493.71,-58.59 475.8,-47.27 459.5,-38 448.01,-31.47 434.76,-24.72 424.38,-19.6"/>
<polygon fill="#9a32cd" stroke="#9a32cd" points="505.46,-70.41 515.74,-72.96 509.3,-64.56 505.46,-70.41"/>
<text text-anchor="middle" x="500.5" y="-41" font-family="Helvetica,sans-Serif" font-size="10.00"> evidence</text>
</g>
<!-- Node7 -->
<g id="node7" class="node">
<title>Node7</title>
<g id="a_node7"><a xlink:href="structfiftyone_degrees_key_value_pair.html" target="_top" xlink:title=" ">
<polygon fill="none" stroke="black" points="450,-145.5 450,-164.5 607,-164.5 607,-145.5 450,-145.5"/>
<text text-anchor="middle" x="528.5" y="-152.5" font-family="Helvetica,sans-Serif" font-size="10.00">fiftyoneDegreesKeyValuePair</text>
</a>
</g>
</g>
<!-- Node7&#45;&gt;Node6 -->
<g id="edge7" class="edge">
<title>Node7&#45;&gt;Node6</title>
<path fill="none" stroke="#9a32cd" stroke-dasharray="5,2" d="M528.5,-134.94C528.5,-121.03 528.5,-102.82 528.5,-92.22"/>
<polygon fill="#9a32cd" stroke="#9a32cd" points="525,-135.36 528.5,-145.36 532,-135.36 525,-135.36"/>
<text text-anchor="middle" x="542.5" y="-119" font-family="Helvetica,sans-Serif" font-size="10.00"> pairs</text>
</g>
</g>
</svg>
