<?xml version="1.0" encoding="UTF-8" standalone="no"?>
<!DOCTYPE svg PUBLIC "-//W3C//DTD SVG 1.1//EN"
 "http://www.w3.org/Graphics/SVG/1.1/DTD/svg11.dtd">
<!-- Generated by graphviz version 2.43.0 (0)
 -->
<!-- Title: fiftyoneDegreesList Pages: 1 -->
<svg width="367pt" height="175pt"
 viewBox="0.00 0.00 367.00 175.00" xmlns="http://www.w3.org/2000/svg" xmlns:xlink="http://www.w3.org/1999/xlink">
<g id="graph0" class="graph" transform="scale(1 1) rotate(0) translate(4 171)">
<title>fiftyoneDegreesList</title>
<!-- Node1 -->
<g id="node1" class="node">
<title>Node1</title>
<g id="a_node1"><a xlink:title="List structure which contains a list of collection items.">
<polygon fill="#bfbfbf" stroke="black" points="0,-7 0,-26 111,-26 111,-7 0,-7"/>
<text text-anchor="middle" x="55.5" y="-14" font-family="Helvetica,sans-Serif" font-size="10.00">fiftyoneDegreesList</text>
</a>
</g>
</g>
<!-- Node2 -->
<g id="node2" class="node">
<title>Node2</title>
<g id="a_node2"><a xlink:href="structfiftyone_degrees_collection_item.html" target="_top" xlink:title="Used to store a handle to the underlying item that could be used to release the item when it&#39;s finish...">
<polygon fill="none" stroke="black" points="55,-80.5 55,-99.5 220,-99.5 220,-80.5 55,-80.5"/>
<text text-anchor="middle" x="137.5" y="-87.5" font-family="Helvetica,sans-Serif" font-size="10.00">fiftyoneDegreesCollectionItem</text>
</a>
</g>
</g>
<!-- Node2&#45;&gt;Node1 -->
<g id="edge1" class="edge">
<title>Node2&#45;&gt;Node1</title>
<path fill="none" stroke="#9a32cd" stroke-dasharray="5,2" d="M113.67,-74.72C107.85,-70.85 101.79,-66.49 96.5,-62 83.37,-50.84 70.24,-35.72 62.49,-26.29"/>
<polygon fill="#9a32cd" stroke="#9a32cd" points="112.15,-77.9 122.46,-80.33 115.91,-72 112.15,-77.9"/>
<text text-anchor="middle" x="112" y="-54" font-family="Helvetica,sans-Serif" font-size="10.00"> items</text>
</g>
<!-- Node3 -->
<g id="node3" class="node">
<title>Node3</title>
<g id="a_node3"><a xlink:href="structfiftyone_degrees_collection.html" target="_top" xlink:title="All the shared methods and fields required by file, memory and cached collections.">
<polygon fill="none" stroke="black" points="129,-7 129,-26 272,-26 272,-7 129,-7"/>
<text text-anchor="middle" x="200.5" y="-14" font-family="Helvetica,sans-Serif" font-size="10.00">fiftyoneDegreesCollection</text>
</a>
</g>
</g>
<!-- Node2&#45;&gt;Node3 -->
<g id="edge3" class="edge">
<title>Node2&#45;&gt;Node3</title>
<path fill="none" stroke="#9a32cd" stroke-dasharray="5,2" d="M131.69,-70.38C130.73,-63.84 131,-56.71 134.5,-51 141.89,-38.95 155.12,-31.07 167.8,-26.01"/>
<polygon fill="#9a32cd" stroke="#9a32cd" points="128.38,-71.57 134.11,-80.47 135.18,-69.93 128.38,-71.57"/>
<text text-anchor="middle" x="154.5" y="-54" font-family="Helvetica,sans-Serif" font-size="10.00"> release</text>
</g>
<!-- Node3&#45;&gt;Node2 -->
<g id="edge2" class="edge">
<title>Node3&#45;&gt;Node2</title>
<path fill="none" stroke="#9a32cd" stroke-dasharray="5,2" d="M194.09,-35.71C190.44,-44.33 185.24,-54.38 178.5,-62 171.84,-69.54 162.61,-75.86 154.59,-80.49"/>
<polygon fill="#9a32cd" stroke="#9a32cd" points="197.44,-36.75 197.77,-26.16 190.9,-34.23 197.44,-36.75"/>
<text text-anchor="middle" x="211" y="-54" font-family="Helvetica,sans-Serif" font-size="10.00"> collection</text>
</g>
<!-- Node3&#45;&gt;Node3 -->
<g id="edge4" class="edge">
<title>Node3&#45;&gt;Node3</title>
<path fill="none" stroke="#9a32cd" stroke-dasharray="5,2" d="M282.11,-21.69C287.04,-20.46 290,-18.73 290,-16.5 290,-13.02 282.79,-10.76 272.13,-9.7"/>
<polygon fill="#9a32cd" stroke="#9a32cd" points="281.44,-18.26 272.13,-23.3 282.56,-25.17 281.44,-18.26"/>
<text text-anchor="middle" x="324.5" y="-25" font-family="Helvetica,sans-Serif" font-size="10.00"> next</text>
<text text-anchor="middle" x="324.5" y="-14" font-family="Helvetica,sans-Serif" font-size="10.00">freeCollection</text>
<text text-anchor="middle" x="324.5" y="-3" font-family="Helvetica,sans-Serif" font-size="10.00">get</text>
</g>
<!-- Node4 -->
<g id="node4" class="node">
<title>Node4</title>
<g id="a_node4"><a xlink:href="structfiftyone_degrees_data.html" target="_top" xlink:title="Data structure used for reusing memory which may have been allocated in a previous operation.">
<polygon fill="none" stroke="black" points="79,-147.5 79,-166.5 196,-166.5 196,-147.5 79,-147.5"/>
<text text-anchor="middle" x="137.5" y="-154.5" font-family="Helvetica,sans-Serif" font-size="10.00">fiftyoneDegreesData</text>
</a>
</g>
</g>
<!-- Node4&#45;&gt;Node2 -->
<g id="edge5" class="edge">
<title>Node4&#45;&gt;Node2</title>
<path fill="none" stroke="#9a32cd" stroke-dasharray="5,2" d="M137.5,-137.04C137.5,-124.67 137.5,-109.12 137.5,-99.63"/>
<polygon fill="#9a32cd" stroke="#9a32cd" points="134,-137.23 137.5,-147.23 141,-137.23 134,-137.23"/>
<text text-anchor="middle" x="150" y="-121" font-family="Helvetica,sans-Serif" font-size="10.00"> data</text>
</g>
</g>
</svg>
