<?xml version="1.0" encoding="UTF-8" standalone="no"?>
<!DOCTYPE svg PUBLIC "-//W3C//DTD SVG 1.1//EN"
 "http://www.w3.org/Graphics/SVG/1.1/DTD/svg11.dtd">
<!-- Generated by graphviz version 2.43.0 (0)
 -->
<!-- Title: fiftyoneDegreesCacheShard Pages: 1 -->
<svg width="432pt" height="344pt"
 viewBox="0.00 0.00 431.50 344.00" xmlns="http://www.w3.org/2000/svg" xmlns:xlink="http://www.w3.org/1999/xlink">
<g id="graph0" class="graph" transform="scale(1 1) rotate(0) translate(4 340)">
<title>fiftyoneDegreesCacheShard</title>
<!-- Node1 -->
<g id="node1" class="node">
<title>Node1</title>
<g id="a_node1"><a xlink:title="Cache shard structure used to enable concurrent access to the cache.">
<polygon fill="#bfbfbf" stroke="black" points="188.5,-158.5 188.5,-177.5 340.5,-177.5 340.5,-158.5 188.5,-158.5"/>
<text text-anchor="middle" x="264.5" y="-165.5" font-family="Helvetica,sans-Serif" font-size="10.00">fiftyoneDegreesCacheShard</text>
</a>
</g>
</g>
<!-- Node2 -->
<g id="node2" class="node">
<title>Node2</title>
<g id="a_node2"><a xlink:href="structfiftyone_degrees_cache_node.html" target="_top" xlink:title="Cache node structure used for storing data in the cache along with its key.">
<polygon fill="none" stroke="black" points="86,-68.5 86,-87.5 235,-87.5 235,-68.5 86,-68.5"/>
<text text-anchor="middle" x="160.5" y="-75.5" font-family="Helvetica,sans-Serif" font-size="10.00">fiftyoneDegreesCacheNode</text>
</a>
</g>
</g>
<!-- Node1&#45;&gt;Node2 -->
<g id="edge7" class="edge">
<title>Node1&#45;&gt;Node2</title>
<path fill="none" stroke="#9a32cd" stroke-dasharray="5,2" d="M223.04,-154.67C214.35,-150.87 205.66,-146.04 198.5,-140 189.44,-132.35 172.9,-102.46 164.97,-87.55"/>
<polygon fill="#9a32cd" stroke="#9a32cd" points="221.81,-157.95 232.4,-158.41 224.41,-151.45 221.81,-157.95"/>
<text text-anchor="middle" x="214" y="-121" font-family="Helvetica,sans-Serif" font-size="10.00"> shard</text>
</g>
<!-- Node6 -->
<g id="node6" class="node">
<title>Node6</title>
<g id="a_node6"><a xlink:href="structfiftyone_degrees_cache.html" target="_top" xlink:title="Cache structure to store the root of the red black tree and a list of allocated cache nodes.">
<polygon fill="none" stroke="black" points="240.5,-0.5 240.5,-19.5 364.5,-19.5 364.5,-0.5 240.5,-0.5"/>
<text text-anchor="middle" x="302.5" y="-7.5" font-family="Helvetica,sans-Serif" font-size="10.00">fiftyoneDegreesCache</text>
</a>
</g>
</g>
<!-- Node1&#45;&gt;Node6 -->
<g id="edge12" class="edge">
<title>Node1&#45;&gt;Node6</title>
<path fill="none" stroke="#9a32cd" stroke-dasharray="5,2" d="M282.05,-151.01C296.52,-136.49 315.86,-113.63 323.5,-89 331.23,-64.09 316.64,-34.2 308.08,-19.72"/>
<polygon fill="#9a32cd" stroke="#9a32cd" points="279.39,-148.72 274.62,-158.18 284.25,-153.75 279.39,-148.72"/>
<text text-anchor="middle" x="343.5" y="-75.5" font-family="Helvetica,sans-Serif" font-size="10.00"> shards</text>
</g>
<!-- Node2&#45;&gt;Node1 -->
<g id="edge1" class="edge">
<title>Node2&#45;&gt;Node1</title>
<path fill="none" stroke="#9a32cd" stroke-dasharray="5,2" d="M207.28,-91.14C216.7,-95.1 225.99,-100.28 233.5,-107 249.4,-121.23 258.36,-145.55 262.21,-158.43"/>
<polygon fill="#9a32cd" stroke="#9a32cd" points="208.48,-87.85 197.89,-87.56 206,-94.39 208.48,-87.85"/>
<text text-anchor="middle" x="269.5" y="-132" font-family="Helvetica,sans-Serif" font-size="10.00"> last</text>
<text text-anchor="middle" x="269.5" y="-121" font-family="Helvetica,sans-Serif" font-size="10.00">first</text>
<text text-anchor="middle" x="269.5" y="-110" font-family="Helvetica,sans-Serif" font-size="10.00">nodes</text>
</g>
<!-- Node2&#45;&gt;Node2 -->
<g id="edge2" class="edge">
<title>Node2&#45;&gt;Node2</title>
<path fill="none" stroke="#9a32cd" stroke-dasharray="5,2" d="M245.19,-82.34C250.08,-81.3 253,-79.85 253,-78 253,-75.11 245.88,-73.2 235.26,-72.28"/>
<polygon fill="#9a32cd" stroke="#9a32cd" points="244.69,-78.88 235.26,-83.72 245.65,-85.81 244.69,-78.88"/>
<text text-anchor="middle" x="283.5" y="-81" font-family="Helvetica,sans-Serif" font-size="10.00"> listPrevious</text>
<text text-anchor="middle" x="283.5" y="-70" font-family="Helvetica,sans-Serif" font-size="10.00">listNext</text>
</g>
<!-- Node2&#45;&gt;Node6 -->
<g id="edge11" class="edge">
<title>Node2&#45;&gt;Node6</title>
<path fill="none" stroke="#9a32cd" stroke-dasharray="5,2" d="M188.4,-64.03C216.66,-50.9 259.59,-30.95 283.93,-19.63"/>
<polygon fill="#9a32cd" stroke="#9a32cd" points="186.66,-60.98 179.06,-68.37 189.61,-67.33 186.66,-60.98"/>
<text text-anchor="middle" x="260" y="-41" font-family="Helvetica,sans-Serif" font-size="10.00"> nodes</text>
</g>
<!-- Node3 -->
<g id="node3" class="node">
<title>Node3</title>
<g id="a_node3"><a xlink:href="structfiftyone_degrees_tree_node.html" target="_top" xlink:title="Node structure defining a single node in the tree.">
<polygon fill="none" stroke="black" points="135.5,-310 135.5,-329 275.5,-329 275.5,-310 135.5,-310"/>
<text text-anchor="middle" x="205.5" y="-317" font-family="Helvetica,sans-Serif" font-size="10.00">fiftyoneDegreesTreeNode</text>
</a>
</g>
</g>
<!-- Node3&#45;&gt;Node2 -->
<g id="edge3" class="edge">
<title>Node3&#45;&gt;Node2</title>
<path fill="none" stroke="#9a32cd" stroke-dasharray="5,2" d="M198.6,-300.02C196.86,-295.16 195.05,-289.9 193.5,-285 187.94,-267.42 186.16,-263.07 182.5,-245 170.43,-185.45 163.4,-112.49 161.23,-87.71"/>
<polygon fill="#9a32cd" stroke="#9a32cd" points="195.43,-301.56 202.16,-309.75 202.01,-299.15 195.43,-301.56"/>
<text text-anchor="middle" x="188" y="-199" font-family="Helvetica,sans-Serif" font-size="10.00"> tree</text>
</g>
<!-- Node3&#45;&gt;Node3 -->
<g id="edge4" class="edge">
<title>Node3&#45;&gt;Node3</title>
<path fill="none" stroke="#9a32cd" stroke-dasharray="5,2" d="M285.58,-325.26C290.52,-323.9 293.5,-321.98 293.5,-319.5 293.5,-315.63 286.25,-313.13 275.57,-311.98"/>
<polygon fill="#9a32cd" stroke="#9a32cd" points="284.81,-321.84 275.57,-327.02 286.03,-328.73 284.81,-321.84"/>
<text text-anchor="middle" x="309.5" y="-328" font-family="Helvetica,sans-Serif" font-size="10.00"> right</text>
<text text-anchor="middle" x="309.5" y="-317" font-family="Helvetica,sans-Serif" font-size="10.00">left</text>
<text text-anchor="middle" x="309.5" y="-306" font-family="Helvetica,sans-Serif" font-size="10.00">parent</text>
</g>
<!-- Node4 -->
<g id="node4" class="node">
<title>Node4</title>
<g id="a_node4"><a xlink:href="structfiftyone_degrees_tree_root.html" target="_top" xlink:title="Tree root structure defining the beginning of the tree.">
<polygon fill="none" stroke="black" points="192,-225.5 192,-244.5 329,-244.5 329,-225.5 192,-225.5"/>
<text text-anchor="middle" x="260.5" y="-232.5" font-family="Helvetica,sans-Serif" font-size="10.00">fiftyoneDegreesTreeRoot</text>
</a>
</g>
</g>
<!-- Node3&#45;&gt;Node4 -->
<g id="edge6" class="edge">
<title>Node3&#45;&gt;Node4</title>
<path fill="none" stroke="#9a32cd" stroke-dasharray="5,2" d="M199.33,-299.97C196.69,-288.46 195.58,-273.85 202.5,-263 207.93,-254.48 216.83,-248.6 226.05,-244.57"/>
<polygon fill="#9a32cd" stroke="#9a32cd" points="196.03,-301.16 202.13,-309.82 202.77,-299.25 196.03,-301.16"/>
<text text-anchor="middle" x="218.5" y="-277" font-family="Helvetica,sans-Serif" font-size="10.00"> root</text>
<text text-anchor="middle" x="218.5" y="-266" font-family="Helvetica,sans-Serif" font-size="10.00">empty</text>
</g>
<!-- Node4&#45;&gt;Node1 -->
<g id="edge9" class="edge">
<title>Node4&#45;&gt;Node1</title>
<path fill="none" stroke="#9a32cd" stroke-dasharray="5,2" d="M261.67,-215.04C262.43,-202.67 263.38,-187.12 263.97,-177.63"/>
<polygon fill="#9a32cd" stroke="#9a32cd" points="258.16,-215.04 261.04,-225.23 265.15,-215.47 258.16,-215.04"/>
<text text-anchor="middle" x="274" y="-199" font-family="Helvetica,sans-Serif" font-size="10.00"> root</text>
</g>
<!-- Node4&#45;&gt;Node3 -->
<g id="edge5" class="edge">
<title>Node4&#45;&gt;Node3</title>
<path fill="none" stroke="#9a32cd" stroke-dasharray="5,2" d="M254.13,-254.18C250.34,-263.78 245,-275.5 238.5,-285 232.05,-294.43 222.78,-303.57 215.71,-309.91"/>
<polygon fill="#9a32cd" stroke="#9a32cd" points="257.42,-255.4 257.62,-244.81 250.86,-252.96 257.42,-255.4"/>
<text text-anchor="middle" x="261" y="-271.5" font-family="Helvetica,sans-Serif" font-size="10.00"> root</text>
</g>
<!-- Node5 -->
<g id="node5" class="node">
<title>Node5</title>
<g id="a_node5"><a xlink:href="structfiftyone_degrees_data.html" target="_top" xlink:title="Data structure used for reusing memory which may have been allocated in a previous operation.">
<polygon fill="none" stroke="black" points="0,-158.5 0,-177.5 117,-177.5 117,-158.5 0,-158.5"/>
<text text-anchor="middle" x="58.5" y="-165.5" font-family="Helvetica,sans-Serif" font-size="10.00">fiftyoneDegreesData</text>
</a>
</g>
</g>
<!-- Node5&#45;&gt;Node2 -->
<g id="edge8" class="edge">
<title>Node5&#45;&gt;Node2</title>
<path fill="none" stroke="#9a32cd" stroke-dasharray="5,2" d="M73.99,-151.08C86.41,-138.61 104.52,-121.07 121.5,-107 129.84,-100.09 139.77,-92.97 147.52,-87.65"/>
<polygon fill="#9a32cd" stroke="#9a32cd" points="71.24,-148.88 66.72,-158.46 76.23,-153.8 71.24,-148.88"/>
<text text-anchor="middle" x="134" y="-121" font-family="Helvetica,sans-Serif" font-size="10.00"> data</text>
</g>
<!-- Node5&#45;&gt;Node6 -->
<g id="edge13" class="edge">
<title>Node5&#45;&gt;Node6</title>
<path fill="none" stroke="#9a32cd" stroke-dasharray="5,2" d="M50.54,-148.93C42.27,-127.05 32.89,-90.22 51.5,-67 74.75,-38 173.93,-23.03 240.44,-16.11"/>
<polygon fill="#9a32cd" stroke="#9a32cd" points="47.37,-150.42 54.39,-158.35 53.85,-147.77 47.37,-150.42"/>
<text text-anchor="middle" x="64" y="-75.5" font-family="Helvetica,sans-Serif" font-size="10.00"> load</text>
</g>
<!-- Node6&#45;&gt;Node1 -->
<g id="edge10" class="edge">
<title>Node6&#45;&gt;Node1</title>
<path fill="none" stroke="#9a32cd" stroke-dasharray="5,2" d="M338.36,-23.51C347.31,-27.45 356.6,-32.3 364.5,-38 385.13,-52.89 396.44,-64.26 390.5,-89 384.56,-113.74 384.26,-123.97 364.5,-140 353.89,-148.61 340.76,-154.49 327.55,-158.5"/>
<polygon fill="#9a32cd" stroke="#9a32cd" points="339.43,-20.17 328.86,-19.59 336.76,-26.64 339.43,-20.17"/>
<text text-anchor="middle" x="407.5" y="-75.5" font-family="Helvetica,sans-Serif" font-size="10.00"> cache</text>
</g>
</g>
</svg>
