<?xml version="1.0" encoding="UTF-8" standalone="no"?>
<!DOCTYPE svg PUBLIC "-//W3C//DTD SVG 1.1//EN"
 "http://www.w3.org/Graphics/SVG/1.1/DTD/svg11.dtd">
<!-- Generated by graphviz version 2.43.0 (0)
 -->
<!-- Title: performanceConfig Pages: 1 -->
<svg width="328pt" height="328pt"
 viewBox="0.00 0.00 327.50 328.00" xmlns="http://www.w3.org/2000/svg" xmlns:xlink="http://www.w3.org/1999/xlink">
<g id="graph0" class="graph" transform="scale(1 1) rotate(0) translate(4 324)">
<title>performanceConfig</title>
<!-- Node1 -->
<g id="node1" class="node">
<title>Node1</title>
<g id="a_node1"><a xlink:title="Configuration to use when building the dataset for benchmarking.">
<polygon fill="#bfbfbf" stroke="black" points="62.5,-0.5 62.5,-19.5 172.5,-19.5 172.5,-0.5 62.5,-0.5"/>
<text text-anchor="middle" x="117.5" y="-7.5" font-family="Helvetica,sans-Serif" font-size="10.00">performanceConfig</text>
</a>
</g>
</g>
<!-- Node2 -->
<g id="node2" class="node">
<title>Node2</title>
<g id="a_node2"><a xlink:href="structfiftyone_degrees_config_hash.html" target="_top" xlink:title="Hash specific configuration structure.">
<polygon fill="none" stroke="black" points="43,-67.5 43,-86.5 192,-86.5 192,-67.5 43,-67.5"/>
<text text-anchor="middle" x="117.5" y="-74.5" font-family="Helvetica,sans-Serif" font-size="10.00">fiftyoneDegreesConfigHash</text>
</a>
</g>
</g>
<!-- Node2&#45;&gt;Node1 -->
<g id="edge1" class="edge">
<title>Node2&#45;&gt;Node1</title>
<path fill="none" stroke="#9a32cd" stroke-dasharray="5,2" d="M117.5,-57.04C117.5,-44.67 117.5,-29.12 117.5,-19.63"/>
<polygon fill="#9a32cd" stroke="#9a32cd" points="114,-57.23 117.5,-67.23 121,-57.23 114,-57.23"/>
<text text-anchor="middle" x="134" y="-41" font-family="Helvetica,sans-Serif" font-size="10.00"> config</text>
</g>
<!-- Node3 -->
<g id="node3" class="node">
<title>Node3</title>
<g id="a_node3"><a xlink:href="structfiftyone_degrees_collection_config.html" target="_top" xlink:title="Collection configuration structure which defines how the collection should be created by the create m...">
<polygon fill="none" stroke="black" points="0,-222.5 0,-252.5 143,-252.5 143,-222.5 0,-222.5"/>
<text text-anchor="start" x="8" y="-240.5" font-family="Helvetica,sans-Serif" font-size="10.00">fiftyoneDegreesCollection</text>
<text text-anchor="middle" x="71.5" y="-229.5" font-family="Helvetica,sans-Serif" font-size="10.00">Config</text>
</a>
</g>
</g>
<!-- Node3&#45;&gt;Node2 -->
<g id="edge2" class="edge">
<title>Node3&#45;&gt;Node2</title>
<path fill="none" stroke="#9a32cd" stroke-dasharray="5,2" d="M78.38,-212.79C88.78,-176.97 108,-110.72 114.93,-86.86"/>
<polygon fill="#9a32cd" stroke="#9a32cd" points="75.01,-211.85 75.58,-222.43 81.73,-213.81 75.01,-211.85"/>
<text text-anchor="middle" x="144" y="-196" font-family="Helvetica,sans-Serif" font-size="10.00"> profileOffsets</text>
<text text-anchor="middle" x="144" y="-185" font-family="Helvetica,sans-Serif" font-size="10.00">values</text>
<text text-anchor="middle" x="144" y="-174" font-family="Helvetica,sans-Serif" font-size="10.00">strings</text>
<text text-anchor="middle" x="144" y="-163" font-family="Helvetica,sans-Serif" font-size="10.00">maps</text>
<text text-anchor="middle" x="144" y="-152" font-family="Helvetica,sans-Serif" font-size="10.00">components</text>
<text text-anchor="middle" x="144" y="-141" font-family="Helvetica,sans-Serif" font-size="10.00">nodes</text>
<text text-anchor="middle" x="144" y="-130" font-family="Helvetica,sans-Serif" font-size="10.00">properties</text>
<text text-anchor="middle" x="144" y="-119" font-family="Helvetica,sans-Serif" font-size="10.00">rootNodes</text>
<text text-anchor="middle" x="144" y="-108" font-family="Helvetica,sans-Serif" font-size="10.00">profiles</text>
</g>
<!-- Node4 -->
<g id="node4" class="node">
<title>Node4</title>
<g id="a_node4"><a xlink:href="structfiftyone_degrees_config_device_detection.html" target="_top" xlink:title="Device detection configuration structure containing device detection specific configuration options,...">
<polygon fill="none" stroke="black" points="161.5,-222.5 161.5,-252.5 319.5,-252.5 319.5,-222.5 161.5,-222.5"/>
<text text-anchor="start" x="169.5" y="-240.5" font-family="Helvetica,sans-Serif" font-size="10.00">fiftyoneDegreesConfigDevice</text>
<text text-anchor="middle" x="240.5" y="-229.5" font-family="Helvetica,sans-Serif" font-size="10.00">Detection</text>
</a>
</g>
</g>
<!-- Node4&#45;&gt;Node2 -->
<g id="edge3" class="edge">
<title>Node4&#45;&gt;Node2</title>
<path fill="none" stroke="#9a32cd" stroke-dasharray="5,2" d="M234.97,-212.58C227.16,-183.64 210.29,-135.07 179.5,-105 171.02,-96.71 159.58,-90.76 148.83,-86.6"/>
<polygon fill="#9a32cd" stroke="#9a32cd" points="231.59,-213.46 237.45,-222.28 238.37,-211.73 231.59,-213.46"/>
<text text-anchor="middle" x="236.5" y="-152" font-family="Helvetica,sans-Serif" font-size="10.00"> b</text>
</g>
<!-- Node5 -->
<g id="node5" class="node">
<title>Node5</title>
<g id="a_node5"><a xlink:href="structfiftyone_degrees_config_base.html" target="_top" xlink:title="Base configuration structure containing common configuration options, and options that apply to struc...">
<polygon fill="none" stroke="black" points="166,-300.5 166,-319.5 315,-319.5 315,-300.5 166,-300.5"/>
<text text-anchor="middle" x="240.5" y="-307.5" font-family="Helvetica,sans-Serif" font-size="10.00">fiftyoneDegreesConfigBase</text>
</a>
</g>
</g>
<!-- Node5&#45;&gt;Node4 -->
<g id="edge4" class="edge">
<title>Node5&#45;&gt;Node4</title>
<path fill="none" stroke="#9a32cd" stroke-dasharray="5,2" d="M240.5,-290.24C240.5,-278.41 240.5,-263.38 240.5,-252.58"/>
<polygon fill="#9a32cd" stroke="#9a32cd" points="237,-290.36 240.5,-300.36 244,-290.36 237,-290.36"/>
<text text-anchor="middle" x="245.5" y="-274" font-family="Helvetica,sans-Serif" font-size="10.00"> b</text>
</g>
</g>
</svg>
