<?xml version="1.0" encoding="UTF-8" standalone="no"?>
<!DOCTYPE svg PUBLIC "-//W3C//DTD SVG 1.1//EN"
 "http://www.w3.org/Graphics/SVG/1.1/DTD/svg11.dtd">
<!-- Generated by graphviz version 2.43.0 (0)
 -->
<!-- Title: fiftyoneDegreesTreeRoot Pages: 1 -->
<svg width="198pt" height="119pt"
 viewBox="0.00 0.00 198.00 119.00" xmlns="http://www.w3.org/2000/svg" xmlns:xlink="http://www.w3.org/1999/xlink">
<g id="graph0" class="graph" transform="scale(1 1) rotate(0) translate(4 115)">
<title>fiftyoneDegreesTreeRoot</title>
<!-- Node1 -->
<g id="node1" class="node">
<title>Node1</title>
<g id="a_node1"><a xlink:title="Tree root structure defining the beginning of the tree.">
<polygon fill="#bfbfbf" stroke="black" points="1.5,-91.5 1.5,-110.5 138.5,-110.5 138.5,-91.5 1.5,-91.5"/>
<text text-anchor="middle" x="70" y="-98.5" font-family="Helvetica,sans-Serif" font-size="10.00">fiftyoneDegreesTreeRoot</text>
</a>
</g>
</g>
<!-- Node2 -->
<g id="node2" class="node">
<title>Node2</title>
<g id="a_node2"><a xlink:href="structfiftyone_degrees_tree_node.html" target="_top" xlink:title="Node structure defining a single node in the tree.">
<polygon fill="none" stroke="black" points="0,-7 0,-26 140,-26 140,-7 0,-7"/>
<text text-anchor="middle" x="70" y="-14" font-family="Helvetica,sans-Serif" font-size="10.00">fiftyoneDegreesTreeNode</text>
</a>
</g>
</g>
<!-- Node1&#45;&gt;Node2 -->
<g id="edge3" class="edge">
<title>Node1&#45;&gt;Node2</title>
<path fill="none" stroke="#9a32cd" stroke-dasharray="5,2" d="M51.14,-84.27C48.23,-80.88 45.64,-77.07 44,-73 40.34,-63.93 40.83,-60.25 44,-51 47.29,-41.39 54.59,-32.4 60.62,-26.16"/>
<polygon fill="#9a32cd" stroke="#9a32cd" points="48.7,-86.78 58.26,-91.37 53.65,-81.83 48.7,-86.78"/>
<text text-anchor="middle" x="55.5" y="-59.5" font-family="Helvetica,sans-Serif" font-size="10.00"> root</text>
</g>
<!-- Node2&#45;&gt;Node1 -->
<g id="edge1" class="edge">
<title>Node2&#45;&gt;Node1</title>
<path fill="none" stroke="#9a32cd" stroke-dasharray="5,2" d="M70.66,-36.26C70.8,-41.06 70.93,-46.22 71,-51 71.15,-60.78 71.18,-63.22 71,-73 70.89,-79.19 70.62,-86.18 70.4,-91.49"/>
<polygon fill="#9a32cd" stroke="#9a32cd" points="74.15,-35.92 70.33,-26.04 67.15,-36.14 74.15,-35.92"/>
<text text-anchor="middle" x="87" y="-65" font-family="Helvetica,sans-Serif" font-size="10.00"> root</text>
<text text-anchor="middle" x="87" y="-54" font-family="Helvetica,sans-Serif" font-size="10.00">empty</text>
</g>
<!-- Node2&#45;&gt;Node2 -->
<g id="edge2" class="edge">
<title>Node2&#45;&gt;Node2</title>
<path fill="none" stroke="#9a32cd" stroke-dasharray="5,2" d="M150.08,-22.26C155.02,-20.9 158,-18.98 158,-16.5 158,-12.63 150.75,-10.13 140.07,-8.98"/>
<polygon fill="#9a32cd" stroke="#9a32cd" points="149.31,-18.84 140.07,-24.02 150.53,-25.73 149.31,-18.84"/>
<text text-anchor="middle" x="174" y="-25" font-family="Helvetica,sans-Serif" font-size="10.00"> right</text>
<text text-anchor="middle" x="174" y="-14" font-family="Helvetica,sans-Serif" font-size="10.00">left</text>
<text text-anchor="middle" x="174" y="-3" font-family="Helvetica,sans-Serif" font-size="10.00">parent</text>
</g>
</g>
</svg>
