<?xml version="1.0" encoding="UTF-8" standalone="no"?>
<!DOCTYPE svg PUBLIC "-//W3C//DTD SVG 1.1//EN"
 "http://www.w3.org/Graphics/SVG/1.1/DTD/svg11.dtd">
<!-- Generated by graphviz version 2.43.0 (0)
 -->
<!-- Title: fiftyoneDegreesResultHashArray Pages: 1 -->
<svg width="1115pt" height="357pt"
 viewBox="0.00 0.00 1115.00 356.50" xmlns="http://www.w3.org/2000/svg" xmlns:xlink="http://www.w3.org/1999/xlink">
<g id="graph0" class="graph" transform="scale(1 1) rotate(0) translate(4 352.5)">
<title>fiftyoneDegreesResultHashArray</title>
<!-- Node1 -->
<g id="node1" class="node">
<title>Node1</title>
<g id="a_node1"><a xlink:title="Array of items of type fiftyoneDegreesResultHash used to easily access and track the size of the arra...">
<polygon fill="#bfbfbf" stroke="black" points="958,-160.5 958,-190.5 1107,-190.5 1107,-160.5 958,-160.5"/>
<text text-anchor="start" x="966" y="-178.5" font-family="Helvetica,sans-Serif" font-size="10.00">fiftyoneDegreesResultHash</text>
<text text-anchor="middle" x="1032.5" y="-167.5" font-family="Helvetica,sans-Serif" font-size="10.00">Array</text>
</a>
</g>
</g>
<!-- Node2 -->
<g id="node2" class="node">
<title>Node2</title>
<g id="a_node2"><a xlink:href="structfiftyone_degrees_list.html" target="_top" xlink:title="List structure which contains a list of collection items.">
<polygon fill="none" stroke="black" points="701.5,-300 701.5,-319 812.5,-319 812.5,-300 701.5,-300"/>
<text text-anchor="middle" x="757" y="-307" font-family="Helvetica,sans-Serif" font-size="10.00">fiftyoneDegreesList</text>
</a>
</g>
</g>
<!-- Node2&#45;&gt;Node1 -->
<g id="edge1" class="edge">
<title>Node2&#45;&gt;Node1</title>
<path fill="none" stroke="#9a32cd" stroke-dasharray="5,2" d="M819.21,-297.28C825.99,-295.3 832.7,-293.05 839,-290.5 906.12,-263.34 977.33,-214.94 1011.25,-190.5"/>
<polygon fill="#9a32cd" stroke="#9a32cd" points="818.02,-293.98 809.3,-299.99 819.87,-300.73 818.02,-293.98"/>
<text text-anchor="middle" x="898.5" y="-283.5" font-family="Helvetica,sans-Serif" font-size="10.00"> values</text>
</g>
<!-- Node3 -->
<g id="node3" class="node">
<title>Node3</title>
<g id="a_node3"><a xlink:href="structfiftyone_degrees_collection_item.html" target="_top" xlink:title="Used to store a handle to the underlying item that could be used to release the item when it&#39;s finish...">
<polygon fill="none" stroke="black" points="418.5,-267 418.5,-286 583.5,-286 583.5,-267 418.5,-267"/>
<text text-anchor="middle" x="501" y="-274" font-family="Helvetica,sans-Serif" font-size="10.00">fiftyoneDegreesCollectionItem</text>
</a>
</g>
</g>
<!-- Node3&#45;&gt;Node1 -->
<g id="edge16" class="edge">
<title>Node3&#45;&gt;Node1</title>
<path fill="none" stroke="#9a32cd" stroke-dasharray="5,2" d="M539.22,-289.27C558.97,-295.9 583.7,-303.95 606,-310.5 705.66,-339.76 736.43,-344.83 839,-328.5 885.64,-321.07 901.5,-322.85 940,-295.5 979.94,-267.13 1010.35,-216.18 1023.85,-190.77"/>
<polygon fill="#9a32cd" stroke="#9a32cd" points="540.26,-285.93 529.67,-286.05 538.02,-292.57 540.26,-285.93"/>
<text text-anchor="middle" x="757" y="-340.5" font-family="Helvetica,sans-Serif" font-size="10.00"> propertyItem</text>
</g>
<!-- Node3&#45;&gt;Node2 -->
<g id="edge2" class="edge">
<title>Node3&#45;&gt;Node2</title>
<path fill="none" stroke="#9a32cd" stroke-dasharray="5,2" d="M585.18,-287.31C623.24,-292.25 667.28,-297.97 701.12,-302.37"/>
<polygon fill="#9a32cd" stroke="#9a32cd" points="585.49,-283.82 575.13,-286 584.59,-290.76 585.49,-283.82"/>
<text text-anchor="middle" x="631.5" y="-298.5" font-family="Helvetica,sans-Serif" font-size="10.00"> items</text>
</g>
<!-- Node4 -->
<g id="node4" class="node">
<title>Node4</title>
<g id="a_node4"><a xlink:href="structfiftyone_degrees_collection.html" target="_top" xlink:title="All the shared methods and fields required by file, memory and cached collections.">
<polygon fill="none" stroke="black" points="685.5,-211 685.5,-230 828.5,-230 828.5,-211 685.5,-211"/>
<text text-anchor="middle" x="757" y="-218" font-family="Helvetica,sans-Serif" font-size="10.00">fiftyoneDegreesCollection</text>
</a>
</g>
</g>
<!-- Node3&#45;&gt;Node4 -->
<g id="edge4" class="edge">
<title>Node3&#45;&gt;Node4</title>
<path fill="none" stroke="#9a32cd" stroke-dasharray="5,2" d="M593.94,-266.39C614.82,-263.28 636.79,-259.36 657,-254.5 683.33,-248.17 712.55,-237.69 732.37,-230.04"/>
<polygon fill="#9a32cd" stroke="#9a32cd" points="593.2,-262.96 583.8,-267.85 594.19,-269.89 593.2,-262.96"/>
<text text-anchor="middle" x="631.5" y="-266.5" font-family="Helvetica,sans-Serif" font-size="10.00"> release</text>
</g>
<!-- Node4&#45;&gt;Node3 -->
<g id="edge3" class="edge">
<title>Node4&#45;&gt;Node3</title>
<path fill="none" stroke="#9a32cd" stroke-dasharray="5,2" d="M675.23,-229.58C652.62,-233.01 628.17,-237.57 606,-243.5 597.71,-245.72 596.11,-247.7 588,-250.5 570.9,-256.4 551.63,-262.29 535.68,-266.97"/>
<polygon fill="#9a32cd" stroke="#9a32cd" points="675.75,-233.04 685.14,-228.12 674.73,-226.11 675.75,-233.04"/>
<text text-anchor="middle" x="631.5" y="-246.5" font-family="Helvetica,sans-Serif" font-size="10.00"> collection</text>
</g>
<!-- Node4&#45;&gt;Node4 -->
<g id="edge5" class="edge">
<title>Node4&#45;&gt;Node4</title>
<path fill="none" stroke="#9a32cd" stroke-dasharray="5,2" d="M733.93,-239.53C735.19,-244.63 742.88,-248.5 757,-248.5 779.04,-248.5 785.41,-239.07 776.11,-230.26"/>
<polygon fill="#9a32cd" stroke="#9a32cd" points="737.19,-240.83 737.89,-230.26 730.75,-238.08 737.19,-240.83"/>
<text text-anchor="middle" x="757" y="-273.5" font-family="Helvetica,sans-Serif" font-size="10.00"> next</text>
<text text-anchor="middle" x="757" y="-262.5" font-family="Helvetica,sans-Serif" font-size="10.00">freeCollection</text>
<text text-anchor="middle" x="757" y="-251.5" font-family="Helvetica,sans-Serif" font-size="10.00">get</text>
</g>
<!-- Node5 -->
<g id="node5" class="node">
<title>Node5</title>
<g id="a_node5"><a xlink:href="structfiftyone_degrees_data.html" target="_top" xlink:title="Data structure used for reusing memory which may have been allocated in a previous operation.">
<polygon fill="none" stroke="black" points="0,-244 0,-263 117,-263 117,-244 0,-244"/>
<text text-anchor="middle" x="58.5" y="-251" font-family="Helvetica,sans-Serif" font-size="10.00">fiftyoneDegreesData</text>
</a>
</g>
</g>
<!-- Node5&#45;&gt;Node3 -->
<g id="edge6" class="edge">
<title>Node5&#45;&gt;Node3</title>
<path fill="none" stroke="#9a32cd" stroke-dasharray="5,2" d="M127.31,-258.05C129.9,-258.2 132.48,-258.35 135,-258.5 232.38,-264.13 344.45,-269.49 418.44,-272.87"/>
<polygon fill="#9a32cd" stroke="#9a32cd" points="127.4,-254.54 117.2,-257.42 126.97,-261.53 127.4,-254.54"/>
<text text-anchor="middle" x="265.5" y="-271.5" font-family="Helvetica,sans-Serif" font-size="10.00"> data</text>
</g>
<!-- Node8 -->
<g id="node8" class="node">
<title>Node8</title>
<g id="a_node8"><a xlink:href="structfiftyone_degrees_override_value.html" target="_top" xlink:title="String value which should override the value for the property indicated by the required property inde...">
<polygon fill="none" stroke="black" points="184,-220 184,-239 347,-239 347,-220 184,-220"/>
<text text-anchor="middle" x="265.5" y="-227" font-family="Helvetica,sans-Serif" font-size="10.00">fiftyoneDegreesOverrideValue</text>
</a>
</g>
</g>
<!-- Node5&#45;&gt;Node8 -->
<g id="edge10" class="edge">
<title>Node5&#45;&gt;Node8</title>
<path fill="none" stroke="#9a32cd" stroke-dasharray="5,2" d="M127.32,-245.56C145.45,-243.44 165.22,-241.12 183.96,-238.93"/>
<polygon fill="#9a32cd" stroke="#9a32cd" points="126.67,-242.11 117.15,-246.75 127.49,-249.06 126.67,-242.11"/>
<text text-anchor="middle" x="150.5" y="-246.5" font-family="Helvetica,sans-Serif" font-size="10.00"> string</text>
</g>
<!-- Node6 -->
<g id="node6" class="node">
<title>Node6</title>
<g id="a_node6"><a xlink:href="structfiftyone_degrees_results_device_detection.html" target="_top" xlink:title="Device detection specific results structure which any device detection processing results should exte...">
<polygon fill="none" stroke="black" points="675,-160.5 675,-190.5 839,-190.5 839,-160.5 675,-160.5"/>
<text text-anchor="start" x="683" y="-178.5" font-family="Helvetica,sans-Serif" font-size="10.00">fiftyoneDegreesResultsDevice</text>
<text text-anchor="middle" x="757" y="-167.5" font-family="Helvetica,sans-Serif" font-size="10.00">Detection</text>
</a>
</g>
</g>
<!-- Node6&#45;&gt;Node1 -->
<g id="edge7" class="edge">
<title>Node6&#45;&gt;Node1</title>
<path fill="none" stroke="#9a32cd" stroke-dasharray="5,2" d="M849.61,-175.5C884.86,-175.5 924.62,-175.5 957.95,-175.5"/>
<polygon fill="#9a32cd" stroke="#9a32cd" points="849.32,-172 839.32,-175.5 849.32,-179 849.32,-172"/>
<text text-anchor="middle" x="898.5" y="-178.5" font-family="Helvetica,sans-Serif" font-size="10.00"> b</text>
</g>
<!-- Node7 -->
<g id="node7" class="node">
<title>Node7</title>
<g id="a_node7"><a xlink:href="structfiftyone_degrees_override_value_array.html" target="_top" xlink:title="An array of properties and values to use when getting override values.">
<polygon fill="none" stroke="black" points="419.5,-210.5 419.5,-240.5 582.5,-240.5 582.5,-210.5 419.5,-210.5"/>
<text text-anchor="start" x="427.5" y="-228.5" font-family="Helvetica,sans-Serif" font-size="10.00">fiftyoneDegreesOverrideValue</text>
<text text-anchor="middle" x="501" y="-217.5" font-family="Helvetica,sans-Serif" font-size="10.00">Array</text>
</a>
</g>
</g>
<!-- Node7&#45;&gt;Node6 -->
<g id="edge8" class="edge">
<title>Node7&#45;&gt;Node6</title>
<path fill="none" stroke="#9a32cd" stroke-dasharray="5,2" d="M588.11,-208.55C617.7,-202.72 650.62,-196.24 679.41,-190.58"/>
<polygon fill="#9a32cd" stroke="#9a32cd" points="587.34,-205.13 578.21,-210.5 588.7,-212 587.34,-205.13"/>
<text text-anchor="middle" x="631.5" y="-207.5" font-family="Helvetica,sans-Serif" font-size="10.00"> overrides</text>
</g>
<!-- Node8&#45;&gt;Node7 -->
<g id="edge9" class="edge">
<title>Node8&#45;&gt;Node7</title>
<path fill="none" stroke="#9a32cd" stroke-dasharray="5,2" d="M357.42,-227.94C377.83,-227.59 399.35,-227.22 419.31,-226.88"/>
<polygon fill="#9a32cd" stroke="#9a32cd" points="357.12,-224.45 347.18,-228.12 357.24,-231.45 357.12,-224.45"/>
<text text-anchor="middle" x="380.5" y="-230.5" font-family="Helvetica,sans-Serif" font-size="10.00"> items</text>
</g>
<!-- Node9 -->
<g id="node9" class="node">
<title>Node9</title>
<g id="a_node9"><a xlink:href="structfiftyone_degrees_results_base.html" target="_top" xlink:title="Base results structure which any processing results should extend.">
<polygon fill="none" stroke="black" points="424,-166 424,-185 578,-185 578,-166 424,-166"/>
<text text-anchor="middle" x="501" y="-173" font-family="Helvetica,sans-Serif" font-size="10.00">fiftyoneDegreesResultsBase</text>
</a>
</g>
</g>
<!-- Node9&#45;&gt;Node6 -->
<g id="edge11" class="edge">
<title>Node9&#45;&gt;Node6</title>
<path fill="none" stroke="#9a32cd" stroke-dasharray="5,2" d="M588.39,-175.5C616.41,-175.5 647.37,-175.5 674.99,-175.5"/>
<polygon fill="#9a32cd" stroke="#9a32cd" points="588.21,-172 578.21,-175.5 588.21,-179 588.21,-172"/>
<text text-anchor="middle" x="631.5" y="-178.5" font-family="Helvetica,sans-Serif" font-size="10.00"> b</text>
</g>
<!-- Node10 -->
<g id="node10" class="node">
<title>Node10</title>
<g id="a_node10"><a xlink:href="structfiftyone_degrees_result_hash.html" target="_top" xlink:title="Singular User&#45;Agent result returned by a Hash process method.">
<polygon fill="none" stroke="black" points="682.5,-99 682.5,-118 831.5,-118 831.5,-99 682.5,-99"/>
<text text-anchor="middle" x="757" y="-106" font-family="Helvetica,sans-Serif" font-size="10.00">fiftyoneDegreesResultHash</text>
</a>
</g>
</g>
<!-- Node10&#45;&gt;Node1 -->
<g id="edge12" class="edge">
<title>Node10&#45;&gt;Node1</title>
<path fill="none" stroke="#9a32cd" stroke-dasharray="5,2" d="M806.84,-120.46C852.46,-131.64 920.74,-148.37 970.04,-160.44"/>
<polygon fill="#9a32cd" stroke="#9a32cd" points="807.44,-117.01 796.9,-118.03 805.78,-123.81 807.44,-117.01"/>
<text text-anchor="middle" x="898.5" y="-154.5" font-family="Helvetica,sans-Serif" font-size="10.00"> items</text>
</g>
<!-- Node11 -->
<g id="node11" class="node">
<title>Node11</title>
<g id="a_node11"><a xlink:href="structfiftyone_degrees_graph_trace_node.html" target="_top" xlink:title="Trace node structure used to trace the route taken when evaluating a graph.">
<polygon fill="none" stroke="black" points="414,-99 414,-118 588,-118 588,-99 414,-99"/>
<text text-anchor="middle" x="501" y="-106" font-family="Helvetica,sans-Serif" font-size="10.00">fiftyoneDegreesGraphTraceNode</text>
</a>
</g>
</g>
<!-- Node11&#45;&gt;Node10 -->
<g id="edge13" class="edge">
<title>Node11&#45;&gt;Node10</title>
<path fill="none" stroke="#9a32cd" stroke-dasharray="5,2" d="M598.47,-108.5C626.22,-108.5 656.03,-108.5 682.18,-108.5"/>
<polygon fill="#9a32cd" stroke="#9a32cd" points="598.35,-105 588.35,-108.5 598.35,-112 598.35,-105"/>
<text text-anchor="middle" x="631.5" y="-111.5" font-family="Helvetica,sans-Serif" font-size="10.00"> trace</text>
</g>
<!-- Node11&#45;&gt;Node11 -->
<g id="edge14" class="edge">
<title>Node11&#45;&gt;Node11</title>
<path fill="none" stroke="#9a32cd" stroke-dasharray="5,2" d="M478.68,-127.53C479.9,-132.63 487.34,-136.5 501,-136.5 522.33,-136.5 528.49,-127.07 519.5,-118.26"/>
<polygon fill="#9a32cd" stroke="#9a32cd" points="481.93,-128.84 482.5,-118.26 475.45,-126.17 481.93,-128.84"/>
<text text-anchor="middle" x="501" y="-139.5" font-family="Helvetica,sans-Serif" font-size="10.00"> next</text>
</g>
<!-- Node12 -->
<g id="node12" class="node">
<title>Node12</title>
<g id="a_node12"><a xlink:href="structfiftyone_degrees_result_user_agent.html" target="_top" xlink:title="Singular User&#45;Agent result returned by a device detection process method.">
<polygon fill="none" stroke="black" points="427.5,-49.5 427.5,-79.5 574.5,-79.5 574.5,-49.5 427.5,-49.5"/>
<text text-anchor="start" x="435.5" y="-67.5" font-family="Helvetica,sans-Serif" font-size="10.00">fiftyoneDegreesResultUser</text>
<text text-anchor="middle" x="501" y="-56.5" font-family="Helvetica,sans-Serif" font-size="10.00">Agent</text>
</a>
</g>
</g>
<!-- Node12&#45;&gt;Node10 -->
<g id="edge15" class="edge">
<title>Node12&#45;&gt;Node10</title>
<path fill="none" stroke="#9a32cd" stroke-dasharray="5,2" d="M584.84,-78.85C622.92,-85.45 667.06,-93.09 700.97,-98.97"/>
<polygon fill="#9a32cd" stroke="#9a32cd" points="585.24,-75.37 574.79,-77.11 584.04,-82.26 585.24,-75.37"/>
<text text-anchor="middle" x="631.5" y="-92.5" font-family="Helvetica,sans-Serif" font-size="10.00"> b</text>
</g>
<!-- Node13 -->
<g id="node13" class="node">
<title>Node13</title>
<g id="a_node13"><a xlink:href="structfiftyone_degrees_evidence_key_value_pair_array.html" target="_top" xlink:title="Array of items of type fiftyoneDegreesEvidenceKeyValuePair used to easily access and track the size o...">
<polygon fill="none" stroke="black" points="679,-25.5 679,-55.5 835,-55.5 835,-25.5 679,-25.5"/>
<text text-anchor="start" x="687" y="-43.5" font-family="Helvetica,sans-Serif" font-size="10.00">fiftyoneDegreesEvidenceKey</text>
<text text-anchor="middle" x="757" y="-32.5" font-family="Helvetica,sans-Serif" font-size="10.00">ValuePairArray</text>
</a>
</g>
</g>
<!-- Node13&#45;&gt;Node1 -->
<g id="edge17" class="edge">
<title>Node13&#45;&gt;Node1</title>
<path fill="none" stroke="#9a32cd" stroke-dasharray="5,2" d="M807.45,-59.32C844.59,-74.02 896.36,-95.72 940,-118.5 964.56,-131.32 991.3,-148.36 1009.5,-160.47"/>
<polygon fill="#9a32cd" stroke="#9a32cd" points="808.44,-55.95 797.85,-55.55 805.88,-62.46 808.44,-55.95"/>
<text text-anchor="middle" x="898.5" y="-121.5" font-family="Helvetica,sans-Serif" font-size="10.00"> pseudoEvidence</text>
</g>
<!-- Node14 -->
<g id="node14" class="node">
<title>Node14</title>
<g id="a_node14"><a xlink:href="structfiftyone_degrees_evidence_key_value_pair.html" target="_top" xlink:title="Evidence key value pair structure which combines the prefix, key and value.">
<polygon fill="none" stroke="black" points="423,-0.5 423,-30.5 579,-30.5 579,-0.5 423,-0.5"/>
<text text-anchor="start" x="431" y="-18.5" font-family="Helvetica,sans-Serif" font-size="10.00">fiftyoneDegreesEvidenceKey</text>
<text text-anchor="middle" x="501" y="-7.5" font-family="Helvetica,sans-Serif" font-size="10.00">ValuePair</text>
</a>
</g>
</g>
<!-- Node14&#45;&gt;Node13 -->
<g id="edge18" class="edge">
<title>Node14&#45;&gt;Node13</title>
<path fill="none" stroke="#9a32cd" stroke-dasharray="5,2" d="M589.37,-24.1C618.39,-26.96 650.48,-30.11 678.69,-32.89"/>
<polygon fill="#9a32cd" stroke="#9a32cd" points="589.54,-20.6 579.24,-23.1 588.85,-27.57 589.54,-20.6"/>
<text text-anchor="middle" x="631.5" y="-33.5" font-family="Helvetica,sans-Serif" font-size="10.00"> items</text>
</g>
</g>
</svg>
