<?xml version="1.0" encoding="UTF-8" standalone="no"?>
<!DOCTYPE svg PUBLIC "-//W3C//DTD SVG 1.1//EN"
 "http://www.w3.org/Graphics/SVG/1.1/DTD/svg11.dtd">
<!-- Generated by graphviz version 2.43.0 (0)
 -->
<!-- Title: fiftyoneDegreesTreeNode Pages: 1 -->
<svg width="198pt" height="119pt"
 viewBox="0.00 0.00 198.00 119.00" xmlns="http://www.w3.org/2000/svg" xmlns:xlink="http://www.w3.org/1999/xlink">
<g id="graph0" class="graph" transform="scale(1 1) rotate(0) translate(4 115)">
<title>fiftyoneDegreesTreeNode</title>
<!-- Node1 -->
<g id="node1" class="node">
<title>Node1</title>
<g id="a_node1"><a xlink:title="Node structure defining a single node in the tree.">
<polygon fill="#bfbfbf" stroke="black" points="0,-85 0,-104 140,-104 140,-85 0,-85"/>
<text text-anchor="middle" x="70" y="-92" font-family="Helvetica,sans-Serif" font-size="10.00">fiftyoneDegreesTreeNode</text>
</a>
</g>
</g>
<!-- Node1&#45;&gt;Node1 -->
<g id="edge1" class="edge">
<title>Node1&#45;&gt;Node1</title>
<path fill="none" stroke="#9a32cd" stroke-dasharray="5,2" d="M150.08,-100.26C155.02,-98.9 158,-96.98 158,-94.5 158,-90.63 150.75,-88.13 140.07,-86.98"/>
<polygon fill="#9a32cd" stroke="#9a32cd" points="149.31,-96.84 140.07,-102.02 150.53,-103.73 149.31,-96.84"/>
<text text-anchor="middle" x="174" y="-103" font-family="Helvetica,sans-Serif" font-size="10.00"> right</text>
<text text-anchor="middle" x="174" y="-92" font-family="Helvetica,sans-Serif" font-size="10.00">left</text>
<text text-anchor="middle" x="174" y="-81" font-family="Helvetica,sans-Serif" font-size="10.00">parent</text>
</g>
<!-- Node2 -->
<g id="node2" class="node">
<title>Node2</title>
<g id="a_node2"><a xlink:href="structfiftyone_degrees_tree_root.html" target="_top" xlink:title="Tree root structure defining the beginning of the tree.">
<polygon fill="none" stroke="black" points="1.5,-0.5 1.5,-19.5 138.5,-19.5 138.5,-0.5 1.5,-0.5"/>
<text text-anchor="middle" x="70" y="-7.5" font-family="Helvetica,sans-Serif" font-size="10.00">fiftyoneDegreesTreeRoot</text>
</a>
</g>
</g>
<!-- Node1&#45;&gt;Node2 -->
<g id="edge3" class="edge">
<title>Node1&#45;&gt;Node2</title>
<path fill="none" stroke="#9a32cd" stroke-dasharray="5,2" d="M51.56,-77.66C46.89,-72.55 42.49,-66.51 40,-60 36.51,-50.87 36.02,-46.93 40,-38 43.31,-30.57 49.78,-24.34 55.86,-19.73"/>
<polygon fill="#9a32cd" stroke="#9a32cd" points="49.31,-80.35 58.9,-84.86 54.21,-75.36 49.31,-80.35"/>
<text text-anchor="middle" x="56" y="-52" font-family="Helvetica,sans-Serif" font-size="10.00"> root</text>
<text text-anchor="middle" x="56" y="-41" font-family="Helvetica,sans-Serif" font-size="10.00">empty</text>
</g>
<!-- Node2&#45;&gt;Node1 -->
<g id="edge2" class="edge">
<title>Node2&#45;&gt;Node1</title>
<path fill="none" stroke="#9a32cd" stroke-dasharray="5,2" d="M74.73,-29.79C75.25,-32.53 75.71,-35.33 76,-38 77.07,-47.72 76.87,-50.26 76,-60 75.25,-68.47 73.44,-78.02 72.01,-84.74"/>
<polygon fill="#9a32cd" stroke="#9a32cd" points="78.11,-28.9 72.5,-19.92 71.29,-30.44 78.11,-28.9"/>
<text text-anchor="middle" x="87.5" y="-46.5" font-family="Helvetica,sans-Serif" font-size="10.00"> root</text>
</g>
</g>
</svg>
