<?xml version="1.0" encoding="UTF-8" standalone="no"?>
<!DOCTYPE svg PUBLIC "-//W3C//DTD SVG 1.1//EN"
 "http://www.w3.org/Graphics/SVG/1.1/DTD/svg11.dtd">
<!-- Generated by graphviz version 2.43.0 (0)
 -->
<!-- Title: fiftyoneDegreesResultHash Pages: 1 -->
<svg width="391pt" height="106pt"
 viewBox="0.00 0.00 390.50 106.00" xmlns="http://www.w3.org/2000/svg" xmlns:xlink="http://www.w3.org/1999/xlink">
<g id="graph0" class="graph" transform="scale(1 1) rotate(0) translate(4 102)">
<title>fiftyoneDegreesResultHash</title>
<!-- Node1 -->
<g id="node1" class="node">
<title>Node1</title>
<g id="a_node1"><a xlink:title="Singular User&#45;Agent result returned by a Hash process method.">
<polygon fill="#bfbfbf" stroke="black" points="123.5,-0.5 123.5,-19.5 272.5,-19.5 272.5,-0.5 123.5,-0.5"/>
<text text-anchor="middle" x="198" y="-7.5" font-family="Helvetica,sans-Serif" font-size="10.00">fiftyoneDegreesResultHash</text>
</a>
</g>
</g>
<!-- Node2 -->
<g id="node2" class="node">
<title>Node2</title>
<g id="a_node2"><a xlink:href="structfiftyone_degrees_graph_trace_node.html" target="_top" xlink:title="Trace node structure used to trace the route taken when evaluating a graph.">
<polygon fill="none" stroke="black" points="0,-73 0,-92 174,-92 174,-73 0,-73"/>
<text text-anchor="middle" x="87" y="-80" font-family="Helvetica,sans-Serif" font-size="10.00">fiftyoneDegreesGraphTraceNode</text>
</a>
</g>
</g>
<!-- Node2&#45;&gt;Node1 -->
<g id="edge1" class="edge">
<title>Node2&#45;&gt;Node1</title>
<path fill="none" stroke="#9a32cd" stroke-dasharray="5,2" d="M109.15,-67.43C131.55,-53.2 165.49,-31.65 184.28,-19.72"/>
<polygon fill="#9a32cd" stroke="#9a32cd" points="107.18,-64.54 100.61,-72.86 110.93,-70.45 107.18,-64.54"/>
<text text-anchor="middle" x="167" y="-41" font-family="Helvetica,sans-Serif" font-size="10.00"> trace</text>
</g>
<!-- Node2&#45;&gt;Node2 -->
<g id="edge2" class="edge">
<title>Node2&#45;&gt;Node2</title>
<path fill="none" stroke="#9a32cd" stroke-dasharray="5,2" d="M184.25,-87.11C189.12,-85.96 192,-84.43 192,-82.5 192,-79.49 184.99,-77.44 174.3,-76.34"/>
<polygon fill="#9a32cd" stroke="#9a32cd" points="183.64,-83.66 174.3,-88.66 184.72,-90.57 183.64,-83.66"/>
<text text-anchor="middle" x="204.5" y="-80" font-family="Helvetica,sans-Serif" font-size="10.00"> next</text>
</g>
<!-- Node3 -->
<g id="node3" class="node">
<title>Node3</title>
<g id="a_node3"><a xlink:href="structfiftyone_degrees_result_user_agent.html" target="_top" xlink:title="Singular User&#45;Agent result returned by a device detection process method.">
<polygon fill="none" stroke="black" points="235.5,-67.5 235.5,-97.5 382.5,-97.5 382.5,-67.5 235.5,-67.5"/>
<text text-anchor="start" x="243.5" y="-85.5" font-family="Helvetica,sans-Serif" font-size="10.00">fiftyoneDegreesResultUser</text>
<text text-anchor="middle" x="309" y="-74.5" font-family="Helvetica,sans-Serif" font-size="10.00">Agent</text>
</a>
</g>
</g>
<!-- Node3&#45;&gt;Node1 -->
<g id="edge3" class="edge">
<title>Node3&#45;&gt;Node1</title>
<path fill="none" stroke="#9a32cd" stroke-dasharray="5,2" d="M278.16,-61.91C256.24,-47.99 227.88,-29.98 211.44,-19.53"/>
<polygon fill="#9a32cd" stroke="#9a32cd" points="276.49,-65 286.8,-67.4 280.24,-59.09 276.49,-65"/>
<text text-anchor="middle" x="262" y="-41" font-family="Helvetica,sans-Serif" font-size="10.00"> b</text>
</g>
</g>
</svg>
