<?xml version="1.0" encoding="UTF-8" standalone="no"?>
<!DOCTYPE svg PUBLIC "-//W3C//DTD SVG 1.1//EN"
 "http://www.w3.org/Graphics/SVG/1.1/DTD/svg11.dtd">
<!-- Generated by graphviz version 2.43.0 (0)
 -->
<!-- Title: fiftyoneDegreesCollection Pages: 1 -->
<svg width="373pt" height="108pt"
 viewBox="0.00 0.00 373.00 108.00" xmlns="http://www.w3.org/2000/svg" xmlns:xlink="http://www.w3.org/1999/xlink">
<g id="graph0" class="graph" transform="scale(1 1) rotate(0) translate(4 104)">
<title>fiftyoneDegreesCollection</title>
<!-- Node1 -->
<g id="node1" class="node">
<title>Node1</title>
<g id="a_node1"><a xlink:title="All the shared methods and fields required by file, memory and cached collections.">
<polygon fill="#bfbfbf" stroke="black" points="0,-74 0,-93 143,-93 143,-74 0,-74"/>
<text text-anchor="middle" x="71.5" y="-81" font-family="Helvetica,sans-Serif" font-size="10.00">fiftyoneDegreesCollection</text>
</a>
</g>
</g>
<!-- Node1&#45;&gt;Node1 -->
<g id="edge4" class="edge">
<title>Node1&#45;&gt;Node1</title>
<path fill="none" stroke="#9a32cd" stroke-dasharray="5,2" d="M153.11,-88.69C158.04,-87.46 161,-85.73 161,-83.5 161,-80.02 153.79,-77.76 143.13,-76.7"/>
<polygon fill="#9a32cd" stroke="#9a32cd" points="152.44,-85.26 143.13,-90.3 153.56,-92.17 152.44,-85.26"/>
<text text-anchor="middle" x="195.5" y="-92" font-family="Helvetica,sans-Serif" font-size="10.00"> next</text>
<text text-anchor="middle" x="195.5" y="-81" font-family="Helvetica,sans-Serif" font-size="10.00">freeCollection</text>
<text text-anchor="middle" x="195.5" y="-70" font-family="Helvetica,sans-Serif" font-size="10.00">get</text>
</g>
<!-- Node2 -->
<g id="node2" class="node">
<title>Node2</title>
<g id="a_node2"><a xlink:href="structfiftyone_degrees_collection_item.html" target="_top" xlink:title="Used to store a handle to the underlying item that could be used to release the item when it&#39;s finish...">
<polygon fill="none" stroke="black" points="63,-0.5 63,-19.5 228,-19.5 228,-0.5 63,-0.5"/>
<text text-anchor="middle" x="145.5" y="-7.5" font-family="Helvetica,sans-Serif" font-size="10.00">fiftyoneDegreesCollectionItem</text>
</a>
</g>
</g>
<!-- Node1&#45;&gt;Node2 -->
<g id="edge2" class="edge">
<title>Node1&#45;&gt;Node2</title>
<path fill="none" stroke="#9a32cd" stroke-dasharray="5,2" d="M65.16,-63.86C63.44,-55.27 63.27,-45.37 68.5,-38 74.56,-29.45 83.56,-23.58 93.28,-19.57"/>
<polygon fill="#9a32cd" stroke="#9a32cd" points="61.86,-65.05 67.89,-73.76 68.6,-63.18 61.86,-65.05"/>
<text text-anchor="middle" x="94" y="-41" font-family="Helvetica,sans-Serif" font-size="10.00"> collection</text>
</g>
<!-- Node2&#45;&gt;Node1 -->
<g id="edge1" class="edge">
<title>Node2&#45;&gt;Node1</title>
<path fill="none" stroke="#9a32cd" stroke-dasharray="5,2" d="M137.45,-28.8C133.82,-35.61 129.08,-43.14 123.5,-49 113.72,-59.26 100.2,-67.84 89.4,-73.76"/>
<polygon fill="#9a32cd" stroke="#9a32cd" points="140.7,-30.13 141.95,-19.61 134.41,-27.05 140.7,-30.13"/>
<text text-anchor="middle" x="152.5" y="-41" font-family="Helvetica,sans-Serif" font-size="10.00"> release</text>
</g>
<!-- Node3 -->
<g id="node3" class="node">
<title>Node3</title>
<g id="a_node3"><a xlink:href="structfiftyone_degrees_data.html" target="_top" xlink:title="Data structure used for reusing memory which may have been allocated in a previous operation.">
<polygon fill="none" stroke="black" points="248,-74 248,-93 365,-93 365,-74 248,-74"/>
<text text-anchor="middle" x="306.5" y="-81" font-family="Helvetica,sans-Serif" font-size="10.00">fiftyoneDegreesData</text>
</a>
</g>
</g>
<!-- Node3&#45;&gt;Node2 -->
<g id="edge3" class="edge">
<title>Node3&#45;&gt;Node2</title>
<path fill="none" stroke="#9a32cd" stroke-dasharray="5,2" d="M277.65,-69.69C245.11,-55.24 193.07,-32.13 164.99,-19.66"/>
<polygon fill="#9a32cd" stroke="#9a32cd" points="276.52,-73.02 287.08,-73.88 279.36,-66.62 276.52,-73.02"/>
<text text-anchor="middle" x="243" y="-41" font-family="Helvetica,sans-Serif" font-size="10.00"> data</text>
</g>
</g>
</svg>
