<?xml version="1.0" encoding="UTF-8" standalone="no"?>
<!DOCTYPE svg PUBLIC "-//W3C//DTD SVG 1.1//EN"
 "http://www.w3.org/Graphics/SVG/1.1/DTD/svg11.dtd">
<!-- Generated by graphviz version 2.43.0 (0)
 -->
<!-- Title: fiftyoneDegreesCacheNode Pages: 1 -->
<svg width="380pt" height="344pt"
 viewBox="0.00 0.00 379.50 344.00" xmlns="http://www.w3.org/2000/svg" xmlns:xlink="http://www.w3.org/1999/xlink">
<g id="graph0" class="graph" transform="scale(1 1) rotate(0) translate(4 340)">
<title>fiftyoneDegreesCacheNode</title>
<!-- Node1 -->
<g id="node1" class="node">
<title>Node1</title>
<g id="a_node1"><a xlink:title="Cache node structure used for storing data in the cache along with its key.">
<polygon fill="#bfbfbf" stroke="black" points="97,-157.5 97,-176.5 246,-176.5 246,-157.5 97,-157.5"/>
<text text-anchor="middle" x="171.5" y="-164.5" font-family="Helvetica,sans-Serif" font-size="10.00">fiftyoneDegreesCacheNode</text>
</a>
</g>
</g>
<!-- Node1&#45;&gt;Node1 -->
<g id="edge1" class="edge">
<title>Node1&#45;&gt;Node1</title>
<path fill="none" stroke="#9a32cd" stroke-dasharray="5,2" d="M256.19,-171.34C261.08,-170.3 264,-168.85 264,-167 264,-164.11 256.88,-162.2 246.26,-161.28"/>
<polygon fill="#9a32cd" stroke="#9a32cd" points="255.69,-167.88 246.26,-172.72 256.65,-174.81 255.69,-167.88"/>
<text text-anchor="middle" x="294.5" y="-170" font-family="Helvetica,sans-Serif" font-size="10.00"> listPrevious</text>
<text text-anchor="middle" x="294.5" y="-159" font-family="Helvetica,sans-Serif" font-size="10.00">listNext</text>
</g>
<!-- Node4 -->
<g id="node4" class="node">
<title>Node4</title>
<g id="a_node4"><a xlink:href="structfiftyone_degrees_cache_shard.html" target="_top" xlink:title="Cache shard structure used to enable concurrent access to the cache.">
<polygon fill="none" stroke="black" points="155.5,-67.5 155.5,-86.5 307.5,-86.5 307.5,-67.5 155.5,-67.5"/>
<text text-anchor="middle" x="231.5" y="-74.5" font-family="Helvetica,sans-Serif" font-size="10.00">fiftyoneDegreesCacheShard</text>
</a>
</g>
</g>
<!-- Node1&#45;&gt;Node4 -->
<g id="edge7" class="edge">
<title>Node1&#45;&gt;Node4</title>
<path fill="none" stroke="#9a32cd" stroke-dasharray="5,2" d="M166.9,-147.2C164.84,-134.3 164.43,-117.34 172.5,-105 178.05,-96.51 186.99,-90.66 196.25,-86.63"/>
<polygon fill="#9a32cd" stroke="#9a32cd" points="163.52,-148.18 168.95,-157.28 170.38,-146.78 163.52,-148.18"/>
<text text-anchor="middle" x="187.5" y="-130" font-family="Helvetica,sans-Serif" font-size="10.00"> last</text>
<text text-anchor="middle" x="187.5" y="-119" font-family="Helvetica,sans-Serif" font-size="10.00">first</text>
<text text-anchor="middle" x="187.5" y="-108" font-family="Helvetica,sans-Serif" font-size="10.00">nodes</text>
</g>
<!-- Node5 -->
<g id="node5" class="node">
<title>Node5</title>
<g id="a_node5"><a xlink:href="structfiftyone_degrees_cache.html" target="_top" xlink:title="Cache structure to store the root of the red black tree and a list of allocated cache nodes.">
<polygon fill="none" stroke="black" points="58.5,-0.5 58.5,-19.5 182.5,-19.5 182.5,-0.5 58.5,-0.5"/>
<text text-anchor="middle" x="120.5" y="-7.5" font-family="Helvetica,sans-Serif" font-size="10.00">fiftyoneDegreesCache</text>
</a>
</g>
</g>
<!-- Node1&#45;&gt;Node5 -->
<g id="edge10" class="edge">
<title>Node1&#45;&gt;Node5</title>
<path fill="none" stroke="#9a32cd" stroke-dasharray="5,2" d="M154.98,-150.1C140.88,-135.3 121.64,-111.83 113.5,-87 105.83,-63.58 113,-34.07 117.49,-19.69"/>
<polygon fill="#9a32cd" stroke="#9a32cd" points="152.66,-152.74 162.18,-157.39 157.64,-147.82 152.66,-152.74"/>
<text text-anchor="middle" x="130" y="-74.5" font-family="Helvetica,sans-Serif" font-size="10.00"> nodes</text>
</g>
<!-- Node2 -->
<g id="node2" class="node">
<title>Node2</title>
<g id="a_node2"><a xlink:href="structfiftyone_degrees_tree_node.html" target="_top" xlink:title="Node structure defining a single node in the tree.">
<polygon fill="none" stroke="black" points="135.5,-232 135.5,-251 275.5,-251 275.5,-232 135.5,-232"/>
<text text-anchor="middle" x="205.5" y="-239" font-family="Helvetica,sans-Serif" font-size="10.00">fiftyoneDegreesTreeNode</text>
</a>
</g>
</g>
<!-- Node2&#45;&gt;Node1 -->
<g id="edge2" class="edge">
<title>Node2&#45;&gt;Node1</title>
<path fill="none" stroke="#9a32cd" stroke-dasharray="5,2" d="M197.2,-222.81C190.32,-208.14 180.84,-187.92 175.53,-176.59"/>
<polygon fill="#9a32cd" stroke="#9a32cd" points="194.05,-224.33 201.47,-231.9 200.39,-221.36 194.05,-224.33"/>
<text text-anchor="middle" x="202" y="-199" font-family="Helvetica,sans-Serif" font-size="10.00"> tree</text>
</g>
<!-- Node2&#45;&gt;Node2 -->
<g id="edge3" class="edge">
<title>Node2&#45;&gt;Node2</title>
<path fill="none" stroke="#9a32cd" stroke-dasharray="5,2" d="M285.58,-246.73C290.52,-245.5 293.5,-243.75 293.5,-241.5 293.5,-237.98 286.25,-235.7 275.57,-234.66"/>
<polygon fill="#9a32cd" stroke="#9a32cd" points="284.89,-243.3 275.57,-248.34 286,-250.21 284.89,-243.3"/>
<text text-anchor="middle" x="309.5" y="-250" font-family="Helvetica,sans-Serif" font-size="10.00"> right</text>
<text text-anchor="middle" x="309.5" y="-239" font-family="Helvetica,sans-Serif" font-size="10.00">left</text>
<text text-anchor="middle" x="309.5" y="-228" font-family="Helvetica,sans-Serif" font-size="10.00">parent</text>
</g>
<!-- Node3 -->
<g id="node3" class="node">
<title>Node3</title>
<g id="a_node3"><a xlink:href="structfiftyone_degrees_tree_root.html" target="_top" xlink:title="Tree root structure defining the beginning of the tree.">
<polygon fill="none" stroke="black" points="183,-316.5 183,-335.5 320,-335.5 320,-316.5 183,-316.5"/>
<text text-anchor="middle" x="251.5" y="-323.5" font-family="Helvetica,sans-Serif" font-size="10.00">fiftyoneDegreesTreeRoot</text>
</a>
</g>
</g>
<!-- Node2&#45;&gt;Node3 -->
<g id="edge5" class="edge">
<title>Node2&#45;&gt;Node3</title>
<path fill="none" stroke="#9a32cd" stroke-dasharray="5,2" d="M218.52,-259.28C222.29,-264.5 226.26,-270.36 229.5,-276 237.31,-289.58 244.34,-306.44 248.26,-316.42"/>
<polygon fill="#9a32cd" stroke="#9a32cd" points="221.32,-257.18 212.53,-251.27 215.71,-261.38 221.32,-257.18"/>
<text text-anchor="middle" x="256.5" y="-290" font-family="Helvetica,sans-Serif" font-size="10.00"> root</text>
<text text-anchor="middle" x="256.5" y="-279" font-family="Helvetica,sans-Serif" font-size="10.00">empty</text>
</g>
<!-- Node3&#45;&gt;Node2 -->
<g id="edge4" class="edge">
<title>Node3&#45;&gt;Node2</title>
<path fill="none" stroke="#9a32cd" stroke-dasharray="5,2" d="M219.05,-311.16C214.04,-307.6 209.54,-303.26 206.5,-298 198.01,-283.32 200.72,-262.59 203.24,-251.07"/>
<polygon fill="#9a32cd" stroke="#9a32cd" points="217.39,-314.25 227.76,-316.42 221.01,-308.26 217.39,-314.25"/>
<text text-anchor="middle" x="218" y="-284.5" font-family="Helvetica,sans-Serif" font-size="10.00"> root</text>
</g>
<!-- Node3&#45;&gt;Node4 -->
<g id="edge8" class="edge">
<title>Node3&#45;&gt;Node4</title>
<path fill="none" stroke="#9a32cd" stroke-dasharray="5,2" d="M278.59,-311.6C298.12,-300.29 322.99,-282.09 334.5,-258 354.05,-217.1 354.68,-196.59 334.5,-156 317.33,-121.45 276.73,-98.12 251.94,-86.52"/>
<polygon fill="#9a32cd" stroke="#9a32cd" points="276.85,-308.56 269.78,-316.45 280.23,-314.69 276.85,-308.56"/>
<text text-anchor="middle" x="360" y="-199" font-family="Helvetica,sans-Serif" font-size="10.00"> root</text>
</g>
<!-- Node4&#45;&gt;Node1 -->
<g id="edge6" class="edge">
<title>Node4&#45;&gt;Node1</title>
<path fill="none" stroke="#9a32cd" stroke-dasharray="5,2" d="M226.4,-96.65C222.37,-109.17 215.85,-125.59 206.5,-138 200.7,-145.71 192.3,-152.52 185.19,-157.49"/>
<polygon fill="#9a32cd" stroke="#9a32cd" points="229.82,-97.43 229.32,-86.85 223.11,-95.44 229.82,-97.43"/>
<text text-anchor="middle" x="239" y="-119" font-family="Helvetica,sans-Serif" font-size="10.00"> shard</text>
</g>
<!-- Node4&#45;&gt;Node5 -->
<g id="edge11" class="edge">
<title>Node4&#45;&gt;Node5</title>
<path fill="none" stroke="#9a32cd" stroke-dasharray="5,2" d="M185.57,-64.14C174.87,-60.25 163.88,-55.27 154.5,-49 142.72,-41.13 132.39,-28.25 126.29,-19.7"/>
<polygon fill="#9a32cd" stroke="#9a32cd" points="184.66,-67.52 195.25,-67.4 186.9,-60.89 184.66,-67.52"/>
<text text-anchor="middle" x="172.5" y="-41" font-family="Helvetica,sans-Serif" font-size="10.00"> shards</text>
</g>
<!-- Node5&#45;&gt;Node4 -->
<g id="edge9" class="edge">
<title>Node5&#45;&gt;Node4</title>
<path fill="none" stroke="#9a32cd" stroke-dasharray="5,2" d="M163.27,-22.92C173.92,-26.87 185.01,-31.86 194.5,-38 206.87,-46 218.23,-58.85 225.01,-67.35"/>
<polygon fill="#9a32cd" stroke="#9a32cd" points="164.26,-19.56 153.67,-19.59 161.97,-26.18 164.26,-19.56"/>
<text text-anchor="middle" x="224.5" y="-41" font-family="Helvetica,sans-Serif" font-size="10.00"> cache</text>
</g>
<!-- Node6 -->
<g id="node6" class="node">
<title>Node6</title>
<g id="a_node6"><a xlink:href="structfiftyone_degrees_data.html" target="_top" xlink:title="Data structure used for reusing memory which may have been allocated in a previous operation.">
<polygon fill="none" stroke="black" points="0,-232 0,-251 117,-251 117,-232 0,-232"/>
<text text-anchor="middle" x="58.5" y="-239" font-family="Helvetica,sans-Serif" font-size="10.00">fiftyoneDegreesData</text>
</a>
</g>
</g>
<!-- Node6&#45;&gt;Node1 -->
<g id="edge13" class="edge">
<title>Node6&#45;&gt;Node1</title>
<path fill="none" stroke="#9a32cd" stroke-dasharray="5,2" d="M80.35,-226.48C103.38,-211.71 138.92,-188.9 158.11,-176.59"/>
<polygon fill="#9a32cd" stroke="#9a32cd" points="78.43,-223.55 71.91,-231.9 82.21,-229.44 78.43,-223.55"/>
<text text-anchor="middle" x="138" y="-199" font-family="Helvetica,sans-Serif" font-size="10.00"> data</text>
</g>
<!-- Node6&#45;&gt;Node5 -->
<g id="edge12" class="edge">
<title>Node6&#45;&gt;Node5</title>
<path fill="none" stroke="#9a32cd" stroke-dasharray="5,2" d="M61.67,-221.75C68.08,-185.54 84.01,-103.78 107.5,-38 109.74,-31.73 112.99,-24.98 115.68,-19.8"/>
<polygon fill="#9a32cd" stroke="#9a32cd" points="58.18,-221.37 59.92,-231.82 65.08,-222.57 58.18,-221.37"/>
<text text-anchor="middle" x="100" y="-119" font-family="Helvetica,sans-Serif" font-size="10.00"> load</text>
</g>
</g>
</svg>
