<?xml version="1.0" encoding="UTF-8" standalone="no"?>
<!DOCTYPE svg PUBLIC "-//W3C//DTD SVG 1.1//EN"
 "http://www.w3.org/Graphics/SVG/1.1/DTD/svg11.dtd">
<!-- Generated by graphviz version 2.43.0 (0)
 -->
<!-- Title: threadState Pages: 1 -->
<svg width="590pt" height="240pt"
 viewBox="0.00 0.00 589.50 240.00" xmlns="http://www.w3.org/2000/svg" xmlns:xlink="http://www.w3.org/1999/xlink">
<g id="graph0" class="graph" transform="scale(1 1) rotate(0) translate(4 236)">
<title>threadState</title>
<!-- Node1 -->
<g id="node1" class="node">
<title>Node1</title>
<g id="a_node1"><a xlink:title="State specific to a single thread.">
<polygon fill="#bfbfbf" stroke="black" points="133,-0.5 133,-19.5 207,-19.5 207,-0.5 133,-0.5"/>
<text text-anchor="middle" x="170" y="-7.5" font-family="Helvetica,sans-Serif" font-size="10.00">threadState</text>
</a>
</g>
</g>
<!-- Node2 -->
<g id="node2" class="node">
<title>Node2</title>
<g id="a_node2"><a xlink:href="structfiftyone_degrees_resource_manager.html" target="_top" xlink:title="Manager structure used to provide access to a shared and changing resource.">
<polygon fill="none" stroke="black" points="244,-140 244,-159 426,-159 426,-140 244,-140"/>
<text text-anchor="middle" x="335" y="-147" font-family="Helvetica,sans-Serif" font-size="10.00">fiftyoneDegreesResourceManager</text>
</a>
</g>
</g>
<!-- Node2&#45;&gt;Node1 -->
<g id="edge1" class="edge">
<title>Node2&#45;&gt;Node1</title>
<path fill="none" stroke="#9a32cd" stroke-dasharray="5,2" d="M322.39,-132.09C303.79,-108.75 266.97,-65.74 228,-38 217.41,-30.46 204.39,-24.18 193.37,-19.57"/>
<polygon fill="#9a32cd" stroke="#9a32cd" points="319.67,-134.29 328.59,-140 325.17,-129.97 319.67,-134.29"/>
<text text-anchor="middle" x="305.5" y="-74.5" font-family="Helvetica,sans-Serif" font-size="10.00"> manager</text>
</g>
<!-- Node3 -->
<g id="node3" class="node">
<title>Node3</title>
<g id="a_node3"><a xlink:href="structfiftyone_degrees_resource_handle.html" target="_top" xlink:title="Handle for a shared resource.">
<polygon fill="none" stroke="black" points="368.5,-67.5 368.5,-86.5 541.5,-86.5 541.5,-67.5 368.5,-67.5"/>
<text text-anchor="middle" x="455" y="-74.5" font-family="Helvetica,sans-Serif" font-size="10.00">fiftyoneDegreesResourceHandle</text>
</a>
</g>
</g>
<!-- Node2&#45;&gt;Node3 -->
<g id="edge3" class="edge">
<title>Node2&#45;&gt;Node3</title>
<path fill="none" stroke="#9a32cd" stroke-dasharray="5,2" d="M361.07,-135.22C371.97,-129.5 384.71,-122.63 396,-116 412.18,-106.5 430.24,-94.68 442.07,-86.77"/>
<polygon fill="#9a32cd" stroke="#9a32cd" points="359.3,-132.19 352.04,-139.9 362.52,-138.4 359.3,-132.19"/>
<text text-anchor="middle" x="435.5" y="-108" font-family="Helvetica,sans-Serif" font-size="10.00"> manager</text>
</g>
<!-- Node6 -->
<g id="node6" class="node">
<title>Node6</title>
<g id="a_node6"><a xlink:href="structperformance_state.html" target="_top" xlink:title="Single state containing everything needed for running and then reporting the performance tests.">
<polygon fill="none" stroke="black" points="118,-67.5 118,-86.5 222,-86.5 222,-67.5 118,-67.5"/>
<text text-anchor="middle" x="170" y="-74.5" font-family="Helvetica,sans-Serif" font-size="10.00">performanceState</text>
</a>
</g>
</g>
<!-- Node2&#45;&gt;Node6 -->
<g id="edge7" class="edge">
<title>Node2&#45;&gt;Node6</title>
<path fill="none" stroke="#9a32cd" stroke-dasharray="5,2" d="M297.26,-136.74C280.16,-131.04 259.83,-123.77 242,-116 231.05,-111.23 203.18,-96.2 185.5,-86.53"/>
<polygon fill="#9a32cd" stroke="#9a32cd" points="296.32,-140.11 306.91,-139.9 298.5,-133.46 296.32,-140.11"/>
<text text-anchor="middle" x="265.5" y="-108" font-family="Helvetica,sans-Serif" font-size="10.00"> manager</text>
</g>
<!-- Node3&#45;&gt;Node2 -->
<g id="edge2" class="edge">
<title>Node3&#45;&gt;Node2</title>
<path fill="none" stroke="#9a32cd" stroke-dasharray="5,2" d="M391.15,-89.75C380.77,-93.51 370.61,-98.47 362,-105 350.1,-114.02 342.19,-129.94 338.16,-139.81"/>
<polygon fill="#9a32cd" stroke="#9a32cd" points="392.29,-93.06 400.71,-86.63 390.11,-86.41 392.29,-93.06"/>
<text text-anchor="middle" x="379" y="-108" font-family="Helvetica,sans-Serif" font-size="10.00"> active</text>
</g>
<!-- Node4 -->
<g id="node4" class="node">
<title>Node4</title>
<g id="a_node4"><a xlink:href="structfiftyone_degrees_interlock_double_width.html" target="_top" xlink:title="Double width (64 or 128 depending on the architecture) compare and exchange.">
<polygon fill="none" stroke="black" points="444.5,-134.5 444.5,-164.5 581.5,-164.5 581.5,-134.5 444.5,-134.5"/>
<text text-anchor="start" x="452.5" y="-152.5" font-family="Helvetica,sans-Serif" font-size="10.00">fiftyoneDegreesInterlock</text>
<text text-anchor="middle" x="513" y="-141.5" font-family="Helvetica,sans-Serif" font-size="10.00">DoubleWidth</text>
</a>
</g>
</g>
<!-- Node4&#45;&gt;Node3 -->
<g id="edge4" class="edge">
<title>Node4&#45;&gt;Node3</title>
<path fill="none" stroke="#9a32cd" stroke-dasharray="5,2" d="M494.81,-126.38C483.82,-113.04 470.43,-96.76 462.32,-86.89"/>
<polygon fill="#9a32cd" stroke="#9a32cd" points="492.21,-128.73 501.26,-134.23 497.61,-124.29 492.21,-128.73"/>
<text text-anchor="middle" x="505" y="-108" font-family="Helvetica,sans-Serif" font-size="10.00"> counter</text>
</g>
<!-- Node5 -->
<g id="node5" class="node">
<title>Node5</title>
<g id="a_node5"><a xlink:href="structbenchmark_result.html" target="_top" xlink:title="Result of benchmarking from a single thread.">
<polygon fill="none" stroke="black" points="0,-140 0,-159 102,-159 102,-140 0,-140"/>
<text text-anchor="middle" x="51" y="-147" font-family="Helvetica,sans-Serif" font-size="10.00">benchmarkResult</text>
</a>
</g>
</g>
<!-- Node5&#45;&gt;Node1 -->
<g id="edge5" class="edge">
<title>Node5&#45;&gt;Node1</title>
<path fill="none" stroke="#9a32cd" stroke-dasharray="5,2" d="M53.38,-130C56.47,-112.24 63.32,-85.46 78,-67 96.16,-44.17 126.35,-28.37 147.17,-19.51"/>
<polygon fill="#9a32cd" stroke="#9a32cd" points="49.91,-129.55 51.88,-139.97 56.83,-130.6 49.91,-129.55"/>
<text text-anchor="middle" x="93.5" y="-74.5" font-family="Helvetica,sans-Serif" font-size="10.00"> result</text>
</g>
<!-- Node5&#45;&gt;Node6 -->
<g id="edge8" class="edge">
<title>Node5&#45;&gt;Node6</title>
<path fill="none" stroke="#9a32cd" stroke-dasharray="5,2" d="M71.91,-133.85C84.71,-125.11 101.54,-114 117,-105 128.42,-98.35 141.67,-91.6 152.07,-86.51"/>
<polygon fill="#9a32cd" stroke="#9a32cd" points="69.63,-131.17 63.39,-139.73 73.61,-136.94 69.63,-131.17"/>
<text text-anchor="middle" x="141.5" y="-108" font-family="Helvetica,sans-Serif" font-size="10.00"> resultList</text>
</g>
<!-- Node6&#45;&gt;Node1 -->
<g id="edge6" class="edge">
<title>Node6&#45;&gt;Node1</title>
<path fill="none" stroke="#9a32cd" stroke-dasharray="5,2" d="M170,-57.04C170,-44.67 170,-29.12 170,-19.63"/>
<polygon fill="#9a32cd" stroke="#9a32cd" points="166.5,-57.23 170,-67.23 173.5,-57.23 166.5,-57.23"/>
<text text-anchor="middle" x="197" y="-41" font-family="Helvetica,sans-Serif" font-size="10.00"> mainState</text>
</g>
<!-- Node7 -->
<g id="node7" class="node">
<title>Node7</title>
<g id="a_node7"><a xlink:href="structkey_value_pair_array.html" target="_top" xlink:title="Contains one or more piece of evidence.">
<polygon fill="none" stroke="black" points="120.5,-140 120.5,-159 225.5,-159 225.5,-140 120.5,-140"/>
<text text-anchor="middle" x="173" y="-147" font-family="Helvetica,sans-Serif" font-size="10.00">keyValuePairArray</text>
</a>
</g>
</g>
<!-- Node7&#45;&gt;Node6 -->
<g id="edge9" class="edge">
<title>Node7&#45;&gt;Node6</title>
<path fill="none" stroke="#9a32cd" stroke-dasharray="5,2" d="M171.73,-129.73C171.46,-125.23 171.2,-120.45 171,-116 170.56,-105.98 170.29,-94.46 170.14,-86.76"/>
<polygon fill="#9a32cd" stroke="#9a32cd" points="168.25,-130.2 172.39,-139.95 175.24,-129.75 168.25,-130.2"/>
<text text-anchor="middle" x="195" y="-108" font-family="Helvetica,sans-Serif" font-size="10.00"> evidence</text>
</g>
<!-- Node8 -->
<g id="node8" class="node">
<title>Node8</title>
<g id="a_node8"><a xlink:href="structfiftyone_degrees_key_value_pair.html" target="_top" xlink:title=" ">
<polygon fill="none" stroke="black" points="94.5,-212.5 94.5,-231.5 251.5,-231.5 251.5,-212.5 94.5,-212.5"/>
<text text-anchor="middle" x="173" y="-219.5" font-family="Helvetica,sans-Serif" font-size="10.00">fiftyoneDegreesKeyValuePair</text>
</a>
</g>
</g>
<!-- Node8&#45;&gt;Node7 -->
<g id="edge10" class="edge">
<title>Node8&#45;&gt;Node7</title>
<path fill="none" stroke="#9a32cd" stroke-dasharray="5,2" d="M173,-201.94C173,-188.03 173,-169.82 173,-159.22"/>
<polygon fill="#9a32cd" stroke="#9a32cd" points="169.5,-202.36 173,-212.36 176.5,-202.36 169.5,-202.36"/>
<text text-anchor="middle" x="187" y="-186" font-family="Helvetica,sans-Serif" font-size="10.00"> pairs</text>
</g>
</g>
</svg>
