<?xml version="1.0" encoding="UTF-8" standalone="no"?>
<!DOCTYPE svg PUBLIC "-//W3C//DTD SVG 1.1//EN"
 "http://www.w3.org/Graphics/SVG/1.1/DTD/svg11.dtd">
<!-- Generated by graphviz version 2.43.0 (0)
 -->
<!-- Title: fiftyoneDegreesCollectionFile Pages: 1 -->
<svg width="679pt" height="242pt"
 viewBox="0.00 0.00 678.50 242.00" xmlns="http://www.w3.org/2000/svg" xmlns:xlink="http://www.w3.org/1999/xlink">
<g id="graph0" class="graph" transform="scale(1 1) rotate(0) translate(4 238)">
<title>fiftyoneDegreesCollectionFile</title>
<!-- Node1 -->
<g id="node1" class="node">
<title>Node1</title>
<g id="a_node1"><a xlink:title="Type of collection where the collection is streamed from file.">
<polygon fill="#bfbfbf" stroke="black" points="107,-0.5 107,-19.5 267,-19.5 267,-0.5 107,-0.5"/>
<text text-anchor="middle" x="187" y="-7.5" font-family="Helvetica,sans-Serif" font-size="10.00">fiftyoneDegreesCollectionFile</text>
</a>
</g>
</g>
<!-- Node1&#45;&gt;Node1 -->
<g id="edge1" class="edge">
<title>Node1&#45;&gt;Node1</title>
<path fill="none" stroke="#9a32cd" stroke-dasharray="5,2" d="M277.6,-13.91C282.25,-12.94 285,-11.64 285,-10 285,-7.38 277.97,-5.61 267.36,-4.71"/>
<polygon fill="#9a32cd" stroke="#9a32cd" points="276.8,-10.49 267.36,-15.29 277.74,-17.43 276.8,-10.49"/>
<text text-anchor="middle" x="297.5" y="-7.5" font-family="Helvetica,sans-Serif" font-size="10.00"> read</text>
</g>
<!-- Node2 -->
<g id="node2" class="node">
<title>Node2</title>
<g id="a_node2"><a xlink:href="structfiftyone_degrees_file_pool.html" target="_top" xlink:title="Stack of handles used to read data from a single source file.">
<polygon fill="none" stroke="black" points="0,-74 0,-93 132,-93 132,-74 0,-74"/>
<text text-anchor="middle" x="66" y="-81" font-family="Helvetica,sans-Serif" font-size="10.00">fiftyoneDegreesFilePool</text>
</a>
</g>
</g>
<!-- Node2&#45;&gt;Node1 -->
<g id="edge2" class="edge">
<title>Node2&#45;&gt;Node1</title>
<path fill="none" stroke="#9a32cd" stroke-dasharray="5,2" d="M89.54,-68.59C114.11,-54.07 151.86,-31.77 172.42,-19.62"/>
<polygon fill="#9a32cd" stroke="#9a32cd" points="87.67,-65.63 80.84,-73.73 91.23,-71.66 87.67,-65.63"/>
<text text-anchor="middle" x="158.5" y="-41" font-family="Helvetica,sans-Serif" font-size="10.00"> reader</text>
</g>
<!-- Node3 -->
<g id="node3" class="node">
<title>Node3</title>
<g id="a_node3"><a xlink:href="structfiftyone_degrees_pool.html" target="_top" xlink:title="Pool of resources stored as items in a stack.">
<polygon fill="none" stroke="black" points="113.5,-147.5 113.5,-166.5 228.5,-166.5 228.5,-147.5 113.5,-147.5"/>
<text text-anchor="middle" x="171" y="-154.5" font-family="Helvetica,sans-Serif" font-size="10.00">fiftyoneDegreesPool</text>
</a>
</g>
</g>
<!-- Node3&#45;&gt;Node2 -->
<g id="edge3" class="edge">
<title>Node3&#45;&gt;Node2</title>
<path fill="none" stroke="#9a32cd" stroke-dasharray="5,2" d="M149.72,-141.51C128.39,-126.98 96.26,-105.11 78.65,-93.12"/>
<polygon fill="#9a32cd" stroke="#9a32cd" points="147.89,-144.5 158.12,-147.23 151.83,-138.71 147.89,-144.5"/>
<text text-anchor="middle" x="143.5" y="-121" font-family="Helvetica,sans-Serif" font-size="10.00"> pool</text>
</g>
<!-- Node3&#45;&gt;Node3 -->
<g id="edge4" class="edge">
<title>Node3&#45;&gt;Node3</title>
<path fill="none" stroke="#9a32cd" stroke-dasharray="5,2" d="M238.53,-161.44C243.47,-160.44 246.5,-158.96 246.5,-157 246.5,-153.94 239.12,-152.05 228.61,-151.33"/>
<polygon fill="#9a32cd" stroke="#9a32cd" points="238.1,-157.97 228.61,-162.67 238.96,-164.92 238.1,-157.97"/>
<text text-anchor="middle" x="280" y="-154.5" font-family="Helvetica,sans-Serif" font-size="10.00"> resourceFree</text>
</g>
<!-- Node5 -->
<g id="node5" class="node">
<title>Node5</title>
<g id="a_node5"><a xlink:href="structfiftyone_degrees_pool_item.html" target="_top" xlink:title="Pool item node in the stack of items.">
<polygon fill="none" stroke="black" points="150.5,-74 150.5,-93 287.5,-93 287.5,-74 150.5,-74"/>
<text text-anchor="middle" x="219" y="-81" font-family="Helvetica,sans-Serif" font-size="10.00">fiftyoneDegreesPoolItem</text>
</a>
</g>
</g>
<!-- Node3&#45;&gt;Node5 -->
<g id="edge7" class="edge">
<title>Node3&#45;&gt;Node5</title>
<path fill="none" stroke="#9a32cd" stroke-dasharray="5,2" d="M165.51,-137.34C164.63,-130.89 164.86,-123.82 168,-118 174.14,-106.63 186.01,-98.48 196.75,-93.08"/>
<polygon fill="#9a32cd" stroke="#9a32cd" points="162.14,-138.3 167.74,-147.29 168.97,-136.77 162.14,-138.3"/>
<text text-anchor="middle" x="180.5" y="-121" font-family="Helvetica,sans-Serif" font-size="10.00"> pool</text>
</g>
<!-- Node4 -->
<g id="node4" class="node">
<title>Node4</title>
<g id="a_node4"><a xlink:href="unionfiftyone_degrees_pool_head.html" target="_top" xlink:title="The head of the stack used for pop and push operations.">
<polygon fill="none" stroke="black" points="101,-214.5 101,-233.5 241,-233.5 241,-214.5 101,-214.5"/>
<text text-anchor="middle" x="171" y="-221.5" font-family="Helvetica,sans-Serif" font-size="10.00">fiftyoneDegreesPoolHead</text>
</a>
</g>
</g>
<!-- Node4&#45;&gt;Node3 -->
<g id="edge5" class="edge">
<title>Node4&#45;&gt;Node3</title>
<path fill="none" stroke="#9a32cd" stroke-dasharray="5,2" d="M171,-204.04C171,-191.67 171,-176.12 171,-166.63"/>
<polygon fill="#9a32cd" stroke="#9a32cd" points="167.5,-204.23 171,-214.23 174.5,-204.23 167.5,-204.23"/>
<text text-anchor="middle" x="185" y="-188" font-family="Helvetica,sans-Serif" font-size="10.00"> head</text>
</g>
<!-- Node5&#45;&gt;Node3 -->
<g id="edge6" class="edge">
<title>Node5&#45;&gt;Node3</title>
<path fill="none" stroke="#9a32cd" stroke-dasharray="5,2" d="M211.68,-102.4C207.86,-110.82 202.78,-120.78 197,-129 192.28,-135.71 185.91,-142.35 180.66,-147.37"/>
<polygon fill="#9a32cd" stroke="#9a32cd" points="214.93,-103.7 215.67,-93.13 208.5,-100.93 214.93,-103.7"/>
<text text-anchor="middle" x="219" y="-121" font-family="Helvetica,sans-Serif" font-size="10.00"> stack</text>
</g>
<!-- Node6 -->
<g id="node6" class="node">
<title>Node6</title>
<g id="a_node6"><a xlink:href="structfiftyone_degrees_collection.html" target="_top" xlink:title="All the shared methods and fields required by file, memory and cached collections.">
<polygon fill="none" stroke="black" points="305.5,-74 305.5,-93 448.5,-93 448.5,-74 305.5,-74"/>
<text text-anchor="middle" x="377" y="-81" font-family="Helvetica,sans-Serif" font-size="10.00">fiftyoneDegreesCollection</text>
</a>
</g>
</g>
<!-- Node6&#45;&gt;Node1 -->
<g id="edge8" class="edge">
<title>Node6&#45;&gt;Node1</title>
<path fill="none" stroke="#9a32cd" stroke-dasharray="5,2" d="M344.41,-70.24C306,-55.78 243.19,-32.15 209.7,-19.54"/>
<polygon fill="#9a32cd" stroke="#9a32cd" points="343.49,-73.63 354.08,-73.88 345.96,-67.08 343.49,-73.63"/>
<text text-anchor="middle" x="313.5" y="-41" font-family="Helvetica,sans-Serif" font-size="10.00"> collection</text>
</g>
<!-- Node6&#45;&gt;Node6 -->
<g id="edge12" class="edge">
<title>Node6&#45;&gt;Node6</title>
<path fill="none" stroke="#9a32cd" stroke-dasharray="5,2" d="M458.61,-88.69C463.54,-87.46 466.5,-85.73 466.5,-83.5 466.5,-80.02 459.29,-77.76 448.63,-76.7"/>
<polygon fill="#9a32cd" stroke="#9a32cd" points="457.94,-85.26 448.63,-90.3 459.06,-92.17 457.94,-85.26"/>
<text text-anchor="middle" x="501" y="-92" font-family="Helvetica,sans-Serif" font-size="10.00"> next</text>
<text text-anchor="middle" x="501" y="-81" font-family="Helvetica,sans-Serif" font-size="10.00">freeCollection</text>
<text text-anchor="middle" x="501" y="-70" font-family="Helvetica,sans-Serif" font-size="10.00">get</text>
</g>
<!-- Node7 -->
<g id="node7" class="node">
<title>Node7</title>
<g id="a_node7"><a xlink:href="structfiftyone_degrees_collection_item.html" target="_top" xlink:title="Used to store a handle to the underlying item that could be used to release the item when it&#39;s finish...">
<polygon fill="none" stroke="black" points="368.5,-0.5 368.5,-19.5 533.5,-19.5 533.5,-0.5 368.5,-0.5"/>
<text text-anchor="middle" x="451" y="-7.5" font-family="Helvetica,sans-Serif" font-size="10.00">fiftyoneDegreesCollectionItem</text>
</a>
</g>
</g>
<!-- Node6&#45;&gt;Node7 -->
<g id="edge10" class="edge">
<title>Node6&#45;&gt;Node7</title>
<path fill="none" stroke="#9a32cd" stroke-dasharray="5,2" d="M370.66,-63.86C368.94,-55.27 368.77,-45.37 374,-38 380.06,-29.45 389.06,-23.58 398.78,-19.57"/>
<polygon fill="#9a32cd" stroke="#9a32cd" points="367.36,-65.05 373.39,-73.76 374.1,-63.18 367.36,-65.05"/>
<text text-anchor="middle" x="399.5" y="-41" font-family="Helvetica,sans-Serif" font-size="10.00"> collection</text>
</g>
<!-- Node7&#45;&gt;Node6 -->
<g id="edge9" class="edge">
<title>Node7&#45;&gt;Node6</title>
<path fill="none" stroke="#9a32cd" stroke-dasharray="5,2" d="M442.95,-28.8C439.32,-35.61 434.58,-43.14 429,-49 419.22,-59.26 405.7,-67.84 394.9,-73.76"/>
<polygon fill="#9a32cd" stroke="#9a32cd" points="446.2,-30.13 447.45,-19.61 439.91,-27.05 446.2,-30.13"/>
<text text-anchor="middle" x="458" y="-41" font-family="Helvetica,sans-Serif" font-size="10.00"> release</text>
</g>
<!-- Node8 -->
<g id="node8" class="node">
<title>Node8</title>
<g id="a_node8"><a xlink:href="structfiftyone_degrees_data.html" target="_top" xlink:title="Data structure used for reusing memory which may have been allocated in a previous operation.">
<polygon fill="none" stroke="black" points="553.5,-74 553.5,-93 670.5,-93 670.5,-74 553.5,-74"/>
<text text-anchor="middle" x="612" y="-81" font-family="Helvetica,sans-Serif" font-size="10.00">fiftyoneDegreesData</text>
</a>
</g>
</g>
<!-- Node8&#45;&gt;Node7 -->
<g id="edge11" class="edge">
<title>Node8&#45;&gt;Node7</title>
<path fill="none" stroke="#9a32cd" stroke-dasharray="5,2" d="M583.15,-69.69C550.61,-55.24 498.57,-32.13 470.49,-19.66"/>
<polygon fill="#9a32cd" stroke="#9a32cd" points="582.02,-73.02 592.58,-73.88 584.86,-66.62 582.02,-73.02"/>
<text text-anchor="middle" x="549.5" y="-41" font-family="Helvetica,sans-Serif" font-size="10.00"> data</text>
</g>
</g>
</svg>
