<?xml version="1.0" encoding="UTF-8" standalone="no"?>
<!DOCTYPE svg PUBLIC "-//W3C//DTD SVG 1.1//EN"
 "http://www.w3.org/Graphics/SVG/1.1/DTD/svg11.dtd">
<!-- Generated by graphviz version 2.43.0 (0)
 -->
<!-- Title: fiftyoneDegreesDataSetDeviceDetection Pages: 1 -->
<svg width="1844pt" height="329pt"
 viewBox="0.00 0.00 1844.00 329.15" xmlns="http://www.w3.org/2000/svg" xmlns:xlink="http://www.w3.org/1999/xlink">
<g id="graph0" class="graph" transform="scale(1 1) rotate(0) translate(4 325.15)">
<title>fiftyoneDegreesDataSetDeviceDetection</title>
<!-- Node1 -->
<g id="node1" class="node">
<title>Node1</title>
<g id="a_node1"><a xlink:title="Device detection data set structure which contains the &#39;must have&#39;s for all device detection data set...">
<polygon fill="#bfbfbf" stroke="black" points="1669,-157.15 1669,-187.15 1836,-187.15 1836,-157.15 1669,-157.15"/>
<text text-anchor="start" x="1677" y="-175.15" font-family="Helvetica,sans-Serif" font-size="10.00">fiftyoneDegreesDataSetDevice</text>
<text text-anchor="middle" x="1752.5" y="-164.15" font-family="Helvetica,sans-Serif" font-size="10.00">Detection</text>
</a>
</g>
</g>
<!-- Node2 -->
<g id="node2" class="node">
<title>Node2</title>
<g id="a_node2"><a xlink:href="structfiftyone_degrees_data_set_base.html" target="_top" xlink:title="Base data set structure which contains the &#39;must have&#39;s for all data sets.">
<polygon fill="none" stroke="black" points="1453.5,-162.65 1453.5,-181.65 1610.5,-181.65 1610.5,-162.65 1453.5,-162.65"/>
<text text-anchor="middle" x="1532" y="-169.65" font-family="Helvetica,sans-Serif" font-size="10.00">fiftyoneDegreesDataSetBase</text>
</a>
</g>
</g>
<!-- Node2&#45;&gt;Node1 -->
<g id="edge1" class="edge">
<title>Node2&#45;&gt;Node1</title>
<path fill="none" stroke="#9a32cd" stroke-dasharray="5,2" d="M1620.95,-172.15C1636.79,-172.15 1653.24,-172.15 1668.92,-172.15"/>
<polygon fill="#9a32cd" stroke="#9a32cd" points="1620.65,-168.65 1610.65,-172.15 1620.65,-175.65 1620.65,-168.65"/>
<text text-anchor="middle" x="1646" y="-175.15" font-family="Helvetica,sans-Serif" font-size="10.00"> b</text>
</g>
<!-- Node3 -->
<g id="node3" class="node">
<title>Node3</title>
<g id="a_node3"><a xlink:href="structfiftyone_degrees_header_array.html" target="_top" xlink:title="Array of items of type fiftyoneDegreesHeader used to easily access and track the size of the array.">
<polygon fill="none" stroke="black" points="1162,-245.65 1162,-264.65 1317,-264.65 1317,-245.65 1162,-245.65"/>
<text text-anchor="middle" x="1239.5" y="-252.65" font-family="Helvetica,sans-Serif" font-size="10.00">fiftyoneDegreesHeaderArray</text>
</a>
</g>
</g>
<!-- Node3&#45;&gt;Node2 -->
<g id="edge2" class="edge">
<title>Node3&#45;&gt;Node2</title>
<path fill="none" stroke="#9a32cd" stroke-dasharray="5,2" d="M1300.42,-243.06C1309.78,-240.52 1319.25,-237.55 1328,-234.15 1336.53,-230.82 1337.54,-227.63 1346,-224.15 1392.28,-205.09 1447.84,-190.52 1485.91,-181.71"/>
<polygon fill="#9a32cd" stroke="#9a32cd" points="1299.54,-239.67 1290.73,-245.56 1301.29,-246.45 1299.54,-239.67"/>
<text text-anchor="middle" x="1384.5" y="-227.15" font-family="Helvetica,sans-Serif" font-size="10.00"> uniqueHeaders</text>
</g>
<!-- Node4 -->
<g id="node4" class="node">
<title>Node4</title>
<g id="a_node4"><a xlink:href="structfiftyone_degrees_header.html" target="_top" xlink:title="Header structure to identify a header that either comes directly from the data set,...">
<polygon fill="none" stroke="black" points="782,-247.65 782,-266.65 911,-266.65 911,-247.65 782,-247.65"/>
<text text-anchor="middle" x="846.5" y="-254.65" font-family="Helvetica,sans-Serif" font-size="10.00">fiftyoneDegreesHeader</text>
</a>
</g>
</g>
<!-- Node4&#45;&gt;Node3 -->
<g id="edge3" class="edge">
<title>Node4&#45;&gt;Node3</title>
<path fill="none" stroke="#9a32cd" stroke-dasharray="5,2" d="M921.5,-256.77C990.23,-256.42 1092.14,-255.89 1161.74,-255.54"/>
<polygon fill="#9a32cd" stroke="#9a32cd" points="921.17,-253.27 911.19,-256.82 921.21,-260.27 921.17,-253.27"/>
<text text-anchor="middle" x="1043" y="-259.15" font-family="Helvetica,sans-Serif" font-size="10.00"> items</text>
</g>
<!-- Node5 -->
<g id="node5" class="node">
<title>Node5</title>
<g id="a_node5"><a xlink:href="structfiftyone_degrees_header_segment_array.html" target="_top" xlink:title="Array of items of type fiftyoneDegreesHeaderSegment used to easily access and track the size of the a...">
<polygon fill="none" stroke="black" points="493.5,-242.15 493.5,-272.15 666.5,-272.15 666.5,-242.15 493.5,-242.15"/>
<text text-anchor="start" x="501.5" y="-260.15" font-family="Helvetica,sans-Serif" font-size="10.00">fiftyoneDegreesHeaderSegment</text>
<text text-anchor="middle" x="580" y="-249.15" font-family="Helvetica,sans-Serif" font-size="10.00">Array</text>
</a>
</g>
</g>
<!-- Node5&#45;&gt;Node4 -->
<g id="edge4" class="edge">
<title>Node5&#45;&gt;Node4</title>
<path fill="none" stroke="#9a32cd" stroke-dasharray="5,2" d="M676.73,-257.15C711.63,-257.15 750.21,-257.15 781.67,-257.15"/>
<polygon fill="#9a32cd" stroke="#9a32cd" points="676.51,-253.65 666.51,-257.15 676.51,-260.65 676.51,-253.65"/>
<text text-anchor="middle" x="714" y="-260.15" font-family="Helvetica,sans-Serif" font-size="10.00"> segments</text>
</g>
<!-- Node6 -->
<g id="node6" class="node">
<title>Node6</title>
<g id="a_node6"><a xlink:href="structfiftyone_degrees_header_segment.html" target="_top" xlink:title="Null or PSEUDO_HEADER_SEP terminated string segment within a header.">
<polygon fill="none" stroke="black" points="181,-247.65 181,-266.65 354,-266.65 354,-247.65 181,-247.65"/>
<text text-anchor="middle" x="267.5" y="-254.65" font-family="Helvetica,sans-Serif" font-size="10.00">fiftyoneDegreesHeaderSegment</text>
</a>
</g>
</g>
<!-- Node6&#45;&gt;Node5 -->
<g id="edge5" class="edge">
<title>Node6&#45;&gt;Node5</title>
<path fill="none" stroke="#9a32cd" stroke-dasharray="5,2" d="M364.22,-257.15C405.46,-257.15 453.3,-257.15 493.34,-257.15"/>
<polygon fill="#9a32cd" stroke="#9a32cd" points="364.17,-253.65 354.17,-257.15 364.17,-260.65 364.17,-253.65"/>
<text text-anchor="middle" x="423.5" y="-260.15" font-family="Helvetica,sans-Serif" font-size="10.00"> items</text>
</g>
<!-- Node7 -->
<g id="node7" class="node">
<title>Node7</title>
<g id="a_node7"><a xlink:href="structfiftyone_degrees_resource_handle.html" target="_top" xlink:title="Handle for a shared resource.">
<polygon fill="none" stroke="black" points="1153,-287.65 1153,-306.65 1326,-306.65 1326,-287.65 1153,-287.65"/>
<text text-anchor="middle" x="1239.5" y="-294.65" font-family="Helvetica,sans-Serif" font-size="10.00">fiftyoneDegreesResourceHandle</text>
</a>
</g>
</g>
<!-- Node7&#45;&gt;Node2 -->
<g id="edge6" class="edge">
<title>Node7&#45;&gt;Node2</title>
<path fill="none" stroke="#9a32cd" stroke-dasharray="5,2" d="M1291.31,-285.01C1303.43,-281.78 1316.25,-278.08 1328,-274.15 1371.28,-259.65 1382.08,-255.36 1423,-235.15 1457.25,-218.23 1495.46,-194.79 1515.99,-181.8"/>
<polygon fill="#9a32cd" stroke="#9a32cd" points="1290.14,-281.7 1281.34,-287.6 1291.9,-288.47 1290.14,-281.7"/>
<text text-anchor="middle" x="1384.5" y="-270.15" font-family="Helvetica,sans-Serif" font-size="10.00"> handle</text>
</g>
<!-- Node8 -->
<g id="node8" class="node">
<title>Node8</title>
<g id="a_node8"><a xlink:href="structfiftyone_degrees_resource_manager.html" target="_top" xlink:title="Manager structure used to provide access to a shared and changing resource.">
<polygon fill="none" stroke="black" points="1441,-301.65 1441,-320.65 1623,-320.65 1623,-301.65 1441,-301.65"/>
<text text-anchor="middle" x="1532" y="-308.65" font-family="Helvetica,sans-Serif" font-size="10.00">fiftyoneDegreesResourceManager</text>
</a>
</g>
</g>
<!-- Node7&#45;&gt;Node8 -->
<g id="edge8" class="edge">
<title>Node7&#45;&gt;Node8</title>
<path fill="none" stroke="#9a32cd" stroke-dasharray="5,2" d="M1336.22,-291.29C1364.23,-290.59 1394.87,-290.82 1423,-293.15 1443.18,-294.82 1465.26,-298.21 1484.16,-301.61"/>
<polygon fill="#9a32cd" stroke="#9a32cd" points="1335.92,-287.8 1326.03,-291.59 1336.13,-294.8 1335.92,-287.8"/>
<text text-anchor="middle" x="1384.5" y="-296.15" font-family="Helvetica,sans-Serif" font-size="10.00"> active</text>
</g>
<!-- Node8&#45;&gt;Node7 -->
<g id="edge7" class="edge">
<title>Node8&#45;&gt;Node7</title>
<path fill="none" stroke="#9a32cd" stroke-dasharray="5,2" d="M1430.62,-309.49C1403.17,-308.75 1373.43,-307.68 1346,-306.15 1339.58,-305.78 1332.94,-305.35 1326.26,-304.88"/>
<polygon fill="#9a32cd" stroke="#9a32cd" points="1430.54,-312.99 1440.62,-309.75 1430.72,-306 1430.54,-312.99"/>
<text text-anchor="middle" x="1384.5" y="-312.15" font-family="Helvetica,sans-Serif" font-size="10.00"> manager</text>
</g>
<!-- Node9 -->
<g id="node9" class="node">
<title>Node9</title>
<g id="a_node9"><a xlink:href="structfiftyone_degrees_interlock_double_width.html" target="_top" xlink:title="Double width (64 or 128 depending on the architecture) compare and exchange.">
<polygon fill="none" stroke="black" points="778,-286.15 778,-316.15 915,-316.15 915,-286.15 778,-286.15"/>
<text text-anchor="start" x="786" y="-304.15" font-family="Helvetica,sans-Serif" font-size="10.00">fiftyoneDegreesInterlock</text>
<text text-anchor="middle" x="846.5" y="-293.15" font-family="Helvetica,sans-Serif" font-size="10.00">DoubleWidth</text>
</a>
</g>
</g>
<!-- Node9&#45;&gt;Node7 -->
<g id="edge9" class="edge">
<title>Node9&#45;&gt;Node7</title>
<path fill="none" stroke="#9a32cd" stroke-dasharray="5,2" d="M925.46,-300.35C991.18,-299.68 1085.1,-298.71 1152.89,-298.02"/>
<polygon fill="#9a32cd" stroke="#9a32cd" points="925.12,-296.85 915.16,-300.45 925.2,-303.85 925.12,-296.85"/>
<text text-anchor="middle" x="1043" y="-302.15" font-family="Helvetica,sans-Serif" font-size="10.00"> counter</text>
</g>
<!-- Node10 -->
<g id="node10" class="node">
<title>Node10</title>
<g id="a_node10"><a xlink:href="structfiftyone_degrees_file_pool.html" target="_top" xlink:title="Stack of handles used to read data from a single source file.">
<polygon fill="none" stroke="black" points="1173.5,-162.65 1173.5,-181.65 1305.5,-181.65 1305.5,-162.65 1173.5,-162.65"/>
<text text-anchor="middle" x="1239.5" y="-169.65" font-family="Helvetica,sans-Serif" font-size="10.00">fiftyoneDegreesFilePool</text>
</a>
</g>
</g>
<!-- Node10&#45;&gt;Node2 -->
<g id="edge10" class="edge">
<title>Node10&#45;&gt;Node2</title>
<path fill="none" stroke="#9a32cd" stroke-dasharray="5,2" d="M1315.92,-172.15C1358.18,-172.15 1410.78,-172.15 1453.39,-172.15"/>
<polygon fill="#9a32cd" stroke="#9a32cd" points="1315.69,-168.65 1305.69,-172.15 1315.69,-175.65 1315.69,-168.65"/>
<text text-anchor="middle" x="1384.5" y="-175.15" font-family="Helvetica,sans-Serif" font-size="10.00"> filePool</text>
</g>
<!-- Node11 -->
<g id="node11" class="node">
<title>Node11</title>
<g id="a_node11"><a xlink:href="structfiftyone_degrees_pool.html" target="_top" xlink:title="Pool of resources stored as items in a stack.">
<polygon fill="none" stroke="black" points="789,-180.65 789,-199.65 904,-199.65 904,-180.65 789,-180.65"/>
<text text-anchor="middle" x="846.5" y="-187.65" font-family="Helvetica,sans-Serif" font-size="10.00">fiftyoneDegreesPool</text>
</a>
</g>
</g>
<!-- Node11&#45;&gt;Node10 -->
<g id="edge11" class="edge">
<title>Node11&#45;&gt;Node10</title>
<path fill="none" stroke="#9a32cd" stroke-dasharray="5,2" d="M880.39,-177.02C900.9,-169.56 928.06,-160.96 953,-157.15 1032.36,-145.02 1125.41,-154.21 1183.17,-162.61"/>
<polygon fill="#9a32cd" stroke="#9a32cd" points="879.04,-173.79 870.9,-180.57 881.49,-180.35 879.04,-173.79"/>
<text text-anchor="middle" x="1043" y="-160.15" font-family="Helvetica,sans-Serif" font-size="10.00"> pool</text>
</g>
<!-- Node11&#45;&gt;Node11 -->
<g id="edge12" class="edge">
<title>Node11&#45;&gt;Node11</title>
<path fill="none" stroke="#9a32cd" stroke-dasharray="5,2" d="M821.95,-209.17C823.29,-214.27 831.47,-218.15 846.5,-218.15 869.96,-218.15 876.74,-208.71 866.85,-199.9"/>
<polygon fill="#9a32cd" stroke="#9a32cd" points="825.21,-210.46 826.15,-199.9 818.83,-207.56 825.21,-210.46"/>
<text text-anchor="middle" x="846.5" y="-221.15" font-family="Helvetica,sans-Serif" font-size="10.00"> resourceFree</text>
</g>
<!-- Node13 -->
<g id="node13" class="node">
<title>Node13</title>
<g id="a_node13"><a xlink:href="structfiftyone_degrees_pool_item.html" target="_top" xlink:title="Pool item node in the stack of items.">
<polygon fill="none" stroke="black" points="1171,-205.65 1171,-224.65 1308,-224.65 1308,-205.65 1171,-205.65"/>
<text text-anchor="middle" x="1239.5" y="-212.65" font-family="Helvetica,sans-Serif" font-size="10.00">fiftyoneDegreesPoolItem</text>
</a>
</g>
</g>
<!-- Node11&#45;&gt;Node13 -->
<g id="edge15" class="edge">
<title>Node11&#45;&gt;Node13</title>
<path fill="none" stroke="#9a32cd" stroke-dasharray="5,2" d="M914.22,-185.25C972.26,-182.1 1058.5,-180.1 1133,-189.15 1158.66,-192.26 1187.07,-199.49 1207.94,-205.53"/>
<polygon fill="#9a32cd" stroke="#9a32cd" points="913.86,-181.77 904.08,-185.83 914.26,-188.75 913.86,-181.77"/>
<text text-anchor="middle" x="1043" y="-192.15" font-family="Helvetica,sans-Serif" font-size="10.00"> pool</text>
</g>
<!-- Node12 -->
<g id="node12" class="node">
<title>Node12</title>
<g id="a_node12"><a xlink:href="unionfiftyone_degrees_pool_head.html" target="_top" xlink:title="The head of the stack used for pop and push operations.">
<polygon fill="none" stroke="black" points="510,-180.65 510,-199.65 650,-199.65 650,-180.65 510,-180.65"/>
<text text-anchor="middle" x="580" y="-187.65" font-family="Helvetica,sans-Serif" font-size="10.00">fiftyoneDegreesPoolHead</text>
</a>
</g>
</g>
<!-- Node12&#45;&gt;Node11 -->
<g id="edge13" class="edge">
<title>Node12&#45;&gt;Node11</title>
<path fill="none" stroke="#9a32cd" stroke-dasharray="5,2" d="M660.2,-190.15C701.59,-190.15 751.28,-190.15 788.78,-190.15"/>
<polygon fill="#9a32cd" stroke="#9a32cd" points="660.15,-186.65 650.15,-190.15 660.15,-193.65 660.15,-186.65"/>
<text text-anchor="middle" x="714" y="-193.15" font-family="Helvetica,sans-Serif" font-size="10.00"> head</text>
</g>
<!-- Node13&#45;&gt;Node11 -->
<g id="edge14" class="edge">
<title>Node13&#45;&gt;Node11</title>
<path fill="none" stroke="#9a32cd" stroke-dasharray="5,2" d="M1160.83,-213.03C1103.37,-211.12 1023.22,-207.73 953,-202.15 937.1,-200.88 919.91,-199.1 904.1,-197.3"/>
<polygon fill="#9a32cd" stroke="#9a32cd" points="1160.82,-216.53 1170.93,-213.36 1161.05,-209.54 1160.82,-216.53"/>
<text text-anchor="middle" x="1043" y="-214.15" font-family="Helvetica,sans-Serif" font-size="10.00"> stack</text>
</g>
<!-- Node14 -->
<g id="node14" class="node">
<title>Node14</title>
<g id="a_node14"><a xlink:href="structfiftyone_degrees_override_property_array.html" target="_top" xlink:title="Array of items of type fiftyoneDegreesOverrideProperty used to easily access and track the size of th...">
<polygon fill="none" stroke="black" points="1151,-113.15 1151,-143.15 1328,-143.15 1328,-113.15 1151,-113.15"/>
<text text-anchor="start" x="1159" y="-131.15" font-family="Helvetica,sans-Serif" font-size="10.00">fiftyoneDegreesOverrideProperty</text>
<text text-anchor="middle" x="1239.5" y="-120.15" font-family="Helvetica,sans-Serif" font-size="10.00">Array</text>
</a>
</g>
</g>
<!-- Node14&#45;&gt;Node2 -->
<g id="edge16" class="edge">
<title>Node14&#45;&gt;Node2</title>
<path fill="none" stroke="#9a32cd" stroke-dasharray="5,2" d="M1337.96,-142.91C1380.89,-149.41 1430.09,-156.86 1468.07,-162.61"/>
<polygon fill="#9a32cd" stroke="#9a32cd" points="1338.46,-139.44 1328.05,-141.41 1337.42,-146.36 1338.46,-139.44"/>
<text text-anchor="middle" x="1384.5" y="-158.15" font-family="Helvetica,sans-Serif" font-size="10.00"> overridable</text>
</g>
<!-- Node15 -->
<g id="node15" class="node">
<title>Node15</title>
<g id="a_node15"><a xlink:href="structfiftyone_degrees_override_property.html" target="_top" xlink:title="Index and pointer to a property which can be overridden.">
<polygon fill="none" stroke="black" points="758,-112.65 758,-131.65 935,-131.65 935,-112.65 758,-112.65"/>
<text text-anchor="middle" x="846.5" y="-119.65" font-family="Helvetica,sans-Serif" font-size="10.00">fiftyoneDegreesOverrideProperty</text>
</a>
</g>
</g>
<!-- Node15&#45;&gt;Node14 -->
<g id="edge17" class="edge">
<title>Node15&#45;&gt;Node14</title>
<path fill="none" stroke="#9a32cd" stroke-dasharray="5,2" d="M945.41,-121.43C1000.53,-121.29 1070.61,-121.56 1133,-123.15 1138.77,-123.29 1144.72,-123.48 1150.72,-123.69"/>
<polygon fill="#9a32cd" stroke="#9a32cd" points="945.29,-117.93 935.3,-121.46 945.31,-124.93 945.29,-117.93"/>
<text text-anchor="middle" x="1043" y="-126.15" font-family="Helvetica,sans-Serif" font-size="10.00"> items</text>
</g>
<!-- Node16 -->
<g id="node16" class="node">
<title>Node16</title>
<g id="a_node16"><a xlink:href="structfiftyone_degrees_property_available.html" target="_top" xlink:title="Used to access the property item quickly without the need to search.">
<polygon fill="none" stroke="black" points="490,-92.65 490,-111.65 670,-111.65 670,-92.65 490,-92.65"/>
<text text-anchor="middle" x="580" y="-99.65" font-family="Helvetica,sans-Serif" font-size="10.00">fiftyoneDegreesPropertyAvailable</text>
</a>
</g>
</g>
<!-- Node16&#45;&gt;Node15 -->
<g id="edge18" class="edge">
<title>Node16&#45;&gt;Node15</title>
<path fill="none" stroke="#9a32cd" stroke-dasharray="5,2" d="M680.2,-109.65C705.63,-111.57 732.8,-113.62 757.61,-115.5"/>
<polygon fill="#9a32cd" stroke="#9a32cd" points="680.41,-106.15 670.18,-108.89 679.89,-113.13 680.41,-106.15"/>
<text text-anchor="middle" x="714" y="-116.15" font-family="Helvetica,sans-Serif" font-size="10.00"> available</text>
</g>
<!-- Node21 -->
<g id="node21" class="node">
<title>Node21</title>
<g id="a_node21"><a xlink:href="structfiftyone_degrees_property_available_array.html" target="_top" xlink:title="Array of items of type fiftyoneDegreesPropertyAvailable used to easily access and track the size of t...">
<polygon fill="none" stroke="black" points="953,-68.15 953,-98.15 1133,-98.15 1133,-68.15 953,-68.15"/>
<text text-anchor="start" x="961" y="-86.15" font-family="Helvetica,sans-Serif" font-size="10.00">fiftyoneDegreesPropertyAvailable</text>
<text text-anchor="middle" x="1043" y="-75.15" font-family="Helvetica,sans-Serif" font-size="10.00">Array</text>
</a>
</g>
</g>
<!-- Node16&#45;&gt;Node21 -->
<g id="edge26" class="edge">
<title>Node16&#45;&gt;Node21</title>
<path fill="none" stroke="#9a32cd" stroke-dasharray="5,2" d="M680.22,-95.55C682.84,-95.41 685.44,-95.27 688,-95.15 778.13,-90.67 881.25,-87.38 952.86,-85.39"/>
<polygon fill="#9a32cd" stroke="#9a32cd" points="679.82,-92.06 670.03,-96.11 680.2,-99.05 679.82,-92.06"/>
<text text-anchor="middle" x="714" y="-98.15" font-family="Helvetica,sans-Serif" font-size="10.00"> items</text>
</g>
<!-- Node17 -->
<g id="node17" class="node">
<title>Node17</title>
<g id="a_node17"><a xlink:href="structfiftyone_degrees_evidence_property_index_array.html" target="_top" xlink:title="Array of items of type fiftyoneDegreesEvidencePropertyIndex used to easily access and track the size ...">
<polygon fill="none" stroke="black" points="178,-91.15 178,-121.15 357,-121.15 357,-91.15 178,-91.15"/>
<text text-anchor="start" x="186" y="-109.15" font-family="Helvetica,sans-Serif" font-size="10.00">fiftyoneDegreesEvidenceProperty</text>
<text text-anchor="middle" x="267.5" y="-98.15" font-family="Helvetica,sans-Serif" font-size="10.00">IndexArray</text>
</a>
</g>
</g>
<!-- Node17&#45;&gt;Node16 -->
<g id="edge19" class="edge">
<title>Node17&#45;&gt;Node16</title>
<path fill="none" stroke="#9a32cd" stroke-dasharray="5,2" d="M367.2,-104.87C406.52,-104.37 451.45,-103.79 489.78,-103.29"/>
<polygon fill="#9a32cd" stroke="#9a32cd" points="367.02,-101.38 357.06,-105 367.11,-108.38 367.02,-101.38"/>
<text text-anchor="middle" x="423.5" y="-108.15" font-family="Helvetica,sans-Serif" font-size="10.00"> evidenceProperties</text>
</g>
<!-- Node18 -->
<g id="node18" class="node">
<title>Node18</title>
<g id="a_node18"><a xlink:href="structfiftyone_degrees_collection_item.html" target="_top" xlink:title="Used to store a handle to the underlying item that could be used to release the item when it&#39;s finish...">
<polygon fill="none" stroke="black" points="185,-28.65 185,-47.65 350,-47.65 350,-28.65 185,-28.65"/>
<text text-anchor="middle" x="267.5" y="-35.65" font-family="Helvetica,sans-Serif" font-size="10.00">fiftyoneDegreesCollectionItem</text>
</a>
</g>
</g>
<!-- Node18&#45;&gt;Node16 -->
<g id="edge20" class="edge">
<title>Node18&#45;&gt;Node16</title>
<path fill="none" stroke="#9a32cd" stroke-dasharray="5,2" d="M324.64,-49.72C384.25,-62 477.36,-81.19 532.85,-92.63"/>
<polygon fill="#9a32cd" stroke="#9a32cd" points="325.15,-46.25 314.65,-47.66 323.74,-53.1 325.15,-46.25"/>
<text text-anchor="middle" x="423.5" y="-83.15" font-family="Helvetica,sans-Serif" font-size="10.00"> name</text>
</g>
<!-- Node19 -->
<g id="node19" class="node">
<title>Node19</title>
<g id="a_node19"><a xlink:href="structfiftyone_degrees_collection.html" target="_top" xlink:title="All the shared methods and fields required by file, memory and cached collections.">
<polygon fill="none" stroke="black" points="508.5,-0.65 508.5,-19.65 651.5,-19.65 651.5,-0.65 508.5,-0.65"/>
<text text-anchor="middle" x="580" y="-7.65" font-family="Helvetica,sans-Serif" font-size="10.00">fiftyoneDegreesCollection</text>
</a>
</g>
</g>
<!-- Node18&#45;&gt;Node19 -->
<g id="edge22" class="edge">
<title>Node18&#45;&gt;Node19</title>
<path fill="none" stroke="#9a32cd" stroke-dasharray="5,2" d="M301.72,-25.02C322.43,-17.56 349.84,-8.95 375,-5.15 418.96,1.51 468.85,0.44 508.28,-2.38"/>
<polygon fill="#9a32cd" stroke="#9a32cd" points="300.29,-21.82 292.13,-28.57 302.72,-28.38 300.29,-21.82"/>
<text text-anchor="middle" x="423.5" y="-8.15" font-family="Helvetica,sans-Serif" font-size="10.00"> release</text>
</g>
<!-- Node19&#45;&gt;Node18 -->
<g id="edge21" class="edge">
<title>Node19&#45;&gt;Node18</title>
<path fill="none" stroke="#9a32cd" stroke-dasharray="5,2" d="M498.11,-17.44C452.53,-21.55 395.77,-26.67 350.08,-30.79"/>
<polygon fill="#9a32cd" stroke="#9a32cd" points="498.6,-20.91 508.25,-16.53 497.97,-13.94 498.6,-20.91"/>
<text text-anchor="middle" x="423.5" y="-32.15" font-family="Helvetica,sans-Serif" font-size="10.00"> collection</text>
</g>
<!-- Node19&#45;&gt;Node19 -->
<g id="edge23" class="edge">
<title>Node19&#45;&gt;Node19</title>
<path fill="none" stroke="#9a32cd" stroke-dasharray="5,2" d="M555.07,-29.17C556.43,-34.27 564.74,-38.15 580,-38.15 603.82,-38.15 610.7,-28.71 600.65,-19.9"/>
<polygon fill="#9a32cd" stroke="#9a32cd" points="558.34,-30.45 559.35,-19.9 551.98,-27.52 558.34,-30.45"/>
<text text-anchor="middle" x="580" y="-63.15" font-family="Helvetica,sans-Serif" font-size="10.00"> next</text>
<text text-anchor="middle" x="580" y="-52.15" font-family="Helvetica,sans-Serif" font-size="10.00">freeCollection</text>
<text text-anchor="middle" x="580" y="-41.15" font-family="Helvetica,sans-Serif" font-size="10.00">get</text>
</g>
<!-- Node20 -->
<g id="node20" class="node">
<title>Node20</title>
<g id="a_node20"><a xlink:href="structfiftyone_degrees_data.html" target="_top" xlink:title="Data structure used for reusing memory which may have been allocated in a previous operation.">
<polygon fill="none" stroke="black" points="0,-28.65 0,-47.65 117,-47.65 117,-28.65 0,-28.65"/>
<text text-anchor="middle" x="58.5" y="-35.65" font-family="Helvetica,sans-Serif" font-size="10.00">fiftyoneDegreesData</text>
</a>
</g>
</g>
<!-- Node20&#45;&gt;Node18 -->
<g id="edge24" class="edge">
<title>Node20&#45;&gt;Node18</title>
<path fill="none" stroke="#9a32cd" stroke-dasharray="5,2" d="M127.19,-38.15C145.58,-38.15 165.7,-38.15 184.78,-38.15"/>
<polygon fill="#9a32cd" stroke="#9a32cd" points="127.16,-34.65 117.16,-38.15 127.16,-41.65 127.16,-34.65"/>
<text text-anchor="middle" x="147.5" y="-41.15" font-family="Helvetica,sans-Serif" font-size="10.00"> data</text>
</g>
<!-- Node21&#45;&gt;Node2 -->
<g id="edge25" class="edge">
<title>Node21&#45;&gt;Node2</title>
<path fill="none" stroke="#9a32cd" stroke-dasharray="5,2" d="M1143.27,-78.55C1198.24,-78.02 1267.5,-80.68 1328,-93.15 1399.12,-107.8 1477.75,-144.91 1512.62,-162.55"/>
<polygon fill="#9a32cd" stroke="#9a32cd" points="1143.13,-75.05 1133.18,-78.68 1143.22,-82.05 1143.13,-75.05"/>
<text text-anchor="middle" x="1239.5" y="-96.15" font-family="Helvetica,sans-Serif" font-size="10.00"> available</text>
</g>
</g>
</svg>
