<?xml version="1.0" encoding="UTF-8" standalone="no"?>
<!DOCTYPE svg PUBLIC "-//W3C//DTD SVG 1.1//EN"
 "http://www.w3.org/Graphics/SVG/1.1/DTD/svg11.dtd">
<!-- Generated by graphviz version 2.43.0 (0)
 -->
<!-- Title: fiftyoneDegreesHeader Pages: 1 -->
<svg width="181pt" height="173pt"
 viewBox="0.00 0.00 181.00 173.00" xmlns="http://www.w3.org/2000/svg" xmlns:xlink="http://www.w3.org/1999/xlink">
<g id="graph0" class="graph" transform="scale(1 1) rotate(0) translate(4 169)">
<title>fiftyoneDegreesHeader</title>
<!-- Node1 -->
<g id="node1" class="node">
<title>Node1</title>
<g id="a_node1"><a xlink:title="Header structure to identify a header that either comes directly from the data set,...">
<polygon fill="#bfbfbf" stroke="black" points="22,-0.5 22,-19.5 151,-19.5 151,-0.5 22,-0.5"/>
<text text-anchor="middle" x="86.5" y="-7.5" font-family="Helvetica,sans-Serif" font-size="10.00">fiftyoneDegreesHeader</text>
</a>
</g>
</g>
<!-- Node2 -->
<g id="node2" class="node">
<title>Node2</title>
<g id="a_node2"><a xlink:href="structfiftyone_degrees_header_segment_array.html" target="_top" xlink:title="Array of items of type fiftyoneDegreesHeaderSegment used to easily access and track the size of the a...">
<polygon fill="none" stroke="black" points="0,-67.5 0,-97.5 173,-97.5 173,-67.5 0,-67.5"/>
<text text-anchor="start" x="8" y="-85.5" font-family="Helvetica,sans-Serif" font-size="10.00">fiftyoneDegreesHeaderSegment</text>
<text text-anchor="middle" x="86.5" y="-74.5" font-family="Helvetica,sans-Serif" font-size="10.00">Array</text>
</a>
</g>
</g>
<!-- Node2&#45;&gt;Node1 -->
<g id="edge1" class="edge">
<title>Node2&#45;&gt;Node1</title>
<path fill="none" stroke="#9a32cd" stroke-dasharray="5,2" d="M86.5,-57.09C86.5,-44.21 86.5,-29.2 86.5,-19.89"/>
<polygon fill="#9a32cd" stroke="#9a32cd" points="83,-57.23 86.5,-67.23 90,-57.23 83,-57.23"/>
<text text-anchor="middle" x="112.5" y="-41" font-family="Helvetica,sans-Serif" font-size="10.00"> segments</text>
</g>
<!-- Node3 -->
<g id="node3" class="node">
<title>Node3</title>
<g id="a_node3"><a xlink:href="structfiftyone_degrees_header_segment.html" target="_top" xlink:title="Null or PSEUDO_HEADER_SEP terminated string segment within a header.">
<polygon fill="none" stroke="black" points="0,-145.5 0,-164.5 173,-164.5 173,-145.5 0,-145.5"/>
<text text-anchor="middle" x="86.5" y="-152.5" font-family="Helvetica,sans-Serif" font-size="10.00">fiftyoneDegreesHeaderSegment</text>
</a>
</g>
</g>
<!-- Node3&#45;&gt;Node2 -->
<g id="edge2" class="edge">
<title>Node3&#45;&gt;Node2</title>
<path fill="none" stroke="#9a32cd" stroke-dasharray="5,2" d="M86.5,-135.24C86.5,-123.41 86.5,-108.38 86.5,-97.58"/>
<polygon fill="#9a32cd" stroke="#9a32cd" points="83,-135.36 86.5,-145.36 90,-135.36 83,-135.36"/>
<text text-anchor="middle" x="102" y="-119" font-family="Helvetica,sans-Serif" font-size="10.00"> items</text>
</g>
</g>
</svg>
