<?xml version="1.0" encoding="UTF-8" standalone="no"?>
<!DOCTYPE svg PUBLIC "-//W3C//DTD SVG 1.1//EN"
 "http://www.w3.org/Graphics/SVG/1.1/DTD/svg11.dtd">
<!-- Generated by graphviz version 2.43.0 (0)
 -->
<!-- Title: fiftyoneDegreesDataSetHash Pages: 1 -->
<svg width="2197pt" height="612pt"
 viewBox="0.00 0.00 2197.00 611.50" xmlns="http://www.w3.org/2000/svg" xmlns:xlink="http://www.w3.org/1999/xlink">
<g id="graph0" class="graph" transform="scale(1 1) rotate(0) translate(4 607.5)">
<title>fiftyoneDegreesDataSetHash</title>
<!-- Node1 -->
<g id="node1" class="node">
<title>Node1</title>
<g id="a_node1"><a xlink:title="Data set structure containing all the components used for detections.">
<polygon fill="#bfbfbf" stroke="black" points="2031,-330 2031,-349 2189,-349 2189,-330 2031,-330"/>
<text text-anchor="middle" x="2110" y="-337" font-family="Helvetica,sans-Serif" font-size="10.00">fiftyoneDegreesDataSetHash</text>
</a>
</g>
</g>
<!-- Node2 -->
<g id="node2" class="node">
<title>Node2</title>
<g id="a_node2"><a xlink:href="structfiftyone_degrees_list.html" target="_top" xlink:title="List structure which contains a list of collection items.">
<polygon fill="none" stroke="black" points="688,-574 688,-593 799,-593 799,-574 688,-574"/>
<text text-anchor="middle" x="743.5" y="-581" font-family="Helvetica,sans-Serif" font-size="10.00">fiftyoneDegreesList</text>
</a>
</g>
</g>
<!-- Node2&#45;&gt;Node1 -->
<g id="edge1" class="edge">
<title>Node2&#45;&gt;Node1</title>
<path fill="none" stroke="#9a32cd" stroke-dasharray="5,2" d="M809.34,-586.12C880.78,-588.78 999.06,-592.5 1101,-592.5 1101,-592.5 1101,-592.5 1875.5,-592.5 2010.58,-592.5 2089.14,-395.32 2105.7,-349.11"/>
<polygon fill="#9a32cd" stroke="#9a32cd" points="809.27,-582.62 799.15,-585.74 809.01,-589.61 809.27,-582.62"/>
<text text-anchor="middle" x="1445.5" y="-595.5" font-family="Helvetica,sans-Serif" font-size="10.00"> componentsList</text>
</g>
<!-- Node3 -->
<g id="node3" class="node">
<title>Node3</title>
<g id="a_node3"><a xlink:href="structfiftyone_degrees_collection_item.html" target="_top" xlink:title="Used to store a handle to the underlying item that could be used to release the item when it&#39;s finish...">
<polygon fill="none" stroke="black" points="185,-461 185,-480 350,-480 350,-461 185,-461"/>
<text text-anchor="middle" x="267.5" y="-468" font-family="Helvetica,sans-Serif" font-size="10.00">fiftyoneDegreesCollectionItem</text>
</a>
</g>
</g>
<!-- Node3&#45;&gt;Node2 -->
<g id="edge2" class="edge">
<title>Node3&#45;&gt;Node2</title>
<path fill="none" stroke="#9a32cd" stroke-dasharray="5,2" d="M304.31,-483.49C347.75,-498.87 423.45,-524.4 490,-540.5 557.42,-556.81 636.44,-569.21 687.88,-576.41"/>
<polygon fill="#9a32cd" stroke="#9a32cd" points="305.36,-480.15 294.76,-480.1 303.01,-486.75 305.36,-480.15"/>
<text text-anchor="middle" x="423.5" y="-537.5" font-family="Helvetica,sans-Serif" font-size="10.00"> items</text>
</g>
<!-- Node4 -->
<g id="node4" class="node">
<title>Node4</title>
<g id="a_node4"><a xlink:href="structfiftyone_degrees_collection.html" target="_top" xlink:title="All the shared methods and fields required by file, memory and cached collections.">
<polygon fill="none" stroke="black" points="508.5,-461 508.5,-480 651.5,-480 651.5,-461 508.5,-461"/>
<text text-anchor="middle" x="580" y="-468" font-family="Helvetica,sans-Serif" font-size="10.00">fiftyoneDegreesCollection</text>
</a>
</g>
</g>
<!-- Node3&#45;&gt;Node4 -->
<g id="edge4" class="edge">
<title>Node3&#45;&gt;Node4</title>
<path fill="none" stroke="#9a32cd" stroke-dasharray="5,2" d="M335.81,-459.57C348.78,-457.87 362.29,-456.39 375,-455.5 418.01,-452.49 428.99,-452.5 472,-455.5 488.19,-456.63 505.65,-458.71 521.68,-460.97"/>
<polygon fill="#9a32cd" stroke="#9a32cd" points="334.99,-456.15 325.55,-460.97 335.93,-463.08 334.99,-456.15"/>
<text text-anchor="middle" x="423.5" y="-458.5" font-family="Helvetica,sans-Serif" font-size="10.00"> release</text>
</g>
<!-- Node24 -->
<g id="node24" class="node">
<title>Node24</title>
<g id="a_node24"><a xlink:href="structfiftyone_degrees_property_available.html" target="_top" xlink:title="Used to access the property item quickly without the need to search.">
<polygon fill="none" stroke="black" points="490,-102 490,-121 670,-121 670,-102 490,-102"/>
<text text-anchor="middle" x="580" y="-109" font-family="Helvetica,sans-Serif" font-size="10.00">fiftyoneDegreesPropertyAvailable</text>
</a>
</g>
</g>
<!-- Node3&#45;&gt;Node24 -->
<g id="edge30" class="edge">
<title>Node3&#45;&gt;Node24</title>
<path fill="none" stroke="#9a32cd" stroke-dasharray="5,2" d="M278.33,-452.17C306.12,-401.59 389.79,-257.74 490,-165.5 510.74,-146.41 539.26,-130.53 558.36,-121.04"/>
<polygon fill="#9a32cd" stroke="#9a32cd" points="275.23,-450.54 273.53,-461 281.38,-453.88 275.23,-450.54"/>
<text text-anchor="middle" x="423.5" y="-300.5" font-family="Helvetica,sans-Serif" font-size="10.00"> name</text>
</g>
<!-- Node4&#45;&gt;Node1 -->
<g id="edge33" class="edge">
<title>Node4&#45;&gt;Node1</title>
<path fill="none" stroke="#9a32cd" stroke-dasharray="5,2" d="M661.93,-470.5C727.36,-470.5 821.87,-470.5 904.5,-470.5 904.5,-470.5 904.5,-470.5 1875.5,-470.5 1974.51,-470.5 2070.41,-379.81 2099.83,-349.35"/>
<polygon fill="#9a32cd" stroke="#9a32cd" points="661.68,-467 651.68,-470.5 661.68,-474 661.68,-467"/>
<text text-anchor="middle" x="1445.5" y="-561.5" font-family="Helvetica,sans-Serif" font-size="10.00"> profileOffsets</text>
<text text-anchor="middle" x="1445.5" y="-550.5" font-family="Helvetica,sans-Serif" font-size="10.00">values</text>
<text text-anchor="middle" x="1445.5" y="-539.5" font-family="Helvetica,sans-Serif" font-size="10.00">strings</text>
<text text-anchor="middle" x="1445.5" y="-528.5" font-family="Helvetica,sans-Serif" font-size="10.00">maps</text>
<text text-anchor="middle" x="1445.5" y="-517.5" font-family="Helvetica,sans-Serif" font-size="10.00">components</text>
<text text-anchor="middle" x="1445.5" y="-506.5" font-family="Helvetica,sans-Serif" font-size="10.00">nodes</text>
<text text-anchor="middle" x="1445.5" y="-495.5" font-family="Helvetica,sans-Serif" font-size="10.00">properties</text>
<text text-anchor="middle" x="1445.5" y="-484.5" font-family="Helvetica,sans-Serif" font-size="10.00">rootNodes</text>
<text text-anchor="middle" x="1445.5" y="-473.5" font-family="Helvetica,sans-Serif" font-size="10.00">profiles</text>
</g>
<!-- Node4&#45;&gt;Node3 -->
<g id="edge3" class="edge">
<title>Node4&#45;&gt;Node3</title>
<path fill="none" stroke="#9a32cd" stroke-dasharray="5,2" d="M498.11,-470.5C452.53,-470.5 395.77,-470.5 350.08,-470.5"/>
<polygon fill="#9a32cd" stroke="#9a32cd" points="498.25,-474 508.25,-470.5 498.25,-467 498.25,-474"/>
<text text-anchor="middle" x="423.5" y="-473.5" font-family="Helvetica,sans-Serif" font-size="10.00"> collection</text>
</g>
<!-- Node4&#45;&gt;Node4 -->
<g id="edge5" class="edge">
<title>Node4&#45;&gt;Node4</title>
<path fill="none" stroke="#9a32cd" stroke-dasharray="5,2" d="M550.88,-489.15C552.1,-494.44 561.8,-498.5 580,-498.5 607.73,-498.5 615.74,-489.07 604.04,-480.26"/>
<polygon fill="#9a32cd" stroke="#9a32cd" points="554.04,-490.68 555.96,-480.26 547.96,-487.21 554.04,-490.68"/>
<text text-anchor="middle" x="580" y="-523.5" font-family="Helvetica,sans-Serif" font-size="10.00"> next</text>
<text text-anchor="middle" x="580" y="-512.5" font-family="Helvetica,sans-Serif" font-size="10.00">freeCollection</text>
<text text-anchor="middle" x="580" y="-501.5" font-family="Helvetica,sans-Serif" font-size="10.00">get</text>
</g>
<!-- Node5 -->
<g id="node5" class="node">
<title>Node5</title>
<g id="a_node5"><a xlink:href="structfiftyone_degrees_data.html" target="_top" xlink:title="Data structure used for reusing memory which may have been allocated in a previous operation.">
<polygon fill="none" stroke="black" points="0,-461 0,-480 117,-480 117,-461 0,-461"/>
<text text-anchor="middle" x="58.5" y="-468" font-family="Helvetica,sans-Serif" font-size="10.00">fiftyoneDegreesData</text>
</a>
</g>
</g>
<!-- Node5&#45;&gt;Node3 -->
<g id="edge6" class="edge">
<title>Node5&#45;&gt;Node3</title>
<path fill="none" stroke="#9a32cd" stroke-dasharray="5,2" d="M127.19,-470.5C145.58,-470.5 165.7,-470.5 184.78,-470.5"/>
<polygon fill="#9a32cd" stroke="#9a32cd" points="127.16,-467 117.16,-470.5 127.16,-474 127.16,-467"/>
<text text-anchor="middle" x="147.5" y="-473.5" font-family="Helvetica,sans-Serif" font-size="10.00"> data</text>
</g>
<!-- Node6 -->
<g id="node6" class="node">
<title>Node6</title>
<g id="a_node6"><a xlink:href="structfiftyone_degrees_data_set_hash_header.html" target="_top" xlink:title="Dataset header containing information about the dataset.">
<polygon fill="none" stroke="black" points="1795.5,-324.5 1795.5,-354.5 1953.5,-354.5 1953.5,-324.5 1795.5,-324.5"/>
<text text-anchor="start" x="1803.5" y="-342.5" font-family="Helvetica,sans-Serif" font-size="10.00">fiftyoneDegreesDataSetHash</text>
<text text-anchor="middle" x="1874.5" y="-331.5" font-family="Helvetica,sans-Serif" font-size="10.00">Header</text>
</a>
</g>
</g>
<!-- Node6&#45;&gt;Node1 -->
<g id="edge7" class="edge">
<title>Node6&#45;&gt;Node1</title>
<path fill="none" stroke="#9a32cd" stroke-dasharray="5,2" d="M1963.64,-339.5C1985.78,-339.5 2009.39,-339.5 2031,-339.5"/>
<polygon fill="#9a32cd" stroke="#9a32cd" points="1963.58,-336 1953.58,-339.5 1963.58,-343 1963.58,-336"/>
<text text-anchor="middle" x="1994.5" y="-342.5" font-family="Helvetica,sans-Serif" font-size="10.00"> header</text>
</g>
<!-- Node7 -->
<g id="node7" class="node">
<title>Node7</title>
<g id="a_node7"><a xlink:href="structfiftyone_degrees_date.html" target="_top" xlink:title="Used to store the date when the dataset was produced and next date 51Degrees expect to provide a new ...">
<polygon fill="none" stroke="black" points="1536.5,-303 1536.5,-322 1653.5,-322 1653.5,-303 1536.5,-303"/>
<text text-anchor="middle" x="1595" y="-310" font-family="Helvetica,sans-Serif" font-size="10.00">fiftyoneDegreesDate</text>
</a>
</g>
</g>
<!-- Node7&#45;&gt;Node6 -->
<g id="edge8" class="edge">
<title>Node7&#45;&gt;Node6</title>
<path fill="none" stroke="#9a32cd" stroke-dasharray="5,2" d="M1663.59,-312.69C1696.67,-313.41 1737.02,-315.24 1773,-319.5 1783.6,-320.76 1794.75,-322.52 1805.61,-324.49"/>
<polygon fill="#9a32cd" stroke="#9a32cd" points="1663.64,-309.19 1653.57,-312.5 1663.5,-316.19 1663.64,-309.19"/>
<text text-anchor="middle" x="1738.5" y="-333.5" font-family="Helvetica,sans-Serif" font-size="10.00"> nextUpdate</text>
<text text-anchor="middle" x="1738.5" y="-322.5" font-family="Helvetica,sans-Serif" font-size="10.00">published</text>
</g>
<!-- Node8 -->
<g id="node8" class="node">
<title>Node8</title>
<g id="a_node8"><a xlink:href="structfiftyone_degrees_collection_header.html" target="_top" xlink:title="Collection header structure which defines the size and location of the collection data.">
<polygon fill="none" stroke="black" points="1523.5,-341.5 1523.5,-371.5 1666.5,-371.5 1666.5,-341.5 1523.5,-341.5"/>
<text text-anchor="start" x="1531.5" y="-359.5" font-family="Helvetica,sans-Serif" font-size="10.00">fiftyoneDegreesCollection</text>
<text text-anchor="middle" x="1595" y="-348.5" font-family="Helvetica,sans-Serif" font-size="10.00">Header</text>
</a>
</g>
</g>
<!-- Node8&#45;&gt;Node6 -->
<g id="edge9" class="edge">
<title>Node8&#45;&gt;Node6</title>
<path fill="none" stroke="#9a32cd" stroke-dasharray="5,2" d="M1677.05,-351.54C1714.25,-349.26 1758.18,-346.56 1795.06,-344.31"/>
<polygon fill="#9a32cd" stroke="#9a32cd" points="1676.51,-348.06 1666.74,-352.17 1676.94,-355.05 1676.51,-348.06"/>
<text text-anchor="middle" x="1738.5" y="-440.5" font-family="Helvetica,sans-Serif" font-size="10.00"> profileOffsets</text>
<text text-anchor="middle" x="1738.5" y="-429.5" font-family="Helvetica,sans-Serif" font-size="10.00">values</text>
<text text-anchor="middle" x="1738.5" y="-418.5" font-family="Helvetica,sans-Serif" font-size="10.00">strings</text>
<text text-anchor="middle" x="1738.5" y="-407.5" font-family="Helvetica,sans-Serif" font-size="10.00">maps</text>
<text text-anchor="middle" x="1738.5" y="-396.5" font-family="Helvetica,sans-Serif" font-size="10.00">components</text>
<text text-anchor="middle" x="1738.5" y="-385.5" font-family="Helvetica,sans-Serif" font-size="10.00">nodes</text>
<text text-anchor="middle" x="1738.5" y="-374.5" font-family="Helvetica,sans-Serif" font-size="10.00">properties</text>
<text text-anchor="middle" x="1738.5" y="-363.5" font-family="Helvetica,sans-Serif" font-size="10.00">rootNodes</text>
<text text-anchor="middle" x="1738.5" y="-352.5" font-family="Helvetica,sans-Serif" font-size="10.00">profiles</text>
</g>
<!-- Node9 -->
<g id="node9" class="node">
<title>Node9</title>
<g id="a_node9"><a xlink:href="structfiftyone_degrees_data_set_device_detection.html" target="_top" xlink:title="Device detection data set structure which contains the &#39;must have&#39;s for all device detection data set...">
<polygon fill="none" stroke="black" points="1791,-162.5 1791,-192.5 1958,-192.5 1958,-162.5 1791,-162.5"/>
<text text-anchor="start" x="1799" y="-180.5" font-family="Helvetica,sans-Serif" font-size="10.00">fiftyoneDegreesDataSetDevice</text>
<text text-anchor="middle" x="1874.5" y="-169.5" font-family="Helvetica,sans-Serif" font-size="10.00">Detection</text>
</a>
</g>
</g>
<!-- Node9&#45;&gt;Node1 -->
<g id="edge10" class="edge">
<title>Node9&#45;&gt;Node1</title>
<path fill="none" stroke="#9a32cd" stroke-dasharray="5,2" d="M1905.82,-198.54C1957,-234.04 2058.54,-304.49 2095.31,-330"/>
<polygon fill="#9a32cd" stroke="#9a32cd" points="1907.68,-195.57 1897.47,-192.74 1903.69,-201.32 1907.68,-195.57"/>
<text text-anchor="middle" x="1994.5" y="-270.5" font-family="Helvetica,sans-Serif" font-size="10.00"> b</text>
</g>
<!-- Node10 -->
<g id="node10" class="node">
<title>Node10</title>
<g id="a_node10"><a xlink:href="structfiftyone_degrees_data_set_base.html" target="_top" xlink:title="Base data set structure which contains the &#39;must have&#39;s for all data sets.">
<polygon fill="none" stroke="black" points="1516.5,-102 1516.5,-121 1673.5,-121 1673.5,-102 1516.5,-102"/>
<text text-anchor="middle" x="1595" y="-109" font-family="Helvetica,sans-Serif" font-size="10.00">fiftyoneDegreesDataSetBase</text>
</a>
</g>
</g>
<!-- Node10&#45;&gt;Node9 -->
<g id="edge11" class="edge">
<title>Node10&#45;&gt;Node9</title>
<path fill="none" stroke="#9a32cd" stroke-dasharray="5,2" d="M1683.98,-109.41C1712.81,-110.71 1744.69,-114.32 1773,-122.5 1802.43,-131.01 1832.82,-149.18 1852.36,-162.31"/>
<polygon fill="#9a32cd" stroke="#9a32cd" points="1684.04,-105.91 1673.92,-109.04 1683.79,-112.91 1684.04,-105.91"/>
<text text-anchor="middle" x="1738.5" y="-125.5" font-family="Helvetica,sans-Serif" font-size="10.00"> b</text>
</g>
<!-- Node11 -->
<g id="node11" class="node">
<title>Node11</title>
<g id="a_node11"><a xlink:href="structfiftyone_degrees_header_array.html" target="_top" xlink:title="Array of items of type fiftyoneDegreesHeader used to easily access and track the size of the array.">
<polygon fill="none" stroke="black" points="1221,-6 1221,-25 1376,-25 1376,-6 1221,-6"/>
<text text-anchor="middle" x="1298.5" y="-13" font-family="Helvetica,sans-Serif" font-size="10.00">fiftyoneDegreesHeaderArray</text>
</a>
</g>
</g>
<!-- Node11&#45;&gt;Node10 -->
<g id="edge12" class="edge">
<title>Node11&#45;&gt;Node10</title>
<path fill="none" stroke="#9a32cd" stroke-dasharray="5,2" d="M1355.01,-27.26C1365.65,-29.6 1376.68,-32.08 1387,-34.5 1431.18,-44.87 1443.34,-44.02 1486,-59.5 1519.26,-71.57 1555.97,-90.54 1576.88,-101.92"/>
<polygon fill="#9a32cd" stroke="#9a32cd" points="1355.5,-23.78 1344.98,-25.07 1354,-30.62 1355.5,-23.78"/>
<text text-anchor="middle" x="1445.5" y="-62.5" font-family="Helvetica,sans-Serif" font-size="10.00"> uniqueHeaders</text>
</g>
<!-- Node12 -->
<g id="node12" class="node">
<title>Node12</title>
<g id="a_node12"><a xlink:href="structfiftyone_degrees_header.html" target="_top" xlink:title="Header structure to identify a header that either comes directly from the data set,...">
<polygon fill="none" stroke="black" points="841,-6 841,-25 970,-25 970,-6 841,-6"/>
<text text-anchor="middle" x="905.5" y="-13" font-family="Helvetica,sans-Serif" font-size="10.00">fiftyoneDegreesHeader</text>
</a>
</g>
</g>
<!-- Node12&#45;&gt;Node11 -->
<g id="edge13" class="edge">
<title>Node12&#45;&gt;Node11</title>
<path fill="none" stroke="#9a32cd" stroke-dasharray="5,2" d="M980.5,-15.5C1049.23,-15.5 1151.14,-15.5 1220.74,-15.5"/>
<polygon fill="#9a32cd" stroke="#9a32cd" points="980.19,-12 970.19,-15.5 980.19,-19 980.19,-12"/>
<text text-anchor="middle" x="1102" y="-18.5" font-family="Helvetica,sans-Serif" font-size="10.00"> items</text>
</g>
<!-- Node13 -->
<g id="node13" class="node">
<title>Node13</title>
<g id="a_node13"><a xlink:href="structfiftyone_degrees_header_segment_array.html" target="_top" xlink:title="Array of items of type fiftyoneDegreesHeaderSegment used to easily access and track the size of the a...">
<polygon fill="none" stroke="black" points="493.5,-0.5 493.5,-30.5 666.5,-30.5 666.5,-0.5 493.5,-0.5"/>
<text text-anchor="start" x="501.5" y="-18.5" font-family="Helvetica,sans-Serif" font-size="10.00">fiftyoneDegreesHeaderSegment</text>
<text text-anchor="middle" x="580" y="-7.5" font-family="Helvetica,sans-Serif" font-size="10.00">Array</text>
</a>
</g>
</g>
<!-- Node13&#45;&gt;Node12 -->
<g id="edge14" class="edge">
<title>Node13&#45;&gt;Node12</title>
<path fill="none" stroke="#9a32cd" stroke-dasharray="5,2" d="M676.93,-15.5C729.86,-15.5 794.13,-15.5 840.85,-15.5"/>
<polygon fill="#9a32cd" stroke="#9a32cd" points="676.84,-12 666.84,-15.5 676.84,-19 676.84,-12"/>
<text text-anchor="middle" x="743.5" y="-18.5" font-family="Helvetica,sans-Serif" font-size="10.00"> segments</text>
</g>
<!-- Node14 -->
<g id="node14" class="node">
<title>Node14</title>
<g id="a_node14"><a xlink:href="structfiftyone_degrees_header_segment.html" target="_top" xlink:title="Null or PSEUDO_HEADER_SEP terminated string segment within a header.">
<polygon fill="none" stroke="black" points="181,-6 181,-25 354,-25 354,-6 181,-6"/>
<text text-anchor="middle" x="267.5" y="-13" font-family="Helvetica,sans-Serif" font-size="10.00">fiftyoneDegreesHeaderSegment</text>
</a>
</g>
</g>
<!-- Node14&#45;&gt;Node13 -->
<g id="edge15" class="edge">
<title>Node14&#45;&gt;Node13</title>
<path fill="none" stroke="#9a32cd" stroke-dasharray="5,2" d="M364.22,-15.5C405.46,-15.5 453.3,-15.5 493.34,-15.5"/>
<polygon fill="#9a32cd" stroke="#9a32cd" points="364.17,-12 354.17,-15.5 364.17,-19 364.17,-12"/>
<text text-anchor="middle" x="423.5" y="-18.5" font-family="Helvetica,sans-Serif" font-size="10.00"> items</text>
</g>
<!-- Node15 -->
<g id="node15" class="node">
<title>Node15</title>
<g id="a_node15"><a xlink:href="structfiftyone_degrees_resource_handle.html" target="_top" xlink:title="Handle for a shared resource.">
<polygon fill="none" stroke="black" points="1212,-275 1212,-294 1385,-294 1385,-275 1212,-275"/>
<text text-anchor="middle" x="1298.5" y="-282" font-family="Helvetica,sans-Serif" font-size="10.00">fiftyoneDegreesResourceHandle</text>
</a>
</g>
</g>
<!-- Node15&#45;&gt;Node10 -->
<g id="edge16" class="edge">
<title>Node15&#45;&gt;Node10</title>
<path fill="none" stroke="#9a32cd" stroke-dasharray="5,2" d="M1348.71,-272.54C1400.74,-259.46 1476.62,-238.97 1486,-228.5 1515.54,-195.51 1473.1,-162.22 1504,-130.5 1507.68,-126.72 1511.9,-123.61 1516.47,-121.04"/>
<polygon fill="#9a32cd" stroke="#9a32cd" points="1347.82,-269.16 1338.97,-274.98 1349.52,-275.95 1347.82,-269.16"/>
<text text-anchor="middle" x="1445.5" y="-259.5" font-family="Helvetica,sans-Serif" font-size="10.00"> handle</text>
</g>
<!-- Node16 -->
<g id="node16" class="node">
<title>Node16</title>
<g id="a_node16"><a xlink:href="structfiftyone_degrees_resource_manager.html" target="_top" xlink:title="Manager structure used to provide access to a shared and changing resource.">
<polygon fill="none" stroke="black" points="1504,-265 1504,-284 1686,-284 1686,-265 1504,-265"/>
<text text-anchor="middle" x="1595" y="-272" font-family="Helvetica,sans-Serif" font-size="10.00">fiftyoneDegreesResourceManager</text>
</a>
</g>
</g>
<!-- Node15&#45;&gt;Node16 -->
<g id="edge18" class="edge">
<title>Node15&#45;&gt;Node16</title>
<path fill="none" stroke="#9a32cd" stroke-dasharray="5,2" d="M1395.27,-281.25C1430.16,-280.06 1469.46,-278.73 1503.85,-277.56"/>
<polygon fill="#9a32cd" stroke="#9a32cd" points="1394.95,-277.76 1385.08,-281.59 1395.19,-284.75 1394.95,-277.76"/>
<text text-anchor="middle" x="1445.5" y="-283.5" font-family="Helvetica,sans-Serif" font-size="10.00"> active</text>
</g>
<!-- Node16&#45;&gt;Node15 -->
<g id="edge17" class="edge">
<title>Node16&#45;&gt;Node15</title>
<path fill="none" stroke="#9a32cd" stroke-dasharray="5,2" d="M1539.5,-286.1C1515.61,-291.09 1491.69,-295.93 1486,-296.5 1445.97,-300.54 1400.96,-297.85 1365.19,-294"/>
<polygon fill="#9a32cd" stroke="#9a32cd" points="1540.25,-289.52 1549.32,-284.04 1538.82,-282.67 1540.25,-289.52"/>
<text text-anchor="middle" x="1445.5" y="-300.5" font-family="Helvetica,sans-Serif" font-size="10.00"> manager</text>
</g>
<!-- Node17 -->
<g id="node17" class="node">
<title>Node17</title>
<g id="a_node17"><a xlink:href="structfiftyone_degrees_interlock_double_width.html" target="_top" xlink:title="Double width (64 or 128 depending on the architecture) compare and exchange.">
<polygon fill="none" stroke="black" points="837,-269.5 837,-299.5 974,-299.5 974,-269.5 837,-269.5"/>
<text text-anchor="start" x="845" y="-287.5" font-family="Helvetica,sans-Serif" font-size="10.00">fiftyoneDegreesInterlock</text>
<text text-anchor="middle" x="905.5" y="-276.5" font-family="Helvetica,sans-Serif" font-size="10.00">DoubleWidth</text>
</a>
</g>
</g>
<!-- Node17&#45;&gt;Node15 -->
<g id="edge19" class="edge">
<title>Node17&#45;&gt;Node15</title>
<path fill="none" stroke="#9a32cd" stroke-dasharray="5,2" d="M984.46,-284.5C1050.18,-284.5 1144.1,-284.5 1211.89,-284.5"/>
<polygon fill="#9a32cd" stroke="#9a32cd" points="984.16,-281 974.16,-284.5 984.16,-288 984.16,-281"/>
<text text-anchor="middle" x="1102" y="-287.5" font-family="Helvetica,sans-Serif" font-size="10.00"> counter</text>
</g>
<!-- Node18 -->
<g id="node18" class="node">
<title>Node18</title>
<g id="a_node18"><a xlink:href="structfiftyone_degrees_file_pool.html" target="_top" xlink:title="Stack of handles used to read data from a single source file.">
<polygon fill="none" stroke="black" points="1232.5,-141 1232.5,-160 1364.5,-160 1364.5,-141 1232.5,-141"/>
<text text-anchor="middle" x="1298.5" y="-148" font-family="Helvetica,sans-Serif" font-size="10.00">fiftyoneDegreesFilePool</text>
</a>
</g>
</g>
<!-- Node18&#45;&gt;Node10 -->
<g id="edge20" class="edge">
<title>Node18&#45;&gt;Node10</title>
<path fill="none" stroke="#9a32cd" stroke-dasharray="5,2" d="M1374.92,-140.51C1420.2,-134.52 1477.48,-126.93 1522.12,-121.02"/>
<polygon fill="#9a32cd" stroke="#9a32cd" points="1374.31,-137.06 1364.86,-141.84 1375.23,-144 1374.31,-137.06"/>
<text text-anchor="middle" x="1445.5" y="-139.5" font-family="Helvetica,sans-Serif" font-size="10.00"> filePool</text>
</g>
<!-- Node19 -->
<g id="node19" class="node">
<title>Node19</title>
<g id="a_node19"><a xlink:href="structfiftyone_degrees_pool.html" target="_top" xlink:title="Pool of resources stored as items in a stack.">
<polygon fill="none" stroke="black" points="848,-175 848,-194 963,-194 963,-175 848,-175"/>
<text text-anchor="middle" x="905.5" y="-182" font-family="Helvetica,sans-Serif" font-size="10.00">fiftyoneDegreesPool</text>
</a>
</g>
</g>
<!-- Node19&#45;&gt;Node18 -->
<g id="edge21" class="edge">
<title>Node19&#45;&gt;Node18</title>
<path fill="none" stroke="#9a32cd" stroke-dasharray="5,2" d="M973.21,-173.48C986.06,-171.61 999.43,-169.85 1012,-168.5 1087.43,-160.42 1174.49,-155.57 1232.45,-152.98"/>
<polygon fill="#9a32cd" stroke="#9a32cd" points="972.43,-170.06 963.05,-174.99 973.46,-176.98 972.43,-170.06"/>
<text text-anchor="middle" x="1102" y="-171.5" font-family="Helvetica,sans-Serif" font-size="10.00"> pool</text>
</g>
<!-- Node19&#45;&gt;Node19 -->
<g id="edge22" class="edge">
<title>Node19&#45;&gt;Node19</title>
<path fill="none" stroke="#9a32cd" stroke-dasharray="5,2" d="M875.19,-202.77C876.05,-208.24 886.15,-212.5 905.5,-212.5 934.29,-212.5 942.62,-203.07 930.47,-194.26"/>
<polygon fill="#9a32cd" stroke="#9a32cd" points="878.18,-204.59 880.53,-194.26 872.25,-200.87 878.18,-204.59"/>
<text text-anchor="middle" x="905.5" y="-215.5" font-family="Helvetica,sans-Serif" font-size="10.00"> resourceFree</text>
</g>
<!-- Node21 -->
<g id="node21" class="node">
<title>Node21</title>
<g id="a_node21"><a xlink:href="structfiftyone_degrees_pool_item.html" target="_top" xlink:title="Pool item node in the stack of items.">
<polygon fill="none" stroke="black" points="1230,-179 1230,-198 1367,-198 1367,-179 1230,-179"/>
<text text-anchor="middle" x="1298.5" y="-186" font-family="Helvetica,sans-Serif" font-size="10.00">fiftyoneDegreesPoolItem</text>
</a>
</g>
</g>
<!-- Node19&#45;&gt;Node21 -->
<g id="edge25" class="edge">
<title>Node19&#45;&gt;Node21</title>
<path fill="none" stroke="#9a32cd" stroke-dasharray="5,2" d="M973.23,-193.25C986.08,-194.6 999.44,-195.79 1012,-196.5 1091.87,-201.03 1112.06,-199.53 1192,-196.5 1204.21,-196.04 1217.19,-195.28 1229.72,-194.4"/>
<polygon fill="#9a32cd" stroke="#9a32cd" points="973.39,-189.74 963.07,-192.13 972.62,-196.7 973.39,-189.74"/>
<text text-anchor="middle" x="1102" y="-201.5" font-family="Helvetica,sans-Serif" font-size="10.00"> pool</text>
</g>
<!-- Node20 -->
<g id="node20" class="node">
<title>Node20</title>
<g id="a_node20"><a xlink:href="unionfiftyone_degrees_pool_head.html" target="_top" xlink:title="The head of the stack used for pop and push operations.">
<polygon fill="none" stroke="black" points="510,-175 510,-194 650,-194 650,-175 510,-175"/>
<text text-anchor="middle" x="580" y="-182" font-family="Helvetica,sans-Serif" font-size="10.00">fiftyoneDegreesPoolHead</text>
</a>
</g>
</g>
<!-- Node20&#45;&gt;Node19 -->
<g id="edge23" class="edge">
<title>Node20&#45;&gt;Node19</title>
<path fill="none" stroke="#9a32cd" stroke-dasharray="5,2" d="M660.26,-184.5C718.42,-184.5 796.02,-184.5 847.99,-184.5"/>
<polygon fill="#9a32cd" stroke="#9a32cd" points="660,-181 650,-184.5 660,-188 660,-181"/>
<text text-anchor="middle" x="743.5" y="-187.5" font-family="Helvetica,sans-Serif" font-size="10.00"> head</text>
</g>
<!-- Node21&#45;&gt;Node19 -->
<g id="edge24" class="edge">
<title>Node21&#45;&gt;Node19</title>
<path fill="none" stroke="#9a32cd" stroke-dasharray="5,2" d="M1219.84,-186.07C1210.46,-185.84 1201.01,-185.64 1192,-185.5 1112.58,-184.23 1020.72,-184.16 963.11,-184.28"/>
<polygon fill="#9a32cd" stroke="#9a32cd" points="1219.88,-189.57 1229.97,-186.33 1220.06,-182.58 1219.88,-189.57"/>
<text text-anchor="middle" x="1102" y="-188.5" font-family="Helvetica,sans-Serif" font-size="10.00"> stack</text>
</g>
<!-- Node22 -->
<g id="node22" class="node">
<title>Node22</title>
<g id="a_node22"><a xlink:href="structfiftyone_degrees_override_property_array.html" target="_top" xlink:title="Array of items of type fiftyoneDegreesOverrideProperty used to easily access and track the size of th...">
<polygon fill="none" stroke="black" points="1210,-44.5 1210,-74.5 1387,-74.5 1387,-44.5 1210,-44.5"/>
<text text-anchor="start" x="1218" y="-62.5" font-family="Helvetica,sans-Serif" font-size="10.00">fiftyoneDegreesOverrideProperty</text>
<text text-anchor="middle" x="1298.5" y="-51.5" font-family="Helvetica,sans-Serif" font-size="10.00">Array</text>
</a>
</g>
</g>
<!-- Node22&#45;&gt;Node10 -->
<g id="edge26" class="edge">
<title>Node22&#45;&gt;Node10</title>
<path fill="none" stroke="#9a32cd" stroke-dasharray="5,2" d="M1397.08,-72.06C1425.8,-76.18 1457.24,-81.1 1486,-86.5 1509.45,-90.9 1535.53,-96.91 1556.18,-101.93"/>
<polygon fill="#9a32cd" stroke="#9a32cd" points="1397.43,-68.57 1387.04,-70.63 1396.45,-75.5 1397.43,-68.57"/>
<text text-anchor="middle" x="1445.5" y="-89.5" font-family="Helvetica,sans-Serif" font-size="10.00"> overridable</text>
</g>
<!-- Node23 -->
<g id="node23" class="node">
<title>Node23</title>
<g id="a_node23"><a xlink:href="structfiftyone_degrees_override_property.html" target="_top" xlink:title="Index and pointer to a property which can be overridden.">
<polygon fill="none" stroke="black" points="817,-57 817,-76 994,-76 994,-57 817,-57"/>
<text text-anchor="middle" x="905.5" y="-64" font-family="Helvetica,sans-Serif" font-size="10.00">fiftyoneDegreesOverrideProperty</text>
</a>
</g>
</g>
<!-- Node23&#45;&gt;Node22 -->
<g id="edge27" class="edge">
<title>Node23&#45;&gt;Node22</title>
<path fill="none" stroke="#9a32cd" stroke-dasharray="5,2" d="M1004.6,-64.74C1067.63,-63.62 1148.81,-62.16 1209.71,-61.07"/>
<polygon fill="#9a32cd" stroke="#9a32cd" points="1004.18,-61.25 994.25,-64.93 1004.31,-68.25 1004.18,-61.25"/>
<text text-anchor="middle" x="1102" y="-67.5" font-family="Helvetica,sans-Serif" font-size="10.00"> items</text>
</g>
<!-- Node24&#45;&gt;Node23 -->
<g id="edge28" class="edge">
<title>Node24&#45;&gt;Node23</title>
<path fill="none" stroke="#9a32cd" stroke-dasharray="5,2" d="M615.69,-98.44C636.38,-91.25 663.33,-82.92 688,-78.5 729.96,-70.98 777.17,-67.77 816.77,-66.52"/>
<polygon fill="#9a32cd" stroke="#9a32cd" points="614.33,-95.21 606.08,-101.86 616.67,-101.81 614.33,-95.21"/>
<text text-anchor="middle" x="743.5" y="-81.5" font-family="Helvetica,sans-Serif" font-size="10.00"> available</text>
</g>
<!-- Node26 -->
<g id="node26" class="node">
<title>Node26</title>
<g id="a_node26"><a xlink:href="structfiftyone_degrees_property_available_array.html" target="_top" xlink:title="Array of items of type fiftyoneDegreesPropertyAvailable used to easily access and track the size of t...">
<polygon fill="none" stroke="black" points="1012,-96.5 1012,-126.5 1192,-126.5 1192,-96.5 1012,-96.5"/>
<text text-anchor="start" x="1020" y="-114.5" font-family="Helvetica,sans-Serif" font-size="10.00">fiftyoneDegreesPropertyAvailable</text>
<text text-anchor="middle" x="1102" y="-103.5" font-family="Helvetica,sans-Serif" font-size="10.00">Array</text>
</a>
</g>
</g>
<!-- Node24&#45;&gt;Node26 -->
<g id="edge32" class="edge">
<title>Node24&#45;&gt;Node26</title>
<path fill="none" stroke="#9a32cd" stroke-dasharray="5,2" d="M680.37,-111.5C776.11,-111.5 919.63,-111.5 1011.8,-111.5"/>
<polygon fill="#9a32cd" stroke="#9a32cd" points="680.1,-108 670.1,-111.5 680.1,-115 680.1,-108"/>
<text text-anchor="middle" x="743.5" y="-114.5" font-family="Helvetica,sans-Serif" font-size="10.00"> items</text>
</g>
<!-- Node25 -->
<g id="node25" class="node">
<title>Node25</title>
<g id="a_node25"><a xlink:href="structfiftyone_degrees_evidence_property_index_array.html" target="_top" xlink:title="Array of items of type fiftyoneDegreesEvidencePropertyIndex used to easily access and track the size ...">
<polygon fill="none" stroke="black" points="178,-96.5 178,-126.5 357,-126.5 357,-96.5 178,-96.5"/>
<text text-anchor="start" x="186" y="-114.5" font-family="Helvetica,sans-Serif" font-size="10.00">fiftyoneDegreesEvidenceProperty</text>
<text text-anchor="middle" x="267.5" y="-103.5" font-family="Helvetica,sans-Serif" font-size="10.00">IndexArray</text>
</a>
</g>
</g>
<!-- Node25&#45;&gt;Node24 -->
<g id="edge29" class="edge">
<title>Node25&#45;&gt;Node24</title>
<path fill="none" stroke="#9a32cd" stroke-dasharray="5,2" d="M367.2,-111.5C406.52,-111.5 451.45,-111.5 489.78,-111.5"/>
<polygon fill="#9a32cd" stroke="#9a32cd" points="367.06,-108 357.06,-111.5 367.06,-115 367.06,-108"/>
<text text-anchor="middle" x="423.5" y="-114.5" font-family="Helvetica,sans-Serif" font-size="10.00"> evidenceProperties</text>
</g>
<!-- Node26&#45;&gt;Node10 -->
<g id="edge31" class="edge">
<title>Node26&#45;&gt;Node10</title>
<path fill="none" stroke="#9a32cd" stroke-dasharray="5,2" d="M1202.43,-111.5C1295.11,-111.5 1431.43,-111.5 1516.35,-111.5"/>
<polygon fill="#9a32cd" stroke="#9a32cd" points="1202.2,-108 1192.2,-111.5 1202.2,-115 1202.2,-108"/>
<text text-anchor="middle" x="1298.5" y="-114.5" font-family="Helvetica,sans-Serif" font-size="10.00"> available</text>
</g>
<!-- Node27 -->
<g id="node27" class="node">
<title>Node27</title>
<g id="a_node27"><a xlink:href="structfiftyone_degrees_config_hash.html" target="_top" xlink:title="Hash specific configuration structure.">
<polygon fill="none" stroke="black" points="1800,-268 1800,-287 1949,-287 1949,-268 1800,-268"/>
<text text-anchor="middle" x="1874.5" y="-275" font-family="Helvetica,sans-Serif" font-size="10.00">fiftyoneDegreesConfigHash</text>
</a>
</g>
</g>
<!-- Node27&#45;&gt;Node1 -->
<g id="edge34" class="edge">
<title>Node27&#45;&gt;Node1</title>
<path fill="none" stroke="#9a32cd" stroke-dasharray="5,2" d="M1921.15,-289.62C1965.57,-301.42 2032.18,-319.1 2072.99,-329.94"/>
<polygon fill="#9a32cd" stroke="#9a32cd" points="1922.04,-286.24 1911.47,-287.05 1920.24,-293 1922.04,-286.24"/>
<text text-anchor="middle" x="1994.5" y="-314.5" font-family="Helvetica,sans-Serif" font-size="10.00"> config</text>
</g>
<!-- Node28 -->
<g id="node28" class="node">
<title>Node28</title>
<g id="a_node28"><a xlink:href="structfiftyone_degrees_collection_config.html" target="_top" xlink:title="Collection configuration structure which defines how the collection should be created by the create m...">
<polygon fill="none" stroke="black" points="1523.5,-140.5 1523.5,-170.5 1666.5,-170.5 1666.5,-140.5 1523.5,-140.5"/>
<text text-anchor="start" x="1531.5" y="-158.5" font-family="Helvetica,sans-Serif" font-size="10.00">fiftyoneDegreesCollection</text>
<text text-anchor="middle" x="1595" y="-147.5" font-family="Helvetica,sans-Serif" font-size="10.00">Config</text>
</a>
</g>
</g>
<!-- Node28&#45;&gt;Node27 -->
<g id="edge35" class="edge">
<title>Node28&#45;&gt;Node27</title>
<path fill="none" stroke="#9a32cd" stroke-dasharray="5,2" d="M1677.15,-145.11C1716.07,-141.9 1757.54,-141.63 1773,-152.5 1792.32,-166.08 1777.87,-182.86 1791,-202.5 1809.72,-230.5 1841.1,-255.09 1859.29,-267.96"/>
<polygon fill="#9a32cd" stroke="#9a32cd" points="1676.45,-141.66 1666.8,-146.04 1677.08,-148.63 1676.45,-141.66"/>
<text text-anchor="middle" x="1738.5" y="-243.5" font-family="Helvetica,sans-Serif" font-size="10.00"> profileOffsets</text>
<text text-anchor="middle" x="1738.5" y="-232.5" font-family="Helvetica,sans-Serif" font-size="10.00">values</text>
<text text-anchor="middle" x="1738.5" y="-221.5" font-family="Helvetica,sans-Serif" font-size="10.00">strings</text>
<text text-anchor="middle" x="1738.5" y="-210.5" font-family="Helvetica,sans-Serif" font-size="10.00">maps</text>
<text text-anchor="middle" x="1738.5" y="-199.5" font-family="Helvetica,sans-Serif" font-size="10.00">components</text>
<text text-anchor="middle" x="1738.5" y="-188.5" font-family="Helvetica,sans-Serif" font-size="10.00">nodes</text>
<text text-anchor="middle" x="1738.5" y="-177.5" font-family="Helvetica,sans-Serif" font-size="10.00">properties</text>
<text text-anchor="middle" x="1738.5" y="-166.5" font-family="Helvetica,sans-Serif" font-size="10.00">rootNodes</text>
<text text-anchor="middle" x="1738.5" y="-155.5" font-family="Helvetica,sans-Serif" font-size="10.00">profiles</text>
</g>
<!-- Node29 -->
<g id="node29" class="node">
<title>Node29</title>
<g id="a_node29"><a xlink:href="structfiftyone_degrees_config_device_detection.html" target="_top" xlink:title="Device detection configuration structure containing device detection specific configuration options,...">
<polygon fill="none" stroke="black" points="1516,-208.5 1516,-238.5 1674,-238.5 1674,-208.5 1516,-208.5"/>
<text text-anchor="start" x="1524" y="-226.5" font-family="Helvetica,sans-Serif" font-size="10.00">fiftyoneDegreesConfigDevice</text>
<text text-anchor="middle" x="1595" y="-215.5" font-family="Helvetica,sans-Serif" font-size="10.00">Detection</text>
</a>
</g>
</g>
<!-- Node29&#45;&gt;Node27 -->
<g id="edge36" class="edge">
<title>Node29&#45;&gt;Node27</title>
<path fill="none" stroke="#9a32cd" stroke-dasharray="5,2" d="M1650.54,-241.49C1667.52,-246.6 1686.41,-251.78 1704,-255.5 1735.06,-262.07 1769.77,-267 1799.65,-270.5"/>
<polygon fill="#9a32cd" stroke="#9a32cd" points="1651.37,-238.09 1640.78,-238.51 1649.32,-244.78 1651.37,-238.09"/>
<text text-anchor="middle" x="1738.5" y="-269.5" font-family="Helvetica,sans-Serif" font-size="10.00"> b</text>
</g>
<!-- Node30 -->
<g id="node30" class="node">
<title>Node30</title>
<g id="a_node30"><a xlink:href="structfiftyone_degrees_config_base.html" target="_top" xlink:title="Base configuration structure containing common configuration options, and options that apply to struc...">
<polygon fill="none" stroke="black" points="1224,-217 1224,-236 1373,-236 1373,-217 1224,-217"/>
<text text-anchor="middle" x="1298.5" y="-224" font-family="Helvetica,sans-Serif" font-size="10.00">fiftyoneDegreesConfigBase</text>
</a>
</g>
</g>
<!-- Node30&#45;&gt;Node29 -->
<g id="edge37" class="edge">
<title>Node30&#45;&gt;Node29</title>
<path fill="none" stroke="#9a32cd" stroke-dasharray="5,2" d="M1383.25,-218.7C1390.6,-218.22 1397.93,-217.8 1405,-217.5 1441.41,-215.95 1481.78,-216.87 1515.82,-218.41"/>
<polygon fill="#9a32cd" stroke="#9a32cd" points="1382.96,-215.21 1373.23,-219.41 1383.45,-222.2 1382.96,-215.21"/>
<text text-anchor="middle" x="1445.5" y="-220.5" font-family="Helvetica,sans-Serif" font-size="10.00"> b</text>
</g>
</g>
</svg>
