<?xml version="1.0" encoding="UTF-8" standalone="no"?>
<!DOCTYPE svg PUBLIC "-//W3C//DTD SVG 1.1//EN"
 "http://www.w3.org/Graphics/SVG/1.1/DTD/svg11.dtd">
<!-- Generated by graphviz version 2.43.0 (0)
 -->
<!-- Title: performanceState Pages: 1 -->
<svg width="778pt" height="273pt"
 viewBox="0.00 0.00 777.50 273.00" xmlns="http://www.w3.org/2000/svg" xmlns:xlink="http://www.w3.org/1999/xlink">
<g id="graph0" class="graph" transform="scale(1 1) rotate(0) translate(4 269)">
<title>performanceState</title>
<!-- Node1 -->
<g id="node1" class="node">
<title>Node1</title>
<g id="a_node1"><a xlink:title="Single state containing everything needed for running and then reporting the performance tests.">
<polygon fill="#bfbfbf" stroke="black" points="198,-0.5 198,-19.5 302,-19.5 302,-0.5 198,-0.5"/>
<text text-anchor="middle" x="250" y="-7.5" font-family="Helvetica,sans-Serif" font-size="10.00">performanceState</text>
</a>
</g>
</g>
<!-- Node2 -->
<g id="node2" class="node">
<title>Node2</title>
<g id="a_node2"><a xlink:href="structfiftyone_degrees_resource_manager.html" target="_top" xlink:title="Manager structure used to provide access to a shared and changing resource.">
<polygon fill="none" stroke="black" points="432,-84 432,-103 614,-103 614,-84 432,-84"/>
<text text-anchor="middle" x="523" y="-91" font-family="Helvetica,sans-Serif" font-size="10.00">fiftyoneDegreesResourceManager</text>
</a>
</g>
</g>
<!-- Node2&#45;&gt;Node1 -->
<g id="edge1" class="edge">
<title>Node2&#45;&gt;Node1</title>
<path fill="none" stroke="#9a32cd" stroke-dasharray="5,2" d="M494.5,-79.86C466.36,-67.77 421.87,-49.69 382,-38 355.96,-30.36 326.42,-24.1 301.89,-19.54"/>
<polygon fill="#9a32cd" stroke="#9a32cd" points="493.17,-83.1 503.74,-83.87 495.96,-76.68 493.17,-83.1"/>
<text text-anchor="middle" x="467.5" y="-46.5" font-family="Helvetica,sans-Serif" font-size="10.00"> manager</text>
</g>
<!-- Node3 -->
<g id="node3" class="node">
<title>Node3</title>
<g id="a_node3"><a xlink:href="structfiftyone_degrees_resource_handle.html" target="_top" xlink:title="Handle for a shared resource.">
<polygon fill="none" stroke="black" points="506.5,-0.5 506.5,-19.5 679.5,-19.5 679.5,-0.5 506.5,-0.5"/>
<text text-anchor="middle" x="593" y="-7.5" font-family="Helvetica,sans-Serif" font-size="10.00">fiftyoneDegreesResourceHandle</text>
</a>
</g>
</g>
<!-- Node2&#45;&gt;Node3 -->
<g id="edge3" class="edge">
<title>Node2&#45;&gt;Node3</title>
<path fill="none" stroke="#9a32cd" stroke-dasharray="5,2" d="M516.62,-74.1C513.9,-62.73 512.78,-48.37 520,-38 525.95,-29.46 534.92,-23.62 544.56,-19.62"/>
<polygon fill="#9a32cd" stroke="#9a32cd" points="513.32,-75.27 519.51,-83.87 520.03,-73.29 513.32,-75.27"/>
<text text-anchor="middle" x="543.5" y="-46.5" font-family="Helvetica,sans-Serif" font-size="10.00"> manager</text>
</g>
<!-- Node3&#45;&gt;Node2 -->
<g id="edge2" class="edge">
<title>Node3&#45;&gt;Node2</title>
<path fill="none" stroke="#9a32cd" stroke-dasharray="5,2" d="M587.49,-29.39C583.91,-39.21 578.49,-51.09 571,-60 562.58,-70.02 550.34,-78.24 540.32,-83.91"/>
<polygon fill="#9a32cd" stroke="#9a32cd" points="590.86,-30.36 590.67,-19.77 584.21,-28.16 590.86,-30.36"/>
<text text-anchor="middle" x="600" y="-46.5" font-family="Helvetica,sans-Serif" font-size="10.00"> active</text>
</g>
<!-- Node4 -->
<g id="node4" class="node">
<title>Node4</title>
<g id="a_node4"><a xlink:href="structfiftyone_degrees_interlock_double_width.html" target="_top" xlink:title="Double width (64 or 128 depending on the architecture) compare and exchange.">
<polygon fill="none" stroke="black" points="632.5,-78.5 632.5,-108.5 769.5,-108.5 769.5,-78.5 632.5,-78.5"/>
<text text-anchor="start" x="640.5" y="-96.5" font-family="Helvetica,sans-Serif" font-size="10.00">fiftyoneDegreesInterlock</text>
<text text-anchor="middle" x="701" y="-85.5" font-family="Helvetica,sans-Serif" font-size="10.00">DoubleWidth</text>
</a>
</g>
</g>
<!-- Node4&#45;&gt;Node3 -->
<g id="edge4" class="edge">
<title>Node4&#45;&gt;Node3</title>
<path fill="none" stroke="#9a32cd" stroke-dasharray="5,2" d="M674.04,-72.16C651.58,-55.21 620.72,-31.92 604.32,-19.54"/>
<polygon fill="#9a32cd" stroke="#9a32cd" points="672.1,-75.07 682.19,-78.3 676.31,-69.49 672.1,-75.07"/>
<text text-anchor="middle" x="676" y="-46.5" font-family="Helvetica,sans-Serif" font-size="10.00"> counter</text>
</g>
<!-- Node5 -->
<g id="node5" class="node">
<title>Node5</title>
<g id="a_node5"><a xlink:href="structbenchmark_result.html" target="_top" xlink:title="Result of benchmarking from a single thread.">
<polygon fill="none" stroke="black" points="0,-84 0,-103 102,-103 102,-84 0,-84"/>
<text text-anchor="middle" x="51" y="-91" font-family="Helvetica,sans-Serif" font-size="10.00">benchmarkResult</text>
</a>
</g>
</g>
<!-- Node5&#45;&gt;Node1 -->
<g id="edge5" class="edge">
<title>Node5&#45;&gt;Node1</title>
<path fill="none" stroke="#9a32cd" stroke-dasharray="5,2" d="M70.44,-77.95C87.65,-65.69 113.87,-48.52 139,-38 158.48,-29.84 180.97,-23.8 200.58,-19.52"/>
<polygon fill="#9a32cd" stroke="#9a32cd" points="68.35,-75.14 62.31,-83.85 72.46,-80.8 68.35,-75.14"/>
<text text-anchor="middle" x="163.5" y="-46.5" font-family="Helvetica,sans-Serif" font-size="10.00"> resultList</text>
</g>
<!-- Node6 -->
<g id="node6" class="node">
<title>Node6</title>
<g id="a_node6"><a xlink:href="structshared_string_node.html" target="_top" xlink:title=" ">
<polygon fill="none" stroke="black" points="120,-84 120,-103 224,-103 224,-84 120,-84"/>
<text text-anchor="middle" x="172" y="-91" font-family="Helvetica,sans-Serif" font-size="10.00">sharedStringNode</text>
</a>
</g>
</g>
<!-- Node6&#45;&gt;Node1 -->
<g id="edge6" class="edge">
<title>Node6&#45;&gt;Node1</title>
<path fill="none" stroke="#9a32cd" stroke-dasharray="5,2" d="M181.45,-75.03C188.16,-63.65 197.91,-48.93 209,-38 216.28,-30.82 225.75,-24.44 233.75,-19.68"/>
<polygon fill="#9a32cd" stroke="#9a32cd" points="178.25,-73.57 176.38,-84 184.35,-77.01 178.25,-73.57"/>
<text text-anchor="middle" x="251.5" y="-52" font-family="Helvetica,sans-Serif" font-size="10.00"> sharedStringLast</text>
<text text-anchor="middle" x="251.5" y="-41" font-family="Helvetica,sans-Serif" font-size="10.00">sharedStringFirst</text>
</g>
<!-- Node6&#45;&gt;Node6 -->
<g id="edge7" class="edge">
<title>Node6&#45;&gt;Node6</title>
<path fill="none" stroke="#9a32cd" stroke-dasharray="5,2" d="M234.4,-98.83C239.11,-97.64 242,-95.87 242,-93.5 242,-89.71 234.59,-87.44 224.2,-86.67"/>
<polygon fill="#9a32cd" stroke="#9a32cd" points="233.59,-95.41 224.2,-100.33 234.61,-102.34 233.59,-95.41"/>
<text text-anchor="middle" x="254.5" y="-91" font-family="Helvetica,sans-Serif" font-size="10.00"> next</text>
</g>
<!-- Node7 -->
<g id="node7" class="node">
<title>Node7</title>
<g id="a_node7"><a xlink:href="structevidence_node.html" target="_top" xlink:title=" ">
<polygon fill="none" stroke="black" points="285,-84 285,-103 371,-103 371,-84 285,-84"/>
<text text-anchor="middle" x="328" y="-91" font-family="Helvetica,sans-Serif" font-size="10.00">evidenceNode</text>
</a>
</g>
</g>
<!-- Node7&#45;&gt;Node1 -->
<g id="edge8" class="edge">
<title>Node7&#45;&gt;Node1</title>
<path fill="none" stroke="#9a32cd" stroke-dasharray="5,2" d="M319.7,-74.88C313.7,-63.43 304.77,-48.69 294,-38 286.49,-30.55 276.56,-24.23 268.03,-19.58"/>
<polygon fill="#9a32cd" stroke="#9a32cd" points="316.61,-76.51 324.2,-83.91 322.88,-73.4 316.61,-76.51"/>
<text text-anchor="middle" x="344" y="-52" font-family="Helvetica,sans-Serif" font-size="10.00"> evidenceLast</text>
<text text-anchor="middle" x="344" y="-41" font-family="Helvetica,sans-Serif" font-size="10.00">evidenceFirst</text>
</g>
<!-- Node7&#45;&gt;Node7 -->
<g id="edge9" class="edge">
<title>Node7&#45;&gt;Node7</title>
<path fill="none" stroke="#9a32cd" stroke-dasharray="5,2" d="M381.25,-99.13C386.01,-97.95 389,-96.07 389,-93.5 389,-89.38 381.35,-87.05 371.04,-86.5"/>
<polygon fill="#9a32cd" stroke="#9a32cd" points="380.48,-95.7 371.04,-100.5 381.41,-102.64 380.48,-95.7"/>
<text text-anchor="middle" x="401.5" y="-91" font-family="Helvetica,sans-Serif" font-size="10.00"> next</text>
</g>
<!-- Node8 -->
<g id="node8" class="node">
<title>Node8</title>
<g id="a_node8"><a xlink:href="structfiftyone_degrees_evidence_key_value_pair_array.html" target="_top" xlink:title="Array of items of type fiftyoneDegreesEvidenceKeyValuePair used to easily access and track the size o...">
<polygon fill="none" stroke="black" points="250,-156.5 250,-186.5 406,-186.5 406,-156.5 250,-156.5"/>
<text text-anchor="start" x="258" y="-174.5" font-family="Helvetica,sans-Serif" font-size="10.00">fiftyoneDegreesEvidenceKey</text>
<text text-anchor="middle" x="328" y="-163.5" font-family="Helvetica,sans-Serif" font-size="10.00">ValuePairArray</text>
</a>
</g>
</g>
<!-- Node8&#45;&gt;Node7 -->
<g id="edge10" class="edge">
<title>Node8&#45;&gt;Node7</title>
<path fill="none" stroke="#9a32cd" stroke-dasharray="5,2" d="M328,-146.17C328,-131.4 328,-113.45 328,-103.06"/>
<polygon fill="#9a32cd" stroke="#9a32cd" points="324.5,-146.2 328,-156.2 331.5,-146.21 324.5,-146.2"/>
<text text-anchor="middle" x="342.5" y="-130" font-family="Helvetica,sans-Serif" font-size="10.00"> array</text>
</g>
<!-- Node9 -->
<g id="node9" class="node">
<title>Node9</title>
<g id="a_node9"><a xlink:href="structfiftyone_degrees_evidence_key_value_pair.html" target="_top" xlink:title="Evidence key value pair structure which combines the prefix, key and value.">
<polygon fill="none" stroke="black" points="250,-234.5 250,-264.5 406,-264.5 406,-234.5 250,-234.5"/>
<text text-anchor="start" x="258" y="-252.5" font-family="Helvetica,sans-Serif" font-size="10.00">fiftyoneDegreesEvidenceKey</text>
<text text-anchor="middle" x="328" y="-241.5" font-family="Helvetica,sans-Serif" font-size="10.00">ValuePair</text>
</a>
</g>
</g>
<!-- Node9&#45;&gt;Node8 -->
<g id="edge11" class="edge">
<title>Node9&#45;&gt;Node8</title>
<path fill="none" stroke="#9a32cd" stroke-dasharray="5,2" d="M328,-224.09C328,-211.76 328,-197.22 328,-186.73"/>
<polygon fill="#9a32cd" stroke="#9a32cd" points="324.5,-224.2 328,-234.2 331.5,-224.21 324.5,-224.2"/>
<text text-anchor="middle" x="343.5" y="-208" font-family="Helvetica,sans-Serif" font-size="10.00"> items</text>
</g>
</g>
</svg>
