<?xml version="1.0" encoding="UTF-8" standalone="no"?>
<!DOCTYPE svg PUBLIC "-//W3C//DTD SVG 1.1//EN"
 "http://www.w3.org/Graphics/SVG/1.1/DTD/svg11.dtd">
<!-- Generated by graphviz version 2.43.0 (0)
 -->
<!-- Title: fiftyoneDegreesConfigHash Pages: 1 -->
<svg width="328pt" height="261pt"
 viewBox="0.00 0.00 327.50 261.00" xmlns="http://www.w3.org/2000/svg" xmlns:xlink="http://www.w3.org/1999/xlink">
<g id="graph0" class="graph" transform="scale(1 1) rotate(0) translate(4 257)">
<title>fiftyoneDegreesConfigHash</title>
<!-- Node1 -->
<g id="node1" class="node">
<title>Node1</title>
<g id="a_node1"><a xlink:title="Hash specific configuration structure.">
<polygon fill="#bfbfbf" stroke="black" points="43,-0.5 43,-19.5 192,-19.5 192,-0.5 43,-0.5"/>
<text text-anchor="middle" x="117.5" y="-7.5" font-family="Helvetica,sans-Serif" font-size="10.00">fiftyoneDegreesConfigHash</text>
</a>
</g>
</g>
<!-- Node2 -->
<g id="node2" class="node">
<title>Node2</title>
<g id="a_node2"><a xlink:href="structfiftyone_degrees_collection_config.html" target="_top" xlink:title="Collection configuration structure which defines how the collection should be created by the create m...">
<polygon fill="none" stroke="black" points="0,-155.5 0,-185.5 143,-185.5 143,-155.5 0,-155.5"/>
<text text-anchor="start" x="8" y="-173.5" font-family="Helvetica,sans-Serif" font-size="10.00">fiftyoneDegreesCollection</text>
<text text-anchor="middle" x="71.5" y="-162.5" font-family="Helvetica,sans-Serif" font-size="10.00">Config</text>
</a>
</g>
</g>
<!-- Node2&#45;&gt;Node1 -->
<g id="edge1" class="edge">
<title>Node2&#45;&gt;Node1</title>
<path fill="none" stroke="#9a32cd" stroke-dasharray="5,2" d="M78.38,-145.79C88.78,-109.97 108,-43.72 114.93,-19.86"/>
<polygon fill="#9a32cd" stroke="#9a32cd" points="75.01,-144.85 75.58,-155.43 81.73,-146.81 75.01,-144.85"/>
<text text-anchor="middle" x="144" y="-129" font-family="Helvetica,sans-Serif" font-size="10.00"> profileOffsets</text>
<text text-anchor="middle" x="144" y="-118" font-family="Helvetica,sans-Serif" font-size="10.00">values</text>
<text text-anchor="middle" x="144" y="-107" font-family="Helvetica,sans-Serif" font-size="10.00">strings</text>
<text text-anchor="middle" x="144" y="-96" font-family="Helvetica,sans-Serif" font-size="10.00">maps</text>
<text text-anchor="middle" x="144" y="-85" font-family="Helvetica,sans-Serif" font-size="10.00">components</text>
<text text-anchor="middle" x="144" y="-74" font-family="Helvetica,sans-Serif" font-size="10.00">nodes</text>
<text text-anchor="middle" x="144" y="-63" font-family="Helvetica,sans-Serif" font-size="10.00">properties</text>
<text text-anchor="middle" x="144" y="-52" font-family="Helvetica,sans-Serif" font-size="10.00">rootNodes</text>
<text text-anchor="middle" x="144" y="-41" font-family="Helvetica,sans-Serif" font-size="10.00">profiles</text>
</g>
<!-- Node3 -->
<g id="node3" class="node">
<title>Node3</title>
<g id="a_node3"><a xlink:href="structfiftyone_degrees_config_device_detection.html" target="_top" xlink:title="Device detection configuration structure containing device detection specific configuration options,...">
<polygon fill="none" stroke="black" points="161.5,-155.5 161.5,-185.5 319.5,-185.5 319.5,-155.5 161.5,-155.5"/>
<text text-anchor="start" x="169.5" y="-173.5" font-family="Helvetica,sans-Serif" font-size="10.00">fiftyoneDegreesConfigDevice</text>
<text text-anchor="middle" x="240.5" y="-162.5" font-family="Helvetica,sans-Serif" font-size="10.00">Detection</text>
</a>
</g>
</g>
<!-- Node3&#45;&gt;Node1 -->
<g id="edge2" class="edge">
<title>Node3&#45;&gt;Node1</title>
<path fill="none" stroke="#9a32cd" stroke-dasharray="5,2" d="M234.97,-145.58C227.16,-116.64 210.29,-68.07 179.5,-38 171.02,-29.71 159.58,-23.76 148.83,-19.6"/>
<polygon fill="#9a32cd" stroke="#9a32cd" points="231.59,-146.46 237.45,-155.28 238.37,-144.73 231.59,-146.46"/>
<text text-anchor="middle" x="236.5" y="-85" font-family="Helvetica,sans-Serif" font-size="10.00"> b</text>
</g>
<!-- Node4 -->
<g id="node4" class="node">
<title>Node4</title>
<g id="a_node4"><a xlink:href="structfiftyone_degrees_config_base.html" target="_top" xlink:title="Base configuration structure containing common configuration options, and options that apply to struc...">
<polygon fill="none" stroke="black" points="166,-233.5 166,-252.5 315,-252.5 315,-233.5 166,-233.5"/>
<text text-anchor="middle" x="240.5" y="-240.5" font-family="Helvetica,sans-Serif" font-size="10.00">fiftyoneDegreesConfigBase</text>
</a>
</g>
</g>
<!-- Node4&#45;&gt;Node3 -->
<g id="edge3" class="edge">
<title>Node4&#45;&gt;Node3</title>
<path fill="none" stroke="#9a32cd" stroke-dasharray="5,2" d="M240.5,-223.24C240.5,-211.41 240.5,-196.38 240.5,-185.58"/>
<polygon fill="#9a32cd" stroke="#9a32cd" points="237,-223.36 240.5,-233.36 244,-223.36 237,-223.36"/>
<text text-anchor="middle" x="245.5" y="-207" font-family="Helvetica,sans-Serif" font-size="10.00"> b</text>
</g>
</g>
</svg>
